<?xml version="1.0" standalone="no"?>
<!DOCTYPE svg PUBLIC "-//W3C//DTD SVG 1.1//EN" "http://www.w3.org/Graphics/SVG/1.1/DTD/svg11.dtd">
<svg xmlns="http://www.w3.org/2000/svg">
<defs >
<font id="HankenGrotesk" horiz-adv-x="547" ><font-face
    font-family="Hanken Grotesk Medium"
    units-per-em="1000"
    panose-1="0 0 0 0 0 0 0 0 0 0"
    ascent="1000"
    descent="-303"
    alphabetic="0" />
<glyph unicode=" " horiz-adv-x="260" />
<glyph unicode="!" horiz-adv-x="244" d="M79 205L137 697H234L154 205H79ZM31 0L49 121H160L143 0H31Z" />
<glyph unicode="&quot;" horiz-adv-x="347" d="M72 413L112 697H194L154 413H72ZM238 413L278 697H361L321 413H238Z" />
<glyph unicode="#" horiz-adv-x="697" d="M88 0L162 207H44L54 277H186L240 431H117L127 505H265L336 697H415L345 501H487L557 697H636L565 501H683L673 431H540L485 277H611L600 207H461L387 0H309L382 207H239L167 0H88ZM266 277H408L461 431H318L266 277Z" />
<glyph unicode="$" horiz-adv-x="560" d="M198 -113L215 11H285L268 -113H198ZM310 685L327 808H398L380 685H310ZM268 -12Q197 -12 143 14T57 86T24 195L126 215Q128 146 170 113T275 79Q320 79 351 94T398 136T415 196Q415 229 399 250T355 288T287 320Q228
345 190 372T133 434T114 511Q114 565 141 610T217 682T333 710Q404 710 459 678T538 585L452 541Q436 581 404 600T333 620Q298 620 272 607T230 570T215 516Q215 488 229 469T271 435T343 403Q401 380 439 352T497 287T517 203Q517 140 485 91T397 15T268 -12Z"
/>
<glyph unicode="%" horiz-adv-x="743" d="M74 0L619 697H692L147 0H74ZM513 -9Q453 -9 415 29T376 131Q376 182 399 223T461 289T546 313Q586 313 616 295T665 244T683 172Q683 124 660 83T598 17T513 -9ZM519 58Q547 58 569 72T604 111T618 164Q618 200 596 223T540
247Q513 247 491 233T455 195T441 140Q441 103 463 81T519 58ZM226 384Q186 384 155 401T107 449T89 523Q89 574 112 615T174 681T259 706Q299 706 329 688T378 637T396 564Q396 516 373 475T311 409T226 384ZM232 450Q260 450 282 464T317 503T331 556Q331 592
309 615T253 639Q226 639 204 625T168 587T154 532Q154 495 176 473T232 450Z" />
<glyph unicode="&amp;" horiz-adv-x="691" d="M246 -11Q185 -11 139 7T66 59T39 143Q39 196 61 235T119 303T197 355T274 397Q323 422 363 447T427 501T451 568Q451 593 434 610T380 627Q351 627 326 614T285 577T270 522Q270 490 286 461T319 408L240 371Q227
390 212 413T187 463T176 522Q176 578 205 619T281 682T383 704Q457 704 499 669T542 573Q542 513 511 469T428 390T319 324Q290 308 259 291T200 254T157 209T140 151Q140 114 169 94T250 73Q321 73 381 108T487 209T560 367L646 348Q610 228 550 149T412 29T246
-11ZM538 -35L276 325L360 372L613 26L538 -35Z" />
<glyph unicode="&apos;" horiz-adv-x="180" d="M72 413L112 697H195L155 413H72Z" />
<glyph unicode="(" horiz-adv-x="322" d="M123 -204Q89 -142 73 -57T57 116Q57 181 68 258T102 413T161 565T248 697H339Q285 635 246 561T183 409T146 257T134 117Q134 58 142 0T166 -110T209 -204H123Z" />
<glyph unicode=")" horiz-adv-x="322" d="M-18 -204Q56 -120 102 -30T169 157T191 354Q191 415 183 478T159 599T117 697H200Q221 658 236 604T258 489T265 365Q265 267 246 166T183 -30T71 -204H-18Z" />
<glyph unicode="*" horiz-adv-x="398" d="M150 391L107 426L209 528L82 559L108 617L225 564L232 697H292L262 564L393 617L403 559L268 528L342 426L291 391L238 507L150 391Z" />
<glyph unicode="+" horiz-adv-x="560" d="M241 7V209H39V286H241V488H319V286H521V209H319V7H241Z" />
<glyph unicode="," horiz-adv-x="240" d="M-32 -152L95 150H206L34 -152H-32Z" />
<glyph unicode="-" horiz-adv-x="327" d="M43 264L52 337H300L291 264H43Z" />
<glyph unicode="." horiz-adv-x="240" d="M30 0L46 121H157L140 0H30Z" />
<glyph unicode="/" horiz-adv-x="419" d="M-113 -211L374 697H451L-37 -211H-113Z" />
<glyph unicode="0" horiz-adv-x="560" d="M250 -8Q191 -8 153 12T94 67T63 147T54 240Q54 269 56 299T63 356Q70 402 81 450T111 544T161 626T235 685T339 707Q396 707 434 687T494 632T525 553T534 460Q534 433 532 403T525 343Q519 295 507 245T474 150T424
69T350 13T250 -8ZM254 86Q305 86 340 122T396 218T427 352Q432 382 434 410T436 461Q436 530 414 571T336 613Q281 613 247 576T192 478T161 342Q157 314 155 288T152 236Q152 193 161 159T193 106T254 86Z" />
<glyph unicode="1" horiz-adv-x="560" d="M249 0L327 558L349 509H140L152 587H265Q297 587 317 602T341 651L347 697H446L348 0H249Z" />
<glyph unicode="2" horiz-adv-x="560" d="M11 0L20 79Q58 104 103 133T194 197T281 269T356 347T408 430T427 516Q427 558 403 583T328 609Q282 609 249 587T195 529T167 448L73 461Q80 509 101 552T155 630T233 684T334 704Q392 704 435 682T501 618T525 521Q525
470 507 423T458 332T386 248T300 173T207 108T114 53L126 91H494L481 0H11Z" />
<glyph unicode="3" horiz-adv-x="560" d="M246 -8Q177 -8 125 16T44 83T16 183Q16 191 17 199T19 217L116 218Q115 210 115 204T114 197Q114 143 150 115T252 86Q303 86 342 103T404 150T426 222Q426 254 414 274T377 306T321 322T251 327L256 404Q298 404 338
416T403 456T429 526Q429 567 403 589T329 612Q290 612 260 597T210 556T185 497L91 507Q99 566 133 610T219 680T335 705Q394 705 437 684T504 626T528 537Q528 492 508 456T453 397T373 362V381Q408 376 443 358T500 307T523 223Q523 162 489 110T392 25T246
-8Z" />
<glyph unicode="4" horiz-adv-x="560" d="M302 0L325 165H2L12 242L409 697H499L436 257H548L535 165H424L401 0H302ZM94 226L89 257H339L386 595L396 582L94 226Z" />
<glyph unicode="5" horiz-adv-x="560" d="M252 -9Q185 -9 135 19T56 94T26 200L122 211Q124 159 158 122T256 85Q295 85 326 99T379 138T413 194T425 260Q425 315 394 348T305 382Q261 382 223 362T157 306L65 334L182 697H558L546 606H205L263 647L181 389L149
395Q188 435 234 454T330 474Q392 474 436 446T503 371T527 266Q527 213 507 164T451 76T363 14T252 -9Z" />
<glyph unicode="6" horiz-adv-x="561" d="M456 697L243 419L229 436Q251 448 274 454T318 460Q380 460 426 434T499 361T526 257Q526 203 504 155T444 70T356 12T250 -9Q187 -9 137 18T58 92T29 199Q29 245 44 284T85 358L343 697H456ZM304 374Q270 374 239 361T182
324T143 269T129 201Q129 166 144 140T188 99T253 84Q288 84 319 97T375 134T413 188T428 256Q428 291 412 317T368 358T304 374Z" />
<glyph unicode="7" horiz-adv-x="560" d="M63 0L485 642L508 606H78L91 697H592L583 623L173 0H63Z" />
<glyph unicode="8" horiz-adv-x="560" d="M250 -9Q191 -9 140 12T57 75T25 180Q25 220 39 258T85 329T165 382Q136 398 121 428T104 497Q103 558 137 605T226 679T342 706Q393 706 435 686T503 629T530 537Q531 503 520 472T487 417T432 376Q476 356 499 318T523
225Q523 155 486 103T386 21T250 -9ZM254 83Q306 83 344 103T405 158T427 232Q427 284 392 312T298 340Q251 340 212 322T148 272T123 194Q123 156 140 132T187 95T254 83ZM299 407Q335 407 365 422T414 464T433 526Q433 567 408 590T337 614Q301 614 270 600T221
558T202 495Q202 454 228 431T299 407Z" />
<glyph unicode="9" horiz-adv-x="560" d="M132 0L345 278L359 261Q337 249 314 243T270 237Q209 237 162 263T89 336T62 440Q62 495 84 543T144 627T232 685T338 706Q402 706 452 679T530 606T559 498Q559 452 544 413T504 339L246 0H132ZM284 323Q318 323 349
336T406 373T445 428T460 496Q460 531 444 557T400 598T335 613Q300 613 269 600T214 563T175 509T160 441Q160 406 176 380T220 339T284 323Z" />
<glyph unicode=":" horiz-adv-x="240" d="M79 349L96 471H208L190 349H79ZM29 0L47 121H158L141 0H29Z" />
<glyph unicode=";" horiz-adv-x="240" d="M-49 -152L76 130H187L19 -152H-49ZM94 349L112 471H223L206 349H94Z" />
<glyph unicode="&lt;" horiz-adv-x="560" d="M524 0L25 201V293L524 494V411L71 232V262L524 82V0Z" />
<glyph unicode="=" horiz-adv-x="560" d="M79 315V393H482V315H79ZM79 101V179H482V101H79Z" />
<glyph unicode="&gt;" horiz-adv-x="560" d="M36 0V82L489 262V232L36 411V494L535 293V201L36 0Z" />
<glyph unicode="?" horiz-adv-x="516" d="M206 203L214 257Q221 301 239 329T281 378T330 415Q357 433 378 448T411 484T423 536Q423 575 396 599T316 624Q251 624 210 590T161 495L75 500Q90 601 156 653T318 706Q372 706 415 687T483 631T508 540Q508 494 495
463T455 407T386 356Q352 334 327 310T296 245L290 203H206ZM165 0L182 121H293L276 0H165Z" />
<glyph unicode="@" horiz-adv-x="874" d="M393 -109Q296 -109 220 -67T100 48T57 216Q57 303 90 381T182 520T320 617T490 652Q590 652 665 611T783 497T825 330Q825 295 818 251T791 168T738 102T650 75Q614 75 589 87T549 121T535 166Q535 168 535 171T536 177L539
205L558 172Q530 120 484 96T390 72Q319 72 275 117T230 236Q230 294 255 345T327 428T434 460Q483 460 517 436T566 367L556 379L578 453H653L619 213Q618 207 618 201T617 189Q617 168 627 159T658 150Q688 150 706 170T735 220T750 280T754 330Q754 404 722
460T630 548T490 580Q412 580 346 550T232 469T156 352T129 217Q129 143 163 86T257 -4T393 -37Q438 -37 482 -24T567 12L597 -54Q550 -82 497 -95T393 -109ZM410 149Q447 149 476 168T523 219T540 293Q540 335 517 359T454 383Q416 383 386 362T339 309T322 240Q322
199 346 174T410 149Z" />
<glyph unicode="A" horiz-adv-x="649" d="M-21 0L347 697H427L598 0H490L369 549L92 0H-21ZM160 155L205 246H442L463 155H160Z" />
<glyph unicode="B" horiz-adv-x="604" d="M40 0L138 697H366Q458 697 509 658T561 546Q561 487 533 442T454 372Q501 357 526 322T552 231Q552 158 521 107T434 28T300 0H40ZM156 94H300Q373 94 413 129T453 229Q453 270 427 292T351 315H186L156 94ZM200 406H336Q372
406 399 422T442 465T458 526Q458 564 433 583T358 603H227L200 406Z" />
<glyph unicode="C" horiz-adv-x="705" d="M340 -13Q273 -13 220 8T131 70T75 165T56 286Q56 368 81 443T155 579T273 674T431 710Q540 710 611 656T705 507L607 477Q592 543 545 578T426 613Q360 613 310 586T226 513T174 410T156 290Q156 194 205 139T345 84Q421
84 478 122T569 225L661 184Q614 92 530 40T340 -13Z" />
<glyph unicode="D" horiz-adv-x="679" d="M40 0L138 697H332Q485 697 567 622T649 409Q649 321 624 247T548 117T420 31T239 0H40ZM156 94H236Q331 94 391 122T486 197T534 299T548 411Q548 480 522 522T445 583T323 603H227L156 94Z" />
<glyph unicode="E" horiz-adv-x="583" d="M40 0L138 697H599L586 606H227L199 402H527L514 311H186L155 91H514L501 0H40Z" />
<glyph unicode="F" horiz-adv-x="563" d="M40 0L138 697H598L585 606H227L199 402H510L497 311H186L142 0H40Z" />
<glyph unicode="G" horiz-adv-x="732" d="M334 -13Q249 -13 187 23T90 127T56 284Q56 368 81 444T156 580T274 675T431 710Q540 710 611 656T705 507L607 477Q592 543 546 578T428 613Q362 613 312 586T227 512T174 408T156 287Q156 192 205 138T343 84Q382 84
421 95T495 131T553 198T586 304L592 349L605 279H409L421 370H686L634 0H545L548 128L564 113Q540 69 504 41T424 0T334 -13Z" />
<glyph unicode="H" horiz-adv-x="683" d="M40 0L138 697H240L199 405H528L569 697H671L573 0H471L515 310H186L142 0H40Z" />
<glyph unicode="I" horiz-adv-x="252" d="M40 0L138 697H240L142 0H40Z" />
<glyph unicode="J" horiz-adv-x="553" d="M225 -13Q132 -13 77 40T20 186L121 192Q123 139 148 110T230 81Q299 81 336 126T384 253L433 606H162L175 697H548L484 242Q473 162 438 105T350 17T225 -13Z" />
<glyph unicode="K" horiz-adv-x="644" d="M152 218L168 347L551 697H690L152 218ZM40 0L138 697H240L142 0H40ZM474 0L293 367L377 438L591 0H474Z" />
<glyph unicode="L" horiz-adv-x="498" d="M40 0L138 697H240L155 91H461L449 0H40Z" />
<glyph unicode="M" horiz-adv-x="845" d="M40 0L138 697H287L419 161H401L683 697H833L735 0H633L715 579L723 577L447 60H347L215 577L223 579L142 0H40Z" />
<glyph unicode="N" horiz-adv-x="680" d="M40 0L138 697H243L510 132H487L567 697H668L570 0H463L198 566H221L142 0H40Z" />
<glyph unicode="O" horiz-adv-x="748" d="M341 -13Q253 -13 189 23T91 127T56 286Q56 367 81 443T155 579T274 675T432 710Q521 710 585 674T684 570T719 411Q719 328 693 252T618 117T499 22T341 -13ZM346 84Q411 84 461 110T546 183T599 286T617 407Q617 502
567 557T428 613Q362 613 312 586T227 513T175 409T157 290Q157 226 179 180T243 109T346 84Z" />
<glyph unicode="P" horiz-adv-x="557" d="M40 0L138 697H349Q451 697 506 655T562 531Q562 457 531 404T440 324T299 296H182L141 0H40ZM195 386H297Q373 386 416 420T460 520Q460 565 428 585T333 606H226L195 386Z" />
<glyph unicode="Q" horiz-adv-x="777" d="M341 -13Q253 -13 189 23T91 128T56 287Q56 367 81 443T155 579T274 675T432 710Q521 710 585 674T684 570T719 411Q719 328 693 252T618 117T499 22T341 -13ZM630 -49L390 219L458 280L697 10L630 -49ZM346 84Q411 84
461 110T546 183T599 286T617 407Q617 502 567 557T428 613Q362 613 312 586T227 513T175 409T157 290Q157 193 206 139T346 84Z" />
<glyph unicode="R" horiz-adv-x="603" d="M40 0L138 697H349Q456 697 509 654T562 532Q562 474 540 424T469 340T342 298Q326 298 306 298T268 298H184L142 0H40ZM430 0L292 310L394 323L542 0H430ZM197 388H297Q373 388 416 422T460 521Q460 568 426 587T333
606H227L197 388Z" />
<glyph unicode="S" horiz-adv-x="568" d="M271 -12Q200 -12 146 14T60 86T27 195L129 215Q131 146 173 113T278 79Q322 79 353 94T401 136T418 196Q418 229 402 250T358 288T290 320Q231 345 193 372T136 434T117 511Q117 565 144 610T220 682T336 710Q407 710
462 678T541 585L455 541Q439 581 407 600T335 620Q300 620 274 607T233 570T218 516Q218 488 231 469T274 435T345 403Q403 380 442 352T500 287T520 203Q520 140 488 91T400 15T271 -12Z" />
<glyph unicode="T" horiz-adv-x="586" d="M207 0L292 606H64L77 697H635L622 606H395L310 0H207Z" />
<glyph unicode="U" horiz-adv-x="656" d="M296 -13Q182 -13 124 40T65 196Q65 208 66 223T69 254L131 697H233L172 260Q170 245 169 230T168 204Q168 143 198 112T298 80Q358 80 397 102T458 165T489 266L549 697H650L588 255Q569 120 496 54T296 -13Z" />
<glyph unicode="V" horiz-adv-x="661" d="M259 0L78 697H188L329 124H298L597 697H711L336 0H259Z" />
<glyph unicode="W" horiz-adv-x="964" d="M191 0L84 697H189L267 155L489 658H590L668 155L901 697H1009L705 0H604L515 537H532L291 0H191Z" />
<glyph unicode="X" horiz-adv-x="651" d="M-18 0L270 349L85 697H204L348 421L570 697H694L409 349L597 0H477L331 275L105 0H-18Z" />
<glyph unicode="Y" horiz-adv-x="610" d="M220 0L258 270L73 697H187L318 372L546 697H664L360 270L322 0H220Z" />
<glyph unicode="Z" horiz-adv-x="590" d="M-4 0L6 85L496 637L507 606H105L117 697H609L598 612L119 72L107 91H536L523 0H-4Z" />
<glyph unicode="[" horiz-adv-x="300" d="M9 -247L147 740H349L340 675H218L97 -182H219L210 -247H9Z" />
<glyph unicode="\" horiz-adv-x="454" d="M567 -211H491L4 697H80L567 -211Z" />
<glyph unicode="]" horiz-adv-x="301" d="M-49 -247L-40 -182H82L207 675H85L95 740H295L151 -247H-49Z" />
<glyph unicode="^" horiz-adv-x="577" d="M24 215L289 697H412L541 215H440L331 650H360L130 215H24Z" />
<glyph unicode="_" horiz-adv-x="434" d="M-33 -75L-23 0H387L377 -75H-33Z" />
<glyph unicode="`" horiz-adv-x="308" d="M233 556L107 697H209L305 556H233Z" />
<glyph unicode="a" horiz-adv-x="584" d="M235 -9Q176 -9 133 18T67 94T44 204Q44 262 62 315T115 410T195 477T298 502Q344 502 378 485T434 436T459 362L433 351L455 493H549L480 0H385L402 142L429 130Q410 81 381 51T315 6T235 -9ZM258 81Q298 81 330 99T384
146T417 211T429 285Q429 324 416 352T377 396T314 412Q274 412 242 395T188 348T153 283T141 209Q141 170 155 141T196 97T258 81Z" />
<glyph unicode="b" horiz-adv-x="584" d="M288 -9Q243 -9 208 7T151 55T122 135L150 142L129 0H33L131 697H229L181 351L157 367Q174 410 202 440T267 486T348 502Q404 502 447 477T515 404T540 291Q540 236 523 183T473 86T393 17T288 -9ZM271 81Q310 81 341
97T395 142T430 207T442 281Q442 321 428 350T387 396T325 412Q286 412 255 396T201 352T166 287T154 212Q154 173 168 144T208 98T271 81Z" />
<glyph unicode="c" horiz-adv-x="520" d="M248 -9Q179 -9 134 20T66 98T43 207Q43 264 61 316T114 411T198 477T308 502Q381 502 430 466T496 358L408 330Q400 370 376 393T307 417Q266 417 235 398T183 348T150 280T139 206Q139 171 150 142T186 95T249 77Q298
77 331 102T383 169L466 129Q430 58 373 25T248 -9Z" />
<glyph unicode="d" horiz-adv-x="584" d="M235 -9Q176 -9 133 18T67 94T44 204Q44 262 62 315T115 410T195 477T298 502Q344 502 378 485T434 436T459 362L433 351L481 697H578L480 0H385L402 142L429 130Q410 81 381 51T315 6T235 -9ZM260 81Q299 81 330 98T383
143T417 207T429 282Q429 322 415 351T375 396T313 412Q274 412 242 396T188 351T154 287T142 212Q142 172 156 143T196 97T260 81Z" />
<glyph unicode="e" horiz-adv-x="542" d="M251 -9Q179 -9 133 19T65 95T43 200Q43 256 60 309T110 406T193 476T304 502Q372 502 415 475T478 402T499 302Q499 281 496 257T488 212H139Q138 206 138 200T139 189Q140 136 170 108T255 79Q297 79 331 93T398 135L455
69Q409 30 360 11T251 -9ZM407 267Q409 283 410 293T411 318Q411 344 400 367T366 406T305 421Q263 421 231 402T178 352T148 286H438L407 267Z" />
<glyph unicode="f" horiz-adv-x="339" d="M73 0L131 417H34L45 493H143L152 555Q160 615 183 647T240 693T311 706Q342 706 363 700T403 684L365 612Q354 618 343 621T321 624Q288 624 271 603T248 550L241 493H352L341 417H230L171 0H73Z" />
<glyph unicode="g" horiz-adv-x="585" d="M219 -213Q165 -213 125 -197T57 -154T13 -93L94 -38Q109 -76 140 -102T220 -129Q255 -129 290 -117T351 -74T385 16L401 137L414 124Q382 63 335 35T230 7Q173 7 132 34T68 108T45 214Q45 271 63 322T115 413T192 478T291
502Q356 502 396 469T447 382L436 372L454 493H550L482 10Q472 -66 437 -115T347 -188T219 -213ZM262 98Q298 98 328 112T382 152T417 211T430 285Q430 322 416 351T376 396T313 412Q276 412 245 397T191 355T156 294T143 223Q143 186 157 158T199 114T262 98Z"
/>
<glyph unicode="h" horiz-adv-x="553" d="M33 0L131 697H230L185 386L165 388Q184 429 212 453T274 490T346 502Q420 502 461 464T502 353Q502 342 502 333T499 313L455 0H357L397 282Q399 294 399 304T400 325Q400 373 379 395T317 417Q255 417 217 374T165 240L132
0H33Z" />
<glyph unicode="i" horiz-adv-x="232" d="M32 0L101 493H200L130 0H32ZM107 578L124 697H234L218 578H107Z" />
<glyph unicode="j" horiz-adv-x="232" d="M-4 -213Q-24 -213 -44 -209T-85 -198L-78 -115Q-64 -118 -53 -120T-36 -122Q-12 -122 4 -109T24 -63L101 493H200L117 -94Q109 -157 77 -185T-4 -213ZM107 578L124 697H234L218 578H107Z" />
<glyph unicode="k" horiz-adv-x="540" d="M374 0L248 245L142 146L157 268L398 493H530L319 307L483 0H374ZM33 0L131 697H229L131 0H33Z" />
<glyph unicode="l" horiz-adv-x="268" d="M141 -9Q98 -9 72 15T46 87Q46 93 46 100T48 115L129 697H226L148 133Q147 128 147 124T147 114Q147 96 155 89T179 81Q189 81 199 83T222 89L210 3Q191 -4 173 -6T141 -9Z" />
<glyph unicode="m" horiz-adv-x="833" d="M33 0L103 493H199L184 366L161 367Q180 420 209 449T272 490T337 502Q381 502 414 485T466 432T486 342H428Q451 400 481 435T549 486T629 502Q684 502 717 481T766 423T781 343Q781 331 781 322T778 301L735 0H638L678
283Q680 293 680 303T681 325Q681 370 663 393T605 417Q552 417 517 376T470 257L434 0H336L377 288Q379 299 379 308T380 328Q380 373 362 395T305 417Q252 417 216 376T168 257L132 0H33Z" />
<glyph unicode="n" horiz-adv-x="553" d="M33 0L103 493H199L185 386L165 388Q184 429 212 453T274 490T346 502Q420 502 461 464T502 353Q502 342 502 333T499 313L455 0H357L397 282Q399 294 399 304T400 325Q400 373 379 395T317 417Q255 417 217 374T165 240L132
0H33Z" />
<glyph unicode="o" horiz-adv-x="575" d="M256 -9Q192 -9 144 19T69 96T42 210Q42 268 62 320T119 413T206 478T318 502Q383 502 430 475T504 399T531 285Q531 226 511 173T453 79T366 15T256 -9ZM260 78Q302 78 334 95T388 142T423 209T435 285Q435 344 404 380T314
416Q271 416 238 398T183 350T150 283T138 209Q138 150 170 114T260 78Z" />
<glyph unicode="p" horiz-adv-x="584" d="M5 -204L103 493H199L181 351L153 363Q173 411 202 441T269 487T348 502Q409 502 451 475T517 399T540 289Q540 231 522 178T470 83T390 16T288 -9Q242 -9 207 8T151 57T125 131L150 142L103 -204H5ZM270 81Q309 81 340
97T395 141T430 206T442 280Q442 320 428 349T387 395T324 412Q285 412 254 395T200 350T166 286T154 211Q154 172 168 143T208 97T270 81Z" />
<glyph unicode="q" horiz-adv-x="584" d="M355 -204L402 142L426 126Q410 84 382 54T316 7T235 -9Q180 -9 137 16T68 89T43 202Q43 257 60 310T111 407T190 476T296 502Q341 502 376 486T433 438T461 358L434 351L455 493H550L452 -204H355ZM259 81Q298 81 329
97T383 141T417 206T429 281Q429 321 415 350T375 395T313 412Q274 412 243 396T189 351T154 286T142 212Q142 172 156 143T196 97T259 81Z" />
<glyph unicode="r" horiz-adv-x="413" d="M33 0L103 493H199L182 360L158 363Q170 406 200 437T267 485T339 502Q362 502 382 496T425 476L369 391Q358 397 343 400T313 404Q263 404 233 380T186 313T162 221L131 0H33Z" />
<glyph unicode="s" horiz-adv-x="476" d="M210 -9Q156 -9 117 7T52 48T12 99L85 152Q100 115 133 93T212 71Q243 71 267 80T306 108T321 149Q321 168 309 180T275 202T220 219Q195 226 169 235T121 258T86 293T73 347Q73 393 97 427T165 482T265 502Q323 502 368
477T434 406L368 364Q353 397 325 410T262 424Q223 424 194 407T165 359Q165 337 185 326T252 302Q291 293 329 279T393 239T418 164Q418 112 392 74T318 13T210 -9Z" />
<glyph unicode="t" horiz-adv-x="353" d="M209 -9Q175 -9 149 3T106 40T90 104Q90 112 90 120T92 139L160 619L266 674L194 156Q193 148 192 140T191 123Q191 98 201 85T236 72Q249 72 264 74T296 83L284 3Q265 -3 246 -6T209 -9ZM34 417L45 493H353L343 417H34Z" />
<glyph unicode="u" horiz-adv-x="553" d="M206 -9Q130 -9 91 30T51 143Q51 154 52 164T54 185L96 493H195L155 210Q154 199 153 189T152 168Q152 121 172 99T235 77Q279 77 309 98T360 162T388 267L420 493H518L448 0H353L366 106L386 100Q357 43 310 17T206 -9Z" />
<glyph unicode="v" horiz-adv-x="526" d="M188 0L56 493H162L244 127L432 493H540L270 0H188Z" />
<glyph unicode="w" horiz-adv-x="750" d="M139 0L60 493H163L208 149L366 493H451L511 151L655 493H760L542 0H455L393 356L230 0H139Z" />
<glyph unicode="x" horiz-adv-x="527" d="M-11 0L199 248L61 493H175L271 314L418 493H538L327 248L467 0H352L256 181L108 0H-11Z" />
<glyph unicode="y" horiz-adv-x="526" d="M50 -203L180 29L56 493H162L244 127L432 493H540L159 -203H50Z" />
<glyph unicode="z" horiz-adv-x="472" d="M1 0L10 68L357 435L364 411H73L84 493H466L456 421L112 52L106 83H407L395 0H1Z" />
<glyph unicode="{" horiz-adv-x="310" d="M156 -247Q110 -247 86 -220T61 -143Q61 -136 61 -129T63 -113L98 134Q99 139 99 144T99 153Q99 184 85 197T49 212L53 281Q71 284 87 293T115 319T130 364L165 611Q174 674 204 707T289 740H359L350 677H318Q285 677
269 656T247 604L212 357Q206 312 187 288T132 249L127 242Q153 231 168 211T183 155Q183 148 183 142T181 130L146 -116Q145 -122 145 -127T144 -138Q144 -159 154 -171T192 -184H229L220 -247H156Z" />
<glyph unicode="|" horiz-adv-x="262" d="M24 -254L164 746H238L98 -254H24Z" />
<glyph unicode="}" horiz-adv-x="311" d="M-50 -247L-41 -184H-9Q24 -184 41 -165T64 -111L99 136Q104 165 111 185T136 219T183 244V251Q152 266 142 288T132 335Q132 343 132 350T134 363L169 610Q171 619 171 622T171 629Q171 648 161 662T122 677H85L94 740H159Q194
740 214 726T242 689T251 639Q251 632 251 624T248 605L212 358Q211 354 211 350T211 341Q211 320 221 303T262 281L258 212Q235 210 218 197T192 166T179 128L143 -119Q138 -151 126 -180T89 -228T19 -247H-50Z" />
<glyph unicode="~" horiz-adv-x="560" d="M367 154Q333 154 312 165T276 194T251 229T226 257T191 269Q168 269 155 245T141 181H63Q63 251 98 295T191 340Q226 340 248 329T285 300T311 264T335 235T367 223Q391 223 406 252T421 324H498Q498 249 463 202T367 154Z" />
<glyph unicode="&#xa0;" horiz-adv-x="260" />
<glyph unicode="&#xa1;" horiz-adv-x="244" d="M165 288L107 -204H10L90 288H165ZM213 493L195 372H84L101 493H213Z" />
<glyph unicode="&#xa2;" horiz-adv-x="560" d="M207 -113L225 12H295L277 -113H207ZM291 480L308 601H378L361 480H291ZM269 -9Q200 -9 154 20T86 98T63 207Q63 264 81 316T134 411T218 477T328 502Q401 502 450 466T517 358L428 330Q420 370 396 393T327 417Q286
417 255 398T203 348T170 280T159 206Q159 171 170 142T206 95T270 77Q319 77 352 102T404 169L486 129Q451 58 394 25T269 -9Z" />
<glyph unicode="&#xa3;" horiz-adv-x="560" d="M10 0L23 88Q66 103 100 127T153 182T174 243Q174 265 172 282T167 314H56L66 392H154Q152 407 152 423T151 455Q151 530 179 587T260 677T379 710Q459 710 508 669T567 558L488 533Q482 581 452 604T380 627Q334
627 301 605T249 543T231 449Q231 433 232 420T234 392H446L436 314H247Q250 299 252 279T253 236Q253 209 244 184T217 138T177 101T124 76V83H496L484 0H10Z" />
<glyph unicode="&#xa4;" horiz-adv-x="612" d="M90 65L44 120L113 181Q99 206 92 232T85 286Q85 329 101 371T149 447L98 503L157 559L207 499Q239 521 275 532T345 543Q383 543 415 531T474 497L543 558L591 505L521 444Q536 420 542 394T549 339Q549 295 533
252T485 175L537 120L477 65L426 123Q393 101 359 91T290 81Q251 81 218 93T159 126L90 65ZM297 155Q339 155 372 171T428 213T463 271T475 335Q475 371 461 401T417 450T342 469Q299 469 266 453T211 411T176 352T164 288Q164 254 178 224T222 174T297 155Z" />
<glyph unicode="&#xa5;" horiz-adv-x="560" d="M196 0L211 107H43L55 186H223L234 265H66L77 345H203L67 697H175L295 365L513 697H624L391 345H511L501 265H335L324 186H489L478 107H313L298 0H196Z" />
<glyph unicode="&#xa6;" horiz-adv-x="262" d="M106 330L164 746H238L180 330H106ZM24 -254L81 155H155L98 -254H24Z" />
<glyph unicode="&#xa7;" horiz-adv-x="587" d="M231 -205Q188 -205 151 -192T84 -152T36 -85L125 -37Q141 -77 171 -95T236 -114Q270 -114 297 -100T342 -62T359 -9Q359 20 341 39T295 71T233 98Q201 110 170 124T114 159T73 209T57 282Q57 328 77 370T134 447Q131
457 129 470T126 499Q126 555 156 602T239 678T359 706Q426 706 476 676T551 585L462 539Q447 575 420 595T351 615Q316 615 288 600T245 561T229 510Q229 481 247 462T294 430T354 403Q386 391 417 376T474 341T515 291T531 220Q531 175 512 132T454 54Q458 43
459 31T461 3Q461 -59 430 -106T346 -179T231 -205ZM393 123Q411 141 421 161T431 206Q431 237 413 257T364 292T296 323Q267 336 240 348T195 376Q177 359 167 337T157 294Q157 262 177 240T230 203T297 173Q315 166 329 160T354 149T375 137T393 123Z" />
<glyph unicode="&#xa8;" horiz-adv-x="406" d="M272 578L290 697H398L380 578H272ZM90 578L107 697H214L198 578H90Z" />
<glyph unicode="&#xa9;" horiz-adv-x="819" d="M410 -5Q337 -5 273 22T160 98T84 211T56 349Q56 422 83 486T159 598T272 674T410 702Q483 702 547 675T659 599T735 486T763 349Q763 276 736 212T660 99T547 23T410 -5ZM411 129Q347 129 303 159T237 239T214 347Q214
404 236 454T301 536T410 568Q472 568 518 537T588 447L512 417Q500 450 474 472T410 494Q371 494 345 473T307 418T295 347Q295 310 307 277T345 224T410 203Q448 203 474 224T510 279L583 251Q564 194 519 162T411 129ZM410 43Q474 43 529 67T626 132T692 230T716
349Q716 413 692 468T627 565T530 631T410 655Q347 655 291 631T194 566T128 469T104 349Q104 286 128 230T193 133T291 67T410 43Z" />
<glyph unicode="&#xaa;" horiz-adv-x="490" d="M209 348Q156 348 121 377T86 457Q86 510 124 535T220 560H326Q326 564 326 571T324 584Q320 618 300 635T241 653Q204 653 181 638T142 598L97 629Q127 671 160 688T239 706Q307 706 344 669T382 566V356H330L329
410Q282 348 209 348ZM222 402Q253 402 277 416T316 457Q320 470 322 482T326 508H223Q187 508 168 494T148 455Q148 431 167 417T222 402Z" />
<glyph unicode="&#xab;" horiz-adv-x="493" d="M448 54L239 253L502 450L489 346L355 253L461 159L448 54ZM213 54L4 253L267 450L254 346L119 253L226 159L213 54Z" />
<glyph unicode="&#xac;" horiz-adv-x="560" d="M401 17V209H29V286H479V17H401Z" />
<glyph unicode="&#xad;" horiz-adv-x="327" d="M43 264L52 337H300L291 264H43Z" />
<glyph unicode="&#xae;" horiz-adv-x="621" d="M310 190Q239 190 181 223T88 314T53 448Q53 524 87 582T180 673T310 706Q382 706 440 673T532 582T567 448Q567 372 533 314T440 223T310 190ZM310 236Q369 236 417 263T493 338T522 448Q522 511 494 559T417 634T310
661Q252 661 204 634T127 559T98 448Q98 386 126 338T203 263T310 236ZM231 304V593H321Q371 593 394 571T418 510Q418 479 402 460T356 433L428 304H380L314 427H275V304H231ZM276 467H316Q341 467 357 476T374 510Q374 535 358 544T316 553H276V467Z" />
<glyph unicode="&#xaf;" horiz-adv-x="370" d="M90 580L101 639H365L354 580H90Z" />
<glyph unicode="&#xb0;" horiz-adv-x="419" d="M238 419Q202 419 173 436T127 482T110 548Q110 590 132 626T191 684T268 706Q305 706 334 689T381 644T398 578Q398 536 376 500T317 441T238 419ZM246 485Q268 485 288 497T320 528T332 571Q332 600 312 620T262
640Q240 640 221 628T189 597T176 555Q176 525 195 505T246 485Z" />
<glyph unicode="&#xb1;" horiz-adv-x="560" d="M241 123V287H32V365H241V527H319V365H528V287H319V123H241ZM32 -35V43H528V-35H32Z" />
<glyph unicode="&#xb2;" horiz-adv-x="370" d="M78 488L84 536Q107 551 134 568T188 606T240 649T285 696T316 746T328 798Q328 822 313 837T268 853Q240 853 220 840T188 805T172 757L116 764Q120 794 132 820T164 866T212 898T271 910Q307 910 332 897T372 859T386
800Q386 770 376 742T347 687T304 637T251 592T195 553T140 520L147 542H368L360 488H78Z" />
<glyph unicode="&#xb3;" horiz-adv-x="357" d="M211 483Q169 483 138 497T90 537T72 598Q72 603 72 608T74 618H133Q132 614 132 611T131 606Q131 574 153 557T215 539Q245 539 269 549T306 578T319 621Q319 640 312 652T290 672T257 681T214 684L217 731Q243
730 266 738T305 762T320 804Q320 828 305 841T261 855Q237 855 219 846T189 822T174 786L118 792Q123 828 143 855T195 896T265 911Q300 911 326 899T366 863T380 811Q380 783 368 762T335 726T287 705V717Q309 714 329 703T363 672T377 621Q377 585 356 554T298
503T211 483Z" />
<glyph unicode="&#xb4;" horiz-adv-x="294" d="M87 556L199 697H304L158 556H87Z" />
<glyph unicode="&#xb5;" horiz-adv-x="553" d="M4 -167L96 493H195L153 201Q152 191 151 181T150 164Q150 125 169 101T238 77Q284 77 314 102T363 171T390 276L420 493H518L448 0H355L369 114L381 99Q352 43 307 17T207 -9Q178 -9 159 2T132 33L102 -167H4Z" />
<glyph unicode="&#xb6;" horiz-adv-x="587" d="M216 -121L280 307Q227 307 181 327T108 386T80 479Q80 531 101 571T158 639T238 682T329 697H388L273 -121H216ZM382 -121L497 697H553L438 -121H382Z" />
<glyph unicode="&#xb7;" horiz-adv-x="325" d="M108 288L125 410H233L216 288H108Z" />
<glyph unicode="&#xb8;" horiz-adv-x="281" d="M66 -258Q47 -258 22 -249T-20 -219L14 -172Q23 -184 37 -192T68 -201Q91 -201 105 -189T119 -153Q119 -134 109 -123T82 -106T46 -98T8 -95L71 9H131L85 -56Q110 -61 131 -72T165 -102T178 -150Q178 -197 147 -227T66
-258Z" />
<glyph unicode="&#xb9;" horiz-adv-x="448" d="M246 488L292 823L305 793H180L187 840H255Q274 840 286 849T300 879L304 906H363L305 488H246Z" />
<glyph unicode="&#xba;" horiz-adv-x="516" d="M258 352Q207 352 169 376T108 441T85 529Q85 578 107 617T169 681T258 706Q308 706 347 682T408 618T430 529Q430 480 408 440T348 376T258 352ZM258 407Q294 407 318 423T354 468T366 529Q366 563 354 591T318
635T258 652Q222 652 198 636T162 591T150 529Q150 496 161 468T197 424T258 407Z" />
<glyph unicode="&#xbb;" horiz-adv-x="464" d="M16 54L2 159L109 253L-26 346L-38 450L225 253L16 54ZM251 54L237 159L344 253L209 346L197 450L460 253L251 54Z" />
<glyph unicode="&#xbc;" horiz-adv-x="790" d="M101 279L147 614L161 584H35L42 631H110Q129 631 141 640T156 670L159 697H218L160 279H101ZM59 0L565 697H637L131 0H59ZM630 0L644 100H450L456 145L694 418H748L710 154H777L770 100H703L689 0H630ZM505 136L502
154H652L680 357L686 349L505 136Z" />
<glyph unicode="&#xbd;" horiz-adv-x="766" d="M101 279L147 614L161 584H35L42 631H110Q129 631 141 640T156 670L159 697H218L160 279H101ZM59 0L565 697H637L131 0H59ZM444 0L449 48Q473 63 499 80T553 118T606 161T650 208T682 258T694 310Q694 334 679 349T634
365Q606 365 586 352T554 317T537 269L481 276Q485 306 497 332T530 378T577 410T637 422Q672 422 698 409T738 371T752 312Q752 282 742 254T712 199T669 149T617 104T561 65T505 32L513 54H733L726 0H444Z" />
<glyph unicode="&#xbe;" horiz-adv-x="903" d="M150 274Q109 274 78 288T29 328T12 389Q12 394 12 399T14 409H72Q72 405 72 402T71 397Q71 365 93 348T154 330Q185 330 208 340T245 369T258 412Q258 431 251 443T229 463T196 472T153 475L157 522Q182 521 205
529T244 553T260 595Q260 619 245 632T201 646Q177 646 159 637T129 613T114 577L57 583Q62 619 82 646T134 687T204 702Q239 702 265 690T305 654T319 602Q319 574 308 553T275 517T226 496V508Q248 505 268 494T302 463T316 412Q316 376 296 345T238 294T150
274ZM172 0L678 697H750L244 0H172ZM743 0L757 100H563L569 145L807 418H861L823 154H890L883 100H816L802 0H743ZM617 136L615 154H765L793 357L799 349L617 136Z" />
<glyph unicode="&#xbf;" horiz-adv-x="365" d="M287 290L279 236Q273 192 255 164T213 115T164 78Q136 60 115 45T83 9T71 -43Q71 -82 98 -106T177 -131Q243 -131 283 -97T332 -2L418 -7Q403 -107 337 -160T176 -213Q122 -213 79 -194T10 -138T-15 -47Q-15 0 -2
31T39 86T107 137Q141 159 166 183T198 248L204 290H287ZM328 493L311 372H200L217 493H328Z" />
<glyph unicode="&#xc0;" horiz-adv-x="649" d="M-21 0L347 697H427L598 0H490L369 549L92 0H-21ZM160 155L205 246H442L463 155H160ZM355 760L229 901H331L427 760H355Z" />
<glyph unicode="&#xc1;" horiz-adv-x="649" d="M-21 0L347 697H427L598 0H490L369 549L92 0H-21ZM160 155L205 246H442L463 155H160ZM354 760L466 901H571L425 760H354Z" />
<glyph unicode="&#xc2;" horiz-adv-x="649" d="M-21 0L347 697H427L598 0H490L369 549L92 0H-21ZM160 155L205 246H442L463 155H160ZM241 749L417 915L548 749H470L409 831L324 749H241Z" />
<glyph unicode="&#xc3;" horiz-adv-x="649" d="M-21 0L347 697H427L598 0H490L369 549L92 0H-21ZM160 155L205 246H442L463 155H160ZM465 743Q440 743 425 750T399 769T381 792T365 812T343 820Q323 820 308 801T288 746L232 751Q240 811 270 843T345 875Q368
875 382 867T406 847T425 824T442 804T463 796Q481 796 496 817T516 873L575 869Q567 808 537 776T465 743Z" />
<glyph unicode="&#xc4;" horiz-adv-x="649" d="M-21 0L347 697H427L598 0H490L369 549L92 0H-21ZM160 155L205 246H442L463 155H160ZM437 782L455 901H563L545 782H437ZM255 782L272 901H379L363 782H255Z" />
<glyph unicode="&#xc5;" horiz-adv-x="649" d="M-21 0L347 697H427L598 0H490L369 549L92 0H-21ZM160 155L205 246H442L463 155H160ZM383 646Q340 646 313 674T286 742Q286 774 302 800T345 842T403 859Q443 859 471 831T499 762Q499 731 483 705T441 662T383
646ZM387 699Q412 699 428 716T445 759Q445 779 433 792T400 805Q373 805 357 788T340 747Q340 726 353 713T387 699Z" />
<glyph unicode="&#xc6;" horiz-adv-x="907" d="M-21 0L347 697H923L910 606H550L521 396H835L822 304H507L478 91H838L825 0H362L447 608H398L92 0H-21ZM150 155L196 248H422L409 155H150Z" />
<glyph unicode="&#xc7;" horiz-adv-x="705" d="M340 -13Q273 -13 220 8T131 70T75 165T56 286Q56 368 81 443T155 579T273 674T431 710Q540 710 611 656T705 507L607 477Q592 543 545 578T426 613Q360 613 310 586T226 513T174 410T156 290Q156 194 205 139T345
84Q421 84 478 122T569 225L661 184Q614 92 530 40T340 -13ZM295 -258Q276 -258 251 -249T209 -219L243 -172Q252 -184 266 -192T297 -201Q320 -201 334 -189T348 -153Q348 -134 338 -123T311 -106T275 -98T237 -95L300 9H360L314 -56Q339 -61 360 -72T394 -102T407
-150Q407 -197 376 -227T295 -258Z" />
<glyph unicode="&#xc8;" horiz-adv-x="583" d="M40 0L138 697H599L586 606H227L199 402H527L514 311H186L155 91H514L501 0H40ZM336 760L210 901H312L408 760H336Z" />
<glyph unicode="&#xc9;" horiz-adv-x="583" d="M40 0L138 697H599L586 606H227L199 402H527L514 311H186L155 91H514L501 0H40ZM335 760L447 901H552L406 760H335Z" />
<glyph unicode="&#xca;" horiz-adv-x="583" d="M40 0L138 697H599L586 606H227L199 402H527L514 311H186L155 91H514L501 0H40ZM221 749L397 915L528 749H450L389 831L304 749H221Z" />
<glyph unicode="&#xcb;" horiz-adv-x="583" d="M40 0L138 697H599L586 606H227L199 402H527L514 311H186L155 91H514L501 0H40ZM418 782L436 901H544L526 782H418ZM236 782L253 901H360L344 782H236Z" />
<glyph unicode="&#xcc;" horiz-adv-x="252" d="M40 0L138 697H240L142 0H40ZM157 760L31 901H133L229 760H157Z" />
<glyph unicode="&#xcd;" horiz-adv-x="252" d="M40 0L138 697H240L142 0H40ZM156 760L268 901H373L227 760H156Z" />
<glyph unicode="&#xce;" horiz-adv-x="252" d="M40 0L138 697H240L142 0H40ZM49 749L220 915L345 749H271L211 831L129 749H49Z" />
<glyph unicode="&#xcf;" horiz-adv-x="252" d="M40 0L138 697H240L142 0H40ZM239 782L257 901H365L347 782H239ZM57 782L74 901H181L165 782H57Z" />
<glyph unicode="&#xd0;" horiz-adv-x="679" d="M40 0L138 697H332Q485 697 567 622T649 409Q649 321 624 247T548 117T420 31T239 0H40ZM156 94H236Q331 94 391 122T486 197T534 299T548 411Q548 480 522 522T445 583T323 603H227L156 94ZM268 317L277 383H565L555
317H268Z" />
<glyph unicode="&#xd1;" horiz-adv-x="680" d="M40 0L138 697H243L510 132H487L567 697H668L570 0H463L198 566H221L142 0H40ZM477 743Q452 743 437 750T411 769T393 792T377 812T355 820Q335 820 320 801T300 746L244 751Q252 811 282 843T357 875Q380 875 394
867T418 847T437 824T454 804T475 796Q493 796 508 817T528 873L587 869Q579 808 549 776T477 743Z" />
<glyph unicode="&#xd2;" horiz-adv-x="748" d="M341 -13Q253 -13 189 23T91 127T56 286Q56 367 81 443T155 579T274 675T432 710Q521 710 585 674T684 570T719 411Q719 328 693 252T618 117T499 22T341 -13ZM346 84Q411 84 461 110T546 183T599 286T617 407Q617
502 567 557T428 613Q362 613 312 586T227 513T175 409T157 290Q157 226 179 180T243 109T346 84ZM403 760L277 901H379L475 760H403Z" />
<glyph unicode="&#xd3;" horiz-adv-x="748" d="M341 -13Q253 -13 189 23T91 127T56 286Q56 367 81 443T155 579T274 675T432 710Q521 710 585 674T684 570T719 411Q719 328 693 252T618 117T499 22T341 -13ZM346 84Q411 84 461 110T546 183T599 286T617 407Q617
502 567 557T428 613Q362 613 312 586T227 513T175 409T157 290Q157 226 179 180T243 109T346 84ZM402 760L514 901H619L473 760H402Z" />
<glyph unicode="&#xd4;" horiz-adv-x="748" d="M341 -13Q253 -13 189 23T91 127T56 286Q56 367 81 443T155 579T274 675T432 710Q521 710 585 674T684 570T719 411Q719 328 693 252T618 117T499 22T341 -13ZM346 84Q411 84 461 110T546 183T599 286T617 407Q617
502 567 557T428 613Q362 613 312 586T227 513T175 409T157 290Q157 226 179 180T243 109T346 84ZM289 749L465 915L596 749H518L457 831L372 749H289Z" />
<glyph unicode="&#xd5;" horiz-adv-x="748" d="M341 -13Q253 -13 189 23T91 127T56 286Q56 367 81 443T155 579T274 675T432 710Q521 710 585 674T684 570T719 411Q719 328 693 252T618 117T499 22T341 -13ZM346 84Q411 84 461 110T546 183T599 286T617 407Q617
502 567 557T428 613Q362 613 312 586T227 513T175 409T157 290Q157 226 179 180T243 109T346 84ZM512 743Q487 743 472 750T446 769T428 792T412 812T390 820Q370 820 355 801T335 746L279 751Q287 811 317 843T392 875Q415 875 429 867T453 847T472 824T489 804T510
796Q528 796 543 817T563 873L622 869Q614 808 584 776T512 743Z" />
<glyph unicode="&#xd6;" horiz-adv-x="748" d="M341 -13Q253 -13 189 23T91 127T56 286Q56 367 81 443T155 579T274 675T432 710Q521 710 585 674T684 570T719 411Q719 328 693 252T618 117T499 22T341 -13ZM346 84Q411 84 461 110T546 183T599 286T617 407Q617
502 567 557T428 613Q362 613 312 586T227 513T175 409T157 290Q157 226 179 180T243 109T346 84ZM485 782L503 901H611L593 782H485ZM303 782L320 901H427L411 782H303Z" />
<glyph unicode="&#xd7;" horiz-adv-x="560" d="M129 36L69 96L219 246L69 397L129 458L278 307L430 458L490 397L340 246L490 96L430 36L278 186L129 36Z" />
<glyph unicode="&#xd8;" horiz-adv-x="748" d="M341 -13Q253 -13 189 23T91 127T56 286Q56 367 81 443T155 579T274 675T432 710Q521 710 585 674T684 570T719 411Q719 328 693 252T618 117T499 22T341 -13ZM346 84Q411 84 461 110T546 183T599 286T617 407Q617
502 567 557T428 613Q362 613 312 586T227 513T175 409T157 290Q157 226 179 180T243 109T346 84ZM49 0L654 697H724L119 0H49Z" />
<glyph unicode="&#xd9;" horiz-adv-x="656" d="M296 -13Q182 -13 124 40T65 196Q65 208 66 223T69 254L131 697H233L172 260Q170 245 169 230T168 204Q168 143 198 112T298 80Q358 80 397 102T458 165T489 266L549 697H650L588 255Q569 120 496 54T296 -13ZM358
760L232 901H334L430 760H358Z" />
<glyph unicode="&#xda;" horiz-adv-x="656" d="M296 -13Q182 -13 124 40T65 196Q65 208 66 223T69 254L131 697H233L172 260Q170 245 169 230T168 204Q168 143 198 112T298 80Q358 80 397 102T458 165T489 266L549 697H650L588 255Q569 120 496 54T296 -13ZM357
760L469 901H574L428 760H357Z" />
<glyph unicode="&#xdb;" horiz-adv-x="656" d="M296 -13Q182 -13 124 40T65 196Q65 208 66 223T69 254L131 697H233L172 260Q170 245 169 230T168 204Q168 143 198 112T298 80Q358 80 397 102T458 165T489 266L549 697H650L588 255Q569 120 496 54T296 -13ZM244
749L420 915L551 749H473L412 831L327 749H244Z" />
<glyph unicode="&#xdc;" horiz-adv-x="656" d="M296 -13Q182 -13 124 40T65 196Q65 208 66 223T69 254L131 697H233L172 260Q170 245 169 230T168 204Q168 143 198 112T298 80Q358 80 397 102T458 165T489 266L549 697H650L588 255Q569 120 496 54T296 -13ZM440
782L458 901H566L548 782H440ZM258 782L275 901H382L366 782H258Z" />
<glyph unicode="&#xdd;" horiz-adv-x="610" d="M220 0L258 270L73 697H187L318 372L546 697H664L360 270L322 0H220ZM335 760L447 901H552L406 760H335Z" />
<glyph unicode="&#xde;" horiz-adv-x="626" d="M88 0L186 697H279L265 599H395Q486 599 536 556T587 433Q587 426 587 417T585 397Q572 304 503 253T322 201H209L181 0H88ZM221 285H328Q396 285 440 315T493 406Q494 412 494 417T494 428Q494 474 461 496T367
519H254L221 285Z" />
<glyph unicode="&#xdf;" horiz-adv-x="640" d="M390 -9Q338 -9 298 10T232 60T199 128L279 158Q285 135 298 116T334 85T390 73Q434 73 464 95T494 152Q494 173 481 185T446 206T399 220Q366 230 334 242T280 280T259 349Q259 406 298 439T404 495Q428 502 447
510T477 529T489 556Q489 585 459 599T389 614Q327 614 291 597T235 553T209 499T198 449L135 0H33L98 455Q104 503 120 547T168 628T252 684T383 705Q474 705 530 671T586 571Q586 533 573 508T539 466T492 438T443 418Q420 410 400 402T367 382T355 353Q355 335
365 325T395 311T437 299Q462 293 489 285T539 261T576 222T591 158Q591 104 562 67T487 10T390 -9Z" />
<glyph unicode="&#xe0;" horiz-adv-x="584" d="M235 -9Q176 -9 133 18T67 94T44 204Q44 262 62 315T115 410T195 477T298 502Q344 502 378 485T434 436T459 362L433 351L455 493H549L480 0H385L402 142L429 130Q410 81 381 51T315 6T235 -9ZM258 81Q298 81 330
99T384 146T417 211T429 285Q429 324 416 352T377 396T314 412Q274 412 242 395T188 348T153 283T141 209Q141 170 155 141T196 97T258 81ZM294 556L168 697H270L366 556H294Z" />
<glyph unicode="&#xe1;" horiz-adv-x="584" d="M235 -9Q176 -9 133 18T67 94T44 204Q44 262 62 315T115 410T195 477T298 502Q344 502 378 485T434 436T459 362L433 351L455 493H549L480 0H385L402 142L429 130Q410 81 381 51T315 6T235 -9ZM258 81Q298 81 330
99T384 146T417 211T429 285Q429 324 416 352T377 396T314 412Q274 412 242 395T188 348T153 283T141 209Q141 170 155 141T196 97T258 81ZM293 556L405 697H510L364 556H293Z" />
<glyph unicode="&#xe2;" horiz-adv-x="584" d="M235 -9Q176 -9 133 18T67 94T44 204Q44 262 62 315T115 410T195 477T298 502Q344 502 378 485T434 436T459 362L433 351L455 493H549L480 0H385L402 142L429 130Q410 81 381 51T315 6T235 -9ZM258 81Q298 81 330
99T384 146T417 211T429 285Q429 324 416 352T377 396T314 412Q274 412 242 395T188 348T153 283T141 209Q141 170 155 141T196 97T258 81ZM186 545L357 711L482 545H408L348 627L266 545H186Z" />
<glyph unicode="&#xe3;" horiz-adv-x="584" d="M235 -9Q176 -9 133 18T67 94T44 204Q44 262 62 315T115 410T195 477T298 502Q344 502 378 485T434 436T459 362L433 351L455 493H549L480 0H385L402 142L429 130Q410 81 381 51T315 6T235 -9ZM258 81Q298 81 330
99T384 146T417 211T429 285Q429 324 416 352T377 396T314 412Q274 412 242 395T188 348T153 283T141 209Q141 170 155 141T196 97T258 81ZM410 563Q375 563 359 578T330 611Q321 624 312 631T292 639Q273 639 258 619T237 564L182 571Q193 635 223 668T296 701Q326
701 341 686T368 655Q377 642 386 633T409 623Q426 623 441 644T463 700L519 694Q509 630 480 597T410 563Z" />
<glyph unicode="&#xe4;" horiz-adv-x="584" d="M235 -9Q176 -9 133 18T67 94T44 204Q44 262 62 315T115 410T195 477T298 502Q344 502 378 485T434 436T459 362L433 351L455 493H549L480 0H385L402 142L429 130Q410 81 381 51T315 6T235 -9ZM258 81Q298 81 330
99T384 146T417 211T429 285Q429 324 416 352T377 396T314 412Q274 412 242 395T188 348T153 283T141 209Q141 170 155 141T196 97T258 81ZM376 578L394 697H502L484 578H376ZM194 578L211 697H318L302 578H194Z" />
<glyph unicode="&#xe5;" horiz-adv-x="584" d="M235 -9Q176 -9 133 18T67 94T44 204Q44 262 62 315T115 410T195 477T298 502Q344 502 378 485T434 436T459 362L433 351L455 493H549L480 0H385L402 142L429 130Q410 81 381 51T315 6T235 -9ZM258 81Q298 81 330
99T384 146T417 211T429 285Q429 324 416 352T377 396T314 412Q274 412 242 395T188 348T153 283T141 209Q141 170 155 141T196 97T258 81ZM340 535Q298 535 271 561T244 628Q244 660 260 686T304 728T363 744Q402 744 430 718T458 650Q458 619 442 593T398 551T340
535ZM346 587Q370 587 387 605T404 645Q404 665 391 678T357 692Q333 692 316 675T299 634Q299 615 311 601T346 587Z" />
<glyph unicode="&#xe6;" horiz-adv-x="869" d="M201 -9Q153 -9 115 7T54 56T32 134Q32 186 59 220T139 272T269 289H391L394 312Q400 347 390 370T357 405T300 417Q261 417 223 401T150 347L83 410Q138 462 193 482T308 502Q375 502 414 478T467 411Q501 455 544
477T642 499Q707 499 748 474T808 405T828 309Q828 285 825 261T815 212H473Q472 205 472 203T473 196Q475 139 500 110T583 81Q622 81 655 94T718 137L785 74Q739 31 692 11T584 -9Q511 -9 471 21T413 111H402Q375 68 344 42T276 3T201 -9ZM217 73Q254 73 288
88T348 135T381 213L388 256L416 219H270Q223 219 192 210T147 183T132 139Q132 107 155 90T217 73ZM736 277Q738 285 738 293T739 310Q739 338 729 363T695 403T636 418Q592 418 560 399T509 349T482 285L751 289L736 277Z" />
<glyph unicode="&#xe7;" horiz-adv-x="520" d="M248 -9Q179 -9 134 20T66 98T43 207Q43 264 61 316T114 411T198 477T308 502Q381 502 430 466T496 358L408 330Q400 370 376 393T307 417Q266 417 235 398T183 348T150 280T139 206Q139 171 150 142T186 95T249
77Q298 77 331 102T383 169L466 129Q430 58 373 25T248 -9ZM224 -258Q205 -258 180 -249T138 -219L172 -172Q181 -184 195 -192T226 -201Q249 -201 263 -189T277 -153Q277 -134 267 -123T240 -106T204 -98T166 -95L229 9H289L243 -56Q268 -61 289 -72T323 -102T336
-150Q336 -197 305 -227T224 -258Z" />
<glyph unicode="&#xe8;" horiz-adv-x="542" d="M251 -9Q179 -9 133 19T65 95T43 200Q43 256 60 309T110 406T193 476T304 502Q372 502 415 475T478 402T499 302Q499 281 496 257T488 212H139Q138 206 138 200T139 189Q140 136 170 108T255 79Q297 79 331 93T398
135L455 69Q409 30 360 11T251 -9ZM407 267Q409 283 410 293T411 318Q411 344 400 367T366 406T305 421Q263 421 231 402T178 352T148 286H438L407 267ZM276 556L150 697H252L348 556H276Z" />
<glyph unicode="&#xe9;" horiz-adv-x="542" d="M251 -9Q179 -9 133 19T65 95T43 200Q43 256 60 309T110 406T193 476T304 502Q372 502 415 475T478 402T499 302Q499 281 496 257T488 212H139Q138 206 138 200T139 189Q140 136 170 108T255 79Q297 79 331 93T398
135L455 69Q409 30 360 11T251 -9ZM407 267Q409 283 410 293T411 318Q411 344 400 367T366 406T305 421Q263 421 231 402T178 352T148 286H438L407 267ZM274 556L386 697H491L345 556H274Z" />
<glyph unicode="&#xea;" horiz-adv-x="542" d="M251 -9Q179 -9 133 19T65 95T43 200Q43 256 60 309T110 406T193 476T304 502Q372 502 415 475T478 402T499 302Q499 281 496 257T488 212H139Q138 206 138 200T139 189Q140 136 170 108T255 79Q297 79 331 93T398
135L455 69Q409 30 360 11T251 -9ZM407 267Q409 283 410 293T411 318Q411 344 400 367T366 406T305 421Q263 421 231 402T178 352T148 286H438L407 267ZM168 545L339 711L464 545H390L330 627L248 545H168Z" />
<glyph unicode="&#xeb;" horiz-adv-x="542" d="M251 -9Q179 -9 133 19T65 95T43 200Q43 256 60 309T110 406T193 476T304 502Q372 502 415 475T478 402T499 302Q499 281 496 257T488 212H139Q138 206 138 200T139 189Q140 136 170 108T255 79Q297 79 331 93T398
135L455 69Q409 30 360 11T251 -9ZM407 267Q409 283 410 293T411 318Q411 344 400 367T366 406T305 421Q263 421 231 402T178 352T148 286H438L407 267ZM357 578L375 697H483L465 578H357ZM175 578L192 697H299L283 578H175Z" />
<glyph unicode="&#xec;" horiz-adv-x="232" d="M32 0L101 493H200L130 0H32ZM374 556L248 697H350L446 556H374Z" />
<glyph unicode="&#xed;" horiz-adv-x="232" d="M32 0L101 493H200L130 0H32ZM117 556L229 697H334L188 556H117Z" />
<glyph unicode="&#xee;" horiz-adv-x="232" d="M32 0L101 493H200L130 0H32ZM266 545L437 711L562 545H488L428 627L346 545H266Z" />
<glyph unicode="&#xef;" horiz-adv-x="232" d="M32 0L101 493H200L130 0H32ZM456 578L474 697H582L564 578H456ZM274 578L291 697H398L382 578H274Z" />
<glyph unicode="&#xf0;" horiz-adv-x="613" d="M251 -9Q156 -9 104 44T51 181Q51 240 74 296T139 398T236 469T358 496Q390 496 415 487T459 462T491 424Q497 413 500 401T505 375Q510 399 512 421T515 463Q515 525 490 568T413 634T277 660L288 726Q402 719 469
686T566 595T595 456Q595 373 574 291T511 141T404 32T251 -9ZM258 76Q304 76 344 96T415 148T462 221T479 301Q479 330 468 356T433 398T368 415Q315 415 273 395T202 340T158 266T143 186Q143 132 175 104T258 76ZM297 537L292 578L643 673L649 632L297 537Z"
/>
<glyph unicode="&#xf1;" horiz-adv-x="553" d="M33 0L103 493H199L185 386L165 388Q184 429 212 453T274 490T346 502Q420 502 461 464T502 353Q502 342 502 333T499 313L455 0H357L397 282Q399 294 399 304T400 325Q400 373 379 395T317 417Q255 417 217 374T165
240L132 0H33ZM388 563Q353 563 337 578T308 611Q299 624 290 631T270 639Q251 639 236 619T215 564L160 571Q171 635 201 668T274 701Q304 701 319 686T346 655Q355 642 364 633T387 623Q404 623 419 644T441 700L497 694Q487 630 458 597T388 563Z" />
<glyph unicode="&#xf2;" horiz-adv-x="575" d="M256 -9Q192 -9 144 19T69 96T42 210Q42 268 62 320T119 413T206 478T318 502Q383 502 430 475T504 399T531 285Q531 226 511 173T453 79T366 15T256 -9ZM260 78Q302 78 334 95T388 142T423 209T435 285Q435 344
404 380T314 416Q271 416 238 398T183 350T150 283T138 209Q138 150 170 114T260 78ZM288 556L162 697H264L360 556H288Z" />
<glyph unicode="&#xf3;" horiz-adv-x="575" d="M256 -9Q192 -9 144 19T69 96T42 210Q42 268 62 320T119 413T206 478T318 502Q383 502 430 475T504 399T531 285Q531 226 511 173T453 79T366 15T256 -9ZM260 78Q302 78 334 95T388 142T423 209T435 285Q435 344
404 380T314 416Q271 416 238 398T183 350T150 283T138 209Q138 150 170 114T260 78ZM287 556L399 697H504L358 556H287Z" />
<glyph unicode="&#xf4;" horiz-adv-x="575" d="M256 -9Q192 -9 144 19T69 96T42 210Q42 268 62 320T119 413T206 478T318 502Q383 502 430 475T504 399T531 285Q531 226 511 173T453 79T366 15T256 -9ZM260 78Q302 78 334 95T388 142T423 209T435 285Q435 344
404 380T314 416Q271 416 238 398T183 350T150 283T138 209Q138 150 170 114T260 78ZM181 545L352 711L477 545H403L343 627L261 545H181Z" />
<glyph unicode="&#xf5;" horiz-adv-x="575" d="M256 -9Q192 -9 144 19T69 96T42 210Q42 268 62 320T119 413T206 478T318 502Q383 502 430 475T504 399T531 285Q531 226 511 173T453 79T366 15T256 -9ZM260 78Q302 78 334 95T388 142T423 209T435 285Q435 344
404 380T314 416Q271 416 238 398T183 350T150 283T138 209Q138 150 170 114T260 78ZM404 563Q369 563 353 578T324 611Q315 624 306 631T286 639Q267 639 252 619T231 564L176 571Q187 635 217 668T290 701Q320 701 335 686T362 655Q371 642 380 633T403 623Q420
623 435 644T457 700L513 694Q503 630 474 597T404 563Z" />
<glyph unicode="&#xf6;" horiz-adv-x="575" d="M256 -9Q192 -9 144 19T69 96T42 210Q42 268 62 320T119 413T206 478T318 502Q383 502 430 475T504 399T531 285Q531 226 511 173T453 79T366 15T256 -9ZM260 78Q302 78 334 95T388 142T423 209T435 285Q435 344
404 380T314 416Q271 416 238 398T183 350T150 283T138 209Q138 150 170 114T260 78ZM370 578L388 697H496L478 578H370ZM188 578L205 697H312L296 578H188Z" />
<glyph unicode="&#xf7;" horiz-adv-x="560" d="M62 209V286H498V209H62ZM223 25V148H337V25H223ZM223 347V469H337V347H223Z" />
<glyph unicode="&#xf8;" horiz-adv-x="575" d="M256 -9Q192 -9 144 19T69 96T42 210Q42 268 62 320T119 413T206 478T318 502Q383 502 430 475T504 399T531 285Q531 226 511 173T453 79T366 15T256 -9ZM260 78Q302 78 334 95T388 142T423 209T435 285Q435 344
404 380T314 416Q271 416 238 398T183 350T150 283T138 209Q138 150 170 114T260 78ZM67 210L457 795H507L117 210H67Z" />
<glyph unicode="&#xf9;" horiz-adv-x="553" d="M206 -9Q130 -9 91 30T51 143Q51 154 52 164T54 185L96 493H195L155 210Q154 199 153 189T152 168Q152 121 172 99T235 77Q279 77 309 98T360 162T388 267L420 493H518L448 0H353L366 106L386 100Q357 43 310 17T206
-9ZM273 556L147 697H249L345 556H273Z" />
<glyph unicode="&#xfa;" horiz-adv-x="553" d="M206 -9Q130 -9 91 30T51 143Q51 154 52 164T54 185L96 493H195L155 210Q154 199 153 189T152 168Q152 121 172 99T235 77Q279 77 309 98T360 162T388 267L420 493H518L448 0H353L366 106L386 100Q357 43 310 17T206
-9ZM272 556L384 697H489L343 556H272Z" />
<glyph unicode="&#xfb;" horiz-adv-x="553" d="M206 -9Q130 -9 91 30T51 143Q51 154 52 164T54 185L96 493H195L155 210Q154 199 153 189T152 168Q152 121 172 99T235 77Q279 77 309 98T360 162T388 267L420 493H518L448 0H353L366 106L386 100Q357 43 310 17T206
-9ZM165 545L336 711L461 545H387L327 627L245 545H165Z" />
<glyph unicode="&#xfc;" horiz-adv-x="553" d="M206 -9Q130 -9 91 30T51 143Q51 154 52 164T54 185L96 493H195L155 210Q154 199 153 189T152 168Q152 121 172 99T235 77Q279 77 309 98T360 162T388 267L420 493H518L448 0H353L366 106L386 100Q357 43 310 17T206
-9ZM355 578L373 697H481L463 578H355ZM173 578L190 697H297L281 578H173Z" />
<glyph unicode="&#xfd;" horiz-adv-x="526" d="M50 -203L180 29L56 493H162L244 127L432 493H540L159 -203H50ZM263 556L375 697H480L334 556H263Z" />
<glyph unicode="&#xfe;" horiz-adv-x="622" d="M36 -204L162 697H260L212 352L195 376Q213 419 244 446T313 488T389 502Q447 502 485 475T544 401T564 294Q564 238 548 184T502 87T427 17T327 -9Q286 -9 251 7T192 52T162 118L181 142L133 -204H36ZM302 77Q346
77 377 96T428 148T457 218T467 293Q467 350 441 383T360 416Q318 416 285 398T230 349T196 281T184 206Q184 169 197 140T237 94T302 77Z" />
<glyph unicode="&#xff;" horiz-adv-x="526" d="M50 -203L180 29L56 493H162L244 127L432 493H540L159 -203H50ZM346 578L364 697H472L454 578H346ZM164 578L181 697H288L272 578H164Z" />
<glyph unicode="&#x2013;" horiz-adv-x="369" d="M3 264L12 337H382L372 264H3Z" />
<glyph unicode="&#x2014;" horiz-adv-x="1010" d="M3 264L12 337H1022L1013 264H3Z" />
<glyph unicode="&#x2018;" horiz-adv-x="265" d="M55 415L224 697H290L170 415H55Z" />
<glyph unicode="&#x2019;" horiz-adv-x="265" d="M61 416L181 697H296L127 416H61Z" />
<glyph unicode="&#x201a;" horiz-adv-x="287" d="M-9 -152L111 130H226L58 -152H-9Z" />
<glyph unicode="&#x201c;" horiz-adv-x="445" d="M236 415L404 697H471L351 415H236ZM55 415L223 697H289L169 415H55Z" />
<glyph unicode="&#x201d;" horiz-adv-x="446" d="M242 416L363 697H477L309 416H242ZM61 416L181 697H296L127 416H61Z" />
<glyph unicode="&#x201e;" horiz-adv-x="404" d="M144 -152L265 130H379L211 -152H144ZM-45 -152L75 130H190L22 -152H-45Z" />
<glyph unicode="&#x2022;" horiz-adv-x="363" d="M50 132L83 363H313L281 132H50Z" />
<glyph unicode="&#x2039;" horiz-adv-x="258" d="M213 54L4 253L267 450L254 346L119 253L226 159L213 54Z" />
<glyph unicode="&#x203a;" horiz-adv-x="258" d="M-9 54L4 159L138 253L32 346L46 450L255 253L-9 54Z" />
</font>
</defs>
</svg>
