<?xml version="1.0" standalone="no"?>
<!DOCTYPE svg PUBLIC "-//W3C//DTD SVG 1.1//EN" "http://www.w3.org/Graphics/SVG/1.1/DTD/svg11.dtd">
<svg xmlns="http://www.w3.org/2000/svg">
<defs >
<font id="HankenGrotesk" horiz-adv-x="545" ><font-face
    font-family="Hanken Grotesk Medium"
    units-per-em="1000"
    panose-1="0 0 0 0 0 0 0 0 0 0"
    ascent="1000"
    descent="-303"
    alphabetic="0" />
<glyph unicode=" " horiz-adv-x="260" />
<glyph unicode="!" horiz-adv-x="244" d="M85 205L74 697H171L160 205H85ZM66 0V121H178V0H66Z" />
<glyph unicode="&quot;" horiz-adv-x="347" d="M49 413V697H131V413H49ZM215 413V697H298V413H215Z" />
<glyph unicode="#" horiz-adv-x="697" d="M124 0L168 207H50V277H183L215 431H91V505H230L274 697H352L308 501H452L494 697H572L529 501H647V431H514L480 277H607V207H466L421 0H344L389 207H244L201 0H124ZM261 277H405L436 431H292L261 277Z" />
<glyph unicode="$" horiz-adv-x="560" d="M248 -113V11H319V-113H248ZM248 685V808H319V685H248ZM292 -12Q185 -12 117 44T33 193L132 217Q143 149 187 114T295 79Q332 79 360 92T406 131T423 189Q423 223 405 245T353 284T272 320Q211 343 168 370T101 434T77
525Q77 579 103 620T178 686T289 710Q356 710 408 680T492 588L411 538Q389 578 358 599T286 620Q255 620 231 608T193 576T179 527Q179 498 195 477T244 440T326 405Q388 381 432 354T500 288T524 195Q524 135 495 89T413 15T292 -12Z" />
<glyph unicode="%" horiz-adv-x="743" d="M111 0L557 697H628L181 0H111ZM543 -9Q501 -9 467 11T411 68T390 153Q390 201 410 237T465 293T542 313Q585 313 620 292T675 234T695 153Q695 109 675 72T621 13T543 -9ZM543 58Q568 58 587 70T617 104T629 153Q629
181 617 202T586 235T542 247Q519 247 500 236T469 203T457 153Q457 124 469 102T501 69T543 58ZM202 384Q159 384 125 404T69 461T48 544Q48 593 68 629T123 685T200 706Q243 706 278 685T333 626T353 544Q353 501 333 465T279 406T202 384ZM202 451Q226 451 244
463T274 497T286 544Q286 573 274 594T243 627T200 639Q177 639 158 628T126 596T114 544Q114 516 126 495T158 462T202 451Z" />
<glyph unicode="&amp;" horiz-adv-x="691" d="M277 -11Q212 -11 161 9T81 68T51 164Q51 209 70 244T119 305T185 354T258 396Q299 419 332 442T386 491T406 552Q406 582 387 604T324 627Q283 627 257 603T230 539Q230 515 241 492T267 449T298 410L220 370Q202
391 183 416T150 473T136 542Q136 592 161 628T229 684T323 704Q404 704 450 663T497 554Q497 497 468 456T395 384T303 326Q264 303 230 281T174 232T152 169Q152 125 186 99T277 73Q383 73 450 149T544 365L631 351Q612 232 563 151T440 30T277 -11ZM575 -35L266
325L344 372L645 26L575 -35Z" />
<glyph unicode="&apos;" horiz-adv-x="180" d="M49 413V697H132V413H49Z" />
<glyph unicode="(" horiz-adv-x="240" d="M147 -204Q118 -163 96 -109T58 5T36 126T28 245Q28 328 41 410T82 566T148 697H237Q192 637 163 562T120 405T106 246Q106 189 114 128T139 7T180 -107T237 -204H147Z" />
<glyph unicode=")" horiz-adv-x="240" d="M93 -204H4Q36 -162 60 -108T101 7T126 128T134 246Q134 324 121 405T78 561T4 697H92Q133 640 159 567T198 411T212 245Q212 188 205 127T182 5T145 -109T93 -204Z" />
<glyph unicode="*" horiz-adv-x="398" d="M129 391L82 426L170 528L39 559L57 617L181 564L169 697H229L218 564L342 617L359 559L229 528L317 426L270 391L199 507L129 391Z" />
<glyph unicode="+" horiz-adv-x="560" d="M241 7V209H39V286H241V488H319V286H521V209H319V7H241Z" />
<glyph unicode="," horiz-adv-x="240" d="M24 -152L109 150H218L90 -152H24Z" />
<glyph unicode="-" horiz-adv-x="327" d="M40 264V337H288V264H40Z" />
<glyph unicode="." horiz-adv-x="240" d="M65 0V121H175V0H65Z" />
<glyph unicode="/" horiz-adv-x="419" d="M-47 -211L311 697H386L27 -211H-47Z" />
<glyph unicode="0" horiz-adv-x="560" d="M282 -8Q221 -8 180 14T112 73T72 157T53 254T48 351Q48 397 52 446T70 542T110 626T177 685T279 707Q338 707 379 686T446 628T487 546T506 450T512 351Q512 301 507 250T487 153T446 71T380 13T282 -8ZM282 86Q332 86
360 121T401 215T413 347Q413 424 401 483T359 578T279 613Q239 613 214 592T174 534T154 450T148 348Q148 296 154 249T174 166T215 108T282 86Z" />
<glyph unicode="1" horiz-adv-x="560" d="M284 0V558L314 509H104V587H220Q252 587 268 600T284 648V697H383V0H284Z" />
<glyph unicode="2" horiz-adv-x="560" d="M46 0V78Q80 105 125 138T216 210T303 293T367 385T392 485Q392 540 362 574T272 609Q227 609 198 588T154 531T139 451L43 458Q43 507 58 551T102 629T175 684T275 704Q339 704 386 677T461 602T488 489Q488 434 469
383T414 286T333 198T234 121T124 54L150 91H516V0H46Z" />
<glyph unicode="3" horiz-adv-x="560" d="M275 -8Q199 -8 142 19T54 97T22 215L119 221Q119 159 162 123T278 86Q325 86 359 101T411 143T429 209Q429 243 415 265T375 302T314 321T237 327V404Q267 404 295 409T344 427T378 459T390 510Q390 541 376 564T335
599T274 612Q216 612 184 581T150 499L54 505Q54 564 82 609T161 679T277 705Q339 705 386 682T461 617T488 520Q488 492 480 470T457 429T423 399T380 377Q409 369 435 356T482 321T515 272T527 208Q527 144 495 95T407 19T275 -8Z" />
<glyph unicode="4" horiz-adv-x="560" d="M337 0V165H13V242L347 697H436V257H547V165H436V0H337ZM93 222L88 257H337V593L350 582L93 222Z" />
<glyph unicode="5" horiz-adv-x="560" d="M278 -9Q215 -9 163 18T76 91T32 197L128 214Q134 180 152 150T202 103T276 85Q324 85 356 107T406 165T423 241Q423 279 407 311T360 362T281 382Q238 382 205 363T148 309L53 334L119 697H495V606H155L207 647L160 389L131
396Q170 441 212 457T295 474Q363 474 415 442T497 357T526 241Q526 191 508 146T457 66T378 11T278 -9Z" />
<glyph unicode="6" horiz-adv-x="560" d="M376 697L200 419L188 434Q209 447 232 453T277 460Q343 460 396 429T479 346T510 228Q510 160 477 107T388 22T264 -9Q197 -9 141 22T51 106T17 227Q17 262 27 294T55 356L264 697H376ZM264 374Q224 374 191 356T138
304T117 228Q117 187 137 154T190 103T264 84Q305 84 338 102T391 154T411 229Q411 271 392 304T339 355T264 374Z" />
<glyph unicode="7" horiz-adv-x="560" d="M98 0L432 642L459 606H28V697H529V623L207 0H98Z" />
<glyph unicode="8" horiz-adv-x="560" d="M280 -9Q216 -9 160 15T68 86T32 203Q32 263 61 309T146 379Q110 399 89 434T68 516Q68 576 98 618T178 683T281 706Q338 706 386 683T463 616T492 514Q492 466 471 433T414 379Q469 355 498 309T528 203Q528 133 493
86T401 15T280 -9ZM280 84Q322 84 355 98T409 141T430 212Q430 252 411 280T358 324T280 340Q236 340 203 325T150 281T130 212Q130 170 150 142T205 99T280 84ZM282 407Q331 407 363 434T395 507Q395 554 364 583T281 613Q249 613 223 601T182 566T166 510Q166
463 198 435T282 407Z" />
<glyph unicode="9" horiz-adv-x="560" d="M167 0L343 278L355 263Q335 250 312 244T266 237Q200 237 147 268T64 351T33 469Q33 537 66 590T156 675T279 706Q347 706 403 675T492 591T526 470Q526 436 516 404T488 341L279 0H167ZM279 323Q320 323 353 341T406
393T426 469Q426 511 406 543T353 594T279 613Q239 613 206 595T152 544T132 468Q132 426 152 393T205 342T279 323Z" />
<glyph unicode=":" horiz-adv-x="240" d="M64 349V471H176V349H64ZM64 0V121H176V0H64Z" />
<glyph unicode=";" horiz-adv-x="240" d="M7 -152L93 130H202L74 -152H7ZM80 349V471H192V349H80Z" />
<glyph unicode="&lt;" horiz-adv-x="560" d="M524 0L25 201V293L524 494V411L71 232V262L524 82V0Z" />
<glyph unicode="=" horiz-adv-x="560" d="M79 315V393H482V315H79ZM79 101V179H482V101H79Z" />
<glyph unicode="&gt;" horiz-adv-x="560" d="M36 0V82L489 262V232L36 411V494L535 293V201L36 0Z" />
<glyph unicode="?" horiz-adv-x="516" d="M212 203V254Q212 295 224 322T256 370T297 405T339 437T370 473T383 524Q383 573 350 598T258 624Q195 624 161 591T126 498H40Q40 565 68 611T146 681T259 706Q318 706 365 687T440 627T468 522Q468 479 456 450T424
401T382 365T341 335T309 299T296 247V203H212ZM200 0V121H311V0H200Z" />
<glyph unicode="@" horiz-adv-x="874" d="M438 -109Q359 -109 290 -81T169 -1T87 118T57 267Q57 350 86 420T166 543T287 623T438 652Q520 652 589 624T709 546T789 427T818 279Q818 217 802 172T753 101T669 75Q632 75 605 89T562 125T547 175V205L567 175Q547
123 504 98T410 72Q359 72 318 96T253 164T229 265Q229 324 253 368T318 436T410 460Q457 460 493 438T550 370L538 379L549 453H624V216Q624 181 636 166T677 150Q714 150 730 183T746 278Q746 344 724 399T660 495T562 558T438 580Q373 580 317 557T218 492T153
393T130 267Q130 202 154 147T220 50T318 -14T438 -37Q525 -37 603 10L637 -53Q594 -81 542 -95T438 -109ZM429 149Q461 149 484 164T521 205T535 265Q535 301 521 327T484 368T429 383Q399 383 375 368T337 327T323 265Q323 231 336 205T374 164T429 149Z" />
<glyph unicode="A" horiz-adv-x="649" d="M14 0L285 697H364L634 0H523L325 549L126 0H14ZM174 155L205 246H443L477 155H174Z" />
<glyph unicode="B" horiz-adv-x="604" d="M75 0V697H305Q406 697 463 651T521 522Q521 472 499 434T437 374Q497 356 527 312T557 199Q557 105 498 53T332 0H75ZM177 94H325Q456 94 456 204Q456 257 426 286T340 315H177V94ZM177 406H317Q363 406 391 433T420
507Q420 553 390 578T305 603H177V406Z" />
<glyph unicode="C" horiz-adv-x="706" d="M372 -13Q275 -13 202 32T87 159T46 349Q46 457 87 538T201 665T372 710Q479 710 557 657T670 510L575 475Q550 540 498 576T372 613Q304 613 254 581T176 490T148 349Q148 267 175 208T253 117T372 84Q446 84 498 120T575
222L670 188Q636 95 558 41T372 -13Z" />
<glyph unicode="D" horiz-adv-x="679" d="M75 0V697H271Q443 697 537 605T632 343Q632 177 539 89T270 0H75ZM177 94H261Q346 94 406 118T497 198T529 347Q529 439 498 495T409 577T270 603H177V94Z" />
<glyph unicode="E" horiz-adv-x="583" d="M75 0V697H536V606H177V402H506V311H177V91H536V0H75Z" />
<glyph unicode="F" horiz-adv-x="563" d="M75 0V697H535V606H177V402H488V311H177V0H75Z" />
<glyph unicode="G" horiz-adv-x="732" d="M366 -13Q272 -13 200 32T87 159T46 349Q46 457 87 538T201 665T372 710Q479 710 557 657T670 510L575 475Q550 540 498 576T372 613Q304 613 254 581T176 490T148 349Q148 267 175 208T253 117T372 84Q407 84 443 93T511
127T561 194T580 302V349L603 279H405V370H670V0H580L566 128L583 115Q565 71 532 43T457 1T366 -13Z" />
<glyph unicode="H" horiz-adv-x="683" d="M75 0V697H177V405H506V697H608V0H506V310H177V0H75Z" />
<glyph unicode="I" horiz-adv-x="252" d="M75 0V697H177V0H75Z" />
<glyph unicode="J" horiz-adv-x="553" d="M257 -13Q158 -13 96 47T26 212L126 223Q131 149 165 115T257 81Q324 81 353 125T383 251V606H112V697H485V245Q485 165 458 107T379 18T257 -13Z" />
<glyph unicode="K" horiz-adv-x="644" d="M155 218V347L489 697H625L155 218ZM75 0V697H177V0H75ZM508 0L276 367L352 438L627 0H508Z" />
<glyph unicode="L" horiz-adv-x="498" d="M75 0V697H177V91H484V0H75Z" />
<glyph unicode="M" horiz-adv-x="845" d="M75 0V697H225L432 161H414L621 697H770V0H668V579L677 577L472 60H373L168 577L177 579V0H75Z" />
<glyph unicode="N" horiz-adv-x="680" d="M75 0V697H181L528 132H504V697H605V0H497L153 566H177V0H75Z" />
<glyph unicode="O" horiz-adv-x="748" d="M372 -13Q275 -13 202 32T87 158T46 348Q46 457 87 538T201 665T372 710Q471 710 545 665T660 539T701 348Q701 240 660 159T544 32T372 -13ZM372 84Q442 84 492 116T570 208T598 348Q598 429 570 488T492 580T372 613Q304
613 254 581T176 490T148 348Q148 267 175 208T253 116T372 84Z" />
<glyph unicode="P" horiz-adv-x="557" d="M75 0V697H290Q405 697 464 647T524 498Q524 400 464 348T290 296H176V0H75ZM176 386H280Q347 386 385 412T423 497Q423 554 387 580T280 606H176V386Z" />
<glyph unicode="Q" horiz-adv-x="778" d="M372 -13Q275 -13 202 32T88 158T46 348Q46 457 87 538T201 665T372 710Q471 710 545 665T660 539T701 348Q701 240 660 159T544 32T372 -13ZM669 -49L394 219L454 282L731 11L669 -49ZM372 84Q442 84 492 116T570 208T598
348Q598 429 570 488T492 580T372 613Q304 613 254 581T176 490T148 348Q148 267 175 208T253 116T372 84Z" />
<glyph unicode="R" horiz-adv-x="603" d="M75 0V697H290Q372 697 423 673T499 605T524 499Q524 409 473 358T324 299Q307 298 285 298T244 298H177V0H75ZM461 0L282 310L386 323L578 0H461ZM177 388H280Q322 388 353 398T404 433T423 498Q423 539 404 562T353
596T280 606H177V388Z" />
<glyph unicode="S" horiz-adv-x="568" d="M294 -12Q187 -12 119 44T35 193L134 217Q145 149 189 114T297 79Q334 79 362 92T408 131T425 189Q425 223 407 245T355 284T274 320Q213 343 170 370T103 434T79 525Q79 579 105 620T180 686T291 710Q358 710 410 680T494
588L413 538Q391 578 360 599T288 620Q257 620 233 608T195 576T181 527Q181 498 197 477T246 440T328 405Q390 381 434 354T502 288T526 195Q526 135 497 89T415 15T294 -12Z" />
<glyph unicode="T" horiz-adv-x="586" d="M242 0V606H14V697H572V606H345V0H242Z" />
<glyph unicode="U" horiz-adv-x="656" d="M327 -13Q201 -13 135 54T68 252V697H170V264Q170 204 185 163T234 101T327 80Q385 80 420 101T471 163T486 264V697H587V257Q587 124 521 56T327 -13Z" />
<glyph unicode="V" horiz-adv-x="661" d="M293 0L14 697H126L347 124H317L535 697H647L370 0H293Z" />
<glyph unicode="W" horiz-adv-x="964" d="M226 0L20 697H126L282 155L432 658H533L683 155L838 697H945L739 0H639L474 537H491L326 0H226Z" />
<glyph unicode="X" horiz-adv-x="651" d="M19 0L255 349L21 697H142L326 421L508 697H630L395 349L633 0H511L325 275L139 0H19Z" />
<glyph unicode="Y" horiz-adv-x="610" d="M255 0V270L9 697H125L303 372L485 697H600L357 270V0H255Z" />
<glyph unicode="Z" horiz-adv-x="590" d="M31 0V85L444 637L458 606H54V697H546V612L141 72L128 91H558V0H31Z" />
<glyph unicode="[" horiz-adv-x="272" d="M61 -247V740H263V675H141V-182H263V-247H61Z" />
<glyph unicode="\" horiz-adv-x="454" d="M502 -211H427L68 697H143L502 -211Z" />
<glyph unicode="]" horiz-adv-x="272" d="M211 -247H9V-182H130V675H9V740H211V-247Z" />
<glyph unicode="^" horiz-adv-x="577" d="M30 215L227 697H350L547 215H443L274 650H302L134 215H30Z" />
<glyph unicode="_" horiz-adv-x="434" d="M12 -75V0H422V-75H12Z" />
<glyph unicode="`" horiz-adv-x="299" d="M180 556L45 697H149L253 556H180Z" />
<glyph unicode="a" horiz-adv-x="542" d="M390 0L382 91V310Q382 362 352 390T265 418Q225 418 189 402T119 350L58 413Q102 459 155 480T272 502Q371 502 425 452T480 310V0H390ZM231 -9Q176 -9 134 11T69 66T46 149Q46 190 63 219T107 265Q132 281 164 287T234
294H391V220H248Q228 220 207 217T170 202Q158 193 151 180T144 148Q144 113 171 92T243 71Q281 71 312 88T363 136T382 206L417 160Q408 108 382 70T318 11T231 -9Z" />
<glyph unicode="b" horiz-adv-x="583" d="M318 -9Q274 -9 238 8T176 59T137 141L166 142V0H68V697H166V351L141 357Q151 400 176 432T237 483T318 502Q379 502 429 471T508 383T537 247Q537 175 510 117T434 25T318 -9ZM297 81Q340 81 371 102T421 160T439 247Q439
296 421 333T372 391T297 412Q255 412 224 392T175 334T157 247Q157 198 174 161T223 102T297 81Z" />
<glyph unicode="c" horiz-adv-x="519" d="M277 -9Q221 -9 178 11T105 68T60 150T45 247Q45 297 60 343T104 425T177 481T277 502Q349 502 402 467T481 361L395 328Q382 367 353 392T277 417Q231 417 201 393T157 330T143 247Q143 203 157 164T201 101T277 77Q324
77 353 101T395 166L481 133Q456 61 403 26T277 -9Z" />
<glyph unicode="d" horiz-adv-x="583" d="M265 -9Q198 -9 149 24T73 116T45 247Q45 326 74 383T154 471T265 502Q309 502 345 484T407 434T442 359L417 351V697H514V0H417V142L446 141Q433 93 407 60T345 9T265 -9ZM285 81Q328 81 359 102T408 160T426 247Q426
296 409 333T360 391T285 412Q243 412 211 392T162 334T144 247Q144 198 161 161T211 102T285 81Z" />
<glyph unicode="e" horiz-adv-x="540" d="M280 -9Q220 -9 176 11T103 66T60 147T45 243Q45 293 59 339T101 422T171 480T272 502Q330 502 372 483T441 429T481 351T495 260Q495 255 495 242T492 216H143Q146 150 183 115T283 79Q325 79 358 92T419 135L479 73Q450
44 420 26T356 0T280 -9ZM398 265Q400 273 400 281T401 297Q401 320 393 342T369 381T330 409T275 420Q234 420 205 402T161 353T142 288H430L398 265Z" />
<glyph unicode="f" horiz-adv-x="339" d="M108 0V417H10V493H109V553Q109 612 128 645T179 692T252 706Q280 706 301 701T343 685L311 611Q300 617 288 620T263 624Q233 624 220 605T206 553V493H318V417H206V0H108Z" />
<glyph unicode="g" horiz-adv-x="517" d="M270 -213Q163 -213 101 -174T38 -66Q38 -61 38 -53T41 -37L169 51L199 26L131 -58Q130 -62 130 -64T130 -70Q130 -106 170 -124T270 -142Q323 -142 356 -128T389 -81Q389 -64 379 -53T349 -36T302 -25T238 -15Q192 -8
149 5T78 43T50 111Q50 147 75 177T142 227L198 188Q167 181 153 166T139 128Q139 110 152 99T191 82T251 71Q300 64 342 56T417 34T467 -5T485 -69Q485 -139 429 -176T270 -213ZM259 149Q200 149 156 171T86 233T61 324Q61 377 87 417T157 479T256 502Q308 502
352 480T423 416T450 320Q450 268 426 230T358 170T259 149ZM257 227Q303 227 328 255T353 325Q353 369 327 395T257 422Q212 422 185 395T158 326Q158 284 184 256T257 227ZM418 397L347 444L455 531L504 470L418 397Z" />
<glyph unicode="h" horiz-adv-x="553" d="M68 0V697H167V386L146 379Q159 420 184 447T243 488T315 502Q397 502 443 455T490 316V0H392V280Q392 351 367 384T288 417Q229 417 198 376T167 243V0H68Z" />
<glyph unicode="i" horiz-adv-x="232" d="M67 0V493H165V0H67ZM60 578V697H171V578H60Z" />
<glyph unicode="j" horiz-adv-x="232" d="M56 -213Q38 -213 17 -209T-25 -199V-114Q-10 -118 1 -120T21 -122Q43 -122 55 -110T67 -66V493H165V-92Q165 -154 135 -183T56 -213ZM61 578V697H172V578H61Z" />
<glyph unicode="k" horiz-adv-x="541" d="M404 0L247 244L156 146V271L371 493H496L318 310L520 0H404ZM68 0V697H167V0H68Z" />
<glyph unicode="l" horiz-adv-x="269" d="M173 -9Q126 -9 96 20T66 112V697H163V131Q163 105 174 94T205 82Q213 82 223 83T245 89V6Q227 -2 208 -5T173 -9Z" />
<glyph unicode="m" horiz-adv-x="833" d="M68 0V493H167V366L146 359Q155 398 171 425T208 469T255 494T306 502Q349 502 383 486T441 435T473 344L417 333Q432 391 456 428T516 483T598 502Q660 502 697 474T752 402T770 304V0H673V280Q673 323 663 353T632 400T576
417Q542 417 518 400T482 347T469 260V0H371V286Q371 352 347 384T276 417Q242 417 218 400T180 347T167 260V0H68Z" />
<glyph unicode="n" horiz-adv-x="553" d="M68 0V493H167V386L147 380Q160 421 184 447T242 488T315 502Q397 502 443 455T490 316V0H392V280Q392 351 367 384T288 417Q248 417 222 399T181 342T167 243V0H68Z" />
<glyph unicode="o" horiz-adv-x="575" d="M288 -9Q218 -9 163 24T77 115T45 247Q45 321 76 378T162 469T288 502Q359 502 413 469T498 379T530 247Q530 173 499 116T413 25T288 -9ZM288 78Q332 78 364 99T414 158T432 247Q432 299 415 337T365 395T288 416Q243
416 211 395T161 337T143 247Q143 196 160 158T210 99T288 78Z" />
<glyph unicode="p" horiz-adv-x="583" d="M68 -204V493H166V351L138 360Q151 409 176 440T238 486T318 502Q384 502 433 469T510 377T537 246Q537 168 508 111T429 22T318 -9Q274 -9 238 8T176 55T141 128L166 142V-204H68ZM297 81Q340 81 371 101T421 159T439
246Q439 295 421 332T372 391T297 412Q255 412 224 391T175 333T157 246Q157 197 174 160T223 102T297 81Z" />
<glyph unicode="q" horiz-adv-x="583" d="M417 -204V142L442 128Q432 86 407 56T346 8T265 -9Q204 -9 154 22T75 110T45 246Q45 319 72 377T149 468T265 502Q308 502 344 487T406 440T445 360L417 351V493H514V-204H417ZM285 81Q328 81 359 101T408 159T426 246Q426
295 409 332T360 391T285 412Q243 412 211 391T162 333T144 246Q144 197 161 160T211 102T285 81Z" />
<glyph unicode="r" horiz-adv-x="413" d="M68 0V493H167V360L146 356Q151 400 176 432T237 483T306 502Q330 502 351 497T395 478L347 390Q336 396 319 400T287 404Q264 404 242 396T203 370T176 323Q172 309 170 287T167 225V0H68Z" />
<glyph unicode="s" horiz-adv-x="471" d="M234 -9Q182 -9 142 6T74 46T28 97L95 155Q114 121 149 97T235 72Q279 72 304 90T330 139Q330 163 314 177T272 201T215 218Q187 226 158 236T106 261T68 301T53 362Q53 425 101 463T230 502Q287 502 334 479T407 409L346
362Q326 395 295 410T226 425Q191 425 168 411T144 371Q144 353 154 342T187 322T243 305Q274 298 306 288T365 262T409 219T426 149Q426 102 402 67T335 11T234 -9Z" />
<glyph unicode="t" horiz-adv-x="353" d="M240 -9Q204 -9 174 5T126 50T108 132V619L207 674V158Q207 117 219 95T266 72Q276 72 289 74T319 81V5Q299 -2 279 -5T240 -9ZM10 417V493H319V417H10Z" />
<glyph unicode="u" horiz-adv-x="553" d="M237 -9Q182 -9 143 13T83 78T62 182V493H160V213Q160 169 171 139T205 93T265 77Q307 77 333 98T373 160T386 264V493H483V0H386V106L406 102Q384 47 339 19T237 -9Z" />
<glyph unicode="v" horiz-adv-x="526" d="M222 0L20 493H128L262 127L398 493H504L304 0H222Z" />
<glyph unicode="w" horiz-adv-x="750" d="M173 0L25 493H129L223 149L332 493H417L526 151L621 493H725L576 0H487L375 356L263 0H173Z" />
<glyph unicode="x" horiz-adv-x="527" d="M25 0L199 248L25 493H143L264 314L386 493H503L327 248L503 0H384L264 181L141 0H25Z" />
<glyph unicode="y" horiz-adv-x="526" d="M114 -203L210 29L20 493H128L262 127L398 493H504L221 -203H114Z" />
<glyph unicode="z" horiz-adv-x="472" d="M36 0V68L335 437L341 413H49V493H431V421L135 50L129 80H430V0H36Z" />
<glyph unicode="{" horiz-adv-x="254" d="M178 -247Q125 -247 97 -213T69 -115V131Q69 159 61 176T38 202T6 212V281Q24 284 38 292T60 318T69 362V608Q69 672 97 706T178 740H246V677H210Q178 677 166 657T153 607V360Q153 313 135 289T86 250V243Q117 230 135
205T153 134V-114Q153 -144 165 -164T210 -184H246V-247H178Z" />
<glyph unicode="|" horiz-adv-x="262" d="M94 -254V746H168V-254H94Z" />
<glyph unicode="}" horiz-adv-x="254" d="M75 -247H8V-184H43Q76 -184 88 -164T101 -114V134Q101 180 118 205T168 243V250Q136 264 119 288T101 360V607Q101 637 89 657T43 677H8V740H75Q128 740 156 706T185 608V362Q185 335 193 318T216 293T247 281V212Q230
211 216 202T194 176T185 131V-115Q185 -178 157 -212T75 -247Z" />
<glyph unicode="~" horiz-adv-x="560" d="M367 154Q333 154 312 165T276 194T251 229T226 257T191 269Q168 269 155 245T141 181H63Q63 251 98 295T191 340Q226 340 248 329T285 300T311 264T335 235T367 223Q391 223 406 252T421 324H498Q498 249 463 202T367 154Z" />
<glyph unicode="&#xa0;" horiz-adv-x="260" />
<glyph unicode="&#xa1;" horiz-adv-x="244" d="M159 288L170 -204H73L84 288H159ZM178 493V372H66V493H178Z" />
<glyph unicode="&#xa2;" horiz-adv-x="560" d="M258 -113V12H328V-113H258ZM258 480V601H328V480H258ZM298 -9Q241 -9 198 11T126 68T81 150T66 247Q66 297 81 343T125 425T198 481T298 502Q369 502 422 467T502 361L416 328Q402 367 374 392T298 417Q252 417
222 393T178 330T163 247Q163 203 177 164T222 101T298 77Q345 77 373 101T416 166L502 133Q476 61 423 26T298 -9Z" />
<glyph unicode="&#xa3;" horiz-adv-x="560" d="M48 0V87Q83 99 111 121T157 170T175 227Q175 247 167 270T153 312H51V395H136Q129 418 123 447T116 506Q116 563 140 609T211 683T320 710Q396 710 449 670T521 559L445 531Q434 578 399 602T322 627Q285 627 257
612T214 569T198 504Q198 476 204 446T220 395H422V312H235Q241 295 248 273T256 226Q256 190 245 162T213 115T167 85T113 71L132 83H519V0H48Z" />
<glyph unicode="&#xa4;" horiz-adv-x="612" d="M113 65L62 120L121 178Q99 209 89 243T78 312Q78 348 89 383T121 446L62 503L115 559L174 498Q234 543 310 543Q344 543 378 532T442 499L501 558L554 505L495 446Q517 417 528 382T539 312Q539 278 528 243T495
177L554 120L502 65L442 125Q412 103 378 92T308 81Q272 81 238 92T173 125L113 65ZM308 155Q352 155 387 177T443 235T465 313Q465 355 444 390T386 447T307 469Q265 469 230 448T173 390T151 310Q151 266 172 231T230 176T308 155Z" />
<glyph unicode="&#xa5;" horiz-adv-x="560" d="M231 0V107H64V186H231V265H64V345H188L3 697H112L280 365L450 697H560L376 345H498V265H333V186H498V107H333V0H231Z" />
<glyph unicode="&#xa6;" horiz-adv-x="262" d="M94 330V746H168V330H94ZM94 -254V155H168V-254H94Z" />
<glyph unicode="&#xa7;" horiz-adv-x="587" d="M288 -205Q225 -205 171 -177T82 -87L167 -35Q188 -75 220 -94T291 -114Q322 -114 345 -103T382 -71T396 -24Q396 10 374 31T319 68T249 97Q215 110 180 126T116 165T68 221T50 303Q50 346 65 381T107 443Q99 458
94 477T89 519Q89 579 118 620T194 683T298 706Q365 706 418 677T504 588L420 536Q400 574 369 594T295 615Q266 615 242 604T205 572T192 524Q192 492 213 470T268 433T338 405Q372 392 407 376T471 336T519 280T537 199Q537 158 522 122T480 58Q488 42 493 23T498
-19Q498 -77 469 -119T393 -183T288 -205ZM412 126Q435 152 435 190Q435 226 415 249T361 289T284 322Q266 330 248 337T211 353T175 376Q163 363 158 346T152 313Q152 285 164 265T198 230T246 203T303 179Q326 170 356 158T412 126Z" />
<glyph unicode="&#xa8;" horiz-adv-x="390" d="M234 578V697H345V578H234ZM45 578V697H156V578H45Z" />
<glyph unicode="&#xa9;" horiz-adv-x="819" d="M410 -5Q337 -5 273 22T160 98T84 211T56 349Q56 422 83 486T159 598T272 674T410 702Q483 702 547 675T659 599T735 486T763 349Q763 276 736 212T660 99T547 23T410 -5ZM411 129Q347 129 303 159T237 239T214 347Q214
404 236 454T301 536T410 568Q472 568 518 537T588 447L512 417Q500 450 474 472T410 494Q371 494 345 473T307 418T295 347Q295 310 307 277T345 224T410 203Q448 203 474 224T510 279L583 251Q564 194 519 162T411 129ZM410 43Q474 43 529 67T626 132T692 230T716
349Q716 413 692 468T627 565T530 631T410 655Q347 655 291 631T194 566T128 469T104 349Q104 286 128 230T193 133T291 67T410 43Z" />
<glyph unicode="&#xaa;" horiz-adv-x="490" d="M209 348Q156 348 121 377T86 457Q86 510 124 535T220 560H326Q326 564 326 571T324 584Q320 618 300 635T241 653Q204 653 181 638T142 598L97 629Q127 671 160 688T239 706Q307 706 344 669T382 566V356H330L329
410Q282 348 209 348ZM222 402Q253 402 277 416T316 457Q320 470 322 482T326 508H223Q187 508 168 494T148 455Q148 431 167 417T222 402Z" />
<glyph unicode="&#xab;" horiz-adv-x="493" d="M474 54L238 253L474 450V346L354 253L474 159V54ZM239 54L3 253L239 450V346L118 253L239 159V54Z" />
<glyph unicode="&#xac;" horiz-adv-x="560" d="M401 17V209H29V286H479V17H401Z" />
<glyph unicode="&#xad;" horiz-adv-x="327" d="M40 264V337H288V264H40Z" />
<glyph unicode="&#xae;" horiz-adv-x="621" d="M310 190Q239 190 181 223T88 314T53 448Q53 524 87 582T180 673T310 706Q382 706 440 673T532 582T567 448Q567 372 533 314T440 223T310 190ZM310 236Q369 236 417 263T493 338T522 448Q522 511 494 559T417 634T310
661Q252 661 204 634T127 559T98 448Q98 386 126 338T203 263T310 236ZM231 304V593H321Q371 593 394 571T418 510Q418 479 402 460T356 433L428 304H380L314 427H275V304H231ZM276 467H316Q341 467 357 476T374 510Q374 535 358 544T316 553H276V467Z" />
<glyph unicode="&#xaf;" horiz-adv-x="363" d="M45 580V639H318V580H45Z" />
<glyph unicode="&#xb0;" horiz-adv-x="419" d="M209 419Q170 419 138 438T86 491T66 563Q66 602 85 634T137 686T209 706Q249 706 281 687T333 635T353 563Q353 524 334 491T282 439T209 419ZM209 486Q231 486 248 496T276 524T287 563Q287 585 277 602T249 629T209
639Q189 639 171 629T143 602T133 563Q133 542 143 525T171 497T209 486Z" />
<glyph unicode="&#xb1;" horiz-adv-x="560" d="M241 123V287H32V365H241V527H319V365H528V287H319V123H241ZM32 -35V43H528V-35H32Z" />
<glyph unicode="&#xb2;" horiz-adv-x="414" d="M55 488V533Q88 554 127 580T202 639T261 707T284 783Q284 816 266 837T209 858Q182 858 164 845T136 809T125 758L73 762Q73 801 89 834T135 887T209 907Q266 907 302 875T338 782Q338 743 320 707T271 639T205
581T134 535L121 537H359V488H55Z" />
<glyph unicode="&#xb3;" horiz-adv-x="409" d="M202 482Q161 482 127 497T73 541T53 612L104 617Q104 575 132 553T203 531Q241 531 270 551T299 611Q299 643 280 659T234 681T182 686V723Q213 723 234 729T265 750T276 785Q276 820 255 837T203 855Q169 855 147
836T123 784L72 788Q72 843 110 874T201 905Q235 905 264 892T310 855T328 796Q328 775 320 758T297 729T263 709Q289 704 308 690T339 654T350 606Q350 566 330 539T276 497T202 482Z" />
<glyph unicode="&#xb4;" horiz-adv-x="306" d="M45 556L155 697H260L118 556H45Z" />
<glyph unicode="&#xb5;" horiz-adv-x="553" d="M62 -167V493H160V205Q160 169 169 140T202 94T268 77Q315 77 340 103T376 173T386 273V493H483V0H386V71Q363 32 325 12T239 -9Q211 -9 191 1T160 32V-167H62Z" />
<glyph unicode="&#xb6;" horiz-adv-x="587" d="M268 -121V307Q211 307 160 330T77 397T45 502Q45 564 77 607T160 674T268 697H325V-121H268ZM434 -121V697H490V-121H434Z" />
<glyph unicode="&#xb7;" horiz-adv-x="325" d="M102 288V410H210V288H102Z" />
<glyph unicode="&#xb8;" horiz-adv-x="295" d="M141 -258Q111 -258 84 -240T45 -194L100 -170Q105 -183 117 -192T144 -201Q166 -201 178 -188T191 -155Q191 -128 168 -113T106 -96Q101 -95 89 -95T69 -95L126 0H186L146 -56Q149 -57 158 -58T177 -62Q213 -72
231 -94T250 -150Q250 -181 236 -205T198 -243T141 -258Z" />
<glyph unicode="&#xb9;" horiz-adv-x="267" d="M138 488V821L154 795H37V836H101Q140 836 140 871V902H190V488H138Z" />
<glyph unicode="&#xba;" horiz-adv-x="516" d="M258 352Q207 352 169 376T108 441T85 529Q85 578 107 617T169 681T258 706Q308 706 347 682T408 618T430 529Q430 480 408 440T348 376T258 352ZM258 407Q294 407 318 423T354 468T366 529Q366 563 354 591T318
635T258 652Q222 652 198 636T162 591T150 529Q150 496 161 468T197 424T258 407Z" />
<glyph unicode="&#xbb;" horiz-adv-x="464" d="M-11 54V159L110 253L-11 346V450L226 253L-11 54ZM224 54V159L345 253L224 346V450L461 253L224 54Z" />
<glyph unicode="&#xbc;" horiz-adv-x="731" d="M127 279V612L147 578H20V632H86Q106 632 116 640T127 671V697H194V279H127ZM115 0L524 697H594L185 0H115ZM573 0V100H383V152L578 418H639V158H706V100H639V0H573ZM435 138L428 158H574V349L582 344L435 138Z" />
<glyph unicode="&#xbd;" horiz-adv-x="769" d="M127 279V612L147 578H20V632H86Q106 632 116 640T127 671V697H194V279H127ZM115 0L524 697H594L185 0H115ZM452 0V52Q477 71 511 96T578 152T632 217T654 289Q654 319 638 338T590 357Q564 357 548 345T524 312T515
268L450 273Q450 311 466 345T514 400T592 422Q648 422 684 387T721 291Q721 251 704 214T657 145T588 85T505 36L523 62H737V0H452Z" />
<glyph unicode="&#xbe;" horiz-adv-x="811" d="M184 274Q115 274 73 311T30 410L97 413Q97 379 121 358T185 337Q226 337 248 355T270 406Q270 443 241 457T162 471V525Q185 525 204 530T235 548T247 583Q247 608 230 623T183 639Q151 639 134 622T115 576L49
580Q49 634 87 668T185 702Q241 702 277 671T314 590Q314 558 297 537T255 506Q278 499 296 486T325 453T336 406Q336 347 294 311T184 274ZM195 0L604 697H674L265 0H195ZM653 0V100H463V152L658 418H719V158H786V100H719V0H653ZM515 138L508 158H654V349L662
344L515 138Z" />
<glyph unicode="&#xbf;" horiz-adv-x="365" d="M281 290V239Q281 198 269 171T237 123T196 88T155 56T123 20T111 -31Q111 -80 144 -105T235 -131Q299 -131 333 -98T367 -5H454Q454 -72 426 -118T348 -188T234 -213Q176 -213 129 -194T53 -134T25 -29Q25 15 37
43T69 92T111 128T152 158T184 194T197 246V290H281ZM293 493V372H182V493H293Z" />
<glyph unicode="&#xc0;" horiz-adv-x="649" d="M14 0L285 697H364L634 0H523L325 549L126 0H14ZM174 155L205 246H443L477 155H174ZM288 760L153 901H257L361 760H288Z" />
<glyph unicode="&#xc1;" horiz-adv-x="649" d="M14 0L285 697H364L634 0H523L325 549L126 0H14ZM174 155L205 246H443L477 155H174ZM288 760L398 901H503L361 760H288Z" />
<glyph unicode="&#xc2;" horiz-adv-x="649" d="M14 0L285 697H364L634 0H523L325 549L126 0H14ZM174 155L205 246H443L477 155H174ZM172 749L325 915L478 749H398L325 831L253 749H172Z" />
<glyph unicode="&#xc3;" horiz-adv-x="649" d="M14 0L285 697H364L634 0H523L325 549L126 0H14ZM174 155L205 246H443L477 155H174ZM390 743Q366 743 350 750T322 769T301 792T281 812T257 820Q240 820 230 802T219 749H161Q161 809 188 842T262 875Q283 875 298
867T325 847T347 824T367 804T391 796Q406 796 417 816T428 871H488Q488 810 462 777T390 743Z" />
<glyph unicode="&#xc4;" horiz-adv-x="649" d="M14 0L285 697H364L634 0H523L325 549L126 0H14ZM174 155L205 246H443L477 155H174ZM364 782V901H475V782H364ZM175 782V901H286V782H175Z" />
<glyph unicode="&#xc5;" horiz-adv-x="649" d="M14 0L285 697H364L634 0H523L325 549L126 0H14ZM174 155L205 246H443L477 155H174ZM326 646Q296 646 272 660T234 699T219 752Q219 781 233 805T272 844T326 859Q355 859 379 845T417 806T432 752Q432 723 418 699T379
660T326 646ZM326 699Q348 699 363 714T379 753Q379 776 364 790T326 805Q302 805 288 790T273 753Q273 730 288 715T326 699Z" />
<glyph unicode="&#xc6;" horiz-adv-x="907" d="M14 0L285 697H860V606H500V396H814V304H500V91H860V0H397V608H347L126 0H14ZM164 155L197 248H422V155H164Z" />
<glyph unicode="&#xc7;" horiz-adv-x="706" d="M372 -13Q275 -13 202 32T87 159T46 349Q46 457 87 538T201 665T372 710Q479 710 557 657T670 510L575 475Q550 540 498 576T372 613Q304 613 254 581T176 490T148 349Q148 267 175 208T253 117T372 84Q446 84 498
120T575 222L670 188Q636 95 558 41T372 -13ZM340 -204Q326 -204 309 -201T275 -191T246 -173L276 -134Q290 -144 306 -149T338 -155Q357 -155 371 -147T385 -120Q385 -106 375 -98T347 -85T311 -79T273 -77L336 9H391L348 -43Q388 -49 415 -67T443 -119Q443 -159
413 -181T340 -204Z" />
<glyph unicode="&#xc8;" horiz-adv-x="583" d="M75 0V697H536V606H177V402H506V311H177V91H536V0H75ZM269 760L134 901H238L342 760H269Z" />
<glyph unicode="&#xc9;" horiz-adv-x="583" d="M75 0V697H536V606H177V402H506V311H177V91H536V0H75ZM269 760L379 901H484L342 760H269Z" />
<glyph unicode="&#xca;" horiz-adv-x="583" d="M75 0V697H536V606H177V402H506V311H177V91H536V0H75ZM153 749L306 915L459 749H379L306 831L234 749H153Z" />
<glyph unicode="&#xcb;" horiz-adv-x="583" d="M75 0V697H536V606H177V402H506V311H177V91H536V0H75ZM345 782V901H456V782H345ZM156 782V901H267V782H156Z" />
<glyph unicode="&#xcc;" horiz-adv-x="252" d="M75 0V697H177V0H75ZM90 760L-45 901H59L163 760H90Z" />
<glyph unicode="&#xcd;" horiz-adv-x="252" d="M75 0V697H177V0H75ZM90 760L200 901H305L163 760H90Z" />
<glyph unicode="&#xce;" horiz-adv-x="252" d="M75 0V697H177V0H75ZM-26 749L127 915L280 749H201L127 831L54 749H-26Z" />
<glyph unicode="&#xcf;" horiz-adv-x="252" d="M75 0V697H177V0H75ZM166 782V901H277V782H166ZM-23 782V901H88V782H-23Z" />
<glyph unicode="&#xd0;" horiz-adv-x="679" d="M75 0V697H271Q443 697 537 605T632 343Q632 177 539 89T270 0H75ZM177 94H261Q346 94 406 118T497 198T529 347Q529 439 498 495T409 577T270 603H177V94ZM260 317V383H560V317H260Z" />
<glyph unicode="&#xd1;" horiz-adv-x="680" d="M75 0V697H181L528 132H504V697H605V0H497L153 566H177V0H75ZM402 743Q378 743 362 750T334 769T313 792T293 812T269 820Q252 820 242 802T231 749H173Q173 809 200 842T274 875Q295 875 310 867T337 847T359 824T379
804T403 796Q418 796 429 816T440 871H500Q500 810 474 777T402 743Z" />
<glyph unicode="&#xd2;" horiz-adv-x="748" d="M372 -13Q275 -13 202 32T87 158T46 348Q46 457 87 538T201 665T372 710Q471 710 545 665T660 539T701 348Q701 240 660 159T544 32T372 -13ZM372 84Q442 84 492 116T570 208T598 348Q598 429 570 488T492 580T372
613Q304 613 254 581T176 490T148 348Q148 267 175 208T253 116T372 84ZM336 760L201 901H305L409 760H336Z" />
<glyph unicode="&#xd3;" horiz-adv-x="748" d="M372 -13Q275 -13 202 32T87 158T46 348Q46 457 87 538T201 665T372 710Q471 710 545 665T660 539T701 348Q701 240 660 159T544 32T372 -13ZM372 84Q442 84 492 116T570 208T598 348Q598 429 570 488T492 580T372
613Q304 613 254 581T176 490T148 348Q148 267 175 208T253 116T372 84ZM336 760L446 901H551L409 760H336Z" />
<glyph unicode="&#xd4;" horiz-adv-x="748" d="M372 -13Q275 -13 202 32T87 158T46 348Q46 457 87 538T201 665T372 710Q471 710 545 665T660 539T701 348Q701 240 660 159T544 32T372 -13ZM372 84Q442 84 492 116T570 208T598 348Q598 429 570 488T492 580T372
613Q304 613 254 581T176 490T148 348Q148 267 175 208T253 116T372 84ZM220 749L373 915L526 749H446L373 831L301 749H220Z" />
<glyph unicode="&#xd5;" horiz-adv-x="748" d="M372 -13Q275 -13 202 32T87 158T46 348Q46 457 87 538T201 665T372 710Q471 710 545 665T660 539T701 348Q701 240 660 159T544 32T372 -13ZM372 84Q442 84 492 116T570 208T598 348Q598 429 570 488T492 580T372
613Q304 613 254 581T176 490T148 348Q148 267 175 208T253 116T372 84ZM438 743Q414 743 398 750T370 769T349 792T329 812T305 820Q288 820 278 802T267 749H209Q209 809 236 842T310 875Q331 875 346 867T373 847T395 824T415 804T439 796Q454 796 465 816T476
871H536Q536 810 510 777T438 743Z" />
<glyph unicode="&#xd6;" horiz-adv-x="748" d="M372 -13Q275 -13 202 32T87 158T46 348Q46 457 87 538T201 665T372 710Q471 710 545 665T660 539T701 348Q701 240 660 159T544 32T372 -13ZM372 84Q442 84 492 116T570 208T598 348Q598 429 570 488T492 580T372
613Q304 613 254 581T176 490T148 348Q148 267 175 208T253 116T372 84ZM412 782V901H523V782H412ZM223 782V901H334V782H223Z" />
<glyph unicode="&#xd7;" horiz-adv-x="560" d="M129 36L69 96L219 246L69 397L129 458L278 307L430 458L490 397L340 246L490 96L430 36L278 186L129 36Z" />
<glyph unicode="&#xd8;" horiz-adv-x="748" d="M372 -13Q275 -13 202 32T87 158T46 348Q46 457 87 538T201 665T372 710Q471 710 545 665T660 539T701 348Q701 240 660 159T544 32T372 -13ZM372 84Q442 84 492 116T570 208T598 348Q598 429 570 488T492 580T372
613Q304 613 254 581T176 490T148 348Q148 267 175 208T253 116T372 84ZM85 0L593 697H661L154 0H85Z" />
<glyph unicode="&#xd9;" horiz-adv-x="656" d="M327 -13Q201 -13 135 54T68 252V697H170V264Q170 204 185 163T234 101T327 80Q385 80 420 101T471 163T486 264V697H587V257Q587 124 521 56T327 -13ZM292 760L157 901H261L365 760H292Z" />
<glyph unicode="&#xda;" horiz-adv-x="656" d="M327 -13Q201 -13 135 54T68 252V697H170V264Q170 204 185 163T234 101T327 80Q385 80 420 101T471 163T486 264V697H587V257Q587 124 521 56T327 -13ZM291 760L401 901H506L364 760H291Z" />
<glyph unicode="&#xdb;" horiz-adv-x="656" d="M327 -13Q201 -13 135 54T68 252V697H170V264Q170 204 185 163T234 101T327 80Q385 80 420 101T471 163T486 264V697H587V257Q587 124 521 56T327 -13ZM175 749L328 915L481 749H401L328 831L256 749H175Z" />
<glyph unicode="&#xdc;" horiz-adv-x="656" d="M327 -13Q201 -13 135 54T68 252V697H170V264Q170 204 185 163T234 101T327 80Q385 80 420 101T471 163T486 264V697H587V257Q587 124 521 56T327 -13ZM368 782V901H479V782H368ZM179 782V901H290V782H179Z" />
<glyph unicode="&#xdd;" horiz-adv-x="610" d="M255 0V270L9 697H125L303 372L485 697H600L357 270V0H255ZM269 760L379 901H484L342 760H269Z" />
<glyph unicode="&#xde;" horiz-adv-x="626" d="M123 0V697H216V599H348Q449 599 506 548T564 403Q564 308 501 255T326 201H216V0H123ZM216 285H326Q394 285 432 313T470 401Q470 461 432 490T326 519H216V285Z" />
<glyph unicode="&#xdf;" horiz-adv-x="640" d="M419 -9Q369 -9 327 9T256 57T214 126L293 161Q302 138 317 118T358 86T418 73Q462 73 485 92T508 140Q508 163 494 177T456 200T405 216T349 233T297 258T259 297T244 358Q244 398 259 422T297 461T345 485T394
503T431 522T446 553Q446 573 429 586T386 607T332 614Q283 614 253 603T205 574T181 534T172 491T170 453V0H68V453Q68 500 78 545T116 626T194 684T325 705Q389 705 437 688T514 638T542 556Q542 519 528 495T490 456T442 431T393 412T355 390T340 358Q340 340
354 330T392 313T444 299T501 283T552 257T589 215T604 149Q604 109 589 79T547 30T487 1T419 -9Z" />
<glyph unicode="&#xe0;" horiz-adv-x="542" d="M390 0L382 91V310Q382 362 352 390T265 418Q225 418 189 402T119 350L58 413Q102 459 155 480T272 502Q371 502 425 452T480 310V0H390ZM231 -9Q176 -9 134 11T69 66T46 149Q46 190 63 219T107 265Q132 281 164
287T234 294H391V220H248Q228 220 207 217T170 202Q158 193 151 180T144 148Q144 113 171 92T243 71Q281 71 312 88T363 136T382 206L417 160Q408 108 382 70T318 11T231 -9ZM238 556L103 697H207L311 556H238Z" />
<glyph unicode="&#xe1;" horiz-adv-x="542" d="M390 0L382 91V310Q382 362 352 390T265 418Q225 418 189 402T119 350L58 413Q102 459 155 480T272 502Q371 502 425 452T480 310V0H390ZM231 -9Q176 -9 134 11T69 66T46 149Q46 190 63 219T107 265Q132 281 164
287T234 294H391V220H248Q228 220 207 217T170 202Q158 193 151 180T144 148Q144 113 171 92T243 71Q281 71 312 88T363 136T382 206L417 160Q408 108 382 70T318 11T231 -9ZM237 556L347 697H452L310 556H237Z" />
<glyph unicode="&#xe2;" horiz-adv-x="542" d="M390 0L382 91V310Q382 362 352 390T265 418Q225 418 189 402T119 350L58 413Q102 459 155 480T272 502Q371 502 425 452T480 310V0H390ZM231 -9Q176 -9 134 11T69 66T46 149Q46 190 63 219T107 265Q132 281 164
287T234 294H391V220H248Q228 220 207 217T170 202Q158 193 151 180T144 148Q144 113 171 92T243 71Q281 71 312 88T363 136T382 206L417 160Q408 108 382 70T318 11T231 -9ZM121 545L274 711L427 545H348L274 627L201 545H121Z" />
<glyph unicode="&#xe3;" horiz-adv-x="542" d="M390 0L382 91V310Q382 362 352 390T265 418Q225 418 189 402T119 350L58 413Q102 459 155 480T272 502Q371 502 425 452T480 310V0H390ZM231 -9Q176 -9 134 11T69 66T46 149Q46 190 63 219T107 265Q132 281 164
287T234 294H391V220H248Q228 220 207 217T170 202Q158 193 151 180T144 148Q144 113 171 92T243 71Q281 71 312 88T363 136T382 206L417 160Q408 108 382 70T318 11T231 -9ZM339 563Q309 563 291 574T260 601T235 627T206 639Q189 639 179 621T168 568H110Q110
631 137 666T211 701Q237 701 255 689T286 662T311 635T340 623Q355 623 366 642T377 697H437Q437 634 411 599T339 563Z" />
<glyph unicode="&#xe4;" horiz-adv-x="542" d="M390 0L382 91V310Q382 362 352 390T265 418Q225 418 189 402T119 350L58 413Q102 459 155 480T272 502Q371 502 425 452T480 310V0H390ZM231 -9Q176 -9 134 11T69 66T46 149Q46 190 63 219T107 265Q132 281 164
287T234 294H391V220H248Q228 220 207 217T170 202Q158 193 151 180T144 148Q144 113 171 92T243 71Q281 71 312 88T363 136T382 206L417 160Q408 108 382 70T318 11T231 -9ZM314 578V697H425V578H314ZM125 578V697H236V578H125Z" />
<glyph unicode="&#xe5;" horiz-adv-x="542" d="M390 0L382 91V310Q382 362 352 390T265 418Q225 418 189 402T119 350L58 413Q102 459 155 480T272 502Q371 502 425 452T480 310V0H390ZM231 -9Q176 -9 134 11T69 66T46 149Q46 190 63 219T107 265Q132 281 164
287T234 294H391V220H248Q228 220 207 217T170 202Q158 193 151 180T144 148Q144 113 171 92T243 71Q281 71 312 88T363 136T382 206L417 160Q408 108 382 70T318 11T231 -9ZM275 533Q245 533 221 547T183 586T168 639Q168 668 182 692T221 731T275 746Q304 746
328 732T366 693T381 639Q381 610 367 586T328 547T275 533ZM275 586Q297 586 312 601T328 640Q328 663 313 677T275 692Q251 692 237 677T222 640Q222 617 237 602T275 586Z" />
<glyph unicode="&#xe6;" horiz-adv-x="864" d="M226 -9Q139 -9 93 35T46 147Q46 190 64 217T110 259T170 280T228 288T270 289H384V310Q384 361 354 389T269 417Q232 417 197 402T132 349L60 409Q109 460 162 481T279 502Q343 502 385 479T445 412Q470 452 509
475T601 499Q660 499 701 481T768 430T806 355T818 266Q818 254 818 241T815 216H474Q478 152 512 116T607 80Q649 80 682 93T743 135L804 73Q772 41 742 23T679 -2T603 -9Q535 -9 489 22T420 109H409Q378 48 333 20T226 -9ZM238 75Q276 75 307 90T359 135T384
212V219H275Q204 219 175 198T146 145Q146 114 170 95T238 75ZM473 287H727Q728 301 722 323T701 366T662 403T602 418Q559 418 531 400T489 351T473 287Z" />
<glyph unicode="&#xe7;" horiz-adv-x="519" d="M277 -9Q221 -9 178 11T105 68T60 150T45 247Q45 297 60 343T104 425T177 481T277 502Q349 502 402 467T481 361L395 328Q382 367 353 392T277 417Q231 417 201 393T157 330T143 247Q143 203 157 164T201 101T277
77Q324 77 353 101T395 166L481 133Q456 61 403 26T277 -9ZM267 -204Q253 -204 236 -201T202 -191T173 -173L203 -134Q217 -144 233 -149T265 -155Q284 -155 298 -147T312 -120Q312 -106 302 -98T274 -85T238 -79T200 -77L263 9H318L275 -43Q315 -49 342 -67T370
-119Q370 -159 340 -181T267 -204Z" />
<glyph unicode="&#xe8;" horiz-adv-x="540" d="M280 -9Q220 -9 176 11T103 66T60 147T45 243Q45 293 59 339T101 422T171 480T272 502Q330 502 372 483T441 429T481 351T495 260Q495 255 495 242T492 216H143Q146 150 183 115T283 79Q325 79 358 92T419 135L479
73Q450 44 420 26T356 0T280 -9ZM398 265Q400 273 400 281T401 297Q401 320 393 342T369 381T330 409T275 420Q234 420 205 402T161 353T142 288H430L398 265ZM237 556L102 697H206L310 556H237Z" />
<glyph unicode="&#xe9;" horiz-adv-x="540" d="M280 -9Q220 -9 176 11T103 66T60 147T45 243Q45 293 59 339T101 422T171 480T272 502Q330 502 372 483T441 429T481 351T495 260Q495 255 495 242T492 216H143Q146 150 183 115T283 79Q325 79 358 92T419 135L479
73Q450 44 420 26T356 0T280 -9ZM398 265Q400 273 400 281T401 297Q401 320 393 342T369 381T330 409T275 420Q234 420 205 402T161 353T142 288H430L398 265ZM236 556L346 697H451L309 556H236Z" />
<glyph unicode="&#xea;" horiz-adv-x="540" d="M280 -9Q220 -9 176 11T103 66T60 147T45 243Q45 293 59 339T101 422T171 480T272 502Q330 502 372 483T441 429T481 351T495 260Q495 255 495 242T492 216H143Q146 150 183 115T283 79Q325 79 358 92T419 135L479
73Q450 44 420 26T356 0T280 -9ZM398 265Q400 273 400 281T401 297Q401 320 393 342T369 381T330 409T275 420Q234 420 205 402T161 353T142 288H430L398 265ZM120 545L273 711L426 545H347L273 627L200 545H120Z" />
<glyph unicode="&#xeb;" horiz-adv-x="540" d="M280 -9Q220 -9 176 11T103 66T60 147T45 243Q45 293 59 339T101 422T171 480T272 502Q330 502 372 483T441 429T481 351T495 260Q495 255 495 242T492 216H143Q146 150 183 115T283 79Q325 79 358 92T419 135L479
73Q450 44 420 26T356 0T280 -9ZM398 265Q400 273 400 281T401 297Q401 320 393 342T369 381T330 409T275 420Q234 420 205 402T161 353T142 288H430L398 265ZM313 578V697H424V578H313ZM124 578V697H235V578H124Z" />
<glyph unicode="&#xec;" horiz-adv-x="232" d="M67 0V493H165V0H67ZM335 556L200 697H304L408 556H335Z" />
<glyph unicode="&#xed;" horiz-adv-x="232" d="M67 0V493H165V0H67ZM79 556L189 697H294L152 556H79Z" />
<glyph unicode="&#xee;" horiz-adv-x="232" d="M67 0V493H165V0H67ZM219 545L372 711L525 545H446L372 627L299 545H219Z" />
<glyph unicode="&#xef;" horiz-adv-x="232" d="M67 0V493H165V0H67ZM411 578V697H522V578H411ZM222 578V697H333V578H222Z" />
<glyph unicode="&#xf0;" horiz-adv-x="613" d="M283 -9Q213 -9 163 20T85 100T58 216Q58 278 79 329T138 418T224 475T329 496Q359 496 385 487T431 461T466 422T488 375Q493 464 467 527T380 624T216 660L223 727Q324 721 391 695T498 623T555 514T572 369Q572
286 553 217T498 97T407 19T283 -9ZM288 76Q342 76 382 101T446 170T473 264Q474 288 468 314T445 364T403 401T339 415Q276 415 234 387T171 313T150 217Q150 172 168 141T218 93T288 76ZM255 537L245 578L585 673L595 632L255 537Z" />
<glyph unicode="&#xf1;" horiz-adv-x="553" d="M68 0V493H167V386L147 380Q160 421 184 447T242 488T315 502Q397 502 443 455T490 316V0H392V280Q392 351 367 384T288 417Q248 417 222 399T181 342T167 243V0H68ZM335 563Q305 563 287 574T256 601T231 627T202
639Q185 639 175 621T164 568H106Q106 631 133 666T207 701Q233 701 251 689T282 662T307 635T336 623Q351 623 362 642T373 697H433Q433 634 407 599T335 563Z" />
<glyph unicode="&#xf2;" horiz-adv-x="575" d="M288 -9Q218 -9 163 24T77 115T45 247Q45 321 76 378T162 469T288 502Q359 502 413 469T498 379T530 247Q530 173 499 116T413 25T288 -9ZM288 78Q332 78 364 99T414 158T432 247Q432 299 415 337T365 395T288 416Q243
416 211 395T161 337T143 247Q143 196 160 158T210 99T288 78ZM251 556L116 697H220L324 556H251Z" />
<glyph unicode="&#xf3;" horiz-adv-x="575" d="M288 -9Q218 -9 163 24T77 115T45 247Q45 321 76 378T162 469T288 502Q359 502 413 469T498 379T530 247Q530 173 499 116T413 25T288 -9ZM288 78Q332 78 364 99T414 158T432 247Q432 299 415 337T365 395T288 416Q243
416 211 395T161 337T143 247Q143 196 160 158T210 99T288 78ZM251 556L361 697H466L324 556H251Z" />
<glyph unicode="&#xf4;" horiz-adv-x="575" d="M288 -9Q218 -9 163 24T77 115T45 247Q45 321 76 378T162 469T288 502Q359 502 413 469T498 379T530 247Q530 173 499 116T413 25T288 -9ZM288 78Q332 78 364 99T414 158T432 247Q432 299 415 337T365 395T288 416Q243
416 211 395T161 337T143 247Q143 196 160 158T210 99T288 78ZM135 545L288 711L441 545H362L288 627L215 545H135Z" />
<glyph unicode="&#xf5;" horiz-adv-x="575" d="M288 -9Q218 -9 163 24T77 115T45 247Q45 321 76 378T162 469T288 502Q359 502 413 469T498 379T530 247Q530 173 499 116T413 25T288 -9ZM288 78Q332 78 364 99T414 158T432 247Q432 299 415 337T365 395T288 416Q243
416 211 395T161 337T143 247Q143 196 160 158T210 99T288 78ZM353 563Q323 563 305 574T274 601T249 627T220 639Q203 639 193 621T182 568H124Q124 631 151 666T225 701Q251 701 269 689T300 662T325 635T354 623Q369 623 380 642T391 697H451Q451 634 425 599T353
563Z" />
<glyph unicode="&#xf6;" horiz-adv-x="575" d="M288 -9Q218 -9 163 24T77 115T45 247Q45 321 76 378T162 469T288 502Q359 502 413 469T498 379T530 247Q530 173 499 116T413 25T288 -9ZM288 78Q332 78 364 99T414 158T432 247Q432 299 415 337T365 395T288 416Q243
416 211 395T161 337T143 247Q143 196 160 158T210 99T288 78ZM327 578V697H438V578H327ZM138 578V697H249V578H138Z" />
<glyph unicode="&#xf7;" horiz-adv-x="560" d="M62 209V286H498V209H62ZM223 25V148H337V25H223ZM223 347V469H337V347H223Z" />
<glyph unicode="&#xf8;" horiz-adv-x="575" d="M288 -9Q218 -9 163 24T77 115T45 247Q45 321 76 378T162 469T288 502Q359 502 413 469T498 379T530 247Q530 173 499 116T413 25T288 -9ZM288 78Q332 78 364 99T414 158T432 247Q432 299 415 337T365 395T288 416Q243
416 211 395T161 337T143 247Q143 196 160 158T210 99T288 78ZM84 210L442 795H491L133 210H84Z" />
<glyph unicode="&#xf9;" horiz-adv-x="553" d="M237 -9Q182 -9 143 13T83 78T62 182V493H160V213Q160 169 171 139T205 93T265 77Q307 77 333 98T373 160T386 264V493H483V0H386V106L406 102Q384 47 339 19T237 -9ZM235 556L100 697H204L308 556H235Z" />
<glyph unicode="&#xfa;" horiz-adv-x="553" d="M237 -9Q182 -9 143 13T83 78T62 182V493H160V213Q160 169 171 139T205 93T265 77Q307 77 333 98T373 160T386 264V493H483V0H386V106L406 102Q384 47 339 19T237 -9ZM235 556L345 697H450L308 556H235Z" />
<glyph unicode="&#xfb;" horiz-adv-x="553" d="M237 -9Q182 -9 143 13T83 78T62 182V493H160V213Q160 169 171 139T205 93T265 77Q307 77 333 98T373 160T386 264V493H483V0H386V106L406 102Q384 47 339 19T237 -9ZM119 545L272 711L425 545H346L272 627L199 545H119Z" />
<glyph unicode="&#xfc;" horiz-adv-x="553" d="M237 -9Q182 -9 143 13T83 78T62 182V493H160V213Q160 169 171 139T205 93T265 77Q307 77 333 98T373 160T386 264V493H483V0H386V106L406 102Q384 47 339 19T237 -9ZM311 578V697H422V578H311ZM122 578V697H233V578H122Z" />
<glyph unicode="&#xfd;" horiz-adv-x="526" d="M114 -203L210 29L20 493H128L262 127L398 493H504L221 -203H114ZM226 556L336 697H441L299 556H226Z" />
<glyph unicode="&#xfe;" horiz-adv-x="622" d="M99 -204V697H197V352L177 374Q190 416 218 444T282 487T358 502Q423 502 468 468T537 376T561 245Q561 166 534 109T462 22T358 -9Q318 -9 281 7T217 51T181 116L197 142V-204H99ZM331 77Q376 77 405 97T449 156T464
246Q464 299 450 337T406 395T333 416Q285 416 253 394T204 333T188 246Q188 199 204 161T253 100T331 77Z" />
<glyph unicode="&#xff;" horiz-adv-x="526" d="M114 -203L210 29L20 493H128L262 127L398 493H504L221 -203H114ZM303 578V697H414V578H303ZM114 578V697H225V578H114Z" />
<glyph unicode="&#x2013;" horiz-adv-x="417" d="M24 264V337H393V264H24Z" />
<glyph unicode="&#x2014;" horiz-adv-x="1058" d="M24 264V337H1034V264H24Z" />
<glyph unicode="&#x2018;" horiz-adv-x="265" d="M32 415L162 697H227L146 415H32Z" />
<glyph unicode="&#x2019;" horiz-adv-x="265" d="M37 416L119 697H232L103 416H37Z" />
<glyph unicode="&#x201a;" horiz-adv-x="287" d="M48 -152L129 130H242L113 -152H48Z" />
<glyph unicode="&#x201c;" horiz-adv-x="445" d="M214 415L341 697H407L327 415H214ZM32 415L161 697H226L145 415H32Z" />
<glyph unicode="&#x201d;" horiz-adv-x="446" d="M219 416L301 697H413L285 416H219ZM37 416L119 697H232L103 416H37Z" />
<glyph unicode="&#x201e;" horiz-adv-x="404" d="M201 -152L282 130H395L267 -152H201ZM12 -152L93 130H206L77 -152H12Z" />
<glyph unicode="&#x2022;" horiz-adv-x="363" d="M66 132V363H297V132H66Z" />
<glyph unicode="&#x2039;" horiz-adv-x="258" d="M239 54L3 253L239 450V346L119 253L239 159V54Z" />
<glyph unicode="&#x203a;" horiz-adv-x="258" d="M18 54V159L138 253L18 346V450L255 253L18 54Z" />
</font>
</defs>
</svg>
