<?xml version="1.0" standalone="no"?>
<!DOCTYPE svg PUBLIC "-//W3C//DTD SVG 1.1//EN" "http://www.w3.org/Graphics/SVG/1.1/DTD/svg11.dtd">
<svg xmlns="http://www.w3.org/2000/svg">
<defs >
<font id="HankenGrotesk" horiz-adv-x="547" ><font-face
    font-family="Hanken Grotesk Black"
    units-per-em="1000"
    panose-1="0 0 0 0 0 0 0 0 0 0"
    ascent="1000"
    descent="-303"
    alphabetic="0" />
<glyph unicode=" " horiz-adv-x="260" />
<glyph unicode="!" horiz-adv-x="260" d="M69 219L119 697H268L183 219H69ZM17 0L37 142H193L173 0H17Z" />
<glyph unicode="&quot;" horiz-adv-x="385" d="M62 407L102 697H228L188 407H62ZM242 407L282 697H409L369 407H242Z" />
<glyph unicode="#" horiz-adv-x="691" d="M70 0L142 200H32L47 306H179L212 400H100L116 511H251L322 697H443L371 506H463L532 697H653L580 506H689L674 400H543L508 306H621L606 200H471L399 0H280L352 200H259L189 0H70ZM300 306H392L423 400H331L300 306Z" />
<glyph unicode="$" horiz-adv-x="560" d="M178 -118L202 55H314L290 -118H178ZM284 636L308 808H420L396 636H284ZM275 -15Q197 -15 137 13T42 92T6 209L162 239Q164 179 197 152T280 124Q310 124 332 133T367 159T380 200Q380 220 371 235T339 264T278 293Q216
319 176 349T116 418T97 503Q97 565 127 613T210 688T331 715Q412 715 472 678T554 576L422 508Q408 543 386 559T331 576Q304 576 288 567T263 543T255 511Q255 494 264 480T296 452T361 421Q419 398 458 370T517 304T538 214Q538 146 505 94T412 14T275 -15Z"
/>
<glyph unicode="%" horiz-adv-x="727" d="M52 0L586 697H695L161 0H52ZM516 -11Q457 -11 418 26T379 129Q379 178 399 220T457 289T543 315Q584 315 614 297T662 246T680 171Q680 122 658 81T599 15T516 -11ZM525 85Q541 85 553 94T574 120T582 159Q582 188 569
203T534 219Q517 219 504 210T484 183T477 144Q477 113 490 99T525 85ZM213 382Q174 382 143 398T94 446T76 522Q76 571 96 613T154 682T240 708Q281 708 311 690T359 639T377 564Q377 516 355 475T296 408T213 382ZM222 478Q238 478 250 487T271 513T279 552Q279
581 266 596T231 612Q214 612 201 603T181 576T174 537Q174 506 187 492T222 478Z" />
<glyph unicode="&amp;" horiz-adv-x="710" d="M248 -13Q186 -13 135 5T55 61T25 153Q25 204 49 244T110 314T188 368T263 410Q317 439 350 462T398 505T413 545Q413 565 400 576T366 588Q350 588 335 581T310 560T300 524Q300 496 315 472T341 434L220 379Q209
391 194 410T168 458T156 522Q156 580 187 621T269 684T378 706Q455 706 503 668T552 558Q552 497 519 450T434 365T328 296Q300 280 274 265T227 235T194 204T182 167Q182 142 204 129T265 115Q327 115 383 147T481 241T545 387L676 357Q633 230 568 148T421 27T248
-13ZM536 -40L278 303L406 376L653 55L536 -40Z" />
<glyph unicode="&apos;" horiz-adv-x="205" d="M62 407L102 697H229L189 407H62Z" />
<glyph unicode="(" horiz-adv-x="332" d="M113 -204Q76 -142 58 -60T40 113Q40 179 51 256T85 414T145 567T234 697H373Q315 634 274 560T207 409T169 257T157 116Q157 56 166 -1T194 -110T242 -204H113Z" />
<glyph unicode=")" horiz-adv-x="332" d="M-42 -204Q39 -118 87 -21T156 174T178 364Q178 433 168 494T139 608T95 697H221Q243 660 258 610T281 502T289 378Q289 277 269 171T205 -33T93 -204H-42Z" />
<glyph unicode="*" horiz-adv-x="400" d="M160 373L92 428L195 519L71 539L110 629L219 570L218 697H310L271 570L394 629L409 539L279 519L358 428L280 373L237 489L160 373Z" />
<glyph unicode="+" horiz-adv-x="560" d="M221 0V188H33V306H221V494H340V306H528V188H340V0H221Z" />
<glyph unicode="," horiz-adv-x="240" d="M-29 -145L66 162H237L70 -145H-29Z" />
<glyph unicode="-" horiz-adv-x="327" d="M38 234L54 346H302L286 234H38Z" />
<glyph unicode="." horiz-adv-x="240" d="M8 0L28 142H182L162 0H8Z" />
<glyph unicode="/" horiz-adv-x="422" d="M-135 -212L357 697H473L-20 -212H-135Z" />
<glyph unicode="0" horiz-adv-x="560" d="M252 -10Q185 -10 142 11T76 69T43 151T34 244Q34 275 36 305T43 362Q49 400 59 446T88 539T139 623T219 685T337 709Q405 709 447 688T514 630T547 549T556 458Q556 427 554 399T547 344Q541 303 531 256T501 161T449
76T369 14T252 -10ZM256 134Q302 134 329 165T372 247T395 358Q399 386 402 412T405 463Q405 508 390 536T333 564Q287 564 260 534T218 452T194 339Q190 311 188 285T185 236Q185 206 191 183T213 147T256 134Z" />
<glyph unicode="1" horiz-adv-x="560" d="M223 0L298 544L331 471H114L130 590H225Q265 590 288 609T317 669L321 697H472L374 0H223Z" />
<glyph unicode="2" horiz-adv-x="560" d="M1 0L14 113Q48 129 88 153T171 207T251 271T319 344T367 421T385 500Q385 526 371 542T324 559Q284 559 259 538T220 486T200 428L55 448Q61 494 83 539T140 622T224 682T332 705Q393 705 438 681T509 612T535 507Q535
457 520 411T477 324T412 246T329 178T235 120T134 74L179 140H513L493 0H1Z" />
<glyph unicode="3" horiz-adv-x="560" d="M244 -10Q171 -10 117 16T32 88T2 195Q2 204 3 213T5 231L154 232Q154 229 154 227T154 223Q154 177 181 156T256 134Q297 134 327 146T373 180T389 231Q389 252 382 266T359 288T317 300T254 304L262 422Q300 422 328
431T371 458T387 504Q387 530 371 546T321 563Q295 563 273 553T237 523T219 479L73 497Q81 558 117 605T210 680T333 707Q397 707 442 683T513 616T538 521Q538 486 526 455T485 399T409 360V391Q450 382 479 362T523 311T538 237Q538 167 500 111T395 23T244
-10Z" />
<glyph unicode="4" horiz-adv-x="560" d="M260 0L283 163H-9L6 278L378 697H509L454 303H564L544 163H434L411 0H260ZM134 271L127 303H308L343 565L353 531L134 271Z" />
<glyph unicode="5" horiz-adv-x="560" d="M251 -11Q178 -11 124 18T40 98T10 210L160 227Q159 186 187 160T262 133Q290 133 312 143T349 169T373 208T381 254Q381 301 355 323T289 346Q252 346 226 329T182 288L45 326L167 697H572L552 557H203L293 620L224 411H167Q205
450 250 468T340 487Q393 487 438 463T512 393T540 279Q540 224 520 173T462 80T371 14T251 -11Z" />
<glyph unicode="6" horiz-adv-x="560" d="M502 697L300 448L277 473Q291 475 304 476T327 477Q392 477 441 450T517 376T545 267Q545 209 522 158T458 70T365 11T253 -11Q185 -11 131 16T45 94T13 209Q13 251 28 294T71 375L325 697H502ZM303 344Q273 344 248
334T205 305T177 263T167 212Q167 187 178 169T210 142T257 133Q287 133 312 143T355 172T383 213T393 263Q393 289 382 307T350 334T303 344Z" />
<glyph unicode="7" horiz-adv-x="560" d="M39 0L432 617L468 557H72L91 697H596L583 589L210 0H39Z" />
<glyph unicode="8" horiz-adv-x="560" d="M255 -11Q185 -11 128 13T37 84T3 197Q3 229 12 262T46 326T112 384Q99 398 87 424T75 487Q75 552 112 601T209 679T338 708Q397 708 446 686T525 622T555 519Q555 493 548 468T526 419T485 374Q515 350 531 316T548 234Q548
161 509 106T403 20T255 -11ZM264 129Q304 129 334 143T382 181T400 237Q400 276 372 297T292 319Q252 319 221 306T173 270T155 215Q155 189 167 170T204 140T264 129ZM304 425Q333 425 356 436T392 467T406 508Q406 536 385 554T325 572Q297 572 274 562T238
533T224 491Q224 463 245 444T304 425Z" />
<glyph unicode="9" horiz-adv-x="560" d="M87 0L289 249L312 224Q298 222 285 221T262 220Q198 220 149 247T72 321T44 430Q44 489 67 539T131 627T224 686T336 708Q405 708 459 681T544 604T576 488Q576 446 561 403T518 322L264 0H87ZM286 353Q316 353 341 363T384
392T412 434T422 485Q422 511 411 528T379 555T332 564Q302 564 277 554T234 525T206 484T196 434Q196 408 207 390T239 363T286 353Z" />
<glyph unicode=":" horiz-adv-x="240" d="M53 327L74 471H230L209 327H53ZM7 0L27 142H183L163 0H7Z" />
<glyph unicode=";" horiz-adv-x="240" d="M-51 -145L41 131H212L51 -145H-51ZM68 327L88 471H245L225 327H68Z" />
<glyph unicode="&lt;" horiz-adv-x="560" d="M536 -30L31 164V331L536 523V396L66 224V271L536 98V-30Z" />
<glyph unicode="=" horiz-adv-x="560" d="M67 308V427H493V308H67ZM67 67V185H493V67H67Z" />
<glyph unicode="&gt;" horiz-adv-x="560" d="M24 -30V98L494 271V224L24 396V523L529 331V164L24 -30Z" />
<glyph unicode="?" horiz-adv-x="514" d="M186 217L190 247Q197 299 216 332T261 389T312 431Q332 446 349 459T378 489T389 528Q389 551 370 567T316 583Q261 583 230 555T191 473L59 481Q75 592 144 650T316 708Q370 708 416 689T491 631T520 532Q520 486 506
453T466 394T401 340Q366 315 344 291T314 228L312 217H186ZM143 0L163 142H318L298 0H143Z" />
<glyph unicode="@" horiz-adv-x="873" d="M395 -115Q292 -115 213 -71T88 49T43 222Q43 311 76 392T170 536T312 637T490 674Q596 674 675 633T798 518T842 347Q842 299 832 252T799 168T739 108T648 85Q607 85 575 99T524 136T505 188Q505 190 505 193T506 198L508
219L537 168Q515 126 473 104T379 82Q305 82 261 126T216 244Q216 301 240 350T309 431T416 462Q460 462 490 444T540 387L520 405L546 455H660L632 255Q631 247 631 241T630 228Q630 212 636 206T659 199Q679 199 693 216T716 260T730 310T735 348Q735 414 706
462T622 537T492 564Q417 564 355 536T247 459T177 350T152 223Q152 157 183 106T268 24T395 -6Q442 -6 486 7T571 46L616 -54Q564 -85 507 -100T395 -115ZM411 199Q441 199 460 213T490 250T500 292Q500 317 487 331T448 345Q419 345 399 330T368 293T358 250Q358
226 372 213T411 199Z" />
<glyph unicode="A" horiz-adv-x="698" d="M-34 0L354 697H469L660 0H492L383 463L140 0H-34ZM191 118L259 258H440L472 118H191Z" />
<glyph unicode="B" horiz-adv-x="618" d="M24 0L122 697H378Q476 697 531 655T587 539Q587 488 565 446T498 375Q539 356 560 322T582 237Q582 164 550 111T460 29T325 0H24ZM202 144H325Q375 144 401 166T427 231Q427 257 409 273T353 289H222L202 144ZM242 429H341Q365
429 385 437T416 461T428 503Q428 526 413 539T366 553H259L242 429Z" />
<glyph unicode="C" horiz-adv-x="714" d="M344 -18Q266 -18 210 7T116 77T60 177T42 295Q42 370 67 444T143 579T265 678T431 715Q549 715 625 656T724 495L572 450Q560 506 518 535T416 565Q362 565 321 543T252 483T210 401T196 308Q196 228 237 180T358 132Q423
132 468 165T542 255L684 194Q635 94 546 38T344 -18Z" />
<glyph unicode="D" horiz-adv-x="668" d="M24 0L122 697H328Q484 697 568 622T653 406Q653 318 628 244T552 115T423 30T237 0H24ZM202 144H234Q321 144 373 168T453 233T489 319T498 409Q498 467 476 498T412 541T313 553H259L202 144Z" />
<glyph unicode="E" horiz-adv-x="573" d="M24 0L122 697H590L571 557H260L242 429H538L518 289H222L201 140H512L492 0H24Z" />
<glyph unicode="F" horiz-adv-x="553" d="M24 0L122 697H594L575 557H260L242 429H516L496 289H222L181 0H24Z" />
<glyph unicode="G" horiz-adv-x="738" d="M333 -18Q246 -18 181 20T79 127T42 290Q42 374 69 450T147 586T269 680T430 715Q548 715 624 656T723 495L571 450Q559 506 522 535T425 565Q371 565 329 543T258 482T213 395T198 293Q198 217 238 175T348 132Q380 132
414 141T478 172T531 232T561 328L565 357L584 247H383L402 387H709L655 0H518L508 98L534 72Q511 43 480 23T413 -8T333 -18Z" />
<glyph unicode="H" horiz-adv-x="703" d="M24 0L122 697H279L242 432H513L550 697H707L609 0H452L493 288H222L181 0H24Z" />
<glyph unicode="I" horiz-adv-x="275" d="M24 0L122 697H279L181 0H24Z" />
<glyph unicode="J" horiz-adv-x="558" d="M231 -18Q130 -18 72 40T13 201L169 207Q169 162 190 145T248 127Q299 127 319 161T347 251L390 557H139L158 697H567L502 234Q491 156 454 100T360 13T231 -18Z" />
<glyph unicode="K" horiz-adv-x="682" d="M180 202L205 400L526 697H740L180 202ZM24 0L122 697H279L181 0H24ZM458 0L294 335L423 444L641 0H458Z" />
<glyph unicode="L" horiz-adv-x="510" d="M24 0L122 697H279L201 140H487L467 0H24Z" />
<glyph unicode="M" horiz-adv-x="868" d="M24 0L122 697H350L443 221H415L642 697H872L774 0H617L689 513L705 510L485 63H333L239 510L253 513L181 0H24Z" />
<glyph unicode="N" horiz-adv-x="698" d="M24 0L122 697H281L516 206H476L545 697H702L604 0H445L212 492H251L181 0H24Z" />
<glyph unicode="O" horiz-adv-x="748" d="M343 -18Q251 -18 184 20T79 128T42 294Q42 376 69 451T147 586T270 680T432 715Q524 715 591 677T696 569T733 402Q733 320 706 245T627 110T504 17T343 -18ZM356 132Q407 132 447 152T516 209T560 290T575 387Q575 468
535 516T418 565Q366 565 325 544T256 485T213 402T198 308Q198 254 216 215T270 154T356 132Z" />
<glyph unicode="P" horiz-adv-x="567" d="M24 0L122 697H353Q461 697 521 655T582 526Q582 447 551 392T459 309T313 280H220L180 0H24ZM239 420H308Q367 420 396 438T425 501Q425 534 400 545T336 557H259L239 420Z" />
<glyph unicode="Q" horiz-adv-x="790" d="M343 -18Q251 -18 184 20T79 128T42 294Q42 376 69 451T147 586T270 680T432 715Q524 715 591 677T696 569T733 402Q733 320 706 245T627 110T504 17T343 -18ZM626 -62L369 221L477 308L727 24L626 -62ZM356 132Q407 132
447 152T516 209T560 290T575 387Q575 468 535 516T418 565Q366 565 325 544T256 485T213 402T198 308Q198 227 239 180T356 132Z" />
<glyph unicode="R" horiz-adv-x="621" d="M24 0L122 697H353Q461 697 521 655T582 526Q582 458 558 406T486 322T363 280Q350 280 337 280T310 280H220L180 0H24ZM402 0L267 294L428 313L576 0H402ZM239 417H308Q367 417 396 436T425 499Q425 532 401 544T336
557H259L239 417Z" />
<glyph unicode="S" horiz-adv-x="583" d="M285 -15Q207 -15 147 13T52 92T16 209L172 239Q174 179 207 152T290 124Q320 124 342 133T377 159T390 200Q390 220 381 235T349 264T288 293Q226 319 186 349T126 418T107 503Q107 565 137 613T220 688T341 715Q422
715 482 678T564 576L432 508Q418 543 396 559T341 576Q314 576 298 567T273 543T265 511Q265 494 274 480T306 452T371 421Q429 398 468 370T527 304T548 214Q548 146 515 94T422 14T285 -15Z" />
<glyph unicode="T" horiz-adv-x="582" d="M177 0L255 557H51L71 697H637L617 557H414L336 0H177Z" />
<glyph unicode="U" horiz-adv-x="658" d="M300 -18Q176 -18 113 36T50 197Q50 210 51 225T54 256L116 697H273L213 266Q211 249 210 235T208 207Q208 165 228 146T304 126Q356 126 386 143T431 192T452 272L511 697H668L606 253Q587 114 511 48T300 -18Z" />
<glyph unicode="V" horiz-adv-x="682" d="M251 0L68 697H238L359 193H308L567 697H744L366 0H251Z" />
<glyph unicode="W" horiz-adv-x="994" d="M186 0L71 697H233L302 242L476 655H630L686 242L885 697H1051L740 0H589L516 468H542L337 0H186Z" />
<glyph unicode="X" horiz-adv-x="689" d="M-28 0L249 346L72 697H257L371 455L555 697H745L466 346L644 0H459L345 233L163 0H-28Z" />
<glyph unicode="Y" horiz-adv-x="640" d="M208 0L248 275L63 697H239L340 431L524 697H705L405 275L365 0H208Z" />
<glyph unicode="Z" horiz-adv-x="621" d="M-10 0L6 127L469 607L488 557H91L111 697H644L627 569L181 108L162 140H580L560 0H-10Z" />
<glyph unicode="[" horiz-adv-x="318" d="M-1 -249L139 742H368L354 642H247L135 -149H242L228 -249H-1Z" />
<glyph unicode="\" horiz-adv-x="479" d="M614 -212H499L6 697H122L614 -212Z" />
<glyph unicode="]" horiz-adv-x="319" d="M-50 -249L-35 -149H72L187 642H79L94 742H321L177 -249H-50Z" />
<glyph unicode="^" horiz-adv-x="677" d="M22 197L305 697H495L639 197H482L371 626H415L184 197H22Z" />
<glyph unicode="_" horiz-adv-x="551" d="M9 -114L25 0H456L440 -114H9Z" />
<glyph unicode="`" horiz-adv-x="301" d="M206 554L93 697H247L311 554H206Z" />
<glyph unicode="a" horiz-adv-x="570" d="M208 -11Q151 -11 112 15T52 89T32 199Q32 257 49 311T99 409T175 478T274 504Q311 504 343 488T393 437T407 343L384 369L411 493H550L481 0H341L347 122L383 148Q361 79 331 45T268 0T208 -11ZM258 127Q290 127 313
141T352 178T375 228T383 283Q383 310 375 328T350 356T308 366Q276 366 253 352T214 315T191 265T183 210Q183 184 191 165T217 137T258 127Z" />
<glyph unicode="b" horiz-adv-x="570" d="M306 -11Q274 -11 242 2T187 51T160 156L185 122L159 0H19L117 697H267L222 369L191 351Q208 410 235 443T296 490T362 504Q413 504 452 480T515 410T538 296Q538 240 523 186T479 87T407 16T306 -11ZM271 127Q297 127
318 137T354 165T378 210T386 271Q386 302 377 323T349 355T303 366Q277 366 256 356T220 328T196 283T188 223Q188 193 197 172T226 139T271 127Z" />
<glyph unicode="c" horiz-adv-x="526" d="M261 -11Q180 -11 129 20T54 102T30 211Q30 268 49 320T104 414T192 480T308 504Q389 504 442 465T513 350L378 306Q372 337 356 355T305 373Q274 373 250 359T211 320T187 267T179 210Q179 186 188 166T216 133T263 120Q304
120 325 141T360 195L485 135Q447 59 388 24T261 -11Z" />
<glyph unicode="d" horiz-adv-x="570" d="M208 -11Q151 -11 112 15T52 89T32 199Q32 257 49 311T99 409T175 478T274 504Q311 504 343 488T393 437T407 343L384 369L429 697H579L481 0H341L347 122L383 148Q361 79 331 45T268 0T208 -11ZM267 127Q293 127 314
137T350 165T374 210T382 270Q382 301 373 322T345 354T299 366Q273 366 252 356T216 328T192 283T184 223Q184 192 193 171T222 138T267 127Z" />
<glyph unicode="e" horiz-adv-x="544" d="M255 -11Q173 -11 124 19T52 99T30 206Q30 261 47 314T99 410T185 478T304 504Q374 504 420 477T489 401T513 288Q513 260 510 238T500 190H175Q175 185 175 181T177 171Q184 143 209 131T267 118Q299 118 333 128T399
154L462 51Q422 26 370 8T255 -11ZM371 273Q374 283 375 293T377 312Q377 331 370 347T347 373T303 384Q269 384 246 370T209 337T190 301H422L371 273Z" />
<glyph unicode="f" horiz-adv-x="357" d="M56 0L109 376H28L45 493H127L134 541Q144 607 169 643T231 694T313 708Q349 708 372 701T418 684L360 573Q352 578 344 580T328 583Q307 583 296 568T282 532L277 493H375L358 376H260L207 0H56Z" />
<glyph unicode="g" horiz-adv-x="571" d="M216 -215Q154 -215 112 -199T44 -158T-1 -107L124 -22Q137 -44 157 -65T217 -86Q240 -86 265 -78T309 -47T334 19L345 108L365 89Q332 40 296 25T214 9Q157 9 117 36T55 110T34 216Q34 269 51 320T101 412T178 479T277
504Q333 504 365 481T405 418L389 402L411 493H551L483 11Q472 -68 436 -118T343 -191T216 -215ZM275 142Q301 142 321 152T354 181T375 223T382 275Q382 303 373 323T346 354T300 366Q275 366 254 357T218 330T195 288T187 235Q187 208 197 187T228 154T275 142Z"
/>
<glyph unicode="h" horiz-adv-x="576" d="M19 0L117 697H268L223 377L203 381Q222 431 250 457T311 494T373 504Q453 504 496 464T540 355Q540 348 540 340T538 324L492 0H341L380 276Q382 287 382 295T383 311Q383 344 369 358T324 373Q273 373 243 337T202 226L170
0H19Z" />
<glyph unicode="i" horiz-adv-x="258" d="M18 0L87 493H238L169 0H18ZM96 561L115 697H269L250 561H96Z" />
<glyph unicode="j" horiz-adv-x="258" d="M14 -215Q-11 -215 -36 -210T-84 -198L-74 -70Q-63 -72 -53 -73T-38 -74Q-17 -74 -4 -66T14 -32L87 493H238L157 -82Q147 -152 109 -183T14 -215ZM96 561L115 697H269L250 561H96Z" />
<glyph unicode="k" horiz-adv-x="578" d="M362 0L256 208L179 131L203 318L380 493H584L367 305L529 0H362ZM19 0L117 697H268L170 0H19Z" />
<glyph unicode="l" horiz-adv-x="290" d="M151 -11Q100 -11 67 16T33 100Q33 107 33 114T35 129L114 697H264L193 179Q192 169 191 162T190 151Q190 136 198 131T217 126Q225 126 234 127T250 130L232 3Q207 -6 186 -8T151 -11Z" />
<glyph unicode="m" horiz-adv-x="852" d="M19 0L89 493H230L223 364L183 333Q202 407 234 443T303 492T368 504Q404 504 439 490T500 440T527 337L430 303Q457 386 494 429T571 488T647 504Q707 504 744 481T798 421T815 343Q815 336 815 329T813 314L769 0H618L658
285Q660 293 660 300T660 314Q660 346 647 359T609 373Q566 373 539 339T502 235L469 0H319L359 285Q361 296 361 302T362 316Q362 339 353 356T314 373Q268 373 241 338T203 235L170 0H19Z" />
<glyph unicode="n" horiz-adv-x="576" d="M19 0L89 493H230L223 377L203 381Q222 431 250 457T311 494T373 504Q453 504 496 464T540 355Q540 348 540 340T538 324L492 0H341L380 276Q382 287 382 295T383 311Q383 344 369 358T324 373Q273 373 243 337T202 226L170
0H19Z" />
<glyph unicode="o" horiz-adv-x="569" d="M254 -11Q187 -11 137 17T58 97T29 216Q29 275 50 327T110 419T201 481T314 504Q382 504 432 476T511 397T539 279Q539 220 517 168T457 75T366 12T254 -11ZM268 121Q297 121 319 134T357 168T381 216T389 268Q389 309
369 340T301 372Q271 372 248 360T210 326T187 279T179 227Q179 186 200 154T268 121Z" />
<glyph unicode="p" horiz-adv-x="570" d="M-9 -204L89 493H229L223 371L186 345Q209 415 239 448T301 493T362 504Q420 504 459 478T518 404T538 294Q538 236 522 182T476 84T403 15T306 -11Q270 -11 238 5T185 56T163 150L186 124L141 -204H-9ZM271 127Q297 127
318 137T354 165T378 210T386 270Q386 301 377 322T349 355T303 366Q277 366 256 356T220 328T196 283T188 223Q188 193 197 172T226 139T271 127Z" />
<glyph unicode="q" horiz-adv-x="570" d="M303 -204L348 124L379 142Q363 84 335 51T274 3T208 -11Q158 -11 118 13T55 83T32 197Q32 253 47 307T91 406T163 477T264 504Q296 504 328 491T384 443T410 337L385 371L411 493H551L453 -204H303ZM267 127Q293 127
314 137T350 165T374 210T382 270Q382 301 373 322T345 354T299 366Q273 366 252 356T216 328T192 283T184 222Q184 192 193 171T222 138T267 127Z" />
<glyph unicode="r" horiz-adv-x="439" d="M19 0L89 493H231L222 358L204 362Q211 404 235 436T292 486T358 504Q387 504 410 496T458 470L373 338Q364 345 348 349T316 354Q277 354 253 332T217 273T198 195L170 0H19Z" />
<glyph unicode="s" horiz-adv-x="478" d="M213 -11Q154 -11 112 6T42 47T-2 89L105 171Q126 140 157 122T220 104Q243 104 257 109T278 124T285 143Q285 156 276 164T251 179T217 190Q194 197 167 207T114 233T72 275T56 340Q56 388 82 425T155 483T263 504Q329
504 376 479T448 411L347 344Q332 367 309 377T260 388Q238 388 219 380T200 355Q200 343 214 336T263 319Q304 309 343 293T409 247T435 166Q435 114 407 74T330 12T213 -11Z" />
<glyph unicode="t" horiz-adv-x="382" d="M229 -11Q189 -11 155 2T99 46T77 126Q77 136 78 147T82 181L140 596L304 677L237 196Q236 186 235 174T233 151Q233 132 242 122T274 112Q288 112 301 115T330 122L313 2Q291 -5 270 -8T229 -11ZM28 376L45 493H382L366 376H28Z" />
<glyph unicode="u" horiz-adv-x="576" d="M204 -11Q116 -11 77 34T37 149Q37 160 38 170T40 192L82 493H233L194 215Q193 205 192 195T191 178Q191 153 203 137T253 120Q300 120 325 149T362 227T382 334L404 493H555L486 0H346L349 108L364 87Q332 29 290 9T204 -11Z" />
<glyph unicode="v" horiz-adv-x="544" d="M178 0L46 493H209L263 197L405 493H570L301 0H178Z" />
<glyph unicode="w" horiz-adv-x="759" d="M135 0L48 493H206L240 232L348 493H475L509 234L618 493H781L555 0H422L385 278L270 0H135Z" />
<glyph unicode="x" horiz-adv-x="556" d="M-21 0L177 249L51 493H223L289 346L394 493H577L377 249L505 0H334L268 151L161 0H-21Z" />
<glyph unicode="y" horiz-adv-x="544" d="M23 -204L164 47L46 493H209L263 197L405 493H570L189 -204H23Z" />
<glyph unicode="z" horiz-adv-x="470" d="M-2 0L11 98L301 409L311 367H59L77 493H468L454 388L169 76L159 126H417L399 0H-2Z" />
<glyph unicode="{" horiz-adv-x="309" d="M134 -249Q88 -249 62 -217T36 -132Q36 -125 37 -116T39 -97L69 117Q70 122 70 128T71 139Q71 176 53 186T17 198L22 295Q35 296 53 304T87 331T107 384L137 598Q147 666 179 704T265 742H361L348 647H312Q291 647 279
630T263 587L233 373Q226 318 202 292T137 247V242Q163 226 181 204T199 140Q199 133 199 127T197 112L166 -102Q165 -109 165 -114T164 -125Q164 -137 169 -145T191 -154H235L222 -249H134Z" />
<glyph unicode="|" horiz-adv-x="280" d="M14 -254L154 746H266L126 -254H14Z" />
<glyph unicode="}" horiz-adv-x="309" d="M-54 -249L-40 -154H-5Q19 -154 31 -137T47 -93L77 121Q82 152 89 173T115 212T170 246V251Q137 271 126 295T114 347Q114 354 115 363T117 382L147 596Q148 601 148 606T148 618Q148 632 143 639T120 647H77L91 742H178Q208
742 229 728T260 689T271 628Q271 620 271 610T268 589L238 375Q237 372 237 368T237 359Q237 336 249 317T292 295L286 198Q265 197 246 184T215 150T199 108L168 -106Q164 -137 151 -170T112 -226T41 -249H-54Z" />
<glyph unicode="~" horiz-adv-x="560" d="M368 141Q329 141 306 151T268 178T243 210T222 236T192 247Q178 247 171 226T163 173H43Q43 253 83 303T192 353Q232 353 256 342T295 316T320 284T341 257T368 246Q382 246 391 271T400 331H519Q519 248 478 195T368 141Z" />
<glyph unicode="&#xa0;" horiz-adv-x="260" />
<glyph unicode="&#xa1;" horiz-adv-x="260" d="M191 274L141 -204H-8L77 274H191ZM243 493L223 351H67L87 493H243Z" />
<glyph unicode="&#xa2;" horiz-adv-x="560" d="M178 -113L203 60H315L290 -113H178ZM255 429L279 601H391L367 429H255ZM279 -11Q198 -11 147 20T72 102T48 211Q48 268 67 320T122 414T210 480T326 504Q407 504 460 465T531 350L396 306Q390 337 374 355T323 373Q292
373 268 359T229 320T205 267T197 210Q197 186 206 166T234 133T281 120Q322 120 343 141T378 195L503 135Q465 59 406 24T279 -11Z" />
<glyph unicode="&#xa3;" horiz-adv-x="560" d="M1 0L19 125Q68 149 96 170T139 211T156 256Q157 261 157 272T157 292H51L64 392H148Q147 412 146 431T145 468Q145 546 175 602T257 687T377 717Q465 717 519 673T586 561L466 521Q457 559 432 575T378 591Q336
591 312 574T278 528T268 468Q268 452 269 435T271 392H484L471 292H278Q278 279 278 263T275 231Q272 212 266 195T249 162T223 135T185 115V126H515L497 0H1Z" />
<glyph unicode="&#xa4;" horiz-adv-x="609" d="M102 51L32 134L96 191Q87 213 82 237T77 286Q77 326 90 365T128 437L82 485L171 569L217 514Q249 532 281 540T342 548Q377 548 407 539T461 512L525 568L598 488L534 430Q544 408 549 384T555 332Q555 294 542
255T502 182L548 134L459 51L412 104Q382 87 351 80T290 72Q254 72 223 81T166 108L102 51ZM299 185Q333 185 359 197T402 229T429 275T438 325Q438 354 426 379T391 419T330 435Q297 435 272 423T230 389T203 343T194 293Q194 265 205 240T240 200T299 185Z" />
<glyph unicode="&#xa5;" horiz-adv-x="560" d="M170 0L184 100H37L54 222H201L208 269H61L78 391H159L65 697H232L302 421L457 697H627L449 391H525L508 269H365L358 222H501L484 100H341L327 0H170Z" />
<glyph unicode="&#xa6;" horiz-adv-x="280" d="M96 330L154 746H266L208 330H96ZM14 -254L71 155H183L126 -254H14Z" />
<glyph unicode="&#xa7;" horiz-adv-x="626" d="M258 -227Q212 -227 168 -213T90 -169T37 -95L175 -23Q186 -54 213 -70T267 -87Q288 -87 303 -78T328 -55T337 -23Q337 -3 324 10T289 34T237 56Q206 68 174 82T115 117T70 171T53 253Q53 302 73 347T138 430Q134
441 132 455T129 487Q129 553 162 602T251 680T377 708Q451 708 506 674T587 577L449 505Q441 533 419 551T364 569Q344 569 327 562T299 541T288 508Q288 487 302 472T340 446T394 421Q424 409 455 394T512 358T555 306T572 230Q572 179 550 133T488 52Q492 37
493 23T495 -5Q495 -67 465 -117T382 -197T258 -227ZM399 148Q411 159 418 171T426 200Q426 219 416 230T387 251T338 271Q319 279 288 292T226 324Q213 314 206 300T199 270Q199 246 214 231T253 205T307 185Q337 175 351 170T370 163T381 157T399 148Z" />
<glyph unicode="&#xa8;" horiz-adv-x="442" d="M278 561L297 697H452L433 561H278ZM74 561L93 697H248L229 561H74Z" />
<glyph unicode="&#xa9;" horiz-adv-x="789" d="M395 -5Q322 -5 258 22T145 98T69 211T41 349Q41 422 68 486T144 598T257 674T395 702Q468 702 532 675T644 599T720 486T748 349Q748 276 721 212T645 99T532 23T395 -5ZM397 148Q330 148 288 177T225 253T204 347Q204
398 224 444T288 519T396 548Q457 548 502 519T570 429L453 384Q449 404 435 420T396 436Q371 436 356 423T335 389T328 347Q328 326 334 306T356 274T396 261Q419 261 434 275T454 311L565 268Q546 213 502 181T397 148ZM395 65Q454 65 505 87T595 148T656 238T678
349Q678 408 656 459T595 549T505 610T395 632Q336 632 285 610T194 550T133 460T111 349Q111 290 133 239T194 148T284 87T395 65Z" />
<glyph unicode="&#xaa;" horiz-adv-x="456" d="M189 350Q135 350 98 380T61 463Q61 519 100 544T195 570H289Q289 578 288 584T285 596Q278 612 264 621T225 630Q190 630 170 614T138 580L71 625Q103 670 139 689T222 708Q293 708 332 669T372 567V359H295L293
390Q249 350 189 350ZM209 429Q231 429 247 435T273 454Q280 463 283 473T289 493H201Q178 493 166 484T154 461Q154 448 167 439T209 429Z" />
<glyph unicode="&#xab;" horiz-adv-x="589" d="M526 32L285 252L585 472L565 312L462 252L546 192L526 32ZM243 32L2 252L302 472L282 312L179 252L263 192L243 32Z" />
<glyph unicode="&#xac;" horiz-adv-x="560" d="M374 26V188H27V306H493V26H374Z" />
<glyph unicode="&#xad;" horiz-adv-x="327" d="M38 234L54 346H302L286 234H38Z" />
<glyph unicode="&#xae;" horiz-adv-x="600" d="M300 188Q229 188 170 219T75 309T40 448Q40 528 75 586T169 676T300 708Q372 708 431 676T525 586T560 448Q560 368 525 310T431 220T300 188ZM300 255Q354 255 397 278T467 344T493 448Q493 509 467 552T398 618T300
641Q246 641 203 618T133 552T107 448Q107 388 133 345T202 278T300 255ZM214 305V592H315Q369 592 391 569T414 507Q414 477 402 458T365 428L421 305H352L304 420H278V305H214ZM279 477H308Q324 477 337 482T350 507Q350 527 337 531T308 535H279V477Z" />
<glyph unicode="&#xaf;" horiz-adv-x="355" d="M72 546L97 633H376L351 546H72Z" />
<glyph unicode="&#xb0;" horiz-adv-x="424" d="M243 417Q205 417 175 434T128 482T110 550Q110 592 132 628T190 686T268 708Q307 708 337 691T385 643T403 575Q403 533 381 497T322 439T243 417ZM252 515Q266 515 278 522T297 541T304 567Q304 585 292 597T260
610Q247 610 235 603T216 584T209 558Q209 540 221 528T252 515Z" />
<glyph unicode="&#xb1;" horiz-adv-x="560" d="M221 135V283H34V401H221V547H340V401H526V283H340V135H221ZM34 -57V62H526V-57H34Z" />
<glyph unicode="&#xb2;" horiz-adv-x="360" d="M67 488L74 556Q95 566 119 580T169 612T216 651T257 694T286 740T297 788Q297 803 289 813T260 823Q236 823 221 811T198 780T186 745L99 757Q103 784 116 811T150 861T201 897T265 911Q302 911 329 897T371 856T387
792Q387 762 378 735T352 682T313 635T264 594T207 560T146 532L173 572H374L362 488H67Z" />
<glyph unicode="&#xb3;" horiz-adv-x="345" d="M203 482Q159 482 127 497T76 540T58 605Q58 610 58 615T60 627H149Q149 625 149 624T149 622Q149 594 165 581T211 568Q235 568 253 575T280 596T290 627Q290 639 286 647T273 661T248 668T209 670L214 741Q237
741 253 746T279 763T289 790Q289 806 280 816T250 826Q234 826 221 820T200 802T188 775L101 786Q106 823 127 851T183 896T257 912Q295 912 322 898T365 858T380 801Q380 779 373 761T348 728T302 704V723Q327 717 344 705T371 675T380 630Q380 588 357 555T294
502T203 482Z" />
<glyph unicode="&#xb4;" horiz-adv-x="364" d="M73 554L200 697H359L180 554H73Z" />
<glyph unicode="&#xb5;" horiz-adv-x="576" d="M-9 -157L82 493H233L194 215Q193 205 192 195T191 178Q191 153 203 137T253 120Q300 120 325 149T362 227T382 334L404 493H555L486 0H355L358 114L380 91Q344 33 298 11T204 -11Q192 -11 184 -11T167 -9L142 -157H-9Z" />
<glyph unicode="&#xb6;" horiz-adv-x="643" d="M217 -121L282 307Q229 307 183 328T108 388T80 482Q80 533 101 573T157 640T237 682T328 697H415L300 -121H217ZM409 -121L524 697H609L494 -121H409Z" />
<glyph unicode="&#xb7;" horiz-adv-x="290" d="M80 278L100 420H240L220 278H80Z" />
<glyph unicode="&#xb8;" horiz-adv-x="268" d="M56 -260Q44 -260 20 -256T-26 -237L21 -164Q31 -169 40 -172T58 -175Q72 -175 81 -167T91 -143Q91 -127 82 -118T58 -104T23 -98T-18 -97L55 13L145 12L97 -40Q123 -45 141 -58T170 -92T180 -139Q180 -191 145 -225T56
-260Z" />
<glyph unicode="&#xb9;" horiz-adv-x="429" d="M222 488L267 814L287 771H156L166 842H223Q247 842 261 854T278 889L281 906H371L312 488H222Z" />
<glyph unicode="&#xba;" horiz-adv-x="477" d="M238 350Q184 350 144 374T82 440T59 529Q59 578 81 618T144 683T238 708Q291 708 331 684T394 619T417 529Q417 480 395 440T332 375T238 350ZM238 432Q270 432 287 445T312 481T320 529Q320 556 313 578T288 613T239
626Q207 626 189 613T164 578T156 529Q156 503 163 481T188 446T238 432Z" />
<glyph unicode="&#xbb;" horiz-adv-x="454" d="M-73 32L-93 192L-9 252L-112 312L-132 472L168 252L-73 32ZM210 32L190 192L274 252L171 312L151 472L451 252L210 32Z" />
<glyph unicode="&#xbc;" horiz-adv-x="843" d="M98 279L143 605L163 562H32L42 633H99Q123 633 137 645T154 680L157 697H247L188 279H98ZM60 0L594 697H703L169 0H60ZM651 0L665 98H490L499 167L722 418H800L767 182H833L821 98H755L742 0H651ZM575 163L571 182H680L701
339L707 319L575 163Z" />
<glyph unicode="&#xbd;" horiz-adv-x="823" d="M98 279L143 605L163 562H32L42 633H99Q123 633 137 645T154 680L157 697H247L188 279H98ZM60 0L594 697H703L169 0H60ZM487 0L494 68Q515 78 539 92T589 124T636 163T677 206T706 252T717 300Q717 315 709 325T680
335Q656 335 641 323T618 292T606 257L519 269Q523 296 536 323T570 373T621 409T685 423Q722 423 749 409T791 368T807 304Q807 274 798 247T772 194T733 147T684 106T627 72T566 44L593 84H794L782 0H487Z" />
<glyph unicode="&#xbe;" horiz-adv-x="943" d="M156 273Q112 273 80 288T29 331T11 396Q11 401 11 406T13 418H102Q102 416 102 415T102 413Q102 385 118 372T164 359Q188 359 206 366T233 387T243 418Q243 430 239 438T226 452T201 459T162 461L167 532Q190 532
206 537T232 554T242 581Q242 597 233 607T203 617Q187 617 174 611T153 593T141 566L54 577Q59 614 80 642T136 687T210 703Q248 703 275 689T318 649T333 592Q333 570 326 552T301 519T255 495V514Q280 508 297 496T324 466T333 421Q333 379 310 346T247 293T156
273ZM160 0L694 697H803L269 0H160ZM751 0L765 98H590L599 167L822 418H900L867 182H933L921 98H855L842 0H751ZM675 163L671 182H780L801 339L807 319L675 163Z" />
<glyph unicode="&#xbf;" horiz-adv-x="464" d="M300 276L296 246Q289 194 270 161T225 104T174 62Q154 47 137 34T108 4T97 -35Q97 -58 116 -74T170 -90Q226 -90 257 -61T295 20L427 12Q411 -99 342 -157T170 -215Q117 -215 70 -196T-5 -138T-34 -39Q-34 7 -20
40T21 99T85 153Q120 179 142 203T172 265L174 276H300ZM343 493L323 351H168L188 493H343Z" />
<glyph unicode="&#xc0;" horiz-adv-x="698" d="M-34 0L354 697H469L660 0H492L383 463L140 0H-34ZM191 118L259 258H440L472 118H191ZM377 758L264 901H418L482 758H377Z" />
<glyph unicode="&#xc1;" horiz-adv-x="698" d="M-34 0L354 697H469L660 0H492L383 463L140 0H-34ZM191 118L259 258H440L472 118H191ZM368 758L495 901H654L475 758H368Z" />
<glyph unicode="&#xc2;" horiz-adv-x="698" d="M-34 0L354 697H469L660 0H492L383 463L140 0H-34ZM191 118L259 258H440L472 118H191ZM257 741L442 924L577 741H462L430 797L380 741H257Z" />
<glyph unicode="&#xc3;" horiz-adv-x="698" d="M-34 0L354 697H469L660 0H492L383 463L140 0H-34ZM191 118L259 258H440L472 118H191ZM486 741Q462 741 446 746T418 759T398 774T383 787T369 792Q356 792 346 778T332 737L248 745Q256 808 289 840T372 873Q393
873 408 868T435 855T455 840T470 827T483 821Q494 821 504 835T519 875L608 867Q599 803 567 772T486 741Z" />
<glyph unicode="&#xc4;" horiz-adv-x="698" d="M-34 0L354 697H469L660 0H492L383 463L140 0H-34ZM191 118L259 258H440L472 118H191ZM447 765L466 901H621L602 765H447ZM243 765L262 901H417L398 765H243Z" />
<glyph unicode="&#xc5;" horiz-adv-x="698" d="M-34 0L354 697H469L660 0H492L383 463L140 0H-34ZM191 118L259 258H440L472 118H191ZM408 620Q357 620 326 654T294 735Q294 771 312 801T361 849T427 868Q475 868 508 836T541 754Q541 718 523 688T474 639T408
620ZM415 700Q438 700 450 716T463 752Q463 766 454 777T425 788Q400 788 388 773T375 740Q375 725 385 713T415 700Z" />
<glyph unicode="&#xc6;" horiz-adv-x="949" d="M-34 0L353 697H966L947 557H615L595 418H888L868 278H575L556 140H888L868 0H378L457 559H430L140 0H-34ZM175 118L244 262H452L432 118H175Z" />
<glyph unicode="&#xc7;" horiz-adv-x="714" d="M344 -18Q266 -18 210 7T116 77T60 177T42 295Q42 370 67 444T143 579T265 678T431 715Q549 715 625 656T724 495L572 450Q560 506 518 535T416 565Q362 565 321 543T252 483T210 401T196 308Q196 228 237 180T358
132Q423 132 468 165T542 255L684 194Q635 94 546 38T344 -18ZM287 -260Q275 -260 251 -256T205 -237L252 -164Q262 -169 271 -172T289 -175Q303 -175 312 -167T322 -143Q322 -127 313 -118T289 -104T254 -98T213 -97L286 13L376 12L328 -40Q354 -45 372 -58T401
-92T411 -139Q411 -191 376 -225T287 -260Z" />
<glyph unicode="&#xc8;" horiz-adv-x="573" d="M24 0L122 697H590L571 557H260L242 429H538L518 289H222L201 140H512L492 0H24ZM320 758L207 901H361L425 758H320Z" />
<glyph unicode="&#xc9;" horiz-adv-x="573" d="M24 0L122 697H590L571 557H260L242 429H538L518 289H222L201 140H512L492 0H24ZM311 758L438 901H597L418 758H311Z" />
<glyph unicode="&#xca;" horiz-adv-x="573" d="M24 0L122 697H590L571 557H260L242 429H538L518 289H222L201 140H512L492 0H24ZM200 741L385 924L520 741H405L373 797L323 741H200Z" />
<glyph unicode="&#xcb;" horiz-adv-x="573" d="M24 0L122 697H590L571 557H260L242 429H538L518 289H222L201 140H512L492 0H24ZM390 765L409 901H564L545 765H390ZM186 765L205 901H360L341 765H186Z" />
<glyph unicode="&#xcc;" horiz-adv-x="275" d="M24 0L122 697H279L181 0H24ZM165 758L52 901H206L270 758H165Z" />
<glyph unicode="&#xcd;" horiz-adv-x="275" d="M24 0L122 697H279L181 0H24ZM156 758L283 901H442L263 758H156Z" />
<glyph unicode="&#xce;" horiz-adv-x="275" d="M24 0L122 697H279L181 0H24ZM47 741L230 924L367 741H254L217 797L168 741H47Z" />
<glyph unicode="&#xcf;" horiz-adv-x="275" d="M24 0L122 697H279L181 0H24ZM235 765L254 901H409L390 765H235ZM31 765L50 901H205L186 765H31Z" />
<glyph unicode="&#xd0;" horiz-adv-x="668" d="M24 0L122 697H328Q484 697 568 622T653 406Q653 318 628 244T552 115T423 30T237 0H24ZM202 144H234Q321 144 373 168T453 233T489 319T498 409Q498 467 476 498T412 541T313 553H259L202 144ZM245 299L259 399H600L586
299H245Z" />
<glyph unicode="&#xd1;" horiz-adv-x="698" d="M24 0L122 697H281L516 206H476L545 697H702L604 0H445L212 492H251L181 0H24ZM486 741Q462 741 446 746T418 759T398 774T383 787T369 792Q356 792 346 778T332 737L248 745Q256 808 289 840T372 873Q393 873 408
868T435 855T455 840T470 827T483 821Q494 821 504 835T519 875L608 867Q599 803 567 772T486 741Z" />
<glyph unicode="&#xd2;" horiz-adv-x="748" d="M343 -18Q251 -18 184 20T79 128T42 294Q42 376 69 451T147 586T270 680T432 715Q524 715 591 677T696 569T733 402Q733 320 706 245T627 110T504 17T343 -18ZM356 132Q407 132 447 152T516 209T560 290T575 387Q575
468 535 516T418 565Q366 565 325 544T256 485T213 402T198 308Q198 254 216 215T270 154T356 132ZM400 758L287 901H441L505 758H400Z" />
<glyph unicode="&#xd3;" horiz-adv-x="748" d="M343 -18Q251 -18 184 20T79 128T42 294Q42 376 69 451T147 586T270 680T432 715Q524 715 591 677T696 569T733 402Q733 320 706 245T627 110T504 17T343 -18ZM356 132Q407 132 447 152T516 209T560 290T575 387Q575
468 535 516T418 565Q366 565 325 544T256 485T213 402T198 308Q198 254 216 215T270 154T356 132ZM391 758L518 901H677L498 758H391Z" />
<glyph unicode="&#xd4;" horiz-adv-x="748" d="M343 -18Q251 -18 184 20T79 128T42 294Q42 376 69 451T147 586T270 680T432 715Q524 715 591 677T696 569T733 402Q733 320 706 245T627 110T504 17T343 -18ZM356 132Q407 132 447 152T516 209T560 290T575 387Q575
468 535 516T418 565Q366 565 325 544T256 485T213 402T198 308Q198 254 216 215T270 154T356 132ZM280 741L465 924L600 741H485L453 797L403 741H280Z" />
<glyph unicode="&#xd5;" horiz-adv-x="748" d="M343 -18Q251 -18 184 20T79 128T42 294Q42 376 69 451T147 586T270 680T432 715Q524 715 591 677T696 569T733 402Q733 320 706 245T627 110T504 17T343 -18ZM356 132Q407 132 447 152T516 209T560 290T575 387Q575
468 535 516T418 565Q366 565 325 544T256 485T213 402T198 308Q198 254 216 215T270 154T356 132ZM509 741Q485 741 469 746T441 759T421 774T406 787T392 792Q379 792 369 778T355 737L271 745Q279 808 312 840T395 873Q416 873 431 868T458 855T478 840T493
827T506 821Q517 821 527 835T542 875L631 867Q622 803 590 772T509 741Z" />
<glyph unicode="&#xd6;" horiz-adv-x="748" d="M343 -18Q251 -18 184 20T79 128T42 294Q42 376 69 451T147 586T270 680T432 715Q524 715 591 677T696 569T733 402Q733 320 706 245T627 110T504 17T343 -18ZM356 132Q407 132 447 152T516 209T560 290T575 387Q575
468 535 516T418 565Q366 565 325 544T256 485T213 402T198 308Q198 254 216 215T270 154T356 132ZM470 765L489 901H644L625 765H470ZM266 765L285 901H440L421 765H266Z" />
<glyph unicode="&#xd7;" horiz-adv-x="560" d="M143 18L51 109L187 247L51 383L143 476L279 339L416 476L509 383L373 247L509 109L416 18L279 153L143 18Z" />
<glyph unicode="&#xd8;" horiz-adv-x="748" d="M343 -18Q251 -18 184 20T79 128T42 294Q42 376 69 451T147 586T270 680T432 715Q524 715 591 677T696 569T733 402Q733 320 706 245T627 110T504 17T343 -18ZM356 132Q407 132 447 152T516 209T560 290T575 387Q575
468 535 516T418 565Q366 565 325 544T256 485T213 402T198 308Q198 254 216 215T270 154T356 132ZM13 0L657 697H762L119 0H13Z" />
<glyph unicode="&#xd9;" horiz-adv-x="658" d="M300 -18Q176 -18 113 36T50 197Q50 210 51 225T54 256L116 697H273L213 266Q211 249 210 235T208 207Q208 165 228 146T304 126Q356 126 386 143T431 192T452 272L511 697H668L606 253Q587 114 511 48T300 -18ZM357
758L244 901H398L462 758H357Z" />
<glyph unicode="&#xda;" horiz-adv-x="658" d="M300 -18Q176 -18 113 36T50 197Q50 210 51 225T54 256L116 697H273L213 266Q211 249 210 235T208 207Q208 165 228 146T304 126Q356 126 386 143T431 192T452 272L511 697H668L606 253Q587 114 511 48T300 -18ZM348
758L475 901H634L455 758H348Z" />
<glyph unicode="&#xdb;" horiz-adv-x="658" d="M300 -18Q176 -18 113 36T50 197Q50 210 51 225T54 256L116 697H273L213 266Q211 249 210 235T208 207Q208 165 228 146T304 126Q356 126 386 143T431 192T452 272L511 697H668L606 253Q587 114 511 48T300 -18ZM237
741L422 924L557 741H442L410 797L360 741H237Z" />
<glyph unicode="&#xdc;" horiz-adv-x="658" d="M300 -18Q176 -18 113 36T50 197Q50 210 51 225T54 256L116 697H273L213 266Q211 249 210 235T208 207Q208 165 228 146T304 126Q356 126 386 143T431 192T452 272L511 697H668L606 253Q587 114 511 48T300 -18ZM427
765L446 901H601L582 765H427ZM223 765L242 901H397L378 765H223Z" />
<glyph unicode="&#xdd;" horiz-adv-x="640" d="M208 0L248 275L63 697H239L340 431L524 697H705L405 275L365 0H208ZM339 758L466 901H625L446 758H339Z" />
<glyph unicode="&#xde;" horiz-adv-x="606" d="M63 0L161 697H304L291 603H405Q494 603 544 559T595 433Q595 424 595 415T592 395Q579 298 508 245T320 191H233L206 0H63ZM251 321H330Q378 321 411 340T451 408Q452 412 452 415T452 423Q452 456 429 468T361
481H274L251 321Z" />
<glyph unicode="&#xdf;" horiz-adv-x="663" d="M417 -11Q356 -11 312 10T242 64T209 136L333 181Q337 168 344 152T369 125T419 114Q448 114 461 126T475 153Q475 165 467 172T445 186T413 197Q384 206 352 219T297 258T275 328Q275 379 310 416T421 481Q448 491
462 499T481 515T486 531Q486 552 461 559T409 566Q351 566 318 551T268 513T245 466T236 423L176 0H19L80 431Q88 485 106 534T161 623T255 684T401 707Q507 707 571 670T635 556Q635 510 618 478T575 423T521 387T469 364Q450 357 440 353T426 345T422 337Q422
334 426 331T440 326T462 321Q484 317 511 308T565 283T608 239T625 171Q625 112 595 71T518 10T417 -11Z" />
<glyph unicode="&#xe0;" horiz-adv-x="570" d="M208 -11Q151 -11 112 15T52 89T32 199Q32 257 49 311T99 409T175 478T274 504Q311 504 343 488T393 437T407 343L384 369L411 493H550L481 0H341L347 122L383 148Q361 79 331 45T268 0T208 -11ZM258 127Q290 127
313 141T352 178T375 228T383 283Q383 310 375 328T350 356T308 366Q276 366 253 352T214 315T191 265T183 210Q183 184 191 165T217 137T258 127ZM284 554L171 697H325L389 554H284Z" />
<glyph unicode="&#xe1;" horiz-adv-x="570" d="M208 -11Q151 -11 112 15T52 89T32 199Q32 257 49 311T99 409T175 478T274 504Q311 504 343 488T393 437T407 343L384 369L411 493H550L481 0H341L347 122L383 148Q361 79 331 45T268 0T208 -11ZM258 127Q290 127
313 141T352 178T375 228T383 283Q383 310 375 328T350 356T308 366Q276 366 253 352T214 315T191 265T183 210Q183 184 191 165T217 137T258 127ZM275 554L402 697H561L382 554H275Z" />
<glyph unicode="&#xe2;" horiz-adv-x="570" d="M208 -11Q151 -11 112 15T52 89T32 199Q32 257 49 311T99 409T175 478T274 504Q311 504 343 488T393 437T407 343L384 369L411 493H550L481 0H341L347 122L383 148Q361 79 331 45T268 0T208 -11ZM258 127Q290 127
313 141T352 178T375 228T383 283Q383 310 375 328T350 356T308 366Q276 366 253 352T214 315T191 265T183 210Q183 184 191 165T217 137T258 127ZM166 537L349 720L486 537H373L336 593L287 537H166Z" />
<glyph unicode="&#xe3;" horiz-adv-x="570" d="M208 -11Q151 -11 112 15T52 89T32 199Q32 257 49 311T99 409T175 478T274 504Q311 504 343 488T393 437T407 343L384 369L411 493H550L481 0H341L347 122L383 148Q361 79 331 45T268 0T208 -11ZM258 127Q290 127
313 141T352 178T375 228T383 283Q383 310 375 328T350 356T308 366Q276 366 253 352T214 315T191 265T183 210Q183 184 191 165T217 137T258 127ZM410 548Q371 548 353 562T324 589Q318 597 312 602T298 607Q282 607 269 588T248 538L164 556Q184 629 221 664T304
699Q336 699 352 687T378 661Q386 652 393 646T411 639Q425 639 438 658T459 706L547 688Q526 615 491 582T410 548Z" />
<glyph unicode="&#xe4;" horiz-adv-x="570" d="M208 -11Q151 -11 112 15T52 89T32 199Q32 257 49 311T99 409T175 478T274 504Q311 504 343 488T393 437T407 343L384 369L411 493H550L481 0H341L347 122L383 148Q361 79 331 45T268 0T208 -11ZM258 127Q290 127
313 141T352 178T375 228T383 283Q383 310 375 328T350 356T308 366Q276 366 253 352T214 315T191 265T183 210Q183 184 191 165T217 137T258 127ZM354 561L373 697H528L509 561H354ZM150 561L169 697H324L305 561H150Z" />
<glyph unicode="&#xe5;" horiz-adv-x="570" d="M208 -11Q151 -11 112 15T52 89T32 199Q32 257 49 311T99 409T175 478T274 504Q311 504 343 488T393 437T407 343L384 369L411 493H550L481 0H341L347 122L383 148Q361 79 331 45T268 0T208 -11ZM258 127Q290 127
313 141T352 178T375 228T383 283Q383 310 375 328T350 356T308 366Q276 366 253 352T214 315T191 265T183 210Q183 184 191 165T217 137T258 127ZM346 530Q302 530 269 555T236 629Q236 666 256 695T309 741T379 758Q422 758 455 734T489 660Q489 623 469 594T416
547T346 530ZM356 598Q382 598 395 615T409 652Q409 667 400 678T370 690Q345 690 331 673T317 636Q317 621 326 610T356 598Z" />
<glyph unicode="&#xe6;" horiz-adv-x="866" d="M208 -11Q159 -11 117 5T48 55T21 135Q21 192 48 228T125 282T238 299H363V318Q363 337 356 349T334 367T299 373Q272 373 237 361T169 317L67 414Q127 464 188 484T318 504Q363 504 401 492T467 449Q496 476 540
490T626 504Q696 504 742 477T811 401T835 288Q835 260 832 238T822 190H497Q497 183 498 176T502 162Q510 145 528 135T581 125Q608 125 635 134T684 163L791 76Q746 33 693 11T577 -11Q523 -11 481 8T411 66H399Q368 34 337 18T274 -5T208 -11ZM243 107Q272 107
294 118T331 148T348 186L353 218L362 191H234Q213 191 200 186T181 171T175 149Q175 134 191 121T243 107ZM694 286Q697 294 698 301T700 318Q700 335 691 348T666 370T627 379Q592 379 568 366T531 335T512 301H718L694 286Z" />
<glyph unicode="&#xe7;" horiz-adv-x="526" d="M261 -11Q180 -11 129 20T54 102T30 211Q30 268 49 320T104 414T192 480T308 504Q389 504 442 465T513 350L378 306Q372 337 356 355T305 373Q274 373 250 359T211 320T187 267T179 210Q179 186 188 166T216 133T263
120Q304 120 325 141T360 195L485 135Q447 59 388 24T261 -11ZM220 -260Q208 -260 184 -256T138 -237L185 -164Q195 -169 204 -172T222 -175Q236 -175 245 -167T255 -143Q255 -127 246 -118T222 -104T187 -98T146 -97L219 13L309 12L261 -40Q287 -45 305 -58T334
-92T344 -139Q344 -191 309 -225T220 -260Z" />
<glyph unicode="&#xe8;" horiz-adv-x="544" d="M255 -11Q173 -11 124 19T52 99T30 206Q30 261 47 314T99 410T185 478T304 504Q374 504 420 477T489 401T513 288Q513 260 510 238T500 190H175Q175 185 175 181T177 171Q184 143 209 131T267 118Q299 118 333 128T399
154L462 51Q422 26 370 8T255 -11ZM371 273Q374 283 375 293T377 312Q377 331 370 347T347 373T303 384Q269 384 246 370T209 337T190 301H422L371 273ZM275 554L162 697H316L380 554H275Z" />
<glyph unicode="&#xe9;" horiz-adv-x="544" d="M255 -11Q173 -11 124 19T52 99T30 206Q30 261 47 314T99 410T185 478T304 504Q374 504 420 477T489 401T513 288Q513 260 510 238T500 190H175Q175 185 175 181T177 171Q184 143 209 131T267 118Q299 118 333 128T399
154L462 51Q422 26 370 8T255 -11ZM371 273Q374 283 375 293T377 312Q377 331 370 347T347 373T303 384Q269 384 246 370T209 337T190 301H422L371 273ZM266 554L393 697H552L373 554H266Z" />
<glyph unicode="&#xea;" horiz-adv-x="544" d="M255 -11Q173 -11 124 19T52 99T30 206Q30 261 47 314T99 410T185 478T304 504Q374 504 420 477T489 401T513 288Q513 260 510 238T500 190H175Q175 185 175 181T177 171Q184 143 209 131T267 118Q299 118 333 128T399
154L462 51Q422 26 370 8T255 -11ZM371 273Q374 283 375 293T377 312Q377 331 370 347T347 373T303 384Q269 384 246 370T209 337T190 301H422L371 273ZM157 537L340 720L477 537H364L327 593L278 537H157Z" />
<glyph unicode="&#xeb;" horiz-adv-x="544" d="M255 -11Q173 -11 124 19T52 99T30 206Q30 261 47 314T99 410T185 478T304 504Q374 504 420 477T489 401T513 288Q513 260 510 238T500 190H175Q175 185 175 181T177 171Q184 143 209 131T267 118Q299 118 333 128T399
154L462 51Q422 26 370 8T255 -11ZM371 273Q374 283 375 293T377 312Q377 331 370 347T347 373T303 384Q269 384 246 370T209 337T190 301H422L371 273ZM345 561L364 697H519L500 561H345ZM141 561L160 697H315L296 561H141Z" />
<glyph unicode="&#xec;" horiz-adv-x="258" d="M18 0L87 493H238L169 0H18ZM383 554L270 697H424L488 554H383Z" />
<glyph unicode="&#xed;" horiz-adv-x="258" d="M18 0L87 493H238L169 0H18ZM118 554L245 697H404L225 554H118Z" />
<glyph unicode="&#xee;" horiz-adv-x="258" d="M18 0L87 493H238L169 0H18ZM265 537L448 720L585 537H472L435 593L386 537H265Z" />
<glyph unicode="&#xef;" horiz-adv-x="258" d="M18 0L87 493H238L169 0H18ZM453 561L472 697H627L608 561H453ZM249 561L268 697H423L404 561H249Z" />
<glyph unicode="&#xf0;" horiz-adv-x="591" d="M245 -11Q140 -11 85 44T29 187Q29 250 53 304T120 400T216 464T327 487Q348 487 368 484T408 473T442 454Q450 448 456 442T466 427Q468 438 469 449T470 470Q470 514 453 551T397 612T295 638L313 738Q414 729
475 693T565 596T593 455Q593 372 572 290T508 139T399 30T245 -11ZM256 118Q292 118 323 134T379 175T417 231T432 290Q433 310 424 327T395 354T342 364Q297 364 265 347T211 303T180 247T170 194Q170 154 195 136T256 118ZM249 521L242 581L617 667L623 607L249
521Z" />
<glyph unicode="&#xf1;" horiz-adv-x="576" d="M19 0L89 493H230L223 377L203 381Q222 431 250 457T311 494T373 504Q453 504 496 464T540 355Q540 348 540 340T538 324L492 0H341L380 276Q382 287 382 295T383 311Q383 344 369 358T324 373Q273 373 243 337T202
226L170 0H19ZM405 548Q366 548 348 562T319 589Q313 597 307 602T293 607Q277 607 264 588T243 538L159 556Q179 629 216 664T299 699Q331 699 347 687T373 661Q381 652 388 646T406 639Q420 639 433 658T454 706L542 688Q521 615 486 582T405 548Z" />
<glyph unicode="&#xf2;" horiz-adv-x="569" d="M254 -11Q187 -11 137 17T58 97T29 216Q29 275 50 327T110 419T201 481T314 504Q382 504 432 476T511 397T539 279Q539 220 517 168T457 75T366 12T254 -11ZM268 121Q297 121 319 134T357 168T381 216T389 268Q389
309 369 340T301 372Q271 372 248 360T210 326T187 279T179 227Q179 186 200 154T268 121ZM283 554L170 697H324L388 554H283Z" />
<glyph unicode="&#xf3;" horiz-adv-x="569" d="M254 -11Q187 -11 137 17T58 97T29 216Q29 275 50 327T110 419T201 481T314 504Q382 504 432 476T511 397T539 279Q539 220 517 168T457 75T366 12T254 -11ZM268 121Q297 121 319 134T357 168T381 216T389 268Q389
309 369 340T301 372Q271 372 248 360T210 326T187 279T179 227Q179 186 200 154T268 121ZM274 554L401 697H560L381 554H274Z" />
<glyph unicode="&#xf4;" horiz-adv-x="569" d="M254 -11Q187 -11 137 17T58 97T29 216Q29 275 50 327T110 419T201 481T314 504Q382 504 432 476T511 397T539 279Q539 220 517 168T457 75T366 12T254 -11ZM268 121Q297 121 319 134T357 168T381 216T389 268Q389
309 369 340T301 372Q271 372 248 360T210 326T187 279T179 227Q179 186 200 154T268 121ZM165 537L348 720L485 537H372L335 593L286 537H165Z" />
<glyph unicode="&#xf5;" horiz-adv-x="569" d="M254 -11Q187 -11 137 17T58 97T29 216Q29 275 50 327T110 419T201 481T314 504Q382 504 432 476T511 397T539 279Q539 220 517 168T457 75T366 12T254 -11ZM268 121Q297 121 319 134T357 168T381 216T389 268Q389
309 369 340T301 372Q271 372 248 360T210 326T187 279T179 227Q179 186 200 154T268 121ZM409 548Q370 548 352 562T323 589Q317 597 311 602T297 607Q281 607 268 588T247 538L163 556Q183 629 220 664T303 699Q335 699 351 687T377 661Q385 652 392 646T410
639Q424 639 437 658T458 706L546 688Q525 615 490 582T409 548Z" />
<glyph unicode="&#xf6;" horiz-adv-x="569" d="M254 -11Q187 -11 137 17T58 97T29 216Q29 275 50 327T110 419T201 481T314 504Q382 504 432 476T511 397T539 279Q539 220 517 168T457 75T366 12T254 -11ZM268 121Q297 121 319 134T357 168T381 216T389 268Q389
309 369 340T301 372Q271 372 248 360T210 326T187 279T179 227Q179 186 200 154T268 121ZM353 561L372 697H527L508 561H353ZM149 561L168 697H323L304 561H149Z" />
<glyph unicode="&#xf7;" horiz-adv-x="560" d="M50 188V306H510V188H50ZM193 -1V146H367V-1H193ZM193 349V494H367V349H193Z" />
<glyph unicode="&#xf8;" horiz-adv-x="569" d="M254 -11Q187 -11 137 17T58 97T29 216Q29 275 50 327T110 419T201 481T314 504Q382 504 432 476T511 397T539 279Q539 220 517 168T457 75T366 12T254 -11ZM268 121Q297 121 319 134T357 168T381 216T389 268Q389
309 369 340T301 372Q271 372 248 360T210 326T187 279T179 227Q179 186 200 154T268 121ZM250 217L752 789H831L328 217H250Z" />
<glyph unicode="&#xf9;" horiz-adv-x="576" d="M204 -11Q116 -11 77 34T37 149Q37 160 38 170T40 192L82 493H233L194 215Q193 205 192 195T191 178Q191 153 203 137T253 120Q300 120 325 149T362 227T382 334L404 493H555L486 0H346L349 108L364 87Q332 29 290
9T204 -11ZM282 554L169 697H323L387 554H282Z" />
<glyph unicode="&#xfa;" horiz-adv-x="576" d="M204 -11Q116 -11 77 34T37 149Q37 160 38 170T40 192L82 493H233L194 215Q193 205 192 195T191 178Q191 153 203 137T253 120Q300 120 325 149T362 227T382 334L404 493H555L486 0H346L349 108L364 87Q332 29 290
9T204 -11ZM273 554L400 697H559L380 554H273Z" />
<glyph unicode="&#xfb;" horiz-adv-x="576" d="M204 -11Q116 -11 77 34T37 149Q37 160 38 170T40 192L82 493H233L194 215Q193 205 192 195T191 178Q191 153 203 137T253 120Q300 120 325 149T362 227T382 334L404 493H555L486 0H346L349 108L364 87Q332 29 290
9T204 -11ZM164 537L347 720L484 537H371L334 593L285 537H164Z" />
<glyph unicode="&#xfc;" horiz-adv-x="576" d="M204 -11Q116 -11 77 34T37 149Q37 160 38 170T40 192L82 493H233L194 215Q193 205 192 195T191 178Q191 153 203 137T253 120Q300 120 325 149T362 227T382 334L404 493H555L486 0H346L349 108L364 87Q332 29 290
9T204 -11ZM352 561L371 697H526L507 561H352ZM148 561L167 697H322L303 561H148Z" />
<glyph unicode="&#xfd;" horiz-adv-x="544" d="M23 -204L164 47L46 493H209L263 197L405 493H570L189 -204H23ZM263 554L390 697H549L370 554H263Z" />
<glyph unicode="&#xfe;" horiz-adv-x="601" d="M16 -204L142 697H293L249 371L221 409Q238 446 266 466T327 495T387 504Q446 504 485 477T543 403T563 295Q563 237 547 182T501 84T428 15T331 -11Q296 -11 264 2T209 37T181 86L211 124L167 -204H16ZM291 120Q328
120 352 137T390 181T409 235T415 280Q415 324 398 348T342 372Q310 372 286 358T245 321T221 267T213 205Q213 181 220 162T244 131T291 120Z" />
<glyph unicode="&#xff;" horiz-adv-x="544" d="M23 -204L164 47L46 493H209L263 197L405 493H570L189 -204H23ZM342 561L361 697H516L497 561H342ZM138 561L157 697H312L293 561H138Z" />
<glyph unicode="&#x2013;" horiz-adv-x="390" d="M-2 234L14 346H404L388 234H-2Z" />
<glyph unicode="&#x2014;" horiz-adv-x="1010" d="M-2 234L14 346H1024L1008 234H-2Z" />
<glyph unicode="&#x2018;" horiz-adv-x="274" d="M45 420L206 697H307L222 420H45Z" />
<glyph unicode="&#x2019;" horiz-adv-x="275" d="M55 421L140 697H317L155 421H55Z" />
<glyph unicode="&#x201a;" horiz-adv-x="283" d="M-18 -145L67 131H244L82 -145H-18Z" />
<glyph unicode="&#x201c;" horiz-adv-x="479" d="M251 420L411 697H512L428 420H251ZM45 420L206 697H307L222 420H45Z" />
<glyph unicode="&#x201d;" horiz-adv-x="480" d="M261 421L346 697H522L362 421H261ZM55 421L140 697H317L155 421H55Z" />
<glyph unicode="&#x201e;" horiz-adv-x="471" d="M185 -145L269 131H446L285 -145H185ZM-34 -145L51 131H228L66 -145H-34Z" />
<glyph unicode="&#x2022;" horiz-adv-x="405" d="M47 110L85 384H358L320 110H47Z" />
<glyph unicode="&#x2039;" horiz-adv-x="306" d="M243 32L2 252L302 472L282 312L179 252L263 192L243 32Z" />
<glyph unicode="&#x203a;" horiz-adv-x="307" d="M5 32L25 192L128 252L44 312L64 472L305 252L5 32Z" />
</font>
</defs>
</svg>
