<?xml version="1.0" standalone="no"?>
<!DOCTYPE svg PUBLIC "-//W3C//DTD SVG 1.1//EN" "http://www.w3.org/Graphics/SVG/1.1/DTD/svg11.dtd">
<svg xmlns="http://www.w3.org/2000/svg">
<defs >
<font id="HankenGrotesk" horiz-adv-x="545" ><font-face
    font-family="Hanken Grotesk"
    units-per-em="1000"
    panose-1="0 0 0 0 0 0 0 0 0 0"
    ascent="1000"
    descent="-303"
    alphabetic="0" />
<glyph unicode=" " horiz-adv-x="260" />
<glyph unicode="!" horiz-adv-x="252" d="M79 212L65 697H188L174 212H79ZM59 0V132H193V0H59Z" />
<glyph unicode="&quot;" horiz-adv-x="366" d="M44 410V697H148V410H44ZM217 410V697H322V410H217Z" />
<glyph unicode="#" horiz-adv-x="694" d="M115 0L159 204H45V292H178L204 416H85V508H223L267 697H365L321 504H440L482 697H581L536 504H650V416H517L489 292H610V204H471L427 0H330L374 204H255L212 0H115ZM276 292H395L419 416H301L276 292Z" />
<glyph unicode="$" horiz-adv-x="560" d="M239 -116V33H330V-116H239ZM239 660V808H330V660H239ZM291 -13Q180 -13 109 45T22 199L148 230Q159 166 198 134T296 102Q327 102 351 112T390 143T405 192Q405 218 390 237T345 272T268 305Q202 331 158 360T91 429T69
521Q69 577 96 620T173 688T289 713Q359 713 413 681T501 584L398 521Q377 559 349 578T285 598Q260 598 241 589T210 563T198 524Q198 501 211 483T255 449T335 414Q400 390 443 361T510 294T533 200Q533 138 503 90T418 14T291 -13Z" />
<glyph unicode="%" horiz-adv-x="735" d="M100 0L541 697H629L188 0H100ZM544 -10Q502 -10 468 10T413 67T392 153Q392 202 412 238T466 294T542 314Q585 314 619 293T674 235T694 152Q694 108 674 71T621 12T544 -10ZM544 74Q563 74 578 84T601 112T610 152Q610
177 601 194T577 221T542 230Q524 230 509 222T485 196T476 153Q476 127 485 109T510 83T544 74ZM195 383Q152 383 118 403T62 459T41 545Q41 594 61 630T116 687T192 707Q235 707 269 686T324 627T344 544Q344 500 324 464T271 405T195 383ZM195 467Q213 467 227
477T250 505T259 544Q259 569 250 586T226 613T192 623Q174 623 159 615T134 589T125 545Q125 519 134 502T159 476T195 467Z" />
<glyph unicode="&amp;" horiz-adv-x="700" d="M278 -12Q212 -12 159 8T75 68T44 166Q44 212 63 247T113 309T180 359T251 401Q291 424 322 446T370 492T388 545Q388 570 372 589T321 608Q290 608 268 589T245 536Q245 514 256 493T281 455T307 423L209 373Q193
390 174 414T140 470T126 539Q126 591 153 628T224 685T320 705Q403 705 453 663T504 547Q504 490 474 448T400 374T310 313Q273 290 242 269T192 225T173 172Q173 136 201 115T278 94Q377 94 441 167T535 374L646 356Q623 233 571 151T443 29T278 -12ZM574 -38L268
314L367 374L662 41L574 -38Z" />
<glyph unicode="&apos;" horiz-adv-x="193" d="M44 410V697H149V410H44Z" />
<glyph unicode="(" horiz-adv-x="277" d="M156 -204Q125 -163 103 -111T65 1T42 123T34 246Q34 330 47 412T88 568T156 697H268Q222 638 192 564T147 408T132 247Q132 186 140 125T166 5T208 -107T268 -204H156Z" />
<glyph unicode=")" horiz-adv-x="277" d="M122 -204H9Q43 -161 68 -108T111 5T136 125T145 247Q145 327 131 408T86 563T9 697H121Q162 641 189 568T229 413T243 246Q243 185 236 123T213 2T175 -110T122 -204Z" />
<glyph unicode="*" horiz-adv-x="399" d="M134 382L75 427L164 523L35 549L58 623L178 567L162 697H238L222 567L342 623L364 549L236 523L325 427L265 382L200 498L134 382Z" />
<glyph unicode="+" horiz-adv-x="560" d="M231 4V198H36V296H231V491H330V296H524V198H330V4H231Z" />
<glyph unicode="," horiz-adv-x="240" d="M25 -149L94 156H233L107 -149H25Z" />
<glyph unicode="-" horiz-adv-x="327" d="M40 249V342H288V249H40Z" />
<glyph unicode="." horiz-adv-x="240" d="M54 0V132H186V0H54Z" />
<glyph unicode="/" horiz-adv-x="420" d="M-58 -212L303 697H397L35 -212H-58Z" />
<glyph unicode="0" horiz-adv-x="560" d="M281 -9Q216 -9 172 14T101 75T61 161T42 258T37 352Q37 395 41 443T59 539T100 624T170 685T280 708Q345 708 388 686T459 625T499 540T518 445T523 352Q523 306 518 256T499 159T458 74T388 14T281 -9ZM281 110Q328
110 353 142T387 229T396 348Q396 415 387 469T352 556T280 588Q243 588 220 569T186 517T170 441T165 348Q165 301 169 258T186 182T221 130T281 110Z" />
<glyph unicode="1" horiz-adv-x="560" d="M271 0V551L307 490H93V588H201Q235 588 253 603T271 657V697H396V0H271Z" />
<glyph unicode="2" horiz-adv-x="560" d="M41 0V94Q73 118 116 149T203 217T286 296T347 384T371 478Q371 523 347 553T272 584Q230 584 206 563T170 510T157 442L35 451Q35 498 50 543T96 624T172 683T276 705Q340 705 389 677T467 599T495 482Q495 430 478 381T428
287T352 202T254 128T140 65L173 116H522V0H41Z" />
<glyph unicode="3" horiz-adv-x="560" d="M274 -9Q196 -9 138 19T48 100T15 221L138 228Q138 174 176 142T279 110Q320 110 349 122T394 158T410 214Q410 242 399 261T365 293T311 310T239 316V413Q268 413 292 418T333 433T360 461T369 503Q369 530 358 548T325
577T273 587Q225 587 197 561T168 491L45 499Q45 559 75 606T157 679T278 706Q342 706 390 682T466 615T494 516Q494 491 488 471T470 433T442 402T407 379Q434 370 457 355T498 319T524 272T534 213Q534 147 501 97T410 19T274 -9Z" />
<glyph unicode="4" horiz-adv-x="560" d="M316 0V164H8V260L332 697H441V280H552V164H441V0H316ZM105 237L103 280H316V574L333 557L105 237Z" />
<glyph unicode="5" horiz-adv-x="560" d="M277 -10Q211 -10 157 18T68 94T23 202L145 223Q149 195 164 169T207 126T275 109Q319 109 346 129T387 180T401 244Q401 276 389 303T349 347T278 364Q236 364 207 346T161 300L44 330L112 697H502V581H158L224 634L180
400L140 411Q179 454 219 467T295 481Q366 481 419 448T503 361T533 244Q533 194 514 149T461 68T380 11T277 -10Z" />
<glyph unicode="6" horiz-adv-x="560" d="M407 697L234 434L219 453Q236 460 254 464T290 469Q357 469 411 438T496 353T527 233Q527 162 493 107T401 21T273 -10Q203 -10 145 21T51 107T16 232Q16 267 26 300T56 363L263 697H407ZM273 359Q237 359 208 344T162
300T144 233Q144 196 161 168T207 125T273 109Q308 109 337 124T383 168T401 234Q401 272 384 300T338 343T273 359Z" />
<glyph unicode="7" horiz-adv-x="560" d="M87 0L407 629L442 581H28V697H531V606L225 0H87Z" />
<glyph unicode="8" horiz-adv-x="560" d="M280 -10Q213 -10 154 14T58 86T21 207Q21 262 45 307T119 379Q89 400 72 432T54 508Q54 571 86 615T170 683T280 707Q341 707 392 683T474 614T505 507Q505 463 488 432T441 379Q490 352 514 307T539 207Q539 135 503
87T407 14T280 -10ZM280 108Q319 108 349 120T397 158T415 219Q415 255 398 279T350 316T280 329Q241 329 211 317T163 280T145 219Q145 183 162 158T211 121T280 108ZM281 414Q326 414 354 437T382 498Q382 539 355 563T280 588Q250 588 227 578T192 548T179 500Q179
460 207 437T281 414Z" />
<glyph unicode="9" horiz-adv-x="560" d="M145 0L318 263L333 244Q316 237 298 233T262 228Q195 228 141 259T56 344T24 464Q24 535 59 590T152 676T279 707Q350 707 408 676T500 590T535 465Q535 431 525 398T496 334L288 0H145ZM279 338Q315 338 344 353T390
397T408 464Q408 502 391 529T344 572T279 588Q244 588 215 573T168 530T151 463Q151 426 168 398T214 354T279 338Z" />
<glyph unicode=":" horiz-adv-x="240" d="M53 338V471H187V338H53ZM53 0V132H187V0H53Z" />
<glyph unicode=";" horiz-adv-x="240" d="M6 -149L76 131H215L89 -149H6ZM69 338V471H203V338H69Z" />
<glyph unicode="&lt;" horiz-adv-x="560" d="M530 -15L28 182V312L530 509V404L68 228V267L530 90V-15Z" />
<glyph unicode="=" horiz-adv-x="560" d="M73 312V410H487V312H73ZM73 84V182H487V84H73Z" />
<glyph unicode="&gt;" horiz-adv-x="560" d="M30 -15V90L492 267V228L30 404V509L532 312V182L30 -15Z" />
<glyph unicode="?" horiz-adv-x="515" d="M201 210V249Q201 292 213 321T243 372T283 409T323 440T354 475T366 521Q366 562 338 582T259 603Q202 603 172 574T143 487H33Q33 558 62 607T143 681T262 707Q319 707 367 688T445 627T474 519Q474 475 462 446T431
396T390 359T350 328T319 291T307 240V210H201ZM189 0V132H322V0H189Z" />
<glyph unicode="@" horiz-adv-x="873" d="M438 -112Q356 -112 286 -83T163 -3T80 118T50 268Q50 354 79 426T160 551T283 633T438 663Q522 663 592 635T715 557T796 438T825 288Q825 223 807 177T754 105T666 80Q627 80 596 94T548 132T530 184V212L557 174Q538
126 496 102T402 77Q350 77 309 101T245 168T222 268Q222 326 245 369T309 437T402 461Q446 461 480 442T535 381L518 392L534 454H627V237Q627 204 638 190T676 175Q707 175 721 202T735 287Q735 350 714 402T653 492T559 551T439 572Q374 572 320 550T225 488T163
392T141 268Q141 207 164 154T227 62T322 0T439 -22Q526 -22 604 27L646 -52Q601 -82 547 -97T438 -112ZM428 174Q454 174 473 186T503 219T514 268Q514 298 503 319T473 352T428 364Q402 364 382 352T351 319T340 268Q340 240 351 219T382 186T428 174Z" />
<glyph unicode="A" horiz-adv-x="674" d="M8 0L288 697H385L665 0H524L338 506L149 0H8ZM192 136L232 252H442L484 136H192Z" />
<glyph unicode="B" horiz-adv-x="611" d="M67 0V697H312Q416 697 475 651T534 521Q534 473 514 436T458 377Q516 355 544 312T572 204Q572 108 512 54T344 0H67ZM196 119H334Q443 119 443 210Q443 254 417 278T341 302H196V119ZM196 417H318Q358 417 381 439T405
501Q405 538 381 558T312 578H196V417Z" />
<glyph unicode="C" horiz-adv-x="709" d="M373 -16Q274 -16 199 30T81 158T39 349Q39 458 81 539T198 667T373 713Q484 713 564 658T680 505L558 460Q536 521 489 555T373 589Q311 589 265 560T194 478T169 349Q169 274 193 220T264 137T373 108Q441 108 488 142T558
237L680 193Q645 96 565 40T373 -16Z" />
<glyph unicode="D" horiz-adv-x="674" d="M67 0V697H270Q444 697 539 605T634 343Q634 177 540 89T269 0H67ZM196 119H256Q335 119 390 139T474 209T504 348Q504 434 476 484T395 556T268 578H196V119Z" />
<glyph unicode="E" horiz-adv-x="578" d="M67 0V697H531V581H196V415H509V300H196V116H531V0H67Z" />
<glyph unicode="F" horiz-adv-x="558" d="M67 0V697H533V581H196V415H489V300H196V0H67Z" />
<glyph unicode="G" horiz-adv-x="735" d="M365 -16Q269 -16 196 30T81 158T39 349Q39 458 81 539T198 667T373 713Q484 713 564 658T680 505L558 460Q536 521 489 555T373 589Q311 589 265 560T194 478T169 349Q169 274 193 220T264 137T373 108Q405 108 439 117T501
148T547 211T565 313V353L594 263H394V379H680V0H566L548 113L570 96Q552 59 521 34T451 -3T365 -16Z" />
<glyph unicode="H" horiz-adv-x="693" d="M67 0V697H196V418H497V697H626V0H497V299H196V0H67Z" />
<glyph unicode="I" horiz-adv-x="263" d="M67 0V697H196V0H67Z" />
<glyph unicode="J" horiz-adv-x="556" d="M258 -16Q157 -16 93 46T21 219L149 232Q153 164 180 134T258 104Q317 104 340 142T364 249V581H103V697H494V242Q494 162 466 105T384 16T258 -16Z" />
<glyph unicode="K" horiz-adv-x="663" d="M170 210V374L476 697H650L170 210ZM67 0V697H196V0H67ZM499 0L279 351L375 441L652 0H499Z" />
<glyph unicode="L" horiz-adv-x="504" d="M67 0V697H196V116H493V0H67Z" />
<glyph unicode="M" horiz-adv-x="856" d="M67 0V697H256L440 191H417L600 697H789V0H660V546L672 544L491 61H366L185 544L196 546V0H67Z" />
<glyph unicode="N" horiz-adv-x="689" d="M67 0V697H200L525 169H493V697H622V0H488L164 529H196V0H67Z" />
<glyph unicode="O" horiz-adv-x="747" d="M373 -16Q274 -16 199 29T81 157T39 348Q39 458 81 540T198 667T373 713Q473 713 548 668T666 540T708 348Q708 239 666 157T548 30T373 -16ZM372 108Q436 108 481 137T552 221T577 348Q577 422 552 476T482 559T372 589Q311
589 265 560T194 477T169 348Q169 274 193 220T264 137T372 108Z" />
<glyph unicode="P" horiz-adv-x="562" d="M67 0V697H297Q415 697 475 647T535 495Q535 394 474 341T297 288H195V0H67ZM195 403H284Q342 403 374 423T406 494Q406 542 376 561T284 581H195V403Z" />
<glyph unicode="Q" horiz-adv-x="785" d="M373 -16Q274 -16 199 29T82 157T39 348Q39 458 81 539T198 667T373 713Q473 713 548 668T666 540T708 348Q708 239 666 157T548 30T373 -16ZM668 -56L383 220L459 300L746 20L668 -56ZM372 108Q436 108 481 137T552 221T577
348Q577 422 552 476T482 559T372 589Q311 589 265 560T194 477T169 348Q169 274 193 220T264 137T372 108Z" />
<glyph unicode="R" horiz-adv-x="612" d="M67 0V697H297Q382 697 434 673T510 603T535 495Q535 399 481 347T325 288Q302 287 278 287T237 287H196V0H67ZM446 0L271 302L403 318L595 0H446ZM196 403H284Q317 403 344 410T389 437T406 493Q406 530 389 549T345
574T284 581H196V403Z" />
<glyph unicode="S" horiz-adv-x="575" d="M297 -13Q186 -13 115 45T28 199L154 230Q165 166 204 134T302 102Q333 102 357 112T396 143T411 192Q411 218 396 237T351 272T274 305Q208 331 164 360T97 429T75 521Q75 577 102 620T179 688T295 713Q365 713 419 681T507
584L404 521Q383 559 355 578T291 598Q266 598 247 589T216 563T204 524Q204 501 217 483T261 449T341 414Q406 390 449 361T516 294T539 200Q539 138 509 90T424 14T297 -13Z" />
<glyph unicode="T" horiz-adv-x="584" d="M227 0V581H11V697H573V581H358V0H227Z" />
<glyph unicode="U" horiz-adv-x="657" d="M328 -16Q196 -16 129 51T61 252V697H190V267Q190 213 201 177T243 122T328 103Q382 103 412 121T455 176T467 266V697H596V257Q596 121 528 53T328 -16Z" />
<glyph unicode="V" horiz-adv-x="672" d="M288 0L9 697H151L358 159H317L520 697H663L385 0H288Z" />
<glyph unicode="W" horiz-adv-x="979" d="M223 0L13 697H149L293 198L426 657H554L686 198L831 697H966L756 0H631L479 502H500L349 0H223Z" />
<glyph unicode="X" horiz-adv-x="670" d="M14 0L246 348L14 697H169L335 438L501 697H655L424 348L657 0H502L334 254L168 0H14Z" />
<glyph unicode="Y" horiz-adv-x="625" d="M249 0V273L4 697H152L310 401L474 697H621L378 273V0H249Z" />
<glyph unicode="Z" horiz-adv-x="605" d="M28 0V106L433 622L452 581H51V697H563V591L170 90L152 116H577V0H28Z" />
<glyph unicode="[" horiz-adv-x="299" d="M67 -248V741H282V658H168V-165H282V-248H67Z" />
<glyph unicode="\" horiz-adv-x="467" d="M525 -212H432L69 697H164L525 -212Z" />
<glyph unicode="]" horiz-adv-x="299" d="M232 -248H17V-165H131V658H17V741H232V-248Z" />
<glyph unicode="^" horiz-adv-x="627" d="M30 206L235 697H391L597 206H466L295 638H331L162 206H30Z" />
<glyph unicode="_" horiz-adv-x="493" d="M36 -94V0H457V-94H36Z" />
<glyph unicode="`" horiz-adv-x="312" d="M182 555L38 697H170L274 555H182Z" />
<glyph unicode="a" horiz-adv-x="546" d="M377 0L367 74V311Q367 355 340 376T265 398Q226 398 186 383T114 339L51 424Q103 466 157 484T275 503Q377 503 434 452T491 311V0H377ZM228 -10Q174 -10 132 10T65 67T40 152Q40 195 57 225T104 272Q129 287 159 293T225
299H378V207H243Q227 207 212 205T185 193Q175 186 170 176T165 152Q165 124 187 107T246 90Q279 90 306 104T350 144T367 203L400 137Q387 85 361 53T300 5T228 -10Z" />
<glyph unicode="b" horiz-adv-x="574" d="M326 -10Q289 -10 255 4T194 53T155 146L185 132V0H61V697H185V360L159 352Q168 403 192 436T252 486T326 503Q384 503 432 473T508 385T536 247Q536 174 511 116T439 24T326 -10ZM292 104Q329 104 355 121T397 171T412
247Q412 291 397 322T356 371T292 389Q256 389 230 372T189 322T174 247Q174 204 188 172T229 122T292 104Z" />
<glyph unicode="c" horiz-adv-x="522" d="M278 -10Q218 -10 174 11T99 69T53 151T38 247Q38 296 53 342T98 424T173 481T278 503Q353 503 408 467T490 358L382 315Q370 350 346 372T278 395Q238 395 212 374T174 318T162 247Q162 210 174 176T212 120T278 98Q321
98 345 120T382 179L490 136Q463 62 408 26T278 -10Z" />
<glyph unicode="d" horiz-adv-x="574" d="M248 -10Q183 -10 136 23T64 115T38 247Q38 328 66 385T143 472T248 503Q288 503 322 487T382 437T415 353L390 360V697H513V0H390V132L419 146Q407 88 381 54T320 5T248 -10ZM282 104Q319 104 345 122T386 172T401 247Q401
290 387 322T346 371T282 389Q246 389 219 372T178 323T163 247Q163 203 177 171T219 122T282 104Z" />
<glyph unicode="e" horiz-adv-x="541" d="M281 -10Q217 -10 171 11T96 67T52 148T38 244Q38 292 52 338T94 421T166 480T273 503Q331 503 374 484T445 430T487 349T502 251Q502 244 502 232T499 205H162Q167 152 201 125T288 98Q326 98 362 111T426 150L488 66Q453
39 422 22T358 -2T281 -10ZM379 267Q381 275 382 283T384 298Q384 319 376 337T354 370T321 391T276 399Q239 399 214 384T177 346T161 297H421L379 267Z" />
<glyph unicode="f" horiz-adv-x="348" d="M99 0V396H10V493H100V545Q100 609 121 644T177 693T254 707Q285 707 307 702T351 686L311 591Q301 596 290 599T268 603Q244 603 234 587T224 544V493H329V396H224V0H99Z" />
<glyph unicode="g" horiz-adv-x="522" d="M269 -214Q159 -214 96 -175T32 -67Q32 -61 33 -53T36 -36L174 50L205 15L142 -62Q141 -65 141 -67T141 -71Q141 -99 176 -114T269 -129Q318 -129 344 -117T370 -80Q370 -67 363 -59T340 -46T299 -37T237 -28Q191 -23
147 -10T74 30T45 101Q45 140 72 172T143 226L203 178Q176 174 163 160T149 127Q149 111 162 102T199 87T256 78Q307 71 350 63T426 41T476 1T494 -64Q494 -137 436 -175T269 -214ZM259 138Q197 138 151 161T78 225T52 319Q52 374 79 415T153 480T255 503Q309 503
355 480T430 415T459 315Q459 261 434 222T363 160T259 138ZM256 236Q296 236 315 260T335 320Q335 356 314 378T256 401Q219 401 198 378T176 320Q176 285 196 261T256 236ZM425 389L336 447L450 538L513 461L425 389Z" />
<glyph unicode="h" horiz-adv-x="564" d="M61 0V697H186V381L165 378Q178 423 203 450T262 490T330 503Q414 503 461 456T509 322V0H384V276Q384 338 362 366T293 395Q240 395 213 357T186 236V0H61Z" />
<glyph unicode="i" horiz-adv-x="245" d="M60 0V493H184V0H60ZM56 569V697H189V569H56Z" />
<glyph unicode="j" horiz-adv-x="245" d="M63 -214Q43 -214 20 -210T-25 -199V-91Q-12 -95 -1 -96T18 -98Q38 -98 49 -89T60 -51V493H184V-85Q184 -151 151 -182T63 -214ZM57 569V697H190V569H57Z" />
<glyph unicode="k" horiz-adv-x="560" d="M395 0L252 225L175 139V294L364 493H522L343 309L543 0H395ZM61 0V697H186V0H61Z" />
<glyph unicode="l" horiz-adv-x="278" d="M176 -10Q125 -10 92 21T59 119V697H182V143Q182 122 192 114T218 105Q226 105 235 106T254 111V5Q233 -3 213 -6T176 -10Z" />
<glyph unicode="m" horiz-adv-x="843" d="M61 0V493H186V365L159 344Q166 391 183 422T223 470T272 495T323 503Q362 503 397 489T458 439T494 343L420 316Q435 386 463 427T529 485T609 503Q672 503 711 475T768 404T787 311V0H663V281Q663 318 654 343T626 382T579
395Q549 395 528 379T497 331T486 249V0H362V283Q362 339 342 367T282 395Q251 395 230 379T197 331T186 249V0H61Z" />
<glyph unicode="n" horiz-adv-x="564" d="M61 0V493H186V381L166 379Q179 424 204 451T262 490T330 503Q414 503 461 456T509 322V0H384V276Q384 338 362 366T293 395Q257 395 234 379T198 327T186 236V0H61Z" />
<glyph unicode="o" horiz-adv-x="572" d="M287 -10Q215 -10 159 23T71 114T38 247Q38 322 70 379T158 470T287 503Q358 503 414 470T502 380T534 247Q534 173 502 115T414 24T287 -10ZM287 99Q325 99 352 117T394 168T409 247Q409 294 395 326T353 376T287 394Q248
394 220 377T177 327T162 247Q162 201 177 168T220 117T287 99Z" />
<glyph unicode="p" horiz-adv-x="574" d="M61 -204V493H185V361L155 351Q168 410 194 443T255 489T326 503Q391 503 438 470T511 378T536 246Q536 166 508 109T432 21T326 -10Q287 -10 252 6T193 54T159 137L185 133V-204H61ZM292 104Q329 104 355 121T397 171T412
246Q412 290 397 322T356 371T292 389Q256 389 230 371T189 322T174 246Q174 203 188 171T229 122T292 104Z" />
<glyph unicode="q" horiz-adv-x="574" d="M390 -204V133L415 137Q407 87 382 55T323 6T248 -10Q191 -10 143 20T67 108T38 246Q38 320 63 378T136 469T248 503Q285 503 319 490T380 443T419 351L390 361V493H513V-204H390ZM282 104Q319 104 345 121T386 171T401
246Q401 290 387 321T346 371T282 389Q246 389 219 372T178 322T163 246Q163 203 177 171T219 122T282 104Z" />
<glyph unicode="r" horiz-adv-x="426" d="M61 0V493H186V359L167 357Q170 400 193 433T249 484T318 503Q343 503 365 497T412 475L352 363Q341 369 324 374T290 379Q270 379 252 372T219 350T195 310Q191 296 189 275T186 212V0H61Z" />
<glyph unicode="s" horiz-adv-x="472" d="M232 -10Q177 -10 136 6T67 46T21 92L106 166Q123 138 154 115T233 91Q270 91 290 105T311 142Q311 160 298 171T263 190T214 205Q186 213 156 223T101 249T61 292T45 357Q45 422 96 462T231 503Q290 503 338 480T414
412L337 351Q319 380 290 394T227 409Q198 409 180 398T161 368Q161 355 169 346T197 331T249 316Q279 309 311 299T371 272T416 227T433 156Q433 107 408 70T338 11T232 -10Z" />
<glyph unicode="t" horiz-adv-x="367" d="M249 -10Q209 -10 175 5T121 54T100 145V608L226 675V179Q226 136 237 114T283 92Q293 92 305 94T333 100V5Q312 -3 291 -6T249 -10ZM10 396V493H333V396H10Z" />
<glyph unicode="u" horiz-adv-x="564" d="M235 -10Q175 -10 135 14T75 82T55 185V493H179V216Q179 182 187 156T215 114T272 98Q316 98 338 123T369 192T378 297V493H502V0H378V107L395 97Q373 40 330 15T235 -10Z" />
<glyph unicode="v" horiz-adv-x="535" d="M217 0L15 493H151L267 162L385 493H519L319 0H217Z" />
<glyph unicode="w" horiz-adv-x="755" d="M171 0L19 493H151L234 190L323 493H430L519 192L603 493H736L583 0H472L377 317L284 0H171Z" />
<glyph unicode="x" horiz-adv-x="542" d="M20 0L188 249L20 493H167L271 330L375 493H522L352 249L522 0H375L271 166L166 0H20Z" />
<glyph unicode="y" horiz-adv-x="535" d="M101 -204L201 38L15 493H151L267 162L385 493H519L236 -204H101Z" />
<glyph unicode="z" horiz-adv-x="471" d="M35 0V83L308 423L318 390H46V493H432V404L162 63L152 103H432V0H35Z" />
<glyph unicode="{" horiz-adv-x="283" d="M187 -248Q134 -248 105 -211T76 -108V122Q76 154 66 171T42 196T11 205V288Q27 290 41 297T66 322T76 371V601Q76 667 105 704T187 741H267V662H229Q201 662 192 643T182 599V369Q182 318 163 292T112 249V244Q144 228
163 202T182 125V-106Q182 -131 191 -150T229 -169H267V-248H187Z" />
<glyph unicode="|" horiz-adv-x="271" d="M89 -254V746H182V-254H89Z" />
<glyph unicode="}" horiz-adv-x="283" d="M96 -248H16V-169H54Q82 -169 91 -150T100 -106V125Q100 176 119 202T171 244V249Q139 265 120 291T100 369V599Q100 624 91 643T54 662H16V741H96Q149 741 177 704T206 601V371Q206 340 216 323T242 298T272 288V205Q257
204 242 196T217 171T206 122V-108Q206 -173 178 -210T96 -248Z" />
<glyph unicode="~" horiz-adv-x="560" d="M368 147Q331 147 309 158T272 186T247 219T224 247T192 258Q173 258 163 236T152 177H53Q53 252 90 299T192 347Q229 347 252 336T290 308T316 274T338 246T368 234Q386 234 398 261T410 327H509Q509 248 471 198T368 147Z" />
<glyph unicode="&#xa0;" horiz-adv-x="260" />
<glyph unicode="&#xa1;" horiz-adv-x="252" d="M173 281L187 -204H64L78 281H173ZM193 493V361H59V493H193Z" />
<glyph unicode="&#xa2;" horiz-adv-x="560" d="M243 -113V36H335V-113H243ZM243 455V601H335V455H243ZM297 -10Q238 -10 193 11T118 69T72 151T57 247Q57 296 72 342T117 424T193 481T297 503Q372 503 427 467T509 358L401 315Q389 350 365 372T297 395Q257 395
231 374T194 318T182 247Q182 210 193 176T231 120T297 98Q340 98 364 120T401 179L509 136Q483 62 428 26T297 -10Z" />
<glyph unicode="&#xa3;" horiz-adv-x="560" d="M44 0V105Q74 118 101 139T146 186T164 239Q164 250 160 267T153 295H46V400H131Q126 422 119 451T112 509Q112 566 136 612T207 686T319 713Q400 713 455 672T525 560L429 524Q421 567 390 588T322 609Q290 609
266 596T229 561T216 507Q216 481 223 450T239 400H433V295H256Q259 286 263 270T267 238Q267 205 258 179T231 133T187 102T126 86L151 104H526V0H44Z" />
<glyph unicode="&#xa4;" horiz-adv-x="611" d="M120 58L55 127L112 183Q92 212 83 245T73 311Q73 345 83 378T112 439L55 494L122 564L179 505Q238 546 309 546Q342 546 374 536T435 506L492 563L559 496L502 440Q522 412 532 378T542 311Q542 279 532 245T502
182L559 127L493 58L435 116Q407 96 374 86T307 76Q273 76 240 86T177 116L120 58ZM307 170Q347 170 378 190T429 242T448 312Q448 350 429 381T377 432T306 452Q268 452 236 433T185 381T166 309Q166 269 185 238T237 188T307 170Z" />
<glyph unicode="&#xa5;" horiz-adv-x="560" d="M218 0V104H61V204H218V267H61V368H163L2 697H141L280 393L423 697H561L402 368H501V267H348V204H501V104H348V0H218Z" />
<glyph unicode="&#xa6;" horiz-adv-x="271" d="M89 330V746H182V330H89ZM89 -254V155H182V-254H89Z" />
<glyph unicode="&#xa7;" horiz-adv-x="606" d="M296 -216Q232 -216 175 -187T83 -93L191 -27Q209 -62 238 -81T300 -101Q325 -101 344 -92T374 -67T385 -29Q385 0 365 19T314 51T248 78Q215 91 181 107T117 146T69 204T50 288Q50 333 66 369T110 433Q102 449 97
469T91 514Q91 576 121 619T202 684T310 707Q378 707 434 677T523 585L415 519Q399 553 370 572T306 592Q282 592 263 583T232 558T221 520Q221 493 241 474T292 441T357 414Q391 401 425 385T490 346T538 288T556 204Q556 161 541 124T497 59Q505 42 510 22T515
-23Q515 -84 485 -128T405 -194T296 -216ZM410 143Q427 163 427 193Q427 223 409 243T359 279T291 309Q273 316 259 321T230 333T196 349Q188 339 184 326T179 300Q179 277 190 260T221 229T264 205T316 182Q331 177 357 168T410 143Z" />
<glyph unicode="&#xa8;" horiz-adv-x="405" d="M235 569V697H367V569H235ZM38 569V697H171V569H38Z" />
<glyph unicode="&#xa9;" horiz-adv-x="804" d="M403 -5Q330 -5 266 22T153 98T77 211T49 349Q49 422 76 486T152 598T265 674T403 702Q476 702 540 675T652 599T728 486T756 349Q756 276 729 212T653 99T540 23T403 -5ZM404 138Q338 138 295 168T231 246T209 347Q209
401 230 449T294 527T403 558Q465 558 510 528T579 438L483 400Q475 427 455 446T403 465Q371 465 351 448T321 403T312 347Q312 318 321 292T350 249T403 232Q433 232 454 250T482 295L574 260Q555 203 511 171T404 138ZM403 54Q464 54 517 77T611 140T674 234T697
349Q697 410 674 463T611 557T517 621T403 644Q342 644 288 621T194 558T130 464T107 349Q107 288 130 235T193 141T288 77T403 54Z" />
<glyph unicode="&#xaa;" horiz-adv-x="473" d="M199 349Q145 349 109 379T73 460Q73 515 112 540T207 565H307Q307 571 307 578T305 590Q299 615 282 628T233 642Q197 642 176 626T140 589L84 627Q115 670 150 688T230 707Q300 707 338 669T377 567V357H313L311
400Q265 349 199 349ZM215 415Q242 415 262 425T295 456Q300 467 303 478T307 501H212Q182 501 167 489T151 458Q151 440 167 428T215 415Z" />
<glyph unicode="&#xab;" horiz-adv-x="541" d="M515 43L261 252L515 461V329L407 252L515 176V43ZM256 43L2 252L256 461V329L148 252L256 176V43Z" />
<glyph unicode="&#xac;" horiz-adv-x="560" d="M388 22V198H28V296H486V22H388Z" />
<glyph unicode="&#xad;" horiz-adv-x="327" d="M40 249V342H288V249H40Z" />
<glyph unicode="&#xae;" horiz-adv-x="610" d="M305 189Q234 189 175 221T81 311T46 448Q46 526 81 584T175 674T305 707Q377 707 435 675T529 584T564 448Q564 370 529 312T436 221T305 189ZM305 245Q362 245 407 270T480 341T507 448Q507 510 480 555T408 626T305
651Q249 651 203 626T130 556T103 448Q103 387 130 341T203 270T305 245ZM222 305V592H318Q370 592 393 570T416 509Q416 478 402 459T361 430L425 305H366L309 424H276V305H222ZM277 472H312Q332 472 347 479T362 509Q362 531 347 537T312 544H277V472Z" />
<glyph unicode="&#xaf;" horiz-adv-x="352" d="M38 563V636H313V563H38Z" />
<glyph unicode="&#xb0;" horiz-adv-x="422" d="M210 418Q171 418 139 437T86 490T66 563Q66 603 85 635T138 687T210 707Q250 707 283 688T336 635T356 563Q356 523 336 490T283 438T210 418ZM210 502Q228 502 242 510T264 532T272 563Q272 580 264 593T242 615T210
623Q194 623 180 615T158 594T150 563Q150 546 158 532T180 510T210 502Z" />
<glyph unicode="&#xb1;" horiz-adv-x="560" d="M231 129V285H33V383H231V537H330V383H527V285H330V129H231ZM33 -46V52H527V-46H33Z" />
<glyph unicode="&#xb2;" horiz-adv-x="407" d="M48 488V542Q77 559 115 584T188 641T247 707T271 782Q271 809 256 828T206 847Q179 847 163 834T139 799T130 753L65 759Q65 797 81 831T129 886T206 908Q263 908 300 875T337 780Q337 743 320 708T274 642T213
586T147 544L130 548H358V488H48Z" />
<glyph unicode="&#xb3;" horiz-adv-x="400" d="M197 481Q156 481 122 496T67 541T46 615L109 620Q109 582 134 562T198 542Q232 542 259 559T286 614Q286 644 269 658T227 677T179 681V726Q210 726 229 732T255 751T263 780Q263 814 244 829T198 844Q168 844 149
827T128 781L65 785Q65 842 104 874T196 906Q231 906 260 893T308 854T327 794Q327 776 321 760T302 732T270 710Q296 704 313 689T340 653T349 607Q349 566 328 538T273 496T197 481Z" />
<glyph unicode="&#xb4;" horiz-adv-x="321" d="M38 555L150 697H283L129 555H38Z" />
<glyph unicode="&#xb5;" horiz-adv-x="564" d="M55 -162V493H179V212Q179 182 186 156T214 114T273 98Q320 98 342 125T371 198T378 302V493H502V0H378V60Q353 25 317 8T236 -10Q218 -10 204 -5T179 11V-162H55Z" />
<glyph unicode="&#xb6;" horiz-adv-x="615" d="M269 -121V307Q211 307 160 330T77 397T45 502Q45 564 77 607T160 674T269 697H338V-121H269ZM447 -121V697H518V-121H447Z" />
<glyph unicode="&#xb7;" horiz-adv-x="308" d="M89 283V415H213V283H89Z" />
<glyph unicode="&#xb8;" horiz-adv-x="287" d="M135 -259Q104 -259 77 -241T38 -195L107 -165Q110 -174 119 -181T139 -188Q155 -188 165 -177T176 -150Q176 -126 154 -111T94 -97Q92 -96 81 -96T61 -96L121 -1H195L157 -48Q162 -50 169 -51T186 -55Q216 -66 232
-89T249 -145Q249 -176 234 -202T194 -243T135 -259Z" />
<glyph unicode="&#xb9;" horiz-adv-x="260" d="M125 488V818L145 786H28V837H86Q129 837 129 875V902H191V488H125Z" />
<glyph unicode="&#xba;" horiz-adv-x="497" d="M248 351Q196 351 157 375T95 440T72 529Q72 578 94 618T157 682T248 707Q299 707 339 683T401 619T423 529Q423 480 401 440T340 375T248 351ZM248 420Q282 420 302 434T333 474T343 529Q343 560 333 585T303 624T248
639Q215 639 194 625T163 585T153 529Q153 499 162 474T193 435T248 420Z" />
<glyph unicode="&#xbb;" horiz-adv-x="459" d="M-56 43V176L51 252L-56 329V461L197 252L-56 43ZM203 43V176L310 252L203 329V461L456 252L203 43Z" />
<glyph unicode="&#xbc;" horiz-adv-x="764" d="M120 279V607L144 566H15V633H76Q98 633 109 642T120 676V697H204V279H120ZM117 0L540 697H628L205 0H117ZM598 0V99H416V165L601 418H676V167H743V99H676V0H598ZM470 147L463 167H600V342L609 339L470 147Z" />
<glyph unicode="&#xbd;" horiz-adv-x="804" d="M120 279V607L144 566H15V633H76Q98 633 109 642T120 676V697H204V279H120ZM117 0L540 697H628L205 0H117ZM484 0V62Q507 78 539 102T603 155T656 217T677 285Q677 308 665 325T625 342Q601 342 588 330T569 299T561
262L480 268Q480 306 497 341T546 399T627 423Q685 423 722 386T760 288Q760 249 745 214T702 147T635 89T550 43L572 77H776V0H484Z" />
<glyph unicode="&#xbe;" horiz-adv-x="842" d="M183 273Q112 273 69 312T25 413L108 418Q108 388 129 370T186 352Q221 352 240 367T259 409Q259 440 235 452T163 464V530Q185 530 201 535T225 550T234 578Q234 599 221 611T182 624Q156 624 142 610T126 571L44
577Q44 631 84 667T186 703Q244 703 281 671T318 587Q318 559 305 539T272 507Q293 498 308 485T332 452T341 409Q341 349 298 311T183 273ZM195 0L618 697H706L283 0H195ZM676 0V99H494V165L679 418H754V167H821V99H754V0H676ZM548 147L541 167H678V342L687 339L548
147Z" />
<glyph unicode="&#xbf;" horiz-adv-x="414" d="M288 283V244Q288 201 277 172T246 121T206 84T167 53T136 18T124 -28Q124 -69 152 -89T230 -110Q288 -110 318 -80T347 6H457Q457 -65 428 -114T347 -188T228 -214Q171 -214 123 -195T45 -134T16 -26Q16 18 28 47T59
97T99 134T139 165T171 202T183 253V283H288ZM300 493V361H167V493H300Z" />
<glyph unicode="&#xc0;" horiz-adv-x="674" d="M8 0L288 697H385L665 0H524L338 506L149 0H8ZM192 136L232 252H442L484 136H192ZM291 759L147 901H279L383 759H291Z" />
<glyph unicode="&#xc1;" horiz-adv-x="674" d="M8 0L288 697H385L665 0H524L338 506L149 0H8ZM192 136L232 252H442L484 136H192ZM292 759L404 901H537L383 759H292Z" />
<glyph unicode="&#xc2;" horiz-adv-x="674" d="M8 0L288 697H385L665 0H524L338 506L149 0H8ZM192 136L232 252H442L484 136H192ZM181 745L338 920L494 745H395L338 814L281 745H181Z" />
<glyph unicode="&#xc3;" horiz-adv-x="674" d="M8 0L288 697H385L665 0H524L338 506L149 0H8ZM192 136L232 252H442L484 136H192ZM399 742Q376 742 360 748T331 764T309 783T290 799T271 806Q257 806 249 791T241 745H169Q169 806 198 840T276 874Q297 874 312
867T339 851T361 832T380 816T401 809Q412 809 420 825T429 871H504Q504 809 476 776T399 742Z" />
<glyph unicode="&#xc4;" horiz-adv-x="674" d="M8 0L288 697H385L665 0H524L338 506L149 0H8ZM192 136L232 252H442L484 136H192ZM370 773V901H502V773H370ZM173 773V901H306V773H173Z" />
<glyph unicode="&#xc5;" horiz-adv-x="674" d="M8 0L288 697H385L665 0H524L338 506L149 0H8ZM192 136L232 252H442L484 136H192ZM339 632Q306 632 280 648T239 691T223 748Q223 779 238 805T280 847T338 863Q369 863 395 848T438 806T454 748Q454 716 438 690T396
648T339 632ZM339 699Q360 699 373 713T387 749Q387 770 374 783T339 796Q316 796 304 783T291 749Q291 728 304 714T339 699Z" />
<glyph unicode="&#xc6;" horiz-adv-x="928" d="M8 0L288 697H881V581H535V407H839V291H535V116H881V0H405V583H366L149 0H8ZM179 136L220 255H436V136H179Z" />
<glyph unicode="&#xc7;" horiz-adv-x="709" d="M373 -16Q274 -16 199 30T81 158T39 349Q39 458 81 539T198 667T373 713Q484 713 564 658T680 505L558 460Q536 521 489 555T373 589Q311 589 265 560T194 478T169 349Q169 274 193 220T264 137T373 108Q441 108
488 142T558 237L680 193Q645 96 565 40T373 -16ZM337 -204Q325 -204 308 -202T273 -194T243 -180L275 -129Q288 -136 303 -140T331 -145Q348 -145 360 -138T372 -115Q372 -102 363 -94T337 -82T303 -77T266 -76L328 11L387 10L350 -36Q393 -42 418 -62T444 -116Q444
-156 414 -180T337 -204Z" />
<glyph unicode="&#xc8;" horiz-adv-x="578" d="M67 0V697H531V581H196V415H509V300H196V116H531V0H67ZM253 759L109 901H241L345 759H253Z" />
<glyph unicode="&#xc9;" horiz-adv-x="578" d="M67 0V697H531V581H196V415H509V300H196V116H531V0H67ZM253 759L365 901H498L344 759H253Z" />
<glyph unicode="&#xca;" horiz-adv-x="578" d="M67 0V697H531V581H196V415H509V300H196V116H531V0H67ZM143 745L300 920L456 745H357L300 814L243 745H143Z" />
<glyph unicode="&#xcb;" horiz-adv-x="578" d="M67 0V697H531V581H196V415H509V300H196V116H531V0H67ZM332 773V901H464V773H332ZM135 773V901H268V773H135Z" />
<glyph unicode="&#xcc;" horiz-adv-x="263" d="M67 0V697H196V0H67ZM86 759L-58 901H74L178 759H86Z" />
<glyph unicode="&#xcd;" horiz-adv-x="263" d="M67 0V697H196V0H67ZM86 759L198 901H331L177 759H86Z" />
<glyph unicode="&#xce;" horiz-adv-x="263" d="M67 0V697H196V0H67ZM-24 745L133 920L289 745H190L133 814L76 745H-24Z" />
<glyph unicode="&#xcf;" horiz-adv-x="263" d="M67 0V697H196V0H67ZM165 773V901H297V773H165ZM-32 773V901H101V773H-32Z" />
<glyph unicode="&#xd0;" horiz-adv-x="674" d="M67 0V697H270Q444 697 539 605T634 343Q634 177 540 89T269 0H67ZM196 119H256Q335 119 390 139T474 209T504 348Q504 434 476 484T395 556T268 578H196V119ZM260 308V391H588V308H260Z" />
<glyph unicode="&#xd1;" horiz-adv-x="689" d="M67 0V697H200L525 169H493V697H622V0H488L164 529H196V0H67ZM405 742Q382 742 366 748T337 764T315 783T296 799T277 806Q263 806 255 791T247 745H175Q175 806 204 840T282 874Q303 874 318 867T345 851T367 832T386
816T407 809Q418 809 426 825T435 871H510Q510 809 482 776T405 742Z" />
<glyph unicode="&#xd2;" horiz-adv-x="747" d="M373 -16Q274 -16 199 29T81 157T39 348Q39 458 81 540T198 667T373 713Q473 713 548 668T666 540T708 348Q708 239 666 157T548 30T373 -16ZM372 108Q436 108 481 137T552 221T577 348Q577 422 552 476T482 559T372
589Q311 589 265 560T194 477T169 348Q169 274 193 220T264 137T372 108ZM327 759L183 901H315L419 759H327Z" />
<glyph unicode="&#xd3;" horiz-adv-x="747" d="M373 -16Q274 -16 199 29T81 157T39 348Q39 458 81 540T198 667T373 713Q473 713 548 668T666 540T708 348Q708 239 666 157T548 30T373 -16ZM372 108Q436 108 481 137T552 221T577 348Q577 422 552 476T482 559T372
589Q311 589 265 560T194 477T169 348Q169 274 193 220T264 137T372 108ZM327 759L439 901H572L418 759H327Z" />
<glyph unicode="&#xd4;" horiz-adv-x="747" d="M373 -16Q274 -16 199 29T81 157T39 348Q39 458 81 540T198 667T373 713Q473 713 548 668T666 540T708 348Q708 239 666 157T548 30T373 -16ZM372 108Q436 108 481 137T552 221T577 348Q577 422 552 476T482 559T372
589Q311 589 265 560T194 477T169 348Q169 274 193 220T264 137T372 108ZM216 745L373 920L529 745H430L373 814L316 745H216Z" />
<glyph unicode="&#xd5;" horiz-adv-x="747" d="M373 -16Q274 -16 199 29T81 157T39 348Q39 458 81 540T198 667T373 713Q473 713 548 668T666 540T708 348Q708 239 666 157T548 30T373 -16ZM372 108Q436 108 481 137T552 221T577 348Q577 422 552 476T482 559T372
589Q311 589 265 560T194 477T169 348Q169 274 193 220T264 137T372 108ZM435 742Q412 742 396 748T367 764T345 783T326 799T307 806Q293 806 285 791T277 745H205Q205 806 234 840T312 874Q333 874 348 867T375 851T397 832T416 816T437 809Q448 809 456 825T465
871H540Q540 809 512 776T435 742Z" />
<glyph unicode="&#xd6;" horiz-adv-x="747" d="M373 -16Q274 -16 199 29T81 157T39 348Q39 458 81 540T198 667T373 713Q473 713 548 668T666 540T708 348Q708 239 666 157T548 30T373 -16ZM372 108Q436 108 481 137T552 221T577 348Q577 422 552 476T482 559T372
589Q311 589 265 560T194 477T169 348Q169 274 193 220T264 137T372 108ZM406 773V901H538V773H406ZM209 773V901H342V773H209Z" />
<glyph unicode="&#xd7;" horiz-adv-x="560" d="M136 27L60 103L203 247L60 390L136 467L279 323L423 467L499 390L357 247L499 103L423 27L279 169L136 27Z" />
<glyph unicode="&#xd8;" horiz-adv-x="747" d="M373 -16Q274 -16 199 29T81 157T39 348Q39 458 81 540T198 667T373 713Q473 713 548 668T666 540T708 348Q708 239 666 157T548 30T373 -16ZM372 108Q436 108 481 137T552 221T577 348Q577 422 552 476T482 559T372
589Q311 589 265 560T194 477T169 348Q169 274 193 220T264 137T372 108ZM67 0L594 697H679L153 0H67Z" />
<glyph unicode="&#xd9;" horiz-adv-x="657" d="M328 -16Q196 -16 129 51T61 252V697H190V267Q190 213 201 177T243 122T328 103Q382 103 412 121T455 176T467 266V697H596V257Q596 121 528 53T328 -16ZM283 759L139 901H271L375 759H283Z" />
<glyph unicode="&#xda;" horiz-adv-x="657" d="M328 -16Q196 -16 129 51T61 252V697H190V267Q190 213 201 177T243 122T328 103Q382 103 412 121T455 176T467 266V697H596V257Q596 121 528 53T328 -16ZM283 759L395 901H528L374 759H283Z" />
<glyph unicode="&#xdb;" horiz-adv-x="657" d="M328 -16Q196 -16 129 51T61 252V697H190V267Q190 213 201 177T243 122T328 103Q382 103 412 121T455 176T467 266V697H596V257Q596 121 528 53T328 -16ZM173 745L330 920L486 745H387L330 814L273 745H173Z" />
<glyph unicode="&#xdc;" horiz-adv-x="657" d="M328 -16Q196 -16 129 51T61 252V697H190V267Q190 213 201 177T243 122T328 103Q382 103 412 121T455 176T467 266V697H596V257Q596 121 528 53T328 -16ZM362 773V901H494V773H362ZM165 773V901H298V773H165Z" />
<glyph unicode="&#xdd;" horiz-adv-x="625" d="M249 0V273L4 697H152L310 401L474 697H621L378 273V0H249ZM267 759L379 901H512L358 759H267Z" />
<glyph unicode="&#xde;" horiz-adv-x="616" d="M110 0V697H229V601H353Q454 601 510 549T567 404Q567 306 503 251T325 196H229V0H110ZM229 303H325Q383 303 416 326T449 400Q449 453 416 476T325 500H229V303Z" />
<glyph unicode="&#xdf;" horiz-adv-x="651" d="M427 -10Q375 -10 333 9T261 59T219 129L318 173Q325 155 337 137T371 106T425 94Q463 94 480 109T498 144Q498 162 485 173T450 192T402 207T350 224T302 250T267 290T253 351Q253 390 267 415T303 455T349 480T396
498T431 516T445 543Q445 560 430 570T392 585T344 590Q298 590 269 580T223 553T200 516T192 476T191 440V0H61V440Q61 491 72 538T113 623T196 684T334 706Q404 706 456 688T538 635T567 547Q567 509 554 484T518 441T472 412T425 392T389 374T375 351Q375 339
388 332T423 320T471 308T524 291T572 265T607 222T620 156Q620 113 603 82T558 30T496 0T427 -10Z" />
<glyph unicode="&#xe0;" horiz-adv-x="546" d="M377 0L367 74V311Q367 355 340 376T265 398Q226 398 186 383T114 339L51 424Q103 466 157 484T275 503Q377 503 434 452T491 311V0H377ZM228 -10Q174 -10 132 10T65 67T40 152Q40 195 57 225T104 272Q129 287 159
293T225 299H378V207H243Q227 207 212 205T185 193Q175 186 170 176T165 152Q165 124 187 107T246 90Q279 90 306 104T350 144T367 203L400 137Q387 85 361 53T300 5T228 -10ZM229 555L85 697H217L321 555H229Z" />
<glyph unicode="&#xe1;" horiz-adv-x="546" d="M377 0L367 74V311Q367 355 340 376T265 398Q226 398 186 383T114 339L51 424Q103 466 157 484T275 503Q377 503 434 452T491 311V0H377ZM228 -10Q174 -10 132 10T65 67T40 152Q40 195 57 225T104 272Q129 287 159
293T225 299H378V207H243Q227 207 212 205T185 193Q175 186 170 176T165 152Q165 124 187 107T246 90Q279 90 306 104T350 144T367 203L400 137Q387 85 361 53T300 5T228 -10ZM229 555L341 697H474L320 555H229Z" />
<glyph unicode="&#xe2;" horiz-adv-x="546" d="M377 0L367 74V311Q367 355 340 376T265 398Q226 398 186 383T114 339L51 424Q103 466 157 484T275 503Q377 503 434 452T491 311V0H377ZM228 -10Q174 -10 132 10T65 67T40 152Q40 195 57 225T104 272Q129 287 159
293T225 299H378V207H243Q227 207 212 205T185 193Q175 186 170 176T165 152Q165 124 187 107T246 90Q279 90 306 104T350 144T367 203L400 137Q387 85 361 53T300 5T228 -10ZM119 541L276 716L432 541H333L276 610L219 541H119Z" />
<glyph unicode="&#xe3;" horiz-adv-x="546" d="M377 0L367 74V311Q367 355 340 376T265 398Q226 398 186 383T114 339L51 424Q103 466 157 484T275 503Q377 503 434 452T491 311V0H377ZM228 -10Q174 -10 132 10T65 67T40 152Q40 195 57 225T104 272Q129 287 159
293T225 299H378V207H243Q227 207 212 205T185 193Q175 186 170 176T165 152Q165 124 187 107T246 90Q279 90 306 104T350 144T367 203L400 137Q387 85 361 53T300 5T228 -10ZM337 556Q308 556 289 566T257 589T233 613T209 623Q195 623 187 606T179 557H107Q107
626 136 663T214 700Q240 700 258 690T289 666T314 642T339 631Q350 631 358 648T367 697H442Q442 629 414 593T337 556Z" />
<glyph unicode="&#xe4;" horiz-adv-x="546" d="M377 0L367 74V311Q367 355 340 376T265 398Q226 398 186 383T114 339L51 424Q103 466 157 484T275 503Q377 503 434 452T491 311V0H377ZM228 -10Q174 -10 132 10T65 67T40 152Q40 195 57 225T104 272Q129 287 159
293T225 299H378V207H243Q227 207 212 205T185 193Q175 186 170 176T165 152Q165 124 187 107T246 90Q279 90 306 104T350 144T367 203L400 137Q387 85 361 53T300 5T228 -10ZM308 569V697H440V569H308ZM111 569V697H244V569H111Z" />
<glyph unicode="&#xe5;" horiz-adv-x="546" d="M377 0L367 74V311Q367 355 340 376T265 398Q226 398 186 383T114 339L51 424Q103 466 157 484T275 503Q377 503 434 452T491 311V0H377ZM228 -10Q174 -10 132 10T65 67T40 152Q40 195 57 225T104 272Q129 287 159
293T225 299H378V207H243Q227 207 212 205T185 193Q175 186 170 176T165 152Q165 124 187 107T246 90Q279 90 306 104T350 144T367 203L400 137Q387 85 361 53T300 5T228 -10ZM276 526Q243 526 217 542T176 585T160 642Q160 673 175 699T217 741T275 757Q306 757
332 742T375 700T391 642Q391 610 375 584T333 542T276 526ZM276 593Q297 593 310 607T324 643Q324 664 311 677T276 690Q253 690 241 677T228 643Q228 622 241 608T276 593Z" />
<glyph unicode="&#xe6;" horiz-adv-x="857" d="M226 -10Q136 -10 88 36T40 150Q40 195 58 222T106 264T168 285T227 293T267 294H369V311Q369 351 343 373T271 395Q241 395 207 383T143 334L53 410Q104 461 160 482T284 503Q342 503 383 486T444 435Q471 467 507
484T592 502Q651 502 693 483T763 430T804 351T818 254Q818 243 818 231T815 205H483Q487 153 520 126T604 99Q643 99 678 112T742 150L805 66Q769 37 738 21T674 -3T597 -10Q531 -10 487 15T419 84H406Q369 33 325 12T226 -10ZM241 96Q275 96 302 107T346 142T369
199V205H269Q211 205 189 188T167 148Q167 125 186 111T241 96ZM481 296H701Q701 312 694 330T674 363T641 389T594 399Q556 399 532 384T496 345T481 296Z" />
<glyph unicode="&#xe7;" horiz-adv-x="522" d="M278 -10Q218 -10 174 11T99 69T53 151T38 247Q38 296 53 342T98 424T173 481T278 503Q353 503 408 467T490 358L382 315Q370 350 346 372T278 395Q238 395 212 374T174 318T162 247Q162 210 174 176T212 120T278
98Q321 98 345 120T382 179L490 136Q463 62 408 26T278 -10ZM267 -204Q255 -204 238 -202T203 -194T173 -180L205 -129Q218 -136 233 -140T261 -145Q278 -145 290 -138T302 -115Q302 -102 293 -94T267 -82T233 -77T196 -76L258 11L317 10L280 -36Q323 -42 348 -62T374
-116Q374 -156 344 -180T267 -204Z" />
<glyph unicode="&#xe8;" horiz-adv-x="541" d="M281 -10Q217 -10 171 11T96 67T52 148T38 244Q38 292 52 338T94 421T166 480T273 503Q331 503 374 484T445 430T487 349T502 251Q502 244 502 232T499 205H162Q167 152 201 125T288 98Q326 98 362 111T426 150L488
66Q453 39 422 22T358 -2T281 -10ZM379 267Q381 275 382 283T384 298Q384 319 376 337T354 370T321 391T276 399Q239 399 214 384T177 346T161 297H421L379 267ZM228 555L84 697H216L320 555H228Z" />
<glyph unicode="&#xe9;" horiz-adv-x="541" d="M281 -10Q217 -10 171 11T96 67T52 148T38 244Q38 292 52 338T94 421T166 480T273 503Q331 503 374 484T445 430T487 349T502 251Q502 244 502 232T499 205H162Q167 152 201 125T288 98Q326 98 362 111T426 150L488
66Q453 39 422 22T358 -2T281 -10ZM379 267Q381 275 382 283T384 298Q384 319 376 337T354 370T321 391T276 399Q239 399 214 384T177 346T161 297H421L379 267ZM228 555L340 697H473L319 555H228Z" />
<glyph unicode="&#xea;" horiz-adv-x="541" d="M281 -10Q217 -10 171 11T96 67T52 148T38 244Q38 292 52 338T94 421T166 480T273 503Q331 503 374 484T445 430T487 349T502 251Q502 244 502 232T499 205H162Q167 152 201 125T288 98Q326 98 362 111T426 150L488
66Q453 39 422 22T358 -2T281 -10ZM379 267Q381 275 382 283T384 298Q384 319 376 337T354 370T321 391T276 399Q239 399 214 384T177 346T161 297H421L379 267ZM118 541L275 716L431 541H332L275 610L218 541H118Z" />
<glyph unicode="&#xeb;" horiz-adv-x="541" d="M281 -10Q217 -10 171 11T96 67T52 148T38 244Q38 292 52 338T94 421T166 480T273 503Q331 503 374 484T445 430T487 349T502 251Q502 244 502 232T499 205H162Q167 152 201 125T288 98Q326 98 362 111T426 150L488
66Q453 39 422 22T358 -2T281 -10ZM379 267Q381 275 382 283T384 298Q384 319 376 337T354 370T321 391T276 399Q239 399 214 384T177 346T161 297H421L379 267ZM307 569V697H439V569H307ZM110 569V697H243V569H110Z" />
<glyph unicode="&#xec;" horiz-adv-x="245" d="M60 0V493H184V0H60ZM332 555L188 697H320L424 555H332Z" />
<glyph unicode="&#xed;" horiz-adv-x="245" d="M60 0V493H184V0H60ZM77 555L189 697H322L168 555H77Z" />
<glyph unicode="&#xee;" horiz-adv-x="245" d="M60 0V493H184V0H60ZM222 541L379 716L535 541H436L379 610L322 541H222Z" />
<glyph unicode="&#xef;" horiz-adv-x="245" d="M60 0V493H184V0H60ZM411 569V697H543V569H411ZM214 569V697H347V569H214Z" />
<glyph unicode="&#xf0;" horiz-adv-x="602" d="M278 -10Q205 -10 153 19T74 100T47 217Q47 278 68 328T127 415T213 471T315 491Q340 491 363 485T405 467T440 439T465 400Q468 471 445 526T369 614T226 649L236 732Q331 726 395 699T498 625T554 515T571 372Q571
284 551 214T494 93T402 17T278 -10ZM285 97Q335 97 372 122T429 188T449 273Q449 294 442 315T419 353T382 380T328 390Q270 390 234 364T180 298T163 218Q163 179 179 152T224 111T285 97ZM232 529L220 579L572 670L584 619L232 529Z" />
<glyph unicode="&#xf1;" horiz-adv-x="564" d="M61 0V493H186V381L166 379Q179 424 204 451T262 490T330 503Q414 503 461 456T509 322V0H384V276Q384 338 362 366T293 395Q257 395 234 379T198 327T186 236V0H61ZM337 556Q308 556 289 566T257 589T233 613T209
623Q195 623 187 606T179 557H107Q107 626 136 663T214 700Q240 700 258 690T289 666T314 642T339 631Q350 631 358 648T367 697H442Q442 629 414 593T337 556Z" />
<glyph unicode="&#xf2;" horiz-adv-x="572" d="M287 -10Q215 -10 159 23T71 114T38 247Q38 322 70 379T158 470T287 503Q358 503 414 470T502 380T534 247Q534 173 502 115T414 24T287 -10ZM287 99Q325 99 352 117T394 168T409 247Q409 294 395 326T353 376T287
394Q248 394 220 377T177 327T162 247Q162 201 177 168T220 117T287 99ZM240 555L96 697H228L332 555H240Z" />
<glyph unicode="&#xf3;" horiz-adv-x="572" d="M287 -10Q215 -10 159 23T71 114T38 247Q38 322 70 379T158 470T287 503Q358 503 414 470T502 380T534 247Q534 173 502 115T414 24T287 -10ZM287 99Q325 99 352 117T394 168T409 247Q409 294 395 326T353 376T287
394Q248 394 220 377T177 327T162 247Q162 201 177 168T220 117T287 99ZM241 555L353 697H486L332 555H241Z" />
<glyph unicode="&#xf4;" horiz-adv-x="572" d="M287 -10Q215 -10 159 23T71 114T38 247Q38 322 70 379T158 470T287 503Q358 503 414 470T502 380T534 247Q534 173 502 115T414 24T287 -10ZM287 99Q325 99 352 117T394 168T409 247Q409 294 395 326T353 376T287
394Q248 394 220 377T177 327T162 247Q162 201 177 168T220 117T287 99ZM130 541L287 716L443 541H344L287 610L230 541H130Z" />
<glyph unicode="&#xf5;" horiz-adv-x="572" d="M287 -10Q215 -10 159 23T71 114T38 247Q38 322 70 379T158 470T287 503Q358 503 414 470T502 380T534 247Q534 173 502 115T414 24T287 -10ZM287 99Q325 99 352 117T394 168T409 247Q409 294 395 326T353 376T287
394Q248 394 220 377T177 327T162 247Q162 201 177 168T220 117T287 99ZM348 556Q319 556 300 566T268 589T244 613T220 623Q206 623 198 606T190 557H118Q118 626 147 663T225 700Q251 700 269 690T300 666T325 642T350 631Q361 631 369 648T378 697H453Q453 629
425 593T348 556Z" />
<glyph unicode="&#xf6;" horiz-adv-x="572" d="M287 -10Q215 -10 159 23T71 114T38 247Q38 322 70 379T158 470T287 503Q358 503 414 470T502 380T534 247Q534 173 502 115T414 24T287 -10ZM287 99Q325 99 352 117T394 168T409 247Q409 294 395 326T353 376T287
394Q248 394 220 377T177 327T162 247Q162 201 177 168T220 117T287 99ZM319 569V697H451V569H319ZM122 569V697H255V569H122Z" />
<glyph unicode="&#xf7;" horiz-adv-x="560" d="M56 198V296H504V198H56ZM208 12V147H352V12H208ZM208 348V482H352V348H208Z" />
<glyph unicode="&#xf8;" horiz-adv-x="572" d="M287 -10Q215 -10 159 23T71 114T38 247Q38 322 70 379T158 470T287 503Q358 503 414 470T502 380T534 247Q534 173 502 115T414 24T287 -10ZM287 99Q325 99 352 117T394 168T409 247Q409 294 395 326T353 376T287
394Q248 394 220 377T177 327T162 247Q162 201 177 168T220 117T287 99ZM81 213L431 791H492L142 213H81Z" />
<glyph unicode="&#xf9;" horiz-adv-x="564" d="M235 -10Q175 -10 135 14T75 82T55 185V493H179V216Q179 182 187 156T215 114T272 98Q316 98 338 123T369 192T378 297V493H502V0H378V107L395 97Q373 40 330 15T235 -10ZM232 555L88 697H220L324 555H232Z" />
<glyph unicode="&#xfa;" horiz-adv-x="564" d="M235 -10Q175 -10 135 14T75 82T55 185V493H179V216Q179 182 187 156T215 114T272 98Q316 98 338 123T369 192T378 297V493H502V0H378V107L395 97Q373 40 330 15T235 -10ZM232 555L344 697H477L323 555H232Z" />
<glyph unicode="&#xfb;" horiz-adv-x="564" d="M235 -10Q175 -10 135 14T75 82T55 185V493H179V216Q179 182 187 156T215 114T272 98Q316 98 338 123T369 192T378 297V493H502V0H378V107L395 97Q373 40 330 15T235 -10ZM121 541L278 716L434 541H335L278 610L221
541H121Z" />
<glyph unicode="&#xfc;" horiz-adv-x="564" d="M235 -10Q175 -10 135 14T75 82T55 185V493H179V216Q179 182 187 156T215 114T272 98Q316 98 338 123T369 192T378 297V493H502V0H378V107L395 97Q373 40 330 15T235 -10ZM311 569V697H443V569H311ZM114 569V697H247V569H114Z"
/>
<glyph unicode="&#xfd;" horiz-adv-x="535" d="M101 -204L201 38L15 493H151L267 162L385 493H519L236 -204H101ZM222 555L334 697H467L313 555H222Z" />
<glyph unicode="&#xfe;" horiz-adv-x="611" d="M89 -204V697H214V361L188 389Q201 429 228 454T289 491T359 503Q424 503 469 469T537 376T560 245Q560 163 533 106T461 20T359 -10Q322 -10 287 4T227 42T192 99L214 133V-204H89ZM324 98Q363 98 388 115T425 166T437
247Q437 294 426 327T390 377T326 394Q282 394 255 375T215 322T202 247Q202 206 215 172T255 118T324 98Z" />
<glyph unicode="&#xff;" horiz-adv-x="535" d="M101 -204L201 38L15 493H151L267 162L385 493H519L236 -204H101ZM301 569V697H433V569H301ZM104 569V697H237V569H104Z" />
<glyph unicode="&#x2013;" horiz-adv-x="428" d="M24 249V342H404V249H24Z" />
<glyph unicode="&#x2014;" horiz-adv-x="1058" d="M24 249V342H1034V249H24Z" />
<glyph unicode="&#x2018;" horiz-adv-x="270" d="M27 418L153 697H235L171 418H27Z" />
<glyph unicode="&#x2019;" horiz-adv-x="270" d="M34 419L98 697H242L116 419H34Z" />
<glyph unicode="&#x201a;" horiz-adv-x="285" d="M43 -149L106 131H251L124 -149H43Z" />
<glyph unicode="&#x201c;" horiz-adv-x="462" d="M221 418L345 697H428L365 418H221ZM27 418L152 697H235L171 418H27Z" />
<glyph unicode="&#x201d;" horiz-adv-x="463" d="M228 419L292 697H435L310 419H228ZM34 419L98 697H242L116 419H34Z" />
<glyph unicode="&#x201e;" horiz-adv-x="437" d="M221 -149L284 131H428L303 -149H221ZM17 -149L80 131H225L98 -149H17Z" />
<glyph unicode="&#x2022;" horiz-adv-x="384" d="M66 121V374H318V121H66Z" />
<glyph unicode="&#x2039;" horiz-adv-x="282" d="M256 43L2 252L256 461V329L148 252L256 176V43Z" />
<glyph unicode="&#x203a;" horiz-adv-x="283" d="M26 43V176L133 252L26 329V461L280 252L26 43Z" />
</font>
</defs>
</svg>
