<?xml version="1.0" standalone="no"?>
<!DOCTYPE svg PUBLIC "-//W3C//DTD SVG 1.1//EN" "http://www.w3.org/Graphics/SVG/1.1/DTD/svg11.dtd">
<svg xmlns="http://www.w3.org/2000/svg">
<defs >
<font id="HankenGrotesk" horiz-adv-x="545" ><font-face
    font-family="Hanken Grotesk Black"
    units-per-em="1000"
    panose-1="0 0 0 0 0 0 0 0 0 0"
    ascent="1000"
    descent="-303"
    alphabetic="0" />
<glyph unicode=" " horiz-adv-x="260" />
<glyph unicode="!" horiz-adv-x="260" d="M73 219L56 697H205L187 219H73ZM52 0V142H208V0H52Z" />
<glyph unicode="&quot;" horiz-adv-x="385" d="M39 407V697H165V407H39ZM219 407V697H346V407H219Z" />
<glyph unicode="#" horiz-adv-x="691" d="M106 0L150 200H39V306H172L192 400H79V511H215L260 697H379L334 506H428L470 697H589L543 506H653V400H521L499 306H613V200H477L433 0H316L360 200H265L223 0H106ZM291 306H385L403 400H309L291 306Z" />
<glyph unicode="$" horiz-adv-x="560" d="M229 -118V55H341V-118H229ZM229 636V808H341V636H229ZM291 -15Q175 -15 101 45T11 205L164 243Q175 183 209 154T296 124Q322 124 342 132T375 156T387 194Q387 214 375 229T336 259T264 291Q193 319 148 350T82 423T61
517Q61 575 89 619T169 689T289 715Q362 715 418 682T509 580L384 504Q365 539 340 557T284 576Q266 576 251 569T227 550T218 520Q218 503 228 488T267 458T345 423Q412 398 455 368T521 299T543 204Q543 140 512 91T424 13T291 -15Z" />
<glyph unicode="%" horiz-adv-x="727" d="M89 0L525 697H631L195 0H89ZM545 -11Q503 -11 469 8T414 65T394 153Q394 203 413 239T467 295T542 315Q585 315 619 294T673 235T693 152Q693 107 674 70T621 11T545 -11ZM545 90Q559 90 569 98T586 120T592 152Q592
173 586 186T568 207T542 214Q530 214 519 208T502 189T495 153Q495 130 502 116T520 96T545 90ZM187 382Q145 382 111 401T56 458T35 545Q35 596 55 632T109 688T184 708Q227 708 261 687T314 628T334 544Q334 500 315 463T263 404T187 382ZM187 483Q200 483 210
491T227 513T233 544Q233 565 227 579T209 600T184 607Q171 607 160 601T143 582T136 545Q136 523 143 509T161 489T187 483Z" />
<glyph unicode="&amp;" horiz-adv-x="710" d="M279 -13Q212 -13 157 7T70 67T37 168Q37 215 56 250T107 313T174 363T245 406Q283 429 311 450T354 493T370 538Q370 558 358 573T319 588Q296 588 279 575T261 533Q261 514 271 495T295 461T317 437L198 376Q184
389 165 412T131 466T116 536Q116 591 144 628T219 686T318 706Q402 706 456 663T510 540Q510 483 480 440T406 363T316 300Q281 277 253 258T209 219T193 175Q193 147 216 131T279 115Q371 115 431 185T526 383L660 361Q635 234 580 151T447 28T279 -13ZM573 -40L270
303L390 376L680 55L573 -40Z" />
<glyph unicode="&apos;" horiz-adv-x="205" d="M39 407V697H166V407H39Z" />
<glyph unicode="(" horiz-adv-x="314" d="M164 -204Q133 -163 110 -112T71 -2T48 119T40 246Q40 332 53 414T95 569T164 697H299Q252 639 221 566T174 411T158 247Q158 184 167 123T193 3T237 -107T299 -204H164Z" />
<glyph unicode=")" horiz-adv-x="314" d="M150 -204H15Q50 -160 76 -108T120 3T147 122T156 247Q156 330 141 411T94 565T15 697H150Q192 642 219 570T260 415T274 246Q274 182 267 120T244 -1T205 -111T150 -204Z" />
<glyph unicode="*" horiz-adv-x="400" d="M140 373L67 428L158 519L31 539L58 629L174 570L154 697H246L226 570L342 629L369 539L242 519L333 428L260 373L200 489L140 373Z" />
<glyph unicode="+" horiz-adv-x="560" d="M221 0V188H33V306H221V494H340V306H528V188H340V0H221Z" />
<glyph unicode="," horiz-adv-x="240" d="M26 -145L78 162H247L124 -145H26Z" />
<glyph unicode="-" horiz-adv-x="327" d="M40 234V346H288V234H40Z" />
<glyph unicode="." horiz-adv-x="240" d="M43 0V142H197V0H43Z" />
<glyph unicode="/" horiz-adv-x="422" d="M-69 -212L295 697H408L43 -212H-69Z" />
<glyph unicode="0" horiz-adv-x="560" d="M280 -10Q210 -10 164 14T91 77T49 164T31 261T27 353Q27 393 31 440T48 535T89 622T163 685T280 709Q351 709 397 685T471 622T512 535T529 440T533 353Q533 311 529 262T511 165T470 78T396 14T280 -10ZM280 134Q324
134 345 164T372 243T379 348Q379 407 373 456T345 534T280 564Q247 564 227 547T198 500T185 431T181 348Q181 306 184 268T197 199T227 152T280 134Z" />
<glyph unicode="1" horiz-adv-x="560" d="M258 0V544L301 471H82V590H181Q219 590 238 606T258 665V697H409V0H258Z" />
<glyph unicode="2" horiz-adv-x="560" d="M36 0V110Q66 131 106 160T189 224T268 299T328 383T351 471Q351 507 333 533T272 559Q234 559 214 539T186 489T175 432L27 444Q27 490 43 536T90 620T168 682T276 705Q341 705 392 677T472 597T501 476Q501 426 486
379T441 289T370 207T274 135T156 76L196 140H528V0H36Z" />
<glyph unicode="3" horiz-adv-x="560" d="M274 -10Q194 -10 134 19T41 102T7 227L157 236Q157 190 190 162T279 134Q315 134 339 144T377 173T390 220Q390 242 382 258T355 284T308 299T241 304V422Q268 422 288 426T322 440T342 463T349 496Q349 518 340 532T314
555T273 563Q233 563 210 542T186 483L37 493Q37 555 68 603T153 679T278 707Q344 707 394 682T472 614T500 512Q500 491 496 472T483 436T462 406T433 381Q459 370 479 354T513 317T534 272T541 219Q541 151 508 100T414 19T274 -10Z" />
<glyph unicode="4" horiz-adv-x="560" d="M295 0V163H3V278L316 697H446V303H556V163H446V0H295ZM117 251L118 303H295V556L316 532L117 251Z" />
<glyph unicode="5" horiz-adv-x="560" d="M276 -11Q207 -11 151 18T59 97T15 206L163 231Q164 211 175 188T211 149T274 133Q314 133 336 150T369 194T379 247Q379 272 370 294T337 331T274 346Q234 346 210 329T174 292L35 326L105 697H509V557H161L241 620L200
411L150 425Q189 467 227 477T295 487Q368 487 423 454T508 365T539 247Q539 197 520 151T466 69T383 11T276 -11Z" />
<glyph unicode="6" horiz-adv-x="560" d="M437 697L268 448L249 472Q263 474 276 475T302 477Q371 477 426 446T512 360T544 238Q544 164 508 108T413 21T281 -11Q209 -11 149 20T52 108T16 237Q16 272 26 306T56 371L263 697H437ZM281 344Q250 344 225 332T185
296T170 238Q170 205 185 182T225 146T281 133Q312 133 336 145T376 181T391 238Q391 272 377 295T337 331T281 344Z" />
<glyph unicode="7" horiz-adv-x="560" d="M75 0L383 617L426 557H28V697H533V589L243 0H75Z" />
<glyph unicode="8" horiz-adv-x="560" d="M280 -11Q209 -11 147 13T47 87T9 211Q9 262 29 305T93 379Q68 402 54 431T40 500Q40 565 73 611T162 683T280 708Q343 708 397 683T485 612T518 500Q518 460 505 431T467 379Q511 348 531 305T551 211Q551 137 513 88T414
14T280 -11ZM280 132Q316 132 343 142T385 174T400 226Q400 257 385 277T342 308T280 319Q245 319 218 309T176 278T160 226Q160 195 175 174T217 143T280 132ZM280 421Q320 421 344 439T369 490Q369 524 346 544T280 564Q252 564 232 555T202 530T191 490Q191
458 215 440T280 421Z" />
<glyph unicode="9" horiz-adv-x="560" d="M123 0L292 249L311 225Q298 223 285 222T258 220Q189 220 135 251T48 337T16 459Q16 533 52 589T148 676T279 708Q352 708 412 677T508 589T544 460Q544 426 534 392T504 326L297 0H123ZM279 353Q310 353 335 365T375
401T390 459Q390 493 375 516T335 551T279 564Q249 564 224 552T184 516T169 459Q169 426 183 402T223 366T279 353Z" />
<glyph unicode=":" horiz-adv-x="240" d="M42 327V471H198V327H42ZM42 0V142H198V0H42Z" />
<glyph unicode=";" horiz-adv-x="240" d="M5 -145L58 131H227L105 -145H5ZM57 327V471H214V327H57Z" />
<glyph unicode="&lt;" horiz-adv-x="560" d="M536 -30L31 164V331L536 523V396L66 224V271L536 98V-30Z" />
<glyph unicode="=" horiz-adv-x="560" d="M67 308V427H493V308H67ZM67 67V185H493V67H67Z" />
<glyph unicode="&gt;" horiz-adv-x="560" d="M24 -30V98L494 271V224L24 396V523L529 331V164L24 -30Z" />
<glyph unicode="?" horiz-adv-x="514" d="M190 217V243Q190 288 201 319T231 373T269 412T308 444T337 476T349 518Q349 551 326 567T261 583Q209 583 184 557T159 477H26Q26 551 56 602T140 681T264 708Q321 708 370 689T449 628T480 515Q480 471 468 441T438
390T399 353T360 321T329 283T317 232V217H190ZM178 0V142H333V0H178Z" />
<glyph unicode="@" horiz-adv-x="873" d="M438 -115Q354 -115 283 -86T157 -4T73 118T43 269Q43 358 72 432T154 560T279 644T438 674Q524 674 596 646T721 568T803 449T832 298Q832 229 813 182T756 110T663 85Q622 85 588 100T533 139T513 194V219L547 172Q530
130 489 106T394 82Q341 82 300 106T237 172T214 271Q214 328 236 371T300 438T394 462Q435 462 466 446T521 391L498 405L518 455H631V259Q631 226 640 213T674 199Q700 199 712 221T724 296Q724 356 704 405T645 490T555 545T439 564Q375 564 323 543T232 483T174
390T153 270Q153 212 174 162T235 74T326 15T439 -6Q527 -6 604 44L655 -52Q608 -83 552 -99T438 -115ZM426 199Q447 199 462 208T486 233T494 271Q494 294 486 310T462 336T426 345Q405 345 390 336T366 311T357 271Q357 249 365 233T389 208T426 199Z" />
<glyph unicode="A" horiz-adv-x="698" d="M2 0L292 697H407L696 0H525L350 463L173 0H2ZM210 118L259 258H440L491 118H210Z" />
<glyph unicode="B" horiz-adv-x="618" d="M59 0V697H319Q426 697 487 650T548 520Q548 474 530 438T480 379Q535 355 560 313T586 209Q586 112 525 56T356 0H59ZM216 144H343Q429 144 429 216Q429 251 407 270T343 289H216V144ZM216 429H319Q353 429 372 446T391
495Q391 523 373 538T319 553H216V429Z" />
<glyph unicode="C" horiz-adv-x="713" d="M373 -18Q272 -18 195 28T75 156T32 349Q32 459 75 541T195 669T373 715Q488 715 571 658T690 499L542 446Q522 502 479 533T373 565Q317 565 276 539T212 465T189 349Q189 281 211 233T275 158T373 132Q435 132 478 163T542
251L690 198Q654 98 571 40T373 -18Z" />
<glyph unicode="D" horiz-adv-x="668" d="M59 0V697H269Q444 697 540 605T636 343Q636 177 542 89T268 0H59ZM216 144H252Q323 144 373 160T451 220T478 349Q478 430 453 474T380 536T266 553H216V144Z" />
<glyph unicode="E" horiz-adv-x="573" d="M59 0V697H527V557H216V429H512V289H216V140H527V0H59Z" />
<glyph unicode="F" horiz-adv-x="553" d="M59 0V697H531V557H216V429H490V289H216V0H59Z" />
<glyph unicode="G" horiz-adv-x="738" d="M363 -18Q267 -18 193 28T75 156T32 349Q32 459 75 541T195 669T373 715Q488 715 571 658T690 499L542 446Q522 502 479 533T373 565Q317 565 276 539T212 465T189 349Q189 281 211 233T275 158T373 132Q403 132 434 140T491
169T534 228T551 324V357L586 247H383V387H690V0H552L530 98L557 76Q538 47 510 26T445 -7T363 -18Z" />
<glyph unicode="H" horiz-adv-x="703" d="M59 0V697H216V432H487V697H644V0H487V288H216V0H59Z" />
<glyph unicode="I" horiz-adv-x="275" d="M59 0V697H216V0H59Z" />
<glyph unicode="J" horiz-adv-x="558" d="M260 -18Q155 -18 90 46T16 225L171 242Q175 179 196 153T260 127Q311 127 328 159T346 247V557H95V697H504V238Q504 160 474 103T389 14T260 -18Z" />
<glyph unicode="K" horiz-adv-x="682" d="M185 202V400L464 697H675L185 202ZM59 0V697H216V0H59ZM491 0L281 335L398 444L677 0H491Z" />
<glyph unicode="L" horiz-adv-x="510" d="M59 0V697H216V140H502V0H59Z" />
<glyph unicode="M" horiz-adv-x="868" d="M59 0V697H288L448 221H420L580 697H809V0H652V513L667 510L510 63H358L201 510L216 513V0H59Z" />
<glyph unicode="N" horiz-adv-x="698" d="M59 0V697H219L523 206H482V697H639V0H478L176 492H216V0H59Z" />
<glyph unicode="O" horiz-adv-x="747" d="M373 -18Q272 -18 195 28T75 156T32 348Q32 458 75 540T195 669T373 715Q475 715 552 670T672 542T715 348Q715 238 672 156T551 28T373 -18ZM373 132Q430 132 471 158T534 233T557 348Q557 415 535 463T471 538T373 565Q317
565 276 539T212 465T189 348Q189 281 211 233T275 158T373 132Z" />
<glyph unicode="P" horiz-adv-x="567" d="M59 0V697H304Q425 697 485 647T546 492Q546 388 485 334T304 280H215V0H59ZM215 420H288Q336 420 362 434T389 490Q389 530 365 543T288 557H215V420Z" />
<glyph unicode="Q" horiz-adv-x="793" d="M373 -18Q273 -18 196 27T76 155T32 348Q32 458 75 540T195 669T373 715Q475 715 552 670T672 542T715 348Q715 238 672 156T551 28T373 -18ZM667 -62L373 221L464 318L761 29L667 -62ZM373 132Q430 132 471 158T534 233T557
348Q557 415 535 463T471 538T373 565Q317 565 276 539T212 465T189 348Q189 281 211 233T275 158T373 132Z" />
<glyph unicode="R" horiz-adv-x="621" d="M59 0V697H304Q392 697 445 672T522 600T546 491Q546 389 488 336T325 277Q297 277 271 277T230 277H216V0H59ZM430 0L259 294L420 313L612 0H430ZM216 417H288Q313 417 336 421T374 441T389 489Q389 521 374 535T336
553T288 557H216V417Z" />
<glyph unicode="S" horiz-adv-x="583" d="M301 -15Q185 -15 111 45T21 205L174 243Q185 183 219 154T306 124Q332 124 352 132T385 156T397 194Q397 214 385 229T346 259T274 291Q203 319 158 350T92 423T71 517Q71 575 99 619T179 689T299 715Q372 715 428 682T519
580L394 504Q375 539 350 557T294 576Q276 576 261 569T237 550T228 520Q228 503 238 488T277 458T355 423Q422 398 465 368T531 299T553 204Q553 140 522 91T434 13T301 -15Z" />
<glyph unicode="T" horiz-adv-x="582" d="M212 0V557H8V697H574V557H371V0H212Z" />
<glyph unicode="U" horiz-adv-x="658" d="M329 -18Q192 -18 123 49T53 252V697H210V270Q210 222 218 190T253 142T329 126Q379 126 404 142T439 189T448 268V697H605V257Q605 118 536 50T329 -18Z" />
<glyph unicode="V" horiz-adv-x="682" d="M284 0L3 697H176L368 193H317L505 697H679L399 0H284Z" />
<glyph unicode="W" horiz-adv-x="994" d="M220 0L7 697H171L305 242L420 655H574L689 242L823 697H987L774 0H623L484 468H510L371 0H220Z" />
<glyph unicode="X" horiz-adv-x="689" d="M9 0L236 346L8 697H196L345 455L494 697H681L453 346L681 0H493L344 233L197 0H9Z" />
<glyph unicode="Y" horiz-adv-x="640" d="M243 0V275L-2 697H178L318 431L463 697H641L400 275V0H243Z" />
<glyph unicode="Z" horiz-adv-x="621" d="M25 0V127L422 607L446 557H48V697H581V569L198 108L176 140H595V0H25Z" />
<glyph unicode="[" horiz-adv-x="327" d="M73 -249V742H302V642H195V-149H302V-249H73Z" />
<glyph unicode="\" horiz-adv-x="479" d="M548 -212H436L71 697H184L548 -212Z" />
<glyph unicode="]" horiz-adv-x="327" d="M254 -249H25V-149H132V642H25V742H254V-249Z" />
<glyph unicode="^" horiz-adv-x="677" d="M30 197L243 697H433L647 197H488L316 626H360L190 197H30Z" />
<glyph unicode="_" horiz-adv-x="551" d="M60 -114V0H491V-114H60Z" />
<glyph unicode="`" horiz-adv-x="326" d="M184 554L31 697H191L295 554H184Z" />
<glyph unicode="a" horiz-adv-x="550" d="M364 0L352 58V313Q352 348 327 363T265 378Q226 378 182 364T108 328L44 434Q103 473 158 488T278 504Q383 504 442 453T502 313V0H364ZM225 -11Q172 -11 129 9T60 68T34 156Q34 199 52 231T102 280Q125 293 154 299T216
305H364V194H238Q226 194 217 192T200 185Q193 180 189 173T185 156Q185 135 202 123T249 110Q277 110 300 121T338 153T352 199L384 114Q365 63 339 36T283 -1T225 -11Z" />
<glyph unicode="b" horiz-adv-x="566" d="M334 -11Q304 -11 272 1T213 48T173 152L204 122V0H54V697H204V369L177 347Q185 406 209 440T266 489T334 504Q390 504 435 474T508 387T535 247Q535 173 512 115T443 23T334 -11ZM287 127Q318 127 339 141T372 182T384
247Q384 285 373 311T340 352T287 366Q257 366 235 352T202 311T190 247Q190 210 201 183T235 142T287 127Z" />
<glyph unicode="c" horiz-adv-x="525" d="M279 -11Q216 -11 170 11T92 70T46 153T31 247Q31 295 46 341T92 423T169 482T279 504Q357 504 414 467T499 354L368 302Q358 333 338 353T279 373Q244 373 223 355T192 307T182 247Q182 216 191 187T222 139T279 120Q317
120 337 140T368 191L499 139Q471 63 414 26T279 -11Z" />
<glyph unicode="d" horiz-adv-x="566" d="M232 -11Q168 -11 123 22T55 114T31 247Q31 330 58 387T131 474T232 504Q267 504 300 489T357 440T389 347L362 369V697H512V0H362V122L393 152Q381 83 354 48T295 1T232 -11ZM279 127Q310 127 331 141T364 183T376 247Q376
284 365 310T332 351T279 366Q249 366 227 352T194 312T182 247Q182 209 193 182T227 141T279 127Z" />
<glyph unicode="e" horiz-adv-x="542" d="M282 -11Q214 -11 166 10T88 68T45 150T31 244Q31 290 44 336T86 420T161 481T274 504Q332 504 376 485T449 430T494 347T509 242Q509 232 509 221T506 194H182Q188 154 219 136T292 118Q328 118 366 130T432 165L496
59Q457 33 425 18T360 -4T282 -11ZM361 269Q363 277 364 285T366 300Q366 319 359 333T340 358T311 373T277 379Q244 379 224 367T193 338T180 305H411L361 269Z" />
<glyph unicode="f" horiz-adv-x="357" d="M91 0V376H10V493H92V537Q92 606 115 643T175 694T256 708Q289 708 313 702T359 686L311 571Q302 576 293 579T273 583Q254 583 248 570T242 536V493H340V376H242V0H91Z" />
<glyph unicode="g" horiz-adv-x="528" d="M268 -215Q155 -215 91 -176T26 -68Q26 -61 27 -53T30 -35L179 49L211 5L153 -66Q152 -68 152 -69T152 -73Q152 -92 182 -104T268 -116Q312 -116 332 -106T352 -79Q352 -71 348 -66T331 -57T295 -50T236 -42Q190 -37 145
-24T70 17T40 91Q40 133 68 168T144 225L207 168Q186 166 173 154T159 126Q159 112 171 104T207 92T261 84Q315 78 359 70T436 48T485 8T502 -59Q502 -135 442 -175T268 -215ZM259 127Q194 127 146 151T70 218T43 314Q43 372 72 414T149 480T254 504Q310 504 358
481T437 413T467 309Q467 254 441 213T368 150T259 127ZM256 245Q289 245 303 265T317 314Q317 343 301 361T256 379Q226 379 210 361T194 314Q194 286 208 266T256 245ZM433 381L324 450L445 545L522 452L433 381Z" />
<glyph unicode="h" horiz-adv-x="576" d="M54 0V697H205V377H185Q197 427 223 454T281 493T345 504Q431 504 479 457T527 328V0H376V272Q376 325 358 349T298 373Q250 373 228 339T205 230V0H54Z" />
<glyph unicode="i" horiz-adv-x="258" d="M53 0V493H204V0H53ZM52 561V697H206V561H52Z" />
<glyph unicode="j" horiz-adv-x="258" d="M71 -215Q49 -215 24 -211T-25 -199V-69Q-14 -71 -4 -72T15 -74Q33 -74 43 -68T53 -36V493H204V-78Q204 -148 167 -181T71 -215ZM52 561V697H206V561H52Z" />
<glyph unicode="k" horiz-adv-x="578" d="M386 0L258 206L194 131V318L357 493H548L368 307L565 0H386ZM54 0V697H205V0H54Z" />
<glyph unicode="l" horiz-adv-x="286" d="M179 -11Q125 -11 88 21T51 125V697H201V155Q201 140 209 134T231 128Q239 128 246 129T262 133V5Q239 -4 218 -7T179 -11Z" />
<glyph unicode="m" horiz-adv-x="853" d="M54 0V493H205V364L171 329Q178 384 196 418T238 471T289 497T340 504Q374 504 410 491T474 443T514 341L423 299Q438 382 470 426T542 487T619 504Q684 504 724 476T784 406T804 318V0H653V281Q653 313 645 333T621 363T583
373Q556 373 539 359T513 315T504 239V0H354V281Q354 327 337 350T288 373Q260 373 242 359T214 315T205 239V0H54Z" />
<glyph unicode="n" horiz-adv-x="576" d="M54 0V493H205V377H185Q197 427 223 454T281 493T345 504Q431 504 479 457T527 328V0H376V272Q376 325 358 349T298 373Q266 373 246 358T215 312T205 230V0H54Z" />
<glyph unicode="o" horiz-adv-x="569" d="M285 -11Q212 -11 155 22T64 114T31 247Q31 322 64 380T154 471T285 504Q358 504 415 471T505 380T538 247Q538 173 505 115T415 23T285 -11ZM285 121Q318 121 341 135T375 178T387 247Q387 288 376 315T341 357T285 372Q252
372 229 358T194 316T182 247Q182 207 194 179T229 136T285 121Z" />
<glyph unicode="p" horiz-adv-x="566" d="M54 -204V493H204V371L173 341Q186 411 212 445T271 492T334 504Q398 504 443 471T511 379T535 246Q535 164 508 107T436 19T334 -11Q300 -11 267 4T209 53T177 146L204 124V-204H54ZM287 127Q318 127 339 141T372 182T384
246Q384 284 373 311T340 352T287 366Q257 366 235 352T202 311T190 246Q190 209 201 183T235 142T287 127Z" />
<glyph unicode="q" horiz-adv-x="566" d="M362 -204V124L389 146Q381 88 357 54T300 4T232 -11Q177 -11 131 19T58 106T31 246Q31 320 54 378T123 470T232 504Q262 504 294 492T354 446T393 341L362 371V493H512V-204H362ZM279 127Q310 127 331 141T364 182T376
246Q376 284 365 310T332 351T279 366Q249 366 227 352T194 311T182 246Q182 209 193 182T227 141T279 127Z" />
<glyph unicode="r" horiz-adv-x="439" d="M54 0V493H206V358H188Q189 400 209 433T262 485T330 504Q356 504 379 497T429 472L357 336Q347 343 329 348T293 354Q276 354 261 348T234 330T215 298Q210 284 208 263T205 199V0H54Z" />
<glyph unicode="s" horiz-adv-x="473" d="M230 -11Q172 -11 130 5T60 45T14 86L116 176Q133 155 160 132T231 109Q261 109 277 120T293 145Q293 157 282 165T253 179T212 192Q184 200 154 210T97 238T54 283T37 351Q37 420 90 462T232 504Q293 504 342 481T421
415L329 341Q311 365 284 379T228 393Q206 393 192 385T178 365Q178 357 184 351T208 340T255 326Q284 319 316 309T376 282T423 235T441 162Q441 111 415 72T341 11T230 -11Z" />
<glyph unicode="t" horiz-adv-x="381" d="M257 -11Q215 -11 177 5T116 57T92 157V596L244 677V200Q244 156 255 134T299 112Q309 112 321 114T347 120V5Q325 -3 303 -7T257 -11ZM10 376V493H347V376H10Z" />
<glyph unicode="u" horiz-adv-x="576" d="M233 -11Q168 -11 127 14T67 85T48 188V493H199V219Q199 195 204 173T226 135T279 120Q325 120 343 148T366 224T370 330V493H521V0H370V108L385 91Q361 33 321 11T233 -11Z" />
<glyph unicode="v" horiz-adv-x="544" d="M211 0L10 493H175L272 197L372 493H534L334 0H211Z" />
<glyph unicode="w" horiz-adv-x="759" d="M169 0L13 493H173L244 232L315 493H442L513 234L585 493H746L589 0H456L379 278L304 0H169Z" />
<glyph unicode="x" horiz-adv-x="556" d="M15 0L177 249L15 493H191L278 346L365 493H541L377 249L541 0H365L278 151L190 0H15Z" />
<glyph unicode="y" horiz-adv-x="544" d="M88 -204L192 47L10 493H175L272 197L372 493H534L251 -204H88Z" />
<glyph unicode="z" horiz-adv-x="470" d="M33 0V98L281 409L295 367H42V493H433V388L190 76L175 126H434V0H33Z" />
<glyph unicode="{" horiz-adv-x="312" d="M196 -249Q143 -249 114 -209T84 -101V113Q84 148 72 166T45 191T16 198V295Q29 296 44 302T72 327T84 380V594Q84 662 113 702T196 742H288V647H248Q224 647 218 629T212 591V377Q212 322 192 295T138 249V244Q171 226
191 199T212 116V-98Q212 -117 218 -135T248 -154H288V-249H196Z" />
<glyph unicode="|" horiz-adv-x="280" d="M84 -254V746H196V-254H84Z" />
<glyph unicode="}" horiz-adv-x="312" d="M116 -249H24V-154H64Q88 -154 94 -136T100 -98V116Q100 172 120 199T174 244V249Q141 267 121 294T100 377V591Q100 610 94 628T64 647H24V742H116Q169 742 198 702T228 594V380Q228 346 240 328T268 303T296 295V198Q284
198 268 191T240 166T228 113V-101Q228 -169 199 -209T116 -249Z" />
<glyph unicode="~" horiz-adv-x="560" d="M368 141Q329 141 306 151T268 178T243 210T222 236T192 247Q178 247 171 226T163 173H43Q43 253 83 303T192 353Q232 353 256 342T295 316T320 284T341 257T368 246Q382 246 391 271T400 331H519Q519 248 478 195T368 141Z" />
<glyph unicode="&#xa0;" horiz-adv-x="260" />
<glyph unicode="&#xa1;" horiz-adv-x="260" d="M187 274L204 -204H55L73 274H187ZM208 493V351H52V493H208Z" />
<glyph unicode="&#xa2;" horiz-adv-x="560" d="M229 -113V60H341V-113H229ZM229 429V601H341V429H229ZM297 -11Q234 -11 188 11T110 70T64 153T49 247Q49 295 64 341T110 423T187 482T297 504Q375 504 432 467T517 354L386 302Q376 333 356 353T297 373Q262 373
241 355T210 307T200 247Q200 216 209 187T240 139T297 120Q335 120 355 140T386 191L517 139Q489 63 432 26T297 -11Z" />
<glyph unicode="&#xa3;" horiz-adv-x="560" d="M40 0V123Q66 137 92 157T135 201T153 251Q153 253 153 264T153 278H41V404H127Q122 426 115 455T108 513Q108 569 132 615T204 689T319 717Q404 717 460 675T529 561L413 517Q409 555 382 573T322 591Q295 591 275
581T245 553T234 510Q234 485 241 454T257 404H444V278H277Q277 277 277 267T277 250Q277 220 271 195T249 151T207 119T139 102L169 126H532V0H40Z" />
<glyph unicode="&#xa4;" horiz-adv-x="609" d="M127 51L48 134L102 187Q86 216 78 247T69 310Q69 342 77 373T102 433L49 485L129 569L183 512Q242 548 308 548Q340 548 370 540T429 514L483 568L564 488L510 434Q527 406 536 374T545 310Q545 279 536 247T510
186L564 134L484 51L429 106Q401 89 370 81T306 72Q274 72 242 80T181 106L127 51ZM306 185Q342 185 370 203T414 249T431 311Q431 344 414 372T368 418T305 435Q271 435 243 418T198 372T181 307Q181 271 198 244T244 201T306 185Z" />
<glyph unicode="&#xa5;" horiz-adv-x="560" d="M205 0V100H58V222H205V269H58V391H138L1 697H170L280 421L395 697H563L428 391H505V269H362V222H505V100H362V0H205Z" />
<glyph unicode="&#xa6;" horiz-adv-x="280" d="M84 330V746H196V330H84ZM84 -254V155H196V-254H84Z" />
<glyph unicode="&#xa7;" horiz-adv-x="626" d="M304 -227Q240 -227 180 -197T84 -99L215 -19Q229 -50 256 -68T309 -87Q328 -87 343 -81T366 -63T375 -35Q375 -10 356 6T308 34T248 59Q215 72 181 88T117 128T69 187T50 273Q50 320 66 357T113 423Q104 440 99
461T93 508Q93 574 125 618T209 685T322 708Q391 708 449 676T542 581L411 501Q397 532 371 550T317 569Q298 569 283 563T260 545T251 516Q251 494 269 478T315 449T377 423Q409 411 443 395T508 355T557 296T576 210Q576 164 560 126T514 59Q522 42 527 20T532
-27Q532 -92 501 -137T417 -204T304 -227ZM408 160Q419 175 419 196Q419 221 402 238T357 269T297 295Q280 302 270 305T248 312T218 322Q212 315 210 305T207 287Q207 269 217 255T244 229T283 207T330 186Q336 184 358 178T408 160Z" />
<glyph unicode="&#xa8;" horiz-adv-x="420" d="M235 561V697H389V561H235ZM31 561V697H185V561H31Z" />
<glyph unicode="&#xa9;" horiz-adv-x="789" d="M395 -5Q322 -5 258 22T145 98T69 211T41 349Q41 422 68 486T144 598T257 674T395 702Q468 702 532 675T644 599T720 486T748 349Q748 276 721 212T645 99T532 23T395 -5ZM397 148Q330 148 288 177T225 253T204 347Q204
398 224 444T288 519T396 548Q457 548 502 519T570 429L453 384Q449 404 435 420T396 436Q371 436 356 423T335 389T328 347Q328 326 334 306T356 274T396 261Q419 261 434 275T454 311L565 268Q546 213 502 181T397 148ZM395 65Q454 65 505 87T595 148T656 238T678
349Q678 408 656 459T595 549T505 610T395 632Q336 632 285 610T194 550T133 460T111 349Q111 290 133 239T194 148T284 87T395 65Z" />
<glyph unicode="&#xaa;" horiz-adv-x="456" d="M189 350Q135 350 98 380T61 463Q61 519 100 544T195 570H289Q289 578 288 584T285 596Q278 612 264 621T225 630Q190 630 170 614T138 580L71 625Q103 670 139 689T222 708Q293 708 332 669T372 567V359H295L293
390Q249 350 189 350ZM209 429Q231 429 247 435T273 454Q280 463 283 473T289 493H201Q178 493 166 484T154 461Q154 448 167 439T209 429Z" />
<glyph unicode="&#xab;" horiz-adv-x="589" d="M555 32L284 252L555 472V312L461 252L555 192V32ZM272 32L1 252L272 472V312L178 252L272 192V32Z" />
<glyph unicode="&#xac;" horiz-adv-x="560" d="M374 26V188H27V306H493V26H374Z" />
<glyph unicode="&#xad;" horiz-adv-x="327" d="M40 234V346H288V234H40Z" />
<glyph unicode="&#xae;" horiz-adv-x="600" d="M300 188Q229 188 170 219T75 309T40 448Q40 528 75 586T169 676T300 708Q372 708 431 676T525 586T560 448Q560 368 525 310T431 220T300 188ZM300 255Q354 255 397 278T467 344T493 448Q493 509 467 552T398 618T300
641Q246 641 203 618T133 552T107 448Q107 388 133 345T202 278T300 255ZM214 305V592H315Q369 592 391 569T414 507Q414 477 402 458T365 428L421 305H352L304 420H278V305H214ZM279 477H308Q324 477 337 482T350 507Q350 527 337 531T308 535H279V477Z" />
<glyph unicode="&#xaf;" horiz-adv-x="340" d="M31 546V633H309V546H31Z" />
<glyph unicode="&#xb0;" horiz-adv-x="424" d="M211 417Q172 417 139 436T86 489T66 563Q66 603 86 636T139 688T211 708Q252 708 285 689T338 636T358 563Q358 523 338 490T285 437T211 417ZM211 518Q225 518 235 524T252 540T258 563Q258 576 252 585T236 601T211
607Q199 607 189 601T173 586T167 563Q167 550 173 540T189 524T211 518Z" />
<glyph unicode="&#xb1;" horiz-adv-x="560" d="M221 135V283H34V401H221V547H340V401H526V283H340V135H221ZM34 -57V62H526V-57H34Z" />
<glyph unicode="&#xb2;" horiz-adv-x="400" d="M41 488V550Q67 565 103 589T175 643T233 708T257 780Q257 803 245 819T203 836Q177 836 163 823T142 789T135 749L57 755Q57 793 74 828T124 885T203 908Q260 908 298 875T337 778Q337 743 321 709T278 645T220
591T160 553L138 560H357V488H41Z" />
<glyph unicode="&#xb3;" horiz-adv-x="391" d="M193 480Q152 480 117 495T60 541T38 618L114 623Q114 589 137 571T194 553Q223 553 247 568T272 617Q272 645 257 657T219 673T175 677V729Q208 729 224 735T244 752T249 775Q249 808 233 820T194 832Q167 832 151
818T133 777L58 782Q58 841 98 873T192 906Q227 906 257 893T307 854T326 792Q326 778 322 763T308 735T277 711Q304 704 319 688T341 651T348 609Q348 566 326 538T269 495T193 480Z" />
<glyph unicode="&#xb4;" horiz-adv-x="337" d="M31 554L144 697H306L140 554H31Z" />
<glyph unicode="&#xb5;" horiz-adv-x="576" d="M48 -157V493H199V219Q199 195 204 173T226 135T279 120Q325 120 343 148T366 224T370 330V493H521V0H370V48Q343 17 308 3T233 -11Q224 -11 216 -11T199 -9V-157H48Z" />
<glyph unicode="&#xb6;" horiz-adv-x="643" d="M269 -121V307Q211 307 160 330T77 397T45 502Q45 564 77 607T160 674T269 697H352V-121H269ZM461 -121V697H546V-121H461Z" />
<glyph unicode="&#xb7;" horiz-adv-x="290" d="M76 278V420H216V278H76Z" />
<glyph unicode="&#xb8;" horiz-adv-x="279" d="M129 -260Q98 -260 71 -242T31 -196L114 -161Q116 -166 121 -170T133 -175Q145 -175 153 -166T161 -146Q161 -124 139 -110T82 -97Q82 -97 72 -97T53 -97L116 -1H204L167 -40Q175 -42 180 -43T194 -48Q220 -60 234
-83T248 -139Q248 -172 232 -199T190 -243T129 -260Z" />
<glyph unicode="&#xb9;" horiz-adv-x="252" d="M113 488V814L136 777H18V838H71Q117 838 117 879V902H192V488H113Z" />
<glyph unicode="&#xba;" horiz-adv-x="477" d="M238 350Q184 350 144 374T82 440T59 529Q59 578 81 618T144 683T238 708Q291 708 331 684T394 619T417 529Q417 480 395 440T332 375T238 350ZM238 432Q270 432 287 445T312 481T320 529Q320 556 313 578T288 613T239
626Q207 626 189 613T164 578T156 529Q156 503 163 481T188 446T238 432Z" />
<glyph unicode="&#xbb;" horiz-adv-x="454" d="M-102 32V192L-8 252L-102 312V472L169 252L-102 32ZM181 32V192L275 252L181 312V472L452 252L181 32Z" />
<glyph unicode="&#xbc;" horiz-adv-x="798" d="M114 279V603L142 554H10V634H66Q89 634 101 644T114 681V697H214V279H114ZM119 0L556 697H662L225 0H119ZM623 0V98H448V179L624 418H714V175H780V98H714V0H623ZM505 157L497 175H626V335L636 333L505 157Z" />
<glyph unicode="&#xbd;" horiz-adv-x="840" d="M114 279V603L142 554H10V634H66Q89 634 101 644T114 681V697H214V279H114ZM119 0L556 697H662L225 0H119ZM516 0V72Q537 86 568 108T629 158T679 217T700 281Q700 298 692 312T660 326Q639 326 628 314T613 286T607
256L510 263Q510 300 527 336T579 398T662 423Q721 423 760 385T799 284Q799 247 786 213T746 148T681 93T595 50L622 93H815V0H516Z" />
<glyph unicode="&#xbe;" horiz-adv-x="874" d="M183 273Q110 273 66 313T21 417L120 423Q120 398 138 383T187 367Q216 367 231 379T247 413Q247 436 229 446T164 457V535Q185 535 197 539T215 552T221 573Q221 590 212 599T182 609Q161 609 150 598T137 566L39
573Q39 629 80 666T186 703Q246 703 284 671T322 585Q322 560 313 540T288 508Q308 498 321 484T340 451T346 412Q346 351 301 312T183 273ZM195 0L632 697H738L301 0H195ZM699 0V98H524V179L700 418H790V175H856V98H790V0H699ZM581 157L573 175H702V335L712 333L581
157Z" />
<glyph unicode="&#xbf;" horiz-adv-x="464" d="M296 276V250Q296 205 285 174T255 120T217 81T178 49T149 17T137 -25Q137 -58 160 -74T225 -90Q278 -90 303 -63T327 16H460Q460 -58 430 -109T347 -188T222 -215Q166 -215 117 -196T37 -135T6 -22Q6 22 18 52T48
103T87 140T126 172T157 210T169 261V276H296ZM308 493V351H153V493H308Z" />
<glyph unicode="&#xc0;" horiz-adv-x="698" d="M2 0L292 697H407L696 0H525L350 463L173 0H2ZM210 118L259 258H440L491 118H210ZM294 758L141 901H301L405 758H294Z" />
<glyph unicode="&#xc1;" horiz-adv-x="698" d="M2 0L292 697H407L696 0H525L350 463L173 0H2ZM210 118L259 258H440L491 118H210ZM295 758L408 901H570L404 758H295Z" />
<glyph unicode="&#xc2;" horiz-adv-x="698" d="M2 0L292 697H407L696 0H525L350 463L173 0H2ZM210 118L259 258H440L491 118H210ZM190 741L350 924L510 741H391L350 797L309 741H190Z" />
<glyph unicode="&#xc3;" horiz-adv-x="698" d="M2 0L292 697H407L696 0H525L350 463L173 0H2ZM210 118L259 258H440L491 118H210ZM409 741Q386 741 370 746T341 759T319 774T301 787T285 792Q275 792 270 780T264 741H178Q178 804 209 838T292 873Q311 873 327
868T355 855T377 840T395 827T411 821Q419 821 425 833T431 871H521Q521 807 491 774T409 741Z" />
<glyph unicode="&#xc4;" horiz-adv-x="698" d="M2 0L292 697H407L696 0H525L350 463L173 0H2ZM210 118L259 258H440L491 118H210ZM375 765V901H529V765H375ZM171 765V901H325V765H171Z" />
<glyph unicode="&#xc5;" horiz-adv-x="698" d="M2 0L292 697H407L696 0H525L350 463L173 0H2ZM210 118L259 258H440L491 118H210ZM350 620Q315 620 287 637T243 683T226 744Q226 778 242 806T287 851T350 868Q383 868 411 852T457 807T474 744Q474 710 457 682T412
637T350 620ZM351 700Q370 700 382 713T394 746Q394 765 383 776T351 788Q329 788 318 776T307 746Q307 726 319 713T351 700Z" />
<glyph unicode="&#xc6;" horiz-adv-x="949" d="M2 0L291 697H903V557H571V418H864V278H571V140H903V0H413V559H385L173 0H2ZM194 118L243 262H450V118H194Z" />
<glyph unicode="&#xc7;" horiz-adv-x="713" d="M373 -18Q272 -18 195 28T75 156T32 349Q32 459 75 541T195 669T373 715Q488 715 571 658T690 499L542 446Q522 502 479 533T373 565Q317 565 276 539T212 465T189 349Q189 281 211 233T275 158T373 132Q435 132
478 163T542 251L690 198Q654 98 571 40T373 -18ZM333 -204Q324 -204 307 -203T271 -197T240 -186L273 -124Q286 -128 299 -131T325 -135Q339 -135 349 -129T360 -110Q360 -98 351 -91T327 -80T295 -75T259 -74L320 13L383 12L352 -29Q398 -36 421 -57T445 -112Q445
-152 414 -178T333 -204Z" />
<glyph unicode="&#xc8;" horiz-adv-x="573" d="M59 0V697H527V557H216V429H512V289H216V140H527V0H59ZM237 758L84 901H244L348 758H237Z" />
<glyph unicode="&#xc9;" horiz-adv-x="573" d="M59 0V697H527V557H216V429H512V289H216V140H527V0H59ZM238 758L351 901H513L347 758H238Z" />
<glyph unicode="&#xca;" horiz-adv-x="573" d="M59 0V697H527V557H216V429H512V289H216V140H527V0H59ZM133 741L293 924L453 741H334L293 797L252 741H133Z" />
<glyph unicode="&#xcb;" horiz-adv-x="573" d="M59 0V697H527V557H216V429H512V289H216V140H527V0H59ZM318 765V901H472V765H318ZM114 765V901H268V765H114Z" />
<glyph unicode="&#xcc;" horiz-adv-x="275" d="M59 0V697H216V0H59ZM82 758L-71 901H89L193 758H82Z" />
<glyph unicode="&#xcd;" horiz-adv-x="275" d="M59 0V697H216V0H59ZM83 758L196 901H358L192 758H83Z" />
<glyph unicode="&#xce;" horiz-adv-x="275" d="M59 0V697H216V0H59ZM-22 741L138 924L298 741H179L138 797L97 741H-22Z" />
<glyph unicode="&#xcf;" horiz-adv-x="275" d="M59 0V697H216V0H59ZM163 765V901H317V765H163ZM-41 765V901H113V765H-41Z" />
<glyph unicode="&#xd0;" horiz-adv-x="668" d="M59 0V697H269Q444 697 540 605T636 343Q636 177 542 89T268 0H59ZM216 144H252Q323 144 373 160T451 220T478 349Q478 430 453 474T380 536T266 553H216V144ZM260 299V399H615V299H260Z" />
<glyph unicode="&#xd1;" horiz-adv-x="698" d="M59 0V697H219L523 206H482V697H639V0H478L176 492H216V0H59ZM409 741Q386 741 370 746T341 759T319 774T301 787T285 792Q275 792 270 780T264 741H178Q178 804 209 838T292 873Q311 873 327 868T355 855T377 840T395
827T411 821Q419 821 425 833T431 871H521Q521 807 491 774T409 741Z" />
<glyph unicode="&#xd2;" horiz-adv-x="747" d="M373 -18Q272 -18 195 28T75 156T32 348Q32 458 75 540T195 669T373 715Q475 715 552 670T672 542T715 348Q715 238 672 156T551 28T373 -18ZM373 132Q430 132 471 158T534 233T557 348Q557 415 535 463T471 538T373
565Q317 565 276 539T212 465T189 348Q189 281 211 233T275 158T373 132ZM317 758L164 901H324L428 758H317Z" />
<glyph unicode="&#xd3;" horiz-adv-x="747" d="M373 -18Q272 -18 195 28T75 156T32 348Q32 458 75 540T195 669T373 715Q475 715 552 670T672 542T715 348Q715 238 672 156T551 28T373 -18ZM373 132Q430 132 471 158T534 233T557 348Q557 415 535 463T471 538T373
565Q317 565 276 539T212 465T189 348Q189 281 211 233T275 158T373 132ZM318 758L431 901H593L427 758H318Z" />
<glyph unicode="&#xd4;" horiz-adv-x="747" d="M373 -18Q272 -18 195 28T75 156T32 348Q32 458 75 540T195 669T373 715Q475 715 552 670T672 542T715 348Q715 238 672 156T551 28T373 -18ZM373 132Q430 132 471 158T534 233T557 348Q557 415 535 463T471 538T373
565Q317 565 276 539T212 465T189 348Q189 281 211 233T275 158T373 132ZM213 741L373 924L533 741H414L373 797L332 741H213Z" />
<glyph unicode="&#xd5;" horiz-adv-x="747" d="M373 -18Q272 -18 195 28T75 156T32 348Q32 458 75 540T195 669T373 715Q475 715 552 670T672 542T715 348Q715 238 672 156T551 28T373 -18ZM373 132Q430 132 471 158T534 233T557 348Q557 415 535 463T471 538T373
565Q317 565 276 539T212 465T189 348Q189 281 211 233T275 158T373 132ZM432 741Q409 741 393 746T364 759T342 774T324 787T308 792Q298 792 293 780T287 741H201Q201 804 232 838T315 873Q334 873 350 868T378 855T400 840T418 827T434 821Q442 821 448 833T454
871H544Q544 807 514 774T432 741Z" />
<glyph unicode="&#xd6;" horiz-adv-x="747" d="M373 -18Q272 -18 195 28T75 156T32 348Q32 458 75 540T195 669T373 715Q475 715 552 670T672 542T715 348Q715 238 672 156T551 28T373 -18ZM373 132Q430 132 471 158T534 233T557 348Q557 415 535 463T471 538T373
565Q317 565 276 539T212 465T189 348Q189 281 211 233T275 158T373 132ZM398 765V901H552V765H398ZM194 765V901H348V765H194Z" />
<glyph unicode="&#xd7;" horiz-adv-x="560" d="M143 18L51 109L187 247L51 383L143 476L279 339L416 476L509 383L373 247L509 109L416 18L279 153L143 18Z" />
<glyph unicode="&#xd8;" horiz-adv-x="747" d="M373 -18Q272 -18 195 28T75 156T32 348Q32 458 75 540T195 669T373 715Q475 715 552 670T672 542T715 348Q715 238 672 156T551 28T373 -18ZM373 132Q430 132 471 158T534 233T557 348Q557 415 535 463T471 538T373
565Q317 565 276 539T212 465T189 348Q189 281 211 233T275 158T373 132ZM50 0L596 697H698L153 0H50Z" />
<glyph unicode="&#xd9;" horiz-adv-x="658" d="M329 -18Q192 -18 123 49T53 252V697H210V270Q210 222 218 190T253 142T329 126Q379 126 404 142T439 189T448 268V697H605V257Q605 118 536 50T329 -18ZM274 758L121 901H281L385 758H274Z" />
<glyph unicode="&#xda;" horiz-adv-x="658" d="M329 -18Q192 -18 123 49T53 252V697H210V270Q210 222 218 190T253 142T329 126Q379 126 404 142T439 189T448 268V697H605V257Q605 118 536 50T329 -18ZM275 758L388 901H550L384 758H275Z" />
<glyph unicode="&#xdb;" horiz-adv-x="658" d="M329 -18Q192 -18 123 49T53 252V697H210V270Q210 222 218 190T253 142T329 126Q379 126 404 142T439 189T448 268V697H605V257Q605 118 536 50T329 -18ZM170 741L330 924L490 741H371L330 797L289 741H170Z" />
<glyph unicode="&#xdc;" horiz-adv-x="658" d="M329 -18Q192 -18 123 49T53 252V697H210V270Q210 222 218 190T253 142T329 126Q379 126 404 142T439 189T448 268V697H605V257Q605 118 536 50T329 -18ZM355 765V901H509V765H355ZM151 765V901H305V765H151Z" />
<glyph unicode="&#xdd;" horiz-adv-x="640" d="M243 0V275L-2 697H178L318 431L463 697H641L400 275V0H243ZM266 758L379 901H541L375 758H266Z" />
<glyph unicode="&#xde;" horiz-adv-x="606" d="M98 0V697H241V603H359Q459 603 515 551T571 404Q571 304 506 248T324 191H241V0H98ZM241 321H324Q372 321 400 338T428 399Q428 445 400 463T324 481H241V321Z" />
<glyph unicode="&#xdf;" horiz-adv-x="663" d="M435 -11Q381 -11 338 9T265 61T224 132L344 185Q349 172 357 155T383 126T433 114Q463 114 475 125T488 148Q488 161 476 169T444 184T399 198T351 215T307 242T274 283T262 344Q262 382 275 407T309 448T353 475T398
494T432 511T445 533Q445 547 431 554T397 563T356 566Q312 566 284 557T241 533T220 499T212 462T211 427V0H54V427Q54 481 66 531T110 621T199 684T344 707Q419 707 475 689T562 633T593 538Q593 499 580 472T546 425T502 393T457 372T423 357T410 344Q410 338
422 334T454 326T499 316T547 300T591 272T624 228T636 163Q636 117 618 84T570 30T505 -1T435 -11Z" />
<glyph unicode="&#xe0;" horiz-adv-x="550" d="M364 0L352 58V313Q352 348 327 363T265 378Q226 378 182 364T108 328L44 434Q103 473 158 488T278 504Q383 504 442 453T502 313V0H364ZM225 -11Q172 -11 129 9T60 68T34 156Q34 199 52 231T102 280Q125 293 154
299T216 305H364V194H238Q226 194 217 192T200 185Q193 180 189 173T185 156Q185 135 202 123T249 110Q277 110 300 121T338 153T352 199L384 114Q365 63 339 36T283 -1T225 -11ZM220 554L67 697H227L331 554H220Z" />
<glyph unicode="&#xe1;" horiz-adv-x="550" d="M364 0L352 58V313Q352 348 327 363T265 378Q226 378 182 364T108 328L44 434Q103 473 158 488T278 504Q383 504 442 453T502 313V0H364ZM225 -11Q172 -11 129 9T60 68T34 156Q34 199 52 231T102 280Q125 293 154
299T216 305H364V194H238Q226 194 217 192T200 185Q193 180 189 173T185 156Q185 135 202 123T249 110Q277 110 300 121T338 153T352 199L384 114Q365 63 339 36T283 -1T225 -11ZM221 554L334 697H496L330 554H221Z" />
<glyph unicode="&#xe2;" horiz-adv-x="550" d="M364 0L352 58V313Q352 348 327 363T265 378Q226 378 182 364T108 328L44 434Q103 473 158 488T278 504Q383 504 442 453T502 313V0H364ZM225 -11Q172 -11 129 9T60 68T34 156Q34 199 52 231T102 280Q125 293 154
299T216 305H364V194H238Q226 194 217 192T200 185Q193 180 189 173T185 156Q185 135 202 123T249 110Q277 110 300 121T338 153T352 199L384 114Q365 63 339 36T283 -1T225 -11ZM116 537L276 720L436 537H317L276 593L235 537H116Z" />
<glyph unicode="&#xe3;" horiz-adv-x="550" d="M364 0L352 58V313Q352 348 327 363T265 378Q226 378 182 364T108 328L44 434Q103 473 158 488T278 504Q383 504 442 453T502 313V0H364ZM225 -11Q172 -11 129 9T60 68T34 156Q34 199 52 231T102 280Q125 293 154
299T216 305H364V194H238Q226 194 217 192T200 185Q193 180 189 173T185 156Q185 135 202 123T249 110Q277 110 300 121T338 153T352 199L384 114Q365 63 339 36T283 -1T225 -11ZM335 548Q307 548 288 557T255 577T232 598T211 607Q201 607 196 592T190 547H104Q104
620 135 659T218 699Q242 699 260 690T293 669T317 648T337 639Q345 639 351 653T357 697H447Q447 624 417 586T335 548Z" />
<glyph unicode="&#xe4;" horiz-adv-x="550" d="M364 0L352 58V313Q352 348 327 363T265 378Q226 378 182 364T108 328L44 434Q103 473 158 488T278 504Q383 504 442 453T502 313V0H364ZM225 -11Q172 -11 129 9T60 68T34 156Q34 199 52 231T102 280Q125 293 154
299T216 305H364V194H238Q226 194 217 192T200 185Q193 180 189 173T185 156Q185 135 202 123T249 110Q277 110 300 121T338 153T352 199L384 114Q365 63 339 36T283 -1T225 -11ZM301 561V697H455V561H301ZM97 561V697H251V561H97Z" />
<glyph unicode="&#xe5;" horiz-adv-x="550" d="M364 0L352 58V313Q352 348 327 363T265 378Q226 378 182 364T108 328L44 434Q103 473 158 488T278 504Q383 504 442 453T502 313V0H364ZM225 -11Q172 -11 129 9T60 68T34 156Q34 199 52 231T102 280Q125 293 154
299T216 305H364V194H238Q226 194 217 192T200 185Q193 180 189 173T185 156Q185 135 202 123T249 110Q277 110 300 121T338 153T352 199L384 114Q365 63 339 36T283 -1T225 -11ZM276 520Q241 520 213 537T169 583T152 644Q152 678 168 706T213 751T276 768Q309
768 337 752T383 707T400 644Q400 610 383 582T338 537T276 520ZM277 600Q296 600 308 613T320 646Q320 665 309 676T277 688Q255 688 244 676T233 646Q233 626 245 613T277 600Z" />
<glyph unicode="&#xe6;" horiz-adv-x="851" d="M226 -11Q132 -11 83 36T34 154Q34 199 53 227T103 270T166 291T225 298T264 299H355V313Q355 341 333 357T273 373Q249 373 217 363T155 320L46 411Q99 461 158 482T289 504Q342 504 381 493T443 458Q472 481 506
492T583 504Q641 504 685 485T758 430T803 347T818 242Q818 232 818 221T815 194H491Q497 154 528 136T601 118Q637 118 675 130T741 165L805 59Q766 33 734 18T669 -4T591 -11Q527 -11 485 8T417 59H403Q361 19 317 4T226 -11ZM245 117Q274 117 296 125T334 148T355
186V191H263Q218 191 204 177T189 151Q189 137 203 127T245 117ZM489 305H675Q674 323 667 336T647 359T619 374T586 379Q553 379 533 367T502 338T489 305Z" />
<glyph unicode="&#xe7;" horiz-adv-x="525" d="M279 -11Q216 -11 170 11T92 70T46 153T31 247Q31 295 46 341T92 423T169 482T279 504Q357 504 414 467T499 354L368 302Q358 333 338 353T279 373Q244 373 223 355T192 307T182 247Q182 216 191 187T222 139T279
120Q317 120 337 140T368 191L499 139Q471 63 414 26T279 -11ZM266 -204Q257 -204 240 -203T204 -197T173 -186L206 -124Q219 -128 232 -131T258 -135Q272 -135 282 -129T293 -110Q293 -98 284 -91T260 -80T228 -75T192 -74L253 13L316 12L285 -29Q331 -36 354
-57T378 -112Q378 -152 347 -178T266 -204Z" />
<glyph unicode="&#xe8;" horiz-adv-x="542" d="M282 -11Q214 -11 166 10T88 68T45 150T31 244Q31 290 44 336T86 420T161 481T274 504Q332 504 376 485T449 430T494 347T509 242Q509 232 509 221T506 194H182Q188 154 219 136T292 118Q328 118 366 130T432 165L496
59Q457 33 425 18T360 -4T282 -11ZM361 269Q363 277 364 285T366 300Q366 319 359 333T340 358T311 373T277 379Q244 379 224 367T193 338T180 305H411L361 269ZM219 554L66 697H226L330 554H219Z" />
<glyph unicode="&#xe9;" horiz-adv-x="542" d="M282 -11Q214 -11 166 10T88 68T45 150T31 244Q31 290 44 336T86 420T161 481T274 504Q332 504 376 485T449 430T494 347T509 242Q509 232 509 221T506 194H182Q188 154 219 136T292 118Q328 118 366 130T432 165L496
59Q457 33 425 18T360 -4T282 -11ZM361 269Q363 277 364 285T366 300Q366 319 359 333T340 358T311 373T277 379Q244 379 224 367T193 338T180 305H411L361 269ZM220 554L333 697H495L329 554H220Z" />
<glyph unicode="&#xea;" horiz-adv-x="542" d="M282 -11Q214 -11 166 10T88 68T45 150T31 244Q31 290 44 336T86 420T161 481T274 504Q332 504 376 485T449 430T494 347T509 242Q509 232 509 221T506 194H182Q188 154 219 136T292 118Q328 118 366 130T432 165L496
59Q457 33 425 18T360 -4T282 -11ZM361 269Q363 277 364 285T366 300Q366 319 359 333T340 358T311 373T277 379Q244 379 224 367T193 338T180 305H411L361 269ZM115 537L275 720L435 537H316L275 593L234 537H115Z" />
<glyph unicode="&#xeb;" horiz-adv-x="542" d="M282 -11Q214 -11 166 10T88 68T45 150T31 244Q31 290 44 336T86 420T161 481T274 504Q332 504 376 485T449 430T494 347T509 242Q509 232 509 221T506 194H182Q188 154 219 136T292 118Q328 118 366 130T432 165L496
59Q457 33 425 18T360 -4T282 -11ZM361 269Q363 277 364 285T366 300Q366 319 359 333T340 358T311 373T277 379Q244 379 224 367T193 338T180 305H411L361 269ZM300 561V697H454V561H300ZM96 561V697H250V561H96Z" />
<glyph unicode="&#xec;" horiz-adv-x="258" d="M53 0V493H204V0H53ZM329 554L176 697H336L440 554H329Z" />
<glyph unicode="&#xed;" horiz-adv-x="258" d="M53 0V493H204V0H53ZM74 554L187 697H349L183 554H74Z" />
<glyph unicode="&#xee;" horiz-adv-x="258" d="M53 0V493H204V0H53ZM225 537L385 720L545 537H426L385 593L344 537H225Z" />
<glyph unicode="&#xef;" horiz-adv-x="258" d="M53 0V493H204V0H53ZM410 561V697H564V561H410ZM206 561V697H360V561H206Z" />
<glyph unicode="&#xf0;" horiz-adv-x="591" d="M273 -11Q197 -11 144 19T63 101T35 218Q35 278 57 327T116 413T202 468T301 487Q320 487 340 484T379 474T414 456T443 426Q443 477 423 524T357 603T236 638L248 738Q338 730 399 702T498 626T552 516T569 375Q569
282 548 210T489 89T396 15T273 -11ZM282 118Q328 118 361 143T412 206T425 282Q423 300 415 315T394 341T361 358T317 364Q264 364 233 340T189 283T176 220Q176 185 191 163T230 129T282 118ZM209 521L194 581L559 667L573 607L209 521Z" />
<glyph unicode="&#xf1;" horiz-adv-x="576" d="M54 0V493H205V377H185Q197 427 223 454T281 493T345 504Q431 504 479 457T527 328V0H376V272Q376 325 358 349T298 373Q266 373 246 358T215 312T205 230V0H54ZM339 548Q311 548 292 557T259 577T236 598T215 607Q205
607 200 592T194 547H108Q108 620 139 659T222 699Q246 699 264 690T297 669T321 648T341 639Q349 639 355 653T361 697H451Q451 624 421 586T339 548Z" />
<glyph unicode="&#xf2;" horiz-adv-x="569" d="M285 -11Q212 -11 155 22T64 114T31 247Q31 322 64 380T154 471T285 504Q358 504 415 471T505 380T538 247Q538 173 505 115T415 23T285 -11ZM285 121Q318 121 341 135T375 178T387 247Q387 288 376 315T341 357T285
372Q252 372 229 358T194 316T182 247Q182 207 194 179T229 136T285 121ZM229 554L76 697H236L340 554H229Z" />
<glyph unicode="&#xf3;" horiz-adv-x="569" d="M285 -11Q212 -11 155 22T64 114T31 247Q31 322 64 380T154 471T285 504Q358 504 415 471T505 380T538 247Q538 173 505 115T415 23T285 -11ZM285 121Q318 121 341 135T375 178T387 247Q387 288 376 315T341 357T285
372Q252 372 229 358T194 316T182 247Q182 207 194 179T229 136T285 121ZM230 554L343 697H505L339 554H230Z" />
<glyph unicode="&#xf4;" horiz-adv-x="569" d="M285 -11Q212 -11 155 22T64 114T31 247Q31 322 64 380T154 471T285 504Q358 504 415 471T505 380T538 247Q538 173 505 115T415 23T285 -11ZM285 121Q318 121 341 135T375 178T387 247Q387 288 376 315T341 357T285
372Q252 372 229 358T194 316T182 247Q182 207 194 179T229 136T285 121ZM125 537L285 720L445 537H326L285 593L244 537H125Z" />
<glyph unicode="&#xf5;" horiz-adv-x="569" d="M285 -11Q212 -11 155 22T64 114T31 247Q31 322 64 380T154 471T285 504Q358 504 415 471T505 380T538 247Q538 173 505 115T415 23T285 -11ZM285 121Q318 121 341 135T375 178T387 247Q387 288 376 315T341 357T285
372Q252 372 229 358T194 316T182 247Q182 207 194 179T229 136T285 121ZM344 548Q316 548 297 557T264 577T241 598T220 607Q210 607 205 592T199 547H113Q113 620 144 659T227 699Q251 699 269 690T302 669T326 648T346 639Q354 639 360 653T366 697H456Q456
624 426 586T344 548Z" />
<glyph unicode="&#xf6;" horiz-adv-x="569" d="M285 -11Q212 -11 155 22T64 114T31 247Q31 322 64 380T154 471T285 504Q358 504 415 471T505 380T538 247Q538 173 505 115T415 23T285 -11ZM285 121Q318 121 341 135T375 178T387 247Q387 288 376 315T341 357T285
372Q252 372 229 358T194 316T182 247Q182 207 194 179T229 136T285 121ZM310 561V697H464V561H310ZM106 561V697H260V561H106Z" />
<glyph unicode="&#xf7;" horiz-adv-x="560" d="M50 188V306H510V188H50ZM193 -1V146H367V-1H193ZM193 349V494H367V349H193Z" />
<glyph unicode="&#xf8;" horiz-adv-x="569" d="M285 -11Q212 -11 155 22T64 114T31 247Q31 322 64 380T154 471T285 504Q358 504 415 471T505 380T538 247Q538 173 505 115T415 23T285 -11ZM285 121Q318 121 341 135T375 178T387 247Q387 288 376 315T341 357T285
372Q252 372 229 358T194 316T182 247Q182 207 194 179T229 136T285 121ZM78 217L419 789H492L150 217H78Z" />
<glyph unicode="&#xf9;" horiz-adv-x="576" d="M233 -11Q168 -11 127 14T67 85T48 188V493H199V219Q199 195 204 173T226 135T279 120Q325 120 343 148T366 224T370 330V493H521V0H370V108L385 91Q361 33 321 11T233 -11ZM228 554L75 697H235L339 554H228Z" />
<glyph unicode="&#xfa;" horiz-adv-x="576" d="M233 -11Q168 -11 127 14T67 85T48 188V493H199V219Q199 195 204 173T226 135T279 120Q325 120 343 148T366 224T370 330V493H521V0H370V108L385 91Q361 33 321 11T233 -11ZM229 554L342 697H504L338 554H229Z" />
<glyph unicode="&#xfb;" horiz-adv-x="576" d="M233 -11Q168 -11 127 14T67 85T48 188V493H199V219Q199 195 204 173T226 135T279 120Q325 120 343 148T366 224T370 330V493H521V0H370V108L385 91Q361 33 321 11T233 -11ZM124 537L284 720L444 537H325L284 593L243
537H124Z" />
<glyph unicode="&#xfc;" horiz-adv-x="576" d="M233 -11Q168 -11 127 14T67 85T48 188V493H199V219Q199 195 204 173T226 135T279 120Q325 120 343 148T366 224T370 330V493H521V0H370V108L385 91Q361 33 321 11T233 -11ZM309 561V697H463V561H309ZM105 561V697H259V561H105Z"
/>
<glyph unicode="&#xfd;" horiz-adv-x="544" d="M88 -204L192 47L10 493H175L272 197L372 493H534L251 -204H88ZM218 554L331 697H493L327 554H218Z" />
<glyph unicode="&#xfe;" horiz-adv-x="601" d="M79 -204V697H230V371L199 405Q211 442 237 463T296 494T359 504Q425 504 470 470T537 377T560 245Q560 161 532 104T459 18T359 -11Q326 -11 293 1T236 34T204 82L230 124V-204H79ZM317 120Q350 120 370 134T400
176T410 247Q410 290 401 317T373 358T319 372Q279 372 257 356T225 311T216 247Q216 212 225 183T257 137T317 120Z" />
<glyph unicode="&#xff;" horiz-adv-x="544" d="M88 -204L192 47L10 493H175L272 197L372 493H534L251 -204H88ZM298 561V697H452V561H298ZM94 561V697H248V561H94Z" />
<glyph unicode="&#x2013;" horiz-adv-x="438" d="M24 234V346H414V234H24Z" />
<glyph unicode="&#x2014;" horiz-adv-x="1058" d="M24 234V346H1034V234H24Z" />
<glyph unicode="&#x2018;" horiz-adv-x="274" d="M22 420L144 697H243L197 420H22Z" />
<glyph unicode="&#x2019;" horiz-adv-x="275" d="M31 421L77 697H252L129 421H31Z" />
<glyph unicode="&#x201a;" horiz-adv-x="283" d="M38 -145L84 131H259L136 -145H38Z" />
<glyph unicode="&#x201c;" horiz-adv-x="479" d="M228 420L349 697H448L403 420H228ZM22 420L144 697H243L197 420H22Z" />
<glyph unicode="&#x201d;" horiz-adv-x="480" d="M237 421L283 697H457L336 421H237ZM31 421L77 697H252L129 421H31Z" />
<glyph unicode="&#x201e;" horiz-adv-x="471" d="M241 -145L286 131H461L339 -145H241ZM22 -145L68 131H243L120 -145H22Z" />
<glyph unicode="&#x2022;" horiz-adv-x="405" d="M66 110V384H339V110H66Z" />
<glyph unicode="&#x2039;" horiz-adv-x="306" d="M272 32L1 252L272 472V312L178 252L272 192V32Z" />
<glyph unicode="&#x203a;" horiz-adv-x="307" d="M34 32V192L128 252L34 312V472L305 252L34 32Z" />
</font>
</defs>
</svg>
