<?xml version="1.0" standalone="no"?>
<!DOCTYPE svg PUBLIC "-//W3C//DTD SVG 1.1//EN" "http://www.w3.org/Graphics/SVG/1.1/DTD/svg11.dtd">
<svg xmlns="http://www.w3.org/2000/svg">
<defs >
<font id="HankenGrotesk" horiz-adv-x="547" ><font-face
    font-family="Hanken Grotesk ExtraBold"
    units-per-em="1000"
    panose-1="0 0 0 0 0 0 0 0 0 0"
    ascent="1000"
    descent="-303"
    alphabetic="0" />
<glyph unicode=" " horiz-adv-x="260" />
<glyph unicode="!" horiz-adv-x="256" d="M71 216L123 697H260L176 216H71ZM21 0L40 137H185L165 0H21Z" />
<glyph unicode="&quot;" horiz-adv-x="376" d="M64 408L104 697H220L180 408H64ZM241 408L281 697H397L357 408H241Z" />
<glyph unicode="#" horiz-adv-x="693" d="M75 0L147 202H35L49 299H181L219 408H104L119 509H255L326 697H436L364 505H469L538 697H649L576 505H688L674 408H542L502 299H618L605 202H468L396 0H287L360 202H254L183 0H75ZM291 299H396L432 408H328L291 299Z" />
<glyph unicode="$" horiz-adv-x="560" d="M183 -117L205 44H307L285 -117H183ZM290 648L313 808H414L392 648H290ZM273 -14Q197 -14 138 14T46 91T11 206L153 233Q155 171 191 142T279 113Q312 113 337 123T375 153T389 199Q389 222 378 239T343 270T280 300Q219
325 179 355T120 422T101 505Q101 565 130 612T212 687T332 714Q410 714 469 678T550 578L430 516Q415 552 391 569T331 587Q302 587 283 577T255 550T245 512Q245 492 255 477T290 448T356 416Q414 393 453 365T512 300T533 211Q533 144 500 93T409 14T273 -14Z"
/>
<glyph unicode="%" horiz-adv-x="731" d="M58 0L594 697H694L158 0H58ZM515 -10Q456 -10 417 27T378 129Q378 179 399 221T458 289T544 315Q585 315 615 297T663 246T681 171Q681 122 659 81T598 15T515 -10ZM524 78Q542 78 557 89T581 118T591 160Q591 191 576
208T535 226Q516 226 501 216T477 186T468 143Q468 110 483 94T524 78ZM216 382Q177 382 146 399T97 447T79 522Q79 572 100 614T159 681T245 707Q286 707 316 689T364 638T382 564Q382 516 360 475T299 408T216 382ZM225 471Q243 471 258 482T282 511T292 553Q292
584 277 601T236 619Q217 619 202 609T178 579T169 536Q169 503 184 487T225 471Z" />
<glyph unicode="&amp;" horiz-adv-x="705" d="M247 -12Q186 -12 136 6T57 60T28 151Q28 202 52 241T113 311T190 365T266 407Q318 435 353 458T405 504T422 551Q422 572 409 585T370 598Q350 598 332 590T303 564T292 524Q292 494 307 469T336 427L225 377Q213
391 198 411T172 459T161 522Q161 579 191 620T272 683T379 706Q456 706 502 668T549 562Q549 501 516 455T432 371T326 303Q297 287 270 272T221 240T185 205T171 163Q171 135 195 120T261 105Q326 105 383 138T483 233T549 382L668 355Q627 230 563 149T419 28T247
-12ZM536 -39L278 308L394 375L643 48L536 -39Z" />
<glyph unicode="&apos;" horiz-adv-x="199" d="M64 408L104 697H220L180 408H64Z" />
<glyph unicode="(" horiz-adv-x="330" d="M116 -204Q79 -142 62 -60T44 114Q44 180 55 257T89 414T149 567T237 697H364Q307 634 267 560T201 409T163 257T151 116Q151 57 160 -1T187 -110T234 -204H116Z" />
<glyph unicode=")" horiz-adv-x="330" d="M-36 -204Q43 -119 90 -24T159 170T181 361Q181 429 171 490T144 605T101 697H216Q238 660 252 609T275 499T283 375Q283 275 263 170T199 -32T88 -204H-36Z" />
<glyph unicode="*" horiz-adv-x="400" d="M158 377L96 428L198 521L74 544L110 626L221 568L222 697H306L269 568L394 626L407 544L276 521L354 428L283 377L237 493L158 377Z" />
<glyph unicode="+" horiz-adv-x="560" d="M226 2V193H35V301H226V492H335V301H526V193H335V2H226Z" />
<glyph unicode="," horiz-adv-x="240" d="M-30 -147L73 159H229L61 -147H-30Z" />
<glyph unicode="-" horiz-adv-x="327" d="M39 242L54 344H302L287 242H39Z" />
<glyph unicode="." horiz-adv-x="240" d="M13 0L33 137H176L157 0H13Z" />
<glyph unicode="/" horiz-adv-x="421" d="M-129 -212L361 697H467L-24 -212H-129Z" />
<glyph unicode="0" horiz-adv-x="560" d="M252 -10Q187 -10 145 11T80 69T48 150T39 243Q39 274 41 303T48 361Q54 400 64 447T94 540T144 624T223 685T337 708Q403 708 444 687T509 630T542 550T551 458Q551 429 549 400T542 344Q535 301 525 253T494 159T443
74T365 13T252 -10ZM255 122Q303 122 332 154T377 240T403 357Q407 385 410 411T413 462Q413 513 396 544T334 576Q286 576 257 544T212 459T186 340Q182 312 180 286T177 236Q177 203 184 177T208 137T255 122Z" />
<glyph unicode="1" horiz-adv-x="560" d="M230 0L305 548L336 480H121L135 589H235Q273 589 295 607T323 664L328 697H465L367 0H230Z" />
<glyph unicode="2" horiz-adv-x="560" d="M3 0L15 105Q51 123 92 148T177 205T259 271T329 344T378 423T396 504Q396 534 379 553T325 572Q283 572 256 550T214 496T192 433L60 451Q66 498 87 543T144 624T226 683T332 705Q393 705 437 681T507 614T532 510Q532
460 516 414T472 325T405 246T322 177T227 117T129 69L166 128H508L490 0H3Z" />
<glyph unicode="3" horiz-adv-x="560" d="M244 -10Q172 -10 119 15T35 86T5 192Q5 201 6 210T8 228H144Q144 224 144 221T144 216Q144 169 173 146T255 122Q299 122 331 135T380 172T398 229Q398 252 390 268T364 293T319 306T253 310L261 418Q300 417 330 427T379
458T397 509Q397 539 379 557T323 575Q294 575 270 564T230 531T211 483L77 500Q85 560 121 607T212 680T334 707Q396 707 441 683T510 618T535 525Q535 487 521 455T477 398T400 360V389Q440 381 470 361T517 310T534 233Q534 166 497 111T394 23T244 -10Z" />
<glyph unicode="4" horiz-adv-x="560" d="M271 0L294 164H-6L7 269L386 697H506L450 291H560L542 164H431L408 0H271ZM124 260L118 291H316L354 572L364 544L124 260Z" />
<glyph unicode="5" horiz-adv-x="560" d="M251 -10Q180 -10 127 19T44 97T14 207L151 223Q150 179 180 150T260 121Q291 121 315 132T357 161T383 204T392 255Q392 304 365 329T293 355Q254 355 225 337T176 293L50 328L171 697H569L550 569H203L286 627L213 406L163
407Q201 446 246 465T338 484Q393 484 438 459T510 387T537 276Q537 221 517 170T459 79T369 14T251 -10Z" />
<glyph unicode="6" horiz-adv-x="560" d="M491 697L286 441L265 464Q281 468 296 470T325 473Q389 473 437 446T513 372T540 264Q540 207 517 157T454 70T363 11T252 -10Q185 -10 132 17T48 93T17 207Q17 249 32 291T74 371L329 697H491ZM303 351Q272 351 246
340T200 310T169 265T157 209Q157 182 170 162T205 132T256 121Q287 121 313 132T360 162T391 207T402 261Q402 289 390 309T355 340T303 351Z" />
<glyph unicode="7" horiz-adv-x="560" d="M45 0L445 623L478 569H74L91 697H595L583 598L201 0H45Z" />
<glyph unicode="8" horiz-adv-x="560" d="M254 -10Q186 -10 131 13T42 82T8 193Q8 227 19 261T56 327T125 383Q108 398 95 425T82 489Q82 553 118 602T214 679T339 707Q396 707 444 686T520 624T549 524Q549 495 541 469T516 418T472 375Q505 352 523 317T542
232Q542 160 503 105T399 20T254 -10ZM261 118Q304 118 337 133T388 176T407 236Q407 278 377 301T293 324Q252 324 219 310T166 271T147 210Q147 181 160 160T200 129T261 118ZM303 421Q334 421 358 433T398 466T413 513Q413 544 391 563T328 583Q298 583 273
571T233 539T218 492Q218 461 241 441T303 421Z" />
<glyph unicode="9" horiz-adv-x="560" d="M98 0L303 256L324 233Q308 229 293 227T264 224Q201 224 152 251T76 325T49 433Q49 490 72 540T135 627T226 686T337 707Q404 707 457 680T541 604T572 490Q572 448 557 406T514 326L259 0H98ZM286 346Q317 346 343 357T389
387T420 432T431 488Q431 516 419 535T384 565T333 576Q302 576 275 565T229 535T198 490T187 436Q187 408 199 388T234 357T286 346Z" />
<glyph unicode=":" horiz-adv-x="240" d="M59 332L80 471H224L204 332H59ZM13 0L32 137H177L157 0H13Z" />
<glyph unicode=";" horiz-adv-x="240" d="M-50 -147L50 131H206L43 -147H-50ZM75 332L94 471H240L220 332H75Z" />
<glyph unicode="&lt;" horiz-adv-x="560" d="M533 -23L30 173V321L533 516V400L67 226V269L533 94V-23Z" />
<glyph unicode="=" horiz-adv-x="560" d="M70 310V418H490V310H70ZM70 76V183H490V76H70Z" />
<glyph unicode="&gt;" horiz-adv-x="560" d="M27 -23V94L493 269V226L27 400V516L530 321V173L27 -23Z" />
<glyph unicode="?" horiz-adv-x="514" d="M191 214L196 249Q203 299 222 331T266 386T316 427Q338 443 356 457T386 488T397 530Q397 557 376 575T316 593Q259 593 225 563T184 479L63 486Q79 594 147 650T316 707Q371 707 416 688T489 631T517 534Q517 488 503
456T463 397T397 344Q363 320 340 296T309 232L306 214H191ZM149 0L168 137H312L293 0H149Z" />
<glyph unicode="@" horiz-adv-x="873" d="M395 -113Q293 -113 215 -70T91 49T46 221Q46 309 79 389T173 532T314 632T490 669Q595 669 673 628T794 513T838 343Q838 298 828 252T797 168T739 106T649 83Q609 83 578 96T530 132T513 182Q513 185 513 188T514 193L516
215L542 169Q519 124 476 102T382 80Q309 80 264 124T219 242Q219 299 243 349T313 430T421 462Q466 462 497 442T547 382L529 398L554 454H658L629 244Q628 237 628 231T627 218Q627 201 634 194T659 187Q681 187 696 205T721 250T735 303T740 344Q740 412 710
462T624 540T492 568Q416 568 353 539T243 462T172 351T146 222Q146 154 178 101T265 17T395 -14Q441 -14 485 -1T570 37L611 -54Q560 -84 504 -98T395 -113ZM411 187Q442 187 464 202T498 242T510 292Q510 321 494 338T449 355Q418 355 395 339T361 297T349 248Q349
219 365 203T411 187Z" />
<glyph unicode="A" horiz-adv-x="686" d="M-31 0L352 697H458L645 0H491L379 485L128 0H-31ZM183 127L245 255H441L470 127H183Z" />
<glyph unicode="B" horiz-adv-x="615" d="M28 0L126 697H375Q471 697 525 656T580 541Q580 488 557 445T487 374Q530 356 552 322T575 236Q575 163 543 110T453 29T319 0H28ZM190 131H319Q374 131 403 157T433 230Q433 260 414 277T353 295H213L190 131ZM231 423H340Q367
423 388 433T422 462T435 509Q435 535 417 550T364 566H251L231 423Z" />
<glyph unicode="C" horiz-adv-x="712" d="M343 -17Q268 -17 213 7T120 75T64 174T45 293Q45 369 70 443T146 579T267 677T431 714Q547 714 622 656T719 498L581 457Q568 515 525 546T419 577Q362 577 319 554T246 491T201 403T186 304Q186 220 229 170T355 120Q422
120 470 154T549 247L678 192Q630 93 542 38T343 -17Z" />
<glyph unicode="D" horiz-adv-x="671" d="M28 0L126 697H329Q484 697 568 622T652 407Q652 319 627 245T551 115T422 30T237 0H28ZM190 131H235Q323 131 378 156T461 224T500 315T511 410Q511 470 488 504T421 552T315 566H251L190 131Z" />
<glyph unicode="E" horiz-adv-x="575" d="M28 0L126 697H592L575 569H252L231 422H535L517 294H213L189 128H512L494 0H28Z" />
<glyph unicode="F" horiz-adv-x="555" d="M28 0L126 697H595L578 569H252L231 422H514L496 294H213L171 0H28Z" />
<glyph unicode="G" horiz-adv-x="736" d="M333 -17Q247 -17 182 21T81 127T45 289Q45 372 72 448T149 585T271 679T430 714Q546 714 621 656T718 498L580 457Q567 515 528 546T426 577Q369 577 325 554T250 490T204 398T188 292Q188 211 230 166T347 120Q381 120
416 129T482 162T536 224T567 322L572 355L589 255H389L407 383H703L650 0H525L518 106L542 82Q518 49 486 27T415 -6T333 -17Z" />
<glyph unicode="H" horiz-adv-x="698" d="M28 0L126 697H269L231 425H517L555 697H698L600 0H457L499 294H213L171 0H28Z" />
<glyph unicode="I" horiz-adv-x="269" d="M28 0L126 697H269L171 0H28Z" />
<glyph unicode="J" horiz-adv-x="557" d="M230 -17Q131 -17 73 40T15 197L157 203Q157 156 179 136T244 116Q299 116 323 153T356 252L401 569H145L162 697H562L498 236Q487 157 451 101T358 14T230 -17Z" />
<glyph unicode="K" horiz-adv-x="672" d="M173 206L196 387L532 697H727L173 206ZM28 0L126 697H269L171 0H28ZM462 0L294 343L411 442L629 0H462Z" />
<glyph unicode="L" horiz-adv-x="507" d="M28 0L126 697H269L189 128H481L462 0H28Z" />
<glyph unicode="M" horiz-adv-x="862" d="M28 0L126 697H334L437 206H411L652 697H862L764 0H621L695 529L710 527L475 62H337L233 527L246 529L171 0H28Z" />
<glyph unicode="N" horiz-adv-x="694" d="M28 0L126 697H272L515 188H479L550 697H694L596 0H450L209 510H244L171 0H28Z" />
<glyph unicode="O" horiz-adv-x="748" d="M342 -17Q251 -17 185 21T82 128T45 292Q45 374 72 449T149 584T271 679T432 714Q523 714 589 676T692 569T729 404Q729 322 702 247T625 112T503 18T342 -17ZM353 120Q408 120 451 142T524 202T569 289T585 392Q585 477
543 527T420 577Q365 577 322 554T248 492T203 404T188 303Q188 247 207 206T263 143T353 120Z" />
<glyph unicode="P" horiz-adv-x="564" d="M28 0L126 697H352Q459 697 518 655T577 527Q577 449 546 395T455 313T310 284H211L170 0H28ZM228 412H305Q368 412 401 434T434 506Q434 542 407 555T335 569H251L228 412Z" />
<glyph unicode="Q" horiz-adv-x="787" d="M342 -17Q251 -17 185 21T82 128T45 292Q45 374 72 449T149 584T270 679T432 714Q523 714 589 676T692 569T729 404Q729 322 702 247T625 112T503 18T342 -17ZM627 -59L374 220L472 301L719 20L627 -59ZM353 120Q408 120
451 142T524 202T569 289T585 392Q585 477 543 527T420 577Q365 577 322 554T248 492T203 404T188 303Q188 219 231 170T353 120Z" />
<glyph unicode="R" horiz-adv-x="616" d="M28 0L126 697H352Q460 697 518 655T577 527Q577 462 554 411T482 327T358 285Q344 285 330 285T299 285H211L170 0H28ZM409 0L273 298L419 315L568 0H409ZM228 410H305Q368 410 401 432T434 504Q434 541 407 555T335
569H251L228 410Z" />
<glyph unicode="S" horiz-adv-x="579" d="M281 -14Q205 -14 146 14T54 91T19 206L161 233Q163 171 199 142T287 113Q321 113 345 123T383 153T397 199Q397 222 386 239T351 270T288 300Q227 325 187 355T128 422T109 505Q109 565 138 612T220 687T340 714Q418
714 477 678T558 578L438 516Q423 552 399 569T340 587Q311 587 292 577T263 550T253 512Q253 492 263 477T298 448T365 416Q423 393 461 365T520 300T541 211Q541 144 508 93T417 14T281 -14Z" />
<glyph unicode="T" horiz-adv-x="583" d="M184 0L264 569H54L72 697H636L618 569H409L329 0H184Z" />
<glyph unicode="U" horiz-adv-x="658" d="M299 -17Q178 -17 116 37T54 197Q54 209 55 224T58 256L120 697H263L203 265Q201 248 200 234T198 206Q198 159 221 137T303 115Q357 115 389 133T438 185T461 271L521 697H664L602 253Q583 116 507 50T299 -17Z" />
<glyph unicode="V" horiz-adv-x="677" d="M253 0L71 697H226L351 176H306L575 697H736L359 0H253Z" />
<glyph unicode="W" horiz-adv-x="987" d="M187 0L74 697H222L293 220L479 656H620L682 220L889 697H1040L731 0H593L516 485H540L326 0H187Z" />
<glyph unicode="X" horiz-adv-x="679" d="M-25 0L254 347L75 697H244L365 446L559 697H732L452 347L632 0H464L341 244L149 0H-25Z" />
<glyph unicode="Y" horiz-adv-x="632" d="M211 0L251 274L66 697H226L335 416L530 697H695L394 274L354 0H211Z" />
<glyph unicode="Z" horiz-adv-x="613" d="M-9 0L6 117L476 615L493 569H94L113 697H635L620 580L165 99L148 128H569L551 0H-9Z" />
<glyph unicode="[" horiz-adv-x="313" d="M1 -249L141 742H363L350 650H240L126 -157H236L223 -249H1Z" />
<glyph unicode="\" horiz-adv-x="473" d="M602 -212H497L5 697H112L602 -212Z" />
<glyph unicode="]" horiz-adv-x="315" d="M-50 -249L-36 -157H74L192 650H81L94 742H315L170 -249H-50Z" />
<glyph unicode="^" horiz-adv-x="652" d="M23 201L301 697H474L615 201H471L361 632H401L171 201H23Z" />
<glyph unicode="_" horiz-adv-x="522" d="M-2 -104L13 0H439L424 -104H-2Z" />
<glyph unicode="`" horiz-adv-x="303" d="M213 554L96 697H238L310 554H213Z" />
<glyph unicode="a" horiz-adv-x="573" d="M215 -10Q157 -10 117 16T56 90T35 200Q35 258 52 312T102 410T180 478T280 503Q319 503 352 487T404 437T420 348L396 364L422 493H550L481 0H352L361 127L395 143Q373 80 343 47T280 2T215 -10ZM258 116Q292 116 317
130T360 170T386 224T395 283Q395 313 385 334T356 366T310 378Q276 378 250 363T207 324T182 269T173 210Q173 181 182 160T211 127T258 116Z" />
<glyph unicode="b" horiz-adv-x="573" d="M301 -10Q266 -10 233 3T178 52T151 151L176 127L151 0H23L121 697H257L212 364L183 355Q199 410 227 442T289 488T359 503Q411 503 451 479T515 408T539 295Q539 239 523 185T477 87T403 16T301 -10ZM271 116Q300 116
323 127T364 160T391 209T400 274Q400 307 390 330T359 365T308 378Q279 378 256 366T215 333T189 284T180 220Q180 188 190 165T222 129T271 116Z" />
<glyph unicode="c" horiz-adv-x="524" d="M258 -10Q180 -10 130 20T57 101T33 210Q33 267 52 319T107 413T194 479T308 503Q387 503 439 465T509 352L385 312Q379 345 361 364T305 384Q272 384 246 369T203 327T178 270T169 209Q169 182 179 160T209 123T260 109Q303
109 327 131T366 188L480 134Q443 59 385 25T258 -10Z" />
<glyph unicode="d" horiz-adv-x="573" d="M215 -10Q157 -10 117 16T56 90T35 200Q35 258 52 312T102 410T180 478T280 503Q319 503 352 487T404 437T420 348L396 364L442 697H579L481 0H352L361 127L395 143Q373 80 343 47T280 2T215 -10ZM265 116Q294 116 318
127T359 160T385 210T394 273Q394 306 384 329T353 365T302 378Q273 378 250 366T209 333T182 284T173 220Q173 187 184 164T216 128T265 116Z" />
<glyph unicode="e" horiz-adv-x="543" d="M254 -10Q175 -10 126 19T55 98T33 205Q33 260 50 313T102 409T187 477T304 503Q374 503 419 476T487 401T510 291Q510 265 507 243T497 196H166Q166 190 166 186T167 175Q173 141 199 125T264 108Q299 108 333 119T399
149L460 56Q419 27 367 9T254 -10ZM380 272Q383 283 384 293T386 313Q386 334 378 352T352 381T303 393Q267 393 242 378T201 341T180 297H426L380 272Z" />
<glyph unicode="f" horiz-adv-x="353" d="M60 0L115 386H29L45 493H131L138 545Q148 609 172 644T233 693T313 707Q347 707 370 701T414 684L361 583Q353 588 344 590T326 593Q302 593 290 577T274 536L268 493H369L354 386H252L198 0H60Z" />
<glyph unicode="g" horiz-adv-x="574" d="M217 -214Q157 -214 116 -199T47 -157T3 -103L117 -26Q130 -52 152 -74T218 -97Q244 -97 271 -88T320 -54T347 18L359 115L377 98Q345 46 306 28T218 9Q161 9 120 36T58 110T37 216Q37 269 54 320T104 413T182 478T280
503Q339 503 373 478T415 409L401 394L422 493H551L483 11Q472 -67 436 -117T344 -190T217 -214ZM272 131Q300 131 323 142T361 174T385 220T394 277Q394 308 384 330T354 365T303 378Q275 378 252 367T211 336T185 290T176 232Q176 203 187 180T220 144T272 131Z"
/>
<glyph unicode="h" horiz-adv-x="570" d="M23 0L121 697H258L214 379L193 383Q212 430 240 456T302 493T366 503Q445 503 487 463T530 354Q530 347 530 339T528 321L483 0H345L384 278Q386 289 386 297T387 315Q387 351 372 367T322 384Q269 384 237 346T193 229L160
0H23Z" />
<glyph unicode="i" horiz-adv-x="252" d="M22 0L91 493H228L159 0H22ZM99 565L117 697H261L242 565H99Z" />
<glyph unicode="j" horiz-adv-x="252" d="M10 -214Q-14 -214 -38 -210T-84 -198L-75 -81Q-63 -84 -53 -85T-38 -86Q-16 -86 -2 -77T16 -40L91 493H228L147 -85Q137 -153 100 -183T10 -214ZM99 565L117 697H261L242 565H99Z" />
<glyph unicode="k" horiz-adv-x="569" d="M365 0L254 217L170 135L192 305L384 493H571L355 306L518 0H365ZM22 0L120 697H258L160 0H22Z" />
<glyph unicode="l" horiz-adv-x="285" d="M149 -10Q100 -10 68 16T36 97Q36 104 36 111T38 125L118 697H255L182 168Q181 159 180 153T179 142Q179 126 187 121T207 115Q216 115 225 116T243 120L226 3Q203 -5 183 -7T149 -10Z" />
<glyph unicode="m" horiz-adv-x="847" d="M23 0L93 493H222L213 364L178 342Q197 410 228 445T295 491T360 503Q398 503 433 489T491 438T517 338L430 313Q456 389 491 430T566 487T642 503Q701 503 737 480T789 421T806 343Q806 335 806 327T804 311L761 0H623L663
284Q665 293 665 301T665 317Q665 352 651 368T608 384Q562 384 533 348T494 240L460 0H323L363 286Q365 297 365 304T366 319Q366 347 355 365T312 384Q264 384 234 348T194 240L160 0H23Z" />
<glyph unicode="n" horiz-adv-x="570" d="M23 0L93 493H222L214 379L193 383Q212 430 240 456T302 493T366 503Q445 503 487 463T530 354Q530 347 530 339T528 321L483 0H345L384 278Q386 289 386 297T387 315Q387 351 372 367T322 384Q269 384 237 346T193 229L160
0H23Z" />
<glyph unicode="o" horiz-adv-x="570" d="M254 -10Q188 -10 138 18T60 97T32 214Q32 273 53 325T113 417T202 480T315 503Q382 503 432 475T509 397T537 281Q537 222 516 169T456 76T366 13T254 -10ZM266 110Q298 110 323 124T365 162T391 214T400 272Q400 318
377 350T304 383Q271 383 246 369T203 332T178 280T169 223Q169 177 193 144T266 110Z" />
<glyph unicode="p" horiz-adv-x="573" d="M-5 -204L93 493H221L213 366L178 349Q200 414 230 447T293 491T359 503Q417 503 457 477T517 403T538 293Q538 235 522 181T475 83T400 15T301 -10Q263 -10 230 6T176 56T153 145L177 129L131 -204H-5ZM271 115Q300 115
323 127T364 159T391 209T400 273Q400 306 390 329T359 365T308 377Q279 377 256 366T215 333T189 283T180 220Q180 188 190 165T221 128T271 115Z" />
<glyph unicode="q" horiz-adv-x="573" d="M316 -204L362 129L391 138Q375 84 347 52T285 5T215 -10Q164 -10 123 14T59 85T35 198Q35 254 50 308T96 406T170 477T272 503Q307 503 340 490T396 442T423 342L397 366L422 493H551L453 -204H316ZM265 115Q294 115
317 127T358 160T385 209T394 273Q394 306 384 329T353 364T302 377Q273 377 250 366T209 333T182 284T173 219Q173 187 184 164T216 128T265 115Z" />
<glyph unicode="r" horiz-adv-x="432" d="M22 0L92 493H223L212 359L193 362Q201 405 226 436T286 485T353 503Q381 503 403 496T450 471L372 351Q363 358 347 362T315 367Q274 367 248 344T209 283T189 202L160 0H22Z" />
<glyph unicode="s" horiz-adv-x="477" d="M212 -10Q155 -10 113 7T44 48T2 92L100 166Q120 134 151 115T218 96Q243 96 259 102T285 120T294 144Q294 159 284 168T257 184T218 197Q194 204 167 214T116 239T76 280T60 342Q60 389 86 425T158 482T263 503Q328 503
374 479T444 410L352 349Q337 374 313 385T260 397Q234 397 213 387T191 356Q191 342 206 333T260 315Q301 305 340 289T405 245T431 166Q431 114 403 74T327 12T212 -10Z" />
<glyph unicode="t" horiz-adv-x="375" d="M224 -10Q186 -10 153 3T100 44T80 121Q80 130 81 140T85 170L145 602L295 676L226 186Q225 177 224 166T223 144Q223 123 232 113T265 102Q278 102 291 105T321 112L306 2Q284 -4 264 -7T224 -10ZM29 386L45 493H375L360
386H29Z" />
<glyph unicode="u" horiz-adv-x="570" d="M205 -10Q120 -10 80 33T40 147Q40 158 41 168T43 190L86 493H223L184 214Q183 203 182 194T181 175Q181 145 195 127T249 109Q295 109 321 136T361 210T384 317L408 493H546L477 0H348L353 107L369 90Q338 33 295 12T205 -10Z" />
<glyph unicode="v" horiz-adv-x="539" d="M181 0L48 493H197L258 179L412 493H562L293 0H181Z" />
<glyph unicode="w" horiz-adv-x="757" d="M136 0L51 493H195L232 211L352 493H469L509 213L627 493H776L552 0H430L387 297L260 0H136Z" />
<glyph unicode="x" horiz-adv-x="549" d="M-19 0L182 249L53 493H211L284 338L400 493H567L365 249L495 0H339L265 159L148 0H-19Z" />
<glyph unicode="y" horiz-adv-x="539" d="M30 -204L168 42L48 493H197L258 179L412 493H562L181 -204H30Z" />
<glyph unicode="z" horiz-adv-x="470" d="M-1 0L11 90L315 415L324 378H62L79 493H467L455 396L155 70L146 115H414L398 0H-1Z" />
<glyph unicode="{" horiz-adv-x="309" d="M140 -249Q94 -249 68 -218T42 -135Q42 -128 43 -119T45 -101L76 121Q77 126 77 132T78 143Q78 178 61 189T25 202L30 292Q44 293 61 301T94 328T113 379L144 601Q154 668 186 705T271 742H361L349 655H314Q289 655 276
637T259 591L228 369Q221 316 198 290T136 247L135 242Q160 227 177 205T195 144Q195 137 195 131T193 117L161 -106Q160 -112 160 -117T159 -128Q159 -143 166 -152T191 -162H234L222 -249H140Z" />
<glyph unicode="|" horiz-adv-x="276" d="M17 -254L157 746H259L119 -254H17Z" />
<glyph unicode="}" horiz-adv-x="310" d="M-53 -249L-40 -162H-6Q20 -162 33 -144T51 -97L83 125Q87 155 95 176T121 213T173 246V251Q141 270 130 293T118 344Q118 351 119 359T121 377L153 599Q154 605 154 610T154 621Q154 636 148 645T120 655H79L92 742H173Q204
742 225 728T256 689T266 631Q266 623 266 614T263 593L232 371Q231 367 231 363T230 354Q230 332 242 313T285 291L279 201Q258 200 240 187T209 154T194 113L162 -109Q158 -141 145 -173T106 -227T35 -249H-53Z" />
<glyph unicode="~" horiz-adv-x="560" d="M368 144Q330 144 307 155T270 182T245 214T223 242T192 253Q175 253 167 231T158 175H48Q48 253 87 301T192 350Q231 350 255 339T293 311T318 279T340 252T368 240Q384 240 394 266T405 329H514Q514 248 475 196T368 144Z" />
<glyph unicode="&#xa0;" horiz-adv-x="260" />
<glyph unicode="&#xa1;" horiz-adv-x="256" d="M185 277L133 -204H-4L80 277H185ZM235 493L216 356H71L91 493H235Z" />
<glyph unicode="&#xa2;" horiz-adv-x="560" d="M185 -113L208 48H310L287 -113H185ZM264 442L286 601H388L366 442H264ZM276 -10Q198 -10 149 20T76 101T52 210Q52 267 70 319T125 413T212 479T327 503Q406 503 458 465T527 352L404 312Q398 345 380 364T324 384Q291
384 265 369T222 327T197 270T188 209Q188 182 198 160T228 123T278 109Q321 109 345 131T384 188L499 134Q461 59 403 25T276 -10Z" />
<glyph unicode="&#xa3;" horiz-adv-x="560" d="M3 0L20 116Q68 138 97 159T142 204T160 253Q161 262 161 274T159 298H52L65 392H149Q148 411 147 429T146 465Q146 542 176 598T258 685T378 715Q463 715 516 672T581 560L472 524Q463 564 437 582T379 600Q336
600 310 582T271 532T259 463Q259 447 260 431T262 392H475L462 298H270Q271 284 271 267T270 232Q267 211 261 192T242 155T212 126T170 105V115H510L494 0H3Z" />
<glyph unicode="&#xa4;" horiz-adv-x="610" d="M99 54L35 130L100 188Q90 211 85 235T79 286Q79 327 93 367T133 440L86 490L167 566L215 510Q247 529 280 538T343 547Q378 547 409 537T464 508L529 566L596 492L531 433Q542 411 548 386T554 334Q554 294 540
254T498 180L545 130L464 54L416 109Q385 90 353 82T290 74Q253 74 222 84T164 113L99 54ZM298 178Q335 178 362 190T409 225T437 274T447 328Q447 358 435 384T397 427T333 443Q298 443 271 430T225 395T197 346T187 292Q187 262 199 236T235 194T298 178Z" />
<glyph unicode="&#xa5;" horiz-adv-x="560" d="M177 0L191 102H39L54 213H206L214 268H62L78 379H170L65 697H218L300 407L471 697H626L434 379H522L506 268H358L350 213H498L483 102H334L320 0H177Z" />
<glyph unicode="&#xa6;" horiz-adv-x="276" d="M99 330L157 746H259L201 330H99ZM17 -254L74 155H176L119 -254H17Z" />
<glyph unicode="&#xa7;" horiz-adv-x="616" d="M251 -222Q206 -222 164 -208T88 -165T37 -92L163 -27Q175 -60 203 -77T259 -94Q283 -94 302 -84T332 -56T343 -20Q343 3 329 17T290 43T236 66Q205 79 173 93T114 128T71 181T54 260Q54 309 74 353T137 434Q133
445 131 459T128 490Q128 554 160 602T248 679T373 707Q445 707 498 674T578 579L452 513Q443 544 419 562T361 581Q337 581 317 572T285 546T273 509Q273 486 288 470T328 442T384 417Q414 405 445 390T502 354T545 303T562 227Q562 178 540 133T479 52Q483 38
485 25T487 -3Q487 -65 457 -114T373 -193T251 -222ZM398 142Q411 154 419 169T427 201Q427 224 415 237T381 261T327 284Q306 293 276 306T218 337Q204 325 196 309T188 276Q188 250 204 233T247 205T304 182Q331 173 345 168T366 159T379 152T398 142Z" />
<glyph unicode="&#xa8;" horiz-adv-x="433" d="M277 565L295 697H438L420 565H277ZM78 565L96 697H240L221 565H78Z" />
<glyph unicode="&#xa9;" horiz-adv-x="797" d="M399 -5Q326 -5 262 22T149 98T73 211T45 349Q45 422 72 486T148 598T261 674T399 702Q472 702 536 675T648 599T724 486T752 349Q752 276 725 212T649 99T536 23T399 -5ZM401 143Q334 143 292 173T228 250T207 347Q207
399 227 446T291 523T400 553Q461 553 506 524T575 433L468 392Q462 416 445 433T400 451Q371 451 354 436T328 396T320 347Q320 322 328 299T353 262T400 247Q426 247 444 263T468 303L570 264Q550 208 506 176T401 143ZM399 59Q459 59 511 81T603 144T665 236T688
349Q688 409 666 461T603 553T511 615T399 638Q339 638 287 616T194 554T132 462T109 349Q109 289 131 237T194 144T286 82T399 59Z" />
<glyph unicode="&#xaa;" horiz-adv-x="465" d="M194 350Q140 350 104 380T67 461Q67 517 106 542T201 568H298Q298 575 298 581T295 593Q288 613 272 624T229 636Q194 636 173 620T139 585L78 626Q109 670 144 688T226 707Q296 707 335 668T374 567V358H304L302
395Q257 350 194 350ZM212 422Q236 422 254 430T284 455Q290 465 293 475T298 497H207Q180 497 166 487T152 459Q152 444 167 433T212 422Z" />
<glyph unicode="&#xab;" horiz-adv-x="565" d="M506 38L273 252L564 467L546 320L435 252L525 184L506 38ZM235 38L2 252L293 467L275 320L164 252L254 184L235 38Z" />
<glyph unicode="&#xac;" horiz-adv-x="560" d="M381 24V193H27V301H489V24H381Z" />
<glyph unicode="&#xad;" horiz-adv-x="327" d="M39 242L54 344H302L287 242H39Z" />
<glyph unicode="&#xae;" horiz-adv-x="605" d="M303 189Q232 189 173 220T78 310T43 448Q43 527 78 585T172 675T303 707Q374 707 433 675T527 585T562 448Q562 369 527 311T433 221T303 189ZM303 250Q358 250 402 274T473 342T500 448Q500 510 474 554T403 622T303
646Q247 646 203 622T132 554T105 448Q105 387 131 343T202 274T303 250ZM218 305V592H316Q370 592 392 570T415 508Q415 477 402 458T363 429L423 305H359L306 422H277V305H218ZM278 474H310Q328 474 342 480T356 508Q356 529 342 534T310 540H278V474Z" />
<glyph unicode="&#xaf;" horiz-adv-x="359" d="M77 555L98 634H373L352 555H77Z" />
<glyph unicode="&#xb0;" horiz-adv-x="423" d="M242 418Q205 418 175 435T128 482T110 550Q110 592 132 627T190 685T268 707Q307 707 337 690T384 643T402 576Q402 534 380 498T321 440T242 418ZM250 508Q267 508 280 516T302 538T311 568Q311 589 297 603T260
617Q245 617 231 609T209 588T201 558Q201 536 215 522T250 508Z" />
<glyph unicode="&#xb1;" horiz-adv-x="560" d="M226 132V284H34V392H226V542H335V392H526V284H335V132H226ZM34 -52V57H526V-52H34Z" />
<glyph unicode="&#xb2;" horiz-adv-x="363" d="M70 488L76 551Q98 562 123 577T173 610T222 650T264 695T294 742T305 790Q305 808 295 819T262 831Q237 831 221 818T196 786T182 748L103 759Q107 786 120 813T154 863T203 898T267 911Q303 911 330 897T372 856T387
794Q387 764 378 736T351 683T310 636T261 594T204 558T144 529L167 565H372L362 488H70Z" />
<glyph unicode="&#xb3;" horiz-adv-x="348" d="M205 482Q162 482 130 497T80 540T62 603Q62 608 62 613T64 625H145Q145 622 145 620T145 618Q145 589 162 575T212 561Q238 561 257 569T286 591T297 626Q297 639 292 648T277 663T250 671T210 674L215 738Q238
738 256 744T286 762T297 793Q297 812 286 822T253 833Q235 833 221 826T197 807T185 778L105 788Q110 824 131 852T186 896T259 912Q296 912 323 898T365 859T380 803Q380 780 372 761T345 728T298 704V721Q322 716 340 705T369 674T379 628Q379 587 357 554T295
502T205 482Z" />
<glyph unicode="&#xb4;" horiz-adv-x="346" d="M76 554L200 697H345L175 554H76Z" />
<glyph unicode="&#xb5;" horiz-adv-x="570" d="M-6 -159L86 493H223L184 212Q183 202 182 192T181 175Q181 146 194 128T249 109Q296 109 322 137T362 213T384 319L408 493H546L477 0H355L361 114L380 93Q346 36 300 13T205 -10Q188 -10 177 -7T158 2L132 -159H-6Z" />
<glyph unicode="&#xb6;" horiz-adv-x="629" d="M217 -121L281 307Q228 307 182 328T108 387T80 481Q80 532 101 572T157 640T237 682T328 697H408L293 -121H217ZM402 -121L517 697H595L480 -121H402Z" />
<glyph unicode="&#xb7;" horiz-adv-x="299" d="M87 281L106 417H238L219 281H87Z" />
<glyph unicode="&#xb8;" horiz-adv-x="271" d="M59 -259Q45 -259 21 -254T-24 -232L19 -166Q29 -173 40 -177T60 -181Q77 -181 87 -172T98 -146Q98 -129 89 -119T64 -104T29 -98T-12 -97L59 12L142 11L94 -44Q120 -49 139 -62T169 -94T180 -142Q180 -193 146 -226T59
-259Z" />
<glyph unicode="&#xb9;" horiz-adv-x="434" d="M228 488L273 816L292 777H162L171 842H231Q254 842 267 853T284 886L287 906H369L310 488H228Z" />
<glyph unicode="&#xba;" horiz-adv-x="487" d="M243 351Q190 351 151 375T89 440T66 529Q66 578 88 618T151 682T243 707Q295 707 335 683T397 619T420 529Q420 480 398 440T336 375T243 351ZM243 426Q276 426 295 440T323 477T332 529Q332 558 323 581T295 618T243
632Q211 632 192 619T163 582T154 529Q154 501 162 478T190 440T243 426Z" />
<glyph unicode="&#xbb;" horiz-adv-x="457" d="M-51 38L-69 184L20 252L-90 320L-109 467L182 252L-51 38ZM220 38L202 184L292 252L181 320L162 467L453 252L220 38Z" />
<glyph unicode="&#xbc;" horiz-adv-x="830" d="M99 279L144 607L162 568H33L42 633H102Q125 633 138 644T154 677L158 697H240L181 279H99ZM60 0L587 697H687L160 0H60ZM646 0L660 98H480L488 162L715 418H787L753 175H819L808 98H742L729 0H646ZM557 156L554
175H673L696 343L702 327L557 156Z" />
<glyph unicode="&#xbd;" horiz-adv-x="809" d="M99 279L144 607L162 568H33L42 633H102Q125 633 138 644T154 677L158 697H240L181 279H99ZM60 0L587 697H687L160 0H60ZM476 0L483 63Q504 74 529 89T580 122T629 162T671 207T700 254T711 302Q711 320 701 331T668
343Q643 343 627 330T602 298T589 260L510 271Q514 298 526 325T560 375T610 410T673 423Q710 423 736 409T778 368T793 306Q793 276 784 248T757 195T717 148T667 106T611 70T551 41L573 77H779L768 0H476Z" />
<glyph unicode="&#xbe;" horiz-adv-x="933" d="M155 273Q111 273 79 288T29 331T11 394Q11 399 11 404T13 416H95Q94 413 94 411T94 409Q94 380 112 366T162 352Q187 352 206 360T236 382T247 417Q247 430 242 439T227 454T200 462T160 465L164 529Q188 529 206
535T235 553T246 584Q246 603 235 613T202 624Q184 624 170 617T147 598T134 569L55 579Q60 615 81 643T135 687T209 703Q246 703 273 689T315 650T330 594Q330 571 321 552T294 519T248 495V512Q272 507 290 496T319 465T329 419Q329 378 306 345T244 293T155
273ZM163 0L690 697H790L263 0H163ZM749 0L763 98H583L591 162L818 418H890L856 175H922L911 98H845L832 0H749ZM661 156L657 175H776L799 343L805 327L661 156Z" />
<glyph unicode="&#xbf;" horiz-adv-x="439" d="M297 279L292 244Q285 194 266 162T222 107T171 66Q150 50 132 36T102 5T90 -37Q90 -64 112 -82T172 -100Q230 -100 263 -70T304 14L425 7Q409 -101 341 -157T171 -214Q118 -214 72 -195T-1 -138T-29 -41Q-29 5 -16
37T25 96T91 149Q125 174 148 198T178 261L181 279H297ZM339 493L320 356H176L195 493H339Z" />
<glyph unicode="&#xc0;" horiz-adv-x="686" d="M-31 0L352 697H458L645 0H491L379 485L128 0H-31ZM183 127L245 255H441L470 127H183ZM372 758L255 901H397L469 758H372Z" />
<glyph unicode="&#xc1;" horiz-adv-x="686" d="M-31 0L352 697H458L645 0H491L379 485L128 0H-31ZM183 127L245 255H441L470 127H183ZM364 758L488 901H633L463 758H364Z" />
<glyph unicode="&#xc2;" horiz-adv-x="686" d="M-31 0L352 697H458L645 0H491L379 485L128 0H-31ZM183 127L245 255H441L470 127H183ZM253 743L436 922L569 743H464L425 806L366 743H253Z" />
<glyph unicode="&#xc3;" horiz-adv-x="686" d="M-31 0L352 697H458L645 0H491L379 485L128 0H-31ZM183 127L245 255H441L470 127H183ZM480 741Q456 741 440 747T412 762T393 779T378 793T362 799Q347 799 336 783T321 739L244 747Q252 809 284 841T365 873Q386
873 401 867T428 853T447 836T463 821T478 815Q490 815 502 831T518 875L599 867Q590 804 559 773T480 741Z" />
<glyph unicode="&#xc4;" horiz-adv-x="686" d="M-31 0L352 697H458L645 0H491L379 485L128 0H-31ZM183 127L245 255H441L470 127H183ZM445 769L463 901H606L588 769H445ZM246 769L264 901H408L389 769H246Z" />
<glyph unicode="&#xc5;" horiz-adv-x="686" d="M-31 0L352 697H458L645 0H491L379 485L128 0H-31ZM183 127L245 255H441L470 127H183ZM402 626Q353 626 323 659T292 737Q292 771 310 800T357 847T421 865Q467 865 499 835T531 756Q531 721 513 692T466 644T402
626ZM408 700Q432 700 445 716T459 753Q459 769 449 780T419 792Q394 792 381 776T367 741Q367 725 377 713T408 700Z" />
<glyph unicode="&#xc6;" horiz-adv-x="938" d="M-31 0L351 697H955L938 569H599L576 412H875L857 284H558L536 128H875L857 0H374L455 571H422L128 0H-31ZM169 127L232 259H445L426 127H169Z" />
<glyph unicode="&#xc7;" horiz-adv-x="712" d="M343 -17Q268 -17 213 7T120 75T64 174T45 293Q45 369 70 443T146 579T267 677T431 714Q547 714 622 656T719 498L581 457Q568 515 525 546T419 577Q362 577 319 554T246 491T201 403T186 304Q186 220 229 170T355
120Q422 120 470 154T549 247L678 192Q630 93 542 38T343 -17ZM290 -259Q276 -259 252 -254T207 -232L250 -166Q260 -173 271 -177T291 -181Q308 -181 318 -172T329 -146Q329 -129 320 -119T295 -104T260 -98T219 -97L290 12L373 11L325 -44Q351 -49 370 -62T400
-94T411 -142Q411 -193 377 -226T290 -259Z" />
<glyph unicode="&#xc8;" horiz-adv-x="575" d="M28 0L126 697H592L575 569H252L231 422H535L517 294H213L189 128H512L494 0H28ZM324 758L207 901H349L421 758H324Z" />
<glyph unicode="&#xc9;" horiz-adv-x="575" d="M28 0L126 697H592L575 569H252L231 422H535L517 294H213L189 128H512L494 0H28ZM316 758L440 901H585L415 758H316Z" />
<glyph unicode="&#xca;" horiz-adv-x="575" d="M28 0L126 697H592L575 569H252L231 422H535L517 294H213L189 128H512L494 0H28ZM206 743L389 922L522 743H417L378 806L319 743H206Z" />
<glyph unicode="&#xcb;" horiz-adv-x="575" d="M28 0L126 697H592L575 569H252L231 422H535L517 294H213L189 128H512L494 0H28ZM397 769L415 901H558L540 769H397ZM198 769L216 901H360L341 769H198Z" />
<glyph unicode="&#xcc;" horiz-adv-x="269" d="M28 0L126 697H269L171 0H28ZM163 758L46 901H188L260 758H163Z" />
<glyph unicode="&#xcd;" horiz-adv-x="269" d="M28 0L126 697H269L171 0H28ZM155 758L279 901H424L254 758H155Z" />
<glyph unicode="&#xce;" horiz-adv-x="269" d="M28 0L126 697H269L171 0H28ZM48 743L227 922L362 743H258L216 806L158 743H48Z" />
<glyph unicode="&#xcf;" horiz-adv-x="269" d="M28 0L126 697H269L171 0H28ZM236 769L254 901H397L379 769H236ZM37 769L55 901H199L180 769H37Z" />
<glyph unicode="&#xd0;" horiz-adv-x="671" d="M28 0L126 697H329Q484 697 568 622T652 407Q652 319 627 245T551 115T422 30T237 0H28ZM190 131H235Q323 131 378 156T461 224T500 315T511 410Q511 470 488 504T421 552T315 566H251L190 131ZM251 303L264 394H591L579
303H251Z" />
<glyph unicode="&#xd1;" horiz-adv-x="694" d="M28 0L126 697H272L515 188H479L550 697H694L596 0H450L209 510H244L171 0H28ZM483 741Q459 741 443 747T415 762T396 779T381 793T365 799Q350 799 339 783T324 739L247 747Q255 809 287 841T368 873Q389 873 404
867T431 853T450 836T466 821T481 815Q493 815 505 831T521 875L602 867Q593 804 562 773T483 741Z" />
<glyph unicode="&#xd2;" horiz-adv-x="748" d="M342 -17Q251 -17 185 21T82 128T45 292Q45 374 72 449T149 584T271 679T432 714Q523 714 589 676T692 569T729 404Q729 322 702 247T625 112T503 18T342 -17ZM353 120Q408 120 451 142T524 202T569 289T585 392Q585
477 543 527T420 577Q365 577 322 554T248 492T203 404T188 303Q188 247 207 206T263 143T353 120ZM401 758L284 901H426L498 758H401Z" />
<glyph unicode="&#xd3;" horiz-adv-x="748" d="M342 -17Q251 -17 185 21T82 128T45 292Q45 374 72 449T149 584T271 679T432 714Q523 714 589 676T692 569T729 404Q729 322 702 247T625 112T503 18T342 -17ZM353 120Q408 120 451 142T524 202T569 289T585 392Q585
477 543 527T420 577Q365 577 322 554T248 492T203 404T188 303Q188 247 207 206T263 143T353 120ZM393 758L517 901H662L492 758H393Z" />
<glyph unicode="&#xd4;" horiz-adv-x="748" d="M342 -17Q251 -17 185 21T82 128T45 292Q45 374 72 449T149 584T271 679T432 714Q523 714 589 676T692 569T729 404Q729 322 702 247T625 112T503 18T342 -17ZM353 120Q408 120 451 142T524 202T569 289T585 392Q585
477 543 527T420 577Q365 577 322 554T248 492T203 404T188 303Q188 247 207 206T263 143T353 120ZM282 743L465 922L598 743H493L454 806L395 743H282Z" />
<glyph unicode="&#xd5;" horiz-adv-x="748" d="M342 -17Q251 -17 185 21T82 128T45 292Q45 374 72 449T149 584T271 679T432 714Q523 714 589 676T692 569T729 404Q729 322 702 247T625 112T503 18T342 -17ZM353 120Q408 120 451 142T524 202T569 289T585 392Q585
477 543 527T420 577Q365 577 322 554T248 492T203 404T188 303Q188 247 207 206T263 143T353 120ZM510 741Q486 741 470 747T442 762T423 779T408 793T392 799Q377 799 366 783T351 739L274 747Q282 809 314 841T395 873Q416 873 431 867T458 853T477 836T493
821T508 815Q520 815 532 831T548 875L629 867Q620 804 589 773T510 741Z" />
<glyph unicode="&#xd6;" horiz-adv-x="748" d="M342 -17Q251 -17 185 21T82 128T45 292Q45 374 72 449T149 584T271 679T432 714Q523 714 589 676T692 569T729 404Q729 322 702 247T625 112T503 18T342 -17ZM353 120Q408 120 451 142T524 202T569 289T585 392Q585
477 543 527T420 577Q365 577 322 554T248 492T203 404T188 303Q188 247 207 206T263 143T353 120ZM474 769L492 901H635L617 769H474ZM275 769L293 901H437L418 769H275Z" />
<glyph unicode="&#xd7;" horiz-adv-x="560" d="M140 23L56 106L195 247L55 387L139 471L279 331L419 471L504 386L365 247L504 106L419 23L279 161L140 23Z" />
<glyph unicode="&#xd8;" horiz-adv-x="748" d="M342 -17Q251 -17 185 21T82 128T45 292Q45 374 72 449T149 584T271 679T432 714Q523 714 589 676T692 569T729 404Q729 322 702 247T625 112T503 18T342 -17ZM353 120Q408 120 451 142T524 202T569 289T585 392Q585
477 543 527T420 577Q365 577 322 554T248 492T203 404T188 303Q188 247 207 206T263 143T353 120ZM22 0L657 697H753L120 0H22Z" />
<glyph unicode="&#xd9;" horiz-adv-x="658" d="M299 -17Q178 -17 116 37T54 197Q54 209 55 224T58 256L120 697H263L203 265Q201 248 200 234T198 206Q198 159 221 137T303 115Q357 115 389 133T438 185T461 271L521 697H664L602 253Q583 116 507 50T299 -17ZM358
758L241 901H383L455 758H358Z" />
<glyph unicode="&#xda;" horiz-adv-x="658" d="M299 -17Q178 -17 116 37T54 197Q54 209 55 224T58 256L120 697H263L203 265Q201 248 200 234T198 206Q198 159 221 137T303 115Q357 115 389 133T438 185T461 271L521 697H664L602 253Q583 116 507 50T299 -17ZM350
758L474 901H619L449 758H350Z" />
<glyph unicode="&#xdb;" horiz-adv-x="658" d="M299 -17Q178 -17 116 37T54 197Q54 209 55 224T58 256L120 697H263L203 265Q201 248 200 234T198 206Q198 159 221 137T303 115Q357 115 389 133T438 185T461 271L521 697H664L602 253Q583 116 507 50T299 -17ZM239
743L422 922L555 743H450L411 806L352 743H239Z" />
<glyph unicode="&#xdc;" horiz-adv-x="658" d="M299 -17Q178 -17 116 37T54 197Q54 209 55 224T58 256L120 697H263L203 265Q201 248 200 234T198 206Q198 159 221 137T303 115Q357 115 389 133T438 185T461 271L521 697H664L602 253Q583 116 507 50T299 -17ZM431
769L449 901H592L574 769H431ZM232 769L250 901H394L375 769H232Z" />
<glyph unicode="&#xdd;" horiz-adv-x="632" d="M211 0L251 274L66 697H226L335 416L530 697H695L394 274L354 0H211ZM337 758L461 901H606L436 758H337Z" />
<glyph unicode="&#xde;" horiz-adv-x="611" d="M69 0L167 697H298L285 602H402Q492 602 542 558T593 433Q593 425 593 415T590 395Q577 300 507 247T321 193H227L200 0H69ZM244 312H330Q383 312 418 334T461 408Q462 412 462 416T463 424Q463 461 437 476T362
491H269L244 312Z" />
<glyph unicode="&#xdf;" horiz-adv-x="657" d="M410 -10Q351 -10 308 10T239 63T206 134L320 175Q324 160 333 143T360 115T412 104Q445 104 462 119T480 153Q480 167 471 175T445 190T409 203Q380 212 348 225T293 264T271 333Q271 386 307 422T417 484Q443 494
458 502T480 518T487 537Q487 560 460 569T404 578Q345 578 311 563T259 523T236 474T227 430L166 0H23L84 437Q92 489 110 537T163 624T255 684T397 707Q499 707 561 671T623 560Q623 516 607 485T566 434T514 400T462 377Q442 370 430 365T411 354T405 341Q405
334 411 330T428 322T456 316Q479 311 506 302T558 277T600 235T617 168Q617 110 587 70T510 10T410 -10Z" />
<glyph unicode="&#xe0;" horiz-adv-x="573" d="M215 -10Q157 -10 117 16T56 90T35 200Q35 258 52 312T102 410T180 478T280 503Q319 503 352 487T404 437T420 348L396 364L422 493H550L481 0H352L361 127L395 143Q373 80 343 47T280 2T215 -10ZM258 116Q292 116
317 130T360 170T386 224T395 283Q395 313 385 334T356 366T310 378Q276 378 250 363T207 324T182 269T173 210Q173 181 182 160T211 127T258 116ZM287 554L170 697H312L384 554H287Z" />
<glyph unicode="&#xe1;" horiz-adv-x="573" d="M215 -10Q157 -10 117 16T56 90T35 200Q35 258 52 312T102 410T180 478T280 503Q319 503 352 487T404 437T420 348L396 364L422 493H550L481 0H352L361 127L395 143Q373 80 343 47T280 2T215 -10ZM258 116Q292 116
317 130T360 170T386 224T395 283Q395 313 385 334T356 366T310 378Q276 378 250 363T207 324T182 269T173 210Q173 181 182 160T211 127T258 116ZM279 554L403 697H548L378 554H279Z" />
<glyph unicode="&#xe2;" horiz-adv-x="573" d="M215 -10Q157 -10 117 16T56 90T35 200Q35 258 52 312T102 410T180 478T280 503Q319 503 352 487T404 437T420 348L396 364L422 493H550L481 0H352L361 127L395 143Q373 80 343 47T280 2T215 -10ZM258 116Q292 116
317 130T360 170T386 224T395 283Q395 313 385 334T356 366T310 378Q276 378 250 363T207 324T182 269T173 210Q173 181 182 160T211 127T258 116ZM172 539L351 718L486 539H382L340 602L282 539H172Z" />
<glyph unicode="&#xe3;" horiz-adv-x="573" d="M215 -10Q157 -10 117 16T56 90T35 200Q35 258 52 312T102 410T180 478T280 503Q319 503 352 487T404 437T420 348L396 364L422 493H550L481 0H352L361 127L395 143Q373 80 343 47T280 2T215 -10ZM258 116Q292 116
317 130T360 170T386 224T395 283Q395 313 385 334T356 366T310 378Q276 378 250 363T207 324T182 269T173 210Q173 181 182 160T211 127T258 116ZM409 552Q371 552 354 566T325 594Q318 604 312 609T296 615Q279 615 266 596T245 545L168 560Q186 630 221 664T301
699Q333 699 349 686T375 659Q383 650 390 643T410 635Q425 635 438 654T459 705L540 689Q521 619 488 586T409 552Z" />
<glyph unicode="&#xe4;" horiz-adv-x="573" d="M215 -10Q157 -10 117 16T56 90T35 200Q35 258 52 312T102 410T180 478T280 503Q319 503 352 487T404 437T420 348L396 364L422 493H550L481 0H352L361 127L395 143Q373 80 343 47T280 2T215 -10ZM258 116Q292 116
317 130T360 170T386 224T395 283Q395 313 385 334T356 366T310 378Q276 378 250 363T207 324T182 269T173 210Q173 181 182 160T211 127T258 116ZM360 565L378 697H521L503 565H360ZM161 565L179 697H323L304 565H161Z" />
<glyph unicode="&#xe5;" horiz-adv-x="573" d="M215 -10Q157 -10 117 16T56 90T35 200Q35 258 52 312T102 410T180 478T280 503Q319 503 352 487T404 437T420 348L396 364L422 493H550L481 0H352L361 127L395 143Q373 80 343 47T280 2T215 -10ZM258 116Q292 116
317 130T360 170T386 224T395 283Q395 313 385 334T356 366T310 378Q276 378 250 363T207 324T182 269T173 210Q173 181 182 160T211 127T258 116ZM345 531Q302 531 270 557T238 629Q238 664 257 692T308 737T375 754Q417 754 449 730T482 658Q482 622 463 594T412
548T345 531ZM354 595Q379 595 393 612T408 650Q408 666 398 678T367 690Q343 690 328 673T313 635Q313 619 323 607T354 595Z" />
<glyph unicode="&#xe6;" horiz-adv-x="867" d="M206 -10Q158 -10 117 6T50 55T24 135Q24 191 51 227T128 280T246 297H370L371 317Q372 340 364 354T340 376T299 384Q269 384 233 371T164 324L71 413Q130 464 190 483T315 503Q366 503 404 489T467 439Q497 471
541 487T630 503Q699 503 743 476T810 402T833 293Q833 266 830 243T820 196H491Q491 188 492 182T495 171Q501 144 521 129T582 114Q612 114 640 124T693 156L789 76Q744 33 692 12T579 -10Q520 -10 478 12T411 77H400Q370 42 339 23T275 -3T206 -10ZM237 99Q268
99 293 111T335 145T356 193L362 227L376 198H243Q215 198 198 192T173 174T164 147Q164 127 182 113T237 99ZM704 284Q707 292 708 299T710 316Q710 336 701 352T673 378T629 389Q592 389 566 375T525 339T505 297L726 298L704 284Z" />
<glyph unicode="&#xe7;" horiz-adv-x="524" d="M258 -10Q180 -10 130 20T57 101T33 210Q33 267 52 319T107 413T194 479T308 503Q387 503 439 465T509 352L385 312Q379 345 361 364T305 384Q272 384 246 369T203 327T178 270T169 209Q169 182 179 160T209 123T260
109Q303 109 327 131T366 188L480 134Q443 59 385 25T258 -10ZM221 -259Q207 -259 183 -254T138 -232L181 -166Q191 -173 202 -177T222 -181Q239 -181 249 -172T260 -146Q260 -129 251 -119T226 -104T191 -98T150 -97L221 12L304 11L256 -44Q282 -49 301 -62T331
-94T342 -142Q342 -193 308 -226T221 -259Z" />
<glyph unicode="&#xe8;" horiz-adv-x="543" d="M254 -10Q175 -10 126 19T55 98T33 205Q33 260 50 313T102 409T187 477T304 503Q374 503 419 476T487 401T510 291Q510 265 507 243T497 196H166Q166 190 166 186T167 175Q173 141 199 125T264 108Q299 108 333 119T399
149L460 56Q419 27 367 9T254 -10ZM380 272Q383 283 384 293T386 313Q386 334 378 352T352 381T303 393Q267 393 242 378T201 341T180 297H426L380 272ZM275 554L158 697H300L372 554H275Z" />
<glyph unicode="&#xe9;" horiz-adv-x="543" d="M254 -10Q175 -10 126 19T55 98T33 205Q33 260 50 313T102 409T187 477T304 503Q374 503 419 476T487 401T510 291Q510 265 507 243T497 196H166Q166 190 166 186T167 175Q173 141 199 125T264 108Q299 108 333 119T399
149L460 56Q419 27 367 9T254 -10ZM380 272Q383 283 384 293T386 313Q386 334 378 352T352 381T303 393Q267 393 242 378T201 341T180 297H426L380 272ZM268 554L392 697H537L367 554H268Z" />
<glyph unicode="&#xea;" horiz-adv-x="543" d="M254 -10Q175 -10 126 19T55 98T33 205Q33 260 50 313T102 409T187 477T304 503Q374 503 419 476T487 401T510 291Q510 265 507 243T497 196H166Q166 190 166 186T167 175Q173 141 199 125T264 108Q299 108 333 119T399
149L460 56Q419 27 367 9T254 -10ZM380 272Q383 283 384 293T386 313Q386 334 378 352T352 381T303 393Q267 393 242 378T201 341T180 297H426L380 272ZM160 539L339 718L474 539H370L328 602L270 539H160Z" />
<glyph unicode="&#xeb;" horiz-adv-x="543" d="M254 -10Q175 -10 126 19T55 98T33 205Q33 260 50 313T102 409T187 477T304 503Q374 503 419 476T487 401T510 291Q510 265 507 243T497 196H166Q166 190 166 186T167 175Q173 141 199 125T264 108Q299 108 333 119T399
149L460 56Q419 27 367 9T254 -10ZM380 272Q383 283 384 293T386 313Q386 334 378 352T352 381T303 393Q267 393 242 378T201 341T180 297H426L380 272ZM349 565L367 697H510L492 565H349ZM150 565L168 697H312L293 565H150Z" />
<glyph unicode="&#xec;" horiz-adv-x="252" d="M22 0L91 493H228L159 0H22ZM381 554L264 697H406L478 554H381Z" />
<glyph unicode="&#xed;" horiz-adv-x="252" d="M22 0L91 493H228L159 0H22ZM117 554L241 697H386L216 554H117Z" />
<glyph unicode="&#xee;" horiz-adv-x="252" d="M22 0L91 493H228L159 0H22ZM266 539L445 718L580 539H476L434 602L376 539H266Z" />
<glyph unicode="&#xef;" horiz-adv-x="252" d="M22 0L91 493H228L159 0H22ZM454 565L472 697H615L597 565H454ZM255 565L273 697H417L398 565H255Z" />
<glyph unicode="&#xf0;" horiz-adv-x="597" d="M247 -10Q144 -10 90 44T35 186Q35 248 59 302T125 399T221 465T335 489Q358 489 380 484T421 470T454 447Q462 439 467 431T476 414Q479 428 480 442T481 468Q481 517 462 555T401 618T290 644L307 735Q411 727
474 691T565 596T594 455Q594 372 573 290T509 139T400 31T247 -10ZM257 107Q295 107 328 124T387 168T428 228T444 293Q445 315 436 334T405 365T348 377Q301 377 267 359T209 312T175 252T163 192Q163 149 190 128T257 107ZM261 525L254 580L624 668L629 613L261
525Z" />
<glyph unicode="&#xf1;" horiz-adv-x="570" d="M23 0L93 493H222L214 379L193 383Q212 430 240 456T302 493T366 503Q445 503 487 463T530 354Q530 347 530 339T528 321L483 0H345L384 278Q386 289 386 297T387 315Q387 351 372 367T322 384Q269 384 237 346T193
229L160 0H23ZM400 552Q362 552 345 566T316 594Q309 604 303 609T287 615Q270 615 257 596T236 545L159 560Q177 630 212 664T292 699Q324 699 340 686T366 659Q374 650 381 643T401 635Q416 635 429 654T450 705L531 689Q512 619 479 586T400 552Z" />
<glyph unicode="&#xf2;" horiz-adv-x="570" d="M254 -10Q188 -10 138 18T60 97T32 214Q32 273 53 325T113 417T202 480T315 503Q382 503 432 475T509 397T537 281Q537 222 516 169T456 76T366 13T254 -10ZM266 110Q298 110 323 124T365 162T391 214T400 272Q400
318 377 350T304 383Q271 383 246 369T203 332T178 280T169 223Q169 177 193 144T266 110ZM285 554L168 697H310L382 554H285Z" />
<glyph unicode="&#xf3;" horiz-adv-x="570" d="M254 -10Q188 -10 138 18T60 97T32 214Q32 273 53 325T113 417T202 480T315 503Q382 503 432 475T509 397T537 281Q537 222 516 169T456 76T366 13T254 -10ZM266 110Q298 110 323 124T365 162T391 214T400 272Q400
318 377 350T304 383Q271 383 246 369T203 332T178 280T169 223Q169 177 193 144T266 110ZM277 554L401 697H546L376 554H277Z" />
<glyph unicode="&#xf4;" horiz-adv-x="570" d="M254 -10Q188 -10 138 18T60 97T32 214Q32 273 53 325T113 417T202 480T315 503Q382 503 432 475T509 397T537 281Q537 222 516 169T456 76T366 13T254 -10ZM266 110Q298 110 323 124T365 162T391 214T400 272Q400
318 377 350T304 383Q271 383 246 369T203 332T178 280T169 223Q169 177 193 144T266 110ZM169 539L348 718L483 539H379L337 602L279 539H169Z" />
<glyph unicode="&#xf5;" horiz-adv-x="570" d="M254 -10Q188 -10 138 18T60 97T32 214Q32 273 53 325T113 417T202 480T315 503Q382 503 432 475T509 397T537 281Q537 222 516 169T456 76T366 13T254 -10ZM266 110Q298 110 323 124T365 162T391 214T400 272Q400
318 377 350T304 383Q271 383 246 369T203 332T178 280T169 223Q169 177 193 144T266 110ZM407 552Q369 552 352 566T323 594Q316 604 310 609T294 615Q277 615 264 596T243 545L166 560Q184 630 219 664T299 699Q331 699 347 686T373 659Q381 650 388 643T408
635Q423 635 436 654T457 705L538 689Q519 619 486 586T407 552Z" />
<glyph unicode="&#xf6;" horiz-adv-x="570" d="M254 -10Q188 -10 138 18T60 97T32 214Q32 273 53 325T113 417T202 480T315 503Q382 503 432 475T509 397T537 281Q537 222 516 169T456 76T366 13T254 -10ZM266 110Q298 110 323 124T365 162T391 214T400 272Q400
318 377 350T304 383Q271 383 246 369T203 332T178 280T169 223Q169 177 193 144T266 110ZM358 565L376 697H519L501 565H358ZM159 565L177 697H321L302 565H159Z" />
<glyph unicode="&#xf7;" horiz-adv-x="560" d="M53 193V301H507V193H53ZM200 5V147H360V5H200ZM200 348V488H360V348H200Z" />
<glyph unicode="&#xf8;" horiz-adv-x="570" d="M254 -10Q188 -10 138 18T60 97T32 214Q32 273 53 325T113 417T202 480T315 503Q382 503 432 475T509 397T537 281Q537 222 516 169T456 76T366 13T254 -10ZM266 110Q298 110 323 124T365 162T391 214T400 272Q400
318 377 350T304 383Q271 383 246 369T203 332T178 280T169 223Q169 177 193 144T266 110ZM12 215L486 790H558L83 215H12Z" />
<glyph unicode="&#xf9;" horiz-adv-x="570" d="M205 -10Q120 -10 80 33T40 147Q40 158 41 168T43 190L86 493H223L184 214Q183 203 182 194T181 175Q181 145 195 127T249 109Q295 109 321 136T361 210T384 317L408 493H546L477 0H348L353 107L369 90Q338 33 295
12T205 -10ZM280 554L163 697H305L377 554H280Z" />
<glyph unicode="&#xfa;" horiz-adv-x="570" d="M205 -10Q120 -10 80 33T40 147Q40 158 41 168T43 190L86 493H223L184 214Q183 203 182 194T181 175Q181 145 195 127T249 109Q295 109 321 136T361 210T384 317L408 493H546L477 0H348L353 107L369 90Q338 33 295
12T205 -10ZM272 554L396 697H541L371 554H272Z" />
<glyph unicode="&#xfb;" horiz-adv-x="570" d="M205 -10Q120 -10 80 33T40 147Q40 158 41 168T43 190L86 493H223L184 214Q183 203 182 194T181 175Q181 145 195 127T249 109Q295 109 321 136T361 210T384 317L408 493H546L477 0H348L353 107L369 90Q338 33 295
12T205 -10ZM165 539L344 718L479 539H375L333 602L275 539H165Z" />
<glyph unicode="&#xfc;" horiz-adv-x="570" d="M205 -10Q120 -10 80 33T40 147Q40 158 41 168T43 190L86 493H223L184 214Q183 203 182 194T181 175Q181 145 195 127T249 109Q295 109 321 136T361 210T384 317L408 493H546L477 0H348L353 107L369 90Q338 33 295
12T205 -10ZM353 565L371 697H514L496 565H353ZM154 565L172 697H316L297 565H154Z" />
<glyph unicode="&#xfd;" horiz-adv-x="539" d="M30 -204L168 42L48 493H197L258 179L412 493H562L181 -204H30ZM263 554L387 697H532L362 554H263Z" />
<glyph unicode="&#xfe;" horiz-adv-x="606" d="M21 -204L147 697H285L240 366L214 401Q232 439 261 461T323 493T387 503Q446 503 485 477T543 403T563 295Q563 237 547 183T501 85T428 16T330 -10Q294 -10 261 3T204 41T176 94L204 129L159 -204H21ZM294 109Q332
109 358 127T399 173T421 230T428 283Q428 331 409 357T347 383Q312 383 286 368T242 328T215 271T206 205Q206 178 214 156T242 122T294 109Z" />
<glyph unicode="&#xff;" horiz-adv-x="539" d="M30 -204L168 42L48 493H197L258 179L412 493H562L181 -204H30ZM344 565L362 697H505L487 565H344ZM145 565L163 697H307L288 565H145Z" />
<glyph unicode="&#x2013;" horiz-adv-x="385" d="M-1 242L14 344H398L384 242H-1Z" />
<glyph unicode="&#x2014;" horiz-adv-x="1010" d="M-1 242L14 344H1024L1009 242H-1Z" />
<glyph unicode="&#x2018;" horiz-adv-x="272" d="M48 419L210 697H303L209 419H48Z" />
<glyph unicode="&#x2019;" horiz-adv-x="273" d="M56 420L150 697H312L148 420H56Z" />
<glyph unicode="&#x201a;" horiz-adv-x="284" d="M-16 -147L78 131H240L76 -147H-16Z" />
<glyph unicode="&#x201c;" horiz-adv-x="470" d="M247 419L409 697H502L409 419H247ZM47 419L210 697H303L209 419H47Z" />
<glyph unicode="&#x201d;" horiz-adv-x="472" d="M256 420L350 697H511L349 420H256ZM56 420L150 697H312L148 420H56Z" />
<glyph unicode="&#x201e;" horiz-adv-x="454" d="M175 -147L268 131H429L267 -147H175ZM-37 -147L57 131H219L55 -147H-37Z" />
<glyph unicode="&#x2022;" horiz-adv-x="395" d="M48 115L85 379H347L310 115H48Z" />
<glyph unicode="&#x2039;" horiz-adv-x="294" d="M235 38L2 252L293 467L275 320L164 252L254 184L235 38Z" />
<glyph unicode="&#x203a;" horiz-adv-x="295" d="M2 38L20 184L131 252L41 320L59 467L292 252L2 38Z" />
</font>
</defs>
</svg>
