<?xml version="1.0" standalone="no"?>
<!DOCTYPE svg PUBLIC "-//W3C//DTD SVG 1.1//EN" "http://www.w3.org/Graphics/SVG/1.1/DTD/svg11.dtd">
<svg xmlns="http://www.w3.org/2000/svg">
<defs >
<font id="HankenGrotesk" horiz-adv-x="545" ><font-face
    font-family="Hanken Grotesk ExtraBold"
    units-per-em="1000"
    panose-1="0 0 0 0 0 0 0 0 0 0"
    ascent="1000"
    descent="-303"
    alphabetic="0" />
<glyph unicode=" " horiz-adv-x="260" />
<glyph unicode="!" horiz-adv-x="256" d="M76 216L60 697H197L181 216H76ZM56 0V137H200V0H56Z" />
<glyph unicode="&quot;" horiz-adv-x="376" d="M41 408V697H157V408H41ZM218 408V697H334V408H218Z" />
<glyph unicode="#" horiz-adv-x="693" d="M110 0L155 202H42V299H175L198 408H82V509H219L263 697H372L328 505H434L476 697H585L539 505H652V408H519L494 299H611V202H474L430 0H323L367 202H260L218 0H110ZM284 299H390L411 408H305L284 299Z" />
<glyph unicode="$" horiz-adv-x="560" d="M234 -117V44H335V-117H234ZM234 648V808H335V648H234ZM291 -14Q177 -14 105 45T16 202L156 237Q167 175 204 144T296 113Q324 113 347 122T383 150T396 193Q396 216 383 233T340 266T266 298Q198 325 153 355T87 426T65
519Q65 576 93 620T171 689T289 714Q361 714 416 681T505 582L391 513Q371 549 344 568T284 587Q263 587 246 579T219 556T208 522Q208 502 220 486T261 453T340 418Q406 394 449 365T515 296T538 202Q538 139 507 90T421 14T291 -14Z" />
<glyph unicode="%" horiz-adv-x="731" d="M94 0L533 697H630L192 0H94ZM545 -10Q502 -10 468 9T413 66T393 153Q393 202 412 238T466 295T542 315Q585 315 619 294T673 235T694 152Q694 107 674 71T621 12T545 -10ZM545 82Q561 82 574 91T594 116T601 152Q601
175 594 190T573 214T542 222Q527 222 514 215T493 192T485 153Q485 128 493 113T515 90T545 82ZM191 383Q149 383 114 402T59 459T38 545Q38 595 58 631T113 687T188 707Q231 707 265 686T319 628T339 544Q339 500 320 463T267 405T191 383ZM191 475Q206 475 219
484T239 509T246 544Q246 567 239 583T218 607T188 615Q172 615 159 608T139 585T131 545Q131 521 139 506T160 483T191 475Z" />
<glyph unicode="&amp;" horiz-adv-x="705" d="M278 -12Q212 -12 158 8T73 68T41 167Q41 214 60 249T110 311T177 361T248 403Q287 426 316 447T362 492T379 542Q379 564 365 581T320 598Q293 598 273 582T253 535Q253 514 263 494T288 458T312 430L204 374Q189
390 169 413T135 468T121 537Q121 591 148 628T221 686T319 706Q402 706 454 664T507 543Q507 487 477 445T403 369T313 306Q277 283 248 263T201 222T183 173Q183 141 208 123T278 105Q374 105 436 177T531 378L653 359Q629 233 575 151T445 29T278 -12ZM574 -39L269
308L378 375L671 48L574 -39Z" />
<glyph unicode="&apos;" horiz-adv-x="199" d="M41 408V697H157V408H41Z" />
<glyph unicode="(" horiz-adv-x="296" d="M160 -204Q129 -163 106 -111T68 0T45 121T37 246Q37 331 50 413T91 569T160 697H283Q237 638 206 564T160 410T145 247Q145 185 154 124T180 4T223 -107T283 -204H160Z" />
<glyph unicode=")" horiz-adv-x="296" d="M136 -204H12Q47 -160 72 -108T115 3T142 123T151 247Q151 329 136 409T90 564T12 697H136Q177 642 204 569T245 414T259 246Q259 184 252 122T229 0T190 -111T136 -204Z" />
<glyph unicode="*" horiz-adv-x="400" d="M137 377L71 428L161 521L33 544L58 626L176 568L158 697H242L224 568L342 626L367 544L239 521L329 428L262 377L200 493L137 377Z" />
<glyph unicode="+" horiz-adv-x="560" d="M226 2V193H35V301H226V492H335V301H526V193H335V2H226Z" />
<glyph unicode="," horiz-adv-x="240" d="M26 -147L86 159H240L115 -147H26Z" />
<glyph unicode="-" horiz-adv-x="327" d="M40 242V344H288V242H40Z" />
<glyph unicode="." horiz-adv-x="240" d="M48 0V137H192V0H48Z" />
<glyph unicode="/" horiz-adv-x="421" d="M-64 -212L299 697H403L39 -212H-64Z" />
<glyph unicode="0" horiz-adv-x="560" d="M280 -10Q213 -10 168 13T96 76T55 162T37 259T32 353Q32 394 36 442T54 537T95 622T167 684T280 708Q348 708 393 685T465 623T505 537T523 442T528 352Q528 308 524 259T505 162T464 76T392 14T280 -10ZM280 122Q326
122 349 153T379 236T387 348Q387 411 380 463T349 545T280 576Q245 576 224 558T192 509T177 436T173 348Q173 304 177 263T191 191T223 141T280 122Z" />
<glyph unicode="1" horiz-adv-x="560" d="M265 0V548L304 480H87V589H191Q227 589 246 605T265 661V697H402V0H265Z" />
<glyph unicode="2" horiz-adv-x="560" d="M38 0V102Q69 124 111 154T196 220T277 297T337 383T361 475Q361 515 340 543T272 572Q232 572 210 551T178 499T166 437L31 448Q31 494 47 539T94 622T170 682T276 705Q340 705 390 677T469 598T498 479Q498 428 482
380T435 288T361 205T264 132T148 71L184 128H525V0H38Z" />
<glyph unicode="3" horiz-adv-x="560" d="M274 -10Q195 -10 136 19T44 101T11 224L148 232Q148 182 184 152T279 122Q318 122 344 133T385 166T400 217Q400 242 390 260T360 288T310 304T240 310V418Q268 418 290 422T327 437T351 462T359 500Q359 524 349 540T319
566T273 575Q229 575 204 552T177 487L41 496Q41 557 71 605T155 680T278 707Q343 707 392 682T469 614T497 514Q497 491 492 471T476 434T452 404T420 380Q447 370 469 354T506 318T529 272T537 216Q537 149 504 99T412 19T274 -10Z" />
<glyph unicode="4" horiz-adv-x="560" d="M306 0V164H6V269L324 697H443V291H554V164H443V0H306ZM111 244L110 291H306V565L324 545L111 244Z" />
<glyph unicode="5" horiz-adv-x="560" d="M276 -10Q209 -10 154 18T63 95T19 204L154 227Q156 203 169 179T209 138T275 121Q317 121 342 139T378 187T390 245Q390 274 379 299T343 339T276 355Q235 355 209 338T167 296L40 328L109 697H505V569H160L233 627L190
406L145 418Q184 461 223 472T295 484Q367 484 421 451T505 363T536 245Q536 195 517 150T464 68T381 11T276 -10Z" />
<glyph unicode="6" horiz-adv-x="560" d="M422 697L251 441L234 463Q250 467 265 470T296 473Q364 473 418 442T504 357T536 236Q536 163 501 108T407 21T277 -10Q206 -10 147 21T52 107T16 235Q16 269 26 303T56 367L263 697H422ZM277 351Q244 351 217 337T173
298T157 236Q157 200 173 175T216 135T277 121Q310 121 337 135T380 174T396 236Q396 272 380 297T337 337T277 351Z" />
<glyph unicode="7" horiz-adv-x="560" d="M81 0L395 623L434 569H28V697H532V598L234 0H81Z" />
<glyph unicode="8" horiz-adv-x="560" d="M280 -10Q211 -10 150 14T52 87T15 209Q15 262 37 306T106 379Q79 401 63 431T47 504Q47 568 80 613T166 683T280 707Q342 707 395 683T479 613T511 503Q511 462 497 432T454 379Q501 350 523 306T545 209Q545 136 508
87T411 14T280 -10ZM280 120Q317 120 346 131T391 166T407 223Q407 256 391 278T346 312T280 324Q243 324 214 313T169 279T152 223Q152 189 168 166T214 132T280 120ZM280 417Q323 417 349 438T375 494Q375 532 350 554T280 576Q251 576 230 567T197 539T185 495Q185
459 211 438T280 417Z" />
<glyph unicode="9" horiz-adv-x="560" d="M134 0L305 256L322 234Q307 230 291 227T260 224Q192 224 138 255T52 340T20 461Q20 534 55 589T150 676T279 707Q351 707 410 676T504 590T540 462Q540 428 530 394T500 330L293 0H134ZM279 346Q312 346 339 360T382
399T399 461Q399 498 383 523T340 562T279 576Q246 576 219 562T176 523T160 461Q160 426 175 400T218 360T279 346Z" />
<glyph unicode=":" horiz-adv-x="240" d="M48 332V471H192V332H48ZM48 0V137H192V0H48Z" />
<glyph unicode=";" horiz-adv-x="240" d="M6 -147L67 131H221L97 -147H6ZM63 332V471H208V332H63Z" />
<glyph unicode="&lt;" horiz-adv-x="560" d="M533 -23L30 173V321L533 516V400L67 226V269L533 94V-23Z" />
<glyph unicode="=" horiz-adv-x="560" d="M70 310V418H490V310H70ZM70 76V183H490V76H70Z" />
<glyph unicode="&gt;" horiz-adv-x="560" d="M27 -23V94L493 269V226L27 400V516L530 321V173L27 -23Z" />
<glyph unicode="?" horiz-adv-x="514" d="M196 214V246Q196 290 207 320T237 372T276 410T315 442T345 475T357 519Q357 556 332 574T260 593Q205 593 178 565T151 482H29Q30 554 59 604T141 681T263 707Q320 707 368 688T447 627T477 517Q477 473 465 443T434
393T395 356T355 324T324 287T312 236V214H196ZM184 0V137H328V0H184Z" />
<glyph unicode="@" horiz-adv-x="873" d="M438 -113Q355 -113 284 -84T160 -4T77 118T47 268Q47 356 75 429T157 555T281 639T438 669Q523 669 594 641T718 562T799 443T828 293Q828 226 810 179T755 108T665 83Q625 83 592 97T540 136T521 189V215L552 173Q534
128 493 104T398 80Q345 80 304 104T241 170T218 270Q218 327 240 370T304 437T398 462Q441 462 473 444T528 386L508 398L526 454H629V248Q629 215 639 201T675 187Q703 187 716 212T730 291Q730 353 709 403T649 491T557 548T439 568Q374 568 321 547T229 486T169
391T147 269Q147 209 169 158T231 68T324 8T439 -14Q526 -14 604 36L650 -52Q604 -82 550 -97T438 -113ZM427 187Q450 187 467 197T494 225T504 270Q504 296 495 315T468 344T427 355Q403 355 386 345T358 315T348 270Q348 245 358 226T385 197T427 187Z" />
<glyph unicode="A" horiz-adv-x="686" d="M5 0L290 697H396L681 0H525L344 485L161 0H5ZM201 127L246 255H441L487 127H201Z" />
<glyph unicode="B" horiz-adv-x="615" d="M63 0V697H316Q421 697 481 650T541 521Q541 473 522 437T469 378Q525 355 552 312T579 207Q579 110 518 55T350 0H63ZM206 131H338Q436 131 436 213Q436 252 412 273T342 295H206V131ZM206 423H318Q356 423 377 443T398
498Q398 530 377 548T316 566H206V423Z" />
<glyph unicode="C" horiz-adv-x="711" d="M373 -17Q273 -17 197 29T79 157T36 349Q36 459 78 540T197 668T373 714Q486 714 567 658T685 502L550 453Q529 512 484 544T373 577Q314 577 270 550T203 471T179 349Q179 278 202 227T270 148T373 120Q438 120 483 153T550
244L685 195Q649 97 568 40T373 -17Z" />
<glyph unicode="D" horiz-adv-x="671" d="M63 0V697H270Q444 697 539 605T635 343Q635 177 541 89T269 0H63ZM206 131H254Q329 131 382 149T463 215T491 348Q491 432 464 479T387 546T267 566H206V131Z" />
<glyph unicode="E" horiz-adv-x="575" d="M63 0V697H529V569H206V422H510V294H206V128H529V0H63Z" />
<glyph unicode="F" horiz-adv-x="555" d="M63 0V697H532V569H206V422H489V294H206V0H63Z" />
<glyph unicode="G" horiz-adv-x="737" d="M364 -17Q268 -17 194 29T78 157T36 349Q36 459 78 540T197 668T373 714Q486 714 567 658T685 502L550 453Q529 512 484 544T373 577Q314 577 270 550T203 471T179 349Q179 278 202 227T270 148T373 120Q404 120 436 129T496
159T541 219T558 318V355L590 255H389V383H685V0H559L539 106L564 86Q545 53 516 30T448 -5T364 -17Z" />
<glyph unicode="H" horiz-adv-x="698" d="M63 0V697H206V425H492V697H635V0H492V294H206V0H63Z" />
<glyph unicode="I" horiz-adv-x="269" d="M63 0V697H206V0H63Z" />
<glyph unicode="J" horiz-adv-x="557" d="M259 -17Q156 -17 91 46T18 222L160 237Q164 172 188 144T259 116Q314 116 334 151T355 248V569H99V697H499V240Q499 161 470 104T387 15T259 -17Z" />
<glyph unicode="K" horiz-adv-x="672" d="M178 206V387L470 697H663L178 206ZM63 0V697H206V0H63ZM495 0L280 343L387 442L665 0H495Z" />
<glyph unicode="L" horiz-adv-x="507" d="M63 0V697H206V128H497V0H63Z" />
<glyph unicode="M" horiz-adv-x="862" d="M63 0V697H272L444 206H418L590 697H799V0H656V529L669 527L501 62H362L193 527L206 529V0H63Z" />
<glyph unicode="N" horiz-adv-x="694" d="M63 0V697H210L524 188H487V697H631V0H483L170 510H206V0H63Z" />
<glyph unicode="O" horiz-adv-x="747" d="M373 -17Q273 -17 197 29T79 157T36 348Q36 458 78 540T197 668T373 714Q474 714 550 669T668 541T711 348Q711 238 668 156T549 29T373 -17ZM373 120Q433 120 476 148T543 227T567 348Q567 418 543 469T476 549T372 577Q314
577 270 550T203 471T179 348Q179 277 202 226T270 148T373 120Z" />
<glyph unicode="P" horiz-adv-x="564" d="M63 0V697H301Q420 697 480 647T541 494Q541 391 480 338T301 284H205V0H63ZM205 412H286Q339 412 368 429T397 492Q397 536 370 552T286 569H205V412Z" />
<glyph unicode="Q" horiz-adv-x="789" d="M373 -17Q274 -17 198 28T79 156T36 348Q36 458 78 540T197 668T373 714Q474 714 550 669T668 541T711 348Q711 238 668 156T549 29T373 -17ZM668 -59L378 220L461 309L753 24L668 -59ZM373 120Q433 120 476 148T543 227T567
348Q567 418 543 469T476 549T372 577Q314 577 270 550T203 471T179 348Q179 277 202 226T270 148T373 120Z" />
<glyph unicode="R" horiz-adv-x="616" d="M63 0V697H301Q387 697 439 672T516 601T541 493Q541 394 485 341T325 282Q299 282 274 282T233 282H206V0H63ZM438 0L265 298L412 315L604 0H438ZM206 410H286Q315 410 340 416T381 439T397 491Q397 526 382 542T341
564T286 569H206V410Z" />
<glyph unicode="S" horiz-adv-x="579" d="M299 -14Q185 -14 113 45T24 202L164 237Q175 175 212 144T304 113Q332 113 355 122T391 150T404 193Q404 216 391 233T348 266T274 298Q206 325 161 355T95 426T73 519Q73 576 101 620T179 689T297 714Q369 714 424 681T513
582L399 513Q379 549 352 568T292 587Q271 587 254 579T227 556T216 522Q216 502 228 486T269 453T348 418Q414 394 457 365T523 296T546 202Q546 139 515 90T429 14T299 -14Z" />
<glyph unicode="T" horiz-adv-x="583" d="M219 0V569H9V697H573V569H364V0H219Z" />
<glyph unicode="U" horiz-adv-x="658" d="M329 -17Q194 -17 126 50T57 252V697H200V268Q200 217 210 183T248 132T329 115Q381 115 408 132T447 183T458 267V697H601V257Q601 119 532 51T329 -17Z" />
<glyph unicode="V" horiz-adv-x="677" d="M286 0L6 697H164L363 176H317L512 697H671L392 0H286Z" />
<glyph unicode="W" horiz-adv-x="987" d="M221 0L10 697H160L299 220L423 656H564L688 220L827 697H976L765 0H627L482 485H505L360 0H221Z" />
<glyph unicode="X" horiz-adv-x="679" d="M11 0L241 347L11 697H183L340 446L498 697H668L439 347L669 0H498L339 244L183 0H11Z" />
<glyph unicode="Y" horiz-adv-x="632" d="M246 0V274L1 697H165L314 416L468 697H631L389 274V0H246Z" />
<glyph unicode="Z" horiz-adv-x="613" d="M26 0V117L427 615L449 569H50V697H572V580L184 99L164 128H586V0H26Z" />
<glyph unicode="[" horiz-adv-x="313" d="M70 -249V742H292V650H182V-157H292V-249H70Z" />
<glyph unicode="\" horiz-adv-x="473" d="M536 -212H434L70 697H174L536 -212Z" />
<glyph unicode="]" horiz-adv-x="313" d="M243 -249H21V-157H132V650H21V742H243V-249Z" />
<glyph unicode="^" horiz-adv-x="652" d="M30 201L239 697H412L622 201H477L305 632H346L176 201H30Z" />
<glyph unicode="_" horiz-adv-x="522" d="M48 -104V0H474V-104H48Z" />
<glyph unicode="`" horiz-adv-x="319" d="M183 554L35 697H181L285 554H183Z" />
<glyph unicode="a" horiz-adv-x="548" d="M370 0L360 66V312Q360 352 334 370T265 388Q226 388 184 373T111 334L47 429Q103 470 158 486T277 503Q380 503 438 452T496 312V0H370ZM227 -10Q173 -10 130 10T62 67T37 154Q37 197 55 228T103 276Q127 290 157 296T220
302H371V201H240Q226 201 214 199T192 189Q184 183 180 174T175 154Q175 129 194 115T247 100Q278 100 303 113T344 149T360 201L392 126Q376 74 350 45T292 3T227 -10Z" />
<glyph unicode="b" horiz-adv-x="570" d="M330 -10Q297 -10 264 3T204 50T164 149L194 127V0H58V697H194V364L168 350Q177 405 201 438T259 487T330 503Q387 503 433 473T508 386T536 247Q536 173 512 115T441 24T330 -10ZM290 116Q323 116 347 131T385 176T398
247Q398 288 385 317T348 362T290 378Q257 378 233 362T195 316T182 247Q182 207 195 178T232 132T290 116Z" />
<glyph unicode="c" horiz-adv-x="524" d="M279 -10Q217 -10 172 11T96 69T50 152T35 247Q35 296 50 342T95 424T171 481T279 503Q355 503 411 467T495 356L375 308Q364 342 342 363T279 384Q241 384 218 364T183 313T172 247Q172 213 183 181T217 129T279 109Q319
109 341 130T375 185L495 137Q467 63 411 27T279 -10Z" />
<glyph unicode="d" horiz-adv-x="570" d="M240 -10Q176 -10 130 23T59 115T35 247Q35 329 62 386T137 473T240 503Q278 503 311 488T369 439T402 350L376 364V697H513V0H376V127L406 149Q394 85 367 51T307 3T240 -10ZM281 116Q314 116 338 132T375 177T388 247Q388
287 375 316T338 361T281 378Q248 378 224 362T186 317T172 247Q172 206 185 177T223 132T281 116Z" />
<glyph unicode="e" horiz-adv-x="542" d="M282 -10Q216 -10 169 11T92 68T49 149T35 244Q35 291 48 337T90 420T164 480T274 503Q331 503 374 484T447 430T490 348T505 247Q505 238 505 226T502 199H172Q178 153 211 131T290 108Q327 108 364 121T429 158L492
62Q455 36 424 20T359 -3T282 -10ZM370 268Q372 276 373 284T375 299Q375 319 368 335T347 364T316 382T276 389Q241 389 219 376T185 342T170 301H416L370 268Z" />
<glyph unicode="f" horiz-adv-x="353" d="M95 0V386H10V493H96V541Q96 607 118 643T176 693T255 707Q287 707 310 702T355 686L311 581Q302 586 292 589T270 593Q249 593 241 579T233 540V493H334V386H233V0H95Z" />
<glyph unicode="g" horiz-adv-x="525" d="M269 -215Q157 -215 93 -176T29 -68Q29 -61 30 -53T33 -36L177 49L208 10L148 -64Q147 -66 147 -68T147 -72Q147 -95 179 -108T269 -122Q315 -122 338 -111T361 -80Q361 -69 355 -63T335 -52T297 -43T236 -35Q191 -30
147 -17T73 24T43 96Q43 137 70 170T144 226L205 173Q181 170 168 157T154 127Q154 112 166 103T202 90T258 81Q311 75 355 67T431 45T480 5T498 -62Q498 -136 439 -175T269 -215ZM259 132Q196 132 148 156T74 221T47 316Q47 373 75 415T151 480T254 503Q310 503
357 480T433 414T463 312Q463 258 438 218T366 155T259 132ZM256 241Q293 241 309 263T326 317Q326 349 308 369T256 390Q223 390 204 370T185 317Q185 286 202 264T256 241ZM429 385L330 448L447 542L518 457L429 385Z" />
<glyph unicode="h" horiz-adv-x="570" d="M58 0V697H195V379L175 378Q188 425 213 452T272 491T338 503Q423 503 470 456T518 325V0H380V274Q380 331 360 357T295 384Q245 384 220 348T195 233V0H58Z" />
<glyph unicode="i" horiz-adv-x="252" d="M57 0V493H194V0H57ZM55 565V697H198V565H55Z" />
<glyph unicode="j" horiz-adv-x="252" d="M67 -214Q46 -214 22 -210T-25 -199V-80Q-13 -83 -2 -84T16 -86Q36 -86 46 -78T57 -43V493H194V-81Q194 -150 159 -182T67 -214ZM55 565V697H198V565H55Z" />
<glyph unicode="k" horiz-adv-x="569" d="M390 0L255 216L185 135V306L360 493H535L356 308L554 0H390ZM58 0V697H195V0H58Z" />
<glyph unicode="l" horiz-adv-x="282" d="M177 -10Q125 -10 90 21T55 122V697H192V149Q192 131 201 124T224 116Q233 116 241 118T258 122V5Q236 -3 215 -6T177 -10Z" />
<glyph unicode="m" horiz-adv-x="848" d="M58 0V493H195V364L165 336Q172 387 189 420T231 471T281 496T332 503Q368 503 403 490T466 441T504 342L421 308Q436 384 467 426T536 486T614 503Q678 503 718 476T777 405T796 314V0H658V281Q658 316 649 339T623 373T581
384Q552 384 533 369T505 323T495 244V0H358V282Q358 333 339 358T285 384Q255 384 235 369T205 323T195 244V0H58Z" />
<glyph unicode="n" horiz-adv-x="570" d="M58 0V493H195V379L175 378Q188 425 213 452T272 491T338 503Q423 503 470 456T518 325V0H380V274Q380 331 360 357T295 384Q262 384 240 368T206 319T195 233V0H58Z" />
<glyph unicode="o" horiz-adv-x="571" d="M286 -10Q214 -10 157 23T68 114T35 247Q35 322 67 380T156 470T286 503Q358 503 414 471T503 380T536 247Q536 173 504 115T415 23T286 -10ZM286 110Q322 110 347 126T385 173T398 247Q398 291 385 321T347 367T286 383Q250
383 225 367T186 321T172 247Q172 204 185 173T224 126T286 110Z" />
<glyph unicode="p" horiz-adv-x="570" d="M58 -204V493H194V366L164 346Q177 410 203 444T263 490T330 503Q395 503 441 470T511 378T536 246Q536 165 508 108T434 20T330 -10Q293 -10 259 5T201 54T168 142L194 129V-204H58ZM290 115Q323 115 347 131T385 176T398
246Q398 287 385 316T348 361T290 377Q257 377 233 361T195 316T182 246Q182 206 195 177T232 132T290 115Z" />
<glyph unicode="q" horiz-adv-x="570" d="M376 -204V129L402 142Q394 88 370 54T312 5T240 -10Q184 -10 137 20T63 107T35 246Q35 320 59 378T129 469T240 503Q274 503 307 491T367 444T406 346L376 366V493H513V-204H376ZM281 115Q314 115 338 131T375 177T388
246Q388 287 375 316T338 361T281 377Q248 377 224 362T186 317T172 246Q172 206 185 177T223 131T281 115Z" />
<glyph unicode="r" horiz-adv-x="433" d="M58 0V493H196V359L177 358Q180 400 201 433T256 484T324 503Q349 503 372 496T421 473L355 349Q344 356 327 361T291 367Q273 367 256 360T226 340T205 304Q200 290 198 269T195 205V0H58Z" />
<glyph unicode="s" horiz-adv-x="472" d="M231 -10Q175 -10 133 6T63 45T17 89L111 171Q128 146 157 123T232 100Q265 100 283 113T302 143Q302 159 290 168T258 185T213 199Q185 206 155 216T99 244T57 287T41 354Q41 421 93 462T231 503Q291 503 340 480T418
413L333 346Q315 372 287 386T228 401Q202 401 186 392T169 367Q169 356 177 349T203 335T252 321Q281 314 313 304T373 277T419 231T437 159Q437 109 412 71T340 11T231 -10Z" />
<glyph unicode="t" horiz-adv-x="374" d="M253 -10Q212 -10 176 5T118 56T96 151V602L235 676V190Q235 146 246 124T291 102Q301 102 313 104T340 110V5Q319 -3 298 -6T253 -10ZM10 386V493H340V386H10Z" />
<glyph unicode="u" horiz-adv-x="570" d="M234 -10Q171 -10 131 14T71 83T52 187V493H189V217Q189 188 195 164T220 124T276 109Q321 109 341 135T368 208T374 314V493H512V0H374V107L390 94Q367 36 326 13T234 -10Z" />
<glyph unicode="v" horiz-adv-x="539" d="M214 0L13 493H163L270 179L379 493H527L326 0H214Z" />
<glyph unicode="w" horiz-adv-x="757" d="M170 0L16 493H162L239 211L319 493H436L516 213L594 493H741L586 0H464L378 297L294 0H170Z" />
<glyph unicode="x" horiz-adv-x="549" d="M17 0L182 249L17 493H179L274 338L370 493H531L365 249L531 0H370L274 159L178 0H17Z" />
<glyph unicode="y" horiz-adv-x="539" d="M95 -204L197 42L13 493H163L270 179L379 493H527L243 -204H95Z" />
<glyph unicode="z" horiz-adv-x="470" d="M34 0V90L295 416L307 379H44V493H433V396L176 69L164 115H433V0H34Z" />
<glyph unicode="{" horiz-adv-x="297" d="M192 -249Q139 -249 110 -210T80 -105V118Q80 151 69 168T43 193T14 202V292Q28 293 43 300T69 325T80 375V598Q80 664 109 703T192 742H277V655H239Q212 655 205 636T197 595V373Q197 320 178 293T125 249V244Q158 227
177 201T197 120V-102Q197 -124 204 -143T239 -162H277V-249H192Z" />
<glyph unicode="|" horiz-adv-x="276" d="M87 -254V746H189V-254H87Z" />
<glyph unicode="}" horiz-adv-x="297" d="M106 -249H20V-162H59Q85 -162 92 -143T100 -102V120Q100 174 120 200T172 244V249Q140 266 120 293T100 373V595Q100 617 93 636T59 655H20V742H106Q159 742 188 703T217 598V375Q217 343 228 325T255 300T284 292V202Q271
201 255 194T228 169T217 118V-105Q217 -171 188 -210T106 -249Z" />
<glyph unicode="~" horiz-adv-x="560" d="M368 144Q330 144 307 155T270 182T245 214T223 242T192 253Q175 253 167 231T158 175H48Q48 253 87 301T192 350Q231 350 255 339T293 311T318 279T340 252T368 240Q384 240 394 266T405 329H514Q514 248 475 196T368 144Z" />
<glyph unicode="&#xa0;" horiz-adv-x="260" />
<glyph unicode="&#xa1;" horiz-adv-x="256" d="M180 277L196 -204H59L75 277H180ZM200 493V356H56V493H200Z" />
<glyph unicode="&#xa2;" horiz-adv-x="560" d="M236 -113V48H338V-113H236ZM236 442V601H338V442H236ZM297 -10Q236 -10 190 11T114 69T68 152T53 247Q53 296 68 342T113 424T190 481T297 503Q374 503 430 467T513 356L393 308Q383 342 360 363T297 384Q259 384
236 364T202 313T191 247Q191 213 201 181T235 129T297 109Q337 109 360 130T393 185L513 137Q486 63 430 27T297 -10Z" />
<glyph unicode="&#xa3;" horiz-adv-x="560" d="M42 0V114Q70 128 97 148T141 194T158 245Q158 251 157 265T153 287H43V402H129Q124 424 117 453T110 511Q110 567 134 613T205 687T319 715Q402 715 458 673T527 561L421 520Q415 561 386 580T322 600Q293 600 271
589T237 557T225 508Q225 483 232 452T248 402H439V287H266Q268 281 270 268T272 244Q272 212 264 187T240 142T197 110T133 94L160 115H529V0H42Z" />
<glyph unicode="&#xa4;" horiz-adv-x="610" d="M124 54L51 130L107 185Q89 214 80 246T71 310Q71 344 80 376T107 436L52 490L126 566L181 508Q240 547 308 547Q341 547 372 538T432 510L487 566L562 492L506 437Q525 409 534 376T544 310Q544 279 535 246T506
184L562 130L488 54L432 111Q404 92 372 83T307 74Q273 74 241 83T179 111L124 54ZM306 178Q344 178 374 196T421 245T439 311Q439 347 421 377T372 425T306 443Q269 443 239 425T192 377T174 308Q174 270 192 241T241 195T306 178Z" />
<glyph unicode="&#xa5;" horiz-adv-x="560" d="M212 0V102H59V213H212V268H59V379H151L1 697H156L280 407L409 697H562L415 379H503V268H355V213H503V102H355V0H212Z" />
<glyph unicode="&#xa6;" horiz-adv-x="276" d="M87 330V746H189V330H87ZM87 -254V155H189V-254H87Z" />
<glyph unicode="&#xa7;" horiz-adv-x="616" d="M300 -222Q236 -222 178 -192T84 -96L203 -23Q219 -56 247 -75T305 -94Q326 -94 343 -86T370 -65T380 -32Q380 -5 361 12T311 43T248 69Q215 82 181 98T117 137T69 195T50 281Q50 326 66 363T111 428Q103 444 98
465T92 511Q92 575 123 619T205 685T316 707Q384 707 441 676T533 583L413 510Q398 542 370 561T312 581Q290 581 273 573T246 552T236 518Q236 493 255 476T303 446T367 418Q400 406 434 390T499 351T547 292T566 207Q566 162 550 125T506 59Q514 42 518 21T523
-25Q523 -88 493 -132T411 -199T300 -222ZM409 151Q423 169 423 194Q423 222 406 241T359 274T294 302Q277 309 265 313T239 322T207 335Q200 327 197 315T193 293Q193 273 203 257T232 229T274 206T323 184Q334 180 358 173T409 151Z" />
<glyph unicode="&#xa8;" horiz-adv-x="413" d="M235 565V697H378V565H235ZM35 565V697H178V565H35Z" />
<glyph unicode="&#xa9;" horiz-adv-x="797" d="M399 -5Q326 -5 262 22T149 98T73 211T45 349Q45 422 72 486T148 598T261 674T399 702Q472 702 536 675T648 599T724 486T752 349Q752 276 725 212T649 99T536 23T399 -5ZM401 143Q334 143 292 173T228 250T207 347Q207
399 227 446T291 523T400 553Q461 553 506 524T575 433L468 392Q462 416 445 433T400 451Q371 451 354 436T328 396T320 347Q320 322 328 299T353 262T400 247Q426 247 444 263T468 303L570 264Q550 208 506 176T401 143ZM399 59Q459 59 511 81T603 144T665 236T688
349Q688 409 666 461T603 553T511 615T399 638Q339 638 287 616T194 554T132 462T109 349Q109 289 131 237T194 144T286 82T399 59Z" />
<glyph unicode="&#xaa;" horiz-adv-x="465" d="M194 350Q140 350 104 380T67 461Q67 517 106 542T201 568H298Q298 575 298 581T295 593Q288 613 272 624T229 636Q194 636 173 620T139 585L78 626Q109 670 144 688T226 707Q296 707 335 668T374 567V358H304L302
395Q257 350 194 350ZM212 422Q236 422 254 430T284 455Q290 465 293 475T298 497H207Q180 497 166 487T152 459Q152 444 167 433T212 422Z" />
<glyph unicode="&#xab;" horiz-adv-x="565" d="M535 38L272 252L535 467V320L434 252L535 184V38ZM264 38L1 252L264 467V320L163 252L264 184V38Z" />
<glyph unicode="&#xac;" horiz-adv-x="560" d="M381 24V193H27V301H489V24H381Z" />
<glyph unicode="&#xad;" horiz-adv-x="327" d="M40 242V344H288V242H40Z" />
<glyph unicode="&#xae;" horiz-adv-x="605" d="M303 189Q232 189 173 220T78 310T43 448Q43 527 78 585T172 675T303 707Q374 707 433 675T527 585T562 448Q562 369 527 311T433 221T303 189ZM303 250Q358 250 402 274T473 342T500 448Q500 510 474 554T403 622T303
646Q247 646 203 622T132 554T105 448Q105 387 131 343T202 274T303 250ZM218 305V592H316Q370 592 392 570T415 508Q415 477 402 458T363 429L423 305H359L306 422H277V305H218ZM278 474H310Q328 474 342 480T356 508Q356 529 342 534T310 540H278V474Z" />
<glyph unicode="&#xaf;" horiz-adv-x="346" d="M35 555V634H311V555H35Z" />
<glyph unicode="&#xb0;" horiz-adv-x="423" d="M211 418Q171 418 139 437T86 490T66 563Q66 603 86 636T139 688T211 707Q251 707 284 688T337 636T357 563Q357 523 337 490T284 438T211 418ZM211 510Q226 510 238 517T258 536T265 563Q265 578 258 589T239 608T211
615Q196 615 185 608T166 590T158 563Q158 548 165 536T184 517T211 510Z" />
<glyph unicode="&#xb1;" horiz-adv-x="560" d="M226 132V284H34V392H226V542H335V392H526V284H335V132H226ZM34 -52V57H526V-52H34Z" />
<glyph unicode="&#xb2;" horiz-adv-x="404" d="M44 488V546Q72 562 109 586T182 642T240 708T264 781Q264 806 250 824T205 842Q178 842 163 829T141 794T133 751L61 757Q61 795 77 829T126 886T205 908Q261 908 299 875T337 779Q337 743 320 709T276 643T216
588T154 548L134 554H358V488H44Z" />
<glyph unicode="&#xb3;" horiz-adv-x="395" d="M195 480Q154 480 119 495T63 541T42 617L112 621Q112 586 136 567T196 547Q228 547 253 563T279 615Q279 645 263 658T223 675T177 679V727Q209 727 226 734T250 752T256 778Q256 811 238 824T196 838Q167 838 150
823T131 779L62 783Q62 841 101 873T194 906Q229 906 259 893T308 854T327 793Q327 777 322 762T305 734T273 711Q300 704 316 688T341 652T349 608Q349 566 327 538T271 495T195 480Z" />
<glyph unicode="&#xb4;" horiz-adv-x="329" d="M35 554L147 697H295L134 554H35Z" />
<glyph unicode="&#xb5;" horiz-adv-x="570" d="M52 -159V493H189V215Q189 188 195 164T220 125T276 109Q322 109 342 136T368 211T374 316V493H512V0H374V54Q348 21 312 6T234 -10Q221 -10 210 -8T189 1V-159H52Z" />
<glyph unicode="&#xb6;" horiz-adv-x="629" d="M269 -121V307Q211 307 160 330T77 397T45 502Q45 564 77 607T160 674T269 697H345V-121H269ZM454 -121V697H532V-121H454Z" />
<glyph unicode="&#xb7;" horiz-adv-x="299" d="M83 281V417H215V281H83Z" />
<glyph unicode="&#xb8;" horiz-adv-x="283" d="M132 -259Q101 -259 74 -241T35 -195L111 -163Q113 -170 120 -175T136 -181Q150 -181 159 -171T169 -148Q169 -125 147 -110T88 -97Q87 -97 76 -97T57 -97L119 -1H199L162 -44Q169 -46 175 -47T190 -51Q218 -63 233
-86T248 -142Q248 -174 233 -201T192 -243T132 -259Z" />
<glyph unicode="&#xb9;" horiz-adv-x="256" d="M119 488V816L141 781H23V838H79Q123 838 123 877V902H192V488H119Z" />
<glyph unicode="&#xba;" horiz-adv-x="487" d="M243 351Q190 351 151 375T89 440T66 529Q66 578 88 618T151 682T243 707Q295 707 335 683T397 619T420 529Q420 480 398 440T336 375T243 351ZM243 426Q276 426 295 440T323 477T332 529Q332 558 323 581T295 618T243
632Q211 632 192 619T163 582T154 529Q154 501 162 478T190 440T243 426Z" />
<glyph unicode="&#xbb;" horiz-adv-x="457" d="M-79 38V184L21 252L-79 320V467L183 252L-79 38ZM192 38V184L293 252L192 320V467L454 252L192 38Z" />
<glyph unicode="&#xbc;" horiz-adv-x="781" d="M117 279V605L143 560H12V633H71Q94 633 105 643T117 678V697H209V279H117ZM118 0L548 697H645L215 0H118ZM611 0V98H432V172L613 418H695V171H761V98H695V0H611ZM487 152L480 171H613V338L622 336L487 152Z" />
<glyph unicode="&#xbd;" horiz-adv-x="822" d="M117 279V605L143 560H12V633H71Q94 633 105 643T117 678V697H209V279H117ZM118 0L548 697H645L215 0H118ZM500 0V67Q522 82 554 105T616 156T668 217T689 283Q689 303 679 318T642 334Q620 334 608 322T591 293T584
259L495 265Q495 303 512 339T562 399T644 423Q703 423 741 385T780 286Q780 248 766 213T724 147T658 91T573 46L597 85H796V0H500Z" />
<glyph unicode="&#xbe;" horiz-adv-x="858" d="M183 273Q111 273 67 312T23 415L114 421Q114 393 134 377T187 360Q218 360 235 373T253 411Q253 438 232 449T163 461V532Q185 532 199 537T220 551T227 575Q227 595 216 605T182 616Q158 616 145 603T131 569L41
575Q41 630 82 666T186 703Q245 703 282 671T320 586Q320 559 309 539T280 507Q301 498 315 484T336 452T344 410Q344 350 300 312T183 273ZM195 0L625 697H722L292 0H195ZM688 0V98H509V172L690 418H772V171H838V98H772V0H688ZM564 152L557 171H690V338L699 336L564
152Z" />
<glyph unicode="&#xbf;" horiz-adv-x="439" d="M292 279V247Q292 203 281 173T251 121T211 83T172 51T142 18T130 -26Q130 -63 156 -81T228 -100Q283 -100 310 -72T337 11H458Q458 -61 429 -111T347 -188T225 -214Q168 -214 119 -195T41 -134T11 -24Q11 20 23
50T54 100T93 137T133 169T164 206T176 257V279H292ZM304 493V356H160V493H304Z" />
<glyph unicode="&#xc0;" horiz-adv-x="686" d="M5 0L290 697H396L681 0H525L344 485L161 0H5ZM201 127L246 255H441L487 127H201ZM293 758L145 901H291L395 758H293Z" />
<glyph unicode="&#xc1;" horiz-adv-x="686" d="M5 0L290 697H396L681 0H525L344 485L161 0H5ZM201 127L246 255H441L487 127H201ZM294 758L406 901H554L393 758H294Z" />
<glyph unicode="&#xc2;" horiz-adv-x="686" d="M5 0L290 697H396L681 0H525L344 485L161 0H5ZM201 127L246 255H441L487 127H201ZM186 743L344 922L502 743H393L344 806L295 743H186Z" />
<glyph unicode="&#xc3;" horiz-adv-x="686" d="M5 0L290 697H396L681 0H525L344 485L161 0H5ZM201 127L246 255H441L487 127H201ZM404 741Q381 741 365 747T336 762T314 779T296 793T278 799Q266 799 259 785T252 743H174Q174 805 204 839T284 873Q304 873 319
867T347 853T369 836T388 821T406 815Q416 815 423 829T430 871H512Q512 808 483 775T404 741Z" />
<glyph unicode="&#xc4;" horiz-adv-x="686" d="M5 0L290 697H396L681 0H525L344 485L161 0H5ZM201 127L246 255H441L487 127H201ZM373 769V901H516V769H373ZM173 769V901H316V769H173Z" />
<glyph unicode="&#xc5;" horiz-adv-x="686" d="M5 0L290 697H396L681 0H525L344 485L161 0H5ZM201 127L246 255H441L487 127H201ZM344 626Q310 626 283 643T241 687T225 746Q225 779 240 806T283 849T344 865Q376 865 403 849T447 806T464 746Q464 713 448 686T404
642T344 626ZM345 700Q365 700 377 713T390 747Q390 767 379 779T345 792Q323 792 311 779T299 747Q299 727 311 714T345 700Z" />
<glyph unicode="&#xc6;" horiz-adv-x="938" d="M5 0L289 697H892V569H553V412H852V284H553V128H892V0H409V571H375L161 0H5ZM187 127L231 259H443V127H187Z" />
<glyph unicode="&#xc7;" horiz-adv-x="711" d="M373 -17Q273 -17 197 29T79 157T36 349Q36 459 78 540T197 668T373 714Q486 714 567 658T685 502L550 453Q529 512 484 544T373 577Q314 577 270 550T203 471T179 349Q179 278 202 227T270 148T373 120Q438 120
483 153T550 244L685 195Q649 97 568 40T373 -17ZM335 -204Q324 -204 307 -202T272 -196T242 -183L274 -126Q287 -132 301 -136T328 -140Q343 -140 354 -134T366 -113Q366 -100 357 -93T333 -81T299 -76T263 -75L324 12L385 11L351 -32Q395 -39 420 -59T445 -114Q445
-154 414 -179T335 -204Z" />
<glyph unicode="&#xc8;" horiz-adv-x="575" d="M63 0V697H529V569H206V422H510V294H206V128H529V0H63ZM245 758L97 901H243L347 758H245Z" />
<glyph unicode="&#xc9;" horiz-adv-x="575" d="M63 0V697H529V569H206V422H510V294H206V128H529V0H63ZM246 758L358 901H506L345 758H246Z" />
<glyph unicode="&#xca;" horiz-adv-x="575" d="M63 0V697H529V569H206V422H510V294H206V128H529V0H63ZM138 743L296 922L454 743H345L296 806L247 743H138Z" />
<glyph unicode="&#xcb;" horiz-adv-x="575" d="M63 0V697H529V569H206V422H510V294H206V128H529V0H63ZM325 769V901H468V769H325ZM125 769V901H268V769H125Z" />
<glyph unicode="&#xcc;" horiz-adv-x="269" d="M63 0V697H206V0H63ZM84 758L-64 901H82L186 758H84Z" />
<glyph unicode="&#xcd;" horiz-adv-x="269" d="M63 0V697H206V0H63ZM85 758L197 901H345L184 758H85Z" />
<glyph unicode="&#xce;" horiz-adv-x="269" d="M63 0V697H206V0H63ZM-23 743L135 922L293 743H184L135 806L86 743H-23Z" />
<glyph unicode="&#xcf;" horiz-adv-x="269" d="M63 0V697H206V0H63ZM164 769V901H307V769H164ZM-36 769V901H107V769H-36Z" />
<glyph unicode="&#xd0;" horiz-adv-x="671" d="M63 0V697H270Q444 697 539 605T635 343Q635 177 541 89T269 0H63ZM206 131H254Q329 131 382 149T463 215T491 348Q491 432 464 479T387 546T267 566H206V131ZM260 303V394H601V303H260Z" />
<glyph unicode="&#xd1;" horiz-adv-x="694" d="M63 0V697H210L524 188H487V697H631V0H483L170 510H206V0H63ZM407 741Q384 741 368 747T339 762T317 779T299 793T281 799Q269 799 262 785T255 743H177Q177 805 207 839T287 873Q307 873 322 867T350 853T372 836T391
821T409 815Q419 815 426 829T433 871H515Q515 808 486 775T407 741Z" />
<glyph unicode="&#xd2;" horiz-adv-x="747" d="M373 -17Q273 -17 197 29T79 157T36 348Q36 458 78 540T197 668T373 714Q474 714 550 669T668 541T711 348Q711 238 668 156T549 29T373 -17ZM373 120Q433 120 476 148T543 227T567 348Q567 418 543 469T476 549T372
577Q314 577 270 550T203 471T179 348Q179 277 202 226T270 148T373 120ZM322 758L174 901H320L424 758H322Z" />
<glyph unicode="&#xd3;" horiz-adv-x="747" d="M373 -17Q273 -17 197 29T79 157T36 348Q36 458 78 540T197 668T373 714Q474 714 550 669T668 541T711 348Q711 238 668 156T549 29T373 -17ZM373 120Q433 120 476 148T543 227T567 348Q567 418 543 469T476 549T372
577Q314 577 270 550T203 471T179 348Q179 277 202 226T270 148T373 120ZM323 758L435 901H583L422 758H323Z" />
<glyph unicode="&#xd4;" horiz-adv-x="747" d="M373 -17Q273 -17 197 29T79 157T36 348Q36 458 78 540T197 668T373 714Q474 714 550 669T668 541T711 348Q711 238 668 156T549 29T373 -17ZM373 120Q433 120 476 148T543 227T567 348Q567 418 543 469T476 549T372
577Q314 577 270 550T203 471T179 348Q179 277 202 226T270 148T373 120ZM215 743L373 922L531 743H422L373 806L324 743H215Z" />
<glyph unicode="&#xd5;" horiz-adv-x="747" d="M373 -17Q273 -17 197 29T79 157T36 348Q36 458 78 540T197 668T373 714Q474 714 550 669T668 541T711 348Q711 238 668 156T549 29T373 -17ZM373 120Q433 120 476 148T543 227T567 348Q567 418 543 469T476 549T372
577Q314 577 270 550T203 471T179 348Q179 277 202 226T270 148T373 120ZM433 741Q410 741 394 747T365 762T343 779T325 793T307 799Q295 799 288 785T281 743H203Q203 805 233 839T313 873Q333 873 348 867T376 853T398 836T417 821T435 815Q445 815 452 829T459
871H541Q541 808 512 775T433 741Z" />
<glyph unicode="&#xd6;" horiz-adv-x="747" d="M373 -17Q273 -17 197 29T79 157T36 348Q36 458 78 540T197 668T373 714Q474 714 550 669T668 541T711 348Q711 238 668 156T549 29T373 -17ZM373 120Q433 120 476 148T543 227T567 348Q567 418 543 469T476 549T372
577Q314 577 270 550T203 471T179 348Q179 277 202 226T270 148T373 120ZM402 769V901H545V769H402ZM202 769V901H345V769H202Z" />
<glyph unicode="&#xd7;" horiz-adv-x="560" d="M140 23L56 106L195 247L55 387L139 471L279 331L419 471L504 386L365 247L504 106L419 23L279 161L140 23Z" />
<glyph unicode="&#xd8;" horiz-adv-x="747" d="M373 -17Q273 -17 197 29T79 157T36 348Q36 458 78 540T197 668T373 714Q474 714 550 669T668 541T711 348Q711 238 668 156T549 29T373 -17ZM373 120Q433 120 476 148T543 227T567 348Q567 418 543 469T476 549T372
577Q314 577 270 550T203 471T179 348Q179 277 202 226T270 148T373 120ZM59 0L595 697H688L153 0H59Z" />
<glyph unicode="&#xd9;" horiz-adv-x="658" d="M329 -17Q194 -17 126 50T57 252V697H200V268Q200 217 210 183T248 132T329 115Q381 115 408 132T447 183T458 267V697H601V257Q601 119 532 51T329 -17ZM278 758L130 901H276L380 758H278Z" />
<glyph unicode="&#xda;" horiz-adv-x="658" d="M329 -17Q194 -17 126 50T57 252V697H200V268Q200 217 210 183T248 132T329 115Q381 115 408 132T447 183T458 267V697H601V257Q601 119 532 51T329 -17ZM280 758L392 901H540L379 758H280Z" />
<glyph unicode="&#xdb;" horiz-adv-x="658" d="M329 -17Q194 -17 126 50T57 252V697H200V268Q200 217 210 183T248 132T329 115Q381 115 408 132T447 183T458 267V697H601V257Q601 119 532 51T329 -17ZM172 743L330 922L488 743H379L330 806L281 743H172Z" />
<glyph unicode="&#xdc;" horiz-adv-x="658" d="M329 -17Q194 -17 126 50T57 252V697H200V268Q200 217 210 183T248 132T329 115Q381 115 408 132T447 183T458 267V697H601V257Q601 119 532 51T329 -17ZM358 769V901H501V769H358ZM158 769V901H301V769H158Z" />
<glyph unicode="&#xdd;" horiz-adv-x="632" d="M246 0V274L1 697H165L314 416L468 697H631L389 274V0H246ZM267 758L379 901H527L366 758H267Z" />
<glyph unicode="&#xde;" horiz-adv-x="611" d="M104 0V697H235V602H356Q457 602 513 550T569 404Q569 305 505 249T325 193H235V0H104ZM235 312H325Q378 312 408 332T439 399Q439 449 408 470T325 491H235V312Z" />
<glyph unicode="&#xdf;" horiz-adv-x="657" d="M431 -10Q378 -10 335 9T263 61T222 130L331 179Q337 164 347 146T377 116T429 104Q463 104 478 117T493 146Q493 162 481 171T447 188T400 203T350 220T304 246T271 287T258 348Q258 386 271 411T305 452T351 478T396
496T431 513T445 538Q445 554 431 562T394 574T350 578Q305 578 276 569T232 543T210 508T202 469T201 433V0H58V433Q58 486 70 534T112 622T197 684T339 707Q411 707 465 689T550 634T580 542Q580 504 567 478T532 433T486 402T441 382T406 366T393 348Q393 339
405 333T439 323T485 312T535 296T581 268T615 225T628 160Q628 115 610 83T564 30T500 0T431 -10Z" />
<glyph unicode="&#xe0;" horiz-adv-x="548" d="M370 0L360 66V312Q360 352 334 370T265 388Q226 388 184 373T111 334L47 429Q103 470 158 486T277 503Q380 503 438 452T496 312V0H370ZM227 -10Q173 -10 130 10T62 67T37 154Q37 197 55 228T103 276Q127 290 157
296T220 302H371V201H240Q226 201 214 199T192 189Q184 183 180 174T175 154Q175 129 194 115T247 100Q278 100 303 113T344 149T360 201L392 126Q376 74 350 45T292 3T227 -10ZM224 554L76 697H222L326 554H224Z" />
<glyph unicode="&#xe1;" horiz-adv-x="548" d="M370 0L360 66V312Q360 352 334 370T265 388Q226 388 184 373T111 334L47 429Q103 470 158 486T277 503Q380 503 438 452T496 312V0H370ZM227 -10Q173 -10 130 10T62 67T37 154Q37 197 55 228T103 276Q127 290 157
296T220 302H371V201H240Q226 201 214 199T192 189Q184 183 180 174T175 154Q175 129 194 115T247 100Q278 100 303 113T344 149T360 201L392 126Q376 74 350 45T292 3T227 -10ZM226 554L338 697H486L325 554H226Z" />
<glyph unicode="&#xe2;" horiz-adv-x="548" d="M370 0L360 66V312Q360 352 334 370T265 388Q226 388 184 373T111 334L47 429Q103 470 158 486T277 503Q380 503 438 452T496 312V0H370ZM227 -10Q173 -10 130 10T62 67T37 154Q37 197 55 228T103 276Q127 290 157
296T220 302H371V201H240Q226 201 214 199T192 189Q184 183 180 174T175 154Q175 129 194 115T247 100Q278 100 303 113T344 149T360 201L392 126Q376 74 350 45T292 3T227 -10ZM118 539L276 718L434 539H325L276 602L227 539H118Z" />
<glyph unicode="&#xe3;" horiz-adv-x="548" d="M370 0L360 66V312Q360 352 334 370T265 388Q226 388 184 373T111 334L47 429Q103 470 158 486T277 503Q380 503 438 452T496 312V0H370ZM227 -10Q173 -10 130 10T62 67T37 154Q37 197 55 228T103 276Q127 290 157
296T220 302H371V201H240Q226 201 214 199T192 189Q184 183 180 174T175 154Q175 129 194 115T247 100Q278 100 303 113T344 149T360 201L392 126Q376 74 350 45T292 3T227 -10ZM336 552Q308 552 289 561T256 583T232 605T210 615Q198 615 191 599T184 552H106Q106
623 136 661T216 699Q241 699 259 690T291 667T316 645T338 635Q348 635 355 651T362 697H444Q444 626 415 589T336 552Z" />
<glyph unicode="&#xe4;" horiz-adv-x="548" d="M370 0L360 66V312Q360 352 334 370T265 388Q226 388 184 373T111 334L47 429Q103 470 158 486T277 503Q380 503 438 452T496 312V0H370ZM227 -10Q173 -10 130 10T62 67T37 154Q37 197 55 228T103 276Q127 290 157
296T220 302H371V201H240Q226 201 214 199T192 189Q184 183 180 174T175 154Q175 129 194 115T247 100Q278 100 303 113T344 149T360 201L392 126Q376 74 350 45T292 3T227 -10ZM304 565V697H447V565H304ZM104 565V697H247V565H104Z" />
<glyph unicode="&#xe5;" horiz-adv-x="548" d="M370 0L360 66V312Q360 352 334 370T265 388Q226 388 184 373T111 334L47 429Q103 470 158 486T277 503Q380 503 438 452T496 312V0H370ZM227 -10Q173 -10 130 10T62 67T37 154Q37 197 55 228T103 276Q127 290 157
296T220 302H371V201H240Q226 201 214 199T192 189Q184 183 180 174T175 154Q175 129 194 115T247 100Q278 100 303 113T344 149T360 201L392 126Q376 74 350 45T292 3T227 -10ZM275 523Q241 523 214 540T172 584T156 643Q156 676 171 703T214 746T275 762Q307
762 334 746T378 703T395 643Q395 610 379 583T335 539T275 523ZM276 597Q296 597 308 610T321 644Q321 664 310 676T276 689Q254 689 242 676T230 644Q230 624 242 611T276 597Z" />
<glyph unicode="&#xe6;" horiz-adv-x="854" d="M226 -10Q134 -10 86 36T37 152Q37 197 56 224T105 267T167 288T226 295T266 297H362V312Q362 346 338 365T272 384Q245 384 212 373T149 327L50 410Q101 461 159 482T287 503Q342 503 382 490T443 447Q472 474 507
488T588 503Q646 503 689 484T760 430T803 349T818 248Q818 237 818 226T815 199H487Q492 153 524 131T602 108Q640 108 677 121T742 158L805 62Q768 35 736 19T671 -3T594 -10Q529 -10 486 12T418 72H405Q365 26 321 8T226 -10ZM243 107Q275 107 299 116T340 145T362
192V198H266Q215 198 197 183T178 149Q178 131 194 119T243 107ZM485 301H688Q687 318 680 333T660 361T630 381T590 389Q555 389 533 375T499 341T485 301Z" />
<glyph unicode="&#xe7;" horiz-adv-x="524" d="M279 -10Q217 -10 172 11T96 69T50 152T35 247Q35 296 50 342T95 424T171 481T279 503Q355 503 411 467T495 356L375 308Q364 342 342 363T279 384Q241 384 218 364T183 313T172 247Q172 213 183 181T217 129T279
109Q319 109 341 130T375 185L495 137Q467 63 411 27T279 -10ZM267 -204Q256 -204 239 -202T204 -196T174 -183L206 -126Q219 -132 233 -136T260 -140Q275 -140 286 -134T298 -113Q298 -100 289 -93T265 -81T231 -76T195 -75L256 12L317 11L283 -32Q327 -39 352
-59T377 -114Q377 -154 346 -179T267 -204Z" />
<glyph unicode="&#xe8;" horiz-adv-x="542" d="M282 -10Q216 -10 169 11T92 68T49 149T35 244Q35 291 48 337T90 420T164 480T274 503Q331 503 374 484T447 430T490 348T505 247Q505 238 505 226T502 199H172Q178 153 211 131T290 108Q327 108 364 121T429 158L492
62Q455 36 424 20T359 -3T282 -10ZM370 268Q372 276 373 284T375 299Q375 319 368 335T347 364T316 382T276 389Q241 389 219 376T185 342T170 301H416L370 268ZM223 554L75 697H221L325 554H223Z" />
<glyph unicode="&#xe9;" horiz-adv-x="542" d="M282 -10Q216 -10 169 11T92 68T49 149T35 244Q35 291 48 337T90 420T164 480T274 503Q331 503 374 484T447 430T490 348T505 247Q505 238 505 226T502 199H172Q178 153 211 131T290 108Q327 108 364 121T429 158L492
62Q455 36 424 20T359 -3T282 -10ZM370 268Q372 276 373 284T375 299Q375 319 368 335T347 364T316 382T276 389Q241 389 219 376T185 342T170 301H416L370 268ZM225 554L337 697H485L324 554H225Z" />
<glyph unicode="&#xea;" horiz-adv-x="542" d="M282 -10Q216 -10 169 11T92 68T49 149T35 244Q35 291 48 337T90 420T164 480T274 503Q331 503 374 484T447 430T490 348T505 247Q505 238 505 226T502 199H172Q178 153 211 131T290 108Q327 108 364 121T429 158L492
62Q455 36 424 20T359 -3T282 -10ZM370 268Q372 276 373 284T375 299Q375 319 368 335T347 364T316 382T276 389Q241 389 219 376T185 342T170 301H416L370 268ZM117 539L275 718L433 539H324L275 602L226 539H117Z" />
<glyph unicode="&#xeb;" horiz-adv-x="542" d="M282 -10Q216 -10 169 11T92 68T49 149T35 244Q35 291 48 337T90 420T164 480T274 503Q331 503 374 484T447 430T490 348T505 247Q505 238 505 226T502 199H172Q178 153 211 131T290 108Q327 108 364 121T429 158L492
62Q455 36 424 20T359 -3T282 -10ZM370 268Q372 276 373 284T375 299Q375 319 368 335T347 364T316 382T276 389Q241 389 219 376T185 342T170 301H416L370 268ZM303 565V697H446V565H303ZM103 565V697H246V565H103Z" />
<glyph unicode="&#xec;" horiz-adv-x="252" d="M57 0V493H194V0H57ZM331 554L183 697H329L433 554H331Z" />
<glyph unicode="&#xed;" horiz-adv-x="252" d="M57 0V493H194V0H57ZM76 554L188 697H336L175 554H76Z" />
<glyph unicode="&#xee;" horiz-adv-x="252" d="M57 0V493H194V0H57ZM224 539L382 718L540 539H431L382 602L333 539H224Z" />
<glyph unicode="&#xef;" horiz-adv-x="252" d="M57 0V493H194V0H57ZM411 565V697H554V565H411ZM211 565V697H354V565H211Z" />
<glyph unicode="&#xf0;" horiz-adv-x="597" d="M275 -10Q201 -10 149 19T69 100T41 217Q41 278 62 328T121 414T207 470T308 489Q330 489 351 485T392 471T427 447T454 413Q456 474 434 525T363 608T231 644L242 735Q335 728 398 700T499 625T553 515T570 374Q570
283 550 212T491 91T399 16T275 -10ZM284 107Q331 107 366 132T420 197T437 277Q436 297 428 315T406 347T372 369T322 377Q267 377 233 352T185 290T170 219Q170 182 185 157T227 120T284 107ZM221 525L207 580L565 668L578 613L221 525Z" />
<glyph unicode="&#xf1;" horiz-adv-x="570" d="M58 0V493H195V379L175 378Q188 425 213 452T272 491T338 503Q423 503 470 456T518 325V0H380V274Q380 331 360 357T295 384Q262 384 240 368T206 319T195 233V0H58ZM338 552Q310 552 291 561T258 583T234 605T212
615Q200 615 193 599T186 552H108Q108 623 138 661T218 699Q243 699 261 690T293 667T318 645T340 635Q350 635 357 651T364 697H446Q446 626 417 589T338 552Z" />
<glyph unicode="&#xf2;" horiz-adv-x="571" d="M286 -10Q214 -10 157 23T68 114T35 247Q35 322 67 380T156 470T286 503Q358 503 414 471T503 380T536 247Q536 173 504 115T415 23T286 -10ZM286 110Q322 110 347 126T385 173T398 247Q398 291 385 321T347 367T286
383Q250 383 225 367T186 321T172 247Q172 204 185 173T224 126T286 110ZM235 554L87 697H233L337 554H235Z" />
<glyph unicode="&#xf3;" horiz-adv-x="571" d="M286 -10Q214 -10 157 23T68 114T35 247Q35 322 67 380T156 470T286 503Q358 503 414 471T503 380T536 247Q536 173 504 115T415 23T286 -10ZM286 110Q322 110 347 126T385 173T398 247Q398 291 385 321T347 367T286
383Q250 383 225 367T186 321T172 247Q172 204 185 173T224 126T286 110ZM236 554L348 697H496L335 554H236Z" />
<glyph unicode="&#xf4;" horiz-adv-x="571" d="M286 -10Q214 -10 157 23T68 114T35 247Q35 322 67 380T156 470T286 503Q358 503 414 471T503 380T536 247Q536 173 504 115T415 23T286 -10ZM286 110Q322 110 347 126T385 173T398 247Q398 291 385 321T347 367T286
383Q250 383 225 367T186 321T172 247Q172 204 185 173T224 126T286 110ZM128 539L286 718L444 539H335L286 602L237 539H128Z" />
<glyph unicode="&#xf5;" horiz-adv-x="571" d="M286 -10Q214 -10 157 23T68 114T35 247Q35 322 67 380T156 470T286 503Q358 503 414 471T503 380T536 247Q536 173 504 115T415 23T286 -10ZM286 110Q322 110 347 126T385 173T398 247Q398 291 385 321T347 367T286
383Q250 383 225 367T186 321T172 247Q172 204 185 173T224 126T286 110ZM346 552Q318 552 299 561T266 583T242 605T220 615Q208 615 201 599T194 552H116Q116 623 146 661T226 699Q251 699 269 690T301 667T326 645T348 635Q358 635 365 651T372 697H454Q454
626 425 589T346 552Z" />
<glyph unicode="&#xf6;" horiz-adv-x="571" d="M286 -10Q214 -10 157 23T68 114T35 247Q35 322 67 380T156 470T286 503Q358 503 414 471T503 380T536 247Q536 173 504 115T415 23T286 -10ZM286 110Q322 110 347 126T385 173T398 247Q398 291 385 321T347 367T286
383Q250 383 225 367T186 321T172 247Q172 204 185 173T224 126T286 110ZM315 565V697H458V565H315ZM115 565V697H258V565H115Z" />
<glyph unicode="&#xf7;" horiz-adv-x="560" d="M53 193V301H507V193H53ZM200 5V147H360V5H200ZM200 348V488H360V348H200Z" />
<glyph unicode="&#xf8;" horiz-adv-x="571" d="M286 -10Q214 -10 157 23T68 114T35 247Q35 322 67 380T156 470T286 503Q358 503 414 471T503 380T536 247Q536 173 504 115T415 23T286 -10ZM286 110Q322 110 347 126T385 173T398 247Q398 291 385 321T347 367T286
383Q250 383 225 367T186 321T172 247Q172 204 185 173T224 126T286 110ZM80 215L425 790H492L146 215H80Z" />
<glyph unicode="&#xf9;" horiz-adv-x="570" d="M234 -10Q171 -10 131 14T71 83T52 187V493H189V217Q189 188 195 164T220 124T276 109Q321 109 341 135T368 208T374 314V493H512V0H374V107L390 94Q367 36 326 13T234 -10ZM230 554L82 697H228L332 554H230Z" />
<glyph unicode="&#xfa;" horiz-adv-x="570" d="M234 -10Q171 -10 131 14T71 83T52 187V493H189V217Q189 188 195 164T220 124T276 109Q321 109 341 135T368 208T374 314V493H512V0H374V107L390 94Q367 36 326 13T234 -10ZM231 554L343 697H491L330 554H231Z" />
<glyph unicode="&#xfb;" horiz-adv-x="570" d="M234 -10Q171 -10 131 14T71 83T52 187V493H189V217Q189 188 195 164T220 124T276 109Q321 109 341 135T368 208T374 314V493H512V0H374V107L390 94Q367 36 326 13T234 -10ZM123 539L281 718L439 539H330L281 602L232
539H123Z" />
<glyph unicode="&#xfc;" horiz-adv-x="570" d="M234 -10Q171 -10 131 14T71 83T52 187V493H189V217Q189 188 195 164T220 124T276 109Q321 109 341 135T368 208T374 314V493H512V0H374V107L390 94Q367 36 326 13T234 -10ZM310 565V697H453V565H310ZM110 565V697H253V565H110Z"
/>
<glyph unicode="&#xfd;" horiz-adv-x="539" d="M95 -204L197 42L13 493H163L270 179L379 493H527L243 -204H95ZM221 554L333 697H481L320 554H221Z" />
<glyph unicode="&#xfe;" horiz-adv-x="606" d="M84 -204V697H222V366L194 397Q206 436 232 459T293 492T359 503Q425 503 470 469T537 377T560 245Q560 162 533 105T460 19T359 -10Q324 -10 290 2T232 38T198 90L222 129V-204H84ZM321 109Q356 109 379 125T412
171T423 247Q423 292 413 322T381 367T322 383Q281 383 256 365T220 316T209 247Q209 209 220 178T256 128T321 109Z" />
<glyph unicode="&#xff;" horiz-adv-x="539" d="M95 -204L197 42L13 493H163L270 179L379 493H527L243 -204H95ZM299 565V697H442V565H299ZM99 565V697H242V565H99Z" />
<glyph unicode="&#x2013;" horiz-adv-x="433" d="M24 242V344H409V242H24Z" />
<glyph unicode="&#x2014;" horiz-adv-x="1058" d="M24 242V344H1034V242H24Z" />
<glyph unicode="&#x2018;" horiz-adv-x="272" d="M25 419L148 697H239L184 419H25Z" />
<glyph unicode="&#x2019;" horiz-adv-x="273" d="M33 420L87 697H247L122 420H33Z" />
<glyph unicode="&#x201a;" horiz-adv-x="284" d="M40 -147L95 131H255L130 -147H40Z" />
<glyph unicode="&#x201c;" horiz-adv-x="470" d="M224 419L347 697H438L384 419H224ZM24 419L148 697H239L184 419H24Z" />
<glyph unicode="&#x201d;" horiz-adv-x="472" d="M233 420L287 697H446L323 420H233ZM33 420L87 697H247L122 420H33Z" />
<glyph unicode="&#x201e;" horiz-adv-x="454" d="M231 -147L285 131H444L321 -147H231ZM19 -147L74 131H234L109 -147H19Z" />
<glyph unicode="&#x2022;" horiz-adv-x="395" d="M66 115V379H329V115H66Z" />
<glyph unicode="&#x2039;" horiz-adv-x="294" d="M264 38L1 252L264 467V320L163 252L264 184V38Z" />
<glyph unicode="&#x203a;" horiz-adv-x="295" d="M30 38V184L131 252L30 320V467L292 252L30 38Z" />
</font>
</defs>
</svg>
