<?xml version="1.0" standalone="no"?>
<!DOCTYPE svg PUBLIC "-//W3C//DTD SVG 1.1//EN" "http://www.w3.org/Graphics/SVG/1.1/DTD/svg11.dtd">
<svg xmlns="http://www.w3.org/2000/svg">
<defs >
<font id="FamiljenGrotesk" horiz-adv-x="647" ><font-face
    font-family="Familjen Grotesk"
    units-per-em="1200"
    panose-1="0 0 0 0 0 0 0 0 0 0"
    ascent="1230"
    descent="-270"
    alphabetic="0" />
<glyph unicode=" " horiz-adv-x="240" />
<glyph unicode="!" horiz-adv-x="360" d="M114 270L92 750V780H268V750L246 270H114ZM180 -6Q137 -6 114 19T90 84Q90 125 113 149T180 174Q224 174 247 150T270 84Q270 44 247 19T180 -6Z" />
<glyph unicode="&quot;" horiz-adv-x="570" d="M93 450L78 750V780H222V750L207 450H93ZM363 450L348 750V780H492V750L477 450H363Z" />
<glyph unicode="#" horiz-adv-x="720" d="M94 0L127 200H30L49 318H146L175 482H77L96 600H194L224 780H351L321 600H468L499 780H626L596 600H690L671 482H577L548 318H644L624 200H529L496 0H369L402 200H255L221 0H94ZM267 313H425L456 487H298L267 313Z" />
<glyph unicode="$" horiz-adv-x="680" d="M287 -120V900H387V-120H287ZM352 -15Q264 -15 204 9T106 74T51 161T30 255H186Q188 219 207 186T263 132T356 111Q417 111 446 137T476 207Q476 248 450 274T379 315L270 353Q217 372 168 398T87 467T56 579Q56 649 91
697T189 770T333 795Q437 795 497 760T584 672T618 560H462Q460 588 447 613T404 655T326 671Q271 671 245 648T218 590Q218 552 245 529T319 490L432 451Q487 432 533 405T609 334T638 219Q638 112 563 49T352 -15Z" />
<glyph unicode="%" horiz-adv-x="1020" d="M255 405Q202 405 158 431T87 502T60 600Q60 654 86 698T157 768T255 795Q309 795 353 769T423 698T450 600Q450 547 424 503T353 432T255 405ZM255 505Q293 505 320 531T348 600Q348 643 321 669T255 695Q217 695 190
669T162 600Q162 557 189 531T255 505ZM178 0V5L710 780H842V774L310 0H178ZM765 -15Q712 -15 668 11T597 82T570 180Q570 234 596 278T667 348T765 375Q819 375 863 349T933 278T960 180Q960 127 934 83T863 12T765 -15ZM765 85Q803 85 830 111T858 180Q858 223
831 249T765 275Q727 275 700 249T672 180Q672 137 699 111T765 85Z" />
<glyph unicode="&amp;" horiz-adv-x="858" d="M317 -14Q232 -14 172 16T80 95T48 204Q48 278 92 328T204 409V433Q170 463 147 503T123 597Q123 650 148 694T226 765T358 792Q470 792 526 743T582 621Q582 573 559 537T499 476T418 433V409L521 311Q533 299 542
287T559 263H583Q598 300 607 338T620 413H825V299H712Q704 271 691 244T658 188L846 6V0H645L565 88H541Q507 45 455 16T317 -14ZM351 110Q394 110 425 123T480 162L278 355Q244 333 222 305T200 236Q200 181 242 146T351 110ZM334 491Q378 512 409 540T440 610Q440
643 421 664T358 686Q312 686 291 663T269 604Q269 570 288 543T334 491Z" />
<glyph unicode="&apos;" horiz-adv-x="300" d="M93 450L78 750V780H222V750L207 450H93Z" />
<glyph unicode="(" horiz-adv-x="420" d="M216 -180Q178 -123 145 -50T92 111T72 300Q72 401 92 489T145 650T216 780H372V774Q331 714 297 640T243 481T222 300Q222 205 242 120T297 -40T372 -174V-180H216Z" />
<glyph unicode=")" horiz-adv-x="420" d="M48 -180V-174Q89 -114 123 -40T177 119T198 300Q198 395 178 480T123 640T48 774V780H204Q243 723 275 650T328 489T348 300Q348 199 328 111T276 -50T204 -180H48Z" />
<glyph unicode="*" horiz-adv-x="480" d="M157 378L78 436Q98 463 118 489T159 535L153 558Q125 562 93 571T28 591L59 685Q91 675 122 664T178 638L197 652Q193 680 191 713T189 780H291Q291 746 289 713T282 652L301 638Q327 652 358 663T421 685L452 591Q420
580 388 571T327 558L321 535Q341 515 362 489T402 436L323 378Q302 405 284 433T253 486H227Q215 461 197 433T157 378Z" />
<glyph unicode="+" horiz-adv-x="680" d="M274 100V327H40V453H274V680H406V453H640V327H406V100H274Z" />
<glyph unicode="," horiz-adv-x="300" d="M54 -150V-144Q80 -101 96 -65T123 0Q88 8 71 32T54 92Q54 134 79 160T150 186Q196 186 221 158T246 74Q246 25 228 -35T180 -150H54Z" />
<glyph unicode="-" horiz-adv-x="360" d="M48 244V376H312V244H48Z" />
<glyph unicode="." horiz-adv-x="300" d="M151 -6Q104 -6 79 20T54 90Q54 134 79 160T151 186Q198 186 222 160T246 90Q246 47 222 21T151 -6Z" />
<glyph unicode="/" horiz-adv-x="420" d="M6 -100V-94L282 800H414V794L138 -100H6Z" />
<glyph unicode="0" horiz-adv-x="680" d="M340 -14Q186 -14 110 93T34 390Q34 580 110 687T340 794Q495 794 570 687T646 390Q646 200 571 93T340 -14ZM340 118Q411 118 444 186T478 390Q478 526 445 594T340 662Q269 662 236 594T202 390Q202 254 235 186T340 118Z" />
<glyph unicode="1" horiz-adv-x="680" d="M82 0V122H267V532H99L98 640L146 644Q191 648 220 658T268 697T295 780H429V122H598V0H82Z" />
<glyph unicode="2" horiz-adv-x="680" d="M54 0V132Q137 195 199 245T305 338Q371 400 404 450T438 555Q438 605 410 636T327 668Q266 668 235 629T204 524H54Q54 605 85 666T177 760T330 794Q459 794 529 729T600 556Q600 479 560 415T441 279Q407 248 366 216T283
156V132H626V0H54Z" />
<glyph unicode="3" horiz-adv-x="680" d="M338 -13Q262 -13 206 8T112 65T56 146T38 240H196Q201 190 235 152T338 113Q402 113 434 147T466 229Q466 291 416 325T281 360H246V470L334 564Q352 583 370 600T409 630V654H82V780H592V648L414 473V449Q513 434 570
380T628 232Q628 158 592 103T491 18T338 -13Z" />
<glyph unicode="4" horiz-adv-x="680" d="M35 179V313L361 780H535V774L280 414Q264 392 247 370T207 325V301H645V179H35ZM391 0V240H395V432H536V239H540V0H391Z" />
<glyph unicode="5" horiz-adv-x="680" d="M335 -12Q258 -12 205 9T119 65T70 137T52 210H210Q213 188 227 166T270 129T340 114Q407 114 438 157T470 267Q470 336 435 376T338 416Q303 416 279 403T241 373T219 340H65L112 780H576V654H239L217 468H241Q261 497
295 513T385 530Q461 530 516 498T601 406T632 269Q632 185 596 122T494 24T335 -12Z" />
<glyph unicode="6" horiz-adv-x="680" d="M345 -14Q251 -14 186 23T86 123T52 266Q52 329 71 384T120 491T183 588Q185 590 199 610T235 660T280 722T325 780H514V774Q495 751 448 696T342 565Q306 519 287 492T264 460H288Q305 474 333 489T407 504Q471 504 523
475T605 390T636 260Q636 183 602 121T504 22T345 -14ZM347 106Q410 106 446 145T483 254Q483 325 446 363T347 402Q281 402 244 361T206 255Q206 216 221 182T268 127T347 106Z" />
<glyph unicode="7" horiz-adv-x="680" d="M120 0V6L376 496Q402 546 423 574T472 624V648H60V780H620V642L300 0H120Z" />
<glyph unicode="8" horiz-adv-x="680" d="M340 -14Q195 -14 116 48T36 208Q36 280 79 328T192 397V421Q136 441 102 482T68 588Q68 646 98 692T188 766T338 794Q469 794 540 736T612 586Q612 522 580 482T488 421V397Q561 376 602 328T644 208Q644 145 610 95T508
16T340 -14ZM340 106Q408 106 444 140T480 229Q480 284 444 318T340 352Q273 352 237 318T200 229Q200 175 236 141T340 106ZM340 466Q397 466 428 494T459 570Q459 617 428 645T340 674Q284 674 253 646T221 570Q221 523 252 495T340 466Z" />
<glyph unicode="9" horiz-adv-x="680" d="M166 0V6Q186 29 232 84T338 215Q374 261 393 288T416 320H392Q376 307 348 292T273 276Q209 276 157 306T75 390T44 520Q44 598 78 660T177 758T335 794Q430 794 495 757T594 657T628 514Q628 452 609 396T560 290T497
192Q495 190 481 170T445 120T400 58T355 0H166ZM333 378Q399 378 436 419T474 525Q474 565 459 598T412 653T333 674Q270 674 234 635T197 526Q197 455 234 417T333 378Z" />
<glyph unicode=":" horiz-adv-x="360" d="M181 354Q134 354 109 380T84 450Q84 494 109 520T181 546Q228 546 252 520T276 450Q276 407 252 381T181 354ZM181 54Q134 54 109 80T84 150Q84 194 109 220T181 246Q228 246 252 220T276 150Q276 107 252 81T181 54Z" />
<glyph unicode=";" horiz-adv-x="360" d="M181 354Q134 354 109 380T84 450Q84 494 109 520T181 546Q228 546 252 520T276 450Q276 407 252 381T181 354ZM84 -90V-84Q110 -41 126 -5T153 60Q118 68 101 92T84 152Q84 194 109 220T180 246Q226 246 251 218T276
134Q276 85 258 25T210 -90H84Z" />
<glyph unicode="&lt;" horiz-adv-x="680" d="M640 132L40 276V504L640 648V516L163 401V377L640 262V132Z" />
<glyph unicode="=" horiz-adv-x="680" d="M40 452V578H640V452H40ZM40 202V328H640V202H40Z" />
<glyph unicode="&gt;" horiz-adv-x="680" d="M40 132V262L517 377V401L40 516V648L640 504V276L40 132Z" />
<glyph unicode="?" horiz-adv-x="590" d="M208 240V409Q262 421 305 440T374 489T399 565Q399 609 372 640T290 672Q251 672 226 656T189 614T174 554H24Q26 620 55 674T144 760T294 792Q411 792 482 732T554 565Q554 471 499 412T352 322V240H208ZM280 -6Q237
-6 214 19T190 84Q190 125 213 149T280 174Q324 174 347 150T370 84Q370 44 347 19T280 -6Z" />
<glyph unicode="@" horiz-adv-x="1020" d="M529 -132Q390 -132 281 -79T110 77T48 327Q48 473 109 577T281 738T536 794Q681 794 781 741T932 595T984 386Q984 294 954 226T872 121T758 84Q700 84 671 111T629 164H605Q579 128 546 106T461 84Q399 84 358 116T297
204T276 333Q276 443 323 510T463 578Q509 578 540 559T588 508H612V570H726V240Q726 212 735 194T772 176Q806 176 830 202T868 273T882 375Q882 533 790 618T536 704Q416 704 331 658T201 529T156 331Q156 218 200 134T328 4T528 -42Q608 -42 680 -22T801 24H807V-72Q761
-95 689 -113T529 -132ZM500 176Q543 176 571 217T599 332Q599 405 571 446T500 488Q461 488 438 450T414 332Q414 254 437 215T500 176Z" />
<glyph unicode="A" horiz-adv-x="750" d="M8 0V6L243 780H506L742 6V0H570L381 650H357L166 0H8ZM203 195L238 321H500L535 195H203Z" />
<glyph unicode="B" horiz-adv-x="730" d="M76 0V780H382Q528 780 593 727T658 584Q658 526 630 490T545 437V413Q621 396 660 353T700 228Q700 125 633 63T410 0H76ZM236 120H388Q464 120 498 150T532 234Q532 293 494 320T388 348H236V120ZM236 466H370Q427 466
460 489T494 563Q494 660 370 660H236V466Z" />
<glyph unicode="C" horiz-adv-x="750" d="M387 -15Q217 -15 124 92T30 390Q30 579 122 687T386 795Q489 795 562 757T676 650T724 494H557Q549 576 504 622T387 669Q296 669 250 596T204 389Q204 250 251 181T386 111Q461 111 505 159T557 286H724Q717 198 676
130T563 24T387 -15Z" />
<glyph unicode="D" horiz-adv-x="780" d="M76 0V780H354Q562 780 656 678T750 390Q750 205 656 103T354 0H76ZM244 130H344Q421 130 472 153T550 233T576 390Q576 490 550 546T473 626T344 650H244V130Z" />
<glyph unicode="E" horiz-adv-x="660" d="M76 0V780H608V648H242V476H524V354H242V132H614V0H76Z" />
<glyph unicode="F" horiz-adv-x="620" d="M76 0V780H590V648H242V471H506V349H242V0H76Z" />
<glyph unicode="G" horiz-adv-x="780" d="M368 -14Q261 -14 186 36T70 178T30 392Q30 516 71 606T193 745T392 794Q494 794 563 759T671 663T721 520H561Q549 592 506 630T390 668Q293 668 246 596T198 391Q198 256 247 183T394 110Q475 110 519 157T568 286H348V407H722V0H601V90H577Q557
50 509 18T368 -14Z" />
<glyph unicode="H" horiz-adv-x="820" d="M76 0V780H244V483H576V780H744V0H576V347H244V0H76Z" />
<glyph unicode="I" horiz-adv-x="320" d="M76 0V780H244V0H76Z" />
<glyph unicode="J" horiz-adv-x="326" d="M-6 -150V-144Q18 -109 37 -74T68 11T80 138V780H248V138Q248 57 237 4T209 -85T174 -150H-6Z" />
<glyph unicode="K" horiz-adv-x="760" d="M76 0V780H240V480H300L524 780H710V774L440 422L754 6V0H554L300 348H240V0H76Z" />
<glyph unicode="L" horiz-adv-x="600" d="M76 0V780H244V132H570V0H76Z" />
<glyph unicode="M" horiz-adv-x="1070" d="M76 0V780H372L517 132H553L698 780H994V0H838V642H812L670 0H392L250 642H224V0H76Z" />
<glyph unicode="N" horiz-adv-x="860" d="M76 0V780H366L608 132H632V780H784V0H492L251 648H228V0H76Z" />
<glyph unicode="O" horiz-adv-x="800" d="M400 -14Q276 -14 194 35T71 176T30 390Q30 514 70 604T193 744T400 794Q525 794 607 745T729 605T770 390Q770 267 730 176T607 36T400 -14ZM400 112Q501 112 548 184T596 391Q596 524 549 596T400 668Q299 668 252 596T204
391Q204 257 251 185T400 112Z" />
<glyph unicode="P" horiz-adv-x="720" d="M76 0V780H402Q552 780 621 717T690 546Q690 439 622 375T402 311H242V0H76ZM242 437H377Q445 437 483 460T522 545Q522 605 484 629T377 654H242V437Z" />
<glyph unicode="Q" horiz-adv-x="800" d="M400 -14Q276 -14 194 35T71 176T30 390Q30 514 70 604T193 744T400 794Q525 794 607 745T729 605T770 390Q770 267 730 176T607 36T400 -14ZM400 112Q501 112 548 184T596 391Q596 524 549 596T400 668Q299 668 252 596T204
391Q204 257 251 185T400 112ZM528 -150L371 49H563L714 -144V-150H528Z" />
<glyph unicode="R" horiz-adv-x="730" d="M76 0V780H407Q507 780 569 752T661 674T691 559Q691 485 652 431T537 354L712 6V0H534L375 330H242V0H76ZM242 452H383Q448 452 484 474T521 553Q521 611 484 632T383 654H242V452Z" />
<glyph unicode="S" horiz-adv-x="700" d="M363 -15Q272 -15 210 9T109 74T52 161T30 255H186Q188 219 208 186T268 132T368 111Q433 111 464 137T496 207Q496 248 469 274T396 315L283 353Q229 371 180 397T98 467T66 579Q66 649 101 697T199 770T343 795Q447
795 507 760T594 672T628 560H472Q470 588 457 613T414 655T336 671Q281 671 255 648T228 590Q228 552 255 529T329 490L442 452Q497 434 546 407T626 336T658 219Q658 110 581 48T363 -15Z" />
<glyph unicode="T" horiz-adv-x="690" d="M261 0V648H30V780H660V648H429V0H261Z" />
<glyph unicode="U" horiz-adv-x="800" d="M400 -15Q231 -15 149 72T66 323V780H236V328Q236 232 272 178T402 124Q496 124 532 178T568 328V780H734V323Q734 160 652 73T400 -15Z" />
<glyph unicode="V" horiz-adv-x="750" d="M243 0L8 774V780H178L368 144H392L580 780H742V774L507 0H243Z" />
<glyph unicode="W" horiz-adv-x="1110" d="M141 0L28 774V780H192L285 132H309L421 780H699L812 132H836L928 780H1082V774L969 0H679L567 648H543L431 0H141Z" />
<glyph unicode="X" horiz-adv-x="750" d="M16 0V6L246 414L49 774V780H228L369 519H393L530 780H702V774L506 414L734 6V0H548L384 309H360L194 0H16Z" />
<glyph unicode="Y" horiz-adv-x="680" d="M256 0V324L7 774V780H188L286 600Q300 575 313 549T340 488H360Q374 522 387 548T414 600L509 780H673V774L424 322V0H256Z" />
<glyph unicode="Z" horiz-adv-x="710" d="M34 0V144L358 518Q381 544 404 571T455 624V648H68V780H665V636L340 262Q318 236 294 209T243 156V132H674V0H34Z" />
<glyph unicode="[" horiz-adv-x="420" d="M84 -178V778H384V662H228V-62H384V-178H84Z" />
<glyph unicode="\" horiz-adv-x="420" d="M282 -100L6 794V800H138L414 -94V-100H282Z" />
<glyph unicode="]" horiz-adv-x="420" d="M36 -178V-62H192V662H36V778H336V-178H36Z" />
<glyph unicode="^" horiz-adv-x="680" d="M24 390V396L230 780H447L656 396V390H498L346 666H322L176 390H24Z" />
<glyph unicode="_" horiz-adv-x="720" d="M-6 -165V-75H726V-165H-6Z" />
<glyph unicode="`" horiz-adv-x="600" d="M280 660L188 834V840H338L412 666V660H280Z" />
<glyph unicode="a" horiz-adv-x="690" d="M278 -12Q194 -12 140 28T60 140T34 301Q34 394 60 464T141 573T277 612Q340 612 380 588T442 522H466V600H616V0H466V78H442Q421 40 381 14T278 -12ZM320 102Q381 102 417 155T454 300Q454 392 418 445T320 498Q265 498
234 449T202 300Q202 201 233 152T320 102Z" />
<glyph unicode="b" horiz-adv-x="690" d="M416 -12Q349 -12 309 14T248 78H224V0H74V800H236V534H260Q282 570 320 591T416 612Q496 612 549 573T629 464T656 301Q656 211 630 140T551 29T416 -12ZM370 102Q425 102 456 151T488 300Q488 399 457 448T370 498Q309
498 273 445T236 300Q236 209 272 156T370 102Z" />
<glyph unicode="c" horiz-adv-x="620" d="M319 -15Q180 -15 107 70T34 300Q34 453 111 534T321 615Q440 615 508 552T589 380H429Q422 439 394 470T322 501Q264 501 233 449T202 300Q202 203 232 151T321 99Q366 99 394 130T429 220H589Q575 113 507 49T319 -15Z" />
<glyph unicode="d" horiz-adv-x="690" d="M274 -12Q192 -12 139 28T60 140T34 301Q34 394 60 464T140 573T274 612Q333 612 370 591T430 534H454V800H616V0H466V78H442Q421 40 381 14T274 -12ZM320 102Q381 102 417 155T454 300Q454 392 418 445T320 498Q265 498
234 449T202 300Q202 201 233 152T320 102Z" />
<glyph unicode="e" horiz-adv-x="630" d="M325 -15Q183 -15 109 70T34 301Q34 399 67 469T165 577T323 615Q457 615 528 534T600 296V262H192Q197 186 231 143T325 99Q372 99 400 127T438 192H592Q583 137 552 90T465 14T325 -15ZM192 364H442Q438 432 408 469T322
507Q267 507 234 472T192 364Z" />
<glyph unicode="f" horiz-adv-x="400" d="M114 0V486H30V600H114V636Q114 688 132 725T194 782T313 802Q342 802 370 799V689Q355 692 335 692Q301 692 287 678T272 630V600H370V486H272V0H114Z" />
<glyph unicode="g" horiz-adv-x="680" d="M328 -215Q244 -215 193 -195T114 -143T75 -80T62 -24H220Q225 -53 248 -77T326 -101Q388 -101 419 -65T450 39V110H426Q412 67 374 43T274 18Q157 18 96 99T34 317Q34 404 61 471T142 577T277 615Q339 615 376 592T432
528H456V600H606V45Q606 -79 538 -147T328 -215ZM318 132Q377 132 410 182T444 317Q444 402 411 451T318 501Q263 501 231 455T198 317Q198 223 230 178T318 132Z" />
<glyph unicode="h" horiz-adv-x="680" d="M74 0V800H236V528H260Q280 566 315 590T414 615Q514 615 564 552T614 381V0H452V354Q452 416 430 449T358 483Q300 483 268 438T236 324V0H74Z" />
<glyph unicode="i" horiz-adv-x="310" d="M74 0V600H236V0H74ZM155 669Q112 669 90 691T68 750Q68 786 90 808T155 831Q198 831 220 809T242 750Q242 714 220 692T155 669Z" />
<glyph unicode="j" horiz-adv-x="310" d="M12 -200V-194Q42 -160 58 -115T74 -4V600H236V-21Q236 -92 220 -131T179 -200H12ZM155 669Q112 669 90 691T68 750Q68 786 90 808T155 831Q198 831 220 809T242 750Q242 714 220 692T155 669Z" />
<glyph unicode="k" horiz-adv-x="660" d="M74 0V800H236V370H284L452 600H624V594L419 320L648 6V0H459L284 250H236V0H74Z" />
<glyph unicode="l" horiz-adv-x="314" d="M123 0Q95 32 84 72T72 179V800H234V196Q234 120 251 78T296 6V0H123Z" />
<glyph unicode="m" horiz-adv-x="1020" d="M74 0V600H224V510H248Q265 553 302 584T409 615Q471 615 512 588T576 510H600Q618 555 656 585T761 615Q858 615 906 552T954 381V0H792V354Q792 415 772 449T707 483Q652 483 624 437T595 324V0H433V354Q433 415 413
449T348 483Q294 483 265 437T236 324V0H74Z" />
<glyph unicode="n" horiz-adv-x="680" d="M74 0V600H224V510H248Q266 555 303 585T414 615Q514 615 564 552T614 381V0H452V354Q452 416 430 449T358 483Q300 483 268 438T236 324V0H74Z" />
<glyph unicode="o" horiz-adv-x="660" d="M330 -15Q181 -15 108 70T34 300Q34 444 107 529T330 615Q479 615 552 530T626 300Q626 156 553 71T330 -15ZM330 93Q396 93 427 145T458 301Q458 404 427 455T330 507Q264 507 233 456T202 301Q202 197 233 145T330 93Z" />
<glyph unicode="p" horiz-adv-x="690" d="M74 -200V600H224V522H248Q269 560 309 586T416 612Q498 612 551 572T630 461T656 299Q656 207 630 137T550 27T416 -12Q358 -12 320 9T260 66H236V-200H74ZM370 102Q425 102 456 151T488 300Q488 399 457 448T370 498Q309
498 273 445T236 300Q236 209 272 156T370 102Z" />
<glyph unicode="q" horiz-adv-x="690" d="M456 -200V66H432Q410 30 373 9T276 -12Q196 -12 143 27T63 136T36 299Q36 390 62 460T141 571T276 612Q343 612 383 586T444 522H468V600H618V-200H456ZM322 102Q383 102 419 155T456 300Q456 392 420 445T322 498Q267
498 236 449T204 300Q204 201 235 152T322 102Z" />
<glyph unicode="r" horiz-adv-x="470" d="M72 0V600H220V490H244Q250 520 266 546T317 589T408 606H440V460H396Q311 460 273 417T234 288V0H72Z" />
<glyph unicode="s" horiz-adv-x="570" d="M298 -15Q198 -15 139 16T52 96T20 192H174Q179 166 195 145T239 111T306 99Q354 99 375 115T396 158Q396 182 377 198T313 229L241 253Q189 271 145 292T75 348T48 436Q48 516 109 565T282 615Q363 615 414 590T492 524T522
432H374Q369 468 344 487T276 507Q237 507 218 492T198 451Q198 425 219 408T283 377L355 354Q407 338 450 317T520 261T546 171Q546 87 483 36T298 -15Z" />
<glyph unicode="t" horiz-adv-x="400" d="M162 0Q139 27 126 65T112 179V486H30V600H114V750H273V600H370V486H273V196Q273 117 291 75T334 6V0H162Z" />
<glyph unicode="u" horiz-adv-x="680" d="M268 -15Q168 -15 117 48T66 219V600H228V246Q228 185 250 151T321 117Q380 117 412 163T444 276V600H606V0H460V90H436Q421 45 381 15T268 -15Z" />
<glyph unicode="v" horiz-adv-x="620" d="M185 0L12 594V600H176L305 132H329L459 600H608V594L435 0H185Z" />
<glyph unicode="w" horiz-adv-x="980" d="M129 0L38 599V600H188L259 120H283L366 600H624L707 120H731L802 600H942V599L851 0H587L502 483H478L393 0H129Z" />
<glyph unicode="x" horiz-adv-x="620" d="M12 0V6L194 312L31 594V600H208L304 420H328L420 600H583V594L430 316L608 6V0H428L314 210H290L180 0H12Z" />
<glyph unicode="y" horiz-adv-x="600" d="M111 -200V-198Q136 -157 165 -103T216 0L10 594V600H170L232 420Q247 377 262 328T292 204H316Q331 279 346 328T376 420L438 600H590V594L406 82Q370 -19 337 -90T280 -200H111Z" />
<glyph unicode="z" horiz-adv-x="570" d="M36 0V129L255 386Q274 408 291 427T324 462V486H48V600H522V471L304 214Q285 192 268 173T234 138V114H534V0H36Z" />
<glyph unicode="{" horiz-adv-x="420" d="M366 -206Q267 -206 216 -183T146 -123T127 -40Q127 7 136 55T146 144Q146 187 124 214T36 242V358Q102 358 124 385T146 456Q146 497 137 545T127 640Q127 685 145 723T215 783T366 806V692Q311 692 291 669T271 610Q271
576 280 534T290 451Q290 409 271 372T194 312V288Q251 266 270 229T290 149Q290 108 281 67T271 -10Q271 -46 291 -69T366 -92V-206Z" />
<glyph unicode="|" horiz-adv-x="360" d="M117 -200V800H243V-200H117Z" />
<glyph unicode="}" horiz-adv-x="420" d="M54 -206V-92Q110 -92 129 -69T149 -10Q149 25 140 66T130 149Q130 191 149 228T226 288V312Q169 334 150 371T130 451Q130 492 139 534T149 610Q149 646 130 669T54 692V806Q154 806 205 784T274 723T293 640Q293 594
284 546T274 456Q274 413 296 386T384 358V242Q318 242 296 215T274 144Q274 104 283 56T293 -40Q293 -85 275 -122T205 -183T54 -206Z" />
<glyph unicode="~" horiz-adv-x="680" d="M60 287Q60 342 76 390T127 469T220 500Q260 500 295 487T360 456T417 426T468 412Q492 412 507 430T522 493H650Q650 439 635 391T585 311T492 280Q453 280 419 293T354 324T296 354T245 368Q220 368 204 349T188 287H60Z" />
<glyph unicode="&#xa0;" horiz-adv-x="240" />
<glyph unicode="&#xa1;" horiz-adv-x="360" d="M92 -180V-150L114 330H246L268 -150V-180H92ZM180 426Q137 426 114 451T90 516Q90 557 113 581T180 606Q224 606 247 582T270 516Q270 476 247 451T180 426Z" />
<glyph unicode="&#xa2;" horiz-adv-x="640" d="M330 75Q191 75 118 160T45 390Q45 543 122 624T332 705Q451 705 519 642T600 470H440Q433 529 405 560T333 591Q275 591 244 539T213 390Q213 293 243 241T332 189Q377 189 405 220T440 310H600Q586 203 518 139T330
75ZM284 -30V810H384V-30H284Z" />
<glyph unicode="&#xa3;" horiz-adv-x="680" d="M48 0V128Q98 128 130 154T163 238Q163 271 153 312T131 398T108 490T98 578Q98 679 167 736T363 794Q458 794 517 762T606 673T638 540H484Q482 600 455 637T366 674Q315 674 288 646T260 564Q260 533 268 498T286
426T305 352T313 279Q313 198 260 156V132H632V0H48ZM30 317V403H486V317H30Z" />
<glyph unicode="&#xa4;" horiz-adv-x="680" d="M105 76L17 164L101 248Q82 280 71 318T60 400Q60 443 71 481T101 552L17 636L105 724L190 639Q222 659 260 669T340 680Q382 680 420 670T490 639L575 724L663 636L579 552Q599 520 609 482T620 400Q620 357 610
319T579 248L663 164L575 76L490 161Q458 142 420 131T340 120Q298 120 260 131T190 161L105 76ZM340 234Q387 234 423 255T479 315T500 400Q500 448 480 485T423 544T340 566Q294 566 258 545T201 486T180 400Q180 353 200 315T257 256T340 234Z" />
<glyph unicode="&#xa5;" horiz-adv-x="680" d="M268 0V351L24 774V780H186L282 600Q296 575 308 549T333 488H357Q369 522 382 548T408 600L502 780H656V774L416 349V0H268ZM102 161V248H582V161H102ZM102 317V403H582V317H102Z" />
<glyph unicode="&#xa6;" horiz-adv-x="360" d="M117 390V800H243V390H117ZM117 -200V210H243V-200H117Z" />
<glyph unicode="&#xa7;" horiz-adv-x="720" d="M361 -110Q261 -110 202 -79T115 0T83 96H231Q236 68 251 46T295 11T363 -2Q411 -2 435 14T459 58Q459 84 439 103T376 136L252 177Q201 194 157 215T87 267T60 344Q60 394 91 430T182 486V510Q148 530 130 558T112
625Q112 697 172 746T345 795Q426 795 477 770T554 704T584 615H435Q430 648 406 667T339 687Q300 687 281 672T262 633Q262 586 346 559L469 520Q520 504 563 483T633 429T660 348Q660 298 631 261T545 204V180Q578 160 593 132T609 66Q609 -10 546 -60T361 -110ZM430
257Q470 258 490 274T510 317Q510 343 490 362T427 395L283 442Q249 440 230 424T210 379Q210 328 294 301L430 257Z" />
<glyph unicode="&#xa8;" horiz-adv-x="600" d="M196 673Q158 673 139 694T119 750Q119 785 138 806T196 827Q234 827 253 806T273 750Q273 716 254 695T196 673ZM405 673Q367 673 347 694T327 750Q327 785 347 806T404 827Q442 827 461 806T481 750Q481 716 462
695T405 673Z" />
<glyph unicode="&#xa9;" horiz-adv-x="920" d="M458 -14Q330 -14 238 37T97 178T48 388Q48 508 97 599T240 742T461 794Q590 794 682 743T823 601T872 391Q872 272 823 181T681 38T458 -14ZM460 70Q561 70 633 110T743 223T782 390Q782 485 744 557T633 669T460
710Q359 710 287 670T177 557T138 390Q138 295 176 223T287 111T460 70ZM461 167Q360 167 305 227T249 390Q249 498 307 555T462 613Q549 613 601 569T663 450H535Q531 485 512 505T463 525Q423 525 402 490T381 390Q381 324 402 290T462 255Q492 255 511 275T535
330H663Q652 257 600 212T461 167Z" />
<glyph unicode="&#xaa;" horiz-adv-x="440" d="M178 411Q105 411 71 465T36 601Q36 684 70 736T178 789Q210 789 231 777T264 737H288V780H398V420H288V463H264Q252 435 231 423T178 411ZM220 505Q249 505 265 532T282 600Q282 641 266 668T220 695Q200 695 179
676T158 600Q158 543 179 524T220 505Z" />
<glyph unicode="&#xab;" horiz-adv-x="720" d="M246 110L48 310L246 510H396V504L210 322V298L396 116V110H246ZM516 110L318 310L516 510H666V504L480 322V298L666 116V110H516Z" />
<glyph unicode="&#xac;" horiz-adv-x="680" d="M494 160V327H40V453H620V160H494Z" />
<glyph unicode="&#xad;" horiz-adv-x="360" d="M48 244V376H312V244H48Z" />
<glyph unicode="&#xae;" horiz-adv-x="600" d="M300 342Q226 342 168 375T76 467T42 600Q42 675 75 733T167 824T300 858Q375 858 433 825T524 733T558 600Q558 526 525 468T433 376T300 342ZM300 411Q387 411 436 462T486 600Q486 687 437 738T300 789Q213 789
164 738T114 600Q114 513 163 462T300 411ZM187 480V720H333Q379 720 401 701T423 649Q423 627 412 610T377 585L430 485V480H341L295 571H271V480H187ZM271 625H302Q314 625 323 629T332 647Q332 662 323 666T302 671H271V625Z" />
<glyph unicode="&#xaf;" horiz-adv-x="600" d="M120 698V802H480V698H120Z" />
<glyph unicode="&#xb0;" horiz-adv-x="510" d="M255 405Q202 405 158 431T87 502T60 600Q60 654 86 698T157 768T255 795Q309 795 353 769T423 698T450 600Q450 547 424 503T353 432T255 405ZM255 505Q293 505 320 531T348 600Q348 643 321 669T255 695Q217 695
190 669T162 600Q162 557 189 531T255 505Z" />
<glyph unicode="&#xb1;" horiz-adv-x="680" d="M276 199V389H40V511H276V711H404V511H640V389H404V199H276ZM40 29V151H640V29H40Z" />
<glyph unicode="&#xb2;" horiz-adv-x="480" d="M44 500V602Q85 630 114 650T165 688T210 724Q253 759 271 784T290 837Q290 861 275 876T230 891Q197 891 179 871T160 814H44Q44 895 90 941T231 988Q321 988 368 949T416 841Q416 803 395 769T322 692Q298 672
273 654T228 622V598H436V500H44Z" />
<glyph unicode="&#xb3;" horiz-adv-x="480" d="M237 492Q169 492 124 512T57 568T35 648H157Q159 622 179 605T234 587Q270 587 289 603T308 641Q308 672 277 688T195 704H169V781L220 824Q233 835 245 844T271 861V885H64V980H408V881L297 792V768Q359 761 396
730T434 641Q434 573 380 533T237 492Z" />
<glyph unicode="&#xb4;" horiz-adv-x="600" d="M188 660V666L262 840H412V834L320 660H188Z" />
<glyph unicode="&#xb5;" horiz-adv-x="690" d="M72 -200V600H234V246Q234 185 256 151T330 117Q392 117 424 163T456 276V600H618V0H472V90H444Q429 45 399 15T319 -15Q297 -15 281 -8T250 15H226Q229 -4 230 -22T232 -60V-200H72Z" />
<glyph unicode="&#xb6;" horiz-adv-x="720" d="M266 -100V290L346 240Q188 240 112 314T36 510Q36 632 112 706T346 780H648V-100H516V658H398V-100H266Z" />
<glyph unicode="&#xb7;" horiz-adv-x="300" d="M151 214Q104 214 79 240T54 310Q54 354 79 380T151 406Q198 406 222 380T246 310Q246 267 222 241T151 214Z" />
<glyph unicode="&#xb8;" horiz-adv-x="600" d="M192 -180V-174L294 0H408L345 -180H192Z" />
<glyph unicode="&#xb9;" horiz-adv-x="480" d="M222 500V828H140V902Q175 905 195 911T225 933T240 980H354V500H222Z" />
<glyph unicode="&#xba;" horiz-adv-x="440" d="M220 411Q127 411 82 461T36 600Q36 689 81 739T220 789Q313 789 358 739T404 600Q404 511 359 461T220 411ZM220 494Q247 494 264 515T282 600Q282 663 265 684T220 706Q193 706 176 685T158 600Q158 537 175 516T220 494Z" />
<glyph unicode="&#xbb;" horiz-adv-x="720" d="M54 110V116L240 298V322L54 504V510H204L402 310L204 110H54ZM324 110V116L510 298V322L324 504V510H474L672 310L474 110H324Z" />
<glyph unicode="&#xbc;" horiz-adv-x="1140" d="M222 300V628H140V702Q175 705 195 711T225 733T240 780H354V300H222ZM243 0V5L775 780H897V774L365 0H243ZM694 102V199L906 480H1040V476L874 271Q859 252 851 242T827 217V193H1105V102H694ZM926 0V148H930V272H1037V146H1040V0H926Z"
/>
<glyph unicode="&#xbd;" horiz-adv-x="1140" d="M222 300V628H140V702Q175 705 195 711T225 733T240 780H354V300H222ZM213 0V5L745 780H867V774L335 0H213ZM704 0V102Q745 130 774 150T825 188T870 224Q913 259 931 284T950 337Q950 361 935 376T890 391Q857
391 839 371T820 314H704Q704 395 750 441T891 488Q981 488 1028 449T1076 341Q1076 303 1055 269T982 192Q958 172 933 154T888 122V98H1096V0H704Z" />
<glyph unicode="&#xbe;" horiz-adv-x="1140" d="M237 292Q169 292 124 312T57 368T35 448H157Q159 422 179 405T234 387Q270 387 289 403T308 441Q308 472 277 488T195 504H169V581L220 624Q233 635 245 644T271 661V685H64V780H408V681L297 592V568Q359 561 396
530T434 441Q434 373 380 333T237 292ZM273 0V5L805 780H927V774L395 0H273ZM694 102V199L906 480H1040V476L874 271Q859 252 851 242T827 217V193H1105V102H694ZM926 0V148H930V272H1037V146H1040V0H926Z" />
<glyph unicode="&#xbf;" horiz-adv-x="590" d="M296 -192Q179 -192 108 -132T36 35Q36 130 91 188T238 278V360H382V191Q328 179 285 160T217 111T191 35Q191 -9 218 -40T300 -72Q340 -72 364 -56T401 -13T416 46H566Q564 -20 535 -74T446 -160T296 -192ZM310
426Q267 426 244 451T220 516Q220 557 243 581T310 606Q354 606 377 582T400 516Q400 476 377 451T310 426Z" />
<glyph unicode="&#xc0;" horiz-adv-x="750" d="M8 0V6L243 780H506L742 6V0H570L381 650H357L166 0H8ZM203 195L238 321H500L535 195H203ZM309 840L217 1014V1020H367L441 846V840H309Z" />
<glyph unicode="&#xc1;" horiz-adv-x="750" d="M8 0V6L243 780H506L742 6V0H570L381 650H357L166 0H8ZM203 195L238 321H500L535 195H203ZM309 840V846L383 1020H533V1014L441 840H309Z" />
<glyph unicode="&#xc2;" horiz-adv-x="750" d="M8 0V6L243 780H506L742 6V0H570L381 650H357L166 0H8ZM203 195L238 321H500L535 195H203ZM165 840V846L270 1020H480L585 846V840H457L389 945H365L305 840H165Z" />
<glyph unicode="&#xc3;" horiz-adv-x="750" d="M8 0V6L243 780H506L742 6V0H570L381 650H357L166 0H8ZM203 195L238 321H500L535 195H203ZM171 853Q171 893 181 930T217 991T287 1015Q324 1015 350 1000T397 970T441 955Q460 955 468 968T477 1009H579Q579 969
569 932T534 871T465 847Q428 847 401 862T353 892T311 907Q295 907 284 895T273 853H171Z" />
<glyph unicode="&#xc4;" horiz-adv-x="750" d="M8 0V6L243 780H506L742 6V0H570L381 650H357L166 0H8ZM203 195L238 321H500L535 195H203ZM271 853Q233 853 214 874T194 930Q194 965 213 986T271 1007Q309 1007 328 986T348 930Q348 896 329 875T271 853ZM480
853Q442 853 422 874T402 930Q402 965 422 986T479 1007Q517 1007 536 986T556 930Q556 896 537 875T480 853Z" />
<glyph unicode="&#xc5;" horiz-adv-x="750" d="M8 0V6L243 780H506L742 6V0H570L381 650H357L166 0H8ZM203 195L238 321H500L535 195H203ZM375 822Q315 822 281 856T246 942Q246 994 280 1028T375 1062Q435 1062 469 1028T504 942Q504 890 470 856T375 822ZM374
894Q395 894 407 908T420 942Q420 962 408 976T374 990Q353 990 342 976T330 942Q330 922 341 908T374 894Z" />
<glyph unicode="&#xc6;" horiz-adv-x="1020" d="M8 0V6L243 780H506L742 6V0H570L381 650H357L166 0H8ZM203 195L238 321H500L535 195H203ZM587 0L626 132H1008V0H587ZM495 354L496 476H901L900 354H495ZM410 648L300 780H877V648H410Z" />
<glyph unicode="&#xc7;" horiz-adv-x="750" d="M387 -15Q217 -15 124 92T30 390Q30 579 122 687T386 795Q489 795 562 757T676 650T724 494H557Q549 576 504 622T387 669Q296 669 250 596T204 389Q204 250 251 181T386 111Q461 111 505 159T557 286H724Q717 198
676 130T563 24T387 -15ZM226 -180V-174L328 0H442L379 -180H226Z" />
<glyph unicode="&#xc8;" horiz-adv-x="660" d="M76 0V780H608V648H242V476H524V354H242V132H614V0H76ZM276 840L184 1014V1020H334L408 846V840H276Z" />
<glyph unicode="&#xc9;" horiz-adv-x="660" d="M76 0V780H608V648H242V476H524V354H242V132H614V0H76ZM276 840V846L350 1020H500V1014L408 840H276Z" />
<glyph unicode="&#xca;" horiz-adv-x="660" d="M76 0V780H608V648H242V476H524V354H242V132H614V0H76ZM132 840V846L237 1020H447L552 846V840H424L356 945H332L272 840H132Z" />
<glyph unicode="&#xcb;" horiz-adv-x="660" d="M76 0V780H608V648H242V476H524V354H242V132H614V0H76ZM238 853Q200 853 181 874T161 930Q161 965 180 986T238 1007Q276 1007 295 986T315 930Q315 896 296 875T238 853ZM447 853Q409 853 389 874T369 930Q369 965
389 986T446 1007Q484 1007 503 986T523 930Q523 896 504 875T447 853Z" />
<glyph unicode="&#xcc;" horiz-adv-x="320" d="M76 0V780H244V0H76ZM94 840L2 1014V1020H152L226 846V840H94Z" />
<glyph unicode="&#xcd;" horiz-adv-x="320" d="M76 0V780H244V0H76ZM94 840V846L168 1020H318V1014L226 840H94Z" />
<glyph unicode="&#xce;" horiz-adv-x="320" d="M76 0V780H244V0H76ZM-50 840V846L55 1020H265L370 846V840H242L174 945H150L90 840H-50Z" />
<glyph unicode="&#xcf;" horiz-adv-x="320" d="M76 0V780H244V0H76ZM56 853Q18 853 -1 874T-21 930Q-21 965 -2 986T56 1007Q94 1007 113 986T133 930Q133 896 114 875T56 853ZM265 853Q227 853 207 874T187 930Q187 965 207 986T264 1007Q302 1007 321 986T341
930Q341 896 322 875T265 853Z" />
<glyph unicode="&#xd0;" horiz-adv-x="780" d="M76 0V780H354Q562 780 656 678T750 390Q750 205 656 103T354 0H76ZM244 130H344Q421 130 472 153T550 233T576 390Q576 490 550 546T473 626T344 650H244V130ZM276 371V469H676V371H276Z" />
<glyph unicode="&#xd1;" horiz-adv-x="860" d="M76 0V780H366L608 132H632V780H784V0H492L251 648H228V0H76ZM226 823Q226 863 236 900T272 961T342 985Q379 985 405 970T452 940T496 925Q515 925 523 938T532 979H634Q634 939 624 902T589 841T520 817Q483 817
456 832T408 862T366 877Q350 877 339 865T328 823H226Z" />
<glyph unicode="&#xd2;" horiz-adv-x="800" d="M400 -14Q276 -14 194 35T71 176T30 390Q30 514 70 604T193 744T400 794Q525 794 607 745T729 605T770 390Q770 267 730 176T607 36T400 -14ZM400 112Q501 112 548 184T596 391Q596 524 549 596T400 668Q299 668
252 596T204 391Q204 257 251 185T400 112ZM334 840L242 1014V1020H392L466 846V840H334Z" />
<glyph unicode="&#xd3;" horiz-adv-x="800" d="M400 -14Q276 -14 194 35T71 176T30 390Q30 514 70 604T193 744T400 794Q525 794 607 745T729 605T770 390Q770 267 730 176T607 36T400 -14ZM400 112Q501 112 548 184T596 391Q596 524 549 596T400 668Q299 668
252 596T204 391Q204 257 251 185T400 112ZM334 840V846L408 1020H558V1014L466 840H334Z" />
<glyph unicode="&#xd4;" horiz-adv-x="800" d="M400 -14Q276 -14 194 35T71 176T30 390Q30 514 70 604T193 744T400 794Q525 794 607 745T729 605T770 390Q770 267 730 176T607 36T400 -14ZM400 112Q501 112 548 184T596 391Q596 524 549 596T400 668Q299 668
252 596T204 391Q204 257 251 185T400 112ZM190 840V846L295 1020H505L610 846V840H482L414 945H390L330 840H190Z" />
<glyph unicode="&#xd5;" horiz-adv-x="800" d="M400 -14Q276 -14 194 35T71 176T30 390Q30 514 70 604T193 744T400 794Q525 794 607 745T729 605T770 390Q770 267 730 176T607 36T400 -14ZM400 112Q501 112 548 184T596 391Q596 524 549 596T400 668Q299 668
252 596T204 391Q204 257 251 185T400 112ZM196 853Q196 893 206 930T242 991T312 1015Q349 1015 375 1000T422 970T466 955Q485 955 493 968T502 1009H604Q604 969 594 932T559 871T490 847Q453 847 426 862T378 892T336 907Q320 907 309 895T298 853H196Z" />
<glyph unicode="&#xd6;" horiz-adv-x="800" d="M400 -14Q276 -14 194 35T71 176T30 390Q30 514 70 604T193 744T400 794Q525 794 607 745T729 605T770 390Q770 267 730 176T607 36T400 -14ZM400 112Q501 112 548 184T596 391Q596 524 549 596T400 668Q299 668
252 596T204 391Q204 257 251 185T400 112ZM296 853Q258 853 239 874T219 930Q219 965 238 986T296 1007Q334 1007 353 986T373 930Q373 896 354 875T296 853ZM505 853Q467 853 447 874T427 930Q427 965 447 986T504 1007Q542 1007 561 986T581 930Q581 896 562
875T505 853Z" />
<glyph unicode="&#xd7;" horiz-adv-x="680" d="M147 108L58 197L251 390L58 583L147 672L340 479L533 672L622 583L429 390L622 197L533 108L340 301L147 108Z" />
<glyph unicode="&#xd8;" horiz-adv-x="800" d="M400 -14Q262 -14 174 49L103 -35L30 28L105 116Q68 168 49 237T30 390Q30 514 70 604T193 744T400 794Q470 794 526 778T626 732L697 815L770 752L695 664Q733 612 751 543T770 390Q770 267 730 176T607 36T400
-14ZM400 112Q501 112 548 184T596 390Q596 423 594 454T585 519H561Q548 494 535 477T508 442L270 162Q293 137 325 125T400 112ZM215 261H239Q251 287 265 304T292 338L530 618Q483 668 400 668Q299 668 252 596T204 390Q204 357 206 327T215 261Z" />
<glyph unicode="&#xd9;" horiz-adv-x="800" d="M400 -15Q231 -15 149 72T66 323V780H236V328Q236 232 272 178T402 124Q496 124 532 178T568 328V780H734V323Q734 160 652 73T400 -15ZM335 840L243 1014V1020H393L467 846V840H335Z" />
<glyph unicode="&#xda;" horiz-adv-x="800" d="M400 -15Q231 -15 149 72T66 323V780H236V328Q236 232 272 178T402 124Q496 124 532 178T568 328V780H734V323Q734 160 652 73T400 -15ZM335 840V846L409 1020H559V1014L467 840H335Z" />
<glyph unicode="&#xdb;" horiz-adv-x="800" d="M400 -15Q231 -15 149 72T66 323V780H236V328Q236 232 272 178T402 124Q496 124 532 178T568 328V780H734V323Q734 160 652 73T400 -15ZM191 840V846L296 1020H506L611 846V840H483L415 945H391L331 840H191Z" />
<glyph unicode="&#xdc;" horiz-adv-x="800" d="M400 -15Q231 -15 149 72T66 323V780H236V328Q236 232 272 178T402 124Q496 124 532 178T568 328V780H734V323Q734 160 652 73T400 -15ZM297 853Q259 853 240 874T220 930Q220 965 239 986T297 1007Q335 1007 354
986T374 930Q374 896 355 875T297 853ZM506 853Q468 853 448 874T428 930Q428 965 448 986T505 1007Q543 1007 562 986T582 930Q582 896 563 875T506 853Z" />
<glyph unicode="&#xdd;" horiz-adv-x="680" d="M256 0V324L7 774V780H188L286 600Q300 575 313 549T340 488H360Q374 522 387 548T414 600L509 780H673V774L424 322V0H256ZM273 840V846L347 1020H497V1014L405 840H273Z" />
<glyph unicode="&#xde;" horiz-adv-x="722" d="M76 0V780H244V632H404Q554 632 623 568T692 395Q692 287 624 223T404 158H244V0H76ZM244 283H377Q444 283 482 307T520 394Q520 457 482 481T377 505H244V283Z" />
<glyph unicode="&#xdf;" horiz-adv-x="750" d="M72 0V536Q72 613 103 674T206 770T398 806Q485 806 540 789T627 743T671 681T684 615Q684 569 663 536T600 479T498 440V416Q562 404 612 377T691 305T720 196Q720 100 651 44T463 -13Q417 -13 376 -6T306 11V130Q341
119 376 111T446 103Q498 103 528 125T558 193Q558 235 532 264T461 310T354 334V460Q437 482 480 515T523 597Q523 639 490 662T391 686Q303 686 269 643T234 523V0H72Z" />
<glyph unicode="&#xe0;" horiz-adv-x="690" d="M278 -12Q194 -12 140 28T60 140T34 301Q34 394 60 464T141 573T277 612Q340 612 380 588T442 522H466V600H616V0H466V78H442Q421 40 381 14T278 -12ZM320 102Q381 102 417 155T454 300Q454 392 418 445T320 498Q265
498 234 449T202 300Q202 201 233 152T320 102ZM531 660L439 834V840H589L663 666V660H531Z" />
<glyph unicode="&#xe1;" horiz-adv-x="690" d="M278 -12Q194 -12 140 28T60 140T34 301Q34 394 60 464T141 573T277 612Q340 612 380 588T442 522H466V600H616V0H466V78H442Q421 40 381 14T278 -12ZM320 102Q381 102 417 155T454 300Q454 392 418 445T320 498Q265
498 234 449T202 300Q202 201 233 152T320 102ZM275 660V666L349 840H499V834L407 660H275Z" />
<glyph unicode="&#xe2;" horiz-adv-x="690" d="M278 -12Q194 -12 140 28T60 140T34 301Q34 394 60 464T141 573T277 612Q340 612 380 588T442 522H466V600H616V0H466V78H442Q421 40 381 14T278 -12ZM320 102Q381 102 417 155T454 300Q454 392 418 445T320 498Q265
498 234 449T202 300Q202 201 233 152T320 102ZM131 660V666L236 840H446L551 666V660H423L355 765H331L271 660H131Z" />
<glyph unicode="&#xe3;" horiz-adv-x="690" d="M278 -12Q194 -12 140 28T60 140T34 301Q34 394 60 464T141 573T277 612Q340 612 380 588T442 522H466V600H616V0H466V78H442Q421 40 381 14T278 -12ZM320 102Q381 102 417 155T454 300Q454 392 418 445T320 498Q265
498 234 449T202 300Q202 201 233 152T320 102ZM137 673Q137 713 147 750T183 811T253 835Q290 835 316 820T363 790T407 775Q426 775 434 788T443 829H545Q545 789 535 752T500 691T431 667Q394 667 367 682T319 712T277 727Q261 727 250 715T239 673H137Z" />
<glyph unicode="&#xe4;" horiz-adv-x="690" d="M278 -12Q194 -12 140 28T60 140T34 301Q34 394 60 464T141 573T277 612Q340 612 380 588T442 522H466V600H616V0H466V78H442Q421 40 381 14T278 -12ZM320 102Q381 102 417 155T454 300Q454 392 418 445T320 498Q265
498 234 449T202 300Q202 201 233 152T320 102ZM237 673Q199 673 180 694T160 750Q160 785 179 806T237 827Q275 827 294 806T314 750Q314 716 295 695T237 673ZM446 673Q408 673 388 694T368 750Q368 785 388 806T445 827Q483 827 502 806T522 750Q522 716 503
695T446 673Z" />
<glyph unicode="&#xe5;" horiz-adv-x="690" d="M278 -12Q194 -12 140 28T60 140T34 301Q34 394 60 464T141 573T277 612Q340 612 380 588T442 522H466V600H616V0H466V78H442Q421 40 381 14T278 -12ZM320 102Q381 102 417 155T454 300Q454 392 418 445T320 498Q265
498 234 449T202 300Q202 201 233 152T320 102ZM341 642Q281 642 247 676T212 762Q212 814 246 848T341 882Q401 882 435 848T470 762Q470 710 436 676T341 642ZM340 714Q361 714 373 728T386 762Q386 782 374 796T340 810Q319 810 308 796T296 762Q296 742 307
728T340 714Z" />
<glyph unicode="&#xe6;" horiz-adv-x="1000" d="M251 -15Q154 -15 91 34T28 174Q28 263 95 313T295 364H416V378Q416 431 386 466T295 501Q257 501 234 487T199 452T184 410H42Q49 463 77 510T159 586T293 615Q371 615 417 588T491 520H515Q543 561 589 588T712
615Q796 615 853 579T940 471T970 298V263H572Q574 183 609 141T701 99Q753 99 778 127T814 192H960Q938 101 871 43T699 -15Q632 -15 579 11T493 90H469Q443 52 391 19T251 -15ZM276 99Q319 99 350 117T398 166T416 239V262H303Q252 262 216 245T180 180Q180 143
205 121T276 99ZM573 364H817Q816 427 786 464T700 501Q645 501 612 465T573 364Z" />
<glyph unicode="&#xe7;" horiz-adv-x="620" d="M319 -15Q180 -15 107 70T34 300Q34 453 111 534T321 615Q440 615 508 552T589 380H429Q422 439 394 470T322 501Q264 501 233 449T202 300Q202 203 232 151T321 99Q366 99 394 130T429 220H589Q575 113 507 49T319
-15ZM419 -180V-174L521 0H635L572 -180H419Z" />
<glyph unicode="&#xe8;" horiz-adv-x="630" d="M325 -15Q183 -15 109 70T34 301Q34 399 67 469T165 577T323 615Q457 615 528 534T600 296V262H192Q197 186 231 143T325 99Q372 99 400 127T438 192H592Q583 137 552 90T465 14T325 -15ZM192 364H442Q438 432 408
469T322 507Q267 507 234 472T192 364ZM515 660L423 834V840H573L647 666V660H515Z" />
<glyph unicode="&#xe9;" horiz-adv-x="630" d="M325 -15Q183 -15 109 70T34 301Q34 399 67 469T165 577T323 615Q457 615 528 534T600 296V262H192Q197 186 231 143T325 99Q372 99 400 127T438 192H592Q583 137 552 90T465 14T325 -15ZM192 364H442Q438 432 408
469T322 507Q267 507 234 472T192 364ZM259 660V666L333 840H483V834L391 660H259Z" />
<glyph unicode="&#xea;" horiz-adv-x="630" d="M325 -15Q183 -15 109 70T34 301Q34 399 67 469T165 577T323 615Q457 615 528 534T600 296V262H192Q197 186 231 143T325 99Q372 99 400 127T438 192H592Q583 137 552 90T465 14T325 -15ZM192 364H442Q438 432 408
469T322 507Q267 507 234 472T192 364ZM115 660V666L220 840H430L535 666V660H407L339 765H315L255 660H115Z" />
<glyph unicode="&#xeb;" horiz-adv-x="630" d="M325 -15Q183 -15 109 70T34 301Q34 399 67 469T165 577T323 615Q457 615 528 534T600 296V262H192Q197 186 231 143T325 99Q372 99 400 127T438 192H592Q583 137 552 90T465 14T325 -15ZM192 364H442Q438 432 408
469T322 507Q267 507 234 472T192 364ZM221 673Q183 673 164 694T144 750Q144 785 163 806T221 827Q259 827 278 806T298 750Q298 716 279 695T221 673ZM430 673Q392 673 372 694T352 750Q352 785 372 806T429 827Q467 827 486 806T506 750Q506 716 487 695T430
673Z" />
<glyph unicode="&#xec;" horiz-adv-x="310" d="M74 0V600H236V0H74ZM89 660L-3 834V840H147L221 666V660H89Z" />
<glyph unicode="&#xed;" horiz-adv-x="310" d="M74 0V600H236V0H74ZM345 660V666L419 840H569V834L477 660H345Z" />
<glyph unicode="&#xee;" horiz-adv-x="310" d="M74 0V600H236V0H74ZM-55 660V666L50 840H260L365 666V660H237L169 765H145L85 660H-55Z" />
<glyph unicode="&#xef;" horiz-adv-x="310" d="M74 0V600H236V0H74ZM51 673Q13 673 -6 694T-26 750Q-26 785 -7 806T51 827Q89 827 108 806T128 750Q128 716 109 695T51 673ZM260 673Q222 673 202 694T182 750Q182 785 202 806T259 827Q297 827 316 806T336 750Q336
716 317 695T260 673Z" />
<glyph unicode="&#xf0;" horiz-adv-x="660" d="M330 -15Q231 -15 165 21T67 125T34 282Q34 370 60 436T140 539T274 576Q330 576 368 557T430 502H454Q437 538 411 574T353 646L208 600L186 665Q215 674 243 681T305 683V707Q275 727 248 749T193 794V800H366Q381
787 395 774T422 747L546 787L567 721Q545 714 522 709T472 710V686Q548 607 587 514T626 308Q626 158 553 72T330 -15ZM330 93Q396 93 427 140T458 282Q458 365 420 413T320 462Q265 462 234 422T202 282Q202 188 233 141T330 93Z" />
<glyph unicode="&#xf1;" horiz-adv-x="680" d="M74 0V600H224V510H248Q266 555 303 585T414 615Q514 615 564 552T614 381V0H452V354Q452 416 430 449T358 483Q300 483 268 438T236 324V0H74ZM140 673Q140 713 150 750T186 811T256 835Q293 835 319 820T366 790T410
775Q429 775 437 788T446 829H548Q548 789 538 752T503 691T434 667Q397 667 370 682T322 712T280 727Q264 727 253 715T242 673H140Z" />
<glyph unicode="&#xf2;" horiz-adv-x="660" d="M330 -15Q181 -15 108 70T34 300Q34 444 107 529T330 615Q479 615 552 530T626 300Q626 156 553 71T330 -15ZM330 93Q396 93 427 145T458 301Q458 404 427 455T330 507Q264 507 233 456T202 301Q202 197 233 145T330
93ZM520 660L428 834V840H578L652 666V660H520Z" />
<glyph unicode="&#xf3;" horiz-adv-x="660" d="M330 -15Q181 -15 108 70T34 300Q34 444 107 529T330 615Q479 615 552 530T626 300Q626 156 553 71T330 -15ZM330 93Q396 93 427 145T458 301Q458 404 427 455T330 507Q264 507 233 456T202 301Q202 197 233 145T330
93ZM264 660V666L338 840H488V834L396 660H264Z" />
<glyph unicode="&#xf4;" horiz-adv-x="660" d="M330 -15Q181 -15 108 70T34 300Q34 444 107 529T330 615Q479 615 552 530T626 300Q626 156 553 71T330 -15ZM330 93Q396 93 427 145T458 301Q458 404 427 455T330 507Q264 507 233 456T202 301Q202 197 233 145T330
93ZM120 660V666L225 840H435L540 666V660H412L344 765H320L260 660H120Z" />
<glyph unicode="&#xf5;" horiz-adv-x="660" d="M330 -15Q181 -15 108 70T34 300Q34 444 107 529T330 615Q479 615 552 530T626 300Q626 156 553 71T330 -15ZM330 93Q396 93 427 145T458 301Q458 404 427 455T330 507Q264 507 233 456T202 301Q202 197 233 145T330
93ZM126 673Q126 713 136 750T172 811T242 835Q279 835 305 820T352 790T396 775Q415 775 423 788T432 829H534Q534 789 524 752T489 691T420 667Q383 667 356 682T308 712T266 727Q250 727 239 715T228 673H126Z" />
<glyph unicode="&#xf6;" horiz-adv-x="660" d="M330 -15Q181 -15 108 70T34 300Q34 444 107 529T330 615Q479 615 552 530T626 300Q626 156 553 71T330 -15ZM330 93Q396 93 427 145T458 301Q458 404 427 455T330 507Q264 507 233 456T202 301Q202 197 233 145T330
93ZM226 673Q188 673 169 694T149 750Q149 785 168 806T226 827Q264 827 283 806T303 750Q303 716 284 695T226 673ZM435 673Q397 673 377 694T357 750Q357 785 377 806T434 827Q472 827 491 806T511 750Q511 716 492 695T435 673Z" />
<glyph unicode="&#xf7;" horiz-adv-x="680" d="M40 328V452H640V328H40ZM341 90Q297 90 274 115T250 180Q250 221 273 245T341 270Q385 270 407 246T430 180Q430 140 408 115T341 90ZM341 510Q297 510 274 535T250 600Q250 641 273 665T341 690Q385 690 407 666T430
600Q430 560 408 535T341 510Z" />
<glyph unicode="&#xf8;" horiz-adv-x="660" d="M107 -20L43 35L91 91Q34 171 34 300Q34 444 107 529T330 615Q433 615 502 572L553 631L617 576L565 515Q626 435 626 300Q626 156 553 71T330 -15Q275 -15 231 -3T152 32L107 -20ZM330 93Q396 93 433 146T470 312Q470
334 469 351T464 381H440Q432 362 419 343T384 300L243 135Q273 93 330 93ZM195 225H219Q227 245 240 263T270 300L416 471Q385 507 330 507Q264 507 227 454T190 289Q190 268 191 254T195 225Z" />
<glyph unicode="&#xf9;" horiz-adv-x="680" d="M268 -15Q168 -15 117 48T66 219V600H228V246Q228 185 250 151T321 117Q380 117 412 163T444 276V600H606V0H460V90H436Q421 45 381 15T268 -15ZM532 660L440 834V840H590L664 666V660H532Z" />
<glyph unicode="&#xfa;" horiz-adv-x="680" d="M268 -15Q168 -15 117 48T66 219V600H228V246Q228 185 250 151T321 117Q380 117 412 163T444 276V600H606V0H460V90H436Q421 45 381 15T268 -15ZM276 660V666L350 840H500V834L408 660H276Z" />
<glyph unicode="&#xfb;" horiz-adv-x="680" d="M268 -15Q168 -15 117 48T66 219V600H228V246Q228 185 250 151T321 117Q380 117 412 163T444 276V600H606V0H460V90H436Q421 45 381 15T268 -15ZM132 660V666L237 840H447L552 666V660H424L356 765H332L272 660H132Z" />
<glyph unicode="&#xfc;" horiz-adv-x="680" d="M268 -15Q168 -15 117 48T66 219V600H228V246Q228 185 250 151T321 117Q380 117 412 163T444 276V600H606V0H460V90H436Q421 45 381 15T268 -15ZM238 673Q200 673 181 694T161 750Q161 785 180 806T238 827Q276 827
295 806T315 750Q315 716 296 695T238 673ZM447 673Q409 673 389 694T369 750Q369 785 389 806T446 827Q484 827 503 806T523 750Q523 716 504 695T447 673Z" />
<glyph unicode="&#xfd;" horiz-adv-x="600" d="M111 -200V-198Q136 -157 165 -103T216 0L10 594V600H170L232 420Q247 377 262 328T292 204H316Q331 279 346 328T376 420L438 600H590V594L406 82Q370 -19 337 -90T280 -200H111ZM236 660V666L310 840H460V834L368
660H236Z" />
<glyph unicode="&#xfe;" horiz-adv-x="690" d="M74 -200V800H236V534H260Q282 570 320 591T416 612Q498 612 551 572T630 461T656 299Q656 207 630 137T550 27T416 -12Q358 -12 320 9T260 66H236V-200H74ZM370 102Q425 102 456 151T488 300Q488 399 457 448T370
498Q309 498 273 445T236 300Q236 209 272 156T370 102Z" />
<glyph unicode="&#xff;" horiz-adv-x="600" d="M111 -200V-198Q136 -157 165 -103T216 0L10 594V600H170L232 420Q247 377 262 328T292 204H316Q331 279 346 328T376 420L438 600H590V594L406 82Q370 -19 337 -90T280 -200H111ZM198 673Q160 673 141 694T121 750Q121
785 140 806T198 827Q236 827 255 806T275 750Q275 716 256 695T198 673ZM407 673Q369 673 349 694T329 750Q329 785 349 806T406 827Q444 827 463 806T483 750Q483 716 464 695T407 673Z" />
<glyph unicode="&#x2013;" horiz-adv-x="720" d="M48 244V376H672V244H48Z" />
<glyph unicode="&#x2014;" horiz-adv-x="1080" d="M48 244V376H1032V244H48Z" />
<glyph unicode="&#x2018;" horiz-adv-x="300" d="M150 444Q104 444 79 472T54 556Q54 605 72 665T120 780H246V774Q221 731 204 695T177 630Q212 623 229 598T246 538Q246 496 222 470T150 444Z" />
<glyph unicode="&#x2019;" horiz-adv-x="300" d="M54 450V456Q80 499 96 535T123 600Q88 608 71 632T54 692Q54 734 79 760T150 786Q196 786 221 758T246 674Q246 625 228 565T180 450H54Z" />
<glyph unicode="&#x201a;" horiz-adv-x="300" d="M54 -150V-144Q80 -101 96 -65T123 0Q88 8 71 32T54 92Q54 134 79 160T150 186Q196 186 221 158T246 74Q246 25 228 -35T180 -150H54Z" />
<glyph unicode="&#x201c;" horiz-adv-x="570" d="M150 444Q104 444 79 472T54 556Q54 605 72 665T120 780H246V774Q221 731 204 695T177 630Q212 623 229 598T246 538Q246 496 222 470T150 444ZM420 444Q374 444 349 472T324 556Q324 605 342 665T390 780H516V774Q491
731 474 695T447 630Q482 623 499 598T516 538Q516 496 492 470T420 444Z" />
<glyph unicode="&#x201d;" horiz-adv-x="570" d="M54 450V456Q80 499 96 535T123 600Q88 608 71 632T54 692Q54 734 79 760T150 786Q196 786 221 758T246 674Q246 625 228 565T180 450H54ZM324 450V456Q350 499 366 535T393 600Q358 608 341 632T324 692Q324 734
349 760T420 786Q466 786 491 758T516 674Q516 625 498 565T450 450H324Z" />
<glyph unicode="&#x201e;" horiz-adv-x="570" d="M54 -150V-144Q80 -101 96 -65T123 0Q88 8 71 32T54 92Q54 134 79 160T150 186Q196 186 221 158T246 74Q246 25 228 -35T180 -150H54ZM324 -150V-144Q350 -101 366 -65T393 0Q358 8 341 32T324 92Q324 134 349
160T420 186Q466 186 491 158T516 74Q516 25 498 -35T450 -150H324Z" />
<glyph unicode="&#x2022;" horiz-adv-x="390" d="M195 160Q122 160 84 200T45 310Q45 379 84 419T195 460Q269 460 307 420T345 310Q345 241 307 201T195 160Z" />
<glyph unicode="&#x2039;" horiz-adv-x="450" d="M246 110L48 310L246 510H396V504L210 322V298L396 116V110H246Z" />
<glyph unicode="&#x203a;" horiz-adv-x="450" d="M54 110V116L240 298V322L54 504V510H204L402 310L204 110H54Z" />
</font>
</defs>
</svg>
