<?xml version="1.0" standalone="no"?>
<!DOCTYPE svg PUBLIC "-//W3C//DTD SVG 1.1//EN" "http://www.w3.org/Graphics/SVG/1.1/DTD/svg11.dtd">
<svg xmlns="http://www.w3.org/2000/svg">
<defs >
<font id="FamiljenGrotesk" horiz-adv-x="631" ><font-face
    font-family="Familjen Grotesk"
    units-per-em="1200"
    panose-1="0 0 0 0 0 0 0 0 0 0"
    ascent="1230"
    descent="-270"
    alphabetic="0" />
<glyph unicode=" " horiz-adv-x="240" />
<glyph unicode="!" horiz-adv-x="360" d="M109 270L165 750L170 780H346L341 750L241 270H109ZM137 -6Q97 -6 76 15T54 74Q54 119 80 146T152 174Q192 174 213 153T234 95Q234 50 208 22T137 -6Z" />
<glyph unicode="&quot;" horiz-adv-x="570" d="M118 450L153 750L158 780H302L297 750L232 450H118ZM388 450L423 750L428 780H572L567 750L502 450H388Z" />
<glyph unicode="#" horiz-adv-x="720" d="M44 0L110 200H13L52 318H149L205 482H107L146 600H244L304 780H431L371 600H518L579 780H706L646 600H740L701 482H607L551 318H647L607 200H512L446 0H319L385 200H238L171 0H44ZM269 313H427L487 487H329L269 313Z" />
<glyph unicode="$" horiz-adv-x="680" d="M219 -120L388 900H489L320 -120H219ZM316 -15Q232 -15 168 15T68 101T32 232L176 268Q176 196 216 154T325 111Q382 111 416 139T450 210Q450 241 435 261T398 294T353 318L293 346Q253 365 212 390T144 457T116 561Q116
627 149 680T242 764T383 795Q493 795 555 738T622 588L481 547Q481 608 453 639T373 671Q326 671 299 647T272 585Q272 552 293 530T346 494L400 469Q451 446 500 418T580 348T612 236Q612 165 575 108T472 18T316 -15Z" />
<glyph unicode="%" horiz-adv-x="1020" d="M275 405Q222 405 178 431T107 502T80 600Q80 654 106 698T177 768T275 795Q329 795 373 769T443 698T470 600Q470 547 444 503T373 432T275 405ZM275 505Q313 505 340 531T368 600Q368 643 341 669T275 695Q237 695
210 669T182 600Q182 557 209 531T275 505ZM127 0V5L791 780H923V774L259 0H127ZM775 -15Q722 -15 678 11T607 82T580 180Q580 234 606 278T677 348T775 375Q829 375 873 349T943 278T970 180Q970 127 944 83T873 12T775 -15ZM775 85Q813 85 840 111T868 180Q868
223 841 249T775 275Q737 275 710 249T682 180Q682 137 709 111T775 85Z" />
<glyph unicode="&amp;" horiz-adv-x="858" d="M287 -14Q213 -14 157 13T69 88T37 201Q37 286 91 345T237 425L242 449Q209 476 192 506T174 581Q174 637 202 685T285 762T416 792Q471 792 521 774T603 719T635 621Q635 569 609 530T539 464T440 420L434 396L514
308Q525 296 535 283T556 249H580Q601 290 615 330T640 413H845L826 299H738Q724 263 698 230T636 165L768 6V0H580L524 72H500Q468 41 418 14T287 -14ZM335 110Q371 110 401 121T457 153L289 360Q243 338 216 307T189 230Q189 172 232 141T335 110ZM367 490Q419
510 456 538T493 613Q493 648 471 667T412 686Q364 686 342 656T320 590Q320 562 334 538T367 490Z" />
<glyph unicode="&apos;" horiz-adv-x="300" d="M118 450L153 750L158 780H302L297 750L232 450H118Z" />
<glyph unicode="(" horiz-adv-x="420" d="M137 -180Q105 -115 83 -33T60 160Q60 352 128 506T300 780H464V774Q392 693 335 599T244 395T210 159Q210 53 234 -28T293 -174V-180H137Z" />
<glyph unicode=")" horiz-adv-x="420" d="M283 780Q315 715 337 633T360 440Q360 248 292 94T120 -180H-44V-174Q28 -92 85 2T176 205T210 441Q210 548 186 628T127 774V780H283Z" />
<glyph unicode="*" horiz-adv-x="480" d="M179 396L107 462Q127 483 149 504T200 547L197 567Q163 578 137 589T84 610L133 704Q158 693 184 681T239 648L257 659Q258 695 262 724T270 780H372Q367 751 362 720T346 650L360 637Q393 653 422 660T479 675L494 576Q466
569 437 563T370 552L361 535Q383 510 396 485T423 436L331 383Q318 407 306 433T283 492H262Q240 462 220 440T179 396Z" />
<glyph unicode="+" horiz-adv-x="680" d="M241 100L279 327H45L65 453H299L337 680H469L431 453H665L645 327H411L373 100H241Z" />
<glyph unicode="," horiz-adv-x="300" d="M-27 -150V-144Q8 -100 31 -64T69 0Q50 6 35 24T19 80Q19 127 47 156T124 186Q166 186 188 163T211 97Q211 64 200 28T171 -44T135 -107T105 -150H-27Z" />
<glyph unicode="-" horiz-adv-x="360" d="M39 244L61 376H325L303 244H39Z" />
<glyph unicode="." horiz-adv-x="300" d="M107 -6Q64 -6 42 17T19 79Q19 127 47 156T123 186Q166 186 188 163T211 102Q211 54 183 24T107 -6Z" />
<glyph unicode="/" horiz-adv-x="420" d="M-77 -100V-94L356 800H488V794L55 -100H-77Z" />
<glyph unicode="0" horiz-adv-x="680" d="M309 -14Q184 -14 113 66T42 301Q42 355 52 420T87 551T152 672T255 760T402 794Q527 794 597 715T668 480Q668 426 658 360T623 228T558 108T456 20T309 -14ZM312 112Q356 112 388 142T442 220T477 322T496 427T502 510Q502
583 477 625T399 668Q355 668 323 638T268 561T233 459T214 354T208 271Q208 198 234 155T312 112Z" />
<glyph unicode="1" horiz-adv-x="680" d="M33 0L53 122H237L306 532H139L156 640L204 644Q249 648 280 658T334 697T375 780H509L399 122H568L548 0H33Z" />
<glyph unicode="2" horiz-adv-x="680" d="M4 0L27 138Q93 182 147 220T242 290T312 344Q349 373 389 408T458 485T486 571Q486 615 458 641T382 668Q341 668 313 647T267 593T239 525L103 568Q138 667 213 730T404 794Q479 794 533 767T618 692T648 582Q648 526
626 478T567 390T490 317T413 257Q373 228 338 207T246 156L244 132H598L576 0H4Z" />
<glyph unicode="3" horiz-adv-x="680" d="M319 -13Q239 -13 177 14T76 92T33 212L177 248Q182 184 220 149T322 113Q370 113 399 131T442 177T455 234Q455 291 409 321T287 357L242 360L258 470L369 564Q392 584 411 599T458 630L462 654H142L162 780H672L650
648L431 467L427 443Q522 423 569 371T617 239Q617 163 578 107T471 19T319 -13Z" />
<glyph unicode="4" horiz-adv-x="680" d="M30 179L52 313L484 780H676V774L339 415Q316 390 291 369T237 325L233 301H659L639 179H30ZM374 0L414 239H418L450 432H594L562 239H566L526 0H374Z" />
<glyph unicode="5" horiz-adv-x="680" d="M321 -13Q246 -13 185 14T86 93T43 212L187 248Q191 190 228 152T325 113Q374 113 407 137T456 200T473 280Q473 345 437 380T348 416Q315 416 292 404T253 373T227 337L93 379L203 780H663L641 650H307L253 468H277Q301
496 334 513T417 530Q475 530 524 505T604 428T635 298Q635 214 597 143T488 30T321 -13Z" />
<glyph unicode="6" horiz-adv-x="680" d="M318 -14Q239 -14 178 16T81 104T46 240Q46 309 72 372T141 492T233 600Q262 630 291 660T348 720T406 780H607V774Q552 722 497 670T386 564Q357 536 341 520T315 490T293 460H317Q335 477 360 490T428 504Q482 504 528
480T602 407T630 286Q630 204 592 136T483 27T318 -14ZM327 106Q377 106 410 131T461 195T478 275Q478 338 442 370T352 402Q303 402 269 379T216 318T198 238Q198 180 233 143T327 106Z" />
<glyph unicode="7" horiz-adv-x="680" d="M71 0V6L410 501Q438 542 461 570T527 629L530 650H118L140 780H700L677 643L251 0H71Z" />
<glyph unicode="8" horiz-adv-x="680" d="M327 -14Q270 -14 216 -1T119 38T49 105T23 201Q23 278 74 334T211 408L215 432Q170 452 144 488T118 579Q118 643 152 691T247 767T387 794Q453 794 515 773T618 708T659 593Q659 554 644 516T595 450T507 408L503 384Q562
361 595 320T628 215Q628 145 589 94T482 14T327 -14ZM323 106Q393 106 430 145T468 238Q468 278 449 303T399 340T334 352Q289 352 257 334T207 286T189 220Q189 163 228 135T323 106ZM382 466Q441 466 474 499T507 577Q507 626 472 650T390 674Q330 674 297 641T264
564Q264 516 299 491T382 466Z" />
<glyph unicode="9" horiz-adv-x="680" d="M103 0V6Q159 59 214 111T324 216Q353 244 369 260T395 290T417 320H393Q375 303 351 290T282 276Q228 276 182 300T108 373T80 494Q80 576 118 644T227 753T392 794Q471 794 532 764T629 676T664 540Q664 471 638 408T570
289T477 180Q448 150 420 120T362 60T304 0H103ZM358 378Q407 378 441 401T494 463T512 542Q512 601 477 637T383 674Q334 674 300 649T249 586T232 505Q232 442 268 410T358 378Z" />
<glyph unicode=":" horiz-adv-x="360" d="M197 354Q154 354 132 377T109 439Q109 487 137 516T213 546Q256 546 278 523T301 462Q301 414 273 384T197 354ZM147 54Q104 54 82 77T59 139Q59 187 87 216T163 246Q206 246 228 223T251 162Q251 114 223 84T147 54Z" />
<glyph unicode=";" horiz-adv-x="360" d="M197 354Q154 354 132 377T109 439Q109 487 137 516T213 546Q256 546 278 523T301 462Q301 414 273 384T197 354ZM13 -90V-84Q48 -40 71 -4T109 60Q90 66 75 84T59 140Q59 187 87 216T164 246Q206 246 228 223T251 157Q251
124 240 88T211 16T175 -47T145 -90H13Z" />
<glyph unicode="&lt;" horiz-adv-x="680" d="M612 132L36 276L74 504L698 648L675 511L179 396L175 372L633 257L612 132Z" />
<glyph unicode="=" horiz-adv-x="680" d="M65 452L86 578H686L665 452H65ZM24 202L45 328H645L624 202H24Z" />
<glyph unicode="&gt;" horiz-adv-x="680" d="M12 132L35 269L531 384L535 408L77 523L98 648L674 504L636 276L12 132Z" />
<glyph unicode="?" horiz-adv-x="590" d="M213 240L243 418Q294 423 341 438T418 483T449 561Q449 610 418 638T336 666Q281 666 245 633T191 547L65 591Q83 646 117 691T207 764T344 792Q420 792 479 767T571 693T605 576Q605 507 573 457T487 373T371 323L357
240H213ZM252 -6Q212 -6 191 15T169 74Q169 119 195 146T267 174Q307 174 328 152T349 92Q349 49 323 22T252 -6Z" />
<glyph unicode="@" horiz-adv-x="1020" d="M506 -132Q416 -132 336 -108T193 -32T96 97T60 281Q60 388 97 481T203 644T366 754T574 794Q699 794 791 746T933 614T984 421Q984 356 966 296T916 188T840 112T743 84Q687 84 659 113T623 180H599Q580 140 548 112T454
84Q378 84 330 134T282 283Q282 337 297 389T342 484T413 552T508 578Q551 578 579 563T618 528H642L649 570H766L715 260Q708 218 719 197T758 176Q796 176 823 211T866 300T882 412Q882 502 843 567T733 668T566 704Q473 704 400 671T275 581T196 448T168 289Q168
177 213 104T336 -6T515 -42Q580 -42 644 -26T763 21H769L752 -81Q702 -106 640 -119T506 -132ZM495 176Q523 176 543 197T577 256T599 346L620 473Q610 481 592 487T553 494Q512 494 482 465T436 391T420 294Q420 229 443 203T495 176Z" />
<glyph unicode="A" horiz-adv-x="730" d="M-42 0V6L309 780H571L672 6V0H510L435 650H411L126 0H-42ZM186 195L241 321H492L505 195H186Z" />
<glyph unicode="B" horiz-adv-x="710" d="M26 0L156 780H462Q587 780 642 728T697 601Q697 539 660 494T556 433L552 409Q608 393 641 356T675 245Q675 174 640 119T534 32T355 0H26ZM210 120H353Q424 120 466 154T508 245Q508 295 476 321T376 348H248L210 120ZM268
466H394Q428 466 453 474T496 496T521 531T530 575Q530 602 519 621T485 650T427 660H300L268 466Z" />
<glyph unicode="C" horiz-adv-x="700" d="M336 -15Q196 -15 118 69T40 312Q40 374 52 441T92 572T164 685T271 765T420 795Q547 795 618 725T701 525L540 499Q535 580 505 624T415 669Q372 669 339 647T282 587T243 505T221 412T214 324Q214 225 247 168T348 111Q392
111 423 134T478 195T518 280L663 221Q637 158 596 105T491 18T336 -15Z" />
<glyph unicode="D" horiz-adv-x="760" d="M26 0L156 780H410Q577 780 663 701T750 457Q750 401 739 338T699 216T624 107T504 29T332 0H26ZM216 130H321Q385 130 429 154T503 218T548 304T571 394T578 470Q578 557 537 603T398 650H302L216 130Z" />
<glyph unicode="E" horiz-adv-x="640" d="M26 0L156 780H672L650 648H300L271 476H537L517 354H251L214 132H570L548 0H26Z" />
<glyph unicode="F" horiz-adv-x="600" d="M26 0L156 780H650L628 648H302L272 471H515L494 349H252L194 0H26Z" />
<glyph unicode="G" horiz-adv-x="770" d="M328 -15Q249 -15 184 21T79 133T40 321Q40 379 52 443T93 570T169 683T287 764T453 795Q550 795 611 763T703 676T740 554L581 514Q580 584 543 626T437 669Q382 669 343 644T279 579T239 491T218 400T212 322Q212 222
255 167T373 111Q444 111 491 159T550 286H335L356 407H719L653 0H520L532 72H508Q484 36 441 11T328 -15Z" />
<glyph unicode="H" horiz-adv-x="800" d="M26 0L156 780H324L275 483H587L636 780H804L674 0H506L564 347H252L194 0H26Z" />
<glyph unicode="I" horiz-adv-x="320" d="M26 0L156 780H324L194 0H26Z" />
<glyph unicode="J" horiz-adv-x="320" d="M-70 -150V-144Q-42 -108 -21 -73T17 9T46 126L156 780H324L212 106Q201 41 187 -4T153 -83T110 -150H-70Z" />
<glyph unicode="K" horiz-adv-x="730" d="M26 0L156 780H320L270 480H326L552 780H744V774L456 409L662 6V0H476L308 348H248L190 0H26Z" />
<glyph unicode="L" horiz-adv-x="580" d="M26 0L156 780H324L216 132H522L500 0H26Z" />
<glyph unicode="M" horiz-adv-x="1050" d="M26 0L156 780H457L481 132H505L742 780H1054L924 0H760L867 642H843L606 0H332L309 642H285L178 0H26Z" />
<glyph unicode="N" horiz-adv-x="840" d="M26 0L156 780H438L560 132H584L692 780H844L714 0H430L310 648H286L178 0H26Z" />
<glyph unicode="O" horiz-adv-x="760" d="M356 -15Q263 -15 192 21T81 132T40 320Q40 378 52 443T92 570T165 683T277 764T434 795Q528 795 599 759T710 648T750 460Q750 402 738 337T697 209T624 96T512 15T356 -15ZM357 111Q410 111 448 137T511 205T551 297T572
394T578 475Q578 567 542 618T434 669Q382 669 344 643T281 575T240 484T219 387T212 305Q212 214 249 163T357 111Z" />
<glyph unicode="P" horiz-adv-x="690" d="M26 0L156 780H439Q564 780 632 722T700 560Q700 488 666 432T569 343T415 311H246L194 0H26ZM267 437H395Q466 437 500 471T534 556Q534 608 500 631T406 654H303L267 437Z" />
<glyph unicode="Q" horiz-adv-x="760" d="M356 -15Q263 -15 192 21T81 132T40 320Q40 378 52 443T92 570T165 683T277 764T434 795Q528 795 599 759T710 648T750 460Q750 402 738 337T697 209T624 96T512 15T356 -15ZM357 111Q410 111 448 137T511 205T551 297T572
394T578 475Q578 567 542 618T434 669Q382 669 344 643T281 575T240 484T219 387T212 305Q212 214 249 163T357 111ZM426 -150L303 49H498L615 -148L614 -150H426Z" />
<glyph unicode="R" horiz-adv-x="710" d="M26 0L156 780H448Q529 780 585 755T671 683T701 570Q701 492 660 435T544 350L655 6V0H479L379 332H249L194 0H26ZM267 452H405Q471 452 503 484T535 563Q535 611 503 632T415 654H301L267 452Z" />
<glyph unicode="S" horiz-adv-x="660" d="M306 -15Q223 -15 159 15T58 101T22 232L166 268Q166 196 206 154T315 111Q372 111 406 139T440 210Q440 241 425 261T388 294T343 318L283 346Q243 365 202 390T134 457T106 561Q106 627 139 680T232 764T373 795Q483
795 545 738T612 588L471 547Q471 608 443 639T363 671Q316 671 289 647T262 585Q262 552 283 530T336 494L390 469Q441 446 490 418T570 348T602 236Q602 165 565 108T462 18T306 -15Z" />
<glyph unicode="T" horiz-adv-x="670" d="M201 0L309 648H76L98 780H732L710 648H477L369 0H201Z" />
<glyph unicode="U" horiz-adv-x="780" d="M372 -14Q263 -14 190 29T86 152T73 338L147 780H317L240 318Q235 288 238 254T255 191T299 143T376 124Q412 124 441 137T492 175T529 237T552 323L628 780H794L716 318Q705 252 685 199T636 106T567 40T480 0T372 -14Z" />
<glyph unicode="V" horiz-adv-x="730" d="M190 0L88 775V780H248L332 144H356L634 780H802V774L454 0H190Z" />
<glyph unicode="W" horiz-adv-x="1090" d="M91 0L110 778V780H270L251 131H278L488 780H766L767 131H792L984 780H1142V778L907 0H617L616 648H592L381 0H91Z" />
<glyph unicode="X" horiz-adv-x="730" d="M-49 0V6L250 414L114 774V780H285L384 519H404L587 780H767V774L510 414L669 6V0H491L377 309H357L137 0H-49Z" />
<glyph unicode="Y" horiz-adv-x="660" d="M196 0L253 345L87 774V780H255L320 600Q330 574 338 549T351 488H375Q389 523 404 548T437 600L557 780H733V774L416 314L364 0H196Z" />
<glyph unicode="Z" horiz-adv-x="690" d="M-16 0L8 144L380 518Q421 559 445 583T495 624L499 648H120L142 780H725L701 636L328 262Q288 221 264 197T213 156L209 132H630L608 0H-16Z" />
<glyph unicode="[" horiz-adv-x="420" d="M4 -180L164 780H465L445 662H288L168 -62H324L304 -180H4Z" />
<glyph unicode="\" horiz-adv-x="420" d="M360 -94V-100H234L103 794V800H229L360 -94Z" />
<glyph unicode="]" horiz-adv-x="420" d="M417 780L257 -180H-44L-24 -62H133L253 662H97L117 780H417Z" />
<glyph unicode="^" horiz-adv-x="680" d="M29 390V396L301 780H518L661 396V390H509L407 666H383L187 390H29Z" />
<glyph unicode="_" horiz-adv-x="720" d="M-83 -165L-68 -75H664L649 -165H-83Z" />
<glyph unicode="`" horiz-adv-x="600" d="M346 660L283 834V840H417L466 666V660H346Z" />
<glyph unicode="a" horiz-adv-x="660" d="M217 -12Q132 -12 80 50T28 227Q28 294 46 362T102 486T193 577T319 612Q379 612 411 591T458 540H482L492 600H636L562 156Q558 129 555 104T550 53T548 0H392Q394 20 397 45T405 90H381Q362 54 324 21T217 -12ZM275
108Q317 108 348 144T401 237T433 354L452 468Q434 481 412 489T360 498Q308 498 270 462T211 365T190 233Q190 168 214 138T275 108Z" />
<glyph unicode="b" horiz-adv-x="660" d="M340 -12Q279 -12 248 10T202 60H178L168 0H24L157 800H319L263 522H287Q296 540 315 560T366 595T443 610Q528 610 580 549T632 373Q632 306 614 238T559 114T468 23T340 -12ZM300 102Q352 102 390 138T449 235T470 367Q470
432 446 461T385 490Q344 490 312 454T259 362T227 246L208 132Q226 119 249 111T300 102Z" />
<glyph unicode="c" horiz-adv-x="580" d="M277 -15Q163 -15 95 52T27 249Q27 309 44 373T97 492T193 581T337 615Q433 615 497 566T579 420L429 384Q420 446 397 473T336 501Q300 501 275 481T234 427T209 357T197 287T193 231Q193 165 217 132T285 99Q317 99
341 116T382 163T411 224L545 157Q523 110 487 71T400 8T277 -15Z" />
<glyph unicode="d" horiz-adv-x="660" d="M217 -10Q132 -10 80 51T28 227Q28 294 46 362T100 486T189 577T313 612Q372 612 402 591T447 546H471L507 800H669L562 156Q558 129 555 104T550 53T548 0H392Q394 20 397 45T405 90H381Q362 54 324 22T217 -10ZM275
110Q317 110 348 146T401 238T433 354L452 468Q434 481 412 489T360 498Q308 498 270 462T211 365T190 233Q190 168 214 139T275 110Z" />
<glyph unicode="e" horiz-adv-x="590" d="M277 -15Q163 -15 95 52T27 249Q27 309 43 373T96 492T191 581T333 615Q409 615 466 582T551 478T560 299L554 262H145V364H409Q422 439 395 473T327 507Q284 507 257 478T214 404T193 314T187 235Q187 165 213 132T282
99Q313 99 335 113T375 152T404 205L528 124Q505 85 470 54T387 4T277 -15Z" />
<glyph unicode="f" horiz-adv-x="380" d="M43 -100L141 486H61L80 600H162L168 636Q176 681 194 720T253 782T365 806Q385 806 401 804T427 800L409 692Q403 693 399 693T384 694Q353 694 340 677T320 624L316 600H400L381 486H299L201 -100H43Z" />
<glyph unicode="g" horiz-adv-x="650" d="M245 -215Q149 -215 89 -183T-10 -113L79 -6Q109 -43 154 -69T254 -95Q313 -95 345 -62T390 35L405 110H381Q358 68 320 43T226 18Q142 18 91 79T39 247Q39 312 58 376T113 494T202 579T322 612Q375 612 402 593T448 540H472L482
600H626L529 18Q510 -100 434 -157T245 -215ZM274 132Q314 132 344 166T395 254T426 372L442 468Q425 485 401 492T357 500Q309 500 274 468T218 381T198 255Q198 193 219 163T274 132Z" />
<glyph unicode="h" horiz-adv-x="660" d="M24 0L157 800H319L268 528H292Q305 549 322 569T368 602T440 615Q504 615 545 586T603 507T609 389L544 0H382L443 366Q454 428 438 461T381 495Q343 495 313 467T264 391T234 288L186 0H24Z" />
<glyph unicode="i" horiz-adv-x="310" d="M24 0L124 600H286L186 0H24ZM222 669Q184 669 164 688T143 741Q143 782 169 806T238 831Q276 831 296 812T317 760Q317 720 292 695T222 669Z" />
<glyph unicode="j" horiz-adv-x="310" d="M-64 -200V-194Q-28 -154 -7 -108T24 0L124 600H286L183 -19Q172 -89 153 -129T110 -200H-64ZM217 669Q179 669 159 688T138 741Q138 782 164 806T233 831Q271 831 291 812T312 760Q312 720 287 695T217 669Z" />
<glyph unicode="k" horiz-adv-x="640" d="M24 0L157 800H319L249 376H297L461 600H647V594L416 310L584 6V0H410L277 256H229L186 0H24Z" />
<glyph unicode="l" horiz-adv-x="310" d="M54 0Q45 38 45 79T54 179L157 800H319L219 198Q207 125 209 80T222 6V0H54Z" />
<glyph unicode="m" horiz-adv-x="990" d="M24 0L100 456Q108 501 113 541T118 600H262Q262 579 260 557T253 510H277Q300 555 337 585T440 615Q496 615 533 587T583 510H607Q630 555 667 585T770 615Q834 615 875 586T933 507T939 389L874 0H712L773 366Q784 428
770 461T719 495Q684 495 656 467T608 391T578 288L530 0H368L429 366Q440 428 425 461T374 495Q339 495 311 467T264 391T234 288L186 0H24Z" />
<glyph unicode="n" horiz-adv-x="660" d="M24 0L100 456Q108 501 113 541T118 600H262Q262 579 260 557T253 510H277Q300 555 337 585T440 615Q504 615 545 586T603 507T609 389L544 0H382L443 366Q454 428 438 461T381 494Q343 494 313 466T264 391T234 288L186 0H24Z" />
<glyph unicode="o" horiz-adv-x="630" d="M286 -15Q168 -15 98 52T27 251Q27 310 43 373T97 492T195 581T345 615Q463 615 533 548T603 349Q603 291 587 228T534 109T436 20T286 -15ZM285 93Q323 93 349 114T393 169T420 241T433 315T437 375Q437 442 414 474T346
507Q308 507 281 486T237 431T210 359T197 285T193 227Q193 164 216 129T285 93Z" />
<glyph unicode="p" horiz-adv-x="660" d="M-9 -200L100 456Q108 501 113 541T118 600H262Q262 579 260 557T253 510H277Q297 546 336 578T443 610Q528 610 580 549T632 373Q632 306 614 238T560 114T471 23T347 -12Q289 -12 258 10T211 60H187Q186 45 184 20T173
-60L153 -200H-9ZM300 102Q352 102 390 138T449 235T470 367Q470 432 446 461T385 490Q344 490 312 454T259 362T227 246L208 132Q226 119 249 111T300 102Z" />
<glyph unicode="q" horiz-adv-x="660" d="M346 -200L385 0Q389 18 394 38T407 90H383Q362 54 324 22T217 -10Q132 -10 80 51T28 227Q28 294 46 362T101 486T192 577T320 612Q381 612 413 591T458 540H482L492 600H636L503 -200H346ZM275 110Q317 110 348 146T401
238T433 354L452 468Q434 481 412 489T360 498Q308 498 270 462T211 365T190 233Q190 168 214 139T275 110Z" />
<glyph unicode="r" horiz-adv-x="450" d="M24 0L100 456Q108 501 113 541T118 600H262Q262 579 259 551T251 498H275Q285 524 304 549T356 590T440 606H478L454 460H404Q348 460 315 445T264 395T236 300L186 0H24Z" />
<glyph unicode="s" horiz-adv-x="520" d="M238 -15Q133 -15 70 38T1 174L145 209Q150 156 179 128T253 99Q286 99 306 116T327 158Q327 184 309 200T262 229L211 251Q183 263 149 282T89 335T64 423Q64 476 91 519T169 589T293 615Q387 615 442 570T501 447L357
412Q357 457 338 482T281 507Q248 507 231 489T214 447Q214 423 229 408T266 383L314 363Q354 347 391 326T453 271T477 184Q477 130 449 85T367 12T238 -15Z" />
<glyph unicode="t" horiz-adv-x="380" d="M98 0Q81 29 75 67T80 179L131 486H61L80 600H154L179 750H333L308 600H400L381 486H293L244 196Q232 123 241 81T272 6V0H98Z" />
<glyph unicode="u" horiz-adv-x="660" d="M211 -15Q123 -15 78 41T50 204L116 600H278L213 210Q206 165 222 135T278 105Q318 105 347 133T397 209T426 312L474 600H636L562 156Q555 116 552 78T548 0H392Q394 20 397 45T405 90H381Q352 45 315 15T211 -15Z" />
<glyph unicode="v" horiz-adv-x="600" d="M130 0L62 599V600H216L263 132H287L481 600H638V599L380 0H130Z" />
<glyph unicode="w" horiz-adv-x="960" d="M79 0L90 599V600H232L221 120H245L404 600H658L661 120H685L830 600H972V599L788 0H524L519 483H495L340 0H79Z" />
<glyph unicode="x" horiz-adv-x="600" d="M-38 0V6L191 322L80 594V600H245L307 420H332L450 600H614V594L416 312L538 6V0H372L297 210H273L132 0H-38Z" />
<glyph unicode="y" horiz-adv-x="580" d="M30 -200V-194Q66 -149 103 -94T165 15L58 600H214L253 359Q258 328 263 293T270 204H294Q310 258 324 296T351 360L462 600H620L384 114Q330 3 282 -78T204 -200H30Z" />
<glyph unicode="z" horiz-adv-x="550" d="M-14 0L8 129L259 386Q288 415 304 432T340 462L344 486H82L101 600H552L530 471L279 214Q251 185 234 168T198 138L194 114H483L464 0H-14Z" />
<glyph unicode="{" horiz-adv-x="420" d="M285 -192Q199 -192 152 -173T86 -123T67 -58Q67 -17 81 27T109 112T124 178Q124 206 102 222T27 242L46 358Q96 359 122 375T162 422Q172 446 175 479T179 554Q180 618 189 663T226 737T307 779T449 792L429 678Q377
675 355 662T328 622T322 552Q321 510 317 476T302 414Q289 383 265 361T197 321L194 297Q235 276 251 244T268 185Q268 154 254 114T226 35T211 -28Q211 -52 228 -65T304 -78L285 -192Z" />
<glyph unicode="|" horiz-adv-x="360" d="M117 -200V800H243V-200H117Z" />
<glyph unicode="}" horiz-adv-x="420" d="M135 792Q221 792 268 773T334 723T353 658Q353 618 339 573T311 489T296 422Q296 394 318 379T393 358L374 242Q325 241 298 226T258 178Q248 154 245 121T241 46Q240 -18 231 -63T194 -137T113 -179T-29 -192L-9 -78Q44
-75 65 -62T92 -22T98 48Q99 90 103 124T118 186Q131 217 155 240T223 279L226 303Q185 324 169 357T152 415Q152 447 166 487T195 565T209 628Q209 652 192 665T116 678L135 792Z" />
<glyph unicode="~" horiz-adv-x="680" d="M43 287Q51 342 72 390T132 469T229 500Q268 500 302 487T367 456T423 426T472 412Q499 412 517 429T539 493H667Q659 439 638 391T579 311T482 280Q445 280 411 293T347 324T290 354T243 368Q214 368 195 349T171 287H43Z" />
<glyph unicode="&#xa0;" horiz-adv-x="240" />
<glyph unicode="&#xa1;" horiz-adv-x="360" d="M251 330L195 -150L190 -180H14L19 -150L119 330H251ZM223 606Q264 606 285 585T306 526Q306 481 280 454T208 426Q168 426 147 447T126 505Q126 550 152 578T223 606Z" />
<glyph unicode="&#xa2;" horiz-adv-x="640" d="M233 -30L373 810H473L333 -30H233ZM322 75Q208 75 140 142T72 339Q72 399 89 463T142 582T238 671T382 705Q478 705 542 656T624 510L474 474Q465 536 442 563T381 591Q345 591 320 571T279 517T254 447T242 377T238
321Q238 255 262 222T330 189Q362 189 386 206T427 253T456 314L590 247Q568 200 532 161T445 98T322 75Z" />
<glyph unicode="&#xa3;" horiz-adv-x="680" d="M-6 0L15 128Q77 128 113 166T149 285Q149 332 141 393T132 509Q132 611 173 674T281 765T427 794Q553 794 616 730T691 553L544 529Q534 594 502 636T409 679Q378 679 350 665T305 616T287 520Q287 479 293 430T299
334Q299 258 278 218T223 154L219 130H622L600 0H-6ZM33 317L47 403H481L467 317H33Z" />
<glyph unicode="&#xa4;" horiz-adv-x="680" d="M122 76L34 164L118 248Q99 280 88 318T77 400Q77 443 88 481T118 552L34 636L122 724L207 639Q239 659 277 669T357 680Q399 680 437 670T507 639L592 724L680 636L596 552Q616 520 626 482T637 400Q637 357 627
319T596 248L680 164L592 76L507 161Q475 142 437 131T357 120Q315 120 277 131T207 161L122 76ZM357 234Q404 234 440 255T496 315T517 400Q517 448 497 485T440 544T357 566Q311 566 275 545T218 486T197 400Q197 353 217 315T274 256T357 234Z" />
<glyph unicode="&#xa5;" horiz-adv-x="680" d="M79 161L93 248H573L559 161H79ZM105 317L119 403H599L585 317H105ZM209 0L266 347L101 774V780H265L330 600Q340 574 348 549T361 488H385Q399 523 414 548T447 600L567 780H739V774L423 316L371 0H209Z" />
<glyph unicode="&#xa6;" horiz-adv-x="360" d="M117 390V800H243V390H117ZM117 -200V210H243V-200H117Z" />
<glyph unicode="&#xa7;" horiz-adv-x="720" d="M300 -112Q196 -112 133 -59T64 77L208 112Q208 59 233 28T307 -4Q349 -4 369 16T390 61Q390 87 372 104T325 132L214 178Q177 194 143 214T88 265T67 341Q67 397 105 442T221 506L225 530Q206 550 200 571T194 612Q194
659 221 700T299 766T423 792Q517 792 572 747T631 624L487 589Q487 634 468 659T411 684Q378 684 361 666T344 623Q344 601 359 585T396 560L504 515Q544 499 581 478T643 425T667 345Q667 288 630 243T515 176L511 152Q529 134 534 114T540 75Q540 27 512 -16T430
-85T300 -112ZM434 242Q476 244 496 264T517 310Q517 336 499 352T452 381L300 445Q258 443 238 423T217 377Q217 352 235 335T282 306L434 242Z" />
<glyph unicode="&#xa8;" horiz-adv-x="600" d="M265 673Q231 673 213 691T195 741Q195 780 217 803T279 827Q313 827 331 809T349 760Q349 721 327 697T265 673ZM472 673Q438 673 420 691T402 741Q402 780 424 803T486 827Q520 827 538 809T556 760Q556 721 534
697T472 673Z" />
<glyph unicode="&#xa9;" horiz-adv-x="920" d="M444 -14Q333 -14 248 27T115 149T67 347Q67 434 95 514T179 657T316 757T505 794Q611 794 696 755T833 635T884 434Q884 349 857 269T774 125T637 24T444 -14ZM449 70Q535 70 599 100T707 180T772 295T794 427Q794
521 756 583T652 678T501 710Q416 710 352 680T244 599T179 484T157 352Q157 260 194 197T298 102T449 70ZM459 167Q371 167 322 216T272 359Q272 398 282 442T318 525T385 588T490 613Q560 613 610 580T676 477L556 447Q548 493 532 510T493 527Q464 527 446 505T419
450T407 387T404 339Q404 296 419 275T462 253Q497 253 517 281T545 339L651 293Q630 242 585 205T459 167Z" />
<glyph unicode="&#xaa;" horiz-adv-x="440" d="M182 411Q122 411 94 448T66 546Q66 607 87 662T148 753T244 789Q273 789 292 775T316 737H340L347 780H463L424 548Q413 484 413 420H290Q290 431 291 442T294 463H270Q258 438 236 425T182 411ZM232 505Q256 505
273 523T301 569T318 627L328 680Q318 688 304 691T278 695Q235 695 211 658T187 571Q187 535 200 520T232 505Z" />
<glyph unicode="&#xab;" horiz-adv-x="720" d="M226 110L60 312L280 510H430V504L226 317V293L366 116V110H226ZM496 110L330 312L550 510H700V504L496 317V293L636 116V110H496Z" />
<glyph unicode="&#xac;" horiz-adv-x="680" d="M481 160L508 327H54L75 453H655L607 160H481Z" />
<glyph unicode="&#xad;" horiz-adv-x="360" d="M39 244L61 376H325L303 244H39Z" />
<glyph unicode="&#xae;" horiz-adv-x="600" d="M330 342Q224 342 157 401T90 573Q90 647 122 712T216 817T368 858Q436 858 490 833T577 756T610 628Q610 556 579 491T486 384T330 342ZM335 411Q402 411 447 441T515 520T538 622Q538 705 489 747T365 789Q298
789 253 759T185 680T162 578Q162 496 210 454T335 411ZM222 480L263 720H396Q439 720 460 698T482 648Q482 623 467 602T427 576L457 484V480H371L344 564H320L306 480H222ZM329 618H365Q398 618 398 644Q398 664 371 664H338L329 618Z" />
<glyph unicode="&#xaf;" horiz-adv-x="600" d="M204 696L222 804H546L528 696H204Z" />
<glyph unicode="&#xb0;" horiz-adv-x="510" d="M305 405Q251 405 207 431T137 502T110 600Q110 654 136 698T207 768T305 795Q359 795 403 769T473 698T500 600Q500 547 474 503T403 432T305 405ZM305 505Q343 505 370 531T398 600Q398 643 371 669T305 695Q267
695 240 669T212 600Q212 557 239 531T305 505Z" />
<glyph unicode="&#xb1;" horiz-adv-x="680" d="M259 199L290 389H54L74 511H310L344 711H472L438 511H674L654 389H418L387 199H259ZM-6 29L15 151H615L594 29H-6Z" />
<glyph unicode="&#xb2;" horiz-adv-x="480" d="M77 500L94 602Q139 631 168 650T222 686T276 726Q317 758 347 786T377 845Q377 865 363 879T324 893Q294 893 272 872T235 818L131 851Q158 909 209 948T338 988Q418 988 460 947T503 850Q503 803 478 769T420 710T359
670Q346 663 324 650T272 622L268 598H485L469 500H77Z" />
<glyph unicode="&#xb3;" horiz-adv-x="480" d="M286 492Q210 492 157 528T96 629L206 656Q211 616 234 601T288 586Q331 586 346 607T362 646Q362 675 334 692T262 711L226 713L238 782L302 829Q324 846 334 851T358 861L362 885H163L178 980H522L505 879L370
782L366 758Q424 755 456 725T488 645Q488 598 460 564T387 511T286 492Z" />
<glyph unicode="&#xb4;" horiz-adv-x="600" d="M249 660V666L351 840H501V834L381 660H249Z" />
<glyph unicode="&#xb5;" horiz-adv-x="660" d="M-11 -200L122 600H284L218 202Q211 161 226 133T278 105Q318 105 347 133T397 209T426 312L474 600H636L562 156Q555 116 552 78T548 0H392Q394 20 397 45T405 90H381Q367 60 351 37T314 0T261 -14Q239 -14 225
-7T199 15H175Q176 -4 175 -22T171 -60L151 -200H-11Z" />
<glyph unicode="&#xb6;" horiz-adv-x="720" d="M200 -100L265 290L326 240Q241 240 181 271T90 357T58 483Q58 561 92 628T194 738T363 780H728L582 -100H450L576 658H458L332 -100H200Z" />
<glyph unicode="&#xb7;" horiz-adv-x="300" d="M143 214Q100 214 78 237T55 299Q55 347 83 376T159 406Q202 406 224 383T247 322Q247 274 219 244T143 214Z" />
<glyph unicode="&#xb8;" horiz-adv-x="600" d="M61 -180V-174L193 0H307L214 -180H61Z" />
<glyph unicode="&#xb9;" horiz-adv-x="480" d="M246 500L301 828H208L220 902Q256 906 278 912T315 933T341 980H452L372 500H246Z" />
<glyph unicode="&#xba;" horiz-adv-x="420" d="M243 411Q165 411 120 452T74 579Q74 633 94 681T160 759T277 789Q355 789 400 748T446 622Q446 566 425 518T358 441T243 411ZM247 498Q274 498 290 513T315 551T326 596T329 631Q329 674 312 688T274 702Q247 702
231 687T206 649T194 605T191 570Q191 527 208 513T247 498Z" />
<glyph unicode="&#xbb;" horiz-adv-x="720" d="M24 110V116L228 303V327L88 504V510H228L394 308L174 110H24ZM294 110V116L498 303V327L358 504V510H498L664 308L444 110H294Z" />
<glyph unicode="&#xbc;" horiz-adv-x="1140" d="M213 300L268 628H175L187 702Q223 706 245 712T282 733T308 780H419L339 300H213ZM187 0V5L851 780H983V774L319 0H187ZM662 102L677 190L955 480H1103V474L894 272Q875 254 864 246T830 217L826 193H1087L1072
102H662ZM894 0L920 146H923L945 272H1055L1033 146H1037L1011 0H894Z" />
<glyph unicode="&#xbd;" horiz-adv-x="1140" d="M153 300L208 628H115L127 702Q163 706 185 712T222 733T248 780H359L279 300H153ZM97 0V5L761 780H893V774L229 0H97ZM594 0L611 102Q656 131 685 150T739 186T793 226Q834 258 864 286T894 345Q894 365 880 379T841
393Q811 393 789 372T752 318L648 351Q675 409 726 448T855 488Q935 488 977 447T1020 350Q1020 303 995 269T937 210T876 170Q863 163 841 150T789 122L785 98H1002L986 0H594Z" />
<glyph unicode="&#xbe;" horiz-adv-x="1140" d="M253 292Q177 292 124 328T63 429L173 456Q178 416 201 401T255 386Q298 386 313 407T329 446Q329 475 301 492T229 511L193 513L205 582L269 629Q291 646 301 651T325 661L329 685H130L145 780H489L472 679L337
582L333 558Q391 555 423 525T455 445Q455 398 427 364T354 311T253 292ZM217 0V5L881 780H1013V774L349 0H217ZM662 102L677 190L955 480H1103V474L894 272Q875 254 864 246T830 217L826 193H1087L1072 102H662ZM894 0L920 146H923L945 272H1055L1033 146H1037L1011
0H894Z" />
<glyph unicode="&#xbf;" horiz-adv-x="590" d="M377 360L347 182Q297 178 250 163T172 118T141 39Q141 -10 172 -38T254 -66Q310 -66 346 -33T399 53L525 9Q508 -46 474 -91T384 -164T246 -192Q170 -192 111 -167T19 -93T-15 24Q-15 93 17 143T103 227T219 277L233
360H377ZM338 606Q379 606 400 585T421 526Q421 481 395 454T323 426Q283 426 262 448T241 508Q241 551 267 578T338 606Z" />
<glyph unicode="&#xc0;" horiz-adv-x="730" d="M-42 0V6L309 780H571L672 6V0H510L435 650H411L126 0H-42ZM186 195L241 321H492L505 195H186ZM381 840L318 1014V1020H452L501 846V840H381Z" />
<glyph unicode="&#xc1;" horiz-adv-x="730" d="M-42 0V6L309 780H571L672 6V0H510L435 650H411L126 0H-42ZM186 195L241 321H492L505 195H186ZM375 840V846L477 1020H627V1014L507 840H375Z" />
<glyph unicode="&#xc2;" horiz-adv-x="730" d="M-42 0V6L309 780H571L672 6V0H510L435 650H411L126 0H-42ZM186 195L241 321H492L505 195H186ZM237 840V846L383 1020H593L657 846V840H529L489 945H465L377 840H237Z" />
<glyph unicode="&#xc3;" horiz-adv-x="730" d="M-42 0V6L309 780H571L672 6V0H510L435 650H411L126 0H-42ZM186 195L241 321H492L505 195H186ZM248 853Q254 893 269 930T314 991T387 1015Q423 1015 449 1000T496 970T536 955Q555 955 566 966T581 1009H683Q677
969 662 932T618 871T544 847Q509 847 483 862T437 892T399 907Q357 907 350 853H248Z" />
<glyph unicode="&#xc4;" horiz-adv-x="730" d="M-42 0V6L309 780H571L672 6V0H510L435 650H411L126 0H-42ZM186 195L241 321H492L505 195H186ZM356 853Q322 853 304 871T286 921Q286 960 308 983T370 1007Q404 1007 422 989T440 940Q440 901 418 877T356 853ZM563
853Q529 853 511 871T493 921Q493 960 515 983T577 1007Q611 1007 629 989T647 940Q647 901 625 877T563 853Z" />
<glyph unicode="&#xc5;" horiz-adv-x="730" d="M-42 0V6L309 780H571L672 6V0H510L435 650H411L126 0H-42ZM186 195L241 321H492L505 195H186ZM459 822Q403 822 372 854T340 932Q340 987 379 1024T479 1062Q535 1062 566 1031T598 953Q598 898 560 860T459 822ZM465
894Q486 894 500 909T514 947Q514 966 503 978T473 990Q451 990 438 975T424 938Q424 919 435 907T465 894Z" />
<glyph unicode="&#xc6;" horiz-adv-x="1020" d="M-42 0V6L309 780H571L672 6V0H510L435 650H411L126 0H-42ZM186 195L241 321H492L505 195H186ZM522 0L583 130H978L956 0H522ZM489 354L510 476H918L897 354H489ZM453 650L365 780H949L927 650H453Z" />
<glyph unicode="&#xc7;" horiz-adv-x="700" d="M336 -15Q196 -15 118 69T40 312Q40 374 52 441T92 572T164 685T271 765T420 795Q547 795 618 725T701 525L540 499Q535 580 505 624T415 669Q372 669 339 647T282 587T243 505T221 412T214 324Q214 225 247 168T348
111Q392 111 423 134T478 195T518 280L663 221Q637 158 596 105T491 18T336 -15ZM153 -180V-174L285 0H399L306 -180H153Z" />
<glyph unicode="&#xc8;" horiz-adv-x="640" d="M26 0L156 780H672L650 648H300L271 476H537L517 354H251L214 132H570L548 0H26ZM350 840L287 1014V1020H421L470 846V840H350Z" />
<glyph unicode="&#xc9;" horiz-adv-x="640" d="M26 0L156 780H672L650 648H300L271 476H537L517 354H251L214 132H570L548 0H26ZM344 840V846L446 1020H596V1014L476 840H344Z" />
<glyph unicode="&#xca;" horiz-adv-x="640" d="M26 0L156 780H672L650 648H300L271 476H537L517 354H251L214 132H570L548 0H26ZM206 840V846L352 1020H562L626 846V840H498L458 945H434L346 840H206Z" />
<glyph unicode="&#xcb;" horiz-adv-x="640" d="M26 0L156 780H672L650 648H300L271 476H537L517 354H251L214 132H570L548 0H26ZM325 853Q291 853 273 871T255 921Q255 960 277 983T339 1007Q373 1007 391 989T409 940Q409 901 387 877T325 853ZM532 853Q498 853
480 871T462 921Q462 960 484 983T546 1007Q580 1007 598 989T616 940Q616 901 594 877T532 853Z" />
<glyph unicode="&#xcc;" horiz-adv-x="320" d="M26 0L156 780H324L194 0H26ZM180 840L117 1014V1020H251L300 846V840H180Z" />
<glyph unicode="&#xcd;" horiz-adv-x="320" d="M26 0L156 780H324L194 0H26ZM174 840V846L276 1020H426V1014L306 840H174Z" />
<glyph unicode="&#xce;" horiz-adv-x="320" d="M26 0L156 780H324L194 0H26ZM36 840V846L182 1020H392L456 846V840H328L288 945H264L176 840H36Z" />
<glyph unicode="&#xcf;" horiz-adv-x="320" d="M26 0L156 780H324L194 0H26ZM155 853Q121 853 103 871T85 921Q85 960 107 983T169 1007Q203 1007 221 989T239 940Q239 901 217 877T155 853ZM362 853Q328 853 310 871T292 921Q292 960 314 983T376 1007Q410 1007
428 989T446 940Q446 901 424 877T362 853Z" />
<glyph unicode="&#xd0;" horiz-adv-x="760" d="M26 0L156 780H410Q577 780 663 701T750 457Q750 401 739 338T699 216T624 107T504 29T332 0H26ZM216 130H321Q385 130 429 154T503 218T548 304T571 394T578 470Q578 557 537 603T398 650H302L216 130ZM271 371L287
469H707L691 371H271Z" />
<glyph unicode="&#xd1;" horiz-adv-x="840" d="M26 0L156 780H438L560 132H584L692 780H844L714 0H430L310 648H286L178 0H26ZM307 823Q313 863 328 900T373 961T446 985Q482 985 508 970T555 940T595 925Q614 925 625 936T640 979H742Q736 939 721 902T677 841T603
817Q568 817 542 832T496 862T458 877Q416 877 409 823H307Z" />
<glyph unicode="&#xd2;" horiz-adv-x="760" d="M356 -15Q263 -15 192 21T81 132T40 320Q40 378 52 443T92 570T165 683T277 764T434 795Q528 795 599 759T710 648T750 460Q750 402 738 337T697 209T624 96T512 15T356 -15ZM357 111Q410 111 448 137T511 205T551
297T572 394T578 475Q578 567 542 618T434 669Q382 669 344 643T281 575T240 484T219 387T212 305Q212 214 249 163T357 111ZM390 840L327 1014V1020H461L510 846V840H390Z" />
<glyph unicode="&#xd3;" horiz-adv-x="760" d="M356 -15Q263 -15 192 21T81 132T40 320Q40 378 52 443T92 570T165 683T277 764T434 795Q528 795 599 759T710 648T750 460Q750 402 738 337T697 209T624 96T512 15T356 -15ZM357 111Q410 111 448 137T511 205T551
297T572 394T578 475Q578 567 542 618T434 669Q382 669 344 643T281 575T240 484T219 387T212 305Q212 214 249 163T357 111ZM384 840V846L486 1020H636V1014L516 840H384Z" />
<glyph unicode="&#xd4;" horiz-adv-x="760" d="M356 -15Q263 -15 192 21T81 132T40 320Q40 378 52 443T92 570T165 683T277 764T434 795Q528 795 599 759T710 648T750 460Q750 402 738 337T697 209T624 96T512 15T356 -15ZM357 111Q410 111 448 137T511 205T551
297T572 394T578 475Q578 567 542 618T434 669Q382 669 344 643T281 575T240 484T219 387T212 305Q212 214 249 163T357 111ZM246 840V846L392 1020H602L666 846V840H538L498 945H474L386 840H246Z" />
<glyph unicode="&#xd5;" horiz-adv-x="760" d="M356 -15Q263 -15 192 21T81 132T40 320Q40 378 52 443T92 570T165 683T277 764T434 795Q528 795 599 759T710 648T750 460Q750 402 738 337T697 209T624 96T512 15T356 -15ZM357 111Q410 111 448 137T511 205T551
297T572 394T578 475Q578 567 542 618T434 669Q382 669 344 643T281 575T240 484T219 387T212 305Q212 214 249 163T357 111ZM257 853Q263 893 278 930T323 991T396 1015Q432 1015 458 1000T505 970T545 955Q564 955 575 966T590 1009H692Q686 969 671 932T627
871T553 847Q518 847 492 862T446 892T408 907Q366 907 359 853H257Z" />
<glyph unicode="&#xd6;" horiz-adv-x="760" d="M356 -15Q263 -15 192 21T81 132T40 320Q40 378 52 443T92 570T165 683T277 764T434 795Q528 795 599 759T710 648T750 460Q750 402 738 337T697 209T624 96T512 15T356 -15ZM357 111Q410 111 448 137T511 205T551
297T572 394T578 475Q578 567 542 618T434 669Q382 669 344 643T281 575T240 484T219 387T212 305Q212 214 249 163T357 111ZM365 853Q331 853 313 871T295 921Q295 960 317 983T379 1007Q413 1007 431 989T449 940Q449 901 427 877T365 853ZM572 853Q538 853 520
871T502 921Q502 960 524 983T586 1007Q620 1007 638 989T656 940Q656 901 634 877T572 853Z" />
<glyph unicode="&#xd7;" horiz-adv-x="680" d="M162 108L73 197L266 390L73 583L162 672L355 479L548 672L637 583L444 390L637 197L548 108L355 301L162 108Z" />
<glyph unicode="&#xd8;" horiz-adv-x="760" d="M356 -15Q291 -15 235 3T138 58L69 -13L1 55L79 135Q60 172 50 218T40 320Q40 378 52 443T92 570T165 683T277 764T434 795Q500 795 555 777T652 722L721 793L789 725L711 645Q730 608 740 562T750 460Q750 402 738
337T697 209T624 96T512 15T356 -15ZM357 111Q407 111 445 136T511 202T556 293T581 391T590 480Q590 488 590 494T590 507H566Q556 489 543 474T514 442L246 168Q283 111 357 111ZM201 273H225Q235 291 248 306T277 338L545 612Q508 669 434 669Q384 669 346 644T280
578T235 487T210 389T201 300Q201 293 201 286T201 273Z" />
<glyph unicode="&#xd9;" horiz-adv-x="780" d="M372 -14Q263 -14 190 29T86 152T73 338L147 780H317L240 318Q235 288 238 254T255 191T299 143T376 124Q412 124 441 137T492 175T529 237T552 323L628 780H794L716 318Q705 252 685 199T636 106T567 40T480 0T372
-14ZM405 840L342 1014V1020H476L525 846V840H405Z" />
<glyph unicode="&#xda;" horiz-adv-x="780" d="M372 -14Q263 -14 190 29T86 152T73 338L147 780H317L240 318Q235 288 238 254T255 191T299 143T376 124Q412 124 441 137T492 175T529 237T552 323L628 780H794L716 318Q705 252 685 199T636 106T567 40T480 0T372
-14ZM399 840V846L501 1020H651V1014L531 840H399Z" />
<glyph unicode="&#xdb;" horiz-adv-x="780" d="M372 -14Q263 -14 190 29T86 152T73 338L147 780H317L240 318Q235 288 238 254T255 191T299 143T376 124Q412 124 441 137T492 175T529 237T552 323L628 780H794L716 318Q705 252 685 199T636 106T567 40T480 0T372
-14ZM261 840V846L407 1020H617L681 846V840H553L513 945H489L401 840H261Z" />
<glyph unicode="&#xdc;" horiz-adv-x="780" d="M372 -14Q263 -14 190 29T86 152T73 338L147 780H317L240 318Q235 288 238 254T255 191T299 143T376 124Q412 124 441 137T492 175T529 237T552 323L628 780H794L716 318Q705 252 685 199T636 106T567 40T480 0T372
-14ZM380 853Q346 853 328 871T310 921Q310 960 332 983T394 1007Q428 1007 446 989T464 940Q464 901 442 877T380 853ZM587 853Q553 853 535 871T517 921Q517 960 539 983T601 1007Q635 1007 653 989T671 940Q671 901 649 877T587 853Z" />
<glyph unicode="&#xdd;" horiz-adv-x="660" d="M196 0L253 345L87 774V780H255L320 600Q330 574 338 549T351 488H375Q389 523 404 548T437 600L557 780H733V774L416 314L364 0H196ZM337 840V846L439 1020H589V1014L469 840H337Z" />
<glyph unicode="&#xde;" horiz-adv-x="700" d="M26 0L156 780H324L299 630H414Q539 630 607 572T675 410Q675 338 641 282T544 193T390 161H221L194 0H26ZM242 287H370Q441 287 475 321T509 406Q509 458 475 481T381 504H278L242 287Z" />
<glyph unicode="&#xdf;" horiz-adv-x="700" d="M8 -100L109 516Q116 557 132 606T183 701T280 776T441 806Q531 806 585 781T663 714T687 625Q687 572 662 536T592 478T489 440L485 416Q534 399 574 375T639 312T663 215Q663 148 630 97T537 16T395 -13Q353 -13
318 -6T257 11L276 129Q304 118 335 111T394 103Q445 103 473 128T501 196Q501 233 481 260T425 306T348 334L369 460Q420 477 455 497T507 542T525 599Q525 631 502 658T419 686Q383 686 358 674T316 640T289 585T271 512L170 -100H8Z" />
<glyph unicode="&#xe0;" horiz-adv-x="660" d="M217 -12Q132 -12 80 50T28 227Q28 294 46 362T102 486T193 577T319 612Q379 612 411 591T458 540H482L492 600H636L562 156Q558 129 555 104T550 53T548 0H392Q394 20 397 45T405 90H381Q362 54 324 21T217 -12ZM275
108Q317 108 348 144T401 237T433 354L452 468Q434 481 412 489T360 498Q308 498 270 462T211 365T190 233Q190 168 214 138T275 108ZM570 660L507 834V840H641L690 666V660H570Z" />
<glyph unicode="&#xe1;" horiz-adv-x="660" d="M217 -12Q132 -12 80 50T28 227Q28 294 46 362T102 486T193 577T319 612Q379 612 411 591T458 540H482L492 600H636L562 156Q558 129 555 104T550 53T548 0H392Q394 20 397 45T405 90H381Q362 54 324 21T217 -12ZM275
108Q317 108 348 144T401 237T433 354L452 468Q434 481 412 489T360 498Q308 498 270 462T211 365T190 233Q190 168 214 138T275 108ZM308 660V666L410 840H560V834L440 660H308Z" />
<glyph unicode="&#xe2;" horiz-adv-x="660" d="M217 -12Q132 -12 80 50T28 227Q28 294 46 362T102 486T193 577T319 612Q379 612 411 591T458 540H482L492 600H636L562 156Q558 129 555 104T550 53T548 0H392Q394 20 397 45T405 90H381Q362 54 324 21T217 -12ZM275
108Q317 108 348 144T401 237T433 354L452 468Q434 481 412 489T360 498Q308 498 270 462T211 365T190 233Q190 168 214 138T275 108ZM170 660V666L316 840H526L590 666V660H462L422 765H398L310 660H170Z" />
<glyph unicode="&#xe3;" horiz-adv-x="660" d="M217 -12Q132 -12 80 50T28 227Q28 294 46 362T102 486T193 577T319 612Q379 612 411 591T458 540H482L492 600H636L562 156Q558 129 555 104T550 53T548 0H392Q394 20 397 45T405 90H381Q362 54 324 21T217 -12ZM275
108Q317 108 348 144T401 237T433 354L452 468Q434 481 412 489T360 498Q308 498 270 462T211 365T190 233Q190 168 214 138T275 108ZM181 673Q187 713 202 750T247 811T320 835Q356 835 382 820T429 790T469 775Q488 775 499 786T514 829H616Q610 789 595 752T551
691T477 667Q442 667 416 682T370 712T332 727Q290 727 283 673H181Z" />
<glyph unicode="&#xe4;" horiz-adv-x="660" d="M217 -12Q132 -12 80 50T28 227Q28 294 46 362T102 486T193 577T319 612Q379 612 411 591T458 540H482L492 600H636L562 156Q558 129 555 104T550 53T548 0H392Q394 20 397 45T405 90H381Q362 54 324 21T217 -12ZM275
108Q317 108 348 144T401 237T433 354L452 468Q434 481 412 489T360 498Q308 498 270 462T211 365T190 233Q190 168 214 138T275 108ZM289 673Q255 673 237 691T219 741Q219 780 241 803T303 827Q337 827 355 809T373 760Q373 721 351 697T289 673ZM496 673Q462
673 444 691T426 741Q426 780 448 803T510 827Q544 827 562 809T580 760Q580 721 558 697T496 673Z" />
<glyph unicode="&#xe5;" horiz-adv-x="660" d="M217 -12Q132 -12 80 50T28 227Q28 294 46 362T102 486T193 577T319 612Q379 612 411 591T458 540H482L492 600H636L562 156Q558 129 555 104T550 53T548 0H392Q394 20 397 45T405 90H381Q362 54 324 21T217 -12ZM275
108Q317 108 348 144T401 237T433 354L452 468Q434 481 412 489T360 498Q308 498 270 462T211 365T190 233Q190 168 214 138T275 108ZM392 642Q336 642 305 674T273 752Q273 807 312 844T412 882Q468 882 499 851T531 773Q531 718 493 680T392 642ZM398 714Q419
714 433 729T447 767Q447 786 436 798T406 810Q384 810 371 795T357 758Q357 739 368 727T398 714Z" />
<glyph unicode="&#xe6;" horiz-adv-x="980" d="M220 -14Q162 -14 115 6T40 65T12 160Q12 225 48 270T146 340T282 364H422L424 376Q434 433 409 469T331 505Q279 505 247 473T196 402L70 465Q112 539 176 576T328 613Q399 613 447 591T517 530H541Q569 567 616
590T729 613Q802 613 858 580T941 478T950 299L944 262H494V364H799Q812 439 785 472T716 505Q673 505 646 476T603 403T581 314T574 239Q574 165 601 132T671 99Q702 99 725 113T765 152T794 205L918 124Q895 85 861 54T781 4T674 -14Q610 -14 559 9T471 80H447Q421
48 364 17T220 -14ZM261 99Q299 99 328 116T375 162T399 224L405 262H296Q230 262 202 236T174 171Q174 134 200 117T261 99Z" />
<glyph unicode="&#xe7;" horiz-adv-x="580" d="M277 -15Q163 -15 95 52T27 249Q27 309 44 373T97 492T193 581T337 615Q433 615 497 566T579 420L429 384Q420 446 397 473T336 501Q300 501 275 481T234 427T209 357T197 287T193 231Q193 165 217 132T285 99Q317
99 341 116T382 163T411 224L545 157Q523 110 487 71T400 8T277 -15ZM92 -180V-174L224 0H338L245 -180H92Z" />
<glyph unicode="&#xe8;" horiz-adv-x="590" d="M277 -15Q163 -15 95 52T27 249Q27 309 43 373T96 492T191 581T333 615Q409 615 466 582T551 478T560 299L554 262H145V364H409Q422 439 395 473T327 507Q284 507 257 478T214 404T193 314T187 235Q187 165 213 132T282
99Q313 99 335 113T375 152T404 205L528 124Q505 85 470 54T387 4T277 -15ZM523 660L460 834V840H594L643 666V660H523Z" />
<glyph unicode="&#xe9;" horiz-adv-x="590" d="M277 -15Q163 -15 95 52T27 249Q27 309 43 373T96 492T191 581T333 615Q409 615 466 582T551 478T560 299L554 262H145V364H409Q422 439 395 473T327 507Q284 507 257 478T214 404T193 314T187 235Q187 165 213 132T282
99Q313 99 335 113T375 152T404 205L528 124Q505 85 470 54T387 4T277 -15ZM261 660V666L363 840H513V834L393 660H261Z" />
<glyph unicode="&#xea;" horiz-adv-x="590" d="M277 -15Q163 -15 95 52T27 249Q27 309 43 373T96 492T191 581T333 615Q409 615 466 582T551 478T560 299L554 262H145V364H409Q422 439 395 473T327 507Q284 507 257 478T214 404T193 314T187 235Q187 165 213 132T282
99Q313 99 335 113T375 152T404 205L528 124Q505 85 470 54T387 4T277 -15ZM379 660V666L525 840H735L799 666V660H671L631 765H607L519 660H379Z" />
<glyph unicode="&#xeb;" horiz-adv-x="590" d="M277 -15Q163 -15 95 52T27 249Q27 309 43 373T96 492T191 581T333 615Q409 615 466 582T551 478T560 299L554 262H145V364H409Q422 439 395 473T327 507Q284 507 257 478T214 404T193 314T187 235Q187 165 213 132T282
99Q313 99 335 113T375 152T404 205L528 124Q505 85 470 54T387 4T277 -15ZM498 673Q464 673 446 691T428 741Q428 780 450 803T512 827Q546 827 564 809T582 760Q582 721 560 697T498 673ZM705 673Q671 673 653 691T635 741Q635 780 657 803T719 827Q753 827 771
809T789 760Q789 721 767 697T705 673Z" />
<glyph unicode="&#xec;" horiz-adv-x="310" d="M24 0L124 600H286L186 0H24ZM145 660L82 834V840H216L265 666V660H145Z" />
<glyph unicode="&#xed;" horiz-adv-x="310" d="M24 0L124 600H286L186 0H24ZM395 660V666L497 840H647V834L527 660H395Z" />
<glyph unicode="&#xee;" horiz-adv-x="310" d="M24 0L124 600H286L186 0H24ZM1 660V666L147 840H357L421 666V660H293L253 765H229L141 660H1Z" />
<glyph unicode="&#xef;" horiz-adv-x="310" d="M24 0L124 600H286L186 0H24ZM120 673Q86 673 68 691T50 741Q50 780 72 803T134 827Q168 827 186 809T204 760Q204 721 182 697T120 673ZM327 673Q293 673 275 691T257 741Q257 780 279 803T341 827Q375 827 393
809T411 760Q411 721 389 697T327 673Z" />
<glyph unicode="&#xf0;" horiz-adv-x="630" d="M284 -15Q167 -15 97 53T27 244Q27 305 45 364T100 471T190 547T312 576Q371 576 402 556T449 510H472Q460 545 440 580T395 650L264 600L238 662Q279 677 304 684T356 687V711Q331 730 309 751T263 794V800H419Q430
789 441 778T462 755L558 792L584 729Q566 722 548 718T506 720V696Q556 635 583 555T611 384Q611 319 595 250T540 120T439 23T284 -15ZM285 93Q333 93 362 122T408 194T431 280T437 350Q437 412 414 441T346 471Q298 471 268 442T222 370T199 285T193 215Q193
158 216 126T285 93Z" />
<glyph unicode="&#xf1;" horiz-adv-x="660" d="M24 0L100 456Q108 501 113 541T118 600H262Q262 579 260 557T253 510H277Q300 555 337 585T440 615Q504 615 545 586T603 507T609 389L544 0H382L443 366Q454 428 438 461T381 494Q343 494 313 466T264 391T234
288L186 0H24ZM191 673Q197 713 212 750T257 811T330 835Q366 835 392 820T439 790T479 775Q498 775 509 786T524 829H626Q620 789 605 752T561 691T487 667Q452 667 426 682T380 712T342 727Q300 727 293 673H191Z" />
<glyph unicode="&#xf2;" horiz-adv-x="630" d="M286 -15Q168 -15 98 52T27 251Q27 310 43 373T97 492T195 581T345 615Q463 615 533 548T603 349Q603 291 587 228T534 109T436 20T286 -15ZM285 93Q323 93 349 114T393 169T420 241T433 315T437 375Q437 442 414
474T346 507Q308 507 281 486T237 431T210 359T197 285T193 227Q193 164 216 129T285 93ZM542 660L479 834V840H613L662 666V660H542Z" />
<glyph unicode="&#xf3;" horiz-adv-x="630" d="M286 -15Q168 -15 98 52T27 251Q27 310 43 373T97 492T195 581T345 615Q463 615 533 548T603 349Q603 291 587 228T534 109T436 20T286 -15ZM285 93Q323 93 349 114T393 169T420 241T433 315T437 375Q437 442 414
474T346 507Q308 507 281 486T237 431T210 359T197 285T193 227Q193 164 216 129T285 93ZM280 660V666L382 840H532V834L412 660H280Z" />
<glyph unicode="&#xf4;" horiz-adv-x="630" d="M286 -15Q168 -15 98 52T27 251Q27 310 43 373T97 492T195 581T345 615Q463 615 533 548T603 349Q603 291 587 228T534 109T436 20T286 -15ZM285 93Q323 93 349 114T393 169T420 241T433 315T437 375Q437 442 414
474T346 507Q308 507 281 486T237 431T210 359T197 285T193 227Q193 164 216 129T285 93ZM398 660V666L544 840H754L818 666V660H690L650 765H626L538 660H398Z" />
<glyph unicode="&#xf5;" horiz-adv-x="630" d="M286 -15Q168 -15 98 52T27 251Q27 310 43 373T97 492T195 581T345 615Q463 615 533 548T603 349Q603 291 587 228T534 109T436 20T286 -15ZM285 93Q323 93 349 114T393 169T420 241T433 315T437 375Q437 442 414
474T346 507Q308 507 281 486T237 431T210 359T197 285T193 227Q193 164 216 129T285 93ZM409 673Q415 713 430 750T475 811T548 835Q584 835 610 820T657 790T697 775Q716 775 727 786T742 829H844Q838 789 823 752T779 691T705 667Q670 667 644 682T598 712T560
727Q518 727 511 673H409Z" />
<glyph unicode="&#xf6;" horiz-adv-x="630" d="M286 -15Q168 -15 98 52T27 251Q27 310 43 373T97 492T195 581T345 615Q463 615 533 548T603 349Q603 291 587 228T534 109T436 20T286 -15ZM285 93Q323 93 349 114T393 169T420 241T433 315T437 375Q437 442 414
474T346 507Q308 507 281 486T237 431T210 359T197 285T193 227Q193 164 216 129T285 93ZM517 673Q483 673 465 691T447 741Q447 780 469 803T531 827Q565 827 583 809T601 760Q601 721 579 697T517 673ZM724 673Q690 673 672 691T654 741Q654 780 676 803T738
827Q772 827 790 809T808 760Q808 721 786 697T724 673Z" />
<glyph unicode="&#xf7;" horiz-adv-x="680" d="M45 328L65 452H665L645 328H45ZM313 90Q273 90 252 111T230 170Q230 215 256 242T328 270Q368 270 389 249T410 191Q410 146 384 118T313 90ZM383 510Q343 510 322 531T300 590Q300 635 326 662T398 690Q438 690
459 669T480 611Q480 566 454 538T383 510Z" />
<glyph unicode="&#xf8;" horiz-adv-x="630" d="M286 -15Q183 -15 117 35L69 -15L9 45L62 99Q27 161 27 251Q27 310 43 373T97 492T195 581T345 615Q448 615 513 565L561 615L621 555L569 501Q603 439 603 349Q603 291 587 228T534 109T436 20T286 -15ZM285 93Q332
93 363 123T413 198T440 288T450 365H426Q416 347 404 332T375 300L213 133Q235 93 285 93ZM181 235H205Q215 253 227 268T256 300L418 467Q395 507 346 507Q300 507 269 477T218 402T191 312T181 235Z" />
<glyph unicode="&#xf9;" horiz-adv-x="660" d="M211 -15Q123 -15 78 41T50 204L116 600H278L213 210Q206 165 222 135T278 105Q318 105 347 133T397 209T426 312L474 600H636L562 156Q555 116 552 78T548 0H392Q394 20 397 45T405 90H381Q352 45 315 15T211 -15ZM575
660L512 834V840H646L695 666V660H575Z" />
<glyph unicode="&#xfa;" horiz-adv-x="660" d="M211 -15Q123 -15 78 41T50 204L116 600H278L213 210Q206 165 222 135T278 105Q318 105 347 133T397 209T426 312L474 600H636L562 156Q555 116 552 78T548 0H392Q394 20 397 45T405 90H381Q352 45 315 15T211 -15ZM313
660V666L415 840H565V834L445 660H313Z" />
<glyph unicode="&#xfb;" horiz-adv-x="660" d="M211 -15Q123 -15 78 41T50 204L116 600H278L213 210Q206 165 222 135T278 105Q318 105 347 133T397 209T426 312L474 600H636L562 156Q555 116 552 78T548 0H392Q394 20 397 45T405 90H381Q352 45 315 15T211 -15ZM175
660V666L321 840H531L595 666V660H467L427 765H403L315 660H175Z" />
<glyph unicode="&#xfc;" horiz-adv-x="660" d="M211 -15Q123 -15 78 41T50 204L116 600H278L213 210Q206 165 222 135T278 105Q318 105 347 133T397 209T426 312L474 600H636L562 156Q555 116 552 78T548 0H392Q394 20 397 45T405 90H381Q352 45 315 15T211 -15ZM294
673Q260 673 242 691T224 741Q224 780 246 803T308 827Q342 827 360 809T378 760Q378 721 356 697T294 673ZM501 673Q467 673 449 691T431 741Q431 780 453 803T515 827Q549 827 567 809T585 760Q585 721 563 697T501 673Z" />
<glyph unicode="&#xfd;" horiz-adv-x="580" d="M30 -200V-194Q66 -149 103 -94T165 15L58 600H214L253 359Q258 328 263 293T270 204H294Q310 258 324 296T351 360L462 600H620L384 114Q330 3 282 -78T204 -200H30ZM271 660V666L373 840H523V834L403 660H271Z" />
<glyph unicode="&#xfe;" horiz-adv-x="660" d="M-9 -200L157 800H319L263 522H287Q296 540 315 560T366 595T443 610Q528 610 580 549T632 373Q632 306 614 238T560 114T471 23T347 -12Q289 -12 258 10T211 60H187L153 -200H-9ZM300 102Q352 102 390 138T449 235T470
367Q470 432 446 461T385 490Q344 490 312 454T259 362T227 246L208 132Q226 119 249 111T300 102Z" />
<glyph unicode="&#xff;" horiz-adv-x="580" d="M30 -200V-194Q66 -149 103 -94T165 15L58 600H214L253 359Q258 328 263 293T270 204H294Q310 258 324 296T351 360L462 600H620L384 114Q330 3 282 -78T204 -200H30ZM508 673Q474 673 456 691T438 741Q438 780 460
803T522 827Q556 827 574 809T592 760Q592 721 570 697T508 673ZM715 673Q681 673 663 691T645 741Q645 780 667 803T729 827Q763 827 781 809T799 760Q799 721 777 697T715 673Z" />
<glyph unicode="&#x2013;" horiz-adv-x="720" d="M51 244L73 376H673L651 244H51Z" />
<glyph unicode="&#x2014;" horiz-adv-x="1080" d="M51 244L73 376H1033L1011 244H51Z" />
<glyph unicode="&#x2018;" horiz-adv-x="300" d="M181 443Q139 443 117 466T94 532Q94 565 105 601T134 673T170 736T200 779H332V773Q298 730 274 694T236 629Q255 623 270 605T286 549Q286 502 258 473T181 443Z" />
<glyph unicode="&#x2019;" horiz-adv-x="300" d="M73 450V456Q108 500 131 536T169 600Q150 606 135 624T119 680Q119 727 147 756T224 786Q266 786 288 763T311 697Q311 664 300 628T271 556T235 493T205 450H73Z" />
<glyph unicode="&#x201a;" horiz-adv-x="300" d="M-27 -150V-144Q8 -100 31 -64T69 0Q50 6 35 24T19 80Q19 127 47 156T124 186Q166 186 188 163T211 97Q211 64 200 28T171 -44T135 -107T105 -150H-27Z" />
<glyph unicode="&#x201c;" horiz-adv-x="570" d="M181 443Q139 443 117 466T94 532Q94 565 105 601T134 673T170 736T200 779H332V773Q298 730 274 694T236 629Q255 623 270 605T286 549Q286 502 258 473T181 443ZM451 443Q409 443 387 466T364 532Q364 565 375
601T404 673T440 736T470 779H602V773Q568 730 544 694T506 629Q525 623 540 605T556 549Q556 502 528 473T451 443Z" />
<glyph unicode="&#x201d;" horiz-adv-x="570" d="M73 450V456Q108 500 131 536T169 600Q150 606 135 624T119 680Q119 727 147 756T224 786Q266 786 288 763T311 697Q311 664 300 628T271 556T235 493T205 450H73ZM343 450V456Q378 500 401 536T439 600Q420 606
405 624T389 680Q389 727 417 756T494 786Q536 786 558 763T581 697Q581 664 570 628T541 556T505 493T475 450H343Z" />
<glyph unicode="&#x201e;" horiz-adv-x="570" d="M-27 -150V-144Q8 -100 31 -64T69 0Q50 6 35 24T19 80Q19 127 47 156T124 186Q166 186 188 163T211 97Q211 64 200 28T171 -44T135 -107T105 -150H-27ZM243 -150V-144Q278 -100 301 -64T339 0Q320 6 305 24T289
80Q289 127 317 156T394 186Q436 186 458 163T481 97Q481 64 470 28T441 -44T405 -107T375 -150H243Z" />
<glyph unicode="&#x2022;" horiz-adv-x="390" d="M185 160Q119 160 83 196T47 293Q47 369 91 414T210 460Q275 460 311 424T347 328Q347 254 304 207T185 160Z" />
<glyph unicode="&#x2039;" horiz-adv-x="450" d="M226 110L60 312L280 510H430V504L226 317V293L366 116V110H226Z" />
<glyph unicode="&#x203a;" horiz-adv-x="450" d="M24 110V116L228 303V327L88 504V510H228L394 308L174 110H24Z" />
</font>
</defs>
</svg>
