<?xml version="1.0" standalone="no"?>
<!DOCTYPE svg PUBLIC "-//W3C//DTD SVG 1.1//EN" "http://www.w3.org/Graphics/SVG/1.1/DTD/svg11.dtd">
<svg xmlns="http://www.w3.org/2000/svg">
<defs >
<font id="AndadaPro" horiz-adv-x="569" ><font-face
    font-family="Andada Pro SemiBold"
    units-per-em="1000"
    panose-1="0 0 0 0 0 0 0 0 0 0"
    ascent="942"
    descent="-235"
    alphabetic="0" />
<glyph unicode=" " horiz-adv-x="208" />
<glyph unicode="!" horiz-adv-x="324" d="M193 220L120 224L121 290L108 764L199 772L222 750Q220 712 217 662T210 558T205 455T201 367T200 312L203 229L193 220ZM164 -12Q133 -12 116 7T99 58Q99 89 116 108T164 128Q195 128 211 109T228 58Q228 27 212 8T164 -12Z" />
<glyph unicode="&quot;" horiz-adv-x="460" d="M336 463L267 466L268 560Q268 568 267 594T263 651T259 705H349L336 463ZM189 463L120 466L121 560Q121 568 120 594T116 651T112 705H202L189 463Z" />
<glyph unicode="#" horiz-adv-x="663" d="M403 -15L336 -5L427 572L494 562L403 -15ZM74 146V220L569 225V146H74ZM231 -15L164 -5L255 572L322 562L231 -15ZM94 333V412H589V338L94 333Z" />
<glyph unicode="$" horiz-adv-x="586" d="M285 -13Q219 -13 164 2T81 31L95 187L164 182L163 129Q162 123 165 111T172 86T181 61T186 46L140 97Q166 85 201 71T281 57Q327 57 357 80T387 150Q387 186 366 209T311 250T239 287T167 328T112 386T90 472Q90 526
116 564T189 623T294 643Q339 643 388 634T483 613L470 459L410 463L408 511Q408 517 404 530T395 561T385 592L438 539Q418 549 397 558T352 572T305 577Q265 577 237 555T209 491Q209 459 231 437T286 396T358 360T430 317T486 259T508 173Q508 113 478 71T398
8T285 -13ZM299 -154L247 -151L254 15H306L299 -154ZM277 616L284 788L335 785L328 616H277Z" />
<glyph unicode="%" horiz-adv-x="1019" d="M204 294Q146 294 110 323T58 400T42 504Q42 560 58 607T110 684T204 713Q262 713 297 684T349 607T366 504Q366 448 350 401T298 324T204 294ZM204 345Q232 345 246 369T265 430T270 504Q270 540 265 576T246 638T204
663Q176 663 162 638T142 577T136 504Q136 468 141 431T161 370T204 345ZM328 -49L270 -12L701 721L758 684L328 -49ZM816 -6Q758 -6 722 22T670 99T654 204Q654 260 670 307T722 384T816 413Q874 413 909 384T961 307T978 204Q978 148 962 100T910 23T816 -6ZM816
45Q844 45 858 69T877 130T882 204Q882 240 877 277T858 338T816 363Q788 363 774 338T754 277T748 204Q748 168 753 131T773 70T816 45Z" />
<glyph unicode="&amp;" horiz-adv-x="838" d="M583 0L575 26Q544 59 517 85T463 136T405 189T336 254T250 341Q204 388 183 433T162 517Q162 568 188 600T257 647T353 662Q381 662 413 657T472 644T514 631L501 486L443 489L445 534Q445 540 442 555T435 589T425
622L477 567Q447 580 417 590T358 601Q321 601 297 578T273 518Q273 487 286 458T327 400Q386 336 460 265T620 113L684 65L754 60L747 0H583ZM324 -10Q260 -10 208 12T124 78T93 185Q93 260 137 311T259 399L293 344Q243 312 224 274T204 195Q204 155 221 126T268
79T336 62Q407 62 453 91T523 170T546 280Q546 289 545 302T542 326T538 344H629Q629 339 628 331T625 308T623 267Q620 186 583 124T480 26T324 -10ZM546 335L469 347L474 404Q502 403 529 401T579 399Q608 399 639 400T698 404L702 341L625 335H546Z" />
<glyph unicode="&apos;" horiz-adv-x="313" d="M189 463L120 466L121 560Q121 568 120 594T116 651T112 705H202L189 463Z" />
<glyph unicode="(" horiz-adv-x="422" d="M308 -104Q200 -5 151 110T101 358Q101 492 151 607T308 820L337 796Q295 733 267 661T224 513T210 358Q210 282 224 206T266 57T337 -80L308 -104Z" />
<glyph unicode=")" horiz-adv-x="422" d="M114 819Q222 720 271 605T321 357Q321 223 271 108T114 -105L85 -81Q127 -18 155 54T197 203T212 357Q212 434 198 510T156 658T85 795L114 819Z" />
<glyph unicode="*" horiz-adv-x="494" d="M165 429L105 474L225 608L269 575L165 429ZM249 558L74 605L96 678L264 610L249 558ZM330 426L227 571L270 607L388 475L330 426ZM217 580L204 757L280 761L273 582L217 580ZM247 559L230 611L395 678L422 607L247 559Z" />
<glyph unicode="+" horiz-adv-x="696" d="M90 213V299H605V218L90 213ZM305 0V511H386L391 0H305Z" />
<glyph unicode="," horiz-adv-x="329" d="M98 -150L87 -114Q129 -96 149 -61T160 18L204 -3Q171 -14 149 -7T115 20T104 65Q104 98 121 118T170 139Q209 139 223 111T238 45Q238 5 223 -36T176 -108T98 -150Z" />
<glyph unicode="-" horiz-adv-x="369" d="M76 217L74 292H296L291 217H76Z" />
<glyph unicode="." horiz-adv-x="338" d="M169 -12Q136 -12 118 9T100 63Q100 96 118 117T169 138Q202 138 220 118T238 63Q238 30 221 9T169 -12Z" />
<glyph unicode="/" horiz-adv-x="417" d="M91 -66L17 -43L326 773L399 749L91 -66Z" />
<glyph unicode="0" horiz-adv-x="661" d="M331 -10Q264 -10 217 17T141 90T98 198T84 326Q84 394 97 454T140 561T217 635T331 662Q397 662 444 635T521 562T564 455T578 326Q578 259 565 198T521 91T444 17T331 -10ZM331 59Q370 59 394 83T432 146T451 233T456
326Q456 372 451 419T433 506T395 570T331 594Q291 594 267 570T229 507T211 420T205 326Q205 280 210 233T229 147T266 83T331 59Z" />
<glyph unicode="1" horiz-adv-x="509" d="M81 -5L76 52L264 73L212 21Q216 42 219 67T225 114T228 146V555L270 529L94 458L64 507L274 672L340 660Q339 621 337 574T334 486T333 426V176Q333 154 335 128T340 75T346 21L296 70L451 60L445 0H262Q255 0 233 0T182
-2T126 -3T81 -5Z" />
<glyph unicode="2" horiz-adv-x="606" d="M496 -3L380 0H86L72 82Q151 158 205 213T293 308T345 377T371 431T378 483Q378 532 349 561T272 591Q239 591 210 581T146 545L186 610Q182 595 178 576T170 541T167 519L168 474L105 471L94 626Q145 646 189 654T285
662Q385 662 440 619T496 497Q496 452 481 410T427 320T322 206T151 51L150 89H359Q371 89 393 91T442 97T490 103L429 54Q437 76 445 96T459 138L465 182L528 177L519 17L496 -3Z" />
<glyph unicode="3" horiz-adv-x="545" d="M75 -105L56 -44Q145 -31 210 -1T312 73T349 165Q349 220 316 251T225 282Q206 282 188 281T158 279L144 336Q236 348 281 386T326 488Q326 541 301 568T228 596Q197 596 174 588T126 562L162 623Q158 608 154 589T146
553T143 531L144 484L80 480L67 633Q112 648 151 655T233 662Q334 662 387 620T441 495Q441 435 402 389T290 320L289 340Q344 334 384 311T446 251T469 170Q469 118 441 72T359 -11T234 -72T75 -105Z" />
<glyph unicode="4" horiz-adv-x="618" d="M111 194L56 261L414 739L494 676Q469 650 440 620T390 565T362 532L148 223L128 260L367 262V194H111ZM244 -5L239 52L390 73L337 21Q342 52 347 87T353 146V389L452 423V165Q452 136 456 97T464 21L413 70L544 60L538
0H378Q365 0 342 -1T292 -3T244 -5ZM436 194V268L545 275V194H436Z" />
<glyph unicode="5" horiz-adv-x="546" d="M94 -105L75 -45Q159 -30 220 -4T317 64T352 165Q352 226 318 258T216 291Q198 291 176 289T122 278L82 311L102 634L121 652H196L439 662L445 574L254 554H180L167 322L139 356Q163 362 190 366T244 371Q349 371 408
322T468 180Q468 99 422 40T291 -55T94 -105Z" />
<glyph unicode="6" horiz-adv-x="616" d="M317 -11Q241 -11 188 21T107 112T79 246Q79 325 105 405T186 555T321 676T512 747L526 691Q432 662 369 614T267 504T212 376T195 246Q195 202 207 159T246 88T317 59Q354 59 378 79T414 133T427 203Q427 240 416 271T381
321T320 340Q307 340 294 339T266 336L260 392Q280 399 300 403T340 407Q436 407 490 353T545 203Q545 140 514 92T432 17T317 -11Z" />
<glyph unicode="7" horiz-adv-x="582" d="M223 -105L128 -74L346 407Q351 417 357 439T372 490T388 547T402 602L436 558H227Q217 558 196 557T151 553T107 549L171 596Q166 582 158 565T145 535T138 516L132 468L69 471L78 641L97 661Q118 659 143 657T189 654T218
652H503L519 602L223 -105Z" />
<glyph unicode="8" horiz-adv-x="609" d="M304 -10Q245 -10 194 9T110 66T77 164Q77 207 99 241T154 303T225 351T292 386L342 346Q298 325 263 297T208 235T188 164Q188 112 220 81T305 50Q338 50 364 63T405 102T420 161Q420 198 400 224T348 270T279 310Q235
333 194 359T126 424T99 521Q99 573 128 608T205 663T305 682Q357 682 403 663T480 608T510 519Q510 478 487 440T422 370T329 312L282 344Q316 365 343 392T386 452T402 519Q402 564 375 593T305 623Q278 623 256 610T220 573T206 522Q206 485 226 459T280 413T351
372Q395 349 436 322T504 258T532 163Q532 105 500 67T416 9T304 -10Z" />
<glyph unicode="9" horiz-adv-x="617" d="M110 -106L93 -46Q190 -17 253 32T353 144T403 272T418 403Q418 449 405 493T366 565T296 593Q258 593 235 572T200 518T188 447Q188 410 201 379T240 330T298 311Q312 311 324 311T350 314L356 258Q342 252 323 248T281
244Q219 244 171 268T97 338T70 447Q70 509 100 557T182 634T297 662Q376 662 429 629T509 537T537 403Q537 322 512 242T435 90T302 -32T110 -106Z" />
<glyph unicode=":" horiz-adv-x="297" d="M148 338Q117 338 101 357T84 407Q84 438 100 458T148 478Q179 478 195 459T212 407Q212 376 196 357T148 338ZM148 -12Q117 -12 101 7T84 57Q84 88 100 108T148 128Q179 128 195 110T212 58Q212 27 196 8T148 -12Z" />
<glyph unicode=";" horiz-adv-x="310" d="M87 -151L77 -115Q118 -97 139 -62T150 17L193 -4Q160 -15 138 -8T104 19T93 64Q93 97 110 117T160 138Q198 138 212 110T227 44Q227 4 212 -37T165 -109T87 -151ZM158 335Q127 335 111 354T95 403Q95 434 111 454T158
474Q189 474 206 456T223 403Q223 373 207 354T158 335Z" />
<glyph unicode="&lt;" horiz-adv-x="528" d="M381 -15L80 248L380 513L437 452L163 219V278L438 46L381 -15Z" />
<glyph unicode="=" horiz-adv-x="719" d="M132 300V383H587V305L132 300ZM132 112V192L587 195V114L132 112Z" />
<glyph unicode="&gt;" horiz-adv-x="528" d="M147 -15L90 45L365 278V218L91 452L148 513L448 247L147 -15Z" />
<glyph unicode="?" horiz-adv-x="501" d="M200 220L117 223V392L145 420Q157 419 173 418T198 416Q263 416 294 458T326 561Q326 626 294 664T201 703Q156 703 99 680L167 732Q166 715 163 695T157 658T154 632L156 596L94 593L85 744Q123 755 157 761T223 767Q318
767 376 715T434 566Q434 498 403 448T313 374T171 356L205 400L210 229L200 220ZM156 -12Q125 -12 109 7T92 58Q92 89 108 108T156 128Q187 128 204 109T221 58Q221 27 204 8T156 -12Z" />
<glyph unicode="@" horiz-adv-x="1048" d="M537 -213Q434 -213 359 -187T234 -116T155 -14T113 106T100 232Q100 313 123 390T198 530T331 630T532 667Q660 667 755 622T902 492T954 287Q954 238 937 189T885 100T800 32T684 0L738 53Q772 61 795 85T833 143T854
215T861 287Q861 383 822 456T709 570T532 611Q447 611 389 585T293 515T236 420T209 320T202 232Q202 124 235 39T341 -95T537 -144Q553 -144 586 -138T659 -121T729 -103L745 -137Q712 -153 671 -171T593 -201T537 -213ZM483 -10Q416 -10 377 26T337 123Q337
236 470 258L638 285V230L505 205Q476 201 461 184T446 140Q446 105 463 87T513 68Q555 68 586 95T624 163V315Q624 377 603 406T537 436Q518 436 495 432T452 420T419 407L458 461L443 375L444 335L380 332L367 478Q412 489 458 496T546 503Q638 503 682 455T726
302V176Q726 128 731 92T741 35L684 0H647L628 122L647 106Q636 71 612 45T554 4T483 -10Z" />
<glyph unicode="A" horiz-adv-x="744" d="M49 -5L44 49L147 74L86 35Q98 57 109 77T129 118T146 160L326 705L400 715L604 144Q613 117 625 92T649 44L591 77L699 59L694 0H598Q586 0 558 -1T498 -3T438 -5L435 49L550 79L511 27Q505 71 499 101T482 161L342 585H369L223
124Q217 103 215 81T211 34L168 73L282 59L277 0H185Q173 0 149 -1T98 -3T49 -5ZM225 211V273H498V211H225Z" />
<glyph unicode="B" horiz-adv-x="643" d="M60 -5L55 51L174 74L126 29Q128 42 131 64T137 109T140 144V561Q140 571 138 587T134 620T129 651T126 669L164 633L57 651L62 710Q80 709 103 708T147 706T178 705Q203 705 233 706T294 709T350 710Q404 710 449 690T521
633T549 543Q549 494 527 456T467 394T380 365L410 413V320L377 367Q436 364 481 342T553 281T580 185Q580 126 552 83T475 18T367 -4Q330 -4 284 -2T199 0Q186 0 162 -1T110 -3T60 -5ZM258 31L230 67Q250 65 277 63T335 60Q393 60 429 95T465 194Q465 243 444
273T386 318T307 332H296L303 398H310Q368 398 405 432T442 529Q442 583 412 616T328 649Q302 649 276 649T228 647L257 672Q257 665 255 641T250 588T247 531V174Q247 149 249 120T254 66T258 31Z" />
<glyph unicode="C" horiz-adv-x="685" d="M395 -15Q288 -15 216 31T107 160T70 352Q70 461 106 544T215 673T395 720Q458 720 507 710T605 686L594 530L531 534L530 584Q530 594 522 618T508 662L546 623Q511 636 471 644T395 653Q326 653 281 613T215 505T193
353Q193 269 214 201T280 93T394 52Q431 52 473 60T556 81L515 41Q521 55 527 72T537 104T542 126L544 173L607 175L614 19Q566 7 512 -4T395 -15Z" />
<glyph unicode="D" horiz-adv-x="768" d="M60 -5L55 51L174 74L125 26Q127 41 130 64T137 110T140 144V561Q140 574 137 596T131 641T126 675L174 631L57 651L62 710Q80 709 102 708T146 706T178 705Q208 705 236 706T293 709T354 710Q466 710 543 666T660 541T700
352Q700 247 660 167T541 41T354 -4Q317 -4 277 -2T199 0Q186 0 162 -1T111 -3T60 -5ZM256 36L233 64Q252 64 283 63T350 61Q431 61 482 100T558 206T583 353Q583 432 559 498T483 604T351 644Q315 644 283 644T235 643L258 675Q257 670 255 654T251 617T248 572T247
531V174Q247 146 249 118T253 68T256 36Z" />
<glyph unicode="E" horiz-adv-x="635" d="M60 -5L55 51L174 74L125 29Q127 40 130 63T137 109T140 144V561Q140 571 138 591T132 634T125 677L174 631L57 651L62 710Q80 709 103 708T147 706T178 705H409Q418 705 438 705T481 707T523 710L542 692L549 556L488
551L478 603Q477 612 465 633T442 669L484 636Q467 638 438 640T380 642H212L257 668Q255 645 253 618T249 568T247 531V174Q247 151 249 122T254 67T259 27L218 65H393Q424 65 453 70T494 78L455 43Q469 60 482 80T498 112L512 177L571 172L556 14L537 -4Q518
-3 496 -2T454 -1T423 0H199Q186 0 162 0T111 -2T60 -5ZM420 261L406 363L447 323Q434 325 413 327T371 331T335 333H212V395H355Q374 395 400 399T437 406L406 365L420 470L469 465V381Q469 324 472 267L420 261Z" />
<glyph unicode="F" horiz-adv-x="603" d="M60 -5L55 51L174 74L124 25Q127 43 131 66T137 111T140 144V561Q140 574 138 594T132 636T125 672L174 631L57 651L62 710Q80 709 103 708T147 706T178 705H409Q419 705 441 706T488 708T523 710L542 692L549 556L488
551Q487 563 484 578T477 606Q476 614 465 630T444 660L481 636Q468 637 438 639T379 642H212L257 670Q257 666 255 642T250 586T247 531V174Q247 148 249 119T255 65T261 27L212 69L354 59L347 0H199Q188 0 165 -1T114 -3T60 -5ZM420 252L407 347L445 315Q435
316 414 318T371 321T335 323H206V386H355Q374 386 399 391T438 401L407 364L420 461L469 456V372Q469 345 470 312T472 258L420 252Z" />
<glyph unicode="G" horiz-adv-x="733" d="M411 -15Q299 -15 223 31T108 160T69 352Q69 461 107 544T222 673T411 720Q476 720 530 709T634 686L623 530L559 534L558 584Q558 593 552 616T540 660L572 624Q538 636 493 644T409 653Q335 653 286 613T214 505T190
353Q190 269 214 201T286 93T409 52Q444 52 486 58T566 76L530 35Q535 58 542 87T549 128V196Q549 211 547 230T541 269T536 299L582 261L433 273L438 341H549Q560 341 585 342T631 344L652 325Q650 300 648 272T645 219T643 174V19Q592 7 535 -4T411 -15Z" />
<glyph unicode="H" horiz-adv-x="818" d="M485 -5L480 51L599 74L549 27Q552 42 556 64T562 109T564 144V561Q564 573 562 595T556 639T550 672L599 631L482 651L487 710Q506 709 528 708T571 706T603 705Q632 705 669 706T750 710L754 646L637 635L683 672Q681
648 677 610T673 531V174Q673 148 674 119T679 66T685 27L637 69L763 59L757 0H624Q597 0 562 -1T485 -5ZM60 -5L55 51L174 74L125 27Q127 39 130 62T137 108T140 144V561Q140 574 138 595T132 638T125 673L174 631L57 651L62 710Q80 709 103 708T147 706T178 705Q208
705 244 706T326 710L330 646L212 635L260 674Q258 661 255 637T250 585T247 531V174Q247 147 249 118T255 65T261 27L212 69L339 59L332 0H199Q172 0 137 -1T60 -5ZM192 320V381L619 386V320H192Z" />
<glyph unicode="I" horiz-adv-x="394" d="M60 -5L55 51L174 74L125 27Q127 39 130 62T137 108T140 144V561Q140 574 138 595T132 638T125 673L174 631L57 651L62 710Q80 709 103 708T147 706T178 705Q215 705 252 706T326 710L330 646L212 635L260 674Q258 661
255 637T250 585T247 531V174Q247 147 249 118T255 65T261 27L212 69L339 59L332 0H199Q164 0 130 -1T60 -5Z" />
<glyph unicode="J" horiz-adv-x="364" d="M88 -200L49 -176Q61 -149 75 -119T101 -61T120 -15T128 11V561Q128 574 125 596T119 641T113 674L162 631L45 651L50 710Q68 709 91 708T135 706T166 705Q198 705 229 706T283 709T314 710L318 646L200 635L247 674Q245
661 243 637T238 585T235 531V-5Q235 -16 221 -38T185 -88T137 -146T88 -200Z" />
<glyph unicode="K" horiz-adv-x="757" d="M435 -5L430 51L527 72L502 35Q498 42 487 60T461 100T435 139T417 164L257 351L431 577L493 679L512 633L421 651L426 710Q451 709 482 707T530 705Q557 705 591 706T667 710L671 646L557 635L615 653Q606 644 590 629T555
597T523 565T505 546L348 336L349 399L583 129Q588 123 602 110T634 82T667 54T689 35L611 71L718 59L712 0H580Q567 0 542 -1T489 -3T435 -5ZM60 -5L55 51L174 74L125 27Q127 39 130 62T137 108T140 144V561Q140 574 138 595T132 638T125 673L174 631L57 651L62
710Q80 709 103 708T147 706T178 705Q208 705 244 706T326 710L330 646L212 635L260 674Q258 661 255 637T250 585T247 531V174Q247 147 249 118T255 65T261 27L212 69L339 59L332 0H199Q172 0 137 -1T60 -5Z" />
<glyph unicode="L" horiz-adv-x="599" d="M60 -5L55 51L174 74L125 27Q127 39 130 62T137 108T140 144V561Q140 574 138 595T132 638T125 673L174 631L57 651L62 710Q80 709 103 708T147 706T178 705Q203 705 228 706T275 707T314 709T336 710L340 646L212 635L260
674Q258 661 255 637T250 585T247 531V174Q247 147 249 118T255 65T261 27L218 65H367Q398 65 427 70T468 78L429 43Q444 62 457 82T472 112L486 177L545 172L530 14L511 -4Q488 -3 465 -2T424 -1T397 0H199Q188 0 165 -1T114 -3T60 -5Z" />
<glyph unicode="M" horiz-adv-x="986" d="M54 -5L49 51L168 74L114 26Q116 34 120 49T129 83T137 118T141 144L166 562Q167 575 166 596T163 639T159 673L205 632L85 651L90 710Q108 709 131 708T174 706T206 705H297L317 684Q326 658 336 626T354 567T366 531L507
147H477L621 540Q625 549 633 573T652 628T671 685L691 705H735Q771 705 811 707T885 710L889 646L770 635L814 665Q813 633 812 594T812 531L840 174Q841 163 844 143T852 100T860 57T867 26L815 69L936 59L930 0H798Q785 0 762 -1T712 -3T662 -5L657 51L774 74L725
26Q727 36 730 59T735 106T736 144L709 610L726 607L501 0H450L227 607L244 610L220 174Q219 160 219 139T221 94T225 53T228 26L181 69L302 59L295 0H174Q165 0 144 -1T99 -3T54 -5Z" />
<glyph unicode="N" horiz-adv-x="813" d="M61 -5L56 51L174 74L126 34Q128 45 131 67T137 110T140 144V561Q140 573 137 596T131 641T127 671L174 632L55 651L60 710Q78 709 101 708T144 706T175 705H232L251 685Q268 657 288 625T324 566T346 532L622 149L597
141V561Q597 573 594 596T587 644T581 679L631 631L513 651L518 710Q534 709 555 708T595 706T624 705Q671 705 704 707T764 710L768 646L650 635L700 675Q698 663 693 639T684 587T679 531V0H599L198 563L223 571V174Q223 148 225 120T230 68T235 29L188 69L308
59L301 0H183Q173 0 152 -1T106 -3T61 -5Z" />
<glyph unicode="O" horiz-adv-x="809" d="M405 -15Q297 -15 222 31T108 160T69 352Q69 462 108 544T222 673T405 720Q513 720 587 674T701 545T740 352Q740 243 701 161T588 32T405 -15ZM405 50Q476 50 522 89T591 196T614 352Q614 441 591 509T522 616T405 655Q334
655 287 616T218 509T195 352Q195 264 217 196T287 89T405 50Z" />
<glyph unicode="P" horiz-adv-x="638" d="M60 -5L55 51L174 74L125 27Q127 39 130 62T137 108T140 144V561Q140 574 138 595T132 638T125 673L174 631L57 651L62 710Q80 709 103 708T147 706T178 705L258 674Q257 661 255 637T250 585T247 531V174Q247 147 249
118T255 65T261 27L212 69L349 59L342 0H199Q186 0 162 -1T111 -3T60 -5ZM328 286Q293 286 257 287T167 289V354Q201 351 235 348T303 344Q378 344 423 383T469 500Q469 575 426 613T308 651Q290 651 267 650T221 648T178 644V705Q219 705 266 707T354 710Q458
710 519 657T581 500Q581 432 546 384T453 311T328 286Z" />
<glyph unicode="Q" horiz-adv-x="808" d="M404 -15Q296 -15 221 31T107 160T68 352Q68 462 107 544T221 673T404 720Q513 720 587 674T700 545T739 352Q739 243 701 161T588 32T404 -15ZM700 -224L404 8L493 27L609 -53Q615 -56 641 -68T702 -95T767 -123L700
-224ZM404 50Q475 50 521 89T590 196T613 352Q613 441 591 509T522 616T404 655Q333 655 287 616T217 509T194 352Q194 264 217 196T286 89T404 50Z" />
<glyph unicode="R" horiz-adv-x="700" d="M60 -5L55 51L174 74L125 27Q127 39 130 62T137 108T140 144V561Q140 574 138 595T132 638T125 673L174 631L57 651L62 710Q80 709 103 708T147 706T178 705L258 674Q257 661 255 637T250 585T247 531V174Q247 147 249
118T255 65T261 27L212 69L336 59L330 0H199Q186 0 162 -1T111 -3T60 -5ZM481 0Q473 20 462 44T441 88T427 116L307 345L421 349Q447 296 474 248T520 168T543 131Q550 120 564 100T589 65L654 59L647 0H481ZM324 295Q285 295 245 297T165 302V363Q200 360 235
357T304 354Q379 354 421 391T464 505Q464 576 424 613T308 651Q293 651 270 650T222 647T178 641V705Q219 705 265 707T352 710Q421 710 471 687T548 618T576 507Q576 441 542 393T450 320T324 295Z" />
<glyph unicode="S" horiz-adv-x="603" d="M294 -15Q220 -15 160 2T70 36L85 201L156 195V142Q156 137 159 124T165 96T172 69T178 52L139 95Q167 81 206 68T292 55Q347 55 381 84T416 169Q416 209 392 236T329 285T249 326T168 374T106 438T81 531Q81 592 110
634T190 698T303 720Q353 720 407 710T510 687L496 525L432 531L431 579Q431 585 428 600T419 633T408 666L456 616Q418 635 384 645T309 655Q263 655 231 629T199 552Q199 514 223 488T286 441T368 399T449 351T512 284T537 188Q537 121 505 76T417 8T294 -15Z"
/>
<glyph unicode="T" horiz-adv-x="695" d="M201 -5L196 51L328 74L279 27Q282 39 285 62T291 108T294 144V561Q294 574 291 595T285 639T279 673L414 674Q412 661 409 638T404 587T402 531V174Q402 148 404 119T409 66T414 27L366 69L505 59L499 0H353Q341 0 315
-1T258 -3T201 -5ZM117 519L55 524L62 692L82 710Q101 709 124 708T167 706T196 705H499Q508 705 528 706T572 708T613 710L632 692L640 524L579 519Q578 531 576 547T571 579T566 601L532 677L582 636Q567 638 534 640T471 642H226Q206 642 183 641T142 638T114
636L161 678L130 601Q127 589 123 563T117 519Z" />
<glyph unicode="U" horiz-adv-x="791" d="M395 -15Q263 -15 196 62T129 267V558Q129 570 126 594T120 643T114 680L163 632L45 651L50 710Q68 709 91 708T135 706T166 705Q193 705 223 706T279 708T320 710L324 646L205 635L252 680Q250 664 248 638T243 582T241
528V264Q241 207 259 161T314 89T406 62Q464 62 501 88T556 159T574 264V558Q574 567 572 583T567 619T562 655T558 680L610 631L490 651L495 710Q522 709 553 707T601 705Q641 705 677 707T741 710L745 646L627 635L674 680Q672 665 669 639T664 584T662 528V267Q662
139 595 62T395 -15Z" />
<glyph unicode="V" horiz-adv-x="768" d="M356 0L145 554Q137 576 126 597T104 637T88 662L147 627L45 651L50 710Q68 709 90 708T132 706T163 705Q199 705 239 706T318 710L322 646L197 631L235 668Q236 654 241 629T254 577T270 528L418 123H389L542 569Q547
582 550 601T556 640T559 669L592 630L473 651L478 710Q506 708 534 707T576 705Q609 705 645 706T718 710L722 646L626 635L685 666Q679 657 668 637T644 591T620 537L431 0H356Z" />
<glyph unicode="W" horiz-adv-x="1094" d="M322 0L141 552Q135 574 126 593T106 631T86 669L147 627L45 651L50 710Q68 709 90 708T132 706T163 705Q187 705 214 706T267 708T314 710L318 646L197 631L236 666Q238 651 241 629T251 581T265 528L381 122H358L521
683H590L761 122H737L863 569Q867 585 870 604T876 641T878 668L918 629L802 651L807 710Q833 708 859 707T902 705Q925 705 951 706T1001 708T1044 710L1048 646L944 635L1007 671Q998 657 985 635T960 586T940 537L776 0H701L532 526H556L397 0H322Z" />
<glyph unicode="X" horiz-adv-x="796" d="M57 -5L53 49L155 74L100 51Q105 57 119 71T150 102T182 136T204 164L358 388V317L188 558Q179 571 164 590T135 628T114 654L171 628L65 651L70 710Q90 709 112 708T155 706T187 705Q218 705 260 707T341 710L346 646L232
631L269 655Q272 648 280 629T298 588T316 555L426 398H379L491 578Q500 593 512 618T535 666L565 629L456 651L461 710Q487 709 516 707T562 705Q592 705 633 707T714 710L718 646L607 634L677 662Q668 654 653 641T622 614T593 587T576 569L423 334V406L618 132Q625
122 638 107T666 76T695 47L632 75L744 59L739 0H631Q614 0 587 -1T528 -3T470 -5L466 49L567 75L535 42Q530 55 521 73T501 110T481 142L353 324H401L272 132Q265 122 257 106T241 72T227 43L195 73L304 59L299 0H200Q187 0 162 -1T109 -3T57 -5Z" />
<glyph unicode="Y" horiz-adv-x="746" d="M336 230L161 561Q144 594 123 622T93 662L151 628L45 651L50 710Q69 709 91 708T134 706T166 705Q207 705 249 707T316 710L320 646L207 631L242 665Q243 650 251 619T284 544L405 312H367L500 581Q506 595 513 613T527
648T535 673L562 629L454 651L459 710Q483 709 509 707T552 705Q592 705 633 707T696 710L701 646L591 634L657 662Q646 651 622 620T573 545L411 230H336ZM243 -5L238 51L356 74L307 27Q310 39 313 62T319 108T322 144V316H430V174Q430 148 432 119T437 66T443
27L394 69L521 59L515 0H382Q374 0 350 -1T297 -3T243 -5Z" />
<glyph unicode="Z" horiz-adv-x="643" d="M545 -4Q517 -2 487 -1T430 0H72L64 63Q83 88 104 119T146 178T176 224L362 519Q385 554 405 595T445 674L470 638H252Q232 638 208 637T165 634T138 632L185 672L151 601Q149 596 147 581T142 549T138 519L76 524L83
697L102 715Q123 713 140 711T176 708T217 705H560L568 643Q541 604 513 564T461 486L278 197Q268 180 253 152T221 92T189 33L165 67H399Q419 67 444 70T493 76T528 81L459 34Q468 47 478 63T496 94T506 114Q508 120 511 133T516 161T521 186L579 181L564 14L545
-4Z" />
<glyph unicode="[" horiz-adv-x="434" d="M346 -107L156 -103L135 -80Q138 -47 139 -6T142 71T143 120V604Q143 617 142 652T140 728T135 802L156 825L346 829L349 779L197 761L244 811Q240 787 236 755T229 696T226 656V66Q226 53 228 29T235 -27T244 -88L197
-39L349 -56L346 -107Z" />
<glyph unicode="\" horiz-adv-x="417" d="M324 -66L17 749L90 773L400 -43L324 -66Z" />
<glyph unicode="]" horiz-adv-x="434" d="M88 829L278 825L299 802Q297 770 295 728T292 651T291 602V118Q291 105 292 70T295 -6T299 -80L278 -103L88 -107L85 -57L237 -39L190 -89Q195 -64 198 -33T205 26T208 66V656Q208 669 206 694T199 750T190 810L237 761L85
778L88 829Z" />
<glyph unicode="^" horiz-adv-x="730" d="M162 108L83 135L365 714L647 135L569 108L346 585H384L162 108Z" />
<glyph unicode="_" horiz-adv-x="654" d="M77 -232L75 -150H579L574 -232H77Z" />
<glyph unicode="`" horiz-adv-x="278" d="M463 542L285 695L343 747L505 578L463 542Z" />
<glyph unicode="a" horiz-adv-x="531" d="M191 -10Q123 -10 84 26T45 123Q45 176 77 211T178 258L346 285V230L213 205Q183 201 169 184T154 140Q154 105 171 87T220 68Q262 68 293 95T332 163V317Q332 379 311 408T244 438Q225 438 202 434T158 423T126 409L162
463L148 377L149 335L84 332L72 480Q102 488 133 493T195 502T253 505Q346 505 389 457T433 304V176Q433 128 438 92T448 35L401 71L509 60L503 0H354L336 122L358 117Q351 83 328 54T269 7T191 -10Z" />
<glyph unicode="b" horiz-adv-x="561" d="M278 -10Q221 -10 169 0T70 26Q72 47 74 72T77 118T78 146V605Q78 616 76 635T70 676T64 711L113 675L-7 702L-1 760L100 756H168L188 738Q187 714 185 683T181 623T180 575V384L165 408Q179 433 199 455T250 491T320
505Q388 505 431 472T494 383T515 256Q515 181 488 121T407 25T278 -10ZM189 46L159 80Q183 73 211 67T270 60Q321 60 349 86T388 155T400 250Q400 296 391 336T359 401T291 426Q253 426 229 404T193 347T181 271V176Q181 151 182 124T185 77T189 46Z" />
<glyph unicode="c" horiz-adv-x="495" d="M282 -12Q204 -12 151 19T72 109T45 247Q45 325 72 383T152 473T281 505Q325 505 362 496T445 474L433 331L366 334V376Q366 389 362 408T350 445L393 399Q368 415 340 428T284 441Q241 441 214 415T175 346T162 247Q162
195 175 154T218 89T293 64Q328 64 360 73T425 99L455 48Q415 18 371 3T282 -12Z" />
<glyph unicode="d" horiz-adv-x="581" d="M244 -10Q152 -10 100 57T47 246Q47 367 106 436T271 505Q292 505 310 503T351 496T400 481L398 395Q365 416 337 424T281 433Q223 433 192 386T161 249Q161 163 189 117T267 71Q320 71 349 108T381 215V606Q381 620 378
642T372 686T366 715L415 677L287 702L294 760L402 756H471L490 738Q489 714 487 683T484 623T483 576V175Q483 131 488 92T498 32L447 71L558 60L552 0H403L385 123L404 107Q396 82 380 61T342 24T294 -1T244 -10Z" />
<glyph unicode="e" horiz-adv-x="513" d="M280 -12Q205 -12 153 20T73 110T45 245Q45 324 71 382T148 472T271 505Q341 505 385 476T449 393T468 267L450 232H144V289L400 306L351 258Q352 274 353 289T355 321Q355 376 333 410T265 444Q234 444 213 428T181 384T166
322T161 252Q161 212 168 178T192 118T233 78T293 63Q337 63 375 76T434 102L463 52Q457 46 442 36T404 15T350 -4T280 -12Z" />
<glyph unicode="f" horiz-adv-x="374" d="M40 -5L35 52L149 75L98 29Q100 40 103 62T110 109T114 146V452L128 433H44L41 483L128 496L114 473V591Q114 644 135 684T195 747T291 770Q312 770 330 768T368 761L353 613L300 616L301 655Q301 663 297 686T288 729L332
702Q327 702 317 703T297 705T280 707Q249 707 234 690T214 643T211 571T216 480L201 494H346L339 433H201L216 460V176Q216 132 220 91T227 29L177 71L317 60L311 0H150Q143 0 124 -1T82 -3T40 -5Z" />
<glyph unicode="g" horiz-adv-x="528" d="M231 -235Q26 -235 26 -91Q26 -75 56 -45T132 15L175 4Q157 -17 147 -31T132 -57T128 -78Q128 -124 161 -147T265 -170Q321 -170 356 -146T392 -81Q392 -61 384 -52T355 -40L225 -22Q200 -18 181 -14T131 0Q98 12 84 33T69
86Q69 106 151 179L192 165Q172 145 164 132T155 113Q155 98 174 91T245 77Q292 72 330 67T397 58T443 47Q490 30 490 -43Q490 -96 455 -139T362 -209T231 -235ZM246 143Q187 143 142 165T72 227T46 324Q46 379 71 419T142 482T247 505Q306 505 351 483T421 420T446
325Q446 270 421 229T351 166T246 143ZM246 199Q336 199 336 326Q336 449 247 449Q156 449 156 323Q156 199 246 199ZM495 432L398 433L330 476L488 505L495 432Z" />
<glyph unicode="h" horiz-adv-x="621" d="M26 -5L21 52L139 75L87 29Q90 40 93 62T100 109T103 146V605Q103 619 100 642T94 691T87 733L138 675L18 702L24 760L125 756H193L213 738Q212 720 210 691T207 631T205 575V384L190 406Q211 445 249 474T346 503Q411
503 448 478T501 405T517 293V176Q517 133 521 94T529 35L480 71L599 60L593 0H458Q451 0 432 -1T391 -3T350 -5L345 52L452 76L403 39Q406 52 408 72T413 112T416 146V289Q416 325 408 357T380 408T323 428Q272 428 239 385T205 271V176Q205 132 209 91T217 29L167
71L286 60L280 0H140Q132 0 112 -1T69 -3T26 -5Z" />
<glyph unicode="i" horiz-adv-x="326" d="M44 -5L39 52L157 75L105 29Q108 40 111 62T118 109T121 146V343Q121 357 119 380T112 429T105 471L156 413L36 433L42 494H211L231 476Q230 458 228 429T225 369T224 313V176Q224 132 228 91T235 29L185 71L304 60L298
0H158Q150 0 130 -1T87 -3T44 -5ZM153 585Q124 585 108 604T92 652Q92 682 108 701T153 720Q183 720 199 703T215 652Q215 622 199 604T153 585Z" />
<glyph unicode="j" horiz-adv-x="289" d="M71 -235L31 -213Q43 -181 56 -146T81 -76T100 -16T107 21Q107 36 107 63T107 117V343Q107 357 104 380T97 429T90 471L142 413L21 433L28 494H197L217 476Q215 458 213 429T210 369T208 313V-10Q208 -21 195 -46T162
-103T117 -170T71 -235ZM142 585Q113 585 97 604T81 652Q81 682 97 701T142 720Q172 720 188 703T204 652Q204 622 188 604T142 585Z" />
<glyph unicode="k" horiz-adv-x="619" d="M26 -5L21 52L139 75L87 29Q90 40 93 62T100 109T103 146V605Q103 619 100 642T94 691T87 733L138 675L18 702L24 760L125 756H193L213 738Q212 720 210 691T207 631T205 575V176Q205 132 209 91T217 29L167 71L286 60L280
0H140Q132 0 112 -1T69 -3T26 -5ZM348 -4L345 52L381 62L340 114L216 265L397 466L413 425L321 433L326 494Q344 494 365 494T406 494T437 494H561L562 436L449 425L518 442Q502 435 479 422T434 393T402 366L296 244L298 315L441 141Q445 135 458 123T488 97T522
69T552 45L482 70L589 60L583 0H459Q441 0 411 -1T348 -4Z" />
<glyph unicode="l" horiz-adv-x="308" d="M26 -5L21 52L139 75L87 29Q90 40 93 62T100 109T103 146V605Q103 619 100 642T94 691T87 733L138 675L18 702L24 760L125 756H193L213 738Q212 720 210 691T207 631T205 575V176Q205 131 209 91T217 29L167 71L286 60L280
0H140Q132 0 112 -1T69 -3T26 -5Z" />
<glyph unicode="m" horiz-adv-x="919" d="M648 -5L643 52L751 76L703 40Q706 54 708 75T712 116T714 146V290Q714 327 708 359T683 410T632 430Q584 430 553 387T519 273L486 369Q510 433 555 469T660 505Q719 505 753 480T801 408T816 296V176Q816 151 818 123T823
73T827 43L778 71L897 60L891 0H756Q751 0 732 -1T690 -3T648 -5ZM44 -5L39 52L157 75L105 29Q108 40 111 62T118 109T121 146V343Q121 357 118 382T111 431T105 467L156 413L36 433L42 494H183L203 476L224 303V176Q224 132 228 91T235 29L185 71L304 60L298 0H158Q150
0 130 -1T87 -3T44 -5ZM352 -5L347 52L454 76L407 40Q409 54 411 75T416 116T418 146V290Q418 327 411 359T387 410T336 430Q288 430 256 386T224 271L189 367Q205 409 230 440T289 488T363 505Q423 505 457 480T505 408T519 296V176Q519 151 521 123T526 73T530
43L482 71L601 60L595 0H460Q455 0 436 -1T394 -3T352 -5Z" />
<glyph unicode="n" horiz-adv-x="639" d="M44 -5L39 52L157 75L105 29Q108 40 111 62T118 109T121 146V343Q121 357 118 382T111 431T105 467L156 413L36 433L42 494H183L203 476L222 313L192 375Q210 414 234 443T292 488T367 505Q432 505 468 480T519 408T535
296V176Q535 133 539 94T547 35L498 71L617 60L611 0H476Q469 0 450 -1T409 -3T368 -5L363 52L470 76L421 39Q424 52 427 72T432 112T434 146V290Q434 327 426 359T398 410T341 430Q290 430 257 386T224 271V176Q224 132 228 91T235 29L185 71L304 60L298 0H158Q150
0 130 -1T87 -3T44 -5Z" />
<glyph unicode="o" horiz-adv-x="562" d="M281 -12Q204 -12 152 20T72 110T45 246Q45 325 72 383T151 473T281 505Q397 505 456 436T516 246Q516 168 490 110T411 20T281 -12ZM281 54Q326 54 352 79T390 148T402 246Q402 301 391 344T353 413T281 439Q236 439
210 414T172 345T160 246Q160 192 171 149T209 80T281 54Z" />
<glyph unicode="p" horiz-adv-x="589" d="M42 -233L37 -179L143 -156L91 -199Q93 -188 96 -166T103 -119T107 -82V343Q107 357 104 382T96 431T89 467L142 413L21 433L28 494H169L188 476L201 364L183 379Q195 417 219 445T276 489T344 505Q439 505 491 440T544
258Q544 178 514 118T431 24T307 -10Q280 -10 251 -4T193 14L192 100Q221 81 248 72T299 63Q364 63 397 110T430 252Q430 339 403 382T320 426Q269 426 239 385T208 278V-52Q208 -96 212 -137T220 -199L170 -161L308 -172L302 -228H143Q135 -228 118 -229T81 -231T42
-233Z" />
<glyph unicode="q" horiz-adv-x="563" d="M244 -10Q152 -10 100 57T47 245Q47 324 74 382T152 473T271 505Q304 505 336 502T405 491T492 469L451 397Q402 416 362 424T281 432Q224 432 193 384T161 249Q161 164 189 117T267 70Q320 70 349 108T381 215L402 96Q387
65 362 41T306 3T244 -10ZM285 -233L280 -179L416 -156L365 -199Q367 -188 371 -166T378 -120T381 -83V331Q381 352 380 380T374 433L492 469Q490 453 488 426T485 370T483 321V-53Q483 -98 487 -139T494 -199L444 -161L551 -172L546 -228H418Q409 -228 385 -229T332
-231T285 -233Z" />
<glyph unicode="r" horiz-adv-x="471" d="M44 -5L39 52L157 75L105 29Q108 40 111 62T118 109T121 146V343Q121 357 118 382T111 431T105 467L156 413L36 433L42 494H183L203 476L222 313L184 356Q195 381 209 406T244 454T294 489T364 503Q382 503 400 501T437
493L425 316L361 319V372Q361 376 358 390T351 421T343 446L383 422Q374 422 364 422T345 423Q287 423 256 384T224 274V176Q224 132 228 91T235 29L185 71L324 60L318 0H158Q150 0 130 -1T87 -3T44 -5Z" />
<glyph unicode="s" horiz-adv-x="448" d="M222 -10Q169 -10 128 2T58 24L63 168H126V126Q126 120 130 106T141 75T154 47L120 91Q139 72 166 62T224 51Q258 51 280 66T302 115Q302 147 274 165T206 201Q182 213 156 226T107 258T72 301T58 362Q58 432 105 468T225
505Q267 505 304 500T375 485L369 337L308 341V379Q308 384 302 400T289 435T278 462L318 417Q295 429 275 436T225 443Q190 443 171 428T151 387Q151 358 180 340T248 305Q274 293 301 280T350 248T387 203T401 140Q401 62 352 26T222 -10Z" />
<glyph unicode="t" horiz-adv-x="396" d="M226 -15Q156 -15 130 24T103 133V478L147 433H25L22 482Q37 488 58 495T100 512T136 527L96 489Q102 497 111 512T129 546T147 581T160 605L205 601V129Q205 99 217 81T260 62Q280 62 300 70T339 93L369 43Q333 16 297
1T226 -15ZM187 433V494H344L337 433H187Z" />
<glyph unicode="u" horiz-adv-x="603" d="M262 -8Q197 -8 161 17T110 90T95 202V343Q95 354 93 374T87 417T80 460L129 413L23 433L29 494H185L205 476Q203 452 201 421T198 361T197 313V185Q197 135 216 102T287 69Q322 69 348 89T388 143T402 219V343Q402 354
400 373T395 416T389 458L437 413L320 433L326 494H492L512 476Q511 452 509 421T506 361T505 313V176Q505 137 509 99T517 21L468 71L580 60L574 0H425L407 123L426 99Q414 77 394 53T343 10T262 -8Z" />
<glyph unicode="v" horiz-adv-x="574" d="M249 0L121 344Q110 374 96 406T66 472L129 421L22 433L27 494H257L261 435L161 424L195 474Q203 441 210 410T225 351L315 75H287L380 352Q390 382 396 412T410 475L444 424L334 437L339 494H549L553 435L456 423L519
472Q501 431 484 394T453 319L336 0H249Z" />
<glyph unicode="w" horiz-adv-x="845" d="M232 0L105 344Q93 376 79 408T50 472L111 418L22 433L27 494H260L264 435L143 426L178 474Q185 442 192 410T209 351L299 75H272L405 494H461L594 75H566L657 353Q664 372 668 389T678 427T688 475L722 424L601 437L606
494H820L824 435L735 422L797 472Q779 430 762 394T730 319L614 0H526L409 347H437L320 0H232Z" />
<glyph unicode="x" horiz-adv-x="598" d="M326 -5L321 53L420 73L396 25Q385 47 374 69T349 108L274 212L244 240L165 343Q158 353 144 369T111 408T65 457L130 423L42 435L47 494H271L275 437L175 427L197 470Q207 452 215 438T230 412T247 386L309 300L343 269L428
156Q435 148 450 131T489 91T540 40L472 71L570 58L565 0H430Q412 0 382 -1T326 -5ZM39 -5L34 53L132 75L61 36Q82 59 104 83T145 128T172 160L250 271L294 291L353 385Q360 395 367 407T382 434T401 469L424 423L325 440L330 494H535L538 437L441 423L508 455Q477
420 450 391T409 339L343 240L301 219L225 107Q213 90 203 68T182 25L157 70L254 60L249 0H144Q125 0 95 -1T39 -5Z" />
<glyph unicode="y" horiz-adv-x="585" d="M250 -244L171 -222L167 -209Q184 -180 196 -155T220 -103T244 -41T275 43L276 -42L123 330Q109 366 91 401T56 470L120 420L21 435L27 494H257L261 436L153 425L188 474Q195 444 202 413T220 351L322 80H292L384 344Q396
375 403 408T416 474L452 423L344 439L349 494H560L563 436L466 424L530 472Q513 434 495 397T463 322L250 -244Z" />
<glyph unicode="z" horiz-adv-x="494" d="M421 -3Q417 -3 404 -3T373 -2T341 -1T317 0H57L48 62Q64 81 83 102T118 142T139 168L262 352Q269 363 280 383T304 428T328 472L351 432H199Q192 432 174 430T135 424T97 418L157 468Q151 451 143 431T129 394T121 369L117
324L53 328L58 478L77 497Q101 496 128 495T171 494H429L436 432L353 327L232 142Q224 129 212 108T189 65T166 22L143 62H298Q304 62 323 64T365 70T406 76L345 27Q352 42 360 61T374 96T382 118L387 159L449 153L440 16L421 -3Z" />
<glyph unicode="{" horiz-adv-x="425" d="M334 -106L142 -102L121 -79Q146 26 165 125T190 324L209 281L91 330L95 394L207 442L190 400Q183 500 164 600T121 802L142 826L334 830L337 779L173 761L231 814Q231 797 232 774T234 727T236 684T239 655Q245 591 257
529T280 403L127 354L146 384V339L130 369L280 321Q269 259 258 199T238 66Q236 53 234 26T231 -30T229 -81L173 -38L337 -55L334 -106Z" />
<glyph unicode="|" horiz-adv-x="359" d="M217 -122L143 -113V760L217 752V-122Z" />
<glyph unicode="}" horiz-adv-x="425" d="M91 830L282 826L304 802Q278 697 260 598T235 399L216 442L334 393L330 329L217 281L235 323Q241 224 260 123T304 -79L282 -102L91 -106L88 -56L252 -38L194 -90Q194 -73 193 -50T191 -4T189 39T186 68Q179 133 168
195T145 321L298 369L279 339V385L295 354L145 403Q157 465 168 525T187 657Q189 671 191 697T194 753T196 804L252 761L88 778L91 830Z" />
<glyph unicode="~" horiz-adv-x="680" d="M464 170Q442 170 409 179T339 200T271 221T219 230Q209 230 197 223T175 206T158 188T149 177L104 214Q107 220 118 236T145 273T179 308T216 323Q242 323 276 314T344 293T410 272T461 263Q472 263 483 270T504 286T522
304T531 315L576 278Q573 273 562 256T534 219T500 185T464 170Z" />
<glyph unicode="&#xa0;" horiz-adv-x="208" />
<glyph unicode="&#xa1;" horiz-adv-x="324" d="M131 273L204 269L203 203L215 -271L125 -279L102 -257Q104 -219 107 -169T113 -65T119 38T123 126T124 181L121 264L131 273ZM160 505Q190 505 207 486T224 435Q224 404 208 385T160 365Q129 365 113 384T96 435Q96
466 112 485T160 505Z" />
<glyph unicode="&#xa2;" horiz-adv-x="563" d="M315 69Q237 69 185 100T106 189T80 326Q80 403 106 461T185 551T314 583Q355 583 395 574T476 551L465 411L399 414L401 456Q401 461 399 475T393 504T387 524L425 480Q399 496 372 508T316 520Q272 520 245 494T205
423T192 326Q192 275 205 233T248 167T324 143Q359 143 393 152T457 178L487 128Q451 101 407 85T315 69ZM320 -68L269 -65L276 102H327L320 -68ZM293 553L300 719L350 716L344 553H293Z" />
<glyph unicode="&#xa3;" horiz-adv-x="685" d="M97 -5L92 52L211 75L162 46Q164 58 167 76T172 113T175 146V485Q175 543 202 583T278 643T386 664Q432 664 482 654T579 632L565 479L502 484L501 526Q501 533 498 549T490 585T481 621L535 568Q530 571 507 577T451
590T385 597Q338 597 311 571T284 502V176Q284 137 288 103T296 40L247 68H418Q428 68 450 70T498 75T546 81L481 35Q489 49 497 64T513 94T521 116L536 179L596 174L581 18L562 0H225Q197 0 163 -1T97 -5ZM76 273L74 324L484 342L486 292L76 273Z" />
<glyph unicode="&#xa4;" horiz-adv-x="704" d="M357 70Q280 70 228 100T149 185T122 315Q122 428 181 494T357 560Q473 560 532 495T591 315Q591 240 565 186T486 101T357 70ZM124 29L85 66L182 172L226 141L124 29ZM569 29L466 141L510 172L607 66L569 29ZM357
136Q405 136 434 159T475 222T487 315Q487 367 475 407T434 471T357 495Q309 495 280 472T239 408T227 315Q227 262 239 222T279 159T357 136ZM180 457L85 560L124 597L220 491L180 457ZM513 457L473 491L569 597L607 560L513 457Z" />
<glyph unicode="&#xa5;" horiz-adv-x="769" d="M347 209L175 529Q161 556 142 578T112 614L173 581L67 603L72 662Q92 661 115 660T157 659T183 658Q219 658 261 659T330 662L334 598L224 585L264 618Q264 602 272 576T300 517L419 292L379 291L507 545Q512 556
518 570T530 600T537 627L570 584L463 603L468 662Q492 661 521 660T563 658Q583 658 608 658T657 660T699 662L703 598L598 587L664 613Q652 601 628 574T583 509L425 209H347ZM258 -5L253 51L368 72L318 24Q320 36 323 59T329 104T332 140V292H445V168Q445 145
446 117T451 64T457 24L406 68L529 57L522 0H393Q383 0 360 -1T310 -3T258 -5ZM143 154L141 205L634 223L636 173L143 154ZM138 260L136 311L629 329L631 279L138 260Z" />
<glyph unicode="&#xa6;" horiz-adv-x="343" d="M209 392L133 400V760L209 752V392ZM209 -122L133 -113V212L209 205V-122Z" />
<glyph unicode="&#xa7;" horiz-adv-x="610" d="M308 -113Q262 -113 211 -102T121 -73L133 70L192 65V22Q192 11 197 -17T207 -69L157 -18Q193 -28 229 -37T301 -47Q343 -47 368 -25T393 38Q393 68 375 88T326 125T263 157Q227 173 193 192T137 237T114 303Q114
324 124 345T149 383T174 407L199 392Q185 363 191 342T216 303T263 271T322 242Q354 227 387 210T447 171T491 119T508 49Q508 -5 481 -41T409 -95T308 -113ZM441 212L416 227Q432 256 427 278T402 317T354 348T295 376Q263 390 231 406T171 444T127 495T110 566Q110
616 134 650T201 702T295 720Q337 720 382 712T468 693L456 558L403 563V601Q403 605 399 619T391 650T383 681L435 630Q402 641 369 649T302 658Q268 658 245 639T222 582Q222 555 240 536T286 501T347 470Q384 452 419 432T478 384T501 316Q501 288 483 260T441
212Z" />
<glyph unicode="&#xa8;" horiz-adv-x="419" d="M300 561Q273 561 258 577T243 623Q243 650 258 667T300 684Q327 684 342 668T357 623Q357 594 342 578T300 561ZM118 561Q91 561 76 577T61 623Q61 650 76 667T118 684Q144 684 159 668T175 623Q175 595 160 578T118 561Z" />
<glyph unicode="&#xa9;" horiz-adv-x="928" d="M464 -15Q390 -15 324 13T208 90T128 206T99 350Q99 426 127 492T206 608T323 686T464 715Q540 715 606 687T723 609T801 493T830 350Q830 276 802 210T723 94T606 14T464 -15ZM481 135Q377 135 324 195T271 350Q271
446 324 506T481 566Q518 566 549 561T610 546L603 440L557 443L555 479Q555 484 550 499T539 526L577 495Q557 500 542 503T512 508T481 510Q444 510 422 489T389 432T378 350Q378 306 388 270T420 212T480 190Q507 190 530 194T584 206L543 173Q549 186 557 203T565
227Q565 231 565 239T566 255L611 256L616 155Q587 148 554 142T481 135ZM465 38Q529 38 586 62T685 130T752 229T777 350Q777 414 753 470T685 570T586 638T465 663Q400 663 344 639T244 572T177 472T152 350Q152 286 176 230T244 130T343 63T465 38Z" />
<glyph unicode="&#xaa;" horiz-adv-x="398" d="M150 324Q106 324 81 347T56 411Q56 482 140 496L243 513V474L176 463Q141 458 141 424Q141 383 178 383Q199 383 214 396T234 429V533Q234 561 224 577T183 594Q166 594 143 588T110 577L135 618L124 558L125 531L80
529L71 630Q99 637 131 642T187 647Q249 647 281 617T314 531V447Q314 419 317 393T323 353L284 380L359 372L355 330H247L237 412L252 402Q239 362 213 343T150 324Z" />
<glyph unicode="&#xab;" horiz-adv-x="527" d="M487 36L316 253L487 471L526 444L401 212V294L526 62L487 36ZM411 36L240 253L411 471L450 444L325 212V294L450 62L411 36Z" />
<glyph unicode="&#xac;" horiz-adv-x="702" d="M481 67L482 275L528 230L105 226V307H560V67H481Z" />
<glyph unicode="&#xad;" horiz-adv-x="372" d="M77 212L75 295H297L292 212H77Z" />
<glyph unicode="&#xae;" horiz-adv-x="928" d="M464 -15Q390 -15 324 13T208 90T128 206T99 350Q99 426 127 492T206 608T323 686T464 715Q540 715 606 687T723 609T801 493T830 350Q830 276 802 210T723 94T606 14T464 -15ZM295 141L292 182L369 196L327 157Q330
175 333 201T337 240V460Q337 472 334 494T327 533L369 502L293 515L296 560Q313 559 335 558T367 557L435 533Q433 513 431 491T428 443V257Q428 241 430 221T434 183T438 157L397 193L468 185L464 144H385Q375 144 347 143T295 141ZM544 144Q538 161 529 182T515
211L444 346L537 348Q552 317 569 289T598 242T611 220Q614 216 620 207T632 188L661 185L658 144Q643 144 612 144T544 144ZM465 38Q530 38 586 62T685 130T752 229T777 350Q777 414 753 470T686 569T587 638T465 663Q400 663 344 639T244 572T177 473T152 350Q152
286 176 230T244 130T343 63T465 38ZM456 305Q447 305 431 306T396 310T361 313V356Q381 356 406 356T444 356Q485 356 505 375T525 435Q525 471 509 491T451 511Q447 511 436 509T411 505T385 503T367 505V557Q392 557 423 558T480 560Q543 560 582 527T621 439Q621
398 598 369T537 322T456 305Z" />
<glyph unicode="&#xaf;" horiz-adv-x="456" d="M75 574V632H384L377 574H75Z" />
<glyph unicode="&#xb0;" horiz-adv-x="501" d="M250 406Q188 406 151 443T114 543Q114 609 151 644T250 680Q313 680 349 645T386 543Q386 480 350 443T250 406ZM251 462Q284 462 296 486T308 543Q308 576 296 599T251 623Q217 623 205 600T192 543Q192 511 204
487T251 462Z" />
<glyph unicode="&#xb1;" horiz-adv-x="663" d="M104 -18V57L559 62V-18H104ZM104 318V399H559V324L104 318ZM291 119V562H367L372 119H291Z" />
<glyph unicode="&#xb2;" horiz-adv-x="394" d="M324 328L253 330H53L44 389Q102 441 139 477T196 540T224 587T233 628Q233 656 217 671T172 686Q152 686 132 679T92 655L123 707Q119 692 115 672T110 646V619L63 616L58 721Q90 732 120 737T185 743Q252 743 289
715T326 636Q326 610 317 585T283 530T217 461T111 369L110 399H232Q244 399 271 402T322 410L274 371Q280 388 285 402T296 435L300 459L347 456L342 340L324 328Z" />
<glyph unicode="&#xb3;" horiz-adv-x="353" d="M52 264L38 310Q119 319 166 353T214 432Q214 465 196 483T144 501Q135 501 124 500T104 498L95 542Q149 549 175 574T202 637Q202 692 148 692Q129 692 112 687T84 675L109 719Q105 702 101 684T96 657V626L49 623L40
725Q67 734 95 738T151 743Q219 743 255 716T291 636Q291 600 265 571T191 526L192 540Q225 540 251 526T292 489T308 438Q308 395 275 358T185 296T52 264Z" />
<glyph unicode="&#xb4;" horiz-adv-x="278" d="M72 544L29 580L191 749L249 697L72 544Z" />
<glyph unicode="&#xb5;" horiz-adv-x="726" d="M118 -277L89 -261Q105 -198 121 -123T154 30T183 184T206 325T219 436L264 413L140 420V463L314 506L343 483Q324 413 309 345T285 221T275 131Q275 114 280 99T304 83Q324 83 348 104T399 165Q421 197 439 239T474
330T503 432Q505 447 507 461T511 490L599 506L627 490Q609 420 595 363T571 255T555 153T544 45L501 78L631 69L628 28L451 -16L422 0Q431 29 441 66T461 145T475 226L489 234Q462 176 432 131T371 54T313 6T263 -11Q244 -11 231 8T217 65L226 63Q221 20 216 -35T207
-148T202 -261L118 -277Z" />
<glyph unicode="&#xb6;" horiz-adv-x="686" d="M336 -95L331 -40L449 -17L400 -63Q403 -48 406 -26T413 19T416 54V561Q416 574 416 598T416 648T415 687L433 705H454Q490 705 532 707T602 710L606 646L488 635L535 672Q531 648 527 610T523 531V84Q523 57 524
26T528 -32T531 -72L513 -90H475Q466 -90 442 -91T390 -93T336 -95ZM343 286Q275 286 218 311T125 384T90 500Q90 603 151 656T317 710Q358 710 404 708T492 705V644Q460 647 426 649T364 651V286H343Z" />
<glyph unicode="&#xb7;" horiz-adv-x="338" d="M169 225Q136 225 118 245T100 299Q100 332 118 353T169 375Q202 375 220 355T238 299Q238 266 221 246T169 225Z" />
<glyph unicode="&#xb8;" horiz-adv-x="242" d="M54 -247L46 -210Q84 -208 112 -192T140 -152Q140 -136 125 -128T82 -118L71 -109L98 17H146L108 -97L91 -53Q148 -61 174 -86T201 -143Q201 -162 190 -183T158 -220Q139 -234 113 -240T54 -247Z" />
<glyph unicode="&#xb9;" horiz-adv-x="339" d="M49 327L46 369L175 382L133 339Q138 363 141 390T145 429V673L179 649L61 610L38 646L176 749L233 742Q232 717 231 687T229 632T228 596V448Q228 429 231 399T239 339L199 380L304 373L300 330H167Q160 330 137
330T88 329T49 327Z" />
<glyph unicode="&#xba;" horiz-adv-x="408" d="M204 321Q130 321 90 364T50 484Q50 561 90 604T204 647Q279 647 318 604T358 484Q358 408 319 365T204 321ZM204 371Q240 371 255 400T270 484Q270 539 255 568T204 597Q169 597 154 568T138 484Q138 428 153 400T204 371Z" />
<glyph unicode="&#xbb;" horiz-adv-x="529" d="M117 34L77 61L202 293V211L77 443L117 469L288 252L117 34ZM297 34L257 61L382 293V211L257 443L297 469L468 252L297 34Z" />
<glyph unicode="&#xbc;" horiz-adv-x="877" d="M36 297L33 339L162 352L120 309Q123 333 127 360T131 399V643L165 619L47 580L25 616L162 719L220 712Q219 687 218 657T216 602T215 566V418Q215 399 218 369T225 309L185 350L290 343L286 300H154Q147 300 124
300T75 299T36 297ZM226 -49L168 -12L599 721L656 684L226 -49ZM565 115L521 169L747 461L807 412Q792 398 775 381T744 350T727 331L587 139L572 168L714 169V115H565ZM635 -3L632 39L736 51L695 9Q698 32 701 56T704 99V234L785 262V101Q785 84 787 59T793 9L752
49L844 43L841 0H718Q701 0 678 -1T635 -3ZM775 115V174L844 177V115H775Z" />
<glyph unicode="&#xbd;" horiz-adv-x="890" d="M36 297L33 339L162 352L120 309Q123 333 127 360T131 399V643L165 619L47 580L25 616L162 719L220 712Q219 687 218 657T216 602T215 566V418Q215 399 218 369T225 309L185 350L290 343L286 300H154Q147 300 124
300T75 299T36 297ZM226 -49L168 -12L599 721L656 684L226 -49ZM825 -2L754 0H554L545 59Q603 111 640 147T697 210T726 257T734 298Q734 326 718 341T674 356Q654 356 634 349T593 325L625 377Q621 362 617 342T612 316V289L565 286L560 391Q591 402 621 407T686
413Q753 413 790 385T828 306Q828 280 818 255T785 200T719 131T612 39L611 69H732Q745 69 773 72T824 80L776 41Q782 58 787 72T797 105L802 129L847 126L842 10L825 -2Z" />
<glyph unicode="&#xbe;" horiz-adv-x="910" d="M47 234L34 280Q114 289 162 323T210 402Q210 435 192 453T140 471Q130 471 119 470T100 468L91 512Q143 519 170 543T198 607Q198 662 143 662Q125 662 108 657T80 645L105 689Q101 672 96 654T91 627L92 596L45
593L36 695Q63 704 90 708T147 713Q215 713 250 686T286 606Q286 570 261 541T186 496L188 510Q220 510 246 496T288 459T304 408Q304 365 271 328T181 266T47 234ZM259 -49L201 -12L632 721L689 684L259 -49ZM598 115L554 169L780 461L840 412Q825 398 808 381T777
350T760 331L620 139L605 168L747 169V115H598ZM668 -3L665 39L769 51L728 9Q731 32 734 56T737 99V234L818 262V101Q818 84 820 59T826 9L785 49L877 43L874 0H751Q734 0 711 -1T668 -3ZM808 115V174L877 177V115H808Z" />
<glyph unicode="&#xbf;" horiz-adv-x="501" d="M302 273L385 270V101L357 73Q345 75 329 76T303 77Q238 77 207 36T175 -68Q175 -133 207 -171T300 -210Q346 -210 402 -187L334 -239Q336 -222 339 -202T345 -165T347 -139L345 -103L407 -100L416 -251Q379 -262
345 -268T278 -274Q184 -274 126 -222T67 -73Q67 -4 98 45T189 119T331 137L297 93L291 264L302 273ZM345 505Q376 505 392 486T409 435Q409 404 393 385T345 365Q315 365 298 384T281 435Q281 466 297 485T345 505Z" />
<glyph unicode="&#xc0;" horiz-adv-x="744" d="M49 -5L44 49L147 74L86 35Q98 57 109 77T129 118T146 160L326 705L400 715L604 144Q613 117 625 92T649 44L591 77L699 59L694 0H598Q586 0 558 -1T498 -3T438 -5L435 49L550 79L511 27Q505 71 499 101T482 161L342
585H369L223 124Q217 103 215 81T211 34L168 73L282 59L277 0H185Q173 0 149 -1T98 -3T49 -5ZM225 211V273H498V211H225ZM465 738L226 825L257 893L485 783L465 738Z" />
<glyph unicode="&#xc1;" horiz-adv-x="744" d="M49 -5L44 49L147 74L86 35Q98 57 109 77T129 118T146 160L326 705L400 715L604 144Q613 117 625 92T649 44L591 77L699 59L694 0H598Q586 0 558 -1T498 -3T438 -5L435 49L550 79L511 27Q505 71 499 101T482 161L342
585H369L223 124Q217 103 215 81T211 34L168 73L282 59L277 0H185Q173 0 149 -1T98 -3T49 -5ZM225 211V273H498V211H225ZM285 738L265 783L493 893L524 825L285 738Z" />
<glyph unicode="&#xc2;" horiz-adv-x="744" d="M49 -5L44 49L147 74L86 35Q98 57 109 77T129 118T146 160L326 705L400 715L604 144Q613 117 625 92T649 44L591 77L699 59L694 0H598Q586 0 558 -1T498 -3T438 -5L435 49L550 79L511 27Q505 71 499 101T482 161L342
585H369L223 124Q217 103 215 81T211 34L168 73L282 59L277 0H185Q173 0 149 -1T98 -3T49 -5ZM225 211V273H498V211H225ZM519 737L325 829L358 869H407L546 776L519 737ZM218 738L191 777L330 869H379L412 829L218 738Z" />
<glyph unicode="&#xc3;" horiz-adv-x="744" d="M49 -5L44 49L147 74L86 35Q98 57 109 77T129 118T146 160L326 705L400 715L604 144Q613 117 625 92T649 44L591 77L699 59L694 0H598Q586 0 558 -1T498 -3T438 -5L435 49L550 79L511 27Q505 71 499 101T482 161L342
585H369L223 124Q217 103 215 81T211 34L168 73L282 59L277 0H185Q173 0 149 -1T98 -3T49 -5ZM225 211V273H498V211H225ZM234 732L195 755Q204 778 218 801T248 840T279 857Q295 857 317 851T364 837T411 823T449 817Q464 817 478 833T500 865L540 842Q531 821
517 798T487 759T456 743Q440 743 418 749T371 763T324 777T286 783Q272 783 257 766T234 732Z" />
<glyph unicode="&#xc4;" horiz-adv-x="744" d="M49 -5L44 49L147 74L86 35Q98 57 109 77T129 118T146 160L326 705L400 715L604 144Q613 117 625 92T649 44L591 77L699 59L694 0H598Q586 0 558 -1T498 -3T438 -5L435 49L550 79L511 27Q505 71 499 101T482 161L342
585H369L223 124Q217 103 215 81T211 34L168 73L282 59L277 0H185Q173 0 149 -1T98 -3T49 -5ZM225 211V273H498V211H225ZM459 738Q432 738 417 754T402 800Q402 827 417 844T459 861Q486 861 501 845T516 800Q516 771 501 755T459 738ZM277 738Q250 738 235 754T220
800Q220 827 235 844T277 861Q303 861 318 845T334 800Q334 772 319 755T277 738Z" />
<glyph unicode="&#xc5;" horiz-adv-x="744" d="M49 -5L44 49L147 74L86 35Q98 57 109 77T129 118T146 160L326 705L400 715L604 144Q613 117 625 92T649 44L591 77L699 59L694 0H598Q586 0 558 -1T498 -3T438 -5L435 49L550 79L511 27Q505 71 499 101T482 161L342
585H369L223 124Q217 103 215 81T211 34L168 73L282 59L277 0H185Q173 0 149 -1T98 -3T49 -5ZM225 211V273H498V211H225ZM368 737Q324 737 300 761T275 825Q275 865 299 889T368 913Q412 913 435 889T459 825Q459 785 436 761T368 737ZM368 781Q389 781 398 794T408
825Q408 843 399 856T368 869Q348 869 339 856T329 825Q329 807 338 794T368 781Z" />
<glyph unicode="&#xc6;" horiz-adv-x="992" d="M49 -5L44 49L141 74L85 45Q92 53 102 69T123 103T143 136T156 160L411 705H517V681Q518 669 520 643T524 587T529 540L603 175L636 22L605 0Q592 0 565 -1T505 -3T446 -5L441 49L550 78L510 35Q510 65 508 86T501
130L412 597L440 594L224 124Q221 117 217 101T209 66T203 36L165 73L280 59L275 0H184Q150 0 114 -1T49 -5ZM237 218L235 280H529L531 218H237ZM893 -4Q874 -3 852 -2T810 -1T779 0H535V65H749Q780 65 809 70T851 78L811 43Q826 60 839 80T854 112L868 177L927
172L912 14L893 -4ZM776 261L762 363L803 323Q791 325 770 327T727 331T691 333H535V395H711Q731 395 756 399T794 406L762 365L776 470L825 465V381Q825 324 828 267L776 261ZM844 551L835 603Q834 612 822 633T798 669L840 636Q823 638 794 640T737 642H483V705H766Q775
705 795 705T838 707T880 710L899 692L906 556L844 551Z" />
<glyph unicode="&#xc7;" horiz-adv-x="685" d="M395 -15Q288 -15 216 31T107 160T70 352Q70 461 106 544T215 673T395 720Q458 720 507 710T605 686L594 530L531 534L530 584Q530 594 522 618T508 662L546 623Q511 636 471 644T395 653Q326 653 281 613T215 505T193
353Q193 269 214 201T280 93T394 52Q431 52 473 60T556 81L515 41Q521 55 527 72T537 104T542 126L544 173L607 175L614 19Q566 7 512 -4T395 -15ZM317 -247L309 -210Q347 -208 375 -192T403 -152Q403 -136 388 -128T345 -118L334 -109L361 17H409L371 -97L354
-53Q411 -61 437 -86T464 -143Q464 -162 453 -183T421 -220Q402 -234 376 -240T317 -247Z" />
<glyph unicode="&#xc8;" horiz-adv-x="635" d="M60 -5L55 51L174 74L125 29Q127 40 130 63T137 109T140 144V561Q140 571 138 591T132 634T125 677L174 631L57 651L62 710Q80 709 103 708T147 706T178 705H409Q418 705 438 705T481 707T523 710L542 692L549 556L488
551L478 603Q477 612 465 633T442 669L484 636Q467 638 438 640T380 642H212L257 668Q255 645 253 618T249 568T247 531V174Q247 151 249 122T254 67T259 27L218 65H393Q424 65 453 70T494 78L455 43Q469 60 482 80T498 112L512 177L571 172L556 14L537 -4Q518
-3 496 -2T454 -1T423 0H199Q186 0 162 0T111 -2T60 -5ZM420 261L406 363L447 323Q434 325 413 327T371 331T335 333H212V395H355Q374 395 400 399T437 406L406 365L420 470L469 465V381Q469 324 472 267L420 261ZM407 753L168 840L199 908L427 798L407 753Z" />
<glyph unicode="&#xc9;" horiz-adv-x="635" d="M60 -5L55 51L174 74L125 29Q127 40 130 63T137 109T140 144V561Q140 571 138 591T132 634T125 677L174 631L57 651L62 710Q80 709 103 708T147 706T178 705H409Q418 705 438 705T481 707T523 710L542 692L549 556L488
551L478 603Q477 612 465 633T442 669L484 636Q467 638 438 640T380 642H212L257 668Q255 645 253 618T249 568T247 531V174Q247 151 249 122T254 67T259 27L218 65H393Q424 65 453 70T494 78L455 43Q469 60 482 80T498 112L512 177L571 172L556 14L537 -4Q518
-3 496 -2T454 -1T423 0H199Q186 0 162 0T111 -2T60 -5ZM420 261L406 363L447 323Q434 325 413 327T371 331T335 333H212V395H355Q374 395 400 399T437 406L406 365L420 470L469 465V381Q469 324 472 267L420 261ZM227 753L207 798L435 908L466 840L227 753Z" />
<glyph unicode="&#xca;" horiz-adv-x="635" d="M60 -5L55 51L174 74L125 29Q127 40 130 63T137 109T140 144V561Q140 571 138 591T132 634T125 677L174 631L57 651L62 710Q80 709 103 708T147 706T178 705H409Q418 705 438 705T481 707T523 710L542 692L549 556L488
551L478 603Q477 612 465 633T442 669L484 636Q467 638 438 640T380 642H212L257 668Q255 645 253 618T249 568T247 531V174Q247 151 249 122T254 67T259 27L218 65H393Q424 65 453 70T494 78L455 43Q469 60 482 80T498 112L512 177L571 172L556 14L537 -4Q518
-3 496 -2T454 -1T423 0H199Q186 0 162 0T111 -2T60 -5ZM420 261L406 363L447 323Q434 325 413 327T371 331T335 333H212V395H355Q374 395 400 399T437 406L406 365L420 470L469 465V381Q469 324 472 267L420 261ZM460 752L266 844L299 884H348L487 791L460 752ZM159
753L132 792L271 884H320L353 844L159 753Z" />
<glyph unicode="&#xcb;" horiz-adv-x="635" d="M60 -5L55 51L174 74L125 29Q127 40 130 63T137 109T140 144V561Q140 571 138 591T132 634T125 677L174 631L57 651L62 710Q80 709 103 708T147 706T178 705H409Q418 705 438 705T481 707T523 710L542 692L549 556L488
551L478 603Q477 612 465 633T442 669L484 636Q467 638 438 640T380 642H212L257 668Q255 645 253 618T249 568T247 531V174Q247 151 249 122T254 67T259 27L218 65H393Q424 65 453 70T494 78L455 43Q469 60 482 80T498 112L512 177L571 172L556 14L537 -4Q518
-3 496 -2T454 -1T423 0H199Q186 0 162 0T111 -2T60 -5ZM420 261L406 363L447 323Q434 325 413 327T371 331T335 333H212V395H355Q374 395 400 399T437 406L406 365L420 470L469 465V381Q469 324 472 267L420 261ZM401 753Q374 753 359 769T344 815Q344 842 359
859T401 876Q428 876 443 860T458 815Q458 786 443 770T401 753ZM219 753Q192 753 177 769T162 815Q162 842 177 859T219 876Q245 876 260 860T276 815Q276 787 261 770T219 753Z" />
<glyph unicode="&#xcc;" horiz-adv-x="394" d="M60 -5L55 51L174 74L125 27Q127 39 130 62T137 108T140 144V561Q140 574 138 595T132 638T125 673L174 631L57 651L62 710Q80 709 103 708T147 706T178 705Q215 705 252 706T326 710L330 646L212 635L260 674Q258
661 255 637T250 585T247 531V174Q247 147 249 118T255 65T261 27L212 69L339 59L332 0H199Q164 0 130 -1T60 -5ZM291 753L52 840L83 908L311 798L291 753Z" />
<glyph unicode="&#xcd;" horiz-adv-x="394" d="M60 -5L55 51L174 74L125 27Q127 39 130 62T137 108T140 144V561Q140 574 138 595T132 638T125 673L174 631L57 651L62 710Q80 709 103 708T147 706T178 705Q215 705 252 706T326 710L330 646L212 635L260 674Q258
661 255 637T250 585T247 531V174Q247 147 249 118T255 65T261 27L212 69L339 59L332 0H199Q164 0 130 -1T60 -5ZM110 753L90 798L318 908L349 840L110 753Z" />
<glyph unicode="&#xce;" horiz-adv-x="394" d="M60 -5L55 51L174 74L125 27Q127 39 130 62T137 108T140 144V561Q140 574 138 595T132 638T125 673L174 631L57 651L62 710Q80 709 103 708T147 706T178 705Q215 705 252 706T326 710L330 646L212 635L260 674Q258
661 255 637T250 585T247 531V174Q247 147 249 118T255 65T261 27L212 69L339 59L332 0H199Q164 0 130 -1T60 -5ZM600 752L406 844L439 884H488L627 791L600 752ZM299 753L272 792L411 884H460L493 844L299 753Z" />
<glyph unicode="&#xcf;" horiz-adv-x="394" d="M60 -5L55 51L174 74L125 27Q127 39 130 62T137 108T140 144V561Q140 574 138 595T132 638T125 673L174 631L57 651L62 710Q80 709 103 708T147 706T178 705Q215 705 252 706T326 710L330 646L212 635L260 674Q258
661 255 637T250 585T247 531V174Q247 147 249 118T255 65T261 27L212 69L339 59L332 0H199Q164 0 130 -1T60 -5ZM284 753Q257 753 242 769T227 815Q227 842 242 859T284 876Q311 876 326 860T341 815Q341 786 326 770T284 753ZM102 753Q75 753 60 769T45 815Q45
842 60 859T102 876Q128 876 143 860T159 815Q159 787 144 770T102 753Z" />
<glyph unicode="&#xd0;" horiz-adv-x="768" d="M60 -5L55 51L174 74L125 26Q127 41 130 64T137 110T140 144V561Q140 574 137 596T131 641T126 675L174 631L57 651L62 710Q80 709 102 708T146 706T178 705Q208 705 236 706T293 709T354 710Q466 710 543 666T660
541T700 352Q700 247 660 167T541 41T354 -4Q317 -4 277 -2T199 0Q186 0 162 -1T111 -3T60 -5ZM256 36L233 64Q252 64 283 63T350 61Q431 61 482 100T558 206T583 353Q583 432 559 498T483 604T351 644Q315 644 283 644T235 643L258 675Q257 670 255 654T251 617T248
572T247 531V174Q247 146 249 118T253 68T256 36ZM28 328V379H383L377 328H28Z" />
<glyph unicode="&#xd1;" horiz-adv-x="813" d="M61 -5L56 51L174 74L126 34Q128 45 131 67T137 110T140 144V561Q140 573 137 596T131 641T127 671L174 632L55 651L60 710Q78 709 101 708T144 706T175 705H232L251 685Q268 657 288 625T324 566T346 532L622 149L597
141V561Q597 573 594 596T587 644T581 679L631 631L513 651L518 710Q534 709 555 708T595 706T624 705Q671 705 704 707T764 710L768 646L650 635L700 675Q698 663 693 639T684 587T679 531V0H599L198 563L223 571V174Q223 148 225 120T230 68T235 29L188 69L308
59L301 0H183Q173 0 152 -1T106 -3T61 -5ZM268 747L229 770Q238 793 252 816T282 855T313 872Q329 872 351 866T398 852T445 838T483 832Q498 832 512 848T534 880L574 857Q565 836 551 813T521 774T490 758Q474 758 452 764T405 778T358 792T320 798Q306 798 291
781T268 747Z" />
<glyph unicode="&#xd2;" horiz-adv-x="809" d="M405 -15Q297 -15 222 31T108 160T69 352Q69 462 108 544T222 673T405 720Q513 720 587 674T701 545T740 352Q740 243 701 161T588 32T405 -15ZM405 50Q476 50 522 89T591 196T614 352Q614 441 591 509T522 616T405
655Q334 655 287 616T218 509T195 352Q195 264 217 196T287 89T405 50ZM502 753L263 840L294 908L522 798L502 753Z" />
<glyph unicode="&#xd3;" horiz-adv-x="809" d="M405 -15Q297 -15 222 31T108 160T69 352Q69 462 108 544T222 673T405 720Q513 720 587 674T701 545T740 352Q740 243 701 161T588 32T405 -15ZM405 50Q476 50 522 89T591 196T614 352Q614 441 591 509T522 616T405
655Q334 655 287 616T218 509T195 352Q195 264 217 196T287 89T405 50ZM321 753L301 798L529 908L560 840L321 753Z" />
<glyph unicode="&#xd4;" horiz-adv-x="809" d="M405 -15Q297 -15 222 31T108 160T69 352Q69 462 108 544T222 673T405 720Q513 720 587 674T701 545T740 352Q740 243 701 161T588 32T405 -15ZM405 50Q476 50 522 89T591 196T614 352Q614 441 591 509T522 616T405
655Q334 655 287 616T218 509T195 352Q195 264 217 196T287 89T405 50ZM555 752L361 844L394 884H443L582 791L555 752ZM254 753L227 792L366 884H415L448 844L254 753Z" />
<glyph unicode="&#xd5;" horiz-adv-x="809" d="M405 -15Q297 -15 222 31T108 160T69 352Q69 462 108 544T222 673T405 720Q513 720 587 674T701 545T740 352Q740 243 701 161T588 32T405 -15ZM405 50Q476 50 522 89T591 196T614 352Q614 441 591 509T522 616T405
655Q334 655 287 616T218 509T195 352Q195 264 217 196T287 89T405 50ZM271 747L232 770Q241 793 255 816T285 855T316 872Q332 872 354 866T401 852T448 838T486 832Q501 832 515 848T537 880L577 857Q568 836 554 813T524 774T493 758Q477 758 455 764T408 778T361
792T323 798Q309 798 294 781T271 747Z" />
<glyph unicode="&#xd6;" horiz-adv-x="809" d="M405 -15Q297 -15 222 31T108 160T69 352Q69 462 108 544T222 673T405 720Q513 720 587 674T701 545T740 352Q740 243 701 161T588 32T405 -15ZM405 50Q476 50 522 89T591 196T614 352Q614 441 591 509T522 616T405
655Q334 655 287 616T218 509T195 352Q195 264 217 196T287 89T405 50ZM495 753Q468 753 453 769T438 815Q438 842 453 859T495 876Q522 876 537 860T552 815Q552 786 537 770T495 753ZM313 753Q286 753 271 769T256 815Q256 842 271 859T313 876Q339 876 354 860T370
815Q370 787 355 770T313 753Z" />
<glyph unicode="&#xd7;" horiz-adv-x="611" d="M134 34L95 73L474 458L516 416L134 34ZM475 36L93 417L132 457L518 79L475 36Z" />
<glyph unicode="&#xd8;" horiz-adv-x="808" d="M182 -136L136 -112L635 838L683 813L182 -136ZM404 -15Q296 -15 221 31T107 160T68 352Q68 462 107 544T221 673T404 720Q513 720 587 674T700 545T739 352Q739 243 701 161T588 32T404 -15ZM404 50Q475 50 521
89T590 196T613 352Q613 441 591 509T522 616T404 655Q333 655 287 616T217 509T194 352Q194 264 217 196T286 89T404 50Z" />
<glyph unicode="&#xd9;" horiz-adv-x="791" d="M395 -15Q263 -15 196 62T129 267V558Q129 570 126 594T120 643T114 680L163 632L45 651L50 710Q68 709 91 708T135 706T166 705Q193 705 223 706T279 708T320 710L324 646L205 635L252 680Q250 664 248 638T243
582T241 528V264Q241 207 259 161T314 89T406 62Q464 62 501 88T556 159T574 264V558Q574 567 572 583T567 619T562 655T558 680L610 631L490 651L495 710Q522 709 553 707T601 705Q641 705 677 707T741 710L745 646L627 635L674 680Q672 665 669 639T664 584T662
528V267Q662 139 595 62T395 -15ZM497 753L258 840L289 908L517 798L497 753Z" />
<glyph unicode="&#xda;" horiz-adv-x="791" d="M395 -15Q263 -15 196 62T129 267V558Q129 570 126 594T120 643T114 680L163 632L45 651L50 710Q68 709 91 708T135 706T166 705Q193 705 223 706T279 708T320 710L324 646L205 635L252 680Q250 664 248 638T243
582T241 528V264Q241 207 259 161T314 89T406 62Q464 62 501 88T556 159T574 264V558Q574 567 572 583T567 619T562 655T558 680L610 631L490 651L495 710Q522 709 553 707T601 705Q641 705 677 707T741 710L745 646L627 635L674 680Q672 665 669 639T664 584T662
528V267Q662 139 595 62T395 -15ZM316 753L296 798L524 908L555 840L316 753Z" />
<glyph unicode="&#xdb;" horiz-adv-x="791" d="M395 -15Q263 -15 196 62T129 267V558Q129 570 126 594T120 643T114 680L163 632L45 651L50 710Q68 709 91 708T135 706T166 705Q193 705 223 706T279 708T320 710L324 646L205 635L252 680Q250 664 248 638T243
582T241 528V264Q241 207 259 161T314 89T406 62Q464 62 501 88T556 159T574 264V558Q574 567 572 583T567 619T562 655T558 680L610 631L490 651L495 710Q522 709 553 707T601 705Q641 705 677 707T741 710L745 646L627 635L674 680Q672 665 669 639T664 584T662
528V267Q662 139 595 62T395 -15ZM550 752L356 844L389 884H438L577 791L550 752ZM249 753L222 792L361 884H410L443 844L249 753Z" />
<glyph unicode="&#xdc;" horiz-adv-x="791" d="M395 -15Q263 -15 196 62T129 267V558Q129 570 126 594T120 643T114 680L163 632L45 651L50 710Q68 709 91 708T135 706T166 705Q193 705 223 706T279 708T320 710L324 646L205 635L252 680Q250 664 248 638T243
582T241 528V264Q241 207 259 161T314 89T406 62Q464 62 501 88T556 159T574 264V558Q574 567 572 583T567 619T562 655T558 680L610 631L490 651L495 710Q522 709 553 707T601 705Q641 705 677 707T741 710L745 646L627 635L674 680Q672 665 669 639T664 584T662
528V267Q662 139 595 62T395 -15ZM490 753Q463 753 448 769T433 815Q433 842 448 859T490 876Q517 876 532 860T547 815Q547 786 532 770T490 753ZM308 753Q281 753 266 769T251 815Q251 842 266 859T308 876Q334 876 349 860T365 815Q365 787 350 770T308 753Z"
/>
<glyph unicode="&#xdd;" horiz-adv-x="746" d="M336 230L161 561Q144 594 123 622T93 662L151 628L45 651L50 710Q69 709 91 708T134 706T166 705Q207 705 249 707T316 710L320 646L207 631L242 665Q243 650 251 619T284 544L405 312H367L500 581Q506 595 513
613T527 648T535 673L562 629L454 651L459 710Q483 709 509 707T552 705Q592 705 633 707T696 710L701 646L591 634L657 662Q646 651 622 620T573 545L411 230H336ZM243 -5L238 51L356 74L307 27Q310 39 313 62T319 108T322 144V316H430V174Q430 148 432 119T437
66T443 27L394 69L521 59L515 0H382Q374 0 350 -1T297 -3T243 -5ZM295 753L275 798L503 908L534 840L295 753Z" />
<glyph unicode="&#xde;" horiz-adv-x="624" d="M60 -4L55 51L174 74L125 27Q127 39 130 62T137 109T140 145V562Q140 574 138 595T132 639T125 674L175 632L57 651L62 710Q80 709 103 708T147 706T178 705Q222 705 257 707T326 711L330 646L212 635L260 675Q258
662 255 638T250 586T247 532V174Q247 148 249 119T255 66T261 27L212 70L339 59L332 1H199Q187 1 167 0T124 -1T84 -3T60 -4ZM185 166V226Q198 226 219 226T261 226T292 225Q367 225 412 259T458 360Q458 428 415 462T297 497Q289 497 267 497T221 496T185 493V551Q206
553 238 554T301 555T344 556Q448 556 509 506T570 360Q570 298 536 255T446 188T323 165Q309 165 282 165T227 166T185 166Z" />
<glyph unicode="&#xdf;" horiz-adv-x="664" d="M462 -10Q431 -10 401 -5T345 8T302 23L313 170L375 166V126Q375 119 378 104T386 71T395 39L344 92Q379 75 406 64T461 52Q493 52 513 68T533 116Q533 141 516 158T473 189T418 217T362 250T319 296T302 362Q302
403 319 429T360 474T409 511T451 552T468 609Q468 640 449 660T398 691T328 703Q280 703 257 684T225 630T217 546V176Q217 157 218 134T220 86T222 39T223 0H163Q149 0 128 -1T84 -3T41 -5L36 52L152 76L102 21Q105 42 108 66T113 112T116 146V578Q116 643 142
685T215 749T328 770Q388 770 439 754T522 702T553 611Q553 568 538 539T500 490T454 453T416 419T400 376Q400 356 417 341T460 313T516 284T571 251T614 205T631 139Q631 63 586 27T462 -10ZM45 433L42 483L131 496L132 433H45Z" />
<glyph unicode="&#xe0;" horiz-adv-x="531" d="M191 -10Q123 -10 84 26T45 123Q45 176 77 211T178 258L346 285V230L213 205Q183 201 169 184T154 140Q154 105 171 87T220 68Q262 68 293 95T332 163V317Q332 379 311 408T244 438Q225 438 202 434T158 423T126
409L162 463L148 377L149 335L84 332L72 480Q102 488 133 493T195 502T253 505Q346 505 389 457T433 304V176Q433 128 438 92T448 35L401 71L509 60L503 0H354L336 122L358 117Q351 83 328 54T269 7T191 -10ZM299 542L121 695L179 747L341 578L299 542Z" />
<glyph unicode="&#xe1;" horiz-adv-x="531" d="M191 -10Q123 -10 84 26T45 123Q45 176 77 211T178 258L346 285V230L213 205Q183 201 169 184T154 140Q154 105 171 87T220 68Q262 68 293 95T332 163V317Q332 379 311 408T244 438Q225 438 202 434T158 423T126
409L162 463L148 377L149 335L84 332L72 480Q102 488 133 493T195 502T253 505Q346 505 389 457T433 304V176Q433 128 438 92T448 35L401 71L509 60L503 0H354L336 122L358 117Q351 83 328 54T269 7T191 -10ZM201 544L158 580L320 749L378 697L201 544Z" />
<glyph unicode="&#xe2;" horiz-adv-x="531" d="M191 -10Q123 -10 84 26T45 123Q45 176 77 211T178 258L346 285V230L213 205Q183 201 169 184T154 140Q154 105 171 87T220 68Q262 68 293 95T332 163V317Q332 379 311 408T244 438Q225 438 202 434T158 423T126
409L162 463L148 377L149 335L84 332L72 480Q102 488 133 493T195 502T253 505Q346 505 389 457T433 304V176Q433 128 438 92T448 35L401 71L509 60L503 0H354L336 122L358 117Q351 83 328 54T269 7T191 -10ZM376 544L199 669L228 707H272L410 579L376 544ZM101
544L66 579L204 707H249L277 669L101 544Z" />
<glyph unicode="&#xe3;" horiz-adv-x="531" d="M191 -10Q123 -10 84 26T45 123Q45 176 77 211T178 258L346 285V230L213 205Q183 201 169 184T154 140Q154 105 171 87T220 68Q262 68 293 95T332 163V317Q332 379 311 408T244 438Q225 438 202 434T158 423T126
409L162 463L148 377L149 335L84 332L72 480Q102 488 133 493T195 502T253 505Q346 505 389 457T433 304V176Q433 128 438 92T448 35L401 71L509 60L503 0H354L336 122L358 117Q351 83 328 54T269 7T191 -10ZM361 560L323 583Q332 605 346 628T376 668T406 685Q427
685 456 675T515 655T565 645Q579 645 593 661T615 692L655 668Q652 664 645 649T625 615T599 583T570 570Q551 570 522 580T463 600T413 610Q399 610 384 593T361 560Z" />
<glyph unicode="&#xe4;" horiz-adv-x="531" d="M191 -10Q123 -10 84 26T45 123Q45 176 77 211T178 258L346 285V230L213 205Q183 201 169 184T154 140Q154 105 171 87T220 68Q262 68 293 95T332 163V317Q332 379 311 408T244 438Q225 438 202 434T158 423T126
409L162 463L148 377L149 335L84 332L72 480Q102 488 133 493T195 502T253 505Q346 505 389 457T433 304V176Q433 128 438 92T448 35L401 71L509 60L503 0H354L336 122L358 117Q351 83 328 54T269 7T191 -10ZM328 561Q301 561 286 577T271 623Q271 650 286 667T328
684Q355 684 370 668T385 623Q385 594 370 578T328 561ZM146 561Q119 561 104 577T89 623Q89 650 104 667T146 684Q172 684 187 668T203 623Q203 595 188 578T146 561Z" />
<glyph unicode="&#xe5;" horiz-adv-x="531" d="M191 -10Q123 -10 84 26T45 123Q45 176 77 211T178 258L346 285V230L213 205Q183 201 169 184T154 140Q154 105 171 87T220 68Q262 68 293 95T332 163V317Q332 379 311 408T244 438Q225 438 202 434T158 423T126
409L162 463L148 377L149 335L84 332L72 480Q102 488 133 493T195 502T253 505Q346 505 389 457T433 304V176Q433 128 438 92T448 35L401 71L509 60L503 0H354L336 122L358 117Q351 83 328 54T269 7T191 -10ZM238 541Q194 541 170 565T145 628Q145 669 169 693T238
717Q282 717 305 693T329 628Q329 589 306 565T238 541ZM238 585Q259 585 268 597T278 628Q278 647 269 660T238 673Q218 673 209 660T199 628Q199 610 208 598T238 585Z" />
<glyph unicode="&#xe6;" horiz-adv-x="780" d="M194 -10Q126 -10 86 27T45 126Q45 239 166 255L346 281V224L213 202Q181 197 168 182T154 137Q154 103 171 86T220 68Q253 68 278 85T317 133T332 203V315Q332 440 244 440Q225 440 203 436T163 424T132 406L161
465L147 375V335L84 332L72 478Q118 490 165 496T253 503Q371 503 410 423L374 424Q436 502 543 502Q635 502 685 451T739 299L723 261L419 232L421 289L671 319L626 268V318Q626 378 603 409T537 441Q489 441 462 397T435 270L433 252Q433 193 449 151T497 86T573
64Q615 64 651 77T705 102L736 52Q729 46 713 36T672 14T618 -4T552 -12Q481 -12 431 23T356 126L388 128Q353 58 306 24T194 -10Z" />
<glyph unicode="&#xe7;" horiz-adv-x="495" d="M282 -12Q204 -12 151 19T72 109T45 247Q45 325 72 383T152 473T281 505Q325 505 362 496T445 474L433 331L366 334V376Q366 389 362 408T350 445L393 399Q368 415 340 428T284 441Q241 441 214 415T175 346T162
247Q162 195 175 154T218 89T293 64Q328 64 360 73T425 99L455 48Q415 18 371 3T282 -12ZM201 -247L193 -210Q231 -208 259 -192T287 -152Q287 -136 272 -128T229 -118L218 -109L245 17H293L255 -97L238 -53Q295 -61 321 -86T348 -143Q348 -162 337 -183T305 -220Q286
-234 260 -240T201 -247Z" />
<glyph unicode="&#xe8;" horiz-adv-x="513" d="M280 -12Q205 -12 153 20T73 110T45 245Q45 324 71 382T148 472T271 505Q341 505 385 476T449 393T468 267L450 232H144V289L400 306L351 258Q352 274 353 289T355 321Q355 376 333 410T265 444Q234 444 213 428T181
384T166 322T161 252Q161 212 168 178T192 118T233 78T293 63Q337 63 375 76T434 102L463 52Q457 46 442 36T404 15T350 -4T280 -12ZM332 542L154 695L212 747L374 578L332 542Z" />
<glyph unicode="&#xe9;" horiz-adv-x="513" d="M280 -12Q205 -12 153 20T73 110T45 245Q45 324 71 382T148 472T271 505Q341 505 385 476T449 393T468 267L450 232H144V289L400 306L351 258Q352 274 353 289T355 321Q355 376 333 410T265 444Q234 444 213 428T181
384T166 322T161 252Q161 212 168 178T192 118T233 78T293 63Q337 63 375 76T434 102L463 52Q457 46 442 36T404 15T350 -4T280 -12ZM234 544L191 580L353 749L411 697L234 544Z" />
<glyph unicode="&#xea;" horiz-adv-x="513" d="M280 -12Q205 -12 153 20T73 110T45 245Q45 324 71 382T148 472T271 505Q341 505 385 476T449 393T468 267L450 232H144V289L400 306L351 258Q352 274 353 289T355 321Q355 376 333 410T265 444Q234 444 213 428T181
384T166 322T161 252Q161 212 168 178T192 118T233 78T293 63Q337 63 375 76T434 102L463 52Q457 46 442 36T404 15T350 -4T280 -12ZM409 544L232 669L261 707H305L443 579L409 544ZM134 544L99 579L237 707H282L310 669L134 544Z" />
<glyph unicode="&#xeb;" horiz-adv-x="513" d="M280 -12Q205 -12 153 20T73 110T45 245Q45 324 71 382T148 472T271 505Q341 505 385 476T449 393T468 267L450 232H144V289L400 306L351 258Q352 274 353 289T355 321Q355 376 333 410T265 444Q234 444 213 428T181
384T166 322T161 252Q161 212 168 178T192 118T233 78T293 63Q337 63 375 76T434 102L463 52Q457 46 442 36T404 15T350 -4T280 -12ZM362 561Q335 561 320 577T305 623Q305 650 320 667T362 684Q389 684 404 668T419 623Q419 594 404 578T362 561ZM180 561Q153
561 138 577T123 623Q123 650 138 667T180 684Q206 684 221 668T237 623Q237 595 222 578T180 561Z" />
<glyph unicode="&#xec;" horiz-adv-x="326" d="M44 -5L39 52L157 75L105 29Q108 40 111 62T118 109T121 146V343Q121 357 119 380T112 429T105 471L156 413L36 433L42 494H211L231 476Q230 458 228 429T225 369T224 313V176Q224 132 228 91T235 29L185 71L304
60L298 0H158Q150 0 130 -1T87 -3T44 -5ZM461 542L283 695L341 747L503 578L461 542Z" />
<glyph unicode="&#xed;" horiz-adv-x="326" d="M44 -5L39 52L157 75L105 29Q108 40 111 62T118 109T121 146V343Q121 357 119 380T112 429T105 471L156 413L36 433L42 494H211L231 476Q230 458 228 429T225 369T224 313V176Q224 132 228 91T235 29L185 71L304
60L298 0H158Q150 0 130 -1T87 -3T44 -5ZM108 544L65 580L227 749L285 697L108 544Z" />
<glyph unicode="&#xee;" horiz-adv-x="326" d="M44 -5L39 52L157 75L105 29Q108 40 111 62T118 109T121 146V343Q121 357 119 380T112 429T105 471L156 413L36 433L42 494H211L231 476Q230 458 228 429T225 369T224 313V176Q224 132 228 91T235 29L185 71L304
60L298 0H158Q150 0 130 -1T87 -3T44 -5ZM295 546L258 573L368 707H433L543 573L506 546L368 672H433L295 546Z" />
<glyph unicode="&#xef;" horiz-adv-x="326" d="M44 -5L39 52L157 75L105 29Q108 40 111 62T118 109T121 146V343Q121 357 119 380T112 429T105 471L156 413L36 433L42 494H211L231 476Q230 458 228 429T225 369T224 313V176Q224 132 228 91T235 29L185 71L304
60L298 0H158Q150 0 130 -1T87 -3T44 -5ZM322 560Q296 560 281 577T266 623Q266 650 280 667T322 685Q346 685 361 669T377 623Q377 595 362 578T322 560ZM469 560Q442 560 428 577T414 623Q414 651 428 668T469 685Q494 685 509 669T524 623Q524 594 510 577T469
560Z" />
<glyph unicode="&#xf0;" horiz-adv-x="571" d="M279 -12Q204 -12 152 19T71 107T43 238Q43 310 70 365T146 452T260 483Q285 483 304 477T335 465L326 411Q317 413 304 414T277 415Q234 415 209 389T172 322T161 236Q161 191 171 150T208 84T279 58Q326 58 352
86T389 161T401 261Q401 366 380 453T309 608T176 719L196 767Q299 730 370 652T479 471T517 252Q517 173 490 114T410 21T279 -12ZM193 541L167 589L288 651L321 607L193 541ZM369 631L331 673L454 738L480 688L369 631Z" />
<glyph unicode="&#xf1;" horiz-adv-x="639" d="M44 -5L39 52L157 75L105 29Q108 40 111 62T118 109T121 146V343Q121 357 118 382T111 431T105 467L156 413L36 433L42 494H183L203 476L222 313L192 375Q210 414 234 443T292 488T367 505Q432 505 468 480T519 408T535
296V176Q535 133 539 94T547 35L498 71L617 60L611 0H476Q469 0 450 -1T409 -3T368 -5L363 52L470 76L421 39Q424 52 427 72T432 112T434 146V290Q434 327 426 359T398 410T341 430Q290 430 257 386T224 271V176Q224 132 228 91T235 29L185 71L304 60L298 0H158Q150
0 130 -1T87 -3T44 -5ZM205 560L167 583Q176 605 190 628T220 668T250 685Q271 685 300 675T359 655T409 645Q423 645 437 661T459 692L499 668Q496 664 489 649T469 615T443 583T414 570Q395 570 366 580T307 600T257 610Q243 610 228 593T205 560Z" />
<glyph unicode="&#xf2;" horiz-adv-x="562" d="M281 -12Q204 -12 152 20T72 110T45 246Q45 325 72 383T151 473T281 505Q397 505 456 436T516 246Q516 168 490 110T411 20T281 -12ZM281 54Q326 54 352 79T390 148T402 246Q402 301 391 344T353 413T281 439Q236
439 210 414T172 345T160 246Q160 192 171 149T209 80T281 54ZM341 542L163 695L221 747L383 578L341 542Z" />
<glyph unicode="&#xf3;" horiz-adv-x="562" d="M281 -12Q204 -12 152 20T72 110T45 246Q45 325 72 383T151 473T281 505Q397 505 456 436T516 246Q516 168 490 110T411 20T281 -12ZM281 54Q326 54 352 79T390 148T402 246Q402 301 391 344T353 413T281 439Q236
439 210 414T172 345T160 246Q160 192 171 149T209 80T281 54ZM243 544L200 580L362 749L420 697L243 544Z" />
<glyph unicode="&#xf4;" horiz-adv-x="562" d="M281 -12Q204 -12 152 20T72 110T45 246Q45 325 72 383T151 473T281 505Q397 505 456 436T516 246Q516 168 490 110T411 20T281 -12ZM281 54Q326 54 352 79T390 148T402 246Q402 301 391 344T353 413T281 439Q236
439 210 414T172 345T160 246Q160 192 171 149T209 80T281 54ZM418 544L241 669L270 707H314L452 579L418 544ZM143 544L108 579L246 707H291L319 669L143 544Z" />
<glyph unicode="&#xf5;" horiz-adv-x="562" d="M281 -12Q204 -12 152 20T72 110T45 246Q45 325 72 383T151 473T281 505Q397 505 456 436T516 246Q516 168 490 110T411 20T281 -12ZM281 54Q326 54 352 79T390 148T402 246Q402 301 391 344T353 413T281 439Q236
439 210 414T172 345T160 246Q160 192 171 149T209 80T281 54ZM147 560L109 583Q118 605 132 628T162 668T192 685Q213 685 242 675T301 655T351 645Q365 645 379 661T401 692L441 668Q438 664 431 649T411 615T385 583T356 570Q337 570 308 580T249 600T199 610Q185
610 170 593T147 560Z" />
<glyph unicode="&#xf6;" horiz-adv-x="562" d="M281 -12Q204 -12 152 20T72 110T45 246Q45 325 72 383T151 473T281 505Q397 505 456 436T516 246Q516 168 490 110T411 20T281 -12ZM281 54Q326 54 352 79T390 148T402 246Q402 301 391 344T353 413T281 439Q236
439 210 414T172 345T160 246Q160 192 171 149T209 80T281 54ZM370 561Q343 561 328 577T313 623Q313 650 328 667T370 684Q397 684 412 668T427 623Q427 594 412 578T370 561ZM188 561Q161 561 146 577T131 623Q131 650 146 667T188 684Q214 684 229 668T245 623Q245
595 230 578T188 561Z" />
<glyph unicode="&#xf7;" horiz-adv-x="635" d="M90 209V289L545 293V212L90 209ZM317 2Q286 2 270 21T253 71Q253 102 269 121T317 141Q348 141 365 123T382 71Q382 40 365 21T317 2ZM317 358Q286 358 270 377T253 428Q253 459 269 478T317 498Q348 498 365 480T382
428Q382 397 365 378T317 358Z" />
<glyph unicode="&#xf8;" horiz-adv-x="562" d="M117 -101L72 -78L427 596L474 573L117 -101ZM282 -12Q205 -12 152 20T73 110T46 246Q46 325 72 383T152 473T282 505Q398 505 457 436T517 246Q517 168 490 110T411 20T282 -12ZM282 54Q327 54 353 79T391 148T402
246Q402 301 391 344T354 413T282 439Q237 439 211 414T172 345T160 246Q160 192 172 149T210 80T282 54Z" />
<glyph unicode="&#xf9;" horiz-adv-x="603" d="M262 -8Q197 -8 161 17T110 90T95 202V343Q95 354 93 374T87 417T80 460L129 413L23 433L29 494H185L205 476Q203 452 201 421T198 361T197 313V185Q197 135 216 102T287 69Q322 69 348 89T388 143T402 219V343Q402
354 400 373T395 416T389 458L437 413L320 433L326 494H492L512 476Q511 452 509 421T506 361T505 313V176Q505 137 509 99T517 21L468 71L580 60L574 0H425L407 123L426 99Q414 77 394 53T343 10T262 -8ZM339 542L161 695L219 747L381 578L339 542Z" />
<glyph unicode="&#xfa;" horiz-adv-x="603" d="M262 -8Q197 -8 161 17T110 90T95 202V343Q95 354 93 374T87 417T80 460L129 413L23 433L29 494H185L205 476Q203 452 201 421T198 361T197 313V185Q197 135 216 102T287 69Q322 69 348 89T388 143T402 219V343Q402
354 400 373T395 416T389 458L437 413L320 433L326 494H492L512 476Q511 452 509 421T506 361T505 313V176Q505 137 509 99T517 21L468 71L580 60L574 0H425L407 123L426 99Q414 77 394 53T343 10T262 -8ZM242 544L199 580L361 749L419 697L242 544Z" />
<glyph unicode="&#xfb;" horiz-adv-x="603" d="M262 -8Q197 -8 161 17T110 90T95 202V343Q95 354 93 374T87 417T80 460L129 413L23 433L29 494H185L205 476Q203 452 201 421T198 361T197 313V185Q197 135 216 102T287 69Q322 69 348 89T388 143T402 219V343Q402
354 400 373T395 416T389 458L437 413L320 433L326 494H492L512 476Q511 452 509 421T506 361T505 313V176Q505 137 509 99T517 21L468 71L580 60L574 0H425L407 123L426 99Q414 77 394 53T343 10T262 -8ZM416 544L239 669L268 707H312L450 579L416 544ZM141 544L106
579L244 707H289L317 669L141 544Z" />
<glyph unicode="&#xfc;" horiz-adv-x="603" d="M262 -8Q197 -8 161 17T110 90T95 202V343Q95 354 93 374T87 417T80 460L129 413L23 433L29 494H185L205 476Q203 452 201 421T198 361T197 313V185Q197 135 216 102T287 69Q322 69 348 89T388 143T402 219V343Q402
354 400 373T395 416T389 458L437 413L320 433L326 494H492L512 476Q511 452 509 421T506 361T505 313V176Q505 137 509 99T517 21L468 71L580 60L574 0H425L407 123L426 99Q414 77 394 53T343 10T262 -8ZM369 561Q342 561 327 577T312 623Q312 650 327 667T369
684Q396 684 411 668T426 623Q426 594 411 578T369 561ZM187 561Q160 561 145 577T130 623Q130 650 145 667T187 684Q213 684 228 668T244 623Q244 595 229 578T187 561Z" />
<glyph unicode="&#xfd;" horiz-adv-x="585" d="M250 -244L171 -222L167 -209Q184 -180 196 -155T220 -103T244 -41T275 43L276 -42L123 330Q109 366 91 401T56 470L120 420L21 435L27 494H257L261 436L153 425L188 474Q195 444 202 413T220 351L322 80H292L384
344Q396 375 403 408T416 474L452 423L344 439L349 494H560L563 436L466 424L530 472Q513 434 495 397T463 322L250 -244ZM258 544L215 580L377 749L435 697L258 544Z" />
<glyph unicode="&#xfe;" horiz-adv-x="562" d="M14 -233L9 -179L115 -156L63 -199Q66 -188 69 -166T76 -119T79 -82V605Q79 619 76 644T69 693T63 729L114 675L-6 702L0 760L101 756H169L189 738Q188 715 186 690T183 641T182 600L181 364L156 379Q167 416 192
443T249 487T317 503Q413 503 465 439T517 255Q517 176 487 117T404 24T279 -10Q252 -10 223 -4T165 14V100Q193 81 220 72T271 63Q336 63 369 110T402 249Q402 337 375 380T293 424Q242 424 212 384T182 275V-52Q182 -96 186 -137T193 -199L143 -161L281 -172L275
-228H116Q108 -228 91 -229T54 -231T14 -233Z" />
<glyph unicode="&#xff;" horiz-adv-x="585" d="M250 -244L171 -222L167 -209Q184 -180 196 -155T220 -103T244 -41T275 43L276 -42L123 330Q109 366 91 401T56 470L120 420L21 435L27 494H257L261 436L153 425L188 474Q195 444 202 413T220 351L322 80H292L384
344Q396 375 403 408T416 474L452 423L344 439L349 494H560L563 436L466 424L530 472Q513 434 495 397T463 322L250 -244ZM386 561Q359 561 344 577T329 623Q329 650 344 667T386 684Q413 684 428 668T443 623Q443 594 428 578T386 561ZM204 561Q177 561 162 577T147
623Q147 650 162 667T204 684Q230 684 245 668T261 623Q261 595 246 578T204 561Z" />
<glyph unicode="&#x2013;" horiz-adv-x="651" d="M76 217L74 292H578L573 217H76Z" />
<glyph unicode="&#x2014;" horiz-adv-x="1153" d="M76 217L74 292H1080L1075 217H76Z" />
<glyph unicode="&#x2018;" horiz-adv-x="333" d="M213 803L229 768Q194 742 180 704T175 614L135 643Q166 656 190 650T229 624T244 576Q244 544 223 519T169 493Q129 493 111 525T92 600Q92 641 104 682T143 756T213 803Z" />
<glyph unicode="&#x2019;" horiz-adv-x="333" d="M120 461L104 496Q139 523 153 561T158 650L197 621Q168 608 143 614T104 640T89 688Q89 720 110 745T164 771Q205 771 223 739T241 664Q241 623 229 582T190 508T120 461Z" />
<glyph unicode="&#x201a;" horiz-adv-x="333" d="M120 -161L104 -126Q139 -99 153 -61T158 28L197 -1Q168 -14 143 -8T104 18T89 66Q89 98 110 123T164 149Q205 149 223 117T241 42Q241 1 229 -40T190 -114T120 -161Z" />
<glyph unicode="&#x201c;" horiz-adv-x="525" d="M468 803L484 768Q449 742 435 704T430 614L390 643Q421 656 445 650T484 624T499 576Q499 544 478 519T424 493Q384 493 366 525T347 600Q347 641 359 682T398 756T468 803ZM407 802L423 767Q388 741 374 703T369
613L329 642Q360 655 384 649T423 623T438 575Q438 543 417 518T363 492Q323 492 305 524T286 599Q286 640 298 681T337 755T407 802Z" />
<glyph unicode="&#x201d;" horiz-adv-x="526" d="M375 712L359 747Q394 774 408 812T413 901L452 872Q423 859 398 865T359 891T344 939Q344 971 365 996T419 1022Q460 1022 478 990T496 915Q496 874 484 833T445 759T375 712ZM314 456L298 491Q333 518 347 556T352
645L391 616Q362 603 337 609T298 635T283 683Q283 715 304 740T358 766Q399 766 417 734T435 659Q435 618 423 577T384 503T314 456Z" />
<glyph unicode="&#x201e;" horiz-adv-x="526" d="M119 -161L103 -126Q138 -99 152 -61T157 28L196 -1Q167 -14 142 -8T103 18T88 66Q88 98 109 123T163 149Q204 149 222 117T240 42Q240 1 228 -40T189 -114T119 -161ZM314 -161L298 -126Q333 -99 347 -61T352 28L391
-1Q362 -14 337 -8T298 18T283 66Q283 98 304 123T358 149Q399 149 417 117T435 42Q435 1 423 -40T384 -114T314 -161Z" />
<glyph unicode="&#x2022;" horiz-adv-x="365" d="M182 162Q141 162 119 187T97 253Q97 294 119 320T182 346Q222 346 244 322T267 253Q267 213 245 188T182 162Z" />
<glyph unicode="&#x2039;" horiz-adv-x="349" d="M232 35L61 252L232 470L271 443L146 211V293L271 61L232 35Z" />
<glyph unicode="&#x203a;" horiz-adv-x="350" d="M117 34L77 61L202 293V211L77 443L117 469L288 252L117 34Z" />
</font>
</defs>
</svg>
