<?xml version="1.0" standalone="no"?>
<!DOCTYPE svg PUBLIC "-//W3C//DTD SVG 1.1//EN" "http://www.w3.org/Graphics/SVG/1.1/DTD/svg11.dtd">
<svg xmlns="http://www.w3.org/2000/svg">
<defs >
<font id="AndadaPro" horiz-adv-x="510" ><font-face
    font-family="Andada Pro"
    units-per-em="1000"
    panose-1="0 0 0 0 0 0 0 0 0 0"
    ascent="942"
    descent="-235"
    alphabetic="0" />
<glyph unicode=" " horiz-adv-x="228" />
<glyph unicode="!" horiz-adv-x="299" d="M166 216L95 219L109 285L191 764L268 771L284 754Q276 718 265 668T242 562T219 456T201 365T190 307L176 221L166 216ZM92 -10Q71 -10 60 3T49 38Q49 73 68 94T117 116Q137 116 148 103T160 68Q160 35 141 13T92 -10Z" />
<glyph unicode="&quot;" horiz-adv-x="441" d="M189 463L132 466L150 560Q151 565 154 589T160 646T166 706H248L189 463ZM342 463L285 466L303 560Q304 565 307 589T313 646T319 706H401L342 463Z" />
<glyph unicode="#" horiz-adv-x="634" d="M163 -15L107 -5L272 572L329 562L163 -15ZM52 151L61 215L545 220L536 151H52ZM365 -15L309 -5L474 572L531 562L365 -15ZM96 338L106 407H589L581 343L96 338Z" />
<glyph unicode="$" horiz-adv-x="542" d="M227 -13Q170 -13 129 -2T65 21T42 33L74 172L135 167L127 123Q127 119 127 103T128 71T131 47L111 73Q133 62 165 52T236 42Q292 42 328 76T364 164Q364 196 346 218T299 259T238 294T177 333T130 382T112 452Q112 507
139 549T215 616T327 640Q368 640 413 632T500 612L467 476L416 481L421 521Q422 528 421 540T418 567T414 595L442 559Q420 572 401 578T363 587T319 590Q272 590 240 559T207 480Q207 450 225 428T273 388T334 352T396 312T443 260T462 187Q462 128 433 83T351
13T227 -13ZM217 -154L174 -151L204 15H247L217 -154ZM310 616L340 788L382 785L352 616H310Z" />
<glyph unicode="%" horiz-adv-x="928" d="M193 294Q148 294 120 314T79 370T66 450Q66 517 86 575T147 668T247 704Q293 704 320 684T361 628T374 548Q374 482 354 424T293 330T193 294ZM199 338Q227 338 249 367T284 448T297 563Q297 660 242 660Q217 660 198
640T168 585T150 511T144 433Q144 387 157 363T199 338ZM213 -49L171 -18L700 721L742 690L213 -49ZM706 -6Q661 -6 633 14T592 70T579 150Q579 217 599 275T660 368T760 404Q806 404 833 384T874 328T887 248Q887 182 867 124T806 30T706 -6ZM712 38Q740 38 762
67T797 148T810 263Q810 360 755 360Q730 360 711 340T681 285T663 211T657 133Q657 87 670 63T712 38Z" />
<glyph unicode="&amp;" horiz-adv-x="841" d="M202 -10Q138 -10 106 31T73 153Q73 198 88 246T130 341T189 423T257 481T324 503Q389 503 419 482T450 415Q450 398 439 380T405 342T344 298Q299 288 254 278T164 256Q235 274 281 295T351 341T374 397Q374 426
358 436T298 447Q275 447 250 421T203 352T168 260T154 166Q154 108 174 84T245 60Q288 60 331 82T412 141T481 227T528 328T545 433Q545 480 535 529T503 625L591 651Q602 606 607 572T612 505Q612 425 591 349T531 208T440 94T328 18T202 -10ZM153 205L155 255Q245
270 332 303T498 380T643 472T755 565L810 515L804 485Q714 446 635 404T481 323T326 253T153 205Z" />
<glyph unicode="&apos;" horiz-adv-x="288" d="M189 463L132 466L150 560Q151 565 154 589T160 646T166 706H248L189 463Z" />
<glyph unicode="(" horiz-adv-x="384" d="M244 -103Q175 -20 137 77T99 284Q99 441 169 576T355 821L377 801Q318 719 275 632T207 453T183 268Q183 180 204 91T267 -89L244 -103Z" />
<glyph unicode=")" horiz-adv-x="385" d="M167 818Q236 735 274 638T312 431Q312 274 242 139T56 -106L34 -86Q93 -3 136 84T204 262T228 447Q228 535 207 624T144 804L167 818Z" />
<glyph unicode="*" horiz-adv-x="464" d="M171 429L121 471L255 602L289 573L171 429ZM270 560L110 607L139 675L290 605L270 560ZM334 426L255 569L297 601L392 471L334 426ZM246 582L257 755L325 759L294 584L246 582ZM271 561L262 606L431 675L444 609L271 561Z" />
<glyph unicode="+" horiz-adv-x="692" d="M279 0L344 511H411L351 0H279ZM90 220L99 292H604L596 225L90 220Z" />
<glyph unicode="," horiz-adv-x="298" d="M30 -150L27 -118Q65 -102 92 -66T119 13L151 -8Q145 -9 140 -10T130 -11Q105 -11 92 4T78 45Q78 79 98 103T148 127Q172 127 181 109T191 67Q191 19 169 -27T109 -107T30 -150Z" />
<glyph unicode="-" horiz-adv-x="358" d="M67 225L74 286H296L282 225H67Z" />
<glyph unicode="." horiz-adv-x="305" d="M116 -10Q94 -10 82 4T70 43Q70 79 91 103T143 127Q165 127 177 113T189 74Q189 38 169 14T116 -10Z" />
<glyph unicode="/" horiz-adv-x="397" d="M34 -67L-25 -48L390 773L448 754L34 -67Z" />
<glyph unicode="0" horiz-adv-x="575" d="M251 -10Q181 -10 139 23T77 113T57 240Q57 321 75 397T129 532T218 627T342 662Q412 662 454 629T515 540T535 414Q535 332 517 256T463 120T374 25T251 -10ZM259 48Q299 48 332 75T391 154T429 274T443 426Q443 474
434 514T401 580T334 605Q296 605 266 583T214 523T178 435T157 331T150 221Q150 175 159 136T193 72T259 48Z" />
<glyph unicode="1" horiz-adv-x="405" d="M14 -5L16 43L187 65L143 26Q147 42 153 64T165 106T172 134L230 561L257 545L86 467L66 507L286 672L329 660Q329 660 326 641T317 593T307 530T297 469T290 426L255 164Q251 129 249 98T246 26L213 62L355 52L341 0H184Q179
0 159 0T111 -2T57 -3T14 -5Z" />
<glyph unicode="2" d="M402 -3L286 0H20L16 70Q108 156 172 216T276 320T338 394T368 451T376 507Q376 554 350 582T280 610Q248 610 220 601T153 567L192 615Q187 601 180 583T169 550T163 530L158 484L106 482L113 626Q166 646 206 654T297 662Q379 662 424
627T469 527Q469 476 449 429T382 327T258 204T69 40L70 69H287Q296 69 316 71T361 75T404 81L351 45Q358 57 364 66T375 85T388 110L398 158L451 154L423 17L402 -3Z" />
<glyph unicode="3" horiz-adv-x="447" d="M-20 -105L-30 -54Q34 -43 93 -21T198 32T271 101T298 185Q298 233 267 262T181 291Q153 291 134 290T115 288L107 334Q170 342 217 361T291 418T317 513Q317 560 295 585T228 611Q197 611 176 603T124 571L162 622Q157
608 150 590T138 558T132 537L128 493L75 490L83 633Q129 649 165 655T239 662Q322 662 365 628T409 528Q409 457 365 404T242 326V343Q290 332 323 311T373 260T390 191Q390 136 360 87T274 -1T144 -68T-20 -105Z" />
<glyph unicode="4" horiz-adv-x="524" d="M60 203L26 252L442 739L502 691Q502 691 488 678T453 643T408 600T368 559T345 534L102 224L91 251L335 255L327 203H60ZM182 -5L184 43L321 65L274 26Q282 49 292 81T305 135L341 402L418 427L383 168Q379 137 378 104T375
26L342 62L455 52L441 0H317Q305 0 282 -1T232 -3T182 -5ZM373 203L382 259L487 266L477 203H373Z" />
<glyph unicode="5" horiz-adv-x="457" d="M6 -105L-4 -54Q145 -34 226 31T308 191Q308 244 276 271T184 299Q167 299 144 297T89 286L57 304L120 634L140 652H206L441 662L437 601L233 577H172L126 327L111 348Q131 353 156 357T210 362Q298 362 349 323T400 207Q400
124 353 58T217 -51T6 -105Z" />
<glyph unicode="6" horiz-adv-x="531" d="M239 -11Q143 -11 95 47T46 197Q46 292 83 381T186 547T340 675T530 747L535 698Q439 670 365 619T240 499T163 355T136 202Q136 161 147 125T183 66T247 43Q287 43 320 68T373 135T393 228Q393 278 368 311T291 345Q275
345 260 344T227 340L226 385Q246 392 266 397T307 402Q391 402 437 359T484 236Q484 178 463 133T406 55T327 6T239 -11Z" />
<glyph unicode="7" horiz-adv-x="485" d="M124 -105L52 -82L329 426Q335 437 344 459T364 508T386 564T407 617L427 585H232Q222 585 201 584T157 580T113 576L168 610Q161 598 153 585T138 561T131 546L119 495L66 499L96 641L117 661Q117 661 131 660T166 657T206
654T233 652H490L499 616L124 -105Z" />
<glyph unicode="8" horiz-adv-x="521" d="M225 -10Q174 -10 131 6T61 55T34 140Q34 175 48 207T92 270T167 329T275 382L294 349Q269 338 240 319T183 274T139 216T122 144Q122 94 152 64T232 34Q271 34 303 53T355 105T375 176Q375 211 358 235T312 279T251 317Q213
339 180 363T126 418T105 496Q105 543 124 577T175 635T245 670T320 682Q366 682 404 666T466 618T490 540Q490 498 470 463T419 399T351 350T282 316L270 348Q305 370 330 393T373 440T398 488T407 537Q407 581 381 610T313 639Q284 639 255 621T207 573T188 507Q188
473 206 449T253 405T314 366Q349 346 383 323T440 267T463 186Q463 144 446 109T398 46T322 5T225 -10Z" />
<glyph unicode="9" horiz-adv-x="531" d="M25 -107L18 -57Q113 -27 186 25T308 145T383 290T409 445Q409 487 398 524T362 585T298 609Q259 609 227 584T175 518T155 429Q155 379 183 343T262 306Q278 306 292 306T323 309L324 265Q308 258 287 254T246 249Q164
249 113 294T62 419Q62 469 81 512T133 590T212 643T308 662Q405 662 453 603T502 451Q502 352 466 261T366 95T214 -32T25 -107Z" />
<glyph unicode=":" horiz-adv-x="267" d="M151 345Q131 345 120 358T109 392Q109 426 128 448T178 471Q198 471 209 459T220 423Q220 389 201 367T151 345ZM85 -10Q64 -10 54 3T43 38Q43 72 62 94T111 117Q131 117 142 105T153 69Q153 35 134 13T85 -10Z" />
<glyph unicode=";" horiz-adv-x="279" d="M162 340Q140 340 128 354T116 393Q116 429 137 453T189 477Q211 477 223 463T235 424Q235 388 215 364T162 340ZM264 -150L261 -118Q299 -102 326 -66T353 13L385 -8Q379 -9 374 -10T364 -11Q339 -11 326 4T312 45Q312
79 332 103T382 127Q406 127 415 109T425 67Q425 19 403 -27T343 -107T264 -150Z" />
<glyph unicode="&lt;" horiz-adv-x="525" d="M346 -15L85 247L414 513L458 462L154 227L160 269L404 36L346 -15Z" />
<glyph unicode="=" horiz-adv-x="720" d="M145 309L154 376H599L590 314L145 309ZM121 121L128 183L575 189L566 121H121Z" />
<glyph unicode="&gt;" horiz-adv-x="528" d="M114 -15L69 36L373 269L368 227L124 462L182 513L442 247L114 -15Z" />
<glyph unicode="?" horiz-adv-x="459" d="M174 216L109 219L128 391L154 414Q165 413 179 412T200 410Q253 410 287 435T339 503T356 596Q356 649 331 681T251 714Q228 714 202 708T147 690L206 724Q202 709 198 691T189 658T184 632L180 598H127L134 745Q170
756 202 761T263 767Q344 767 392 721T440 594Q440 523 410 468T325 381T196 350Q189 350 182 350T167 351L192 383L180 221L174 216ZM112 -10Q88 -10 75 5T61 45Q61 77 77 97T122 117Q146 117 158 102T171 63Q171 32 156 11T112 -10Z" />
<glyph unicode="@" horiz-adv-x="989" d="M441 -214Q326 -214 244 -172T119 -51T76 141Q76 254 108 349T203 516T354 627T555 667Q662 667 744 633T873 528T920 349Q920 281 898 218T833 105T731 23T596 -15L572 0Q577 30 580 59T587 124T598 213L604 194Q576
134 543 88T475 17T404 -9Q371 -9 348 7T313 56T301 139Q301 184 314 234T351 331T403 417T462 479T520 502Q537 502 564 499T616 493T651 489L650 405Q643 409 619 421T563 444T506 455Q486 455 465 425T424 346T393 245T381 145Q381 99 394 71T428 42Q448 42
472 68T523 136T571 231T607 337T623 437L625 488L695 502L716 490Q697 413 682 337T657 183T650 18L639 44Q704 51 749 91T818 196T842 342Q842 431 806 493T704 587T550 620Q456 620 384 582T264 476T191 324T166 144Q166 55 194 -12T285 -116T445 -154Q460 -154
486 -151T541 -141T596 -130T640 -121T657 -117L662 -146Q665 -145 649 -152T605 -169T547 -189T487 -207T441 -214Z" />
<glyph unicode="A" horiz-adv-x="689" d="M1 -5L4 42L101 69L59 45Q64 51 77 73T105 122T128 168L374 705L430 715L554 138Q556 128 562 108T575 68T584 41L542 69L635 53L623 0H528Q515 0 490 -1T438 -3T386 -5L390 42L497 73L466 33Q465 48 464 73T460 124T454
170L375 576H385L184 139Q180 129 174 111T163 75T156 43L126 68L227 53L215 0H133Q121 0 98 -1T49 -3T1 -5ZM214 236L235 284L448 288L451 236H214Z" />
<glyph unicode="B" horiz-adv-x="596" d="M9 -5L11 44L125 67L82 31Q86 43 92 64T103 105T110 135L174 572Q175 581 175 601T176 643T177 678L210 640L102 658L115 710Q134 709 157 708T201 706T230 705Q250 705 278 706T335 709T384 710Q431 710 470 693T534
643T559 566Q559 512 534 470T465 400T369 365L398 404L387 329L366 366Q441 362 489 321T537 208Q537 144 507 96T426 22T313 -5Q288 -5 258 -4T199 -1T143 0Q131 0 108 -1T58 -3T9 -5ZM191 34L174 60Q187 58 204 56T241 53T283 51Q350 51 395 93T440 211Q440
276 396 307T290 338H279L294 393H301Q346 393 384 412T446 466T469 554Q469 601 442 629T368 658Q344 658 315 656T253 652L282 667Q280 657 275 634T264 584T255 538L201 165Q199 148 196 121T192 69T191 34Z" />
<glyph unicode="C" horiz-adv-x="629" d="M334 -15Q247 -15 187 22T96 126T64 281Q64 374 88 454T158 593T273 686T431 720Q491 720 536 709T626 686L596 540L539 544L546 590Q547 595 546 610T544 643T540 675L576 634Q539 645 501 655T423 665Q360 665 312 634T230
549T179 427T162 283Q162 215 183 160T244 72T341 40Q382 40 421 49T501 69L455 31Q461 46 468 63T480 95T489 120Q491 131 493 143T497 166L554 168L538 19Q490 7 442 -4T334 -15Z" />
<glyph unicode="D" horiz-adv-x="715" d="M9 -5L11 44L125 67L83 34Q87 47 92 65T103 103T110 135L174 572Q175 582 175 604T176 647T176 675L210 640L102 658L115 710Q130 709 151 708T194 706T230 705Q250 705 277 706T332 709T380 710Q475 710 541 674T643
573T678 418Q678 295 632 200T500 50T296 -5Q259 -5 219 -3T143 0Q131 0 106 -1T54 -3T9 -5ZM190 29L163 56Q172 56 199 55T256 53T306 52Q377 52 429 81T516 161T567 276T584 411Q584 478 563 532T497 619T383 652Q365 652 327 652T253 648L282 662Q280 654 275
632T264 583T255 538L201 165Q199 147 196 117T192 62T190 29Z" />
<glyph unicode="E" horiz-adv-x="584" d="M9 -5L11 44L125 67L81 23Q84 35 90 58T103 103T110 135L174 572Q175 582 175 602T176 641T176 666L210 640L102 658L115 710Q134 709 157 708T201 706T230 705H443Q451 705 470 706T513 708T555 710L571 692L558 563L502
558Q501 570 501 588T499 612Q499 618 494 629T481 652T466 676L509 644Q500 645 478 646T435 649T406 651H245L284 675Q282 666 276 640T264 585T255 538L229 360L200 394H347Q353 394 369 395T405 399T440 403L395 367L427 469L471 464Q461 409 454 361T441 272L394
266L399 368L431 331Q413 333 390 335T348 338T320 340H192L231 374L201 165Q199 149 196 121T192 64T190 20L158 55H332Q360 55 389 59T433 67L402 44Q413 57 426 73T443 100Q449 112 457 134T469 168L521 163L484 14L467 0Q439 0 406 0T353 0H143Q119 0 81 -1T9
-5Z" />
<glyph unicode="F" horiz-adv-x="558" d="M9 -5L11 44L125 67L82 32Q85 43 91 63T103 104T110 135L174 572Q175 582 175 602T176 641T176 666L210 640L102 658L115 710Q134 709 157 708T201 706T230 705H443Q451 705 470 706T513 708T555 710L571 692L558 563L502
558Q501 570 501 588T499 612Q499 618 494 629T481 652T466 676L509 644Q500 645 478 646T435 649T406 651H245L284 675Q282 666 276 640T264 585T255 538L229 360L197 384H343Q349 384 365 385T402 389T437 393L392 357L424 459L468 454Q458 399 450 351T438 262L391
256L396 358L428 321Q410 323 387 325T345 328T317 330H189L231 374L201 165Q199 150 197 123T193 69T191 31L158 63L289 53L275 0H143Q131 0 108 -1T58 -3T9 -5Z" />
<glyph unicode="G" horiz-adv-x="675" d="M349 -15Q257 -15 193 22T96 127T63 284Q63 377 88 456T162 594T282 687T446 720Q510 720 559 709T654 686L623 540L568 547L574 590Q575 596 574 609T570 639T565 667L590 633Q558 645 515 655T435 665Q368 665 317 635T231
551T178 430T160 287Q160 218 182 162T247 73T355 40Q390 40 435 49T515 69L489 29L516 196Q517 202 517 223T517 268T516 302L550 265L415 276L428 331H536Q547 331 567 332T604 334L618 317Q613 292 607 260T595 201T587 164L566 19Q515 7 464 -4T349 -15Z" />
<glyph unicode="H" horiz-adv-x="753" d="M417 -5L419 44L533 67L489 22Q493 36 499 58T511 103T518 135L582 572Q583 581 583 602T584 647T584 681L618 640L510 658L523 710Q542 709 565 708T609 706T638 705Q663 705 699 707T767 710L762 653L651 643L694 681Q691
669 685 643T672 588T663 538L609 165Q607 148 605 122T601 69T600 27L566 63L687 53L673 0H551Q539 0 516 -1T466 -3T417 -5ZM9 -5L11 44L125 67L81 22Q85 36 91 59T103 103T110 135L174 572Q175 581 175 602T176 647T176 681L210 640L102 658L115 710Q134 709
157 708T201 706T230 705Q255 705 291 707T359 710L354 653L243 643L286 681Q283 669 277 643T264 588T255 538L201 165Q199 148 197 122T193 69T192 27L158 63L279 53L265 0H143Q131 0 108 -1T58 -3T9 -5ZM198 329L206 377L579 382L571 329H198Z" />
<glyph unicode="I" horiz-adv-x="345" d="M9 -5L11 44L125 67L81 22Q85 36 91 59T103 103T110 135L174 572Q175 581 175 602T176 647T176 681L210 640L102 658L115 710Q134 709 157 708T201 706T230 705Q255 705 291 707T359 710L354 653L243 643L286 681Q283
669 277 643T264 588T255 538L201 165Q199 148 197 122T193 69T192 27L158 63L279 53L265 0H143Q131 0 108 -1T58 -3T9 -5Z" />
<glyph unicode="J" horiz-adv-x="315" d="M-4 -200L-34 -179Q-34 -179 -24 -162T2 -118T33 -65T60 -16T72 11L153 572Q155 581 155 602T156 646T156 681L190 640L82 658L95 710Q114 709 137 708T180 706T209 705Q234 705 270 707T339 710L334 653L223 643L266
681Q263 669 257 643T244 588T235 538L155 -12Q154 -22 137 -44T94 -95T42 -152T-4 -200Z" />
<glyph unicode="K" horiz-adv-x="694" d="M361 -5L363 44L456 66L428 46Q425 53 415 76T392 125T370 164L237 353L447 577Q453 583 465 600T492 639T516 676L529 639L443 658L456 710Q473 709 492 708T529 706T557 705Q580 705 615 707T681 710L677 653L568 643L614
655Q603 647 586 632T550 599T516 568T494 546L309 345L321 388L503 129Q510 119 525 103T557 71T581 47L534 63L636 53L622 0H495Q483 0 460 -1T410 -3T361 -5ZM9 -5L11 44L125 67L81 22Q85 36 91 59T103 103T110 135L174 572Q175 581 175 602T176 647T176 681L210
640L102 658L115 710Q134 709 157 708T201 706T230 705Q255 705 291 707T359 710L354 653L243 643L286 681Q283 669 277 643T264 588T255 538L201 165Q199 148 197 122T193 69T192 27L158 63L279 53L265 0H143Q131 0 108 -1T58 -3T9 -5Z" />
<glyph unicode="L" horiz-adv-x="543" d="M9 -5L11 44L125 67L81 22Q85 36 91 59T103 103T110 135L174 572Q175 581 175 602T176 647T176 681L210 640L102 658L115 710Q134 709 157 708T201 706T230 705Q255 705 291 707T359 710L354 653L243 643L286 681Q283
669 277 643T264 588T255 538L201 165Q199 148 197 122T193 69T192 27L160 55H305Q334 55 363 59T406 67L376 44Q387 57 400 73T417 100Q422 111 430 134T443 168L495 163L458 14L437 -4Q409 -2 378 -1T327 0H117Q98 0 71 -1T9 -5Z" />
<glyph unicode="M" horiz-adv-x="919" d="M4 -5L6 44L120 67L69 22Q75 36 84 59T101 104T112 135L202 572Q204 581 206 601T210 642T212 670L243 640L135 658L148 710Q168 709 191 708T234 706T264 705H328L343 685L372 529L458 138L435 140L635 536L709 685L731
705H756Q771 705 796 706T850 708T904 710L899 653L788 643L830 682Q828 673 823 647T813 590T806 538L779 164Q778 146 778 120T781 69T784 27L740 63L860 53L847 0H725Q713 0 690 -1T640 -3T590 -5L592 44L707 67L662 22Q666 36 671 58T682 102T688 135L728 623L741
620L426 0H394L257 623H272L181 165Q179 154 176 127T171 72T169 27L130 63L247 53L233 0H140Q127 0 104 -1T54 -3T4 -5Z" />
<glyph unicode="N" horiz-adv-x="763" d="M9 -5L11 44L122 67L81 25Q82 30 86 45T96 78T105 112T111 135L175 572Q176 581 176 604T176 650T176 680L210 640L102 658L115 710Q135 709 158 708T201 706T231 705H266L282 685L353 530L571 128L550 124L616 572Q618
581 618 601T619 643T618 675L652 640L544 658L557 710Q575 709 597 708T638 706T665 705Q681 705 703 706T748 708T787 710L782 653L671 643L714 668Q710 660 702 636T685 584T674 538L594 0H532L220 594L240 598L178 165Q176 151 174 125T170 71T167 27L131 63L247
53L234 0H141Q129 0 107 -1T58 -3T9 -5Z" />
<glyph unicode="O" horiz-adv-x="750" d="M336 -15Q246 -15 185 23T94 128T63 283Q63 376 87 455T159 594T277 687T438 720Q529 720 589 682T680 577T711 421Q711 329 687 250T616 111T498 18T336 -15ZM341 35Q406 35 456 67T540 153T592 277T610 420Q610 490
591 546T534 636T434 670Q369 670 319 638T235 551T183 427T165 284Q165 215 184 159T242 69T341 35Z" />
<glyph unicode="P" horiz-adv-x="587" d="M9 -5L11 44L125 67L81 22Q85 36 91 59T103 103T110 135L174 572Q175 581 175 602T176 647T176 681L210 640L102 658L115 710Q134 709 157 708T201 706T230 705Q250 705 277 706T332 709T379 710Q468 710 523 667T578
540Q578 480 558 434T501 356T418 309T317 293Q275 293 234 294T151 298L159 355Q189 351 226 346T294 341Q380 341 434 388T488 530Q488 595 449 628T342 662Q328 662 296 660T235 655L286 681Q283 669 277 643T264 588T255 538L201 165Q199 148 197 122T193 69T192
27L158 63L289 53L275 0H143Q131 0 108 -1T58 -3T9 -5Z" />
<glyph unicode="Q" horiz-adv-x="751" d="M336 -15Q246 -15 185 23T94 128T63 283Q63 376 87 455T159 594T277 687T438 720Q529 720 589 682T680 577T711 421Q711 329 687 250T616 111T498 18T336 -15ZM595 -224L374 -14L446 -1L522 -62Q529 -68 554 -80T610 -107T665
-134L595 -224ZM341 35Q406 35 456 67T540 153T592 277T610 420Q610 490 591 546T534 636T434 670Q369 670 319 638T235 551T183 427T165 284Q165 215 184 159T242 69T341 35Z" />
<glyph unicode="R" horiz-adv-x="642" d="M9 -5L11 44L125 67L81 22Q85 36 91 59T103 103T110 135L174 572Q175 581 175 602T176 647T176 681L210 640L102 658L115 710Q134 709 157 708T201 706T230 705Q250 705 277 706T332 709T379 710Q468 710 523 668T578
545Q578 486 558 441T501 365T418 319T318 303Q275 303 234 304T151 307L159 364Q195 360 232 355T306 350Q391 350 439 396T488 534Q488 596 449 629T342 662Q334 662 318 661T284 659T251 657L286 681Q283 669 277 643T264 588T255 538L201 165Q199 148 197 122T193
69T192 27L158 63L279 53L265 0H143Q131 0 108 -1T58 -3T9 -5ZM420 0Q410 33 402 61T383 116L298 345L392 349Q413 297 432 249T464 169T479 131Q484 121 493 104T511 70T525 45L482 64L587 53L573 0H420Z" />
<glyph unicode="S" horiz-adv-x="551" d="M235 -15Q181 -15 128 -3T27 38L63 189L126 183Q126 183 124 171T120 143T118 121Q118 106 118 86T120 59L103 77Q127 64 164 53T242 42Q309 42 350 80T391 184Q391 220 370 246T316 293T246 334T175 378T121 435T100
514Q100 580 131 626T216 696T336 720Q383 720 434 710T530 688L494 540L439 547Q441 558 443 572T446 593Q446 601 445 615T442 643T440 665L468 633Q429 656 398 662T327 668Q294 668 265 654T217 611T198 542Q198 507 219 482T274 436T346 394T417 348T472 288T494
205Q494 132 459 83T364 10T235 -15Z" />
<glyph unicode="T" horiz-adv-x="638" d="M142 -5L144 44L268 67L224 22Q228 36 234 59T246 103T253 135L317 572Q319 581 319 602T320 647T320 681H430Q426 669 420 643T408 588T399 538L344 165Q342 148 340 122T336 69T335 27L301 63L432 53L418 0H286Q274
0 249 -1T194 -3T142 -5ZM129 524L74 529L106 692L127 710Q146 709 168 708T209 706T237 705H519Q528 705 547 706T590 708T631 710L647 692L631 529L575 524Q576 538 576 555T575 587T575 609Q575 613 571 624T560 648T544 671L576 645Q567 646 550 647T514 650T482
651H258Q241 651 218 650T175 648T143 645L205 678Q198 669 187 655T167 628T155 609Q151 602 146 587T137 555T129 524Z" />
<glyph unicode="U" horiz-adv-x="723" d="M314 -15Q207 -15 153 44T99 203Q99 218 101 236T108 291T123 394T150 572Q152 581 152 603T153 648T153 675L187 640L79 658L92 710Q111 709 134 708T177 706T206 705Q218 705 240 706T288 708T335 710L330 653L219 643L260
676Q258 667 252 641T240 586T231 538Q217 439 209 380T196 288T189 239T187 209Q187 136 222 91T327 45Q386 45 428 74T497 153T533 267L579 572Q580 581 580 601T580 641T579 671L613 640L504 658L517 710Q535 709 557 708T597 706T625 705Q642 705 678 707T745
710L742 653L630 643L670 675Q669 667 663 641T650 586T641 538L601 266Q582 138 510 62T314 -15Z" />
<glyph unicode="V" horiz-adv-x="657" d="M270 0L137 572Q135 581 127 602T111 645T99 676L144 641L80 658L93 710Q121 709 145 707T183 705Q196 705 225 706T286 708T341 710L337 653L191 643L223 680Q224 668 225 641T230 586T238 539L334 110L311 112L532 572Q535
580 539 593T548 620T556 646T561 664L589 640L442 657L456 710Q475 709 502 708T555 706T588 705Q602 705 627 707T680 710L675 653L615 641L665 667Q658 659 642 635T610 583T585 538L328 0H270Z" />
<glyph unicode="W" horiz-adv-x="991" d="M248 0L146 572Q145 581 137 602T121 645T109 676L153 641L79 658L92 710Q120 709 150 707T193 705Q206 705 232 706T288 708T340 710L336 653L201 643L233 680Q234 669 236 642T241 585T247 539L309 110L291 112L538
686H587L679 110L660 111L854 572Q857 580 861 593T870 620T879 646T884 664L912 640L776 657L790 710Q809 709 834 708T881 706T912 705Q925 705 956 707T1015 710L1010 653L938 641L988 667Q980 656 965 632T934 582T910 538L675 0H617L521 546L540 543L306 0H248Z"
/>
<glyph unicode="X" horiz-adv-x="734" d="M8 -5L11 42L106 70L63 51Q74 61 97 81T144 125T183 167L358 382L352 326L221 570Q215 582 204 601T184 637T170 660L212 643L103 658L116 710Q148 709 182 707T241 705Q261 705 284 706T333 708T383 710L379 653L264
643L297 655Q298 650 303 629T318 582T337 538L417 388L380 391L512 568Q520 578 531 596T553 632T569 656L595 639L485 657L499 710Q529 709 562 707T619 705Q636 705 657 706T701 708T744 710L739 653L637 642L678 651Q672 647 657 634T624 603T588 568T559 536L409
340L414 398L556 137Q561 127 574 109T601 73T620 49L575 69L671 53L659 0H567Q550 0 522 -1T463 -3T404 -5L406 42L516 72L484 50Q485 61 477 82T459 127T438 169L349 335L387 332L232 137Q225 128 213 111T191 76T175 49L149 68L261 53L249 0H154Q140 0 115 -1T61
-3T8 -5Z" />
<glyph unicode="Y" horiz-adv-x="629" d="M275 238L155 572Q153 579 147 593T132 623T117 654T106 676L153 641L79 658L92 710Q120 709 150 707T192 705Q205 705 229 706T280 708T329 710L325 653L200 643L229 680Q229 670 232 651T239 609T247 567T256 537L343
310L313 313L473 572Q478 580 485 592T500 619T513 646T520 664L551 640L425 657L439 710Q458 709 480 708T522 706T550 705Q564 705 594 707T653 710L648 653L577 641L626 667Q621 661 609 646T581 610T551 571T527 538L332 238H275ZM138 -5L140 44L264 67L219
22Q223 36 229 59T242 103T249 135L275 310H361L340 165Q338 148 336 122T332 69T331 27L297 63L428 53L414 0H282Q270 0 244 -1T189 -3T138 -5Z" />
<glyph unicode="Z" horiz-adv-x="582" d="M468 -4Q440 -2 409 -1T358 0H21L22 55Q44 81 70 114T119 176T151 218L390 540Q408 564 432 601T475 671L497 652H279Q263 652 243 651T207 648T185 646L215 664Q207 653 194 635T178 610Q175 602 170 586T161 553T153
524L96 529L128 692L149 710Q167 709 189 708T231 706T259 705H577V651Q559 629 535 600T488 544T451 496L209 164Q201 153 187 131T156 83T125 36L103 55H337Q356 55 383 58T434 66T466 72L406 44Q417 57 430 73T448 100Q452 108 456 123T465 154T472 178L524
173L488 14L468 -4Z" />
<glyph unicode="[" horiz-adv-x="396" d="M274 -107L101 -103L84 -83Q86 -69 90 -46T99 3T108 53T116 96T120 120L179 606Q180 612 181 627T183 662T186 708T190 758T193 809L214 825L389 829L388 789L248 771L284 806Q276 779 269 750T257 695T250 654L178 64Q176
45 175 17T173 -40T174 -87L148 -49L282 -66L274 -107Z" />
<glyph unicode="\" horiz-adv-x="384" d="M272 -67L74 754L137 773L336 -48L272 -67Z" />
<glyph unicode="]" horiz-adv-x="395" d="M149 829L322 825L339 805Q337 791 333 768T324 719T315 669T307 626T303 602L244 116Q243 110 242 95T240 60T237 14T234 -36T230 -87L209 -103L34 -107L35 -67L175 -49L139 -84Q147 -59 154 -30T166 26T173 68L245 658Q248
678 249 706T250 762T249 809L275 771L141 788L149 829Z" />
<glyph unicode="^" horiz-adv-x="715" d="M161 313L105 355L417 728L634 355L568 313L387 647H426L161 313Z" />
<glyph unicode="_" horiz-adv-x="632" d="M12 -232L20 -159H514L499 -232H12Z" />
<glyph unicode="`" horiz-adv-x="268" d="M508 543L332 690L371 741L539 578L508 543Z" />
<glyph unicode="a" horiz-adv-x="508" d="M132 -10Q99 -10 76 6T41 56T29 140Q29 185 42 235T79 334T131 422T190 484T248 508Q265 508 292 505T344 498T379 494L378 410Q372 413 348 425T292 449T234 461Q219 461 202 441T169 386T140 309T119 225T111 146Q111
101 124 72T157 43Q175 43 199 69T249 138T298 234T335 341T352 441L354 492L424 508L446 495Q428 419 413 349T389 205T379 45L349 74L471 68L468 35L325 -10L301 5Q306 34 309 64T317 131T329 220L333 196Q307 138 274 92T205 18T132 -10Z" />
<glyph unicode="b" horiz-adv-x="471" d="M52 -10L28 5Q41 57 54 125T80 271T104 428T123 580T135 712L165 689L48 707L45 743L204 770L225 752Q211 667 199 596T177 460T156 329L145 322Q169 371 201 412T269 480T341 506Q374 506 396 490T430 442T442 358Q442
312 428 261T391 162T340 75T281 13T224 -10Q211 -10 192 -8T152 -1T117 5T97 8L140 17L52 -10ZM120 56L98 87Q110 81 134 69T187 48T237 38Q257 38 278 69T318 148T349 251T361 352Q361 398 348 427T315 457Q296 457 272 431T221 361T173 264T137 157T120 56Z"
/>
<glyph unicode="c" horiz-adv-x="410" d="M141 -10Q86 -10 58 29T30 141Q30 187 42 237T76 336T124 423T177 485T230 508Q241 508 261 507T310 502T379 493L392 472L354 326L321 328L312 454L357 410Q313 426 288 434T251 444T228 447Q210 447 190 418T153 342T124
245T112 150Q112 100 128 73T174 46Q214 46 255 74T334 154L363 134Q321 63 263 27T141 -10Z" />
<glyph unicode="d" horiz-adv-x="508" d="M132 -10Q98 -10 76 6T42 56T29 140Q28 186 42 237T79 336T131 423T190 485T248 508Q265 508 292 505T344 498T379 494L378 410Q372 413 348 425T292 449T234 461Q219 461 202 441T169 386T140 309T119 225T111 146Q111
101 124 72T157 43Q176 43 201 69T252 138T300 234T336 341T352 441L357 477Q360 505 364 533T371 590T377 649T381 710L411 689L296 707L294 743L452 770L473 752Q459 663 442 578T411 407T388 234T381 49L348 75L471 68L468 35L326 -9L302 6Q307 37 310 64T317
127T329 215L333 196Q307 138 274 92T205 18T132 -10Z" />
<glyph unicode="e" horiz-adv-x="404" d="M142 -10Q87 -10 59 29T30 141Q30 187 43 238T78 337T127 423T183 485T237 508Q307 508 344 488T382 430Q382 378 348 334T249 258T96 210L97 252Q158 261 203 283T275 336T301 404Q301 430 286 441T235 453Q216 453 195
423T155 347T124 248T112 150Q112 101 127 74T173 47Q197 47 223 58T277 94T330 153L360 133Q333 86 298 54T224 6T142 -10Z" />
<glyph unicode="f" horiz-adv-x="306" d="M-115 -234L-97 -177Q-73 -176 -46 -169T3 -153T30 -135Q39 -122 48 -89T67 -7T86 98T103 217T117 338T128 451L156 426H37L41 464Q47 465 64 469T101 479T128 490Q132 493 133 499T137 522T146 574Q159 653 199 702T294
774T400 802L385 745Q354 746 329 742T287 728T261 704Q253 692 243 667T223 592T204 454L176 477H319L307 426H168L203 456Q187 367 175 274T154 100T132 -35Q113 -120 46 -172T-115 -234Z" />
<glyph unicode="g" horiz-adv-x="479" d="M-35 -217L-7 -147Q42 -163 97 -167T198 -164T270 -132Q276 -127 282 -110T294 -67T301 -8Q305 27 308 57T316 125T329 215L334 196Q308 137 275 91T205 17T132 -10Q99 -10 76 6T41 56T29 140Q29 185 42 235T79 334T130
422T189 484T248 508Q265 508 292 505T345 498T381 494L379 410Q375 412 359 420T322 437T277 454T235 461Q219 461 202 441T168 386T139 310T119 226T111 146Q111 103 124 73T159 43Q177 43 201 69T252 138T300 235T337 342T354 442L356 492L426 508L447 495Q422
392 405 270T371 7Q364 -60 332 -112T246 -196T122 -234T-35 -217Z" />
<glyph unicode="h" horiz-adv-x="530" d="M51 -10L28 5Q41 57 54 125T80 271T104 428T123 580T135 712L165 689L48 707L45 743L204 770L225 752Q216 698 206 643T187 532T168 419T150 303L142 306Q156 333 179 367T232 434T299 487T377 508Q415 508 432 484T449
424Q449 377 436 314T410 182T394 46L363 75L492 68L490 35L324 -10L301 5Q312 52 322 104T342 207T357 304T363 386Q363 408 356 424T329 441Q313 441 287 422T231 365T173 269T125 137Q119 95 117 67T110 5L51 -10Z" />
<glyph unicode="i" horiz-adv-x="278" d="M77 -10L53 5Q71 78 82 132T102 234T115 332T127 447L158 420L42 426L41 463L203 508L225 488Q211 437 198 368T172 218T146 47L118 75L242 68L238 35L77 -10ZM166 592Q143 592 131 606T117 643Q117 672 136 695T184 718Q207
718 219 705T232 667Q233 638 214 615T166 592Z" />
<glyph unicode="j" horiz-adv-x="255" d="M-13 -235L-42 -209Q-27 -184 -11 -153T21 -89T48 -30T63 13Q77 71 90 144T113 296T128 445L160 421L43 427L42 465L204 509L226 489Q214 449 204 398T185 283T164 145T137 -16Q134 -31 118 -58T77 -118T29 -182T-13 -235ZM157
592Q134 592 122 606T108 643Q108 672 127 695T175 718Q198 718 210 705T223 667Q224 638 205 615T157 592Z" />
<glyph unicode="k" horiz-adv-x="490" d="M51 -10L28 5Q40 51 52 115T77 255T101 409T121 565T136 712L165 689L47 707L46 743L206 770L226 752Q213 674 204 620T188 527T176 455T165 388T153 310L144 306Q174 371 212 416T292 484T376 508Q408 508 424 486T440
428Q440 382 413 338T337 261T221 209L237 229Q255 199 277 166T323 104T368 54L324 68H450L446 35L306 -10L176 197V233Q269 262 320 308T371 406Q371 421 364 429T345 437Q317 437 286 415T225 354T169 260T128 140Q126 124 123 102T117 57T112 20T110 5L51 -10Z"
/>
<glyph unicode="l" horiz-adv-x="246" d="M52 -10L28 5Q41 57 54 125T81 271T105 428T124 580T136 712L166 689L49 707L46 743L206 770L226 752Q208 647 188 537T150 306T115 49L87 74L209 68L207 35L52 -10Z" />
<glyph unicode="m" horiz-adv-x="824" d="M79 -10L55 5Q73 79 84 134T103 236T116 334T127 448L156 422L39 428V463L200 508L219 489Q209 455 202 409T185 303L180 312Q195 345 218 379T270 443T334 490T405 508Q436 508 452 491T472 443T473 376T458 300L440
299Q456 329 478 364T530 433T595 487T673 508Q711 508 727 484T743 426Q743 378 731 317T705 188T690 52L661 75L788 68L785 35L619 -10L594 5Q605 54 616 106T638 209T654 305T660 387Q660 410 652 426T623 442Q612 442 594 431T555 397T511 339T467 255T429
145Q425 125 420 84T410 5L350 -10L326 5Q338 55 349 107T370 211T385 307T391 387Q391 409 384 425T355 442Q338 442 312 421T256 358T199 256T153 116Q149 88 145 61T138 5L79 -10Z" />
<glyph unicode="n" horiz-adv-x="554" d="M79 -10L55 5Q71 68 81 115T97 201T108 275T117 353T127 448L156 422L39 428V463L200 508L219 489Q209 454 202 406T185 303L180 312Q193 340 214 373T265 437T329 488T403 508Q441 508 457 484T473 426Q473 378 461 317T436
187T420 51L390 74L518 68L515 35L349 -10L326 5Q337 54 348 106T368 208T383 305T389 387Q389 408 382 425T354 442Q339 442 314 422T259 362T201 260T153 115Q148 85 145 60T138 5L79 -10Z" />
<glyph unicode="o" horiz-adv-x="464" d="M174 -10Q107 -10 70 37T33 163Q33 231 53 293T110 403T192 480T290 508Q358 508 394 463T431 337Q431 268 411 206T354 95T272 18T174 -10ZM189 41Q233 41 268 80T323 188T344 341Q344 398 328 428T276 459Q231 459 196
419T141 311T121 158Q121 101 138 71T189 41Z" />
<glyph unicode="p" horiz-adv-x="497" d="M40 -277L16 -263Q29 -204 42 -132T69 20T93 175T113 320T126 439L157 422L40 428V463L200 508L220 489Q214 463 210 445T202 404T192 345H182Q202 384 224 414T271 465T319 497T365 508Q399 508 421 492T456 442T468
358Q468 312 454 262T417 163T365 76T306 14T249 -10Q232 -10 206 -8T156 -2T121 4L129 81Q132 80 146 74T182 59T224 44T262 38Q278 38 295 58T329 113T359 188T380 272T388 352Q388 396 374 426T339 456Q320 456 296 431T248 365T201 271T163 163T138 55Q128
-24 118 -99T98 -263L40 -277Z" />
<glyph unicode="q" horiz-adv-x="474" d="M271 -277L248 -262Q259 -197 270 -134T291 -6Q297 29 302 58T314 124T328 215L333 196Q307 138 274 92T205 18T132 -10Q98 -10 76 6T42 56T29 140Q28 186 42 237T79 336T131 423T190 485T248 508Q265 508 292 505T345
498T380 494L378 410Q372 413 348 425T292 449T234 461Q219 461 202 441T169 386T140 309T119 225T111 146Q111 101 124 72T157 43Q175 43 199 69T250 138T298 234T335 341T352 441L354 492L426 508L448 495Q433 441 419 367T391 209T366 39T347 -122T337 -257L271
-277Z" />
<glyph unicode="r" horiz-adv-x="379" d="M78 -10L54 5Q69 66 79 115T98 213T114 319T128 453L156 422L39 428V463L200 508L219 489Q212 447 203 401T188 314L178 308Q206 365 235 410T294 481T355 508Q368 508 376 504T390 496L355 382Q345 385 335 386T318 388Q299
388 277 373T232 323T188 234T151 100Q147 75 145 52T137 5L78 -10Z" />
<glyph unicode="s" horiz-adv-x="378" d="M144 -10Q119 -10 92 -2T44 19T12 46L13 77L63 174L98 165L83 37L68 85Q92 65 108 52T155 39Q193 39 219 60T245 123Q245 148 228 167T185 203T134 243T91 295T73 369Q73 408 94 439T150 489T223 508Q250 508 277 504T335
493L356 471L324 346L286 349L265 484L290 446Q273 450 260 455T225 461Q195 461 168 442T141 391Q141 368 159 349T203 310T256 268T301 217T319 151Q319 103 295 67T231 11T144 -10Z" />
<glyph unicode="t" horiz-adv-x="386" d="M350 133Q324 76 287 42T211 -2T141 0T95 49T90 145Q98 190 104 222T115 284T126 357T141 466L163 426H38L42 467Q67 471 93 477T138 493Q146 498 157 517T178 558T196 597T203 614L245 603L223 470L186 477H370L356 426H176L223
464Q214 413 205 362T187 256T168 133Q161 86 177 66T222 50T277 80T321 153L350 133Z" />
<glyph unicode="u" horiz-adv-x="529" d="M133 -10Q100 -10 84 18T67 80Q67 113 75 153T94 240T115 339T128 449L157 422L41 428V463L201 508L220 489Q189 369 170 269T151 112Q151 90 157 74T185 58Q221 58 283 156Q304 188 321 227T353 315T382 428L391 493L457
508L478 495Q460 424 448 371T427 271T412 172T399 47L371 72L492 68L489 35L330 -10L306 5Q315 38 322 68T335 132T348 207L356 206Q334 157 308 118T253 50T194 6T133 -10Z" />
<glyph unicode="v" horiz-adv-x="475" d="M140 -10Q113 -10 98 7T83 56Q83 76 90 113T106 194T123 279T130 349Q130 352 130 367T129 402T127 434L159 422L45 428L40 463L184 508L205 495V376Q205 365 202 340T193 282T183 214T175 148T171 95Q171 77 176 69T194
61Q217 61 242 80T293 131T338 201T371 280T383 355Q383 360 382 374T380 407T376 437L410 422L298 428L292 463L442 508L462 495Q461 418 443 344T393 206T322 94T235 18T140 -10Z" />
<glyph unicode="w" horiz-adv-x="747" d="M143 -10Q114 -10 100 10T86 58Q86 78 93 114T108 193T124 278T131 349Q131 371 130 403T127 451L160 422L45 428L39 463L184 508L208 495V376Q208 365 205 340T196 282T184 214T175 148T171 95Q171 80 176 71T195 61Q218
61 250 86T313 153T365 248T386 355Q386 358 385 371T381 404T376 445T371 489L434 507L456 493L460 376Q460 365 457 340T449 282T439 213T431 147T428 94Q428 78 433 70T452 61Q475 61 508 86T574 153T628 247T650 355Q650 366 647 397T639 464L676 422L563 428L556
463L708 508L731 495Q731 400 709 321T651 181T570 77T482 12T400 -10Q375 -10 362 12T349 62Q349 76 355 103T368 168L376 164Q321 75 257 33T143 -10Z" />
<glyph unicode="x" horiz-adv-x="507" d="M324 -10L304 5Q285 61 269 110T237 204T205 290T170 369T130 444L171 428L58 433L51 468L189 508L210 496Q226 441 243 387T279 279T321 167T370 50L328 74L463 68L459 35L324 -10ZM50 -10L29 5L7 63Q16 66 32 73T66
87T97 100T113 108Q116 110 128 126T159 167T196 219T230 271L254 218Q229 183 197 136T133 53L50 -10ZM279 228L256 279Q275 305 295 335T335 395T373 444L455 508L475 493L489 435Q470 429 449 420T413 402T392 390Q386 386 372 367T340 321T306 269T279 228Z"
/>
<glyph unicode="y" horiz-adv-x="507" d="M-7 -217L22 -148Q73 -165 128 -170T229 -166T298 -132Q305 -125 311 -108T322 -66T328 -8Q333 26 336 57T343 125T356 215L367 206Q343 157 316 117T259 49T199 5T138 -10Q114 -10 99 4T76 39T68 81Q68 114 76 154T95
241T116 340T129 449L157 422L41 428V463L202 508L221 489Q200 409 184 336T159 206T150 112Q150 91 157 75T187 58Q207 58 233 83T289 155Q305 181 320 218T350 307T379 428L388 493L454 508L474 495Q449 392 433 270T399 7Q391 -60 359 -112T273 -196T149 -234T-7
-217Z" />
<glyph unicode="z" horiz-adv-x="456" d="M22 -10L3 5Q59 74 99 126T170 220T225 298T274 373T326 456L345 439Q301 439 270 438T216 433T170 427T119 419L146 451L110 338L75 341L68 487L82 508L378 492L437 507L446 494Q381 409 335 348T253 238T187 142T123
38L120 55Q145 55 185 55T266 59T333 72L300 41Q300 40 307 52T324 81T346 117T365 149T374 164L406 154L380 12L351 -10L73 4L22 -10Z" />
<glyph unicode="{" horiz-adv-x="386" d="M263 -106L89 -102L71 -81Q109 21 139 124T189 331L202 286L90 334L101 391L220 439L198 398Q200 462 199 533T193 676T181 809L202 826L376 830L375 791L228 773L275 810Q270 747 268 700T266 610T267 516T270 396L129
357L152 378L150 344L138 365L261 324Q238 237 220 172T189 50T165 -70L128 -48L271 -65L263 -106Z" />
<glyph unicode="|" horiz-adv-x="314" d="M134 -122L74 -113L197 760L257 752L134 -122Z" />
<glyph unicode="}" horiz-adv-x="386" d="M37 -106L38 -67L185 -49L138 -86Q143 -23 145 24T147 114T146 208T143 328L284 367L261 346L263 380L275 359L152 400Q176 488 193 552T224 674T248 794L285 772L142 789L150 830L324 826L342 805Q305 703 275 600T224
393L211 438L323 390L312 333L193 285L215 326Q213 262 214 191T220 48T232 -85L211 -102L37 -106Z" />
<glyph unicode="~" horiz-adv-x="684" d="M454 177Q432 177 401 186T337 207T273 228T223 237Q212 237 199 229T173 209T153 189T146 181L111 213Q110 212 121 227T151 263T191 300T230 316Q256 316 287 307T351 286T413 265T462 256Q473 256 486 264T512 284T531
303T539 311L573 279Q574 281 563 266T533 230T494 193T454 177Z" />
<glyph unicode="&#xa0;" horiz-adv-x="228" />
<glyph unicode="&#xa1;" horiz-adv-x="274" d="M107 277L178 274L164 208L82 -271L5 -278L-11 -261Q-3 -225 8 -175T31 -69T54 37T72 128T83 186L97 272L107 277ZM181 503Q202 503 213 491T224 455Q224 421 205 399T156 377Q136 377 125 390T113 425Q113 458 132
480T181 503Z" />
<glyph unicode="&#xa2;" horiz-adv-x="523" d="M269 70Q172 70 125 126T77 273Q77 366 110 435T202 544T340 583Q368 583 391 579T437 566T487 547L461 426L405 429L410 464Q411 473 409 488T402 525L431 493Q406 507 382 517T332 528Q286 528 249 495T190 406T168
278Q168 239 179 206T214 153T278 133Q316 133 348 142T400 160T420 169L441 123Q441 125 420 112T359 84T269 70ZM253 -66L210 -63L244 132H287L253 -66ZM317 553L346 719L388 716L360 553H317Z" />
<glyph unicode="&#xa3;" horiz-adv-x="642" d="M133 55Q136 68 139 79T145 101T150 120T153 134L201 498Q208 551 239 587T317 643T419 662Q464 662 511 652T598 630L565 484L509 490L514 530Q515 538 514 554T511 589T506 621L542 580Q513 593 479 601T410 610Q361
610 329 584T290 511L244 164Q242 146 241 134T239 106T237 55H133ZM53 -5L55 43L133 58L211 54H362Q370 54 391 56T438 61T484 67L427 34Q435 43 445 55T464 80T475 100L498 168L551 163L517 18L496 0H168Q145 0 114 -1T53 -5ZM69 277L72 317L476 335L473 296L69
277Z" />
<glyph unicode="&#xa4;" horiz-adv-x="671" d="M319 70Q221 70 173 124T124 266Q124 354 156 419T247 521T384 558Q482 558 530 505T579 363Q579 275 547 209T456 107T319 70ZM77 29L49 60L158 166L190 140L77 29ZM520 30L436 140L476 166L557 60L520 30ZM326
126Q399 126 443 190T487 361Q487 400 477 432T442 483T376 502Q328 502 292 473T235 390T214 265Q214 227 224 196T259 145T326 126ZM194 463L118 565L153 596L232 491L194 463ZM519 463L489 491L596 597L624 566L519 463Z" />
<glyph unicode="&#xa5;" horiz-adv-x="717" d="M321 218L206 518Q193 552 174 580T148 619L195 587L103 608L114 659Q114 659 128 659T161 657T197 656T221 655Q250 655 281 656T333 658T355 659L351 604L241 590L273 619Q272 609 277 577T304 497L387 290L355
289L512 537Q521 552 531 570T551 604T563 627L577 588L475 608L487 659Q487 659 504 658T542 656T572 655Q589 655 612 655T657 657T693 658T708 659L703 604L604 594L659 619Q646 606 621 578T567 507L378 218H321ZM204 -5L206 42L316 64L272 26Q275 33 281 53T293
95T300 129L321 297H408L390 157Q388 138 387 119T384 82T383 51T383 26L348 60L467 50L453 0H331Q322 0 302 -1T259 -2T220 -4T204 -5ZM109 149L113 189L583 207L581 168L109 149ZM118 255L122 295L592 313L590 274L118 255Z" />
<glyph unicode="&#xa6;" horiz-adv-x="290" d="M192 392L127 400L178 760L239 752L192 392ZM122 -122L50 -113L96 212L165 205L122 -122Z" />
<glyph unicode="&#xa7;" horiz-adv-x="562" d="M234 -115Q194 -115 150 -103T57 -69L136 -35Q159 -45 185 -51T243 -57Q273 -57 299 -45T342 -10T359 42Q359 72 341 94T294 135T233 171T172 206T125 248T107 301Q107 327 124 353Q130 361 137 370T156 390T180
411L195 401Q187 388 184 376T181 353Q181 331 200 311T251 272T317 232T383 187T434 132T454 64Q454 6 423 -34T342 -94T234 -115ZM57 -69L93 83L150 77L143 9Q143 5 143 -13T145 -48T146 -62L57 -69ZM405 206L392 215Q397 223 400 233T404 257Q404 288 384 311T332
355T265 394T199 436T149 487T132 553Q135 607 162 644T234 700T335 720Q360 720 385 717T438 708T496 694L421 650Q396 661 376 665T325 669Q288 669 258 649T227 581Q227 555 245 533T291 492T351 454T411 416T458 373T476 322Q476 309 472 295T460 266T438 235T405
206ZM461 549L409 555L415 603Q416 608 415 625T411 664T405 702L496 694L461 549Z" />
<glyph unicode="&#xa8;" horiz-adv-x="379" d="M569 564Q550 564 536 576T522 612Q522 639 537 657T577 676Q598 676 611 663T624 629Q625 600 609 582T569 564ZM394 564Q376 564 364 576T350 612Q350 638 365 657T406 676Q426 676 439 663T452 629Q453 601 436
583T394 564Z" />
<glyph unicode="&#xa9;" horiz-adv-x="899" d="M461 -15Q387 -15 321 13T205 90T125 206T96 350Q96 426 124 492T203 608T320 686T461 715Q537 715 603 687T720 609T798 493T827 350Q827 276 799 210T720 94T603 14T461 -15ZM448 128Q363 128 320 177T277 306Q277
379 303 437T380 529T506 563Q544 563 572 557T627 543L606 446L568 447L571 480Q572 485 569 503T564 535L597 502Q575 507 551 512T501 517Q465 517 439 499T395 450T369 381T360 303Q360 248 383 210T453 172Q477 172 504 177T555 188L515 157Q520 167 525 177T534
198T540 216Q542 221 543 229T546 243L585 244L575 148Q546 141 516 135T448 128ZM462 27Q530 27 588 52T691 122T761 225T786 350Q786 416 761 474T692 578T588 648T462 674Q396 674 338 649T235 580T165 477T139 350Q139 284 164 226T234 123T337 53T462 27Z"
/>
<glyph unicode="&#xaa;" horiz-adv-x="381" d="M125 321Q106 321 94 333T76 367T70 414Q70 451 82 490T115 563T160 617T209 638Q220 638 237 635T271 630T294 626L284 561Q281 562 267 568T235 580T200 586Q187 586 174 562T151 501T142 429Q142 407 147 395T163
383Q175 383 192 401T227 450T256 518T269 594L270 623L332 638L351 623Q335 561 324 499T311 353L281 380L363 373L361 346L252 320L233 330Q239 351 245 374T258 426T266 485L272 474Q254 431 231 396T181 341T125 321Z" />
<glyph unicode="&#xab;" horiz-adv-x="502" d="M194 36L53 252L247 469L281 444L131 223L137 282L233 60L194 36ZM370 36L229 252L423 469L457 444L307 223L313 282L409 60L370 36Z" />
<glyph unicode="&#xac;" horiz-adv-x="706" d="M464 69L492 276L522 243L109 239L118 307H563L533 69H464Z" />
<glyph unicode="&#xad;" horiz-adv-x="351" d="M67 217L76 290H288L272 217H67Z" />
<glyph unicode="&#xae;" horiz-adv-x="899" d="M461 -15Q387 -15 321 13T205 90T125 206T96 350Q96 426 124 492T203 608T320 686T461 715Q537 715 603 687T720 609T798 493T827 350Q827 276 799 210T720 94T603 14T461 -15ZM285 154L287 189L359 204L325 181Q329
194 335 215T342 246L376 475Q379 495 379 519T379 553L408 525L338 538L347 576Q355 576 369 575T398 574T418 573L468 553Q464 540 458 517T449 476L418 263Q416 243 414 217T412 178L383 200L457 194L448 157H370Q356 157 331 156T285 154ZM461 27Q529 27 587
52T690 122T760 225T785 350Q785 416 760 474T691 578T587 648T461 674Q395 674 337 649T234 580T164 477T138 350Q138 284 163 226T233 123T336 53T461 27ZM533 157Q529 168 526 178T520 199T511 225L461 361L536 363Q547 332 559 304T580 256T590 234Q595 226
599 217T608 198T617 181L580 200L644 194L635 157H533ZM470 328Q457 328 441 328T409 330T376 331L378 371Q406 370 425 369T464 367Q498 367 520 379T554 415T565 470Q565 503 545 520T487 537Q479 537 460 536T422 533T400 531L418 573Q432 573 450 573T487
575T519 576Q574 576 607 550T641 474Q641 429 617 396T554 346T470 328Z" />
<glyph unicode="&#xaf;" horiz-adv-x="438" d="M108 569L116 623H416L403 569H108Z" />
<glyph unicode="&#xb0;" horiz-adv-x="446" d="M238 399Q189 399 161 428T132 510Q132 556 149 594T200 655T279 678Q329 678 357 651T386 570Q386 523 368 484T317 422T238 399ZM247 452Q268 452 280 464T299 495T309 538Q314 578 307 601T272 624Q248 624 234
607T214 563T207 508Q207 484 215 468T247 452Z" />
<glyph unicode="&#xb1;" horiz-adv-x="659" d="M278 106L336 562H398L345 106H278ZM76 0L84 64L530 69L522 0H76ZM113 301L122 368H568L560 306L113 301Z" />
<glyph unicode="&#xb2;" horiz-adv-x="393" d="M320 328L253 330H70L69 383Q132 438 173 476T238 541T271 589T281 633Q281 656 267 669T229 683Q210 683 190 676T150 654L183 698Q176 680 170 665T163 641L160 614L118 612L126 709Q154 720 182 725T246 731Q302
731 332 709T363 645Q363 607 341 570T266 484T122 364L125 389H244Q255 389 278 392T327 399L281 366Q287 376 292 387T301 407T308 421L315 446L356 443L337 340L320 328Z" />
<glyph unicode="&#xb3;" horiz-adv-x="354" d="M63 266L56 306Q106 313 148 331T215 378T241 443Q241 469 226 484T181 499Q168 499 155 498T142 497L139 535Q195 543 225 570T256 640Q256 687 209 687Q190 687 175 682T147 669L175 707Q168 687 162 672T155 650L151
621L110 618L115 714Q141 722 166 726T218 731Q333 731 333 645Q333 601 304 569T226 522L228 535Q257 533 278 521T311 489T323 446Q323 402 289 364T196 299T63 266Z" />
<glyph unicode="&#xb4;" horiz-adv-x="246" d="M99 543L65 577L235 741L274 690L99 543Z" />
<glyph unicode="&#xb5;" horiz-adv-x="693" d="M99 -277L74 -262Q88 -203 103 -130T135 22T165 177T189 320T206 435L237 417L120 423V460L284 503L304 484Q285 411 269 339T243 207T232 115Q232 96 238 80T267 64Q306 64 368 156Q388 185 406 224T440 314T470
423Q475 447 476 460T480 488L549 503L572 488Q554 415 541 360T519 257T502 158T489 42L459 69L580 64L578 30L418 -15L393 0Q400 27 407 59T422 129T438 209L453 221Q426 170 394 123T326 41T256 -6T193 1L196 3Q191 -38 185 -84T172 -176T161 -262L99 -277Z"
/>
<glyph unicode="&#xb6;" horiz-adv-x="617" d="M267 -200L239 -179Q239 -179 249 -162T275 -118T305 -65T332 -16T344 11L447 705H504Q528 705 552 707T609 710L604 654L495 644L536 682Q533 669 527 642T514 586T505 538L424 -12Q423 -20 410 -38T377 -80T335
-127T295 -170T267 -200ZM310 291Q253 291 206 310T129 370T100 470Q100 545 132 600T220 685T348 715Q359 715 371 715T395 712L340 316L310 291Z" />
<glyph unicode="&#xb7;" horiz-adv-x="305" d="M145 232Q123 232 111 246T99 284Q99 320 120 344T172 368Q194 368 206 354T219 315Q219 279 198 256T145 232Z" />
<glyph unicode="&#xb8;" horiz-adv-x="233" d="M-12 -247L-18 -212Q20 -210 51 -197T87 -147Q90 -119 71 -111T33 -102L24 -97L64 17H113L61 -97L48 -41Q97 -51 125 -69T145 -137Q137 -192 95 -219T-12 -247Z" />
<glyph unicode="&#xb9;" horiz-adv-x="317" d="M60 327L62 364L180 377L140 341Q144 357 152 383T161 421L193 665L220 646L107 605L91 637L231 737L279 730Q279 730 276 713T269 670T261 622T255 588L235 440Q234 429 233 415T232 383T231 341L200 375L296 368L287
330H169Q163 330 142 330T97 329T60 327Z" />
<glyph unicode="&#xba;" horiz-adv-x="347" d="M165 321Q119 321 94 349T69 430Q69 487 92 534T154 609T239 638Q285 638 310 610T335 528Q335 472 312 425T250 349T165 321ZM180 368Q216 368 237 411T259 527Q259 557 250 573T224 590Q188 590 166 548T144 431Q144
368 180 368Z" />
<glyph unicode="&#xbb;" horiz-adv-x="503" d="M79 35L45 60L195 281L189 222L93 444L132 468L273 252L79 35ZM256 35L222 60L372 281L366 222L270 444L309 468L450 252L256 35Z" />
<glyph unicode="&#xbc;" horiz-adv-x="779" d="M34 297L36 334L154 347L114 311Q118 327 126 353T135 391L167 635L194 616L80 575L65 607L204 707L253 700Q253 700 250 683T243 640T235 592T229 558L209 410Q208 399 207 385T206 353T205 311L174 345L270 338L261
300H143Q137 300 116 300T71 299T34 297ZM107 -49L65 -18L594 721L636 690L107 -49ZM471 115L440 160L691 448L737 406Q737 406 726 395T698 369T669 341T651 322L495 135L485 160L623 161L618 115H471ZM528 -3L530 34L626 46L587 11Q591 29 597 51T606 92L624
233L696 256L675 99Q672 78 672 56T671 11L641 44L723 38L715 0H607Q593 0 570 -1T528 -3ZM668 115L675 165L740 169L733 115H668Z" />
<glyph unicode="&#xbd;" horiz-adv-x="790" d="M34 297L36 334L154 347L114 311Q118 327 126 353T135 391L167 635L194 616L80 575L65 607L204 707L253 700Q253 700 250 683T243 640T235 592T229 558L209 410Q208 399 207 385T206 353T205 311L174 345L270 338L261
300H143Q137 300 116 300T71 299T34 297ZM107 -49L65 -18L594 721L636 690L107 -49ZM700 -2L633 0H450L449 53Q512 108 553 146T617 211T650 259T660 303Q660 326 646 339T609 353Q588 353 569 346T530 324L562 368Q555 350 550 335T543 311L540 284L498 282L506
379Q534 390 562 395T625 401Q681 401 711 379T742 315Q742 276 720 239T646 153T502 34L505 59H624Q635 59 658 62T707 69L661 36Q666 46 671 57T681 77T688 91L695 116L736 113L717 10L700 -2Z" />
<glyph unicode="&#xbe;" horiz-adv-x="815" d="M37 236L30 276Q80 283 122 301T189 348T215 413Q215 439 200 454T155 469Q142 469 129 468T116 467L113 505Q169 513 199 540T230 610Q230 657 183 657Q165 657 149 652T120 639L149 677Q143 663 137 644T129 620L125
591L83 588L88 684Q115 692 140 696T192 701Q307 701 307 615Q307 571 278 539T200 492L202 505Q231 503 252 491T285 459T297 416Q297 372 263 334T169 269T37 236ZM143 -49L101 -18L630 721L672 690L143 -49ZM507 115L476 160L727 448L773 406Q773 406 762 395T734
369T705 341T687 322L531 135L521 160L659 161L654 115H507ZM564 -3L566 34L662 46L623 11Q627 29 633 51T642 92L660 233L732 256L711 99Q708 78 708 56T707 11L677 44L759 38L751 0H643Q629 0 606 -1T564 -3ZM704 115L711 165L776 169L769 115H704Z" />
<glyph unicode="&#xbf;" horiz-adv-x="455" d="M280 277L345 274L326 102L300 79Q290 81 276 82T254 83Q202 83 167 58T115 -10T98 -103Q98 -155 123 -188T203 -221Q226 -221 252 -215T307 -197L248 -231Q252 -216 256 -198T265 -164T270 -139L274 -105H327L320
-252Q284 -263 252 -268T191 -274Q110 -274 62 -228T14 -101Q14 -29 44 26T130 112T258 143Q266 143 273 143T287 142L262 110L274 272L280 277ZM342 503Q366 503 379 489T393 448Q393 417 377 397T332 376Q308 376 296 391T283 430Q283 462 298 482T342 503Z"
/>
<glyph unicode="&#xc0;" horiz-adv-x="689" d="M1 -5L4 42L101 69L59 45Q64 51 77 73T105 122T128 168L374 705L430 715L554 138Q556 128 562 108T575 68T584 41L542 69L635 53L623 0H528Q515 0 490 -1T438 -3T386 -5L390 42L497 73L466 33Q465 48 464 73T460
124T454 170L375 576H385L184 139Q180 129 174 111T163 75T156 43L126 68L227 53L215 0H133Q121 0 98 -1T49 -3T1 -5ZM214 236L235 284L448 288L451 236H214ZM509 738L288 831L326 893L532 778L509 738Z" />
<glyph unicode="&#xc1;" horiz-adv-x="689" d="M1 -5L4 42L101 69L59 45Q64 51 77 73T105 122T128 168L374 705L430 715L554 138Q556 128 562 108T575 68T584 41L542 69L635 53L623 0H528Q515 0 490 -1T438 -3T386 -5L390 42L497 73L466 33Q465 48 464 73T460
124T454 170L375 576H385L184 139Q180 129 174 111T163 75T156 43L126 68L227 53L215 0H133Q121 0 98 -1T49 -3T1 -5ZM214 236L235 284L448 288L451 236H214ZM302 738L291 778L529 893L550 831L302 738Z" />
<glyph unicode="&#xc2;" horiz-adv-x="689" d="M1 -5L4 42L101 69L59 45Q64 51 77 73T105 122T128 168L374 705L430 715L554 138Q556 128 562 108T575 68T584 41L542 69L635 53L623 0H528Q515 0 490 -1T438 -3T386 -5L390 42L497 73L466 33Q465 48 464 73T460
124T454 170L375 576H385L184 139Q180 129 174 111T163 75T156 43L126 68L227 53L215 0H133Q121 0 98 -1T49 -3T1 -5ZM214 236L235 284L448 288L451 236H214ZM593 733L422 818L232 739L231 769L395 863H466L603 763L593 733Z" />
<glyph unicode="&#xc3;" horiz-adv-x="689" d="M1 -5L4 42L101 69L59 45Q64 51 77 73T105 122T128 168L374 705L430 715L554 138Q556 128 562 108T575 68T584 41L542 69L635 53L623 0H528Q515 0 490 -1T438 -3T386 -5L390 42L497 73L466 33Q465 48 464 73T460
124T454 170L375 576H385L184 139Q180 129 174 111T163 75T156 43L126 68L227 53L215 0H133Q121 0 98 -1T49 -3T1 -5ZM214 236L235 284L448 288L451 236H214ZM286 732L255 752Q255 752 264 767T287 802T318 837T350 852Q370 852 394 842T442 822T487 811Q501 811
515 824T538 850T548 863L580 843Q580 843 571 828T547 794T515 760T483 745Q464 745 440 755T391 776T347 786Q334 786 320 773T296 746T286 732Z" />
<glyph unicode="&#xc4;" horiz-adv-x="689" d="M1 -5L4 42L101 69L59 45Q64 51 77 73T105 122T128 168L374 705L430 715L554 138Q556 128 562 108T575 68T584 41L542 69L635 53L623 0H528Q515 0 490 -1T438 -3T386 -5L390 42L497 73L466 33Q465 48 464 73T460
124T454 170L375 576H385L184 139Q180 129 174 111T163 75T156 43L126 68L227 53L215 0H133Q121 0 98 -1T49 -3T1 -5ZM214 236L235 284L448 288L451 236H214ZM488 738Q469 738 455 750T441 786Q441 813 456 831T496 850Q517 850 530 837T543 803Q544 774 528 756T488
738ZM313 738Q295 738 283 750T269 786Q269 812 284 831T325 850Q345 850 358 837T371 803Q372 775 355 757T313 738Z" />
<glyph unicode="&#xc5;" horiz-adv-x="689" d="M1 -5L4 42L101 69L59 45Q64 51 77 73T105 122T128 168L374 705L430 715L554 138Q556 128 562 108T575 68T584 41L542 69L635 53L623 0H528Q515 0 490 -1T438 -3T386 -5L390 42L497 73L466 33Q465 48 464 73T460
124T454 170L375 576H385L184 139Q180 129 174 111T163 75T156 43L126 68L227 53L215 0H133Q121 0 98 -1T49 -3T1 -5ZM214 236L235 284L448 288L451 236H214ZM414 738Q369 738 349 761T331 823Q334 861 358 884T428 908Q473 908 492 885T509 823Q506 785 483 762T414
738ZM417 775Q440 775 452 789T465 823Q467 843 458 857T425 872Q403 872 392 858T378 823Q377 804 386 790T417 775Z" />
<glyph unicode="&#xc6;" horiz-adv-x="926" d="M1 -5L4 42L110 69L63 45Q69 51 85 72T121 120T154 168L494 705H552L575 138Q576 129 578 108T584 68T588 41L623 0H528Q515 0 490 -1T438 -3T386 -5L390 42L506 73L468 33Q469 45 472 70T479 123T481 170L472 576H483L206
139Q200 129 191 111T173 75T160 43L135 68L227 53L215 0H133Q121 0 98 -1T49 -3T1 -5ZM251 236L282 284L494 288L489 236H251ZM527 0V55H682Q711 55 740 59T783 67L753 44Q764 58 777 74T794 100Q799 112 807 134T820 168L872 163L835 14L818 0Q790 0 757 0T704
0H527ZM724 255L729 357L761 320Q743 322 721 324T679 327T650 329H506V383H677Q683 383 699 384T735 388T770 393L725 356L757 458L801 453Q791 398 784 350T771 261L724 255ZM823 556Q822 568 822 586T820 611Q820 617 815 628T802 651T787 675L830 643Q822 644
800 645T756 648T727 650L508 651V705L764 704Q772 704 791 705T834 707T876 709L892 691L879 561L823 556Z" />
<glyph unicode="&#xc7;" horiz-adv-x="629" d="M334 -15Q247 -15 187 22T96 126T64 281Q64 374 88 454T158 593T273 686T431 720Q491 720 536 709T626 686L596 540L539 544L546 590Q547 595 546 610T544 643T540 675L576 634Q539 645 501 655T423 665Q360 665
312 634T230 549T179 427T162 283Q162 215 183 160T244 72T341 40Q382 40 421 49T501 69L455 31Q461 46 468 63T480 95T489 120Q491 131 493 143T497 166L554 168L538 19Q490 7 442 -4T334 -15ZM216 -247L210 -212Q248 -210 279 -197T315 -147Q318 -119 299 -111T261
-102L252 -97L292 17H341L289 -97L276 -41Q325 -51 353 -69T373 -137Q365 -192 323 -219T216 -247Z" />
<glyph unicode="&#xc8;" horiz-adv-x="584" d="M9 -5L11 44L125 67L81 23Q84 35 90 58T103 103T110 135L174 572Q175 582 175 602T176 641T176 666L210 640L102 658L115 710Q134 709 157 708T201 706T230 705H443Q451 705 470 706T513 708T555 710L571 692L558
563L502 558Q501 570 501 588T499 612Q499 618 494 629T481 652T466 676L509 644Q500 645 478 646T435 649T406 651H245L284 675Q282 666 276 640T264 585T255 538L229 360L200 394H347Q353 394 369 395T405 399T440 403L395 367L427 469L471 464Q461 409 454 361T441
272L394 266L399 368L431 331Q413 333 390 335T348 338T320 340H192L231 374L201 165Q199 149 196 121T192 64T190 20L158 55H332Q360 55 389 59T433 67L402 44Q413 57 426 73T443 100Q449 112 457 134T469 168L521 163L484 14L467 0Q439 0 406 0T353 0H143Q119
0 81 -1T9 -5ZM465 753L244 846L282 908L488 793L465 753Z" />
<glyph unicode="&#xc9;" horiz-adv-x="584" d="M9 -5L11 44L125 67L81 23Q84 35 90 58T103 103T110 135L174 572Q175 582 175 602T176 641T176 666L210 640L102 658L115 710Q134 709 157 708T201 706T230 705H443Q451 705 470 706T513 708T555 710L571 692L558
563L502 558Q501 570 501 588T499 612Q499 618 494 629T481 652T466 676L509 644Q500 645 478 646T435 649T406 651H245L284 675Q282 666 276 640T264 585T255 538L229 360L200 394H347Q353 394 369 395T405 399T440 403L395 367L427 469L471 464Q461 409 454 361T441
272L394 266L399 368L431 331Q413 333 390 335T348 338T320 340H192L231 374L201 165Q199 149 196 121T192 64T190 20L158 55H332Q360 55 389 59T433 67L402 44Q413 57 426 73T443 100Q449 112 457 134T469 168L521 163L484 14L467 0Q439 0 406 0T353 0H143Q119
0 81 -1T9 -5ZM258 753L247 793L485 908L506 846L258 753Z" />
<glyph unicode="&#xca;" horiz-adv-x="584" d="M9 -5L11 44L125 67L81 23Q84 35 90 58T103 103T110 135L174 572Q175 582 175 602T176 641T176 666L210 640L102 658L115 710Q134 709 157 708T201 706T230 705H443Q451 705 470 706T513 708T555 710L571 692L558
563L502 558Q501 570 501 588T499 612Q499 618 494 629T481 652T466 676L509 644Q500 645 478 646T435 649T406 651H245L284 675Q282 666 276 640T264 585T255 538L229 360L200 394H347Q353 394 369 395T405 399T440 403L395 367L427 469L471 464Q461 409 454 361T441
272L394 266L399 368L431 331Q413 333 390 335T348 338T320 340H192L231 374L201 165Q199 149 196 121T192 64T190 20L158 55H332Q360 55 389 59T433 67L402 44Q413 57 426 73T443 100Q449 112 457 134T469 168L521 163L484 14L467 0Q439 0 406 0T353 0H143Q119
0 81 -1T9 -5ZM549 748L378 833L188 754L187 784L351 878H422L559 778L549 748Z" />
<glyph unicode="&#xcb;" horiz-adv-x="584" d="M9 -5L11 44L125 67L81 23Q84 35 90 58T103 103T110 135L174 572Q175 582 175 602T176 641T176 666L210 640L102 658L115 710Q134 709 157 708T201 706T230 705H443Q451 705 470 706T513 708T555 710L571 692L558
563L502 558Q501 570 501 588T499 612Q499 618 494 629T481 652T466 676L509 644Q500 645 478 646T435 649T406 651H245L284 675Q282 666 276 640T264 585T255 538L229 360L200 394H347Q353 394 369 395T405 399T440 403L395 367L427 469L471 464Q461 409 454 361T441
272L394 266L399 368L431 331Q413 333 390 335T348 338T320 340H192L231 374L201 165Q199 149 196 121T192 64T190 20L158 55H332Q360 55 389 59T433 67L402 44Q413 57 426 73T443 100Q449 112 457 134T469 168L521 163L484 14L467 0Q439 0 406 0T353 0H143Q119
0 81 -1T9 -5ZM444 753Q425 753 411 765T397 801Q397 828 412 846T452 865Q473 865 486 852T499 818Q500 789 484 771T444 753ZM269 753Q251 753 239 765T225 801Q225 827 240 846T281 865Q301 865 314 852T327 818Q328 790 311 772T269 753Z" />
<glyph unicode="&#xcc;" horiz-adv-x="345" d="M9 -5L11 44L125 67L81 22Q85 36 91 59T103 103T110 135L174 572Q175 581 175 602T176 647T176 681L210 640L102 658L115 710Q134 709 157 708T201 706T230 705Q255 705 291 707T359 710L354 653L243 643L286 681Q283
669 277 643T264 588T255 538L201 165Q199 148 197 122T193 69T192 27L158 63L279 53L265 0H143Q131 0 108 -1T58 -3T9 -5ZM343 753L122 846L160 908L366 793L343 753Z" />
<glyph unicode="&#xcd;" horiz-adv-x="345" d="M9 -5L11 44L125 67L81 22Q85 36 91 59T103 103T110 135L174 572Q175 581 175 602T176 647T176 681L210 640L102 658L115 710Q134 709 157 708T201 706T230 705Q255 705 291 707T359 710L354 653L243 643L286 681Q283
669 277 643T264 588T255 538L201 165Q199 148 197 122T193 69T192 27L158 63L279 53L265 0H143Q131 0 108 -1T58 -3T9 -5ZM136 753L125 793L363 908L384 846L136 753Z" />
<glyph unicode="&#xce;" horiz-adv-x="345" d="M9 -5L11 44L125 67L81 22Q85 36 91 59T103 103T110 135L174 572Q175 581 175 602T176 647T176 681L210 640L102 658L115 710Q134 709 157 708T201 706T230 705Q255 705 291 707T359 710L354 653L243 643L286 681Q283
669 277 643T264 588T255 538L201 165Q199 148 197 122T193 69T192 27L158 63L279 53L265 0H143Q131 0 108 -1T58 -3T9 -5ZM683 748L512 833L322 754L321 784L485 878H556L693 778L683 748Z" />
<glyph unicode="&#xcf;" horiz-adv-x="345" d="M9 -5L11 44L125 67L81 22Q85 36 91 59T103 103T110 135L174 572Q175 581 175 602T176 647T176 681L210 640L102 658L115 710Q134 709 157 708T201 706T230 705Q255 705 291 707T359 710L354 653L243 643L286 681Q283
669 277 643T264 588T255 538L201 165Q199 148 197 122T193 69T192 27L158 63L279 53L265 0H143Q131 0 108 -1T58 -3T9 -5ZM322 753Q303 753 289 765T275 801Q275 828 290 846T330 865Q351 865 364 852T377 818Q378 789 362 771T322 753ZM147 753Q129 753 117 765T103
801Q103 827 118 846T159 865Q179 865 192 852T205 818Q206 790 189 772T147 753Z" />
<glyph unicode="&#xd0;" horiz-adv-x="715" d="M9 -5L11 44L125 67L83 34Q87 47 92 65T103 103T110 135L174 572Q175 582 175 604T176 647T176 675L210 640L102 658L115 710Q130 709 151 708T194 706T230 705Q250 705 277 706T332 709T380 710Q475 710 541 674T643
573T678 418Q678 295 632 200T500 50T296 -5Q259 -5 219 -3T143 0Q131 0 106 -1T54 -3T9 -5ZM190 29L163 56Q172 56 199 55T256 53T306 52Q377 52 429 81T516 161T567 276T584 411Q584 478 563 532T497 619T383 652Q365 652 327 652T253 648L282 662Q280 654 275
632T264 583T255 538L201 165Q199 147 196 117T192 62T190 29ZM38 332L44 374H381L371 332H38Z" />
<glyph unicode="&#xd1;" horiz-adv-x="763" d="M9 -5L11 44L122 67L81 25Q82 30 86 45T96 78T105 112T111 135L175 572Q176 581 176 604T176 650T176 680L210 640L102 658L115 710Q135 709 158 708T201 706T231 705H266L282 685L353 530L571 128L550 124L616 572Q618
581 618 601T619 643T618 675L652 640L544 658L557 710Q575 709 597 708T638 706T665 705Q681 705 703 706T748 708T787 710L782 653L671 643L714 668Q710 660 702 636T685 584T674 538L594 0H532L220 594L240 598L178 165Q176 151 174 125T170 71T167 27L131 63L247
53L234 0H141Q129 0 107 -1T58 -3T9 -5ZM324 747L293 767Q293 767 302 782T325 817T356 852T388 867Q408 867 432 857T480 837T525 826Q539 826 553 839T576 865T586 878L618 858Q618 858 609 843T585 809T553 775T521 760Q502 760 478 770T429 791T385 801Q372
801 358 788T334 761T324 747Z" />
<glyph unicode="&#xd2;" horiz-adv-x="750" d="M336 -15Q246 -15 185 23T94 128T63 283Q63 376 87 455T159 594T277 687T438 720Q529 720 589 682T680 577T711 421Q711 329 687 250T616 111T498 18T336 -15ZM341 35Q406 35 456 67T540 153T592 277T610 420Q610
490 591 546T534 636T434 670Q369 670 319 638T235 551T183 427T165 284Q165 215 184 159T242 69T341 35ZM543 753L322 846L360 908L566 793L543 753Z" />
<glyph unicode="&#xd3;" horiz-adv-x="750" d="M336 -15Q246 -15 185 23T94 128T63 283Q63 376 87 455T159 594T277 687T438 720Q529 720 589 682T680 577T711 421Q711 329 687 250T616 111T498 18T336 -15ZM341 35Q406 35 456 67T540 153T592 277T610 420Q610
490 591 546T534 636T434 670Q369 670 319 638T235 551T183 427T165 284Q165 215 184 159T242 69T341 35ZM336 753L325 793L563 908L584 846L336 753Z" />
<glyph unicode="&#xd4;" horiz-adv-x="750" d="M336 -15Q246 -15 185 23T94 128T63 283Q63 376 87 455T159 594T277 687T438 720Q529 720 589 682T680 577T711 421Q711 329 687 250T616 111T498 18T336 -15ZM341 35Q406 35 456 67T540 153T592 277T610 420Q610
490 591 546T534 636T434 670Q369 670 319 638T235 551T183 427T165 284Q165 215 184 159T242 69T341 35ZM627 748L456 833L266 754L265 784L429 878H500L637 778L627 748Z" />
<glyph unicode="&#xd5;" horiz-adv-x="750" d="M336 -15Q246 -15 185 23T94 128T63 283Q63 376 87 455T159 594T277 687T438 720Q529 720 589 682T680 577T711 421Q711 329 687 250T616 111T498 18T336 -15ZM341 35Q406 35 456 67T540 153T592 277T610 420Q610
490 591 546T534 636T434 670Q369 670 319 638T235 551T183 427T165 284Q165 215 184 159T242 69T341 35ZM320 747L289 767Q289 767 298 782T321 817T352 852T384 867Q404 867 428 857T476 837T521 826Q535 826 549 839T572 865T582 878L614 858Q614 858 605 843T581
809T549 775T517 760Q498 760 474 770T425 791T381 801Q368 801 354 788T330 761T320 747Z" />
<glyph unicode="&#xd6;" horiz-adv-x="750" d="M336 -15Q246 -15 185 23T94 128T63 283Q63 376 87 455T159 594T277 687T438 720Q529 720 589 682T680 577T711 421Q711 329 687 250T616 111T498 18T336 -15ZM341 35Q406 35 456 67T540 153T592 277T610 420Q610
490 591 546T534 636T434 670Q369 670 319 638T235 551T183 427T165 284Q165 215 184 159T242 69T341 35ZM522 753Q503 753 489 765T475 801Q475 828 490 846T530 865Q551 865 564 852T577 818Q578 789 562 771T522 753ZM347 753Q329 753 317 765T303 801Q303 827
318 846T359 865Q379 865 392 852T405 818Q406 790 389 772T347 753Z" />
<glyph unicode="&#xd7;" horiz-adv-x="620" d="M126 42L84 90L492 457L536 406L126 42ZM442 43L121 407L174 455L499 94L442 43Z" />
<glyph unicode="&#xd8;" horiz-adv-x="745" d="M118 -123L81 -99L630 825L669 801L118 -123ZM332 -15Q242 -15 181 23T90 128T59 283Q59 376 83 455T155 594T273 687T434 720Q525 720 585 682T676 577T707 421Q707 329 683 250T612 111T494 18T332 -15ZM337 35Q402
35 452 67T536 153T588 277T606 420Q606 490 587 546T530 636T430 670Q365 670 315 638T231 551T179 427T161 284Q161 215 180 159T238 69T337 35Z" />
<glyph unicode="&#xd9;" horiz-adv-x="723" d="M314 -15Q207 -15 153 44T99 203Q99 218 101 236T108 291T123 394T150 572Q152 581 152 603T153 648T153 675L187 640L79 658L92 710Q111 709 134 708T177 706T206 705Q218 705 240 706T288 708T335 710L330 653L219
643L260 676Q258 667 252 641T240 586T231 538Q217 439 209 380T196 288T189 239T187 209Q187 136 222 91T327 45Q386 45 428 74T497 153T533 267L579 572Q580 581 580 601T580 641T579 671L613 640L504 658L517 710Q535 709 557 708T597 706T625 705Q642 705 678
707T745 710L742 653L630 643L670 675Q669 667 663 641T650 586T641 538L601 266Q582 138 510 62T314 -15ZM541 753L320 846L358 908L564 793L541 753Z" />
<glyph unicode="&#xda;" horiz-adv-x="723" d="M314 -15Q207 -15 153 44T99 203Q99 218 101 236T108 291T123 394T150 572Q152 581 152 603T153 648T153 675L187 640L79 658L92 710Q111 709 134 708T177 706T206 705Q218 705 240 706T288 708T335 710L330 653L219
643L260 676Q258 667 252 641T240 586T231 538Q217 439 209 380T196 288T189 239T187 209Q187 136 222 91T327 45Q386 45 428 74T497 153T533 267L579 572Q580 581 580 601T580 641T579 671L613 640L504 658L517 710Q535 709 557 708T597 706T625 705Q642 705 678
707T745 710L742 653L630 643L670 675Q669 667 663 641T650 586T641 538L601 266Q582 138 510 62T314 -15ZM334 753L323 793L561 908L582 846L334 753Z" />
<glyph unicode="&#xdb;" horiz-adv-x="723" d="M314 -15Q207 -15 153 44T99 203Q99 218 101 236T108 291T123 394T150 572Q152 581 152 603T153 648T153 675L187 640L79 658L92 710Q111 709 134 708T177 706T206 705Q218 705 240 706T288 708T335 710L330 653L219
643L260 676Q258 667 252 641T240 586T231 538Q217 439 209 380T196 288T189 239T187 209Q187 136 222 91T327 45Q386 45 428 74T497 153T533 267L579 572Q580 581 580 601T580 641T579 671L613 640L504 658L517 710Q535 709 557 708T597 706T625 705Q642 705 678
707T745 710L742 653L630 643L670 675Q669 667 663 641T650 586T641 538L601 266Q582 138 510 62T314 -15ZM625 748L454 833L264 754L263 784L427 878H498L635 778L625 748Z" />
<glyph unicode="&#xdc;" horiz-adv-x="723" d="M314 -15Q207 -15 153 44T99 203Q99 218 101 236T108 291T123 394T150 572Q152 581 152 603T153 648T153 675L187 640L79 658L92 710Q111 709 134 708T177 706T206 705Q218 705 240 706T288 708T335 710L330 653L219
643L260 676Q258 667 252 641T240 586T231 538Q217 439 209 380T196 288T189 239T187 209Q187 136 222 91T327 45Q386 45 428 74T497 153T533 267L579 572Q580 581 580 601T580 641T579 671L613 640L504 658L517 710Q535 709 557 708T597 706T625 705Q642 705 678
707T745 710L742 653L630 643L670 675Q669 667 663 641T650 586T641 538L601 266Q582 138 510 62T314 -15ZM520 753Q501 753 487 765T473 801Q473 828 488 846T528 865Q549 865 562 852T575 818Q576 789 560 771T520 753ZM345 753Q327 753 315 765T301 801Q301
827 316 846T357 865Q377 865 390 852T403 818Q404 790 387 772T345 753Z" />
<glyph unicode="&#xdd;" horiz-adv-x="629" d="M275 238L155 572Q153 579 147 593T132 623T117 654T106 676L153 641L79 658L92 710Q120 709 150 707T192 705Q205 705 229 706T280 708T329 710L325 653L200 643L229 680Q229 670 232 651T239 609T247 567T256 537L343
310L313 313L473 572Q478 580 485 592T500 619T513 646T520 664L551 640L425 657L439 710Q458 709 480 708T522 706T550 705Q564 705 594 707T653 710L648 653L577 641L626 667Q621 661 609 646T581 610T551 571T527 538L332 238H275ZM138 -5L140 44L264 67L219
22Q223 36 229 59T242 103T249 135L275 310H361L340 165Q338 148 336 122T332 69T331 27L297 63L428 53L414 0H282Q270 0 244 -1T189 -3T138 -5ZM272 753L261 793L499 908L520 846L272 753Z" />
<glyph unicode="&#xde;" horiz-adv-x="545" d="M9 -5L11 44L125 67L81 22Q85 36 91 59T103 103T110 135L174 572Q175 581 175 602T176 647T176 681L210 640L102 658L115 710Q134 709 157 708T201 706T230 705Q255 705 291 707T359 710L354 653L243 643L286 681Q283
669 277 643T264 588T255 538L201 165Q199 148 197 122T193 69T192 27L158 63L279 53L265 0H143Q131 0 108 -1T58 -3T9 -5ZM251 166Q243 166 231 166T206 166T182 167T161 169L169 219Q184 218 205 216T240 214Q325 214 378 257T432 382Q432 442 393 475T284 508Q274
508 256 507T215 503L222 551Q241 552 260 553T296 554T327 555Q422 555 471 513T520 390Q520 318 482 268T383 192T251 166Z" />
<glyph unicode="&#xdf;" horiz-adv-x="502" d="M-146 -233L-129 -173Q-107 -173 -81 -167T-32 -152T-1 -131Q7 -120 17 -87T38 2T61 132Q74 215 83 312T111 541Q120 606 149 650T219 720T302 757T381 769Q418 769 445 756T487 717T502 651Q502 609 484 578T438
521T383 475T337 431T318 381Q318 358 333 339T369 302T413 265T450 220T465 161Q465 111 441 72T380 12T303 -10Q252 -10 215 9T165 45L164 76L215 171L251 161L233 36L220 81Q244 60 262 49T307 37Q346 36 370 59T395 125Q395 149 381 168T345 205T302 243T266
291T251 356Q251 399 269 428T315 479T369 522T414 569T433 634Q433 679 410 695T358 713Q335 713 308 709T256 695T219 668Q208 654 198 617T179 526T162 410T145 282T130 156T115 46T100 -35Q88 -93 52 -135T-36 -202T-146 -233Z" />
<glyph unicode="&#xe0;" horiz-adv-x="508" d="M132 -10Q99 -10 76 6T41 56T29 140Q29 185 42 235T79 334T131 422T190 484T248 508Q265 508 292 505T344 498T379 494L378 410Q372 413 348 425T292 449T234 461Q219 461 202 441T169 386T140 309T119 225T111 146Q111
101 124 72T157 43Q175 43 199 69T249 138T298 234T335 341T352 441L354 492L424 508L446 495Q428 419 413 349T389 205T379 45L349 74L471 68L468 35L325 -10L301 5Q306 34 309 64T317 131T329 220L333 196Q307 138 274 92T205 18T132 -10ZM339 543L163 690L202
741L370 578L339 543Z" />
<glyph unicode="&#xe1;" horiz-adv-x="508" d="M132 -10Q99 -10 76 6T41 56T29 140Q29 185 42 235T79 334T131 422T190 484T248 508Q265 508 292 505T344 498T379 494L378 410Q372 413 348 425T292 449T234 461Q219 461 202 441T169 386T140 309T119 225T111 146Q111
101 124 72T157 43Q175 43 199 69T249 138T298 234T335 341T352 441L354 492L424 508L446 495Q428 419 413 349T389 205T379 45L349 74L471 68L468 35L325 -10L301 5Q306 34 309 64T317 131T329 220L333 196Q307 138 274 92T205 18T132 -10ZM241 543L207 577L377
741L416 690L241 543Z" />
<glyph unicode="&#xe2;" horiz-adv-x="508" d="M132 -10Q99 -10 76 6T41 56T29 140Q29 185 42 235T79 334T131 422T190 484T248 508Q265 508 292 505T344 498T379 494L378 410Q372 413 348 425T292 449T234 461Q219 461 202 441T169 386T140 309T119 225T111 146Q111
101 124 72T157 43Q175 43 199 69T249 138T298 234T335 341T352 441L354 492L424 508L446 495Q428 419 413 349T389 205T379 45L349 74L471 68L468 35L325 -10L301 5Q306 34 309 64T317 131T329 220L333 196Q307 138 274 92T205 18T132 -10ZM169 539L144 568L312
698H348L376 664L169 539ZM427 540L304 669L335 698H371L461 563L427 540Z" />
<glyph unicode="&#xe3;" horiz-adv-x="508" d="M132 -10Q99 -10 76 6T41 56T29 140Q29 185 42 235T79 334T131 422T190 484T248 508Q265 508 292 505T344 498T379 494L378 410Q372 413 348 425T292 449T234 461Q219 461 202 441T169 386T140 309T119 225T111 146Q111
101 124 72T157 43Q175 43 199 69T249 138T298 234T335 341T352 441L354 492L424 508L446 495Q428 419 413 349T389 205T379 45L349 74L471 68L468 35L325 -10L301 5Q306 34 309 64T317 131T329 220L333 196Q307 138 274 92T205 18T132 -10ZM193 560L161 580Q161
580 170 595T194 630T225 665T257 681Q277 681 301 671T350 651T394 640Q408 640 422 652T445 678T455 691L487 671Q487 671 478 656T454 622T423 587T391 572Q371 572 347 582T298 603T254 613Q240 613 226 600T203 574T193 560Z" />
<glyph unicode="&#xe4;" horiz-adv-x="508" d="M132 -10Q99 -10 76 6T41 56T29 140Q29 185 42 235T79 334T131 422T190 484T248 508Q265 508 292 505T344 498T379 494L378 410Q372 413 348 425T292 449T234 461Q219 461 202 441T169 386T140 309T119 225T111 146Q111
101 124 72T157 43Q175 43 199 69T249 138T298 234T335 341T352 441L354 492L424 508L446 495Q428 419 413 349T389 205T379 45L349 74L471 68L468 35L325 -10L301 5Q306 34 309 64T317 131T329 220L333 196Q307 138 274 92T205 18T132 -10ZM388 564Q369 564 355
576T341 612Q341 639 356 657T396 676Q417 676 430 663T443 629Q444 600 428 582T388 564ZM213 564Q195 564 183 576T169 612Q169 638 184 657T225 676Q245 676 258 663T271 629Q272 601 255 583T213 564Z" />
<glyph unicode="&#xe5;" horiz-adv-x="508" d="M132 -10Q99 -10 76 6T41 56T29 140Q29 185 42 235T79 334T131 422T190 484T248 508Q265 508 292 505T344 498T379 494L378 410Q372 413 348 425T292 449T234 461Q219 461 202 441T169 386T140 309T119 225T111 146Q111
101 124 72T157 43Q175 43 199 69T249 138T298 234T335 341T352 441L354 492L424 508L446 495Q428 419 413 349T389 205T379 45L349 74L471 68L468 35L325 -10L301 5Q306 34 309 64T317 131T329 220L333 196Q307 138 274 92T205 18T132 -10ZM304 545Q266 545 247
563T228 613Q228 635 237 658T268 698T328 715Q366 715 384 697T402 646Q402 624 393 601T363 561T304 545ZM309 581Q329 581 339 592T353 617T357 642Q357 657 350 667T323 678Q305 678 295 667T280 642T276 618Q276 603 284 592T309 581Z" />
<glyph unicode="&#xe6;" horiz-adv-x="666" d="M108 -10Q74 -10 54 6T25 46T14 97T14 145Q19 187 55 211T144 250T255 274L324 287L323 241Q267 234 221 221T145 193T111 165Q106 150 104 130T104 91T116 59T143 46Q163 46 189 64T240 113T284 184T311 270Q313
281 315 302T319 346T317 386Q313 417 294 431T246 442T182 420T111 364L83 387Q116 428 152 455T223 495T289 509Q331 509 361 488T402 426T402 330Q392 285 373 238T327 146T266 67T192 11T108 -10ZM404 -10Q349 -10 321 28T292 140Q292 185 305 235T340 334T390
422T446 484T501 508Q571 508 608 488T646 430Q646 379 612 336T513 261T360 213L361 255Q422 264 467 285T539 338T565 405Q565 430 549 441T499 453Q480 453 459 423T418 346T386 247T374 149Q374 100 389 74T436 47Q461 47 487 58T540 93T592 152L623 131Q595
85 561 54T487 6T404 -10Z" />
<glyph unicode="&#xe7;" horiz-adv-x="410" d="M141 -10Q86 -10 58 29T30 141Q30 187 42 237T76 336T124 423T177 485T230 508Q241 508 261 507T310 502T379 493L392 472L354 326L321 328L312 454L357 410Q313 426 288 434T251 444T228 447Q210 447 190 418T153
342T124 245T112 150Q112 100 128 73T174 46Q214 46 255 74T334 154L363 134Q321 63 263 27T141 -10ZM52 -247L46 -212Q84 -210 115 -197T151 -147Q154 -119 135 -111T97 -102L88 -97L128 17H177L125 -97L112 -41Q161 -51 189 -69T209 -137Q201 -192 159 -219T52
-247Z" />
<glyph unicode="&#xe8;" horiz-adv-x="404" d="M142 -10Q87 -10 59 29T30 141Q30 187 43 238T78 337T127 423T183 485T237 508Q307 508 344 488T382 430Q382 378 348 334T249 258T96 210L97 252Q158 261 203 283T275 336T301 404Q301 430 286 441T235 453Q216
453 195 423T155 347T124 248T112 150Q112 101 127 74T173 47Q197 47 223 58T277 94T330 153L360 133Q333 86 298 54T224 6T142 -10ZM296 543L120 690L159 741L327 578L296 543Z" />
<glyph unicode="&#xe9;" horiz-adv-x="404" d="M142 -10Q87 -10 59 29T30 141Q30 187 43 238T78 337T127 423T183 485T237 508Q307 508 344 488T382 430Q382 378 348 334T249 258T96 210L97 252Q158 261 203 283T275 336T301 404Q301 430 286 441T235 453Q216
453 195 423T155 347T124 248T112 150Q112 101 127 74T173 47Q197 47 223 58T277 94T330 153L360 133Q333 86 298 54T224 6T142 -10ZM198 543L164 577L334 741L373 690L198 543Z" />
<glyph unicode="&#xea;" horiz-adv-x="404" d="M142 -10Q87 -10 59 29T30 141Q30 187 43 238T78 337T127 423T183 485T237 508Q307 508 344 488T382 430Q382 378 348 334T249 258T96 210L97 252Q158 261 203 283T275 336T301 404Q301 430 286 441T235 453Q216
453 195 423T155 347T124 248T112 150Q112 101 127 74T173 47Q197 47 223 58T277 94T330 153L360 133Q333 86 298 54T224 6T142 -10ZM126 539L101 568L269 698H305L333 664L126 539ZM384 540L261 669L292 698H328L418 563L384 540Z" />
<glyph unicode="&#xeb;" horiz-adv-x="404" d="M142 -10Q87 -10 59 29T30 141Q30 187 43 238T78 337T127 423T183 485T237 508Q307 508 344 488T382 430Q382 378 348 334T249 258T96 210L97 252Q158 261 203 283T275 336T301 404Q301 430 286 441T235 453Q216
453 195 423T155 347T124 248T112 150Q112 101 127 74T173 47Q197 47 223 58T277 94T330 153L360 133Q333 86 298 54T224 6T142 -10ZM345 564Q326 564 312 576T298 612Q298 639 313 657T353 676Q374 676 387 663T400 629Q401 600 385 582T345 564ZM170 564Q152
564 140 576T126 612Q126 638 141 657T182 676Q202 676 215 663T228 629Q229 601 212 583T170 564Z" />
<glyph unicode="&#xec;" horiz-adv-x="278" d="M77 -10L53 5Q71 78 82 132T102 234T115 332T127 447L158 420L42 426L41 463L203 508L225 488Q211 437 198 368T172 218T146 47L118 75L242 68L238 35L77 -10ZM484 796L336 946L381 994L522 830L484 796Z" />
<glyph unicode="&#xed;" horiz-adv-x="278" d="M77 -10L53 5Q71 78 82 132T102 234T115 332T127 447L158 420L42 426L41 463L203 508L225 488Q211 437 198 368T172 218T146 47L118 75L242 68L238 35L77 -10ZM120 796L86 830L256 994L295 943L120 796Z" />
<glyph unicode="&#xee;" horiz-adv-x="278" d="M77 -10L53 5Q71 78 82 132T102 234T115 332T127 447L158 420L42 426L41 463L203 508L225 488Q211 437 198 368T172 218T146 47L118 75L242 68L238 35L77 -10ZM510 792L416 926L479 916L340 793L315 813L423 940H471L541
808L510 792Z" />
<glyph unicode="&#xef;" horiz-adv-x="278" d="M77 -10L53 5Q71 78 82 132T102 234T115 332T127 447L158 420L42 426L41 463L203 508L225 488Q211 437 198 368T172 218T146 47L118 75L242 68L238 35L77 -10ZM502 816Q483 816 471 828T457 862Q457 893 473 912T515
931Q535 931 547 919T560 885Q560 854 544 835T502 816ZM356 816Q337 816 325 828T312 862Q312 892 328 911T370 931Q390 931 402 919T415 884Q415 854 398 835T356 816Z" />
<glyph unicode="&#xf0;" horiz-adv-x="472" d="M181 -10Q126 -10 94 12T48 75T33 168Q33 226 51 285T102 395T182 477T283 508Q297 508 312 506T341 500T366 489L385 421Q357 446 326 452T284 459Q241 459 211 431T162 359T134 266T125 174Q125 146 129 115T146
63T188 42Q225 42 252 66T300 130T332 217T350 313T356 400Q356 496 339 559T295 666T242 748L289 768Q363 683 400 593T437 392Q437 341 427 285T396 177T344 82T272 15T181 -10ZM192 551L171 590L479 741L500 699L192 551Z" />
<glyph unicode="&#xf1;" horiz-adv-x="554" d="M79 -10L55 5Q71 68 81 115T97 201T108 275T117 353T127 448L156 422L39 428V463L200 508L219 489Q209 454 202 406T185 303L180 312Q193 340 214 373T265 437T329 488T403 508Q441 508 457 484T473 426Q473 378
461 317T436 187T420 51L390 74L518 68L515 35L349 -10L326 5Q337 54 348 106T368 208T383 305T389 387Q389 408 382 425T354 442Q339 442 314 422T259 362T201 260T153 115Q148 85 145 60T138 5L79 -10ZM220 560L188 580Q188 580 197 595T221 630T252 665T284
681Q304 681 328 671T377 651T421 640Q435 640 449 652T472 678T482 691L514 671Q514 671 505 656T481 622T450 587T418 572Q398 572 374 582T325 603T281 613Q267 613 253 600T230 574T220 560Z" />
<glyph unicode="&#xf2;" horiz-adv-x="464" d="M174 -10Q107 -10 70 37T33 163Q33 231 53 293T110 403T192 480T290 508Q358 508 394 463T431 337Q431 268 411 206T354 95T272 18T174 -10ZM189 41Q233 41 268 80T323 188T344 341Q344 398 328 428T276 459Q231
459 196 419T141 311T121 158Q121 101 138 71T189 41ZM323 543L147 690L186 741L354 578L323 543Z" />
<glyph unicode="&#xf3;" horiz-adv-x="464" d="M174 -10Q107 -10 70 37T33 163Q33 231 53 293T110 403T192 480T290 508Q358 508 394 463T431 337Q431 268 411 206T354 95T272 18T174 -10ZM189 41Q233 41 268 80T323 188T344 341Q344 398 328 428T276 459Q231
459 196 419T141 311T121 158Q121 101 138 71T189 41ZM225 543L191 577L361 741L400 690L225 543Z" />
<glyph unicode="&#xf4;" horiz-adv-x="464" d="M174 -10Q107 -10 70 37T33 163Q33 231 53 293T110 403T192 480T290 508Q358 508 394 463T431 337Q431 268 411 206T354 95T272 18T174 -10ZM189 41Q233 41 268 80T323 188T344 341Q344 398 328 428T276 459Q231
459 196 419T141 311T121 158Q121 101 138 71T189 41ZM153 539L128 568L296 698H332L360 664L153 539ZM411 540L288 669L319 698H355L445 563L411 540Z" />
<glyph unicode="&#xf5;" horiz-adv-x="464" d="M174 -10Q107 -10 70 37T33 163Q33 231 53 293T110 403T192 480T290 508Q358 508 394 463T431 337Q431 268 411 206T354 95T272 18T174 -10ZM189 41Q233 41 268 80T323 188T344 341Q344 398 328 428T276 459Q231
459 196 419T141 311T121 158Q121 101 138 71T189 41ZM177 560L145 580Q145 580 154 595T178 630T209 665T241 681Q261 681 285 671T334 651T378 640Q392 640 406 652T429 678T439 691L471 671Q471 671 462 656T438 622T407 587T375 572Q355 572 331 582T282 603T238
613Q224 613 210 600T187 574T177 560Z" />
<glyph unicode="&#xf6;" horiz-adv-x="464" d="M174 -10Q107 -10 70 37T33 163Q33 231 53 293T110 403T192 480T290 508Q358 508 394 463T431 337Q431 268 411 206T354 95T272 18T174 -10ZM189 41Q233 41 268 80T323 188T344 341Q344 398 328 428T276 459Q231
459 196 419T141 311T121 158Q121 101 138 71T189 41ZM372 564Q353 564 339 576T325 612Q325 639 340 657T380 676Q401 676 414 663T427 629Q428 600 412 582T372 564ZM197 564Q179 564 167 576T153 612Q153 638 168 657T209 676Q229 676 242 663T255 629Q256 601
239 583T197 564Z" />
<glyph unicode="&#xf7;" horiz-adv-x="634" d="M90 214L98 276L544 282L535 214H90ZM287 7Q262 7 250 21T238 58Q238 91 256 112T303 133Q326 133 339 120T353 83Q353 49 335 28T287 7ZM331 359Q307 359 295 373T282 410Q282 443 300 464T348 485Q371 485 384
472T398 435Q398 401 379 380T331 359Z" />
<glyph unicode="&#xf8;" horiz-adv-x="473" d="M481 580L23 -99L-11 -81L447 598L481 580ZM178 -10Q111 -10 74 37T37 163Q37 231 57 293T114 403T196 480T294 508Q362 508 398 463T435 337Q435 268 415 206T358 95T276 18T178 -10ZM193 41Q237 41 272 80T327
188T348 341Q348 398 332 428T280 459Q235 459 200 419T145 311T125 158Q125 101 142 71T193 41Z" />
<glyph unicode="&#xf9;" horiz-adv-x="529" d="M133 -10Q100 -10 84 18T67 80Q67 113 75 153T94 240T115 339T128 449L157 422L41 428V463L201 508L220 489Q189 369 170 269T151 112Q151 90 157 74T185 58Q221 58 283 156Q304 188 321 227T353 315T382 428L391
493L457 508L478 495Q460 424 448 371T427 271T412 172T399 47L371 72L492 68L489 35L330 -10L306 5Q315 38 322 68T335 132T348 207L356 206Q334 157 308 118T253 50T194 6T133 -10ZM352 543L176 690L215 741L383 578L352 543Z" />
<glyph unicode="&#xfa;" horiz-adv-x="529" d="M133 -10Q100 -10 84 18T67 80Q67 113 75 153T94 240T115 339T128 449L157 422L41 428V463L201 508L220 489Q189 369 170 269T151 112Q151 90 157 74T185 58Q221 58 283 156Q304 188 321 227T353 315T382 428L391
493L457 508L478 495Q460 424 448 371T427 271T412 172T399 47L371 72L492 68L489 35L330 -10L306 5Q315 38 322 68T335 132T348 207L356 206Q334 157 308 118T253 50T194 6T133 -10ZM254 543L220 577L390 741L429 690L254 543Z" />
<glyph unicode="&#xfb;" horiz-adv-x="529" d="M133 -10Q100 -10 84 18T67 80Q67 113 75 153T94 240T115 339T128 449L157 422L41 428V463L201 508L220 489Q189 369 170 269T151 112Q151 90 157 74T185 58Q221 58 283 156Q304 188 321 227T353 315T382 428L391
493L457 508L478 495Q460 424 448 371T427 271T412 172T399 47L371 72L492 68L489 35L330 -10L306 5Q315 38 322 68T335 132T348 207L356 206Q334 157 308 118T253 50T194 6T133 -10ZM182 539L157 568L325 698H361L389 664L182 539ZM440 540L317 669L348 698H384L474
563L440 540Z" />
<glyph unicode="&#xfc;" horiz-adv-x="529" d="M133 -10Q100 -10 84 18T67 80Q67 113 75 153T94 240T115 339T128 449L157 422L41 428V463L201 508L220 489Q189 369 170 269T151 112Q151 90 157 74T185 58Q221 58 283 156Q304 188 321 227T353 315T382 428L391
493L457 508L478 495Q460 424 448 371T427 271T412 172T399 47L371 72L492 68L489 35L330 -10L306 5Q315 38 322 68T335 132T348 207L356 206Q334 157 308 118T253 50T194 6T133 -10ZM401 564Q382 564 368 576T354 612Q354 639 369 657T409 676Q430 676 443 663T456
629Q457 600 441 582T401 564ZM226 564Q208 564 196 576T182 612Q182 638 197 657T238 676Q258 676 271 663T284 629Q285 601 268 583T226 564Z" />
<glyph unicode="&#xfd;" horiz-adv-x="507" d="M-7 -217L22 -148Q73 -165 128 -170T229 -166T298 -132Q305 -125 311 -108T322 -66T328 -8Q333 26 336 57T343 125T356 215L367 206Q343 157 316 117T259 49T199 5T138 -10Q114 -10 99 4T76 39T68 81Q68 114 76 154T95
241T116 340T129 449L157 422L41 428V463L202 508L221 489Q200 409 184 336T159 206T150 112Q150 91 157 75T187 58Q207 58 233 83T289 155Q305 181 320 218T350 307T379 428L388 493L454 508L474 495Q449 392 433 270T399 7Q391 -60 359 -112T273 -196T149 -234T-7
-217ZM253 543L219 577L389 741L428 690L253 543Z" />
<glyph unicode="&#xfe;" horiz-adv-x="470" d="M15 -277L-9 -262Q10 -182 27 -98T58 71T85 240T107 407T125 565T141 712L165 690L48 708L45 744L204 770L225 752Q217 702 205 629T180 469T151 285T122 93T96 -94T73 -262L15 -277ZM222 -8Q208 -8 188 -6T148 -2T111
3T89 5L114 74Q114 74 126 68T158 55T199 41T236 35Q252 35 269 56T304 111T334 188T356 274T364 355Q364 401 350 431T316 461Q297 461 274 437T225 372T178 281T140 179T119 80L65 61Q78 144 105 223T170 367T251 469T336 508Q370 508 393 492T428 443T441 358Q441
313 427 263T390 165T338 78T279 15T222 -8Z" />
<glyph unicode="&#xff;" horiz-adv-x="507" d="M-7 -217L22 -148Q73 -165 128 -170T229 -166T298 -132Q305 -125 311 -108T322 -66T328 -8Q333 26 336 57T343 125T356 215L367 206Q343 157 316 117T259 49T199 5T138 -10Q114 -10 99 4T76 39T68 81Q68 114 76 154T95
241T116 340T129 449L157 422L41 428V463L202 508L221 489Q200 409 184 336T159 206T150 112Q150 91 157 75T187 58Q207 58 233 83T289 155Q305 181 320 218T350 307T379 428L388 493L454 508L474 495Q449 392 433 270T399 7Q391 -60 359 -112T273 -196T149 -234T-7
-217ZM400 564Q381 564 367 576T353 612Q353 639 368 657T408 676Q429 676 442 663T455 629Q456 600 440 582T400 564ZM225 564Q207 564 195 576T181 612Q181 638 196 657T237 676Q257 676 270 663T283 629Q284 601 267 583T225 564Z" />
<glyph unicode="&#x2013;" horiz-adv-x="641" d="M67 225L74 286H579L565 225H67Z" />
<glyph unicode="&#x2014;" horiz-adv-x="1144" d="M67 225L74 286H1082L1068 225H67Z" />
<glyph unicode="&#x2018;" horiz-adv-x="302" d="M255 796L271 764Q229 729 216 691T204 620L179 633Q204 639 221 633T248 612T258 575Q258 541 237 517T187 493Q156 493 141 515T126 572Q126 600 134 634T159 700T200 759T255 796Z" />
<glyph unicode="&#x2019;" horiz-adv-x="302" d="M141 468L125 500Q167 535 180 574T192 644L217 631Q193 626 175 632T148 653T138 689Q138 724 159 747T209 771Q241 771 255 749T270 692Q270 664 262 630T237 564T196 505T141 468Z" />
<glyph unicode="&#x201a;" horiz-adv-x="302" d="M64 -162L48 -130Q90 -95 103 -56T115 14L140 1Q116 -4 98 2T71 23T61 59Q61 94 82 117T132 141Q164 141 178 119T193 62Q193 34 185 0T160 -66T119 -125T64 -162Z" />
<glyph unicode="&#x201c;" horiz-adv-x="478" d="M255 796L271 764Q229 729 216 691T204 620L179 633Q204 639 221 633T248 612T258 575Q258 541 237 517T187 493Q156 493 141 515T126 572Q126 600 134 634T159 700T200 759T255 796ZM431 796L447 764Q405 729
392 691T380 620L355 633Q380 639 397 633T424 612T434 575Q434 541 413 517T363 493Q332 493 317 515T302 572Q302 600 310 634T335 700T376 759T431 796Z" />
<glyph unicode="&#x201d;" horiz-adv-x="479" d="M396 719L380 751Q422 786 435 825T447 895L472 882Q448 877 430 883T403 904T393 940Q393 975 414 998T464 1022Q496 1022 510 1000T525 943Q525 915 517 881T492 815T451 756T396 719ZM317 463L301 495Q343 530
356 569T368 639L393 626Q369 621 351 627T324 648T314 684Q314 719 335 742T385 766Q417 766 431 744T446 687Q446 659 438 625T413 559T372 500T317 463Z" />
<glyph unicode="&#x201e;" horiz-adv-x="479" d="M63 -163L47 -131Q89 -96 102 -57T114 13L139 0Q115 -5 97 1T70 22T60 58Q60 93 81 116T131 140Q163 140 177 118T192 61Q192 33 184 -1T159 -67T118 -126T63 -163ZM240 -163L224 -131Q266 -96 279 -57T291 13L316
0Q292 -5 274 1T247 22T237 58Q237 93 258 116T308 140Q340 140 354 118T369 61Q369 33 361 -1T336 -67T295 -126T240 -163Z" />
<glyph unicode="&#x2022;" horiz-adv-x="328" d="M149 169Q120 169 105 187T90 234Q90 280 115 309T180 339Q209 339 224 322T239 273Q239 227 214 198T149 169Z" />
<glyph unicode="&#x2039;" horiz-adv-x="326" d="M194 36L53 252L247 469L281 444L131 223L137 282L233 60L194 36Z" />
<glyph unicode="&#x203a;" horiz-adv-x="326" d="M79 35L45 60L195 281L189 222L93 444L132 468L273 252L79 35Z" />
</font>
</defs>
</svg>
