<?xml version="1.0" standalone="no"?>
<!DOCTYPE svg PUBLIC "-//W3C//DTD SVG 1.1//EN" "http://www.w3.org/Graphics/SVG/1.1/DTD/svg11.dtd">
<svg xmlns="http://www.w3.org/2000/svg">
<defs >
<font id="AndadaPro" horiz-adv-x="523" ><font-face
    font-family="Andada Pro SemiBold"
    units-per-em="1000"
    panose-1="0 0 0 0 0 0 0 0 0 0"
    ascent="942"
    descent="-235"
    alphabetic="0" />
<glyph unicode=" " horiz-adv-x="208" />
<glyph unicode="!" horiz-adv-x="308" d="M173 220L98 224L110 290L182 764L273 771L293 750Q283 710 272 660T249 556T227 453T209 367T199 312L188 230L173 220ZM106 -12Q80 -12 68 3T55 42Q55 80 75 104T129 128Q153 128 166 114T180 74Q180 37 159 13T106 -12Z" />
<glyph unicode="&quot;" horiz-adv-x="449" d="M201 463L133 466L149 560Q150 566 152 590T158 647T162 706H255L201 463ZM354 463L286 466L302 560Q303 566 305 590T311 647T315 706H408L354 463Z" />
<glyph unicode="#" horiz-adv-x="635" d="M176 -15L110 -5L274 572L340 562L176 -15ZM52 146L62 220L547 225L536 146H52ZM364 -15L299 -5L463 572L528 562L364 -15ZM96 333L106 412H590L581 338L96 333Z" />
<glyph unicode="$" horiz-adv-x="557" d="M236 -13Q178 -13 135 -2T68 20T44 31L77 187L145 182L137 129Q137 125 138 109T143 74T150 46L107 97Q132 85 164 71T240 57Q290 57 322 86T354 162Q354 193 337 214T291 252T232 286T172 324T127 374T109 446Q109 504
137 548T216 618T332 643Q375 643 422 634T513 613L479 459L420 463L425 511Q426 517 424 530T418 560T412 592L462 539Q444 549 424 558T383 572T337 577Q292 577 262 550T232 480Q232 452 250 432T296 395T355 361T415 323T461 271T479 198Q479 137 448 89T362
14T236 -13ZM231 -154L179 -151L209 15H261L231 -154ZM311 616L341 788L392 785L362 616H311Z" />
<glyph unicode="%" horiz-adv-x="959" d="M200 294Q152 294 123 315T79 373T65 456Q65 525 86 584T150 679T254 715Q303 715 332 694T375 635T389 553Q389 484 368 425T304 330T200 294ZM206 344Q232 344 252 375T284 458T297 572Q297 665 249 665Q226 665 209
643T181 587T164 512T158 435Q158 390 170 367T206 344ZM234 -49L184 -12L708 721L758 684L234 -49ZM731 -6Q684 -6 654 15T610 73T596 156Q596 225 617 284T681 379T785 415Q834 415 863 394T906 335T920 253Q920 184 899 125T835 30T731 -6ZM737 44Q763 44 783
75T815 158T828 272Q828 365 780 365Q757 365 740 343T712 287T695 212T689 135Q689 90 701 67T737 44Z" />
<glyph unicode="&amp;" horiz-adv-x="843" d="M204 -13Q139 -13 105 27T71 146Q71 191 85 240T125 337T182 421T247 481T312 503Q384 503 419 482T455 419Q455 385 433 355T370 299T270 255Q243 255 217 255T164 254Q225 266 268 286T335 334T359 392Q359 415
345 424T293 433Q273 433 252 408T213 341T184 252T172 160Q172 111 191 89T252 67Q295 67 337 88T415 145T480 228T525 328T541 435Q541 480 532 528T503 621L609 657Q619 619 623 582T628 510Q628 427 606 350T544 207T451 92T335 15T204 -13ZM152 197L154 251Q244
266 331 299T497 376T642 468T754 561L812 499L803 466Q713 429 634 389T479 311T324 244T152 197Z" />
<glyph unicode="&apos;" horiz-adv-x="296" d="M201 463L133 466L149 560Q150 566 152 590T158 647T162 706H255L201 463Z" />
<glyph unicode="(" horiz-adv-x="394" d="M251 -102Q175 -19 137 76T98 282Q98 443 167 578T361 821L388 796Q329 719 286 630T220 447T197 257Q197 169 217 83T278 -84L251 -102Z" />
<glyph unicode=")" horiz-adv-x="394" d="M170 817Q246 735 284 639T322 433Q322 272 253 137T60 -106L33 -81Q92 -3 135 85T200 269T223 458Q223 546 203 632T142 799L170 817Z" />
<glyph unicode="*" horiz-adv-x="463" d="M176 428L121 474L255 607L295 574L176 428ZM272 556L109 602L141 677L295 608L272 556ZM330 425L249 570L297 606L394 475L330 425ZM242 578L252 754L329 758L298 580L242 578ZM267 557L257 609L427 677L443 604L267 557Z" />
<glyph unicode="+" horiz-adv-x="692" d="M273 0L336 511H416L358 0H273ZM89 213L100 299H604L595 218L89 213Z" />
<glyph unicode="," horiz-adv-x="306" d="M31 -150L27 -118Q71 -102 98 -65T124 22L168 -4Q158 -7 150 -9T133 -11Q104 -11 90 6T76 50Q76 88 97 113T151 138Q179 138 190 119T201 73Q201 22 178 -26T116 -107T31 -150Z" />
<glyph unicode="-" horiz-adv-x="354" d="M66 217L74 292H292L277 217H66Z" />
<glyph unicode="." horiz-adv-x="314" d="M121 -12Q96 -12 82 4T68 47Q68 86 90 112T147 138Q173 138 187 123T201 79Q201 40 179 14T121 -12Z" />
<glyph unicode="/" horiz-adv-x="403" d="M47 -66L-25 -43L383 773L454 749L47 -66Z" />
<glyph unicode="0" horiz-adv-x="589" d="M260 -10Q186 -10 142 23T77 115T56 244Q56 326 74 401T130 535T221 628T348 662Q421 662 465 629T530 538T551 409Q551 327 533 252T477 117T386 24T260 -10ZM268 59Q303 59 332 87T383 165T418 284T430 431Q430 475
422 512T395 571T339 594Q306 594 280 572T234 511T203 423T184 322T177 218Q177 175 185 139T213 81T268 59Z" />
<glyph unicode="1" horiz-adv-x="436" d="M14 -5L17 52L204 73L143 21Q149 40 156 64T169 112T177 146L232 555L270 529L90 458L66 507L291 672L360 660Q360 660 357 641T349 593T339 530T329 469T322 426L288 176Q284 144 282 106T280 21L235 70L387 60L372 0H189Q183
0 162 0T112 -2T57 -3T14 -5Z" />
<glyph unicode="2" horiz-adv-x="534" d="M422 -3L311 0H22L19 82Q104 158 164 214T264 312T326 385T358 444T368 501Q368 543 345 567T281 591Q250 591 220 581T153 545L202 610Q196 594 189 575T177 540T171 519L166 474L103 471L113 626Q166 646 209 654T305
662Q394 662 442 626T490 522Q490 474 471 428T406 328T285 208T98 51L101 89H300Q312 89 334 91T383 97T431 103L362 54Q370 70 378 85T392 114T404 138L414 182L477 177L448 17L422 -3Z" />
<glyph unicode="3" horiz-adv-x="469" d="M-6 -105L-17 -44Q44 -34 99 -14T198 35T266 103T291 187Q291 231 264 256T189 282Q165 282 145 281T125 279L119 336Q178 345 222 366T290 424T314 512Q314 553 294 574T235 596Q206 596 181 588T133 562L176 623Q171
607 164 588T151 554T145 531L139 484L75 480L83 633Q128 648 168 655T249 662Q338 662 384 627T431 523Q431 450 384 398T259 320L261 340Q308 334 342 314T395 262T414 191Q414 136 382 87T293 -2T160 -69T-6 -105Z" />
<glyph unicode="4" horiz-adv-x="545" d="M72 194L26 261L436 739L509 676Q509 676 496 664T463 633T422 593T385 556T363 532L112 223L98 260L327 262L318 194H72ZM172 -5L175 52L326 73L266 21Q275 51 284 86T297 146L329 389L435 423L401 165Q397 133 396 97T394
21L349 70L478 60L464 0H302Q289 0 267 -1T219 -3T172 -5ZM390 194L400 268L507 275L495 194H390Z" />
<glyph unicode="5" horiz-adv-x="472" d="M14 -105L3 -45Q144 -21 220 38T296 191Q296 239 268 265T184 291Q167 291 145 289T92 278L57 311L121 634L141 652H216L451 662L444 574L263 554H188L146 322L120 356Q145 362 172 366T224 371Q316 371 366 330T416 212Q416
128 369 62T232 -46T14 -105Z" />
<glyph unicode="6" horiz-adv-x="546" d="M247 -11Q149 -11 97 47T44 199Q44 294 82 383T187 548T344 676T537 747L544 691Q455 664 385 614T265 496T189 353T163 198Q163 163 172 131T202 79T256 59Q291 59 319 82T364 145T381 235Q381 279 361 309T297 340Q284
340 272 339T246 336L247 392Q267 399 287 403T327 407Q410 407 455 363T500 240Q500 180 478 134T420 55T338 6T247 -11Z" />
<glyph unicode="7" horiz-adv-x="509" d="M138 -105L46 -74L322 407Q328 417 337 439T358 489T382 547T404 602L431 558H230Q220 558 199 557T155 553T112 549L184 596Q176 581 166 564T149 534T141 516L128 468L64 471L98 641L118 661Q118 661 132 660T167 657T206
654T233 652H514L522 602L138 -105Z" />
<glyph unicode="8" horiz-adv-x="538" d="M234 -10Q182 -10 136 6T62 56T34 141Q34 182 53 217T105 283T181 339T273 386L323 346Q289 331 258 311T201 265T162 210T147 146Q147 102 173 76T243 50Q278 50 306 66T350 112T367 176Q367 208 351 231T308 273T250
309Q213 331 180 355T125 412T103 494Q103 543 123 578T176 636T249 670T327 682Q374 682 414 666T480 618T506 539Q506 501 489 468T443 405T378 353T303 312L256 344Q285 362 310 383T355 429T386 481T398 536Q398 574 376 598T318 623Q292 623 268 608T228 566T212
507Q212 475 229 452T273 410T332 372Q367 351 401 327T458 270T481 188Q481 141 461 105T407 42T328 3T234 -10Z" />
<glyph unicode="9" horiz-adv-x="545" d="M31 -106L22 -46Q113 -19 183 32T301 150T373 294T398 449Q398 487 389 520T359 573T305 593Q270 593 243 570T199 508T182 422Q182 376 205 344T269 311Q283 311 294 311T317 314V258Q303 252 284 248T243 244Q159 244
110 289T61 413Q61 467 81 512T137 591T218 643T315 662Q416 662 467 603T518 451Q518 355 482 265T381 98T226 -31T31 -106Z" />
<glyph unicode=":" horiz-adv-x="278" d="M154 338Q129 338 117 352T104 391Q104 429 125 453T179 478Q203 478 216 464T229 424Q229 386 208 362T154 338ZM95 -12Q70 -12 58 3T45 42Q45 79 66 103T120 128Q143 128 156 114T169 74Q169 37 149 13T95 -12Z" />
<glyph unicode=";" horiz-adv-x="287" d="M160 329Q135 329 121 345T107 388Q107 427 129 453T186 479Q212 479 226 464T240 420Q240 381 218 355T160 329ZM266 -150L262 -118Q306 -102 333 -65T359 22L403 -4Q393 -7 385 -9T368 -11Q339 -11 325 6T311 50Q311
88 332 113T386 138Q414 138 425 119T436 73Q436 22 413 -26T351 -107T266 -150Z" />
<glyph unicode="&lt;" d="M341 -15L83 248L405 513L454 452L163 219L170 278L406 46L341 -15Z" />
<glyph unicode="=" horiz-adv-x="695" d="M132 300L143 383H586L576 305L132 300ZM109 112L119 192L563 195L553 114L109 112Z" />
<glyph unicode="&gt;" horiz-adv-x="526" d="M120 -15L71 45L362 278L355 218L120 452L184 513L442 247L120 -15Z" />
<glyph unicode="?" horiz-adv-x="468" d="M184 220L106 223L126 396L154 423Q165 422 180 421T203 419Q250 419 282 443T332 508T349 598Q349 649 324 678T249 707Q226 707 200 701T145 682L215 729Q211 712 206 692T196 656T191 629L187 596L129 593L137 745Q174
756 207 761T269 767Q351 767 400 722T450 594Q450 523 420 469T335 385T207 355Q199 355 191 355T174 356L209 400L195 229L184 220ZM118 -12Q90 -12 76 5T61 49Q61 84 78 106T128 128Q155 128 169 112T184 67Q184 33 167 11T118 -12Z" />
<glyph unicode="@" horiz-adv-x="1003" d="M430 -212Q322 -212 242 -173T119 -55T75 143Q75 259 109 354T207 520T363 629T570 667Q678 667 761 633T890 529T937 349Q937 279 912 216T841 103T731 21T589 -16L561 0Q569 34 577 70T592 148T604 237L612 219Q584
154 548 102T472 19T388 -12Q357 -12 336 6T305 59T294 138Q294 186 307 237T343 335T395 421T455 482T518 505Q535 505 563 501T616 494T652 489L643 391Q637 394 613 405T559 426T502 436Q485 436 467 410T432 341T406 249T396 155Q396 116 406 92T435 67Q453
67 476 90T523 151T567 238T601 337T617 436L619 486L707 505L735 487Q717 413 703 341T680 191T671 25L659 52Q715 63 757 101T822 200T846 342Q846 429 810 489T708 581T556 613Q463 613 393 575T275 471T203 321T179 144Q179 55 208 -9T299 -108T453 -143Q468
-143 494 -140T549 -133T606 -124T650 -118T667 -115L673 -153Q663 -156 642 -163T593 -178T536 -194T479 -207T430 -212Z" />
<glyph unicode="A" horiz-adv-x="694" d="M1 -5L4 49L104 74L51 47Q56 54 69 75T96 121T120 166L371 705L445 715L565 135Q567 123 572 104T584 68T593 43L541 73L641 59L628 0H521Q507 0 482 -1T429 -3T377 -5L381 50L492 78L450 38Q450 50 450 72T449 117T445
157L373 581L399 586L192 131Q188 121 183 104T175 70T169 40L130 73L236 59L223 0H131Q119 0 97 -1T49 -3T1 -5ZM214 218L240 277L443 280L449 218H214Z" />
<glyph unicode="B" horiz-adv-x="613" d="M9 -5L12 51L130 74L78 35Q82 48 88 69T100 110T107 144L167 553Q169 570 170 593T171 638T172 671L214 631L101 651L115 710Q134 709 158 708T202 706T232 705Q252 705 282 706T343 709T394 710Q444 710 485 693T552
643T578 564Q578 511 551 468T480 398T381 365L418 413L404 320L377 366Q455 364 505 324T556 210Q556 143 524 95T437 21T317 -5Q294 -5 264 -4T203 -1T148 0Q136 0 112 -1T60 -3T9 -5ZM209 43L190 67Q200 65 216 64T251 61T289 59Q354 59 397 100T441 215Q441
276 401 304T304 332H293L309 398H316Q357 398 392 416T448 468T469 551Q469 594 443 621T372 649Q349 649 321 647T269 643L300 664Q298 653 293 631T282 583T273 539L220 174Q217 154 214 126T210 75T209 43Z" />
<glyph unicode="C" horiz-adv-x="642" d="M341 -15Q251 -15 189 22T95 127T62 283Q62 376 87 455T159 594T277 686T440 720Q500 720 547 709T639 686L606 530L544 534L550 584Q551 590 550 606T546 641T541 675L588 625Q550 635 510 644T430 653Q369 653 324 622T247
538T201 419T186 281Q186 217 204 165T259 82T349 52Q390 52 432 60T517 79L457 33Q463 48 471 66T486 101T496 126Q498 139 500 151T504 173L567 175L551 19Q502 7 452 -4T341 -15Z" />
<glyph unicode="D" horiz-adv-x="724" d="M9 -5L12 51L130 74L78 35Q83 49 89 69T100 110T107 144L167 553Q169 566 170 590T171 640T173 679L214 631L101 651L115 710Q132 709 154 708T197 706T232 705Q253 705 282 706T341 709T391 710Q487 710 553 674T654
571T689 417Q689 295 643 200T510 50T302 -5Q263 -5 226 -3T148 0Q136 0 110 -1T57 -3T9 -5ZM208 40L173 65Q183 65 208 64T262 61T307 60Q378 60 428 90T510 170T557 284T572 415Q572 478 553 530T493 613T386 644Q363 644 327 644T258 640L302 670Q298 656 292
632T281 582T273 539L220 174Q217 153 214 125T210 74T208 40Z" />
<glyph unicode="E" horiz-adv-x="593" d="M9 -5L12 51L130 74L77 30Q81 42 87 64T100 109T107 144L167 553Q169 566 170 589T171 634T172 662L214 631L101 651L115 710Q134 709 157 708T200 706T232 705H452Q463 705 482 706T523 708T564 710L580 692L566 556L506
551Q505 563 505 579T504 603Q504 609 499 622T488 650T474 677L528 635Q516 636 493 637T448 640T414 642H252L301 670Q299 661 293 636T282 583T273 539L245 353L209 395H354Q360 395 375 397T411 401T450 406L394 360L427 470L477 465Q467 408 460 361T447 267L395
261L398 370L440 322Q421 325 398 327T355 331T325 333H200L249 375L220 174Q217 154 214 126T210 71T208 32L167 65H343Q373 65 401 70T444 78L402 44Q418 62 432 82T451 112Q456 123 463 144T474 177L532 172L493 14L477 0Q448 0 415 0T362 0H148Q125 0 86 -1T9
-5Z" />
<glyph unicode="F" horiz-adv-x="567" d="M9 -5L12 51L130 74L78 36Q82 50 88 70T100 111T107 144L167 553Q169 566 170 589T171 634T172 662L214 631L101 651L115 710Q134 709 157 708T200 706T232 705H452Q463 705 482 706T523 708T564 710L580 692L566 556L506
551Q505 563 505 579T504 603Q504 609 499 622T488 650T474 677L528 635Q516 636 493 637T448 640T414 642H252L301 670Q299 661 293 636T281 583T273 539L245 353L206 385H350Q357 385 373 387T410 391T448 396L392 350L425 460L475 455Q465 400 457 351T445 257L392
251L396 360L437 312Q419 315 396 317T352 321T323 323H197L249 375L220 174Q217 152 215 124T211 71T210 31L168 70L297 58L282 0H148Q136 0 112 -1T60 -3T9 -5Z" />
<glyph unicode="G" horiz-adv-x="688" d="M356 -15Q261 -15 195 23T96 129T62 286Q62 379 87 457T163 595T286 687T455 720Q518 720 569 709T666 686L633 530L572 536L578 584Q579 590 577 604T573 633T568 659L600 623Q565 636 523 644T444 653Q379 653 331 623T250
541T201 423T185 286Q185 220 204 167T264 83T364 52Q399 52 441 60T517 77L484 28L510 196Q511 202 511 220T511 262T510 308L553 261L409 273L423 341H531Q542 341 567 342T614 344L632 325Q627 299 621 268T609 212T601 174L579 19Q528 7 475 -4T356 -15Z" />
<glyph unicode="H" horiz-adv-x="771" d="M421 -5L424 51L542 74L490 32Q494 45 500 67T512 111T519 144L579 553Q581 569 582 593T583 640T583 675L626 631L513 651L527 710Q547 709 570 708T614 706T643 705Q672 705 710 707T785 710L779 646L663 635L716 675Q713
664 707 639T694 586T684 539L632 174Q629 153 627 125T623 72T623 32L580 70L702 58L687 0H560Q548 0 524 -1T472 -3T421 -5ZM9 -5L12 51L130 74L79 32Q83 46 88 68T100 111T107 144L167 553Q169 568 170 592T171 639T171 675L214 631L101 651L115 710Q134 709
158 708T202 706T232 705Q260 705 299 707T373 710L368 646L251 635L304 675Q301 662 295 637T282 586T273 539L220 174Q217 152 215 124T211 71T211 32L168 70L290 58L276 0H148Q136 0 112 -1T60 -3T9 -5ZM215 320L224 381L579 386L570 320H215Z" />
<glyph unicode="I" horiz-adv-x="359" d="M9 -5L12 51L130 74L79 32Q83 46 88 68T100 111T107 144L167 553Q169 568 170 592T171 639T171 675L214 631L101 651L115 710Q134 709 158 708T202 706T232 705Q260 705 299 707T373 710L368 646L251 635L304 675Q301
662 295 637T282 586T273 539L220 174Q217 152 215 124T211 71T211 32L168 70L290 58L276 0H148Q136 0 112 -1T60 -3T9 -5Z" />
<glyph unicode="J" horiz-adv-x="331" d="M2 -200L-34 -176Q-34 -176 -24 -159T1 -116T31 -63T58 -16T70 11L148 553Q151 569 152 593T153 640T153 675L196 631L83 651L97 710Q116 709 139 708T183 706T213 705Q241 705 280 707T355 710L349 646L233 635L285 675Q282
662 276 637T263 586T254 539L175 -5Q174 -16 157 -38T113 -88T58 -146T2 -200Z" />
<glyph unicode="K" horiz-adv-x="717" d="M375 -5L378 51L473 72L437 50Q434 55 424 77T402 125T381 164L253 353L456 577Q463 585 473 600T496 633T521 671L543 632L455 651L470 710Q487 709 508 708T547 706T576 705Q600 705 636 707T704 710L700 646L588 634L648
653Q636 644 619 629T585 598T552 568T530 546L343 338L353 399L541 129Q548 119 563 103T593 71T615 50L556 70L659 59L645 0H514Q501 0 477 -1T426 -3T375 -5ZM9 -5L12 51L130 74L79 32Q83 46 88 68T100 111T107 144L167 553Q169 568 170 592T171 639T171 675L214
631L101 651L115 710Q134 709 158 708T202 706T232 705Q260 705 299 707T373 710L368 646L251 635L304 675Q301 662 295 637T282 586T273 539L220 174Q217 152 215 124T211 71T211 32L168 70L290 58L276 0H148Q136 0 112 -1T60 -3T9 -5Z" />
<glyph unicode="L" horiz-adv-x="553" d="M9 -5L12 51L130 74L79 32Q83 46 88 68T100 111T107 144L167 553Q169 568 170 592T171 639T171 675L214 631L101 651L115 710Q134 709 158 708T202 706T232 705Q260 705 299 707T373 710L368 646L251 635L304 675Q301
662 295 637T282 586T273 539L220 174Q217 152 215 124T211 71T211 32L161 65H317Q348 65 376 70T418 78L377 44Q393 62 406 81T425 112Q431 125 437 143T449 177L506 172L468 14L447 -4Q419 -2 388 -1T337 0H123Q103 0 74 -1T9 -5Z" />
<glyph unicode="M" horiz-adv-x="926" d="M4 -5L7 51L125 74L69 32Q74 46 82 68T97 112T107 144L192 553Q195 570 197 594T200 641T201 671L242 631L129 651L143 710Q163 709 186 708T230 706T260 705H344L359 685L386 531L464 145L436 148L631 540L700 685L722
705H761Q776 705 802 706T858 708T913 710L908 646L792 635L844 678Q842 667 837 641T826 587T819 539L792 173Q791 153 791 126T794 72T797 32L746 70L867 58L854 0H727Q714 0 691 -1T640 -3T590 -5L593 51L709 74L659 32Q663 46 668 68T679 111T685 144L727 610L742
606L438 0H387L260 609H277L191 174Q188 157 186 129T182 73T180 32L133 70L252 58L238 0H137Q124 0 101 -1T53 -3T4 -5Z" />
<glyph unicode="N" horiz-adv-x="774" d="M9 -5L12 51L129 74L79 34Q80 41 84 56T94 88T103 121T108 144L168 553Q170 570 170 596T171 645T171 675L214 631L101 651L115 710Q135 709 158 708T202 706T232 705H281L297 685L365 532L576 143L550 138L611 553Q613
570 614 593T615 639T614 674L657 631L544 651L558 710Q576 709 598 708T639 706T665 705Q681 705 705 706T755 708T798 710L793 646L676 635L730 665Q725 653 717 630T702 582T692 539L612 0H527L227 566L252 571L195 174Q193 157 191 130T187 77T185 32L140 70L259
58L245 0H140Q127 0 105 -1T57 -3T9 -5Z" />
<glyph unicode="O" horiz-adv-x="765" d="M344 -15Q253 -15 190 23T94 129T61 286Q61 379 87 458T163 596T284 687T446 720Q538 720 601 682T696 576T728 418Q728 325 703 246T627 109T506 18T344 -15ZM351 50Q413 50 460 80T539 162T587 281T603 424Q603 492
585 544T532 625T440 655Q377 655 330 625T251 543T203 423T187 280Q187 213 205 161T259 80T351 50Z" />
<glyph unicode="P" horiz-adv-x="601" d="M9 -5L12 51L130 74L79 32Q83 46 88 68T100 111T107 144L167 553Q169 568 170 592T171 639T171 675L214 631L101 651L115 710Q134 709 158 708T202 706T232 705Q253 705 283 706T342 709T393 710Q483 710 538 666T593
535Q593 475 571 428T510 349T423 301T319 284Q278 284 238 285T156 288L166 351Q193 349 229 346T295 343Q378 343 429 390T480 528Q480 589 445 620T346 651Q333 651 303 649T242 645L302 675Q299 662 293 637T282 585T273 539L220 174Q217 152 215 124T211 71T211
32L168 70L300 58L286 0H148Q136 0 112 -1T60 -3T9 -5Z" />
<glyph unicode="Q" horiz-adv-x="766" d="M344 -15Q253 -15 190 23T94 129T61 286Q61 379 87 458T163 596T284 687T446 720Q538 720 601 682T696 576T728 418Q728 325 703 246T627 109T506 18T344 -15ZM603 -224L370 -11L468 6L542 -53Q549 -58 574 -70T630 -97T685
-123L603 -224ZM351 50Q413 50 460 80T539 162T587 281T603 424Q603 492 585 544T532 625T440 655Q377 655 330 625T251 543T203 423T187 280Q187 213 205 161T259 80T351 50Z" />
<glyph unicode="R" horiz-adv-x="655" d="M9 -5L12 51L130 74L79 32Q83 46 88 68T100 111T107 144L167 553Q169 568 170 592T171 639T171 675L214 631L101 651L115 710Q134 709 158 708T202 706T232 705Q253 705 283 706T343 709T394 710Q484 710 539 667T594
541Q594 483 572 437T511 359T423 311T319 295Q282 295 240 297T158 301L164 363Q202 360 237 357T308 354Q394 354 438 400T482 532Q482 591 446 621T346 651Q337 651 317 650T274 648T235 645L304 675Q301 662 295 637T282 586T273 539L220 174Q217 152 215 124T211
71T211 32L168 70L290 58L276 0H148Q136 0 112 -1T60 -3T9 -5ZM421 0Q412 30 404 60T386 116L302 345L415 349Q435 297 454 249T487 169T504 130Q508 121 517 104T535 69T549 43L494 69L601 59L587 0H421Z" />
<glyph unicode="S" horiz-adv-x="563" d="M241 -15Q185 -15 130 -3T28 36L67 201L135 195Q135 195 133 181T129 151T127 130Q127 117 129 97T133 69L114 90Q133 80 167 68T246 55Q305 55 344 89T383 182Q383 217 363 241T310 286T241 325T172 369T119 427T98 507Q98
574 130 622T218 695T341 720Q389 720 442 710T541 687L503 525L440 531Q442 545 445 562T448 586Q448 594 446 609T441 640T437 669L472 616Q441 636 412 645T342 655Q309 655 281 642T236 603T219 540Q219 507 240 483T293 440T363 400T432 355T486 297T507 214Q507
139 471 88T374 11T241 -15Z" />
<glyph unicode="T" horiz-adv-x="647" d="M140 -5L143 51L271 74L219 32Q223 45 229 67T241 111T248 144L308 553Q311 568 311 592T312 639T313 675H445Q442 664 436 639T424 587T414 539L361 174Q358 153 356 125T352 72T352 32L309 70L441 58L426 0H289Q276
0 250 -1T194 -3T140 -5ZM133 519L73 524L105 692L127 710Q146 709 168 708T209 706T237 705H528Q537 705 556 706T599 708T641 710L657 692L641 524L580 519Q581 531 581 547T581 579T581 601Q581 605 577 618T566 647T553 674L589 636Q578 637 560 638T524 641T491
642H258Q241 642 217 641T172 639T137 636L203 678Q197 667 187 651T168 620T157 601Q154 595 149 580T140 548T133 519Z" />
<glyph unicode="U" horiz-adv-x="738" d="M322 -15Q209 -15 154 45T98 205Q98 219 99 236T105 288T119 385T145 553Q147 570 148 595T149 643T149 670L192 631L79 651L93 710Q113 709 136 708T180 706T210 705Q225 705 249 706T301 708T353 710L347 646L231 635L282
671Q280 660 274 636T261 584T252 539Q238 439 229 380T216 288T210 241T208 215Q208 147 241 105T342 62Q398 62 437 88T500 159T532 265L575 553Q578 570 578 594T578 639T578 670L621 631L507 651L521 710Q539 709 561 708T602 706T630 705Q651 705 690 707T761
710L757 646L640 635L691 670Q689 660 683 635T670 584T661 539L621 267Q602 138 526 62T322 -15Z" />
<glyph unicode="V" horiz-adv-x="670" d="M264 0L139 553Q137 565 129 589T114 635T103 666L155 632L79 651L93 710Q121 709 147 707T187 705Q202 705 231 706T294 708T351 710L346 646L204 635L246 676Q246 663 247 637T251 584T258 540L343 121L316 124L520
554Q524 562 529 577T541 610T552 642T558 662L593 631L446 650L461 710Q480 709 506 708T555 706T586 705Q603 705 633 707T694 710L688 646L620 632L680 662Q674 655 659 633T627 584T602 539L340 0H264Z" />
<glyph unicode="W" horiz-adv-x="991" d="M239 0L142 553Q140 565 133 588T120 634T109 666L160 632L78 651L92 710Q121 709 150 707T193 705Q208 705 235 706T294 708T350 710L345 646L210 635L251 676Q252 664 253 638T256 584T261 540L314 121L292 124L531
683H600L683 121L660 123L839 553Q842 562 847 577T858 609T869 641T876 662L910 631L770 650L785 710Q804 709 828 708T874 706T905 705Q920 705 951 707T1014 710L1008 646L937 632L996 662Q988 652 973 630T944 582T921 539L683 0H607L518 527L542 524L315 0H239Z"
/>
<glyph unicode="X" horiz-adv-x="739" d="M9 -5L12 49L113 75L57 51Q69 62 91 82T137 126T175 166L354 385L347 314L214 561Q207 574 197 593T176 630T158 658L212 634L102 651L116 710Q148 709 183 707T241 705Q259 705 284 706T336 708T388 710L384 645L273
635L312 655Q314 648 319 627T334 582T353 539L427 396L381 400L505 566Q513 577 525 595T548 632T565 659L595 631L489 650L504 710Q533 709 566 707T619 705Q635 705 656 706T702 708T747 710L742 646L630 633L687 650Q681 645 667 633T636 605T603 573T577 545L416
336L423 409L570 139Q575 129 585 114T607 83T630 52L577 74L677 59L664 0H558Q542 0 515 -1T457 -3T400 -5L403 50L511 77L474 46Q473 58 466 78T449 121T430 160L342 327L389 323L241 136Q233 126 222 109T200 75T182 46L152 73L263 59L249 0H148Q135 0 111 -1T60
-3T9 -5Z" />
<glyph unicode="Y" horiz-adv-x="651" d="M283 230L163 554Q160 563 153 578T136 611T120 644T109 666L164 632L78 651L92 710Q121 709 151 707T196 705Q210 705 236 706T290 708T343 710L339 646L213 635L255 676Q255 666 257 648T263 610T270 572T278 545L366
310L328 314L477 554Q482 562 490 576T508 608T523 641T532 662L569 631L439 650L453 710Q472 709 494 708T535 706T562 705Q578 705 611 707T676 710L670 646L595 632L655 662Q650 656 638 642T611 608T582 571T559 539L359 230H283ZM148 -5L151 51L279 74L226
32Q230 46 236 68T248 111T256 144L282 317H389L368 174Q365 153 363 125T360 72T359 32L316 70L448 58L434 0H297Q284 0 258 -1T201 -3T148 -5Z" />
<glyph unicode="Z" horiz-adv-x="599" d="M484 -4Q456 -2 424 -1T374 0H24L25 63Q49 91 74 122T121 181T154 224L383 533Q400 556 423 594T466 665L495 641H279Q261 641 240 640T203 637T180 635L220 665Q209 649 195 627T178 598Q175 591 171 577T162 546T155
519L94 524L125 694L147 712Q165 710 187 709T229 706T257 705H591V643Q571 618 548 589T503 534T466 486L242 179Q233 167 218 143T185 91T153 42L125 66H352Q372 66 399 69T450 76T483 83L415 46Q429 63 443 83T462 114Q466 122 470 135T479 163T485 186L542
181L505 14L484 -4Z" />
<glyph unicode="[" horiz-adv-x="414" d="M292 -107L103 -103L85 -78Q86 -69 90 -48T98 0T106 52T114 97T118 122L177 606Q178 612 179 629T183 669T186 717T190 766T193 805L216 825L406 829L404 779L249 761L300 809Q292 782 285 751T273 694T265 654L193 64Q192
49 191 24T189 -30T189 -91L152 -39L302 -56L292 -107Z" />
<glyph unicode="\" horiz-adv-x="393" d="M268 -66L73 749L150 773L346 -43L268 -66Z" />
<glyph unicode="]" horiz-adv-x="413" d="M149 829L338 825L356 800Q355 791 351 770T343 722T335 670T327 625T323 600L264 116Q263 110 262 93T258 53T255 5T252 -44T248 -83L225 -103L35 -107L37 -57L192 -39L141 -87Q149 -60 156 -29T168 28T176 68L248 658Q250
673 251 697T252 752T252 813L289 761L139 778L149 829Z" />
<glyph unicode="^" horiz-adv-x="688" d="M158 313L91 362L403 730L624 362L545 313L365 640H418L158 313Z" />
<glyph unicode="_" horiz-adv-x="631" d="M12 -232L21 -150H515L499 -232H12Z" />
<glyph unicode="`" horiz-adv-x="273" d="M511 543L330 695L373 752L545 581L511 543Z" />
<glyph unicode="a" horiz-adv-x="533" d="M123 -12Q92 -12 71 7T40 60T29 140Q29 188 42 239T79 339T131 426T191 487T254 510Q272 510 300 506T353 498T389 493L379 394Q373 396 350 407T296 428T239 439Q225 439 211 422T183 375T159 309T142 233T135 158Q135
121 145 97T173 72Q190 72 212 94T258 155T303 242T338 341T354 440L356 489L445 510L475 491Q457 419 443 349T419 204T408 42L365 82L495 73L492 32L325 -12L296 4Q306 39 314 76T330 156T343 245L350 225Q323 159 287 106T208 20T123 -12Z" />
<glyph unicode="b" horiz-adv-x="497" d="M54 -12L25 4Q41 63 55 137T82 292T105 449T123 593T133 704L175 680L53 698L50 741L225 770L251 748Q236 664 221 586T193 435T170 299L159 291Q186 354 221 403T295 480T375 509Q407 509 427 491T458 438T468 358Q468
310 455 258T418 158T366 72T306 11T244 -12Q230 -12 210 -9T168 -2T131 4T110 7L170 15L54 -12ZM144 58L111 109Q126 101 152 90T207 69T259 59Q276 59 294 85T327 154T352 246T362 340Q362 378 353 402T324 427Q307 427 285 404T238 343T194 256T160 157T144
58Z" />
<glyph unicode="c" horiz-adv-x="420" d="M148 -12Q91 -12 60 27T28 140Q28 187 41 238T77 337T127 425T184 487T241 510Q255 510 277 509T327 504T384 498L402 469L365 316L323 319L318 457L366 396Q329 411 305 419T265 431T237 434Q220 434 202 407T169 336T144
244T134 151Q134 108 148 85T191 62Q225 62 262 86T336 157L372 129Q331 63 272 26T148 -12Z" />
<glyph unicode="d" horiz-adv-x="532" d="M123 -12Q91 -12 71 7T40 60T29 140Q29 188 42 240T79 340T131 426T191 487T254 510Q272 510 300 506T353 498T389 493L379 394Q373 396 350 407T296 428T239 439Q225 439 211 422T183 375T159 309T142 233T135 158Q135
121 145 97T173 72Q191 72 214 94T260 155T304 242T338 341T354 440L361 478Q365 506 369 537T376 599T382 658T385 711L427 680L301 698L299 741L478 770L504 748Q487 652 470 559T438 378T415 207T405 48L365 81L495 73L492 32L326 -13L297 4Q306 39 314 75T330
152T343 241L350 225Q323 159 287 106T209 20T123 -12Z" />
<glyph unicode="e" horiz-adv-x="423" d="M149 -12Q94 -12 61 25T27 140Q27 187 41 238T80 338T134 425T195 487T254 510Q327 510 366 489T405 428Q405 373 370 328T268 251T108 205L109 255Q169 263 212 284T280 336T305 400Q305 421 291 431T244 441Q226 441
207 413T170 341T143 246T132 152Q132 107 147 84T190 61Q213 61 239 73T292 107T340 158L377 129Q349 85 312 54T233 5T149 -12Z" />
<glyph unicode="f" horiz-adv-x="326" d="M-110 -234L-86 -156Q-62 -155 -39 -150T3 -137T28 -121Q38 -109 48 -76T68 6T87 112T103 230T117 347T128 451L169 424H37L42 470Q52 472 68 477T101 488T126 499Q132 502 134 509T139 529T146 564Q159 638 199 687T297
761T417 789L397 711Q365 712 337 708T289 696T261 675Q253 665 248 638T238 564T228 445L190 485H340L324 424H179L230 464Q211 360 199 263T176 88T151 -41Q124 -127 54 -177T-110 -234Z" />
<glyph unicode="g" horiz-adv-x="505" d="M-27 -213L7 -123Q57 -142 110 -149T208 -149T277 -120Q285 -114 290 -96T298 -53T302 -8Q310 30 317 69T330 150T343 241L351 225Q324 159 287 105T209 20T123 -12Q92 -12 71 7T40 60T29 140Q29 188 42 239T79 339T130
426T191 487T254 510Q272 510 300 506T354 498T390 493L379 394Q375 395 360 402T325 417T282 432T239 439Q225 439 211 422T183 375T159 309T142 233T135 158Q135 122 145 97T175 72Q191 72 213 94T260 155T305 241T339 340T355 439L357 487L447 510L476 491Q451
389 433 269T397 10Q389 -62 354 -115T262 -199T132 -234T-27 -213Z" />
<glyph unicode="h" horiz-adv-x="550" d="M54 -12L25 4Q41 63 55 137T82 292T105 449T123 593T133 704L175 680L53 698L50 741L225 770L251 748Q240 691 229 631T206 509T185 390T167 277L162 279Q180 320 205 361T262 435T328 489T402 510Q441 510 459 486T478
427Q478 379 465 315T439 182T423 44L380 81L510 73L507 32L327 -12L299 4Q311 51 323 102T345 202T361 294T368 368Q368 386 362 402T339 418Q319 418 293 394T238 324T186 220T146 90Q142 63 141 45T136 4L54 -12Z" />
<glyph unicode="i" horiz-adv-x="295" d="M77 -12L48 4Q66 75 78 132T99 239T112 339T122 449L165 416L43 423L42 465L216 510L245 487Q231 435 217 363T190 210T167 46L127 82L258 73L254 32L77 -12ZM179 585Q153 585 140 601T128 643Q130 674 150 697T202 720Q228
720 241 705T252 662Q251 630 231 608T179 585Z" />
<glyph unicode="j" horiz-adv-x="273" d="M-9 -235L-46 -206Q-29 -178 -13 -145T19 -80T44 -23T57 13Q72 74 85 148T109 300T123 449L167 416L43 423V467L216 511L245 487Q232 437 222 384T202 272T182 141T158 -16Q156 -31 138 -58T92 -118T37 -182T-9 -235ZM170
585Q144 585 131 601T119 643Q121 674 141 697T193 720Q219 720 232 705T243 662Q242 630 222 608T170 585Z" />
<glyph unicode="k" horiz-adv-x="526" d="M55 -12L26 4Q38 50 51 115T77 256T101 412T120 569T134 712L175 680L52 698L51 741L226 770L252 748Q240 681 230 626T210 523T194 433T179 349T166 264L157 261Q187 336 226 391T312 478T407 510Q444 510 462 489T481
428Q481 380 455 337T380 260T259 203L282 240Q300 208 323 173T370 108T418 59L355 79L483 73L479 32L327 -12L203 190V231Q289 259 336 302T383 395Q383 409 376 416T357 424Q330 424 300 399T240 329T188 228T150 106Q149 94 147 78T142 46T139 19T137 4L55
-12Z" />
<glyph unicode="l" horiz-adv-x="268" d="M54 -12L25 4Q41 63 55 137T83 292T106 449T123 593T133 704L175 680L53 698L50 741L226 770L251 748Q230 624 209 505T171 273T143 56L101 82L230 73L227 32L54 -12Z" />
<glyph unicode="m" horiz-adv-x="851" d="M76 -12L47 4Q65 76 77 132T98 239T112 340T122 449L165 417L42 424V466L216 510L243 487Q229 446 216 394T189 270L184 275Q200 312 224 353T280 429T349 487T430 510Q467 510 483 489T499 433T491 355T468 268L455 272Q472
305 496 345T552 423T622 485T705 510Q743 510 761 486T779 428Q779 379 767 317T741 185T725 47L684 81L813 73L809 32L629 -12L600 4Q612 52 624 103T647 203T664 295T671 368Q671 387 665 402T640 418Q625 418 605 403T563 358T519 289T479 201T448 98Q445 84
442 57T436 4L353 -12L325 4Q337 53 349 104T372 204T389 296T395 368Q395 386 390 402T365 418Q345 418 318 393T262 322T209 218T170 89Q167 68 164 47T158 4L76 -12Z" />
<glyph unicode="n" horiz-adv-x="576" d="M75 -12L47 4Q62 63 73 111T91 200T104 280T114 360T122 449L165 417L42 424V466L215 510L242 487Q229 445 216 392T189 270L185 275Q200 313 224 353T279 429T348 487T429 510Q468 510 486 486T504 428Q504 379 492 317T466
185T450 47L408 82L538 73L534 32L354 -12L326 4Q338 52 350 103T372 203T388 294T395 368Q395 386 390 402T365 418Q346 418 319 394T264 325T210 220T169 88Q166 66 163 46T158 4L75 -12Z" />
<glyph unicode="o" horiz-adv-x="484" d="M182 -12Q110 -12 71 35T31 166Q31 235 52 297T111 407T198 482T302 510Q375 510 413 464T452 333Q452 263 431 201T372 91T285 16T182 -12ZM204 56Q245 56 275 91T323 189T341 334Q341 387 326 415T281 443Q239 443 208
408T160 310T143 165Q143 112 159 84T204 56Z" />
<glyph unicode="p" horiz-adv-x="518" d="M40 -276L12 -260Q27 -199 41 -125T68 29T91 185T109 326T120 439L164 417L40 424V466L213 510L241 487Q233 461 225 434T208 377T192 305L183 304Q204 346 228 383T278 448T334 493T395 510Q427 510 447 491T478 438T489
358Q489 310 476 259T439 159T387 72T326 11T264 -12Q249 -12 225 -10T179 -3T142 3L153 98Q159 96 173 90T206 76T244 65T279 60Q293 60 307 77T335 123T360 189T377 265T384 340Q384 377 374 402T344 427Q327 427 304 404T258 343T214 256T179 153T161 47Q151
-27 141 -100T122 -260L40 -276Z" />
<glyph unicode="q" horiz-adv-x="498" d="M273 -277L245 -261Q257 -200 270 -136T294 -5Q303 33 311 71T328 151T342 242L350 225Q323 159 287 106T209 20T123 -12Q91 -12 71 7T40 60T29 140Q29 188 42 240T79 340T131 426T192 487T254 510Q272 510 299 506T352
498T387 493L379 394Q373 396 350 407T296 428T239 439Q225 439 211 422T183 375T159 309T142 233T135 158Q135 121 145 97T173 72Q190 72 212 94T259 155T304 242T338 341T354 440L356 489L442 510L472 491Q457 438 443 364T415 204T391 34T372 -126T360 -255L273
-277Z" />
<glyph unicode="r" horiz-adv-x="397" d="M75 -12L47 4Q64 71 76 125T96 230T111 333T123 451L165 417L42 424V466L215 510L242 487Q225 431 210 377T188 270L173 258Q206 329 240 386T309 476T373 510Q384 510 392 505T406 496L368 356Q358 360 344 364T321 368Q301
368 280 351T239 302T201 224T172 124Q167 94 164 64T157 4L75 -12Z" />
<glyph unicode="s" horiz-adv-x="398" d="M158 -12Q132 -12 106 -6T57 13T17 40L13 77L63 182L103 171L92 33L68 103Q94 76 114 61T164 46Q196 46 217 65T238 120Q238 143 221 162T180 199T131 241T90 294T73 367Q73 409 95 441T154 491T238 510Q267 510 295 506T354
495L375 466L340 340L297 343L283 483L314 420Q292 436 275 445T234 454Q210 454 189 437T168 394Q168 373 185 353T228 313T280 269T323 217T341 152Q341 103 316 66T250 9T158 -12Z" />
<glyph unicode="t" horiz-adv-x="398" d="M362 128Q332 71 292 38T210 -6T136 -5T87 43T81 137Q89 181 95 216T107 285T119 362T132 464L169 423H38L43 472Q67 477 96 485T143 505Q151 510 162 527T183 564T201 598T208 613L259 598L238 464L195 485H382L365 423H180L239
461Q229 405 221 354T204 250T187 137Q181 94 194 77T231 63T280 92T325 156L362 128Z" />
<glyph unicode="u" horiz-adv-x="555" d="M133 -12Q98 -12 80 14T62 74Q62 109 71 152T92 243T113 345T123 453L165 417L43 424V466L215 510L243 487Q212 372 192 277T172 130Q172 111 177 96T199 81Q235 81 289 167Q310 199 328 240T361 331T388 435L396 494L480
510L509 491Q491 422 478 367T455 262T439 162T428 49L387 81L515 73L512 32L336 -12L307 4Q319 40 329 76T348 149T361 226H370Q351 179 326 137T271 61T206 8T133 -12Z" />
<glyph unicode="v" horiz-adv-x="498" d="M143 -12Q110 -12 93 5T75 56Q75 76 82 114T98 196T114 280T121 346Q121 352 121 369T120 405T118 435L164 417L43 424L40 466L192 510L221 491V378Q221 366 218 341T209 282T198 215T189 151T185 104Q185 90 191 83T208
76Q231 76 255 93T302 140T344 206T374 281T385 355Q385 360 384 373T382 404T378 437L424 417L307 424L303 466L461 510L489 491Q486 416 466 343T412 205T334 92T242 16T143 -12Z" />
<glyph unicode="w" horiz-adv-x="774" d="M143 -12Q107 -12 91 8T75 57Q75 78 82 115T97 195T113 280T120 348Q120 366 119 397T116 448L163 417L44 424L41 466L192 510L222 491V378Q222 366 218 341T208 282T197 215T188 151T184 104Q184 91 190 84T207 76Q234
76 265 100T323 164T367 254T384 355Q384 358 383 375T379 414T374 457T370 491L453 509L480 493L485 378Q485 366 482 341T473 282T463 214T454 151T451 104Q451 90 457 83T475 76Q500 76 531 100T592 165T639 254T657 355Q657 366 655 396T648 458L697 417L581
424L577 466L734 510L763 491Q762 408 741 333T683 195T602 86T508 14T412 -12Q382 -12 368 9T353 59Q353 75 357 103T365 170L381 157Q330 76 266 32T143 -12Z" />
<glyph unicode="x" horiz-adv-x="525" d="M322 -12L296 4Q283 45 269 90T238 183T202 277T163 366T121 445L180 421L63 427L54 468L207 510L236 491Q252 433 272 374T313 258T354 151T390 61L337 82L478 73L474 32L322 -12ZM53 -12L29 6L6 71Q16 75 32 82T64 96T93
108T108 117Q112 119 124 134T154 173T190 220T224 266L252 199Q227 168 197 127T140 54L53 -12ZM302 231L276 297Q292 319 309 343T346 393T385 443L472 510L497 492L506 421Q489 415 471 408T439 393T420 383Q415 379 401 361T368 319T332 270T302 231Z" />
<glyph unicode="y" horiz-adv-x="535" d="M3 -212L38 -123Q89 -142 142 -149T240 -148T307 -118Q315 -111 320 -93T328 -51T332 -6Q340 31 347 70T360 151T372 242L382 226Q361 179 335 137T277 61T211 8T138 -12Q113 -12 97 0T72 33T63 75Q63 110 71 153T92 244T113
345T123 453L165 417L43 424V466L216 510L244 487Q224 416 208 347T181 221T171 131Q171 113 177 97T202 81Q222 81 246 103T296 166Q315 195 330 235T358 326T384 435L393 494L477 510L505 491Q480 389 462 269T427 12Q418 -61 383 -115T291 -199T161 -233T3 -212Z"
/>
<glyph unicode="z" horiz-adv-x="473" d="M35 -12L8 12Q57 72 95 121T163 213T219 293T269 369T318 448L353 426Q306 426 274 425T216 422T166 416T110 405L150 453L110 331L68 334L67 482L85 510L386 491L444 506L460 480Q399 401 355 342T276 234T213 141T153
43L140 65Q172 65 211 65T289 70T363 85L317 46Q320 51 326 63T342 92T360 124T376 153T385 171L424 159L400 14L369 -12L86 2L35 -12Z" />
<glyph unicode="{" horiz-adv-x="403" d="M281 -106L89 -102L69 -76Q108 29 139 128T188 327L201 281L89 330L101 394L220 442L198 402Q201 464 199 532T192 670T178 804L202 826L394 830L391 779L224 761L286 811Q280 749 278 701T277 608T281 514T287 400L127
354L150 384L147 339L133 369L278 318Q254 239 234 172T199 43T175 -84L127 -38L290 -55L281 -106Z" />
<glyph unicode="|" horiz-adv-x="325" d="M146 -122L73 -113L196 760L269 752L146 -122Z" />
<glyph unicode="}" horiz-adv-x="404" d="M37 -106L40 -56L206 -38L145 -88Q151 -26 152 22T154 115T150 209T143 323L303 369L280 339L284 385L297 354L153 405Q177 484 196 551T231 680T255 807L303 761L140 778L150 830L342 826L361 800Q323 694 292 596T243
396L230 442L341 393L330 329L210 281L233 321Q229 257 231 189T239 51T252 -81L229 -102L37 -106Z" />
<glyph unicode="~" horiz-adv-x="658" d="M440 170Q418 170 387 179T323 200T259 221T209 230Q198 230 187 223T164 206T144 188T135 177L94 214Q98 220 111 236T142 273T181 308T217 323Q243 323 274 314T338 293T400 272T449 263Q459 263 471 270T495 286T513
304T524 315L564 278Q560 273 547 256T515 219T478 185T440 170Z" />
<glyph unicode="&#xa0;" horiz-adv-x="208" />
<glyph unicode="&#xa1;" horiz-adv-x="283" d="M108 273L184 269L171 203L100 -271L9 -278L-11 -257Q-2 -217 10 -167T33 -63T55 40T72 126T82 181L94 263L108 273ZM176 505Q201 505 214 491T227 451Q227 413 206 389T152 365Q129 365 116 379T102 419Q102 456
123 480T176 505Z" />
<glyph unicode="&#xa2;" horiz-adv-x="532" d="M275 68Q175 68 125 123T75 273Q75 366 109 435T202 544T342 583Q376 583 404 578T455 566T497 551L467 412L402 415L408 456Q409 469 408 486T401 523L437 481Q414 496 390 508T337 521Q295 521 261 489T208 402T189
278Q189 239 200 209T234 160T295 142Q331 142 361 150T410 168T428 177L451 127Q441 121 416 107T355 81T275 68ZM262 -68L212 -65L246 132H296L262 -68ZM318 553L346 719L395 716L368 553H318Z" />
<glyph unicode="&#xa3;" horiz-adv-x="655" d="M128 64Q129 70 132 80T138 103T144 127T148 146L192 485Q199 543 232 583T315 643T423 664Q469 664 518 654T609 632L576 479L514 484L518 526Q519 533 518 547T516 581T510 621L559 568Q525 580 488 588T413 597Q370
597 340 571T305 502L262 176Q260 155 259 139T257 106T256 65L128 64ZM52 -5L55 52L152 70L214 68H378Q389 68 411 70T460 75T508 81L434 35Q443 48 454 63T474 93T486 116L507 179L566 174L531 18L510 0H182Q153 0 119 -1T52 -5ZM69 273L73 324L477 342L473 292L69
273Z" />
<glyph unicode="&#xa4;" horiz-adv-x="685" d="M324 70Q224 70 174 123T123 267Q123 356 155 421T248 523T388 560Q489 560 539 508T590 364Q590 275 557 209T465 107T324 70ZM82 18L48 55L167 172L207 141L82 18ZM533 19L440 141L488 172L577 55L533 19ZM333
136Q404 136 445 197T486 365Q486 404 476 433T442 478T379 495Q333 495 299 467T245 388T226 264Q226 226 236 197T269 152T333 136ZM201 457L113 574L156 610L247 491L201 457ZM528 457L492 491L610 608L644 571L528 457Z" />
<glyph unicode="&#xa5;" horiz-adv-x="740" d="M324 209L196 529Q186 555 171 577T147 614L203 581L101 603L113 662Q113 662 127 662T160 660T197 659T222 658Q255 658 289 659T346 661T369 662L364 598L255 585L298 618Q298 602 302 576T320 517L408 292L367
291L526 545Q533 557 540 571T555 600T565 627L594 584L491 603L504 662Q504 662 522 661T563 659T597 658Q618 658 641 658T684 660T718 661T731 662L726 598L622 587L691 613Q676 599 650 573T599 509L403 209H324ZM210 -5L213 51L328 72L272 24Q275 36 281 58T294
104T301 140L320 292H434L418 168Q416 152 415 131T412 90T411 52T412 24L366 68L485 57L471 0H343Q333 0 312 -1T267 -2T227 -4T210 -5ZM118 154L122 205L609 223L606 173L118 154ZM126 260L131 311L618 329L615 279L126 260Z" />
<glyph unicode="&#xa6;" horiz-adv-x="298" d="M201 392L125 400L176 760L251 752L201 392ZM129 -122L48 -113L95 212L174 205L129 -122Z" />
<glyph unicode="&#xa7;" horiz-adv-x="563" d="M228 -115Q181 -115 137 -102T56 -72L140 -30Q160 -39 184 -45T238 -52Q264 -52 287 -42T324 -12T339 33Q339 58 322 78T278 117T220 152T163 189T119 233T102 287Q102 314 116 340Q124 357 135 370T160 395T183
413L203 396Q194 384 191 372T187 348Q187 326 206 306T254 267T317 228T380 182T429 127T448 58Q448 1 416 -37T334 -95T228 -115ZM56 -72L93 83L153 77L146 9Q146 4 146 -12T148 -44T149 -62L56 -72ZM403 200L384 215Q390 224 394 236T399 261Q399 289 380 311T331
352T267 392T203 435T155 487T137 556Q139 609 166 645T238 700T338 720Q368 720 397 716T454 707T502 695L421 642Q399 652 378 657T328 662Q296 662 271 643T245 585Q245 562 262 542T306 504T364 466T421 427T465 383T483 330Q483 308 476 289T456 253T430 223T403
200ZM467 545L411 551L417 599Q418 604 417 621T413 659T407 698L502 695L467 545Z" />
<glyph unicode="&#xa8;" horiz-adv-x="386" d="M569 561Q547 561 534 575T522 614Q522 644 540 664T585 684Q608 684 620 669T633 631Q632 601 615 581T569 561ZM395 561Q373 561 361 575T349 614Q350 643 367 663T413 684Q435 684 448 670T459 629Q459 600 441
581T395 561Z" />
<glyph unicode="&#xa9;" horiz-adv-x="896" d="M460 -15Q386 -15 320 13T204 90T124 206T95 350Q95 426 123 492T202 608T319 686T460 715Q536 715 602 687T719 609T797 493T826 350Q826 276 798 210T719 94T602 14T460 -15ZM448 133Q359 133 315 182T270 312Q270
384 297 441T377 531T507 565Q546 565 575 559T632 545L609 439L566 441L569 478Q570 484 566 504T559 538L602 496Q578 500 553 504T501 509Q467 509 443 491T404 443T382 378T375 306Q375 256 393 222T454 188Q477 188 507 193T563 202L511 164Q517 174 523 186T534
210T540 227Q542 231 543 239T546 254L590 255L580 153Q550 146 518 140T448 133ZM461 38Q526 38 582 62T682 130T749 229T773 350Q773 414 749 470T682 569T582 638T461 663Q397 663 341 639T241 572T174 473T149 350Q149 286 173 230T241 130T340 63T461 38Z"
/>
<glyph unicode="&#xaa;" horiz-adv-x="397" d="M124 320Q105 320 93 333T76 369T70 416Q70 456 82 496T116 571T163 627T215 648Q227 648 245 645T281 639T304 635L292 563Q289 564 275 569T242 581T205 587Q193 587 181 565T160 507T151 436Q151 416 155 405T171
393Q183 393 200 411T234 458T263 525T276 602L277 631L347 648L369 631Q352 566 341 501T328 353L293 384L381 376L378 346L258 319L237 330Q245 353 253 381T269 439T277 498L284 488Q265 441 240 403T185 342T124 320Z" />
<glyph unicode="&#xab;" horiz-adv-x="520" d="M197 35L51 252L249 470L286 443L134 212L142 293L238 61L197 35ZM387 35L241 252L439 470L476 443L324 212L332 293L428 61L387 35Z" />
<glyph unicode="&#xac;" horiz-adv-x="679" d="M441 67L468 275L508 230L96 226L106 307H550L521 67H441Z" />
<glyph unicode="&#xad;" horiz-adv-x="350" d="M66 212L76 295H288L271 212H66Z" />
<glyph unicode="&#xae;" horiz-adv-x="896" d="M460 -15Q386 -15 320 13T204 90T124 206T95 350Q95 426 123 492T202 608T319 686T460 715Q536 715 602 687T719 609T797 493T826 350Q826 276 798 210T719 94T602 14T460 -15ZM277 155L280 196L356 211L315 191Q318
201 324 221T332 255L362 457Q365 483 365 509T366 545L403 516L329 530L339 574Q347 574 361 573T390 572T411 571L475 545Q471 535 465 513T456 476L426 272Q423 245 422 219T421 183L383 207L458 200L449 158H367Q351 158 325 157T277 155ZM460 38Q525 38 581
62T681 130T748 229T772 350Q772 414 748 470T681 569T581 638T460 663Q396 663 340 639T240 572T173 473T148 350Q148 286 172 230T240 130T339 63T460 38ZM526 158Q522 170 519 182T513 205T506 226L456 361L548 363Q559 332 571 304T592 257T603 235Q606 228
611 217T622 196T630 181L582 205L647 200L639 158H526ZM463 320Q454 320 439 321T406 323T374 326V370Q399 370 419 370T457 370Q492 370 513 382T542 417T551 467Q551 497 535 511T482 526Q477 526 462 525T431 524T402 521L411 571Q426 571 447 571T488 573T524
574Q579 574 613 547T647 469Q647 425 620 391T551 339T463 320Z" />
<glyph unicode="&#xaf;" horiz-adv-x="444" d="M108 574L116 632H425L409 574H108Z" />
<glyph unicode="&#xb0;" horiz-adv-x="451" d="M241 406Q190 406 160 435T130 517Q130 563 148 600T201 658T281 680Q333 680 363 653T393 572Q393 525 374 487T321 428T241 406ZM251 462Q272 462 284 475T303 509T312 552Q315 585 307 604T274 623Q251 623 237
607T217 567T211 517Q211 493 219 478T251 462Z" />
<glyph unicode="&#xb1;" horiz-adv-x="660" d="M274 119L327 562H403L354 119H274ZM77 0L86 75L529 80L520 0H77ZM117 301L127 381H570L560 306L117 301Z" />
<glyph unicode="&#xb2;" horiz-adv-x="408" d="M334 328L267 330H70L69 389Q130 441 171 478T237 544T272 594T283 639Q283 661 269 673T233 686Q214 686 193 679T151 655L189 707Q182 689 176 671T168 646L165 619L117 616L126 721Q157 732 187 737T253 743Q313
743 346 720T379 653Q379 614 357 576T281 489T134 369L138 399H253Q266 399 292 402T344 410L290 371Q297 383 303 396T314 421T320 435L327 459L374 456L354 340L334 328Z" />
<glyph unicode="&#xb3;" horiz-adv-x="365" d="M64 264L57 310Q106 316 148 334T215 380T240 447Q240 473 226 487T184 501Q172 501 159 500T145 498L142 542Q197 550 226 578T256 649Q256 692 212 692Q195 692 177 687T149 675L180 719Q173 699 167 682T159 657L154
626L108 623L113 725Q140 734 168 738T223 743Q346 743 346 652Q346 606 315 574T234 526L237 540Q266 540 288 528T323 495T337 450Q337 404 301 365T203 298T64 264Z" />
<glyph unicode="&#xb4;" horiz-adv-x="246" d="M353 543L317 581L490 752L533 695L353 543Z" />
<glyph unicode="&#xb5;" horiz-adv-x="696" d="M91 -277L62 -261Q77 -200 92 -126T123 28T152 184T173 325T186 436L230 413L105 420V463L281 506L309 483Q288 403 273 334T248 213T239 131Q239 111 245 97T269 83Q309 83 365 166Q386 197 404 238T438 329T466
431Q470 449 471 462T475 490L562 506L590 490Q573 418 560 361T537 253T521 152T510 45L467 78L597 69L595 28L418 -16L388 0Q398 33 408 70T426 147T440 226L454 234Q431 186 402 139T338 55T268 -1T195 -7L206 0Q201 -39 196 -80T185 -165T175 -261L91 -277Z"
/>
<glyph unicode="&#xb6;" horiz-adv-x="628" d="M271 -200L237 -176Q237 -176 247 -159T272 -116T302 -64T328 -16T340 11L442 705H499Q526 705 556 707T621 710L616 647L502 637L552 676Q549 663 542 638T529 585T521 539L440 -6Q439 -15 427 -32T395 -72T353
-118T309 -163T271 -200ZM308 291Q251 291 204 310T127 370T98 470Q98 545 130 600T218 685T346 715Q357 715 368 715T394 712L338 316L308 291Z" />
<glyph unicode="&#xb7;" horiz-adv-x="314" d="M150 225Q124 225 110 241T96 283Q96 322 119 348T176 375Q201 375 215 360T230 316Q230 276 208 251T150 225Z" />
<glyph unicode="&#xb8;" horiz-adv-x="234" d="M-12 -247L-18 -210Q19 -208 49 -194T83 -147Q86 -121 70 -114T34 -105L23 -97L62 17H113L61 -97L48 -41Q97 -49 126 -69T149 -137Q141 -192 97 -219T-12 -247Z" />
<glyph unicode="&#xb9;" horiz-adv-x="334" d="M60 327L62 369L190 382L142 339Q147 359 155 387T166 429L197 673L229 649L109 610L91 646L238 749L297 742Q297 742 294 724T287 680T279 631T273 596L253 448Q252 437 251 423T250 390T249 339L213 380L315 373L305
330H174Q167 330 144 330T97 329T60 327Z" />
<glyph unicode="&#xba;" horiz-adv-x="361" d="M170 320Q121 320 95 349T68 434Q68 493 92 541T158 619T248 648Q297 648 323 619T350 533Q350 474 326 426T261 349T170 320ZM188 374Q224 374 244 415T265 530Q265 560 256 576T231 593Q195 593 174 552T153 437Q153
374 188 374Z" />
<glyph unicode="&#xbb;" horiz-adv-x="521" d="M82 34L45 61L197 292L189 211L93 443L134 469L280 252L82 34ZM272 34L235 61L387 292L379 211L283 443L324 469L470 252L272 34Z" />
<glyph unicode="&#xbc;" horiz-adv-x="817" d="M34 297L36 339L164 352L116 309Q122 329 130 357T140 399L172 643L203 619L83 580L66 616L211 719L271 712Q271 712 268 694T261 650T253 601T247 566L227 418Q226 407 225 393T224 360T224 309L187 350L289 343L280
300H148Q141 300 119 300T72 299T34 297ZM133 -49L83 -12L607 721L657 684L133 -49ZM500 115L463 169L719 461L772 412Q772 412 761 402T735 377T706 349T688 331L524 139L513 168L649 169L643 115H500ZM550 -3L552 39L657 51L612 9Q616 32 622 56T631 99L648 234L734
262L713 101Q710 79 710 55T709 9L673 49L764 43L756 0H629Q614 0 592 -1T550 -3ZM705 115L712 174L780 177L772 115H705Z" />
<glyph unicode="&#xbd;" horiz-adv-x="830" d="M34 297L36 339L164 352L116 309Q122 329 130 357T140 399L172 643L203 619L83 580L66 616L211 719L271 712Q271 712 268 694T261 650T253 601T247 566L227 418Q226 407 225 393T224 360T224 309L187 350L289 343L280
300H148Q141 300 119 300T72 299T34 297ZM133 -49L83 -12L607 721L657 684L133 -49ZM739 -2L671 0H474L473 59Q535 111 576 148T641 214T676 264T686 309Q686 331 673 343T637 356Q617 356 596 348T555 325L593 377Q586 359 580 341T572 316L569 289L521 286L531
391Q561 402 591 407T656 413Q717 413 749 390T782 323Q782 284 760 246T685 159T539 39L542 69H657Q670 69 696 72T748 80L695 41Q700 53 706 66T718 91T724 105L732 129L778 126L758 10L739 -2Z" />
<glyph unicode="&#xbe;" horiz-adv-x="847" d="M39 234L31 280Q81 286 122 304T189 350T214 417Q214 443 200 457T158 471Q147 471 133 470T119 468L116 512Q171 520 201 549T231 619Q231 662 187 662Q170 662 152 657T123 645L154 689Q148 673 141 654T133 627L129
596L81 593L86 695Q114 704 142 708T197 713Q321 713 321 622Q321 576 290 544T208 496L211 510Q240 510 262 498T298 465T311 420Q311 374 275 335T177 268T39 234ZM163 -49L113 -12L637 721L687 684L163 -49ZM530 115L493 169L749 461L802 412Q802 412 791 402T765
377T736 349T718 331L554 139L543 168L679 169L673 115H530ZM580 -3L582 39L687 51L642 9Q646 32 652 56T661 99L678 234L764 262L743 101Q740 79 740 55T739 9L703 49L794 43L786 0H659Q644 0 622 -1T580 -3ZM735 115L742 174L810 177L802 115H735Z" />
<glyph unicode="&#xbf;" horiz-adv-x="463" d="M278 273L357 270L337 97L309 70Q298 72 283 73T260 74Q213 74 181 50T131 -15T114 -105Q114 -155 139 -184T214 -214Q237 -214 263 -208T317 -189L247 -236Q252 -219 257 -199T266 -162T272 -136L275 -103L334 -100L326
-252Q289 -263 256 -268T193 -274Q111 -274 62 -229T13 -101Q13 -29 43 25T128 108T255 138Q264 138 272 138T289 137L254 93L267 264L278 273ZM345 505Q372 505 387 489T402 444Q402 410 385 388T335 365Q308 365 294 381T279 426Q279 461 296 483T345 505Z" />
<glyph unicode="&#xc0;" horiz-adv-x="694" d="M1 -5L4 49L104 74L51 47Q56 54 69 75T96 121T120 166L371 705L445 715L565 135Q567 123 572 104T584 68T593 43L541 73L641 59L628 0H521Q507 0 482 -1T429 -3T377 -5L381 50L492 78L450 38Q450 50 450 72T449 117T445
157L373 581L399 586L192 131Q188 121 183 104T175 70T169 40L130 73L236 59L223 0H131Q119 0 97 -1T49 -3T1 -5ZM214 218L240 277L443 280L449 218H214ZM516 738L290 825L331 893L543 783L516 738Z" />
<glyph unicode="&#xc1;" horiz-adv-x="694" d="M1 -5L4 49L104 74L51 47Q56 54 69 75T96 121T120 166L371 705L445 715L565 135Q567 123 572 104T584 68T593 43L541 73L641 59L628 0H521Q507 0 482 -1T429 -3T377 -5L381 50L492 78L450 38Q450 50 450 72T449 117T445
157L373 581L399 586L192 131Q188 121 183 104T175 70T169 40L130 73L236 59L223 0H131Q119 0 97 -1T49 -3T1 -5ZM214 218L240 277L443 280L449 218H214ZM308 738L294 783L537 893L559 825L308 738Z" />
<glyph unicode="&#xc2;" horiz-adv-x="694" d="M1 -5L4 49L104 74L51 47Q56 54 69 75T96 121T120 166L371 705L445 715L565 135Q567 123 572 104T584 68T593 43L541 73L641 59L628 0H521Q507 0 482 -1T429 -3T377 -5L381 50L492 78L450 38Q450 50 450 72T449 117T445
157L373 581L399 586L192 131Q188 121 183 104T175 70T169 40L130 73L236 59L223 0H131Q119 0 97 -1T49 -3T1 -5ZM214 218L240 277L443 280L449 218H214ZM587 731L427 812L251 738L239 774L396 869H478L610 767L587 731Z" />
<glyph unicode="&#xc3;" horiz-adv-x="694" d="M1 -5L4 49L104 74L51 47Q56 54 69 75T96 121T120 166L371 705L445 715L565 135Q567 123 572 104T584 68T593 43L541 73L641 59L628 0H521Q507 0 482 -1T429 -3T377 -5L381 50L492 78L450 38Q450 50 450 72T449 117T445
157L373 581L399 586L192 131Q188 121 183 104T175 70T169 40L130 73L236 59L223 0H131Q119 0 97 -1T49 -3T1 -5ZM214 218L240 277L443 280L449 218H214ZM293 732L259 754Q259 754 268 769T292 805T324 840T356 856Q376 856 401 846T451 826T496 816Q510 816 523
827T546 851T555 863L590 841Q590 841 581 826T557 792T525 758T492 743Q472 743 447 753T398 773T352 783Q339 783 326 770T303 745T293 732Z" />
<glyph unicode="&#xc4;" horiz-adv-x="694" d="M1 -5L4 49L104 74L51 47Q56 54 69 75T96 121T120 166L371 705L445 715L565 135Q567 123 572 104T584 68T593 43L541 73L641 59L628 0H521Q507 0 482 -1T429 -3T377 -5L381 50L492 78L450 38Q450 50 450 72T449 117T445
157L373 581L399 586L192 131Q188 121 183 104T175 70T169 40L130 73L236 59L223 0H131Q119 0 97 -1T49 -3T1 -5ZM214 218L240 277L443 280L449 218H214ZM493 738Q471 738 458 752T446 791Q446 821 464 841T509 861Q532 861 544 846T557 808Q556 778 539 758T493
738ZM319 738Q297 738 285 752T273 791Q274 820 291 840T337 861Q359 861 372 847T383 806Q383 777 365 758T319 738Z" />
<glyph unicode="&#xc5;" horiz-adv-x="694" d="M1 -5L4 49L104 74L51 47Q56 54 69 75T96 121T120 166L371 705L445 715L565 135Q567 123 572 104T584 68T593 43L541 73L641 59L628 0H521Q507 0 482 -1T429 -3T377 -5L381 50L492 78L450 38Q450 50 450 72T449 117T445
157L373 581L399 586L192 131Q188 121 183 104T175 70T169 40L130 73L236 59L223 0H131Q119 0 97 -1T49 -3T1 -5ZM214 218L240 277L443 280L449 218H214ZM421 737Q377 737 355 761T336 825Q339 865 365 889T436 913Q480 913 501 889T519 825Q516 785 491 761T421
737ZM425 781Q445 781 456 794T468 825Q470 843 462 856T432 869Q412 869 402 856T389 825Q388 807 396 794T425 781Z" />
<glyph unicode="&#xc6;" horiz-adv-x="936" d="M1 -5L4 49L113 74L55 47Q61 54 78 75T113 121T144 166L487 705H563L584 135Q585 124 587 104T592 67T596 43L628 0H521Q507 0 482 -1T429 -3T377 -5L381 50L501 78L452 38Q454 50 458 71T465 116T468 157L467 581L494
586L211 131Q205 120 197 104T182 70T172 40L139 73L236 59L223 0H131Q119 0 97 -1T49 -3T1 -5ZM249 218L282 277L491 280L485 218H249ZM522 0V65H694Q724 65 753 70T795 78L754 44Q770 63 784 82T802 112Q807 122 814 143T826 177L883 172L845 14L829 0Q799 0
767 0T714 0H522ZM729 253L732 362L774 315Q754 317 731 319T688 323T659 325H505V388H687Q694 388 710 389T748 394T784 399L728 352L762 462L811 457Q801 403 794 354T781 259L729 253ZM827 550Q827 562 827 578T825 602Q825 608 820 621T809 649T796 677L850
634Q837 636 814 637T769 640T736 642H500V705L774 704Q784 704 803 705T844 707T886 709L902 691L888 555L827 550Z" />
<glyph unicode="&#xc7;" horiz-adv-x="642" d="M341 -15Q251 -15 189 22T95 127T62 283Q62 376 87 455T159 594T277 686T440 720Q500 720 547 709T639 686L606 530L544 534L550 584Q551 590 550 606T546 641T541 675L588 625Q550 635 510 644T430 653Q369 653
324 622T247 538T201 419T186 281Q186 217 204 165T259 82T349 52Q390 52 432 60T517 79L457 33Q463 48 471 66T486 101T496 126Q498 139 500 151T504 173L567 175L551 19Q502 7 452 -4T341 -15ZM225 -247L219 -210Q256 -208 286 -194T320 -147Q323 -121 307 -114T271
-105L260 -97L299 17H350L298 -97L285 -41Q334 -49 363 -69T386 -137Q378 -192 334 -219T225 -247Z" />
<glyph unicode="&#xc8;" horiz-adv-x="593" d="M9 -5L12 51L130 74L77 30Q81 42 87 64T100 109T107 144L167 553Q169 566 170 589T171 634T172 662L214 631L101 651L115 710Q134 709 157 708T200 706T232 705H452Q463 705 482 706T523 708T564 710L580 692L566
556L506 551Q505 563 505 579T504 603Q504 609 499 622T488 650T474 677L528 635Q516 636 493 637T448 640T414 642H252L301 670Q299 661 293 636T282 583T273 539L245 353L209 395H354Q360 395 375 397T411 401T450 406L394 360L427 470L477 465Q467 408 460 361T447
267L395 261L398 370L440 322Q421 325 398 327T355 331T325 333H200L249 375L220 174Q217 154 214 126T210 71T208 32L167 65H343Q373 65 401 70T444 78L402 44Q418 62 432 82T451 112Q456 123 463 144T474 177L532 172L493 14L477 0Q448 0 415 0T362 0H148Q125
0 86 -1T9 -5ZM470 753L244 840L285 908L497 798L470 753Z" />
<glyph unicode="&#xc9;" horiz-adv-x="593" d="M9 -5L12 51L130 74L77 30Q81 42 87 64T100 109T107 144L167 553Q169 566 170 589T171 634T172 662L214 631L101 651L115 710Q134 709 157 708T200 706T232 705H452Q463 705 482 706T523 708T564 710L580 692L566
556L506 551Q505 563 505 579T504 603Q504 609 499 622T488 650T474 677L528 635Q516 636 493 637T448 640T414 642H252L301 670Q299 661 293 636T282 583T273 539L245 353L209 395H354Q360 395 375 397T411 401T450 406L394 360L427 470L477 465Q467 408 460 361T447
267L395 261L398 370L440 322Q421 325 398 327T355 331T325 333H200L249 375L220 174Q217 154 214 126T210 71T208 32L167 65H343Q373 65 401 70T444 78L402 44Q418 62 432 82T451 112Q456 123 463 144T474 177L532 172L493 14L477 0Q448 0 415 0T362 0H148Q125
0 86 -1T9 -5ZM262 753L248 798L491 908L513 840L262 753Z" />
<glyph unicode="&#xca;" horiz-adv-x="593" d="M9 -5L12 51L130 74L77 30Q81 42 87 64T100 109T107 144L167 553Q169 566 170 589T171 634T172 662L214 631L101 651L115 710Q134 709 157 708T200 706T232 705H452Q463 705 482 706T523 708T564 710L580 692L566
556L506 551Q505 563 505 579T504 603Q504 609 499 622T488 650T474 677L528 635Q516 636 493 637T448 640T414 642H252L301 670Q299 661 293 636T282 583T273 539L245 353L209 395H354Q360 395 375 397T411 401T450 406L394 360L427 470L477 465Q467 408 460 361T447
267L395 261L398 370L440 322Q421 325 398 327T355 331T325 333H200L249 375L220 174Q217 154 214 126T210 71T208 32L167 65H343Q373 65 401 70T444 78L402 44Q418 62 432 82T451 112Q456 123 463 144T474 177L532 172L493 14L477 0Q448 0 415 0T362 0H148Q125
0 86 -1T9 -5ZM540 746L380 827L204 753L192 789L349 884H431L563 782L540 746Z" />
<glyph unicode="&#xcb;" horiz-adv-x="593" d="M9 -5L12 51L130 74L77 30Q81 42 87 64T100 109T107 144L167 553Q169 566 170 589T171 634T172 662L214 631L101 651L115 710Q134 709 157 708T200 706T232 705H452Q463 705 482 706T523 708T564 710L580 692L566
556L506 551Q505 563 505 579T504 603Q504 609 499 622T488 650T474 677L528 635Q516 636 493 637T448 640T414 642H252L301 670Q299 661 293 636T282 583T273 539L245 353L209 395H354Q360 395 375 397T411 401T450 406L394 360L427 470L477 465Q467 408 460 361T447
267L395 261L398 370L440 322Q421 325 398 327T355 331T325 333H200L249 375L220 174Q217 154 214 126T210 71T208 32L167 65H343Q373 65 401 70T444 78L402 44Q418 62 432 82T451 112Q456 123 463 144T474 177L532 172L493 14L477 0Q448 0 415 0T362 0H148Q125
0 86 -1T9 -5ZM446 753Q424 753 411 767T399 806Q399 836 417 856T462 876Q485 876 497 861T510 823Q509 793 492 773T446 753ZM272 753Q250 753 238 767T226 806Q227 835 244 855T290 876Q312 876 325 862T336 821Q336 792 318 773T272 753Z" />
<glyph unicode="&#xcc;" horiz-adv-x="359" d="M9 -5L12 51L130 74L79 32Q83 46 88 68T100 111T107 144L167 553Q169 568 170 592T171 639T171 675L214 631L101 651L115 710Q134 709 158 708T202 706T232 705Q260 705 299 707T373 710L368 646L251 635L304 675Q301
662 295 637T282 586T273 539L220 174Q217 152 215 124T211 71T211 32L168 70L290 58L276 0H148Q136 0 112 -1T60 -3T9 -5ZM350 753L124 840L165 908L377 798L350 753Z" />
<glyph unicode="&#xcd;" horiz-adv-x="359" d="M9 -5L12 51L130 74L79 32Q83 46 88 68T100 111T107 144L167 553Q169 568 170 592T171 639T171 675L214 631L101 651L115 710Q134 709 158 708T202 706T232 705Q260 705 299 707T373 710L368 646L251 635L304 675Q301
662 295 637T282 586T273 539L220 174Q217 152 215 124T211 71T211 32L168 70L290 58L276 0H148Q136 0 112 -1T60 -3T9 -5ZM142 753L128 798L371 908L393 840L142 753Z" />
<glyph unicode="&#xce;" horiz-adv-x="359" d="M9 -5L12 51L130 74L79 32Q83 46 88 68T100 111T107 144L167 553Q169 568 170 592T171 639T171 675L214 631L101 651L115 710Q134 709 158 708T202 706T232 705Q260 705 299 707T373 710L368 646L251 635L304 675Q301
662 295 637T282 586T273 539L220 174Q217 152 215 124T211 71T211 32L168 70L290 58L276 0H148Q136 0 112 -1T60 -3T9 -5ZM677 746L517 827L341 753L329 789L486 884H568L700 782L677 746Z" />
<glyph unicode="&#xcf;" horiz-adv-x="359" d="M9 -5L12 51L130 74L79 32Q83 46 88 68T100 111T107 144L167 553Q169 568 170 592T171 639T171 675L214 631L101 651L115 710Q134 709 158 708T202 706T232 705Q260 705 299 707T373 710L368 646L251 635L304 675Q301
662 295 637T282 586T273 539L220 174Q217 152 215 124T211 71T211 32L168 70L290 58L276 0H148Q136 0 112 -1T60 -3T9 -5ZM327 753Q305 753 292 767T280 806Q280 836 298 856T343 876Q366 876 378 861T391 823Q390 793 373 773T327 753ZM153 753Q131 753 119 767T107
806Q108 835 125 855T171 876Q193 876 206 862T217 821Q217 792 199 773T153 753Z" />
<glyph unicode="&#xd0;" horiz-adv-x="724" d="M9 -5L12 51L130 74L78 35Q83 49 89 69T100 110T107 144L167 553Q169 566 170 590T171 640T173 679L214 631L101 651L115 710Q132 709 154 708T197 706T232 705Q253 705 282 706T341 709T391 710Q487 710 553 674T654
571T689 417Q689 295 643 200T510 50T302 -5Q263 -5 226 -3T148 0Q136 0 110 -1T57 -3T9 -5ZM208 40L173 65Q183 65 208 64T262 61T307 60Q378 60 428 90T510 170T557 284T572 415Q572 478 553 530T493 613T386 644Q363 644 327 644T258 640L302 670Q298 656 292
632T281 582T273 539L220 174Q217 153 214 125T210 74T208 40ZM26 328L34 379H401L388 328H26Z" />
<glyph unicode="&#xd1;" horiz-adv-x="774" d="M9 -5L12 51L129 74L79 34Q80 41 84 56T94 88T103 121T108 144L168 553Q170 570 170 596T171 645T171 675L214 631L101 651L115 710Q135 709 158 708T202 706T232 705H281L297 685L365 532L576 143L550 138L611 553Q613
570 614 593T615 639T614 674L657 631L544 651L558 710Q576 709 598 708T639 706T665 705Q681 705 705 706T755 708T798 710L793 646L676 635L730 665Q725 653 717 630T702 582T692 539L612 0H527L227 566L252 571L195 174Q193 157 191 130T187 77T185 32L140 70L259
58L245 0H140Q127 0 105 -1T57 -3T9 -5ZM331 747L297 769Q297 769 306 784T330 820T362 855T394 871Q414 871 439 861T489 841T534 831Q548 831 561 842T584 866T593 878L628 856Q628 856 619 841T595 807T563 773T530 758Q510 758 485 768T436 788T390 798Q377
798 364 785T341 760T331 747Z" />
<glyph unicode="&#xd2;" horiz-adv-x="765" d="M344 -15Q253 -15 190 23T94 129T61 286Q61 379 87 458T163 596T284 687T446 720Q538 720 601 682T696 576T728 418Q728 325 703 246T627 109T506 18T344 -15ZM351 50Q413 50 460 80T539 162T587 281T603 424Q603
492 585 544T532 625T440 655Q377 655 330 625T251 543T203 423T187 280Q187 213 205 161T259 80T351 50ZM551 753L325 840L366 908L578 798L551 753Z" />
<glyph unicode="&#xd3;" horiz-adv-x="765" d="M344 -15Q253 -15 190 23T94 129T61 286Q61 379 87 458T163 596T284 687T446 720Q538 720 601 682T696 576T728 418Q728 325 703 246T627 109T506 18T344 -15ZM351 50Q413 50 460 80T539 162T587 281T603 424Q603
492 585 544T532 625T440 655Q377 655 330 625T251 543T203 423T187 280Q187 213 205 161T259 80T351 50ZM344 753L330 798L573 908L595 840L344 753Z" />
<glyph unicode="&#xd4;" horiz-adv-x="765" d="M344 -15Q253 -15 190 23T94 129T61 286Q61 379 87 458T163 596T284 687T446 720Q538 720 601 682T696 576T728 418Q728 325 703 246T627 109T506 18T344 -15ZM351 50Q413 50 460 80T539 162T587 281T603 424Q603
492 585 544T532 625T440 655Q377 655 330 625T251 543T203 423T187 280Q187 213 205 161T259 80T351 50ZM622 746L462 827L286 753L274 789L431 884H513L645 782L622 746Z" />
<glyph unicode="&#xd5;" horiz-adv-x="765" d="M344 -15Q253 -15 190 23T94 129T61 286Q61 379 87 458T163 596T284 687T446 720Q538 720 601 682T696 576T728 418Q728 325 703 246T627 109T506 18T344 -15ZM351 50Q413 50 460 80T539 162T587 281T603 424Q603
492 585 544T532 625T440 655Q377 655 330 625T251 543T203 423T187 280Q187 213 205 161T259 80T351 50ZM328 747L294 769Q294 769 303 784T327 820T359 855T391 871Q411 871 436 861T486 841T531 831Q545 831 558 842T581 866T590 878L625 856Q625 856 616 841T592
807T560 773T527 758Q507 758 482 768T433 788T387 798Q374 798 361 785T338 760T328 747Z" />
<glyph unicode="&#xd6;" horiz-adv-x="765" d="M344 -15Q253 -15 190 23T94 129T61 286Q61 379 87 458T163 596T284 687T446 720Q538 720 601 682T696 576T728 418Q728 325 703 246T627 109T506 18T344 -15ZM351 50Q413 50 460 80T539 162T587 281T603 424Q603
492 585 544T532 625T440 655Q377 655 330 625T251 543T203 423T187 280Q187 213 205 161T259 80T351 50ZM528 753Q506 753 493 767T481 806Q481 836 499 856T544 876Q567 876 579 861T592 823Q591 793 574 773T528 753ZM354 753Q332 753 320 767T308 806Q309 835
326 855T372 876Q394 876 407 862T418 821Q418 792 400 773T354 753Z" />
<glyph unicode="&#xd7;" horiz-adv-x="598" d="M118 35L69 91L476 458L528 399L118 35ZM426 36L105 400L168 457L492 96L426 36Z" />
<glyph unicode="&#xd8;" horiz-adv-x="762" d="M136 -124L91 -97L639 825L686 798L136 -124ZM341 -15Q250 -15 187 23T92 129T59 286Q59 379 85 458T160 596T281 687T443 720Q535 720 598 682T693 576T726 418Q726 325 700 246T625 109T504 18T341 -15ZM348 50Q411
50 458 80T536 162T584 281T601 424Q601 492 583 544T529 625T437 655Q374 655 327 625T248 543T201 423T185 280Q185 213 202 161T256 80T348 50Z" />
<glyph unicode="&#xd9;" horiz-adv-x="738" d="M322 -15Q209 -15 154 45T98 205Q98 219 99 236T105 288T119 385T145 553Q147 570 148 595T149 643T149 670L192 631L79 651L93 710Q113 709 136 708T180 706T210 705Q225 705 249 706T301 708T353 710L347 646L231
635L282 671Q280 660 274 636T261 584T252 539Q238 439 229 380T216 288T210 241T208 215Q208 147 241 105T342 62Q398 62 437 88T500 159T532 265L575 553Q578 570 578 594T578 639T578 670L621 631L507 651L521 710Q539 709 561 708T602 706T630 705Q651 705
690 707T761 710L757 646L640 635L691 670Q689 660 683 635T670 584T661 539L621 267Q602 138 526 62T322 -15ZM543 753L317 840L358 908L570 798L543 753Z" />
<glyph unicode="&#xda;" horiz-adv-x="738" d="M322 -15Q209 -15 154 45T98 205Q98 219 99 236T105 288T119 385T145 553Q147 570 148 595T149 643T149 670L192 631L79 651L93 710Q113 709 136 708T180 706T210 705Q225 705 249 706T301 708T353 710L347 646L231
635L282 671Q280 660 274 636T261 584T252 539Q238 439 229 380T216 288T210 241T208 215Q208 147 241 105T342 62Q398 62 437 88T500 159T532 265L575 553Q578 570 578 594T578 639T578 670L621 631L507 651L521 710Q539 709 561 708T602 706T630 705Q651 705
690 707T761 710L757 646L640 635L691 670Q689 660 683 635T670 584T661 539L621 267Q602 138 526 62T322 -15ZM335 753L321 798L564 908L586 840L335 753Z" />
<glyph unicode="&#xdb;" horiz-adv-x="738" d="M322 -15Q209 -15 154 45T98 205Q98 219 99 236T105 288T119 385T145 553Q147 570 148 595T149 643T149 670L192 631L79 651L93 710Q113 709 136 708T180 706T210 705Q225 705 249 706T301 708T353 710L347 646L231
635L282 671Q280 660 274 636T261 584T252 539Q238 439 229 380T216 288T210 241T208 215Q208 147 241 105T342 62Q398 62 437 88T500 159T532 265L575 553Q578 570 578 594T578 639T578 670L621 631L507 651L521 710Q539 709 561 708T602 706T630 705Q651 705
690 707T761 710L757 646L640 635L691 670Q689 660 683 635T670 584T661 539L621 267Q602 138 526 62T322 -15ZM614 746L454 827L278 753L266 789L423 884H505L637 782L614 746Z" />
<glyph unicode="&#xdc;" horiz-adv-x="738" d="M322 -15Q209 -15 154 45T98 205Q98 219 99 236T105 288T119 385T145 553Q147 570 148 595T149 643T149 670L192 631L79 651L93 710Q113 709 136 708T180 706T210 705Q225 705 249 706T301 708T353 710L347 646L231
635L282 671Q280 660 274 636T261 584T252 539Q238 439 229 380T216 288T210 241T208 215Q208 147 241 105T342 62Q398 62 437 88T500 159T532 265L575 553Q578 570 578 594T578 639T578 670L621 631L507 651L521 710Q539 709 561 708T602 706T630 705Q651 705
690 707T761 710L757 646L640 635L691 670Q689 660 683 635T670 584T661 539L621 267Q602 138 526 62T322 -15ZM520 753Q498 753 485 767T473 806Q473 836 491 856T536 876Q559 876 571 861T584 823Q583 793 566 773T520 753ZM346 753Q324 753 312 767T300 806Q301
835 318 855T364 876Q386 876 399 862T410 821Q410 792 392 773T346 753Z" />
<glyph unicode="&#xdd;" horiz-adv-x="651" d="M283 230L163 554Q160 563 153 578T136 611T120 644T109 666L164 632L78 651L92 710Q121 709 151 707T196 705Q210 705 236 706T290 708T343 710L339 646L213 635L255 676Q255 666 257 648T263 610T270 572T278 545L366
310L328 314L477 554Q482 562 490 576T508 608T523 641T532 662L569 631L439 650L453 710Q472 709 494 708T535 706T562 705Q578 705 611 707T676 710L670 646L595 632L655 662Q650 656 638 642T611 608T582 571T559 539L359 230H283ZM148 -5L151 51L279 74L226
32Q230 46 236 68T248 111T256 144L282 317H389L368 174Q365 153 363 125T360 72T359 32L316 70L448 58L434 0H297Q284 0 258 -1T201 -3T148 -5ZM283 753L269 798L512 908L534 840L283 753Z" />
<glyph unicode="&#xde;" horiz-adv-x="563" d="M9 -5L12 51L130 74L79 32Q83 46 88 68T100 111T107 144L167 553Q169 568 170 592T171 639T171 675L214 631L101 651L115 710Q134 709 158 708T202 706T232 705Q260 705 299 707T373 710L368 646L251 635L304 675Q301
662 295 637T282 586T273 539L220 174Q217 152 215 124T211 71T211 32L168 70L290 58L276 0H148Q136 0 112 -1T60 -3T9 -5ZM270 164Q261 164 252 164T233 164T211 165T183 167L192 227Q202 226 215 225T248 224Q329 224 379 264T430 382Q430 437 394 466T290 495Q281
495 266 495T233 492L242 550Q256 551 274 551T310 553T343 554Q438 554 489 511T540 387Q540 316 502 266T403 190T270 164Z" />
<glyph unicode="&#xdf;" horiz-adv-x="547" d="M-141 -234L-117 -154Q-94 -154 -71 -149T-29 -136T-2 -119Q9 -106 20 -64T44 43T68 188Q79 262 88 350T114 545Q125 606 156 649T230 719T322 758T415 769Q449 769 478 758T525 721T543 655Q543 615 525 586T480
532T427 486T382 440T364 386Q364 365 378 346T414 307T458 266T495 218T510 158Q510 108 487 70T427 10T343 -12Q297 -12 260 3T199 39L194 76L244 181L285 170L273 32L249 103Q275 75 296 61T343 48Q371 48 390 66T409 118Q409 140 395 160T361 199T320 242T286
293T272 358Q273 397 290 426T333 478T384 524T426 571T444 629Q444 665 425 678T382 693Q361 693 333 690T280 678T243 654Q233 640 223 602T203 508T184 388T166 258T149 133T133 30T121 -37Q103 -98 65 -140T-26 -205T-141 -234Z" />
<glyph unicode="&#xe0;" horiz-adv-x="533" d="M123 -12Q92 -12 71 7T40 60T29 140Q29 188 42 239T79 339T131 426T191 487T254 510Q272 510 300 506T353 498T389 493L379 394Q373 396 350 407T296 428T239 439Q225 439 211 422T183 375T159 309T142 233T135 158Q135
121 145 97T173 72Q190 72 212 94T258 155T303 242T338 341T354 440L356 489L445 510L475 491Q457 419 443 349T419 204T408 42L365 82L495 73L492 32L325 -12L296 4Q306 39 314 76T330 156T343 245L350 225Q323 159 287 106T208 20T123 -12ZM357 543L176 695L219
752L391 581L357 543Z" />
<glyph unicode="&#xe1;" horiz-adv-x="533" d="M123 -12Q92 -12 71 7T40 60T29 140Q29 188 42 239T79 339T131 426T191 487T254 510Q272 510 300 506T353 498T389 493L379 394Q373 396 350 407T296 428T239 439Q225 439 211 422T183 375T159 309T142 233T135 158Q135
121 145 97T173 72Q190 72 212 94T258 155T303 242T338 341T354 440L356 489L445 510L475 491Q457 419 443 349T419 204T408 42L365 82L495 73L492 32L325 -12L296 4Q306 39 314 76T330 156T343 245L350 225Q323 159 287 106T208 20T123 -12ZM253 543L217 581L390
752L433 695L253 543Z" />
<glyph unicode="&#xe2;" horiz-adv-x="533" d="M123 -12Q92 -12 71 7T40 60T29 140Q29 188 42 239T79 339T131 426T191 487T254 510Q272 510 300 506T353 498T389 493L379 394Q373 396 350 407T296 428T239 439Q225 439 211 422T183 375T159 309T142 233T135 158Q135
121 145 97T173 72Q190 72 212 94T258 155T303 242T338 341T354 440L356 489L445 510L475 491Q457 419 443 349T419 204T408 42L365 82L495 73L492 32L325 -12L296 4Q306 39 314 76T330 156T343 245L350 225Q323 159 287 106T208 20T123 -12ZM179 544L152 578L314
707H357L382 666L179 544ZM443 540L302 669L336 707H379L481 572L443 540Z" />
<glyph unicode="&#xe3;" horiz-adv-x="533" d="M123 -12Q92 -12 71 7T40 60T29 140Q29 188 42 239T79 339T131 426T191 487T254 510Q272 510 300 506T353 498T389 493L379 394Q373 396 350 407T296 428T239 439Q225 439 211 422T183 375T159 309T142 233T135 158Q135
121 145 97T173 72Q190 72 212 94T258 155T303 242T338 341T354 440L356 489L445 510L475 491Q457 419 443 349T419 204T408 42L365 82L495 73L492 32L325 -12L296 4Q306 39 314 76T330 156T343 245L350 225Q323 159 287 106T208 20T123 -12ZM201 560L164 583Q164
583 173 599T198 635T230 670T263 686Q283 686 308 676T360 656T405 646Q418 646 431 657T453 680T462 692L500 669Q500 669 491 654T466 619T434 584T401 569Q381 569 356 579T305 598T259 608Q246 608 233 597T210 573T201 560Z" />
<glyph unicode="&#xe4;" horiz-adv-x="533" d="M123 -12Q92 -12 71 7T40 60T29 140Q29 188 42 239T79 339T131 426T191 487T254 510Q272 510 300 506T353 498T389 493L379 394Q373 396 350 407T296 428T239 439Q225 439 211 422T183 375T159 309T142 233T135 158Q135
121 145 97T173 72Q190 72 212 94T258 155T303 242T338 341T354 440L356 489L445 510L475 491Q457 419 443 349T419 204T408 42L365 82L495 73L492 32L325 -12L296 4Q306 39 314 76T330 156T343 245L350 225Q323 159 287 106T208 20T123 -12ZM398 561Q376 561 363
575T351 614Q351 644 369 664T414 684Q437 684 449 669T462 631Q461 601 444 581T398 561ZM224 561Q202 561 190 575T178 614Q179 643 196 663T242 684Q264 684 277 670T288 629Q288 600 270 581T224 561Z" />
<glyph unicode="&#xe5;" horiz-adv-x="533" d="M123 -12Q92 -12 71 7T40 60T29 140Q29 188 42 239T79 339T131 426T191 487T254 510Q272 510 300 506T353 498T389 493L379 394Q373 396 350 407T296 428T239 439Q225 439 211 422T183 375T159 309T142 233T135 158Q135
121 145 97T173 72Q190 72 212 94T258 155T303 242T338 341T354 440L356 489L445 510L475 491Q457 419 443 349T419 204T408 42L365 82L495 73L492 32L325 -12L296 4Q306 39 314 76T330 156T343 245L350 225Q323 159 287 106T208 20T123 -12ZM314 541Q277 541 257
560T236 612Q236 635 246 659T278 700T339 717Q377 717 396 698T416 645Q416 623 407 599T375 558T314 541ZM321 585Q338 585 347 594T360 617T364 640Q364 654 357 663T333 673Q317 673 308 663T295 641T291 618Q291 604 298 595T321 585Z" />
<glyph unicode="&#xe6;" horiz-adv-x="682" d="M106 -12Q74 -12 54 3T25 42T13 92T13 139Q18 187 53 216T143 263T266 292L331 303L326 247Q271 241 229 229T161 204T129 178Q124 166 122 149T121 113T131 83T156 71Q175 71 197 87T241 132T280 196T305 273Q309
286 312 306T316 347T316 384Q313 413 295 425T249 434T189 414T125 369L92 401Q123 437 159 461T232 498T300 511Q340 511 368 495T407 446T412 361Q406 314 386 263T336 163T267 75T188 12T106 -12ZM408 -12Q353 -12 320 25T286 139Q286 185 300 236T339 336T394
424T455 486T515 510Q588 510 627 489T666 428Q666 374 630 329T527 251T367 204L368 254Q428 262 472 284T541 337T566 401Q566 421 552 431T505 441Q487 441 467 413T430 341T402 246T391 151Q391 106 406 84T450 61Q473 61 499 73T551 107T599 157L637 128Q608
85 571 54T492 5T408 -12Z" />
<glyph unicode="&#xe7;" horiz-adv-x="420" d="M148 -12Q91 -12 60 27T28 140Q28 187 41 238T77 337T127 425T184 487T241 510Q255 510 277 509T327 504T384 498L402 469L365 316L323 319L318 457L366 396Q329 411 305 419T265 431T237 434Q220 434 202 407T169
336T144 244T134 151Q134 108 148 85T191 62Q225 62 262 86T336 157L372 129Q331 63 272 26T148 -12ZM61 -247L55 -210Q92 -208 122 -194T156 -147Q159 -121 143 -114T107 -105L96 -97L135 17H186L134 -97L121 -41Q170 -49 199 -69T222 -137Q214 -192 170 -219T61
-247Z" />
<glyph unicode="&#xe8;" horiz-adv-x="423" d="M149 -12Q94 -12 61 25T27 140Q27 187 41 238T80 338T134 425T195 487T254 510Q327 510 366 489T405 428Q405 373 370 328T268 251T108 205L109 255Q169 263 212 284T280 336T305 400Q305 421 291 431T244 441Q226
441 207 413T170 341T143 246T132 152Q132 107 147 84T190 61Q213 61 239 73T292 107T340 158L377 129Q349 85 312 54T233 5T149 -12ZM321 543L140 695L183 752L355 581L321 543Z" />
<glyph unicode="&#xe9;" horiz-adv-x="423" d="M149 -12Q94 -12 61 25T27 140Q27 187 41 238T80 338T134 425T195 487T254 510Q327 510 366 489T405 428Q405 373 370 328T268 251T108 205L109 255Q169 263 212 284T280 336T305 400Q305 421 291 431T244 441Q226
441 207 413T170 341T143 246T132 152Q132 107 147 84T190 61Q213 61 239 73T292 107T340 158L377 129Q349 85 312 54T233 5T149 -12ZM218 543L182 581L355 752L398 695L218 543Z" />
<glyph unicode="&#xea;" horiz-adv-x="423" d="M149 -12Q94 -12 61 25T27 140Q27 187 41 238T80 338T134 425T195 487T254 510Q327 510 366 489T405 428Q405 373 370 328T268 251T108 205L109 255Q169 263 212 284T280 336T305 400Q305 421 291 431T244 441Q226
441 207 413T170 341T143 246T132 152Q132 107 147 84T190 61Q213 61 239 73T292 107T340 158L377 129Q349 85 312 54T233 5T149 -12ZM143 544L116 578L278 707H321L346 666L143 544ZM407 540L266 669L300 707H343L445 572L407 540Z" />
<glyph unicode="&#xeb;" horiz-adv-x="423" d="M149 -12Q94 -12 61 25T27 140Q27 187 41 238T80 338T134 425T195 487T254 510Q327 510 366 489T405 428Q405 373 370 328T268 251T108 205L109 255Q169 263 212 284T280 336T305 400Q305 421 291 431T244 441Q226
441 207 413T170 341T143 246T132 152Q132 107 147 84T190 61Q213 61 239 73T292 107T340 158L377 129Q349 85 312 54T233 5T149 -12ZM362 561Q340 561 327 575T315 614Q315 644 333 664T378 684Q401 684 413 669T426 631Q425 601 408 581T362 561ZM188 561Q166
561 154 575T142 614Q143 643 160 663T206 684Q228 684 241 670T252 629Q252 600 234 581T188 561Z" />
<glyph unicode="&#xec;" horiz-adv-x="295" d="M77 -12L48 4Q66 75 78 132T99 239T112 339T122 449L165 416L43 423L42 465L216 510L245 487Q231 435 217 363T190 210T167 46L127 82L258 73L254 32L77 -12ZM236 797L84 952L135 1004L278 833L236 797Z" />
<glyph unicode="&#xed;" horiz-adv-x="295" d="M77 -12L48 4Q66 75 78 132T99 239T112 339T122 449L165 416L43 423L42 465L216 510L245 487Q231 435 217 363T190 210T167 46L127 82L258 73L254 32L77 -12ZM132 797L96 835L269 1006L312 949L132 797Z" />
<glyph unicode="&#xee;" horiz-adv-x="295" d="M77 -12L48 4Q66 75 78 132T99 239T112 339T122 449L165 416L43 423L42 465L216 510L245 487Q231 435 217 363T190 210T167 46L127 82L258 73L254 32L77 -12ZM526 793L422 930L496 921L351 798L319 828L433 955H488L565
821L526 793Z" />
<glyph unicode="&#xef;" horiz-adv-x="295" d="M77 -12L48 4Q66 75 78 132T99 239T112 339T122 449L165 416L43 423L42 465L216 510L245 487Q231 435 217 363T190 210T167 46L127 82L258 73L254 32L77 -12ZM516 815Q493 815 482 829T470 867Q471 899 489 919T535
939Q558 939 569 925T580 887Q579 855 562 835T516 815ZM366 815Q343 815 332 829T321 867Q322 898 340 918T385 939Q408 939 420 925T431 887Q430 855 412 835T366 815Z" />
<glyph unicode="&#xf0;" horiz-adv-x="491" d="M187 -12Q129 -12 95 11T46 75T31 169Q31 231 51 290T107 399T190 477T292 507Q306 507 324 505T360 499T388 488L403 409Q376 433 346 440T302 447Q259 447 229 422T181 355T154 267T145 177Q145 149 149 121T165
75T203 56Q236 56 260 77T303 135T333 217T349 309T355 399Q355 494 338 556T294 662T240 744L297 769Q376 686 417 594T458 391Q458 340 447 284T415 176T361 81T285 13T187 -12ZM196 547L173 593L481 743L504 695L196 547Z" />
<glyph unicode="&#xf1;" horiz-adv-x="576" d="M75 -12L47 4Q62 63 73 111T91 200T104 280T114 360T122 449L165 417L42 424V466L215 510L242 487Q229 445 216 392T189 270L185 275Q200 313 224 353T279 429T348 487T429 510Q468 510 486 486T504 428Q504 379
492 317T466 185T450 47L408 82L538 73L534 32L354 -12L326 4Q338 52 350 103T372 203T388 294T395 368Q395 386 390 402T365 418Q346 418 319 394T264 325T210 220T169 88Q166 66 163 46T158 4L75 -12ZM226 560L189 583Q189 583 198 599T223 635T255 670T288 686Q308
686 333 676T385 656T430 646Q443 646 456 657T478 680T487 692L525 669Q525 669 516 654T491 619T459 584T426 569Q406 569 381 579T330 598T284 608Q271 608 258 597T235 573T226 560Z" />
<glyph unicode="&#xf2;" horiz-adv-x="484" d="M182 -12Q110 -12 71 35T31 166Q31 235 52 297T111 407T198 482T302 510Q375 510 413 464T452 333Q452 263 431 201T372 91T285 16T182 -12ZM204 56Q245 56 275 91T323 189T341 334Q341 387 326 415T281 443Q239
443 208 408T160 310T143 165Q143 112 159 84T204 56ZM336 543L155 695L198 752L370 581L336 543Z" />
<glyph unicode="&#xf3;" horiz-adv-x="484" d="M182 -12Q110 -12 71 35T31 166Q31 235 52 297T111 407T198 482T302 510Q375 510 413 464T452 333Q452 263 431 201T372 91T285 16T182 -12ZM204 56Q245 56 275 91T323 189T341 334Q341 387 326 415T281 443Q239
443 208 408T160 310T143 165Q143 112 159 84T204 56ZM233 543L197 581L370 752L413 695L233 543Z" />
<glyph unicode="&#xf4;" horiz-adv-x="484" d="M182 -12Q110 -12 71 35T31 166Q31 235 52 297T111 407T198 482T302 510Q375 510 413 464T452 333Q452 263 431 201T372 91T285 16T182 -12ZM204 56Q245 56 275 91T323 189T341 334Q341 387 326 415T281 443Q239
443 208 408T160 310T143 165Q143 112 159 84T204 56ZM158 544L131 578L293 707H336L361 666L158 544ZM422 540L281 669L315 707H358L460 572L422 540Z" />
<glyph unicode="&#xf5;" horiz-adv-x="484" d="M182 -12Q110 -12 71 35T31 166Q31 235 52 297T111 407T198 482T302 510Q375 510 413 464T452 333Q452 263 431 201T372 91T285 16T182 -12ZM204 56Q245 56 275 91T323 189T341 334Q341 387 326 415T281 443Q239
443 208 408T160 310T143 165Q143 112 159 84T204 56ZM181 560L144 583Q144 583 153 599T178 635T210 670T243 686Q263 686 288 676T340 656T385 646Q398 646 411 657T433 680T442 692L480 669Q480 669 471 654T446 619T414 584T381 569Q361 569 336 579T285 598T239
608Q226 608 213 597T190 573T181 560Z" />
<glyph unicode="&#xf6;" horiz-adv-x="484" d="M182 -12Q110 -12 71 35T31 166Q31 235 52 297T111 407T198 482T302 510Q375 510 413 464T452 333Q452 263 431 201T372 91T285 16T182 -12ZM204 56Q245 56 275 91T323 189T341 334Q341 387 326 415T281 443Q239
443 208 408T160 310T143 165Q143 112 159 84T204 56ZM377 561Q355 561 342 575T330 614Q330 644 348 664T393 684Q416 684 428 669T441 631Q440 601 423 581T377 561ZM203 561Q181 561 169 575T157 614Q158 643 175 663T221 684Q243 684 256 670T267 629Q267 600
249 581T203 561Z" />
<glyph unicode="&#xf7;" horiz-adv-x="633" d="M89 209L99 289L544 293L534 212L89 209ZM286 2Q259 2 245 18T231 58Q231 95 251 118T304 141Q330 141 345 127T360 85Q360 48 340 25T286 2ZM329 358Q302 358 288 374T274 415Q274 451 294 474T347 498Q373 498
388 483T403 442Q403 404 383 381T329 358Z" />
<glyph unicode="&#xf8;" horiz-adv-x="491" d="M489 578L41 -101L0 -79L447 600L489 578ZM185 -12Q113 -12 74 35T35 166Q35 235 56 297T115 407T202 482T305 510Q378 510 417 464T456 333Q456 263 435 201T376 91T289 16T185 -12ZM208 56Q248 56 279 91T327 189T345
334Q345 387 330 415T284 443Q243 443 212 408T164 310T147 165Q147 112 162 84T208 56Z" />
<glyph unicode="&#xf9;" horiz-adv-x="555" d="M133 -12Q98 -12 80 14T62 74Q62 109 71 152T92 243T113 345T123 453L165 417L43 424V466L215 510L243 487Q212 372 192 277T172 130Q172 111 177 96T199 81Q235 81 289 167Q310 199 328 240T361 331T388 435L396
494L480 510L509 491Q491 422 478 367T455 262T439 162T428 49L387 81L515 73L512 32L336 -12L307 4Q319 40 329 76T348 149T361 226H370Q351 179 326 137T271 61T206 8T133 -12ZM377 543L196 695L239 752L411 581L377 543Z" />
<glyph unicode="&#xfa;" horiz-adv-x="555" d="M133 -12Q98 -12 80 14T62 74Q62 109 71 152T92 243T113 345T123 453L165 417L43 424V466L215 510L243 487Q212 372 192 277T172 130Q172 111 177 96T199 81Q235 81 289 167Q310 199 328 240T361 331T388 435L396
494L480 510L509 491Q491 422 478 367T455 262T439 162T428 49L387 81L515 73L512 32L336 -12L307 4Q319 40 329 76T348 149T361 226H370Q351 179 326 137T271 61T206 8T133 -12ZM274 543L238 581L411 752L454 695L274 543Z" />
<glyph unicode="&#xfb;" horiz-adv-x="555" d="M133 -12Q98 -12 80 14T62 74Q62 109 71 152T92 243T113 345T123 453L165 417L43 424V466L215 510L243 487Q212 372 192 277T172 130Q172 111 177 96T199 81Q235 81 289 167Q310 199 328 240T361 331T388 435L396
494L480 510L509 491Q491 422 478 367T455 262T439 162T428 49L387 81L515 73L512 32L336 -12L307 4Q319 40 329 76T348 149T361 226H370Q351 179 326 137T271 61T206 8T133 -12ZM199 544L172 578L334 707H377L402 666L199 544ZM463 540L322 669L356 707H399L501
572L463 540Z" />
<glyph unicode="&#xfc;" horiz-adv-x="555" d="M133 -12Q98 -12 80 14T62 74Q62 109 71 152T92 243T113 345T123 453L165 417L43 424V466L215 510L243 487Q212 372 192 277T172 130Q172 111 177 96T199 81Q235 81 289 167Q310 199 328 240T361 331T388 435L396
494L480 510L509 491Q491 422 478 367T455 262T439 162T428 49L387 81L515 73L512 32L336 -12L307 4Q319 40 329 76T348 149T361 226H370Q351 179 326 137T271 61T206 8T133 -12ZM419 561Q397 561 384 575T372 614Q372 644 390 664T435 684Q458 684 470 669T483
631Q482 601 465 581T419 561ZM245 561Q223 561 211 575T199 614Q200 643 217 663T263 684Q285 684 298 670T309 629Q309 600 291 581T245 561Z" />
<glyph unicode="&#xfd;" horiz-adv-x="535" d="M3 -212L38 -123Q89 -142 142 -149T240 -148T307 -118Q315 -111 320 -93T328 -51T332 -6Q340 31 347 70T360 151T372 242L382 226Q361 179 335 137T277 61T211 8T138 -12Q113 -12 97 0T72 33T63 75Q63 110 71 153T92
244T113 345T123 453L165 417L43 424V466L216 510L244 487Q224 416 208 347T181 221T171 131Q171 113 177 97T202 81Q222 81 246 103T296 166Q315 195 330 235T358 326T384 435L393 494L477 510L505 491Q480 389 462 269T427 12Q418 -61 383 -115T291 -199T161
-233T3 -212ZM266 543L230 581L403 752L446 695L266 543Z" />
<glyph unicode="&#xfe;" horiz-adv-x="497" d="M22 -277L-6 -261Q12 -191 28 -108T58 64T84 242T106 417T123 575T136 703L175 680L53 698L50 741L225 770L251 747Q234 661 219 573T190 397T164 222T141 52T121 -110T104 -261L22 -277ZM244 -11Q229 -11 209 -9T167
-3T130 3T107 5L134 96Q134 96 146 90T178 77T219 63T259 57Q273 57 287 75T316 122T341 189T359 266T366 342Q366 381 356 405T326 430Q309 430 288 409T243 352T200 271T165 176T145 80L86 61Q100 144 128 224T195 368T280 471T373 510Q405 510 425 492T457 439T468
358Q468 311 455 260T418 160T366 73T306 12T244 -11Z" />
<glyph unicode="&#xff;" horiz-adv-x="535" d="M3 -212L38 -123Q89 -142 142 -149T240 -148T307 -118Q315 -111 320 -93T328 -51T332 -6Q340 31 347 70T360 151T372 242L382 226Q361 179 335 137T277 61T211 8T138 -12Q113 -12 97 0T72 33T63 75Q63 110 71 153T92
244T113 345T123 453L165 417L43 424V466L216 510L244 487Q224 416 208 347T181 221T171 131Q171 113 177 97T202 81Q222 81 246 103T296 166Q315 195 330 235T358 326T384 435L393 494L477 510L505 491Q480 389 462 269T427 12Q418 -61 383 -115T291 -199T161
-233T3 -212ZM411 561Q389 561 376 575T364 614Q364 644 382 664T427 684Q450 684 462 669T475 631Q474 601 457 581T411 561ZM237 561Q215 561 203 575T191 614Q192 643 209 663T255 684Q277 684 290 670T301 629Q301 600 283 581T237 561Z" />
<glyph unicode="&#x2013;" horiz-adv-x="636" d="M66 217L74 292H575L560 217H66Z" />
<glyph unicode="&#x2014;" horiz-adv-x="1139" d="M66 217L74 292H1077L1062 217H66Z" />
<glyph unicode="&#x2018;" horiz-adv-x="310" d="M265 801L281 766Q240 735 223 697T209 614L174 640Q204 650 225 644T258 620T269 575Q267 541 245 517T191 493Q155 493 139 520T125 587Q126 616 135 648T163 711T206 766T265 801Z" />
<glyph unicode="&#x2019;" horiz-adv-x="310" d="M139 463L123 498Q164 529 181 567T196 650L230 624Q201 615 179 621T146 645T136 689Q137 723 159 747T213 771Q250 771 265 744T279 677Q278 648 269 616T242 553T199 498T139 463Z" />
<glyph unicode="&#x201a;" horiz-adv-x="310" d="M63 -159L47 -124Q88 -93 105 -55T120 28L154 2Q125 -7 103 -1T70 23T60 67Q61 101 83 125T137 149Q174 149 189 122T203 55Q202 26 193 -6T166 -69T123 -124T63 -159Z" />
<glyph unicode="&#x201c;" horiz-adv-x="504" d="M265 801L281 766Q240 735 223 697T209 614L174 640Q204 650 225 644T258 620T269 575Q267 541 245 517T191 493Q155 493 139 520T125 587Q126 616 135 648T163 711T206 766T265 801ZM459 801L475 766Q434 735
417 697T403 614L368 640Q398 650 419 644T452 620T463 575Q461 541 439 517T385 493Q349 493 333 520T319 587Q320 616 329 648T357 711T400 766T459 801Z" />
<glyph unicode="&#x201d;" horiz-adv-x="505" d="M394 714L378 749Q419 780 436 818T451 901L485 875Q456 866 434 872T401 896T391 940Q392 974 414 998T468 1022Q505 1022 520 995T534 928Q533 899 524 867T497 804T454 749T394 714ZM333 458L317 493Q358 524
375 562T390 645L424 619Q395 610 373 616T340 640T330 684Q331 718 353 742T407 766Q444 766 459 739T473 672Q472 643 463 611T436 548T393 493T333 458Z" />
<glyph unicode="&#x201e;" horiz-adv-x="505" d="M62 -160L46 -125Q87 -94 104 -56T119 27L153 1Q124 -8 102 -2T69 22T59 66Q60 100 82 124T136 148Q173 148 188 121T202 54Q201 25 192 -7T165 -70T122 -125T62 -160ZM257 -160L241 -125Q282 -94 299 -56T314
27L348 1Q319 -8 297 -2T264 22T254 66Q255 100 277 124T331 148Q368 148 383 121T397 54Q396 25 387 -7T360 -70T317 -125T257 -160Z" />
<glyph unicode="&#x2022;" horiz-adv-x="337" d="M154 162Q121 162 105 181T88 233Q88 282 115 314T184 346Q216 346 233 327T251 274Q251 224 224 193T154 162Z" />
<glyph unicode="&#x2039;" horiz-adv-x="331" d="M197 35L51 252L249 470L286 443L134 212L142 293L238 61L197 35Z" />
<glyph unicode="&#x203a;" horiz-adv-x="331" d="M82 34L45 61L197 292L189 211L93 443L134 469L280 252L82 34Z" />
</font>
</defs>
</svg>
