<?xml version="1.0" standalone="no"?>
<!DOCTYPE svg PUBLIC "-//W3C//DTD SVG 1.1//EN" "http://www.w3.org/Graphics/SVG/1.1/DTD/svg11.dtd">
<svg xmlns="http://www.w3.org/2000/svg">
<defs >
<font id="DMSans" horiz-adv-x="586" ><font-face
    font-family="DM Sans 9pt Black"
    units-per-em="1000"
    panose-1="0 0 0 0 0 0 0 0 0 0"
    ascent="992"
    descent="-310"
    alphabetic="0" />
<glyph unicode=" " horiz-adv-x="241" />
<glyph unicode="!" horiz-adv-x="329" d="M88 235L154 700H314L215 235H88ZM132 -7Q92 -7 67 17T42 78Q42 113 67 137T132 162Q171 162 196 138T221 78Q221 42 196 18T132 -7Z" />
<glyph unicode="&quot;" horiz-adv-x="415" d="M271 533L335 755H463L372 533H271ZM90 533L154 755H281L191 533H90Z" />
<glyph unicode="#" horiz-adv-x="872" d="M406 0L688 732H829L547 0H406ZM91 0L374 732H514L232 0H91ZM12 164L36 299H786L761 164H12ZM118 437L141 572H891L867 437H118Z" />
<glyph unicode="$" horiz-adv-x="613" d="M206 -87L360 792H425L270 -87H206ZM271 -12Q194 -12 138 14T54 90T38 212H197Q193 182 203 160T237 126T290 114Q321 114 344 124T380 154T395 200Q396 218 389 232T366 258T332 279T289 296T242 313Q171 338 134 381T100
488Q103 556 140 606T239 684T380 712Q451 712 501 689T577 619T594 506H433Q437 531 428 549T399 576T354 586Q328 586 308 577T275 551T262 511Q261 494 267 482T286 460T315 442T352 426T395 410Q430 398 460 381T513 342T548 288T558 217Q556 149 519 98T417
17T271 -12Z" />
<glyph unicode="%" horiz-adv-x="937" d="M155 0L668 700H813L301 0H155ZM674 -12Q629 -12 594 7T539 61T521 145Q524 205 552 252T627 326T731 353Q776 353 811 334T866 280T883 196Q880 137 852 90T778 15T674 -12ZM242 347Q197 347 162 366T107 420T89 504Q92
564 120 610T195 684T299 712Q344 712 379 693T433 639T450 555Q447 495 419 448T345 374T242 347ZM688 88Q709 88 726 101T754 137T766 188Q768 221 754 237T716 254Q696 254 679 241T651 205T638 153Q637 121 650 105T688 88ZM255 447Q276 447 293 460T322 495T334
547Q335 579 322 596T284 613Q263 613 246 600T217 564T205 512Q203 480 217 464T255 447Z" />
<glyph unicode="&amp;" horiz-adv-x="799" d="M554 0L240 375Q208 415 195 448T183 515Q185 573 216 617T302 686T427 712Q490 712 532 690T594 629T604 539H463Q468 568 452 585T406 602Q372 602 350 582T327 531Q326 509 336 487T368 436L730 0H554ZM254 -11Q181
-11 130 12T53 77T29 177Q31 237 61 285T144 370T264 427L323 445L372 354L320 339Q257 319 220 283T181 200Q180 174 191 154T226 123T284 111Q335 111 379 133T469 203Q491 227 514 258T562 327L587 364H739L698 302Q662 245 627 200T554 119Q486 52 413 21T254
-11Z" />
<glyph unicode="&apos;" horiz-adv-x="215" d="M100 533L137 755H263L201 533H100Z" />
<glyph unicode="(" horiz-adv-x="415" d="M166 -145Q128 -97 101 -35T60 98T52 247Q56 353 92 455T190 648T334 811H483L481 797Q396 719 335 631T239 449T200 260Q196 190 208 121T248 -12T317 -131L314 -145H166Z" />
<glyph unicode=")" horiz-adv-x="415" d="M278 811Q316 763 343 701T384 568T392 419Q388 314 352 212T254 18T109 -145H-39L-38 -131Q48 -53 109 35T205 217T244 406Q248 477 236 546T196 679T127 797L130 811H278Z" />
<glyph unicode="*" horiz-adv-x="524" d="M231 360L275 496L155 407L117 504L251 551L134 596L201 688L295 601L297 738H403L356 601L479 688L514 597L379 549L498 503L428 408L337 496L335 360H231Z" />
<glyph unicode="+" horiz-adv-x="588" d="M197 58L278 520H404L324 58H197ZM41 227L63 352H560L538 227H41Z" />
<glyph unicode="," horiz-adv-x="264" d="M-38 -117L65 147H207L59 -117H-38Z" />
<glyph unicode="-" horiz-adv-x="536" d="M330 227L352 352H781L759 227H330Z" />
<glyph unicode="." horiz-adv-x="271" d="M104 -7Q64 -7 39 17T14 78Q14 113 39 137T104 162Q143 162 168 138T193 78Q193 42 168 18T104 -7Z" />
<glyph unicode="/" horiz-adv-x="437" d="M-44 -119L365 784H510L101 -119H-44Z" />
<glyph unicode="0" horiz-adv-x="712" d="M312 -12Q226 -12 168 25T81 128T57 284Q61 376 90 453T171 589T289 679T434 712Q521 712 579 675T665 572T689 416Q686 325 657 247T576 111T458 21T312 -12ZM334 123Q374 123 409 144T472 204T516 292T535 401Q538 456
525 495T483 555T413 576Q373 576 338 555T274 497T230 409T211 299Q208 245 222 205T264 144T334 123Z" />
<glyph unicode="1" horiz-adv-x="379" d="M112 0L204 527L73 490L95 615L301 700H391L267 0H112Z" />
<glyph unicode="2" d="M10 0L30 111Q107 165 177 217T301 320T387 417T421 508Q422 529 415 546T391 574T345 585Q314 585 290 571T251 533T230 476H85Q102 555 142 607T240 686T365 712Q436 712 483 688T553 621T574 525Q572 477 551 432T496 344T419 263T330
189T238 122H527L505 0H10Z" />
<glyph unicode="3" horiz-adv-x="607" d="M256 -12Q180 -12 128 16T53 96T41 221H188Q184 186 193 162T223 126T277 113Q311 113 336 127T377 165T394 219Q395 245 383 264T346 293T287 303H235L256 425H308Q360 425 395 450T432 521Q433 551 414 568T359 586Q314
586 285 560T247 496H102Q117 564 156 612T253 686T381 712Q449 712 494 690T562 630T581 545Q580 502 561 466T511 405T439 366Q473 359 496 340T530 292T540 226Q537 159 500 105T399 20T256 -12Z" />
<glyph unicode="4" horiz-adv-x="663" d="M344 0L365 120H25L46 240L449 700H617L538 250H625L602 120H515L494 0H344ZM207 250H397L449 535V535L207 250Z" />
<glyph unicode="5" horiz-adv-x="627" d="M276 -12Q204 -12 153 12T76 84T55 198H202Q202 162 228 139T297 115Q334 115 364 134T411 184T430 256Q432 286 422 309T391 344T342 357Q303 357 272 339T226 294H81L210 700H610L587 569H297L247 431Q272 452 309 465T390
479Q442 479 478 462T536 416T569 351T577 275Q574 191 533 127T425 25T276 -12Z" />
<glyph unicode="6" horiz-adv-x="636" d="M292 -12Q224 -12 178 10T105 71T66 158T58 260Q62 356 89 438T162 581T271 677T407 712Q483 712 530 683T597 607T613 507H473Q472 547 451 568T389 590Q351 590 318 567T260 499T220 386Q220 384 220 382T219 377Q238
400 264 417T323 444T390 454Q445 454 488 428T555 356T576 250Q574 195 551 148T490 64T400 8T292 -12ZM304 116Q340 116 368 131T413 172T431 232Q433 260 422 281T389 315T337 328Q301 328 273 313T227 272T208 211Q207 183 218 162T252 128T304 116Z" />
<glyph unicode="7" horiz-adv-x="538" d="M56 0L409 572H86L108 700H588L570 595L213 0H56Z" />
<glyph unicode="8" horiz-adv-x="636" d="M274 -12Q206 -12 154 10T74 76T48 179Q50 223 68 262T119 331T196 378Q159 398 139 430T121 506Q124 565 160 611T259 685T401 712Q473 712 519 690T588 630T608 544Q607 502 588 470T541 414T483 378Q528 357 550 317T570
223Q567 152 526 99T418 17T274 -12ZM294 112Q330 112 359 127T405 167T423 224Q426 264 400 288T327 312Q292 312 263 298T216 258T197 201Q195 163 220 138T294 112ZM349 420Q378 420 402 432T442 466T457 516Q459 540 449 557T421 582T377 591Q347 591 323 580T283
547T267 497Q265 462 287 441T349 420Z" />
<glyph unicode="9" horiz-adv-x="636" d="M264 -12Q188 -12 141 17T74 93T58 193H197Q199 153 220 132T282 110Q311 110 334 121T377 153T410 200T434 258T452 323Q433 300 407 283T349 256T281 246Q226 246 183 272T116 344T95 450Q97 506 120 553T181 636T271
692T379 712Q447 712 493 690T566 629T604 542T613 440Q609 344 582 262T509 119T400 23T264 -12ZM334 372Q369 372 398 387T444 428T463 489Q464 517 453 538T419 572T366 584Q332 584 304 569T258 528T240 468Q238 440 249 419T282 385T334 372Z" />
<glyph unicode=":" horiz-adv-x="273" d="M104 248Q64 248 39 272T14 333Q14 368 39 392T104 417Q143 417 168 393T193 333Q193 297 168 273T104 248ZM166 347Q126 347 101 371T76 432Q76 467 101 491T166 516Q205 516 230 492T255 432Q255 396 230 372T166 347Z" />
<glyph unicode=";" horiz-adv-x="278" d="M163 347Q123 347 98 371T73 432Q73 467 98 491T163 516Q202 516 227 492T252 432Q252 396 227 372T163 347ZM-33 -117L70 147H212L64 -117H-33Z" />
<glyph unicode="&lt;" horiz-adv-x="588" d="M553 573L297 349L472 126H282L109 350V350L361 573H553Z" />
<glyph unicode="=" horiz-adv-x="588" d="M90 338L113 470H551L527 338H90ZM50 109L73 241H511L487 109H50Z" />
<glyph unicode="&gt;" horiz-adv-x="588" d="M69 127L325 351L151 573H340L513 350V350L261 127H69Z" />
<glyph unicode="?" horiz-adv-x="545" d="M136 234L159 396H212Q251 396 285 401T345 419T387 455T404 513Q405 537 397 553T371 579T327 589Q297 589 274 578T237 547T218 500H76Q86 560 122 608T217 684T351 712Q414 712 460 690T530 626T551 527Q548 454 513
403T418 326T283 298L268 234H136ZM177 -7Q137 -7 112 17T87 78Q87 113 112 137T177 162Q216 162 241 138T266 78Q266 42 241 18T177 -7Z" />
<glyph unicode="@" horiz-adv-x="1047" d="M438 -219Q326 -219 242 -175T112 -51T65 139Q65 251 103 346T212 512T379 622T590 661Q707 661 792 617T925 493T972 310Q972 249 957 193T911 92T835 21T731 -5Q660 -5 627 36T601 145L605 177L625 116Q602 59 551
26T437 -7Q364 -7 322 38T280 161Q280 216 296 266T343 355T416 417T511 440Q567 440 599 413T638 335L617 319L637 432H759L713 173Q707 137 714 115T753 92Q780 92 799 111T832 162T851 231T858 306Q858 385 824 441T727 529T575 560Q488 560 416 528T290 440T208
310T179 151Q179 66 212 6T306 -85T454 -116Q501 -116 546 -107T628 -81L652 -177Q604 -198 550 -208T438 -219ZM485 102Q516 102 542 120T585 170T602 240Q604 267 595 287T569 320T525 332Q499 332 478 320T441 288T418 242T410 186Q410 148 429 125T485 102Z"
/>
<glyph unicode="A" horiz-adv-x="722" d="M-24 0L354 700H527L657 0H499L411 534V534L133 0H-24ZM108 153L167 268H543L561 153H108Z" />
<glyph unicode="B" horiz-adv-x="649" d="M23 0L146 700H446Q512 700 556 681T622 625T642 540Q640 487 613 447T542 382T444 352L462 364Q506 362 537 342T585 288T600 214Q597 149 562 101T466 27T332 0H23ZM194 120H328Q366 120 392 133T434 169T450 225Q452
261 428 281T358 302H226L194 120ZM246 411H368Q420 411 451 437T484 510Q485 533 476 549T447 573T397 582L275 581L246 411Z" />
<glyph unicode="C" horiz-adv-x="745" d="M340 -12Q245 -12 181 26T85 132T58 289Q61 380 93 457T180 591T308 680T466 712Q595 712 666 647T737 464H573Q571 518 537 547T441 576Q393 576 352 556T281 499T232 412T212 302Q209 246 226 206T278 145T364 123Q426
123 468 149T531 226H695Q669 151 618 98T495 16T340 -12Z" />
<glyph unicode="D" horiz-adv-x="716" d="M23 0L146 700H389Q499 700 567 663T666 557T692 398Q689 310 658 237T571 111T438 29T266 0H23ZM196 129H280Q363 129 419 160T505 250T538 388Q541 450 524 490T465 551T358 572H274L196 129Z" />
<glyph unicode="E" horiz-adv-x="572" d="M23 0L146 700H599L577 581H275L246 413H518L498 299H226L194 119H496L475 0H23Z" />
<glyph unicode="F" horiz-adv-x="550" d="M23 0L146 700H598L577 581H275L245 409H479L458 293H224L173 0H23Z" />
<glyph unicode="G" horiz-adv-x="787" d="M332 -12Q242 -12 180 28T86 138T59 298Q63 389 95 465T185 597T317 682T482 712Q608 712 681 652T759 486H593Q584 528 551 551T459 574Q388 574 334 541T248 447T213 307Q210 248 228 207T282 143T373 121Q430 121 472
141T542 198T585 279H422L441 391H755L686 0H549L550 81V81Q524 51 492 30T421 -1T332 -12Z" />
<glyph unicode="H" horiz-adv-x="724" d="M462 0L586 700H736L612 0H462ZM23 0L146 700H296L173 0H23ZM206 298L227 418H559L538 298H206Z" />
<glyph unicode="I" horiz-adv-x="284" d="M23 0L146 700H296L173 0H23Z" />
<glyph unicode="J" horiz-adv-x="550" d="M215 -12Q146 -12 99 14T31 93T23 219H173Q167 188 172 167T193 134T235 122Q260 122 278 132T309 162T326 208L412 700H562L476 208Q457 102 386 45T215 -12Z" />
<glyph unicode="K" horiz-adv-x="674" d="M23 0L146 700H296L250 435L538 700H723L417 423L608 0H428L292 310L216 240L173 0H23Z" />
<glyph unicode="L" horiz-adv-x="569" d="M23 0L146 700H296L194 116H495L475 0H23Z" />
<glyph unicode="M" horiz-adv-x="900" d="M23 0L147 700H326L457 279V279L732 700H911L788 0H638L717 447V447L484 98H364L252 447V447L173 0H23Z" />
<glyph unicode="N" horiz-adv-x="741" d="M23 0L146 700H297L521 236V236L603 700H753L630 0H480L255 464V464L173 0H23Z" />
<glyph unicode="O" horiz-adv-x="797" d="M357 -12Q265 -12 197 29T92 142T60 307Q63 392 96 466T185 595T316 681T475 712Q567 712 635 671T739 558T771 394Q768 308 735 234T645 105T515 19T357 -12ZM376 123Q425 123 467 142T543 197T595 280T617 384Q620 442
603 485T549 552T455 576Q406 576 364 557T288 503T236 420T214 317Q211 258 229 215T284 147T376 123Z" />
<glyph unicode="P" horiz-adv-x="627" d="M23 0L146 700H418Q496 700 545 673T617 601T638 500Q635 428 597 373T494 288T341 257H219L173 0H23ZM240 377H351Q413 377 447 408T483 491Q486 532 463 555T387 578H275L240 377Z" />
<glyph unicode="Q" horiz-adv-x="797" d="M480 -114L321 297H483L641 -114H480ZM357 -12Q265 -12 197 29T92 142T60 307Q63 392 96 466T185 595T316 681T475 712Q567 712 635 671T739 558T771 394Q768 308 735 234T645 105T515 19T357 -12ZM376 123Q425 123 467
142T543 197T595 280T617 384Q620 442 603 485T549 552T455 576Q406 576 364 557T288 503T236 420T214 317Q211 258 229 215T284 147T376 123Z" />
<glyph unicode="R" horiz-adv-x="642" d="M23 0L146 700H415Q493 700 542 673T615 602T636 505Q633 435 596 382T494 299T342 269H221L173 0H23ZM389 0L302 306H459L554 0H389ZM240 377H353Q411 377 445 408T481 491Q483 529 461 552T388 575H275L240 377Z" />
<glyph unicode="S" horiz-adv-x="613" d="M271 -12Q194 -12 138 14T54 90T38 212H197Q193 182 203 160T237 126T290 114Q321 114 344 124T380 154T395 200Q396 218 389 232T366 258T332 279T289 296T242 313Q171 338 134 381T100 488Q103 556 140 606T239 684T380
712Q451 712 501 689T577 619T594 506H433Q437 531 428 549T399 576T354 586Q328 586 308 577T275 551T262 511Q261 494 267 482T286 460T315 442T352 426T395 410Q430 398 460 381T513 342T548 288T558 217Q556 149 519 98T417 17T271 -12Z" />
<glyph unicode="T" horiz-adv-x="609" d="M185 0L288 581H84L106 700H662L641 581H437L335 0H185Z" />
<glyph unicode="U" horiz-adv-x="694" d="M298 -12Q213 -12 156 21T75 119T66 273L141 700H291L215 273Q208 227 216 194T252 144T325 127Q369 127 402 143T457 192T487 273L562 700H712L637 273Q620 177 570 114T450 19T298 -12Z" />
<glyph unicode="V" horiz-adv-x="716" d="M221 0L92 700H252L341 153V153L623 700H783L407 0H221Z" />
<glyph unicode="W" horiz-adv-x="1032" d="M162 0L105 700H265L284 170V170L514 700H680L717 171V171L924 700H1086L776 0H596L557 489V489L342 0H162Z" />
<glyph unicode="X" horiz-adv-x="689" d="M-13 0L272 356L108 700H282L390 473V473L562 700H732L450 348L616 0H442L333 231V231L157 0H-13Z" />
<glyph unicode="Y" horiz-adv-x="652" d="M207 0L250 240L91 700H262L359 370L338 373L550 700H719L400 240L357 0H207Z" />
<glyph unicode="Z" horiz-adv-x="588" d="M5 0L26 115L422 576H108L131 700H617L596 585L198 124H516L494 0H5Z" />
<glyph unicode="[" horiz-adv-x="396" d="M-9 -180L166 810H440L419 689H285L153 -58H288L266 -180H-9Z" />
<glyph unicode="\" horiz-adv-x="756" d="M670 -119H525L116 784H261L670 -119Z" />
<glyph unicode="]" horiz-adv-x="396" d="M428 812L253 -179H-22L0 -58H134L266 689H131L153 812H428Z" />
<glyph unicode="^" horiz-adv-x="693" d="M25 197L353 700H498L649 197H497L396 532V532L176 197H25Z" />
<glyph unicode="_" horiz-adv-x="696" d="M2 -183L26 -40H614L590 -183H2Z" />
<glyph unicode="`" horiz-adv-x="241" d="M279 543L71 654L107 766V766L310 641L279 543Z" />
<glyph unicode="a" horiz-adv-x="604" d="M191 -12Q133 -12 97 6T45 55T30 126Q32 177 62 214T146 273T274 294H396Q402 328 398 350T376 383T325 394Q291 394 264 380T226 336H81Q97 390 134 430T226 493T347 516Q420 516 469 492T539 423T549 312L494 0H363L362
72V72Q348 53 331 38T291 11T244 -6T191 -12ZM248 102Q271 102 291 110T327 132T354 164T373 205V206H277Q252 206 233 199T204 178T193 146Q191 124 207 113T248 102Z" />
<glyph unicode="b" horiz-adv-x="660" d="M326 -12Q290 -12 262 -3T213 23T181 60V60L153 0H20L147 720H297L249 445Q278 477 319 496T414 516Q476 516 521 486T591 404T612 286Q609 225 587 171T525 75T436 11T326 -12ZM312 119Q352 119 384 138T435 190T457
266Q459 300 447 327T410 369T352 385Q312 385 280 366T229 313T208 235Q206 201 218 175T255 134T312 119Z" />
<glyph unicode="c" horiz-adv-x="619" d="M269 -12Q199 -12 148 17T70 97T48 215Q51 278 75 332T142 428T239 493T361 516Q460 516 519 463T579 314H420Q419 348 397 367T338 387Q301 387 271 366T222 310T202 228Q201 203 206 182T222 147T251 124T290 116Q315
116 336 125T373 150T399 189H558Q535 129 493 84T393 13T269 -12Z" />
<glyph unicode="d" horiz-adv-x="659" d="M240 -12Q179 -12 135 18T68 101T49 220Q51 283 74 337T135 431T223 493T331 516Q388 516 424 496T478 444L526 720H676L549 0H416L410 65V65Q393 44 369 27T313 -1T240 -12ZM304 119Q344 119 376 139T429 194T451 271Q453
305 441 331T405 371T348 385Q308 385 276 366T225 313T203 236Q202 203 213 176T248 134T304 119Z" />
<glyph unicode="e" horiz-adv-x="614" d="M268 -12Q198 -12 147 16T70 95T48 214Q51 276 74 330T139 427T237 492T360 516Q429 516 478 488T552 412T574 299Q574 276 570 255T560 215H152L168 302H425Q428 332 418 352T388 384T341 395Q309 395 280 380T231 335T202
259L197 229Q191 195 199 168T230 126T288 110Q321 110 344 123T384 158H538Q514 110 474 72T381 11T268 -12Z" />
<glyph unicode="f" horiz-adv-x="381" d="M43 0L138 540Q150 606 180 645T254 702T353 720H417L394 593H354Q323 593 308 581T288 540L193 0H43ZM42 379L64 504H385L363 379H42Z" />
<glyph unicode="g" horiz-adv-x="571" d="M186 -232Q118 -232 69 -216T-7 -168T-30 -89Q-28 -46 -3 -11T66 53T171 100L207 23Q155 9 132 -14T108 -63Q107 -82 119 -95T153 -114T204 -121Q248 -121 279 -105T312 -55Q313 -32 298 -18T235 -1Q189 3 152 11T85 29T36
53T4 80L9 103L139 222L236 190L79 56L139 133Q149 126 159 121T185 112T223 104T279 97Q340 91 378 75T433 29T449 -42Q447 -97 414 -140T322 -207T186 -232ZM251 146Q193 146 154 167T94 224T77 306Q79 364 111 411T197 487T316 516Q375 516 414 495T473 437T490
355Q488 297 456 250T371 174T251 146ZM271 258Q310 258 336 281T364 341Q366 371 347 386T297 402Q257 402 231 380T202 319Q200 290 219 274T271 258ZM381 402L377 504H585L570 418L381 402Z" />
<glyph unicode="h" horiz-adv-x="631" d="M21 0L147 720H297L247 432V432Q278 470 323 493T423 516Q487 516 525 489T577 411T577 286L527 0H377L425 272Q435 328 417 359T348 390Q317 390 290 375T244 333T218 267L171 0H21Z" />
<glyph unicode="i" horiz-adv-x="286" d="M24 0L112 504H262L174 0H24ZM212 558Q171 558 146 582T121 641Q121 677 146 701T212 725Q252 725 277 701T303 641Q303 606 278 582T212 558Z" />
<glyph unicode="j" horiz-adv-x="300" d="M-113 -220L-90 -93H-49Q-18 -93 -4 -81T16 -41L112 504H261L166 -40Q154 -106 124 -145T50 -202T-50 -220H-113ZM212 558Q171 558 146 582T121 641Q121 677 146 701T212 725Q252 725 277 701T303 641Q303 607 278 583T212 558Z" />
<glyph unicode="k" horiz-adv-x="608" d="M372 0L200 282L427 504H608L322 240L334 320L550 0H372ZM21 0L148 720H298L171 0H21Z" />
<glyph unicode="l" horiz-adv-x="281" d="M21 0L148 720H298L171 0H21Z" />
<glyph unicode="m" horiz-adv-x="949" d="M21 0L109 504H241L242 438V438Q270 473 310 494T402 516Q439 516 468 506T517 478T549 431V431Q584 470 630 493T729 516Q796 516 837 489T893 411T895 287L845 0H696L744 274Q753 329 735 359T672 390Q645 390 622 377T582
339T558 280L508 0H359L407 274Q417 329 399 359T335 390Q306 390 283 375T242 333T218 268L171 0H21Z" />
<glyph unicode="n" horiz-adv-x="630" d="M21 0L109 504H241V427V427Q271 467 316 491T420 516Q485 516 523 488T575 409T576 288L525 0H376L424 274Q433 329 416 359T347 390Q316 390 290 376T245 335T219 270L171 0H21Z" />
<glyph unicode="o" horiz-adv-x="620" d="M268 -12Q199 -12 149 18T72 102T49 224Q52 286 75 339T140 432T234 493T350 516Q419 516 469 486T547 403T570 280Q568 218 544 165T479 72T384 10T268 -12ZM288 118Q324 118 352 138T397 193T417 275Q419 311 409 335T379
373T332 386Q297 386 269 366T223 311T203 228Q201 193 211 169T242 131T288 118Z" />
<glyph unicode="p" horiz-adv-x="660" d="M-17 -220L110 504H242L248 438V438Q267 461 291 478T347 506T415 516Q478 516 523 486T592 403T612 285Q610 224 587 170T524 75T435 11T327 -12Q292 -12 264 -3T215 22T181 60L133 -220H-17ZM313 119Q352 119 384 138T435
190T457 266Q459 300 447 327T410 369T352 385Q312 385 281 366T230 313T208 235Q206 201 218 175T255 134T313 119Z" />
<glyph unicode="q" horiz-adv-x="660" d="M362 -220L411 66Q382 32 341 10T244 -12Q181 -12 136 18T68 102T49 221Q52 284 74 337T135 431T224 493T330 516Q370 516 398 506T446 480T478 444V444L506 504H638L512 -220H362ZM305 119Q344 119 376 139T429 194T451
272Q453 306 441 331T405 371T348 385Q308 385 276 366T225 313T204 236Q202 203 213 176T248 134T305 119Z" />
<glyph unicode="r" horiz-adv-x="421" d="M21 0L109 504H243L242 413V413Q266 445 297 467T366 503T446 516L418 357H367Q338 357 312 351T266 330T232 290T211 228L171 0H21Z" />
<glyph unicode="s" horiz-adv-x="546" d="M235 -12Q162 -12 113 11T41 75T23 165H171Q171 145 180 131T208 108T252 100Q277 100 294 107T320 126T330 152Q331 168 321 177T293 193T249 204Q214 212 181 223T123 251T84 291T72 348Q74 397 104 434T187 494T307
516Q402 516 453 473T503 359H361Q358 380 339 391T289 403Q258 403 239 391T218 360Q218 348 228 339T258 323T308 310Q350 301 383 290T439 263T473 224T482 168Q480 113 447 73T359 10T235 -12Z" />
<glyph unicode="t" horiz-adv-x="443" d="M256 0Q194 0 156 20T105 81T102 184L137 379H52L74 504H159L200 646H334L309 504H438L416 379H287L252 183Q247 151 260 139T302 127H373L350 0H256Z" />
<glyph unicode="u" horiz-adv-x="630" d="M211 -12Q146 -12 107 15T56 94T54 214L105 504H254L206 229Q197 173 213 144T282 114Q313 114 340 128T385 168T411 233L459 504H609L521 0H389V77V77Q360 37 315 13T211 -12Z" />
<glyph unicode="v" horiz-adv-x="579" d="M153 0L59 504H216L270 141V141L452 504H610L337 0H153Z" />
<glyph unicode="w" horiz-adv-x="837" d="M119 0L59 504H207L229 100L202 101L380 504H546L583 101L555 100L719 504H867L630 0H475L431 413H463L275 0H119Z" />
<glyph unicode="x" horiz-adv-x="594" d="M-25 0L204 253L64 504H225L313 341V341L457 504H619L390 252L530 0H369L282 164V164L137 0H-25Z" />
<glyph unicode="y" horiz-adv-x="619" d="M49 -220L205 34H175L64 504H226L298 175V175L483 504H644L208 -220H49Z" />
<glyph unicode="z" horiz-adv-x="503" d="M-12 0L10 120L308 380H64L86 504H503L481 384L179 124H434L412 0H-12Z" />
<glyph unicode="{" horiz-adv-x="484" d="M271 -184Q198 -184 156 -147T117 -40Q119 0 132 38T159 112T175 182Q176 203 168 218T141 242T88 254L109 374Q151 377 177 390T215 433T229 512Q230 525 230 537T230 560T231 585Q233 665 263 714T341 787T447 811H516L494
687H453Q432 687 416 681T389 659T376 616Q372 594 372 571T371 522T365 464Q360 425 344 394T299 343T232 315V313Q280 303 300 273T318 200Q316 161 304 125T280 57T266 -5Q265 -36 279 -48T322 -60H362L340 -184H271Z" />
<glyph unicode="|" horiz-adv-x="285" d="M5 -100L150 720H300L155 -100H5Z" />
<glyph unicode="}" horiz-adv-x="483" d="M234 811Q308 811 350 775T388 667Q386 627 373 589T346 515T331 445Q330 425 338 410T365 385T417 373L396 253Q354 251 329 237T291 194T277 115Q275 102 275 91T276 67T275 42Q272 -38 243 -87T165 -160T58 -184H-10L12
-60H52Q73 -60 89 -54T116 -32T130 12Q133 33 133 56T134 105T141 163Q146 203 162 234T206 285T274 312V314Q226 325 206 355T188 427Q189 467 201 502T226 570T239 632Q241 664 226 675T184 687H144L165 811H234Z" />
<glyph unicode="~" horiz-adv-x="588" d="M376 217Q343 217 320 227T278 251T242 274T201 285Q176 285 157 268T127 218H15Q38 288 71 332T145 396T232 417Q265 417 289 407T332 384T369 361T409 350Q435 350 454 367T483 417H596Q575 347 541 303T465 238T376 217Z" />
<glyph unicode="&#xa0;" horiz-adv-x="241" />
<glyph unicode="&#xa1;" horiz-adv-x="329" d="M237 274L172 -190H11L110 274H237ZM194 516Q233 516 258 492T284 432Q284 397 259 373T194 348Q154 348 129 372T104 432Q104 467 129 491T194 516Z" />
<glyph unicode="&#xa2;" horiz-adv-x="619" d="M182 -93L213 87H350L318 -93H182ZM273 426L305 606H441L409 426H273ZM269 -12Q199 -12 148 17T70 97T48 215Q51 278 75 332T142 428T239 493T361 516Q460 516 519 463T579 314H420Q419 348 397 367T338 387Q301
387 271 366T222 310T202 228Q201 203 206 182T222 147T251 124T290 116Q315 116 336 125T373 150T399 189H558Q535 129 493 84T393 13T269 -12Z" />
<glyph unicode="&#xa3;" horiz-adv-x="636" d="M31 0L45 82Q80 112 104 144T142 214T158 291Q159 313 157 333T151 374T145 416T144 462Q147 536 182 592T277 680T414 712Q469 712 510 697T578 652T616 582T620 490H483Q487 519 479 541T450 576T399 589Q363 589
338 573T300 531T284 471Q284 452 286 432T293 390T299 346T300 300Q299 246 274 200T202 118H554L533 0H31ZM47 293L65 394H477L460 293H47Z" />
<glyph unicode="&#xa4;" horiz-adv-x="569" d="M261 117Q208 117 169 137T110 194T91 277Q94 337 125 382T209 452T325 477Q379 477 418 458T478 403T497 320Q494 261 462 215T378 143T261 117ZM91 74L42 136L153 231L218 182L91 74ZM415 74L337 169L412 227L486
136L415 74ZM277 209Q303 209 324 222T358 258T374 313Q375 339 366 355T342 378T309 386Q283 386 262 373T228 336T213 281Q211 256 219 240T243 217T277 209ZM175 370L99 462L171 523L253 423L175 370ZM424 360L376 422L494 523L544 462L424 360Z" />
<glyph unicode="&#xa5;" horiz-adv-x="665" d="M34 145L52 246H602L584 145H34ZM293 316L64 317L82 419H309L293 316ZM419 316L439 419H632L614 317L419 316ZM214 0L257 240L98 700H269L366 370L345 373L557 700H726L407 240L364 0H214Z" />
<glyph unicode="&#xa6;" horiz-adv-x="285" d="M93 397L150 720H300L243 397H93ZM5 -100L63 223H213L155 -100H5Z" />
<glyph unicode="&#xa7;" horiz-adv-x="629" d="M233 -232Q161 -232 109 -208T31 -137T13 -26H174Q172 -48 179 -66T205 -94T248 -106Q276 -106 297 -97T331 -69T345 -29Q346 -9 336 4T308 26T264 44T210 62Q165 79 127 103T67 164T47 252Q49 298 71 339T130 412Q122
427 119 444T117 481Q120 549 155 601T252 682T390 712Q463 712 515 688T593 617T611 506H449Q452 528 444 546T419 575T375 586Q348 587 327 577T293 550T279 509Q278 489 288 476T317 453T361 436T414 417Q460 401 498 376T557 315T576 228Q574 182 553 142T494
68Q502 53 505 34T506 -5Q502 -71 466 -122T370 -203T233 -232ZM386 149Q398 160 405 175T413 206Q414 226 405 240T379 266T338 290T283 312Q272 316 259 321T238 331Q226 321 219 306T211 274Q210 259 215 248T230 226T257 206T293 188T339 168Q353 163 365 158T386
149Z" />
<glyph unicode="&#xa8;" horiz-adv-x="329" d="M137 569Q108 569 89 588T69 636Q69 665 88 685T137 705Q166 705 185 685T205 636Q205 608 186 589T137 569ZM327 569Q298 569 279 588T260 636Q260 665 279 685T327 705Q356 705 375 685T395 636Q395 608 376 589T327 569Z" />
<glyph unicode="&#xa9;" horiz-adv-x="789" d="M349 -6Q259 -6 193 32T90 136T54 288Q54 376 86 453T175 587T309 677T476 710Q567 710 633 672T734 568T770 417Q770 329 739 252T650 117T516 27T349 -6ZM373 126Q318 126 276 149T211 213T188 310Q188 367 208
416T264 501T348 558T453 579Q532 579 581 537T632 418H503Q499 445 481 461T432 477Q393 477 366 453T325 392T311 316Q311 273 332 251T387 228Q421 228 443 244T480 287H609Q591 238 555 202T472 146T373 126ZM358 44Q438 44 503 72T616 151T689 269T715 414Q715
487 686 542T602 629T467 660Q388 660 322 632T209 555T137 438T111 292Q111 221 140 165T224 76T358 44Z" />
<glyph unicode="&#xaa;" horiz-adv-x="515" d="M236 349Q194 349 162 367T113 420T98 500Q101 558 128 606T199 682T299 711Q345 711 372 694T411 648L430 706H534L473 354H368L369 411V411Q347 383 315 366T236 349ZM288 438Q314 438 337 451T375 488T391 545Q393
582 372 601T320 621Q295 621 272 608T234 572T217 514Q215 477 236 458T288 438Z" />
<glyph unicode="&#xab;" horiz-adv-x="532" d="M318 120L262 295L380 470H520L399 295L458 120H318ZM105 120L48 295L167 470H306L185 295L245 120H105Z" />
<glyph unicode="&#xac;" horiz-adv-x="588" d="M436 190L459 325H5L25 440H629L585 190H436Z" />
<glyph unicode="&#xae;" horiz-adv-x="512" d="M262 287Q200 287 157 314T94 389T86 499Q97 562 132 609T221 684T337 712Q400 712 443 685T505 610T512 499Q502 437 466 390T378 315T262 287ZM310 395L272 491H344L386 396L310 395ZM271 338Q319 338 357 358T422
415T457 499Q470 571 435 616T328 661Q280 661 241 641T176 584T142 499Q129 428 164 383T271 338ZM192 395L230 608H338Q372 608 389 590T402 540Q397 509 373 491T314 472H273L260 395H192ZM281 520H310Q318 520 324 523T331 536Q332 543 328 547T316 551H286L281
520Z" />
<glyph unicode="&#xaf;" horiz-adv-x="388" d="M59 583L77 688H464L446 583H59Z" />
<glyph unicode="&#xb0;" horiz-adv-x="374" d="M242 417Q203 417 169 435T115 486T95 563Q95 609 115 642T170 694T243 712Q282 712 315 694T369 643T390 563Q390 519 369 486T315 435T242 417ZM242 508Q260 508 277 522T294 565Q294 593 278 606T243 620Q224
620 207 607T190 565Q190 537 206 523T242 508Z" />
<glyph unicode="&#xb1;" horiz-adv-x="588" d="M14 89L37 215H538L516 89H14ZM232 261L297 627H423L358 261H232ZM66 382L88 507H589L567 382H66Z" />
<glyph unicode="&#xb2;" horiz-adv-x="370" d="M55 352L70 436L204 515Q235 533 254 553T277 595Q280 612 273 621T251 631Q235 631 224 620T207 589H93Q106 643 154 678T276 713Q325 713 353 697T393 656T399 603Q392 565 360 537T264 478L192 441H368L351 352H55Z" />
<glyph unicode="&#xb3;" horiz-adv-x="363" d="M198 348Q117 348 84 380T55 466H172Q171 453 175 445T187 433T207 429Q224 429 236 438T252 466Q256 486 245 496T213 506H176L185 558H217Q239 558 252 567T270 596Q272 613 264 622T238 631Q220 631 209 623T191
597H83Q94 643 139 678T264 713Q330 713 365 684T393 609Q388 578 367 559T312 532L311 529Q345 520 360 500T370 448Q363 403 316 376T198 348Z" />
<glyph unicode="&#xb4;" horiz-adv-x="237" d="M71 543L69 641L303 766V766L308 654L71 543Z" />
<glyph unicode="&#xb5;" horiz-adv-x="638" d="M-19 -220L109 496H259L213 235Q204 178 220 146T289 114Q321 114 348 129T394 172T420 239L465 496H615L528 0H397L396 78V78Q366 38 321 13T216 -12Q204 -12 192 -10T170 -2L131 -220H-19Z" />
<glyph unicode="&#xb6;" horiz-adv-x="675" d="M230 -100L296 277H276Q204 277 159 304T93 374T72 463Q72 538 107 590T206 671T351 700H687L546 -100H421L542 585H475L355 -100H230Z" />
<glyph unicode="&#xb7;" horiz-adv-x="273" d="M148 237Q107 237 82 261T57 321Q57 357 82 381T148 406Q188 406 213 382T239 321Q239 286 214 262T148 237Z" />
<glyph unicode="&#xb8;" horiz-adv-x="277" d="M-91 -265L-76 -181H45Q69 -181 83 -174T98 -148Q98 -132 88 -126T57 -120H-10L13 7H105L96 -43Q125 -43 151 -52T193 -83T207 -139Q205 -179 183 -207T127 -250T52 -265H-91Z" />
<glyph unicode="&#xb9;" horiz-adv-x="247" d="M110 352L153 598L80 583L93 653L223 704H286L224 352H110Z" />
<glyph unicode="&#xba;" horiz-adv-x="494" d="M264 349Q211 349 173 368T115 423T97 505Q100 566 131 612T213 685T327 712Q381 712 419 693T477 640T495 557Q492 497 461 450T378 376T264 349ZM279 437Q308 437 329 452T363 493T378 547Q379 573 371 590T347
616T312 625Q283 625 262 610T228 569T214 514Q213 488 221 471T244 446T279 437Z" />
<glyph unicode="&#xbb;" horiz-adv-x="532" d="M228 470L285 295L166 120H27L148 295L89 470H228ZM442 470L498 295L380 120H240L361 295L302 470H442Z" />
<glyph unicode="&#xbc;" horiz-adv-x="894" d="M110 352L153 598L80 583L93 653L223 704H286L224 352H110ZM109 0L622 700H768L255 0H109ZM682 0L692 59H529L542 133L731 348H853L816 134H850L837 59H802L792 0H682ZM650 134H714L730 227V227L650 134Z" />
<glyph unicode="&#xbd;" horiz-adv-x="945" d="M110 352L153 598L80 583L93 653L223 704H286L224 352H110ZM109 0L622 700H768L255 0H109ZM568 0L583 84L717 163Q748 181 767 201T790 243Q793 260 786 269T764 279Q748 279 737 268T720 237H606Q619 291 667 326T789
361Q838 361 866 345T906 304T912 251Q905 213 873 185T777 126L705 89H881L864 0H568Z" />
<glyph unicode="&#xbe;" horiz-adv-x="973" d="M198 348Q117 348 84 380T55 466H172Q171 453 175 445T187 433T207 429Q224 429 236 438T252 466Q256 486 245 496T213 506H176L185 558H217Q239 558 252 567T270 596Q272 613 264 622T238 631Q220 631 209 623T191
597H83Q94 643 139 678T264 713Q330 713 365 684T393 609Q388 578 367 559T312 532L311 529Q345 520 360 500T370 448Q363 403 316 376T198 348ZM187 0L700 700H846L333 0H187ZM761 0L771 59H608L621 133L810 348H932L895 134H929L916 59H881L871 0H761ZM729 134H793L809
227V227L729 134Z" />
<glyph unicode="&#xbf;" horiz-adv-x="544" d="M410 275L386 112H333Q295 112 261 107T200 90T159 54T142 -4Q141 -27 149 -44T176 -70T219 -80Q249 -80 271 -69T308 -38T328 9H469Q460 -51 424 -99T329 -175T194 -203Q132 -203 86 -181T16 -118T-5 -18Q-2 55
33 106T128 184T262 211L277 275H410ZM369 516Q408 516 433 492T459 431Q459 396 434 372T369 347Q329 347 304 371T279 431Q279 467 304 491T369 516Z" />
<glyph unicode="&#xc0;" horiz-adv-x="722" d="M-24 0L354 700H527L657 0H499L411 534V534L133 0H-24ZM108 153L167 268H543L561 153H108ZM555 753L347 864L383 976V976L586 851L555 753Z" />
<glyph unicode="&#xc1;" horiz-adv-x="722" d="M-24 0L354 700H527L657 0H499L411 534V534L133 0H-24ZM108 153L167 268H543L561 153H108ZM349 753L347 851L581 976V976L586 864L349 753Z" />
<glyph unicode="&#xc2;" horiz-adv-x="722" d="M-24 0L354 700H527L657 0H499L411 534V534L133 0H-24ZM108 153L167 268H543L561 153H108ZM298 760L317 865L482 948L618 865L599 760L464 845L298 760Z" />
<glyph unicode="&#xc3;" horiz-adv-x="722" d="M-24 0L354 700H527L657 0H499L411 534V534L133 0H-24ZM108 153L167 268H543L561 153H108ZM263 769Q287 841 326 873T415 906Q444 906 463 895T498 872T534 861Q551 861 564 872T585 906H664Q640 834 601 802T512
769Q483 769 464 780T429 802T393 814Q376 814 363 803T341 769H263Z" />
<glyph unicode="&#xc4;" horiz-adv-x="722" d="M-24 0L354 700H527L657 0H499L411 534V534L133 0H-24ZM108 153L167 268H543L561 153H108ZM369 769Q340 769 321 788T301 836Q301 865 320 885T369 905Q398 905 417 885T437 836Q437 808 418 789T369 769ZM559 769Q530
769 511 788T492 836Q492 865 511 885T559 905Q588 905 607 885T627 836Q627 808 608 789T559 769Z" />
<glyph unicode="&#xc5;" horiz-adv-x="722" d="M-24 0L354 700H527L657 0H499L411 534V534L133 0H-24ZM108 153L167 268H543L561 153H108ZM472 769Q424 769 390 800T355 886Q355 940 389 971T472 1003Q522 1003 556 972T591 886Q591 832 557 801T472 769ZM473
834Q493 834 508 848T523 886Q523 910 509 923T473 937Q452 937 438 924T423 886Q423 863 438 849T473 834Z" />
<glyph unicode="&#xc6;" horiz-adv-x="955" d="M-24 0L469 700H981L960 581H699L668 414H901L881 300H649L617 119H878L857 0H446L549 587V587L139 0H-24ZM143 128L227 243H560L539 128H143Z" />
<glyph unicode="&#xc7;" horiz-adv-x="745" d="M340 -12Q245 -12 181 26T85 132T58 289Q61 380 93 457T180 591T308 680T466 712Q595 712 666 647T737 464H573Q571 518 537 547T441 576Q393 576 352 556T281 499T232 412T212 302Q209 246 226 206T278 145T364
123Q426 123 468 149T531 226H695Q669 151 618 98T495 16T340 -12ZM191 -265L206 -181H327Q351 -181 365 -174T380 -148Q380 -132 370 -126T339 -120H272L295 7H387L378 -43Q407 -43 433 -52T475 -83T489 -139Q487 -179 465 -207T409 -250T334 -265H191Z" />
<glyph unicode="&#xc8;" horiz-adv-x="572" d="M23 0L146 700H599L577 581H275L246 413H518L498 299H226L194 119H496L475 0H23ZM485 753L277 864L313 976V976L516 851L485 753Z" />
<glyph unicode="&#xc9;" horiz-adv-x="572" d="M23 0L146 700H599L577 581H275L246 413H518L498 299H226L194 119H496L475 0H23ZM280 753L278 851L512 976V976L517 864L280 753Z" />
<glyph unicode="&#xca;" horiz-adv-x="572" d="M23 0L146 700H599L577 581H275L246 413H518L498 299H226L194 119H496L475 0H23ZM228 760L247 865L412 948L548 865L529 760L394 845L228 760Z" />
<glyph unicode="&#xcb;" horiz-adv-x="572" d="M23 0L146 700H599L577 581H275L246 413H518L498 299H226L194 119H496L475 0H23ZM299 769Q270 769 251 788T231 836Q231 865 250 885T299 905Q328 905 347 885T367 836Q367 808 348 789T299 769ZM489 769Q460 769
441 788T422 836Q422 865 441 885T489 905Q518 905 537 885T557 836Q557 808 538 789T489 769Z" />
<glyph unicode="&#xcc;" horiz-adv-x="284" d="M23 0L146 700H296L173 0H23ZM337 753L129 864L165 976V976L368 851L337 753Z" />
<glyph unicode="&#xcd;" horiz-adv-x="284" d="M23 0L146 700H296L173 0H23ZM131 753L129 851L363 976V976L368 864L131 753Z" />
<glyph unicode="&#xce;" horiz-adv-x="284" d="M23 0L146 700H296L173 0H23ZM80 760L99 865L264 948L400 865L381 760L246 845L80 760Z" />
<glyph unicode="&#xcf;" horiz-adv-x="284" d="M23 0L146 700H296L173 0H23ZM151 769Q122 769 103 788T83 836Q83 865 102 885T151 905Q180 905 199 885T219 836Q219 808 200 789T151 769ZM341 769Q312 769 293 788T274 836Q274 865 293 885T341 905Q370 905 389
885T409 836Q409 808 390 789T341 769Z" />
<glyph unicode="&#xd0;" horiz-adv-x="729" d="M12 287L35 414H417L395 287H12ZM36 0L159 700H402Q511 700 579 663T678 557T705 398Q701 310 670 237T584 111T451 29T279 0H36ZM209 129H293Q376 129 432 160T518 250T551 388Q554 450 537 490T478 551T371 572H287L209
129Z" />
<glyph unicode="&#xd1;" horiz-adv-x="741" d="M23 0L146 700H297L521 236V236L603 700H753L630 0H480L255 464V464L173 0H23ZM274 769Q298 841 337 873T426 906Q455 906 474 895T509 872T545 861Q562 861 575 872T596 906H675Q651 834 612 802T523 769Q494 769
475 780T440 802T404 814Q387 814 374 803T352 769H274Z" />
<glyph unicode="&#xd2;" horiz-adv-x="797" d="M357 -12Q265 -12 197 29T92 142T60 307Q63 392 96 466T185 595T316 681T475 712Q567 712 635 671T739 558T771 394Q768 308 735 234T645 105T515 19T357 -12ZM376 123Q425 123 467 142T543 197T595 280T617 384Q620
442 603 485T549 552T455 576Q406 576 364 557T288 503T236 420T214 317Q211 258 229 215T284 147T376 123ZM594 753L386 864L422 976V976L625 851L594 753Z" />
<glyph unicode="&#xd3;" horiz-adv-x="797" d="M357 -12Q265 -12 197 29T92 142T60 307Q63 392 96 466T185 595T316 681T475 712Q567 712 635 671T739 558T771 394Q768 308 735 234T645 105T515 19T357 -12ZM376 123Q425 123 467 142T543 197T595 280T617 384Q620
442 603 485T549 552T455 576Q406 576 364 557T288 503T236 420T214 317Q211 258 229 215T284 147T376 123ZM388 753L386 851L620 976V976L625 864L388 753Z" />
<glyph unicode="&#xd4;" horiz-adv-x="797" d="M357 -12Q265 -12 197 29T92 142T60 307Q63 392 96 466T185 595T316 681T475 712Q567 712 635 671T739 558T771 394Q768 308 735 234T645 105T515 19T357 -12ZM376 123Q425 123 467 142T543 197T595 280T617 384Q620
442 603 485T549 552T455 576Q406 576 364 557T288 503T236 420T214 317Q211 258 229 215T284 147T376 123ZM337 760L356 865L521 948L657 865L638 760L503 845L337 760Z" />
<glyph unicode="&#xd5;" horiz-adv-x="797" d="M357 -12Q265 -12 197 29T92 142T60 307Q63 392 96 466T185 595T316 681T475 712Q567 712 635 671T739 558T771 394Q768 308 735 234T645 105T515 19T357 -12ZM376 123Q425 123 467 142T543 197T595 280T617 384Q620
442 603 485T549 552T455 576Q406 576 364 557T288 503T236 420T214 317Q211 258 229 215T284 147T376 123ZM302 769Q326 841 365 873T454 906Q483 906 502 895T537 872T573 861Q590 861 603 872T624 906H703Q679 834 640 802T551 769Q522 769 503 780T468 802T432
814Q415 814 402 803T380 769H302Z" />
<glyph unicode="&#xd6;" horiz-adv-x="797" d="M357 -12Q265 -12 197 29T92 142T60 307Q63 392 96 466T185 595T316 681T475 712Q567 712 635 671T739 558T771 394Q768 308 735 234T645 105T515 19T357 -12ZM376 123Q425 123 467 142T543 197T595 280T617 384Q620
442 603 485T549 552T455 576Q406 576 364 557T288 503T236 420T214 317Q211 258 229 215T284 147T376 123ZM408 769Q379 769 360 788T340 836Q340 865 359 885T408 905Q437 905 456 885T476 836Q476 808 457 789T408 769ZM598 769Q569 769 550 788T531 836Q531
865 550 885T598 905Q627 905 646 885T666 836Q666 808 647 789T598 769Z" />
<glyph unicode="&#xd7;" horiz-adv-x="588" d="M143 81L71 169L212 289L115 409L218 496L316 377L458 498L530 410L388 289L487 170L383 83L285 202L143 81Z" />
<glyph unicode="&#xd8;" horiz-adv-x="778" d="M-21 0L696 700H831L115 0H-21ZM353 -12Q261 -12 193 29T88 142T56 307Q59 392 92 466T181 595T312 681T471 712Q563 712 631 671T735 558T767 394Q764 308 731 234T641 105T511 19T353 -12ZM372 123Q421 123 463
142T539 197T591 280T613 384Q616 442 599 485T545 552T452 576Q402 576 360 557T284 503T232 420T210 317Q207 258 225 215T280 147T372 123Z" />
<glyph unicode="&#xd9;" horiz-adv-x="694" d="M298 -12Q213 -12 156 21T75 119T66 273L141 700H291L215 273Q208 227 216 194T252 144T325 127Q369 127 402 143T457 192T487 273L562 700H712L637 273Q620 177 570 114T450 19T298 -12ZM547 753L339 864L375 976V976L578
851L547 753Z" />
<glyph unicode="&#xda;" horiz-adv-x="694" d="M298 -12Q213 -12 156 21T75 119T66 273L141 700H291L215 273Q208 227 216 194T252 144T325 127Q369 127 402 143T457 192T487 273L562 700H712L637 273Q620 177 570 114T450 19T298 -12ZM342 753L340 851L574 976V976L579
864L342 753Z" />
<glyph unicode="&#xdb;" horiz-adv-x="694" d="M298 -12Q213 -12 156 21T75 119T66 273L141 700H291L215 273Q208 227 216 194T252 144T325 127Q369 127 402 143T457 192T487 273L562 700H712L637 273Q620 177 570 114T450 19T298 -12ZM290 760L309 865L474 948L610
865L591 760L456 845L290 760Z" />
<glyph unicode="&#xdc;" horiz-adv-x="694" d="M298 -12Q213 -12 156 21T75 119T66 273L141 700H291L215 273Q208 227 216 194T252 144T325 127Q369 127 402 143T457 192T487 273L562 700H712L637 273Q620 177 570 114T450 19T298 -12ZM362 769Q333 769 314 788T294
836Q294 865 313 885T362 905Q391 905 410 885T430 836Q430 808 411 789T362 769ZM552 769Q523 769 504 788T485 836Q485 865 504 885T552 905Q581 905 600 885T620 836Q620 808 601 789T552 769Z" />
<glyph unicode="&#xdd;" horiz-adv-x="652" d="M207 0L250 240L91 700H262L359 370L338 373L550 700H719L400 240L357 0H207ZM321 753L319 851L553 976V976L558 864L321 753Z" />
<glyph unicode="&#xde;" horiz-adv-x="627" d="M23 0L146 700H296L274 570H397Q474 570 523 544T595 473T615 373Q612 302 575 247T472 161T319 130H196L173 0H23ZM217 250H330Q391 250 425 281T461 368Q463 406 441 427T365 448H252L217 250Z" />
<glyph unicode="&#xdf;" horiz-adv-x="727" d="M444 -10Q347 -10 296 40T250 178H389Q387 142 405 121T458 100Q493 100 513 116T535 164Q536 179 530 190T507 212T462 233Q391 259 359 287T329 357Q331 386 346 407T383 444T427 475T463 506T479 544Q481 574
458 590T391 607Q332 607 299 576T257 491L170 0H21L110 502Q122 570 161 622T264 703T414 732Q486 732 536 710T611 650T634 569Q632 536 617 512T580 471T536 439T499 413T484 387Q484 378 489 370T513 353T569 328Q633 303 659 270T683 179Q681 123 650 81T566
14T444 -10Z" />
<glyph unicode="&#xe0;" horiz-adv-x="604" d="M191 -12Q133 -12 97 6T45 55T30 126Q32 177 62 214T146 273T274 294H396Q402 328 398 350T376 383T325 394Q291 394 264 380T226 336H81Q97 390 134 430T226 493T347 516Q420 516 469 492T539 423T549 312L494 0H363L362
72V72Q348 53 331 38T291 11T244 -6T191 -12ZM248 102Q271 102 291 110T327 132T354 164T373 205V206H277Q252 206 233 199T204 178T193 146Q191 124 207 113T248 102ZM454 543L246 654L282 766V766L485 641L454 543Z" />
<glyph unicode="&#xe1;" horiz-adv-x="604" d="M191 -12Q133 -12 97 6T45 55T30 126Q32 177 62 214T146 273T274 294H396Q402 328 398 350T376 383T325 394Q291 394 264 380T226 336H81Q97 390 134 430T226 493T347 516Q420 516 469 492T539 423T549 312L494 0H363L362
72V72Q348 53 331 38T291 11T244 -6T191 -12ZM248 102Q271 102 291 110T327 132T354 164T373 205V206H277Q252 206 233 199T204 178T193 146Q191 124 207 113T248 102ZM248 543L246 641L480 766V766L485 654L248 543Z" />
<glyph unicode="&#xe2;" horiz-adv-x="604" d="M191 -12Q133 -12 97 6T45 55T30 126Q32 177 62 214T146 273T274 294H396Q402 328 398 350T376 383T325 394Q291 394 264 380T226 336H81Q97 390 134 430T226 493T347 516Q420 516 469 492T539 423T549 312L494 0H363L362
72V72Q348 53 331 38T291 11T244 -6T191 -12ZM248 102Q271 102 291 110T327 132T354 164T373 205V206H277Q252 206 233 199T204 178T193 146Q191 124 207 113T248 102ZM197 546L216 651L381 734L517 651L498 546L363 631L197 546Z" />
<glyph unicode="&#xe3;" horiz-adv-x="604" d="M191 -12Q133 -12 97 6T45 55T30 126Q32 177 62 214T146 273T274 294H396Q402 328 398 350T376 383T325 394Q291 394 264 380T226 336H81Q97 390 134 430T226 493T347 516Q420 516 469 492T539 423T549 312L494 0H363L362
72V72Q348 53 331 38T291 11T244 -6T191 -12ZM248 102Q271 102 291 110T327 132T354 164T373 205V206H277Q252 206 233 199T204 178T193 146Q191 124 207 113T248 102ZM161 560Q185 632 224 664T313 697Q342 697 361 686T396 663T432 652Q449 652 462 663T483 697H562Q538
625 499 593T410 560Q381 560 362 571T327 593T291 605Q274 605 261 594T239 560H161Z" />
<glyph unicode="&#xe4;" horiz-adv-x="604" d="M191 -12Q133 -12 97 6T45 55T30 126Q32 177 62 214T146 273T274 294H396Q402 328 398 350T376 383T325 394Q291 394 264 380T226 336H81Q97 390 134 430T226 493T347 516Q420 516 469 492T539 423T549 312L494 0H363L362
72V72Q348 53 331 38T291 11T244 -6T191 -12ZM248 102Q271 102 291 110T327 132T354 164T373 205V206H277Q252 206 233 199T204 178T193 146Q191 124 207 113T248 102ZM268 569Q239 569 220 588T200 636Q200 665 219 685T268 705Q297 705 316 685T336 636Q336 608
317 589T268 569ZM458 569Q429 569 410 588T391 636Q391 665 410 685T458 705Q487 705 506 685T526 636Q526 608 507 589T458 569Z" />
<glyph unicode="&#xe5;" horiz-adv-x="604" d="M191 -12Q133 -12 97 6T45 55T30 126Q32 177 62 214T146 273T274 294H396Q402 328 398 350T376 383T325 394Q291 394 264 380T226 336H81Q97 390 134 430T226 493T347 516Q420 516 469 492T539 423T549 312L494 0H363L362
72V72Q348 53 331 38T291 11T244 -6T191 -12ZM248 102Q271 102 291 110T327 132T354 164T373 205V206H277Q252 206 233 199T204 178T193 146Q191 124 207 113T248 102ZM368 554Q320 554 286 585T251 671Q251 725 285 756T368 788Q418 788 452 757T487 671Q487 617
453 586T368 554ZM369 619Q389 619 404 633T419 671Q419 695 405 708T369 722Q348 722 334 709T319 671Q319 648 334 634T369 619Z" />
<glyph unicode="&#xe6;" horiz-adv-x="959" d="M205 -12Q146 -12 107 4T48 51T30 123Q32 174 62 212T145 272T272 294H404Q410 327 406 349T385 383T333 394Q299 394 272 380T234 336H89Q104 390 141 430T234 493T355 516Q393 516 424 509T481 488T522 454Q560
484 607 500T706 516Q775 516 824 488T898 412T919 299Q919 284 916 267T910 235T905 215H541Q538 186 547 162T578 124T634 110Q671 110 696 127T737 167H888Q866 117 825 77T729 12T614 -12Q550 -12 502 13T427 80Q399 50 363 30T287 -1T205 -12ZM248 102Q278
102 303 115T347 150T378 201L379 206H275Q250 206 232 199T203 179T192 149Q191 134 198 124T218 108T248 102ZM560 302H771Q774 331 764 351T734 383T687 395Q660 395 635 385T591 355T560 302Z" />
<glyph unicode="&#xe7;" horiz-adv-x="619" d="M269 -12Q199 -12 148 17T70 97T48 215Q51 278 75 332T142 428T239 493T361 516Q460 516 519 463T579 314H420Q419 348 397 367T338 387Q301 387 271 366T222 310T202 228Q201 203 206 182T222 147T251 124T290 116Q315
116 336 125T373 150T399 189H558Q535 129 493 84T393 13T269 -12ZM115 -265L130 -181H251Q275 -181 289 -174T304 -148Q304 -132 294 -126T263 -120H196L219 7H311L302 -43Q331 -43 357 -52T399 -83T413 -139Q411 -179 389 -207T333 -250T258 -265H115Z" />
<glyph unicode="&#xe8;" horiz-adv-x="614" d="M268 -12Q198 -12 147 16T70 95T48 214Q51 276 74 330T139 427T237 492T360 516Q429 516 478 488T552 412T574 299Q574 276 570 255T560 215H152L168 302H425Q428 332 418 352T388 384T341 395Q309 395 280 380T231
335T202 259L197 229Q191 195 199 168T230 126T288 110Q321 110 344 123T384 158H538Q514 110 474 72T381 11T268 -12ZM470 543L262 654L298 766V766L501 641L470 543Z" />
<glyph unicode="&#xe9;" horiz-adv-x="614" d="M268 -12Q198 -12 147 16T70 95T48 214Q51 276 74 330T139 427T237 492T360 516Q429 516 478 488T552 412T574 299Q574 276 570 255T560 215H152L168 302H425Q428 332 418 352T388 384T341 395Q309 395 280 380T231
335T202 259L197 229Q191 195 199 168T230 126T288 110Q321 110 344 123T384 158H538Q514 110 474 72T381 11T268 -12ZM265 543L263 641L497 766V766L502 654L265 543Z" />
<glyph unicode="&#xea;" horiz-adv-x="614" d="M268 -12Q198 -12 147 16T70 95T48 214Q51 276 74 330T139 427T237 492T360 516Q429 516 478 488T552 412T574 299Q574 276 570 255T560 215H152L168 302H425Q428 332 418 352T388 384T341 395Q309 395 280 380T231
335T202 259L197 229Q191 195 199 168T230 126T288 110Q321 110 344 123T384 158H538Q514 110 474 72T381 11T268 -12ZM213 546L232 651L397 734L533 651L514 546L379 631L213 546Z" />
<glyph unicode="&#xeb;" horiz-adv-x="614" d="M268 -12Q198 -12 147 16T70 95T48 214Q51 276 74 330T139 427T237 492T360 516Q429 516 478 488T552 412T574 299Q574 276 570 255T560 215H152L168 302H425Q428 332 418 352T388 384T341 395Q309 395 280 380T231
335T202 259L197 229Q191 195 199 168T230 126T288 110Q321 110 344 123T384 158H538Q514 110 474 72T381 11T268 -12ZM285 569Q256 569 237 588T217 636Q217 665 236 685T285 705Q314 705 333 685T353 636Q353 608 334 589T285 569ZM475 569Q446 569 427 588T408
636Q408 665 427 685T475 705Q504 705 523 685T543 636Q543 608 524 589T475 569Z" />
<glyph unicode="&#xec;" horiz-adv-x="280" d="M21 0L109 504H259L171 0H21ZM298 543L90 654L126 766V766L329 641L298 543Z" />
<glyph unicode="&#xed;" horiz-adv-x="280" d="M21 0L109 504H259L171 0H21ZM93 543L91 641L325 766V766L330 654L93 543Z" />
<glyph unicode="&#xee;" horiz-adv-x="280" d="M21 0L109 504H259L171 0H21ZM297 546L316 651L481 734L617 651L598 546L463 631L297 546Z" />
<glyph unicode="&#xef;" horiz-adv-x="280" d="M21 0L109 504H259L171 0H21ZM368 569Q339 569 320 588T300 636Q300 665 319 685T368 705Q397 705 416 685T436 636Q436 608 417 589T368 569ZM558 569Q529 569 510 588T491 636Q491 665 510 685T558 705Q587 705
606 685T626 636Q626 608 607 589T558 569Z" />
<glyph unicode="&#xf0;" horiz-adv-x="644" d="M285 -12Q210 -12 156 20T74 107T49 226Q52 286 75 336T139 424T233 481T346 502Q383 502 412 494T463 469Q456 501 445 532T419 594T384 651T343 700H482Q518 663 542 620T581 531T601 438T604 347Q601 265 576
199T507 86T408 13T285 -12ZM303 116Q331 116 355 127T398 158T428 204T440 262Q442 298 430 323T395 361T341 375Q304 375 274 356T225 305T204 232Q202 197 214 171T249 130T303 116ZM304 530L320 617L631 710L616 622L304 530Z" />
<glyph unicode="&#xf1;" horiz-adv-x="630" d="M21 0L109 504H241V427V427Q271 467 316 491T420 516Q485 516 523 488T575 409T576 288L525 0H376L424 274Q433 329 416 359T347 390Q316 390 290 376T245 335T219 270L171 0H21ZM181 560Q205 632 244 664T333 697Q362
697 381 686T416 663T452 652Q469 652 482 663T503 697H582Q558 625 519 593T430 560Q401 560 382 571T347 593T311 605Q294 605 281 594T259 560H181Z" />
<glyph unicode="&#xf2;" horiz-adv-x="620" d="M268 -12Q199 -12 149 18T72 102T49 224Q52 286 75 339T140 432T234 493T350 516Q419 516 469 486T547 403T570 280Q568 218 544 165T479 72T384 10T268 -12ZM288 118Q324 118 352 138T397 193T417 275Q419 311 409
335T379 373T332 386Q297 386 269 366T223 311T203 228Q201 193 211 169T242 131T288 118ZM467 543L259 654L295 766V766L498 641L467 543Z" />
<glyph unicode="&#xf3;" horiz-adv-x="620" d="M268 -12Q199 -12 149 18T72 102T49 224Q52 286 75 339T140 432T234 493T350 516Q419 516 469 486T547 403T570 280Q568 218 544 165T479 72T384 10T268 -12ZM288 118Q324 118 352 138T397 193T417 275Q419 311 409
335T379 373T332 386Q297 386 269 366T223 311T203 228Q201 193 211 169T242 131T288 118ZM262 543L260 641L494 766V766L499 654L262 543Z" />
<glyph unicode="&#xf4;" horiz-adv-x="620" d="M268 -12Q199 -12 149 18T72 102T49 224Q52 286 75 339T140 432T234 493T350 516Q419 516 469 486T547 403T570 280Q568 218 544 165T479 72T384 10T268 -12ZM288 118Q324 118 352 138T397 193T417 275Q419 311 409
335T379 373T332 386Q297 386 269 366T223 311T203 228Q201 193 211 169T242 131T288 118ZM210 546L229 651L394 734L530 651L511 546L376 631L210 546Z" />
<glyph unicode="&#xf5;" horiz-adv-x="620" d="M268 -12Q199 -12 149 18T72 102T49 224Q52 286 75 339T140 432T234 493T350 516Q419 516 469 486T547 403T570 280Q568 218 544 165T479 72T384 10T268 -12ZM288 118Q324 118 352 138T397 193T417 275Q419 311 409
335T379 373T332 386Q297 386 269 366T223 311T203 228Q201 193 211 169T242 131T288 118ZM175 560Q199 632 238 664T327 697Q356 697 375 686T410 663T446 652Q463 652 476 663T497 697H576Q552 625 513 593T424 560Q395 560 376 571T341 593T305 605Q288 605
275 594T253 560H175Z" />
<glyph unicode="&#xf6;" horiz-adv-x="620" d="M268 -12Q199 -12 149 18T72 102T49 224Q52 286 75 339T140 432T234 493T350 516Q419 516 469 486T547 403T570 280Q568 218 544 165T479 72T384 10T268 -12ZM288 118Q324 118 352 138T397 193T417 275Q419 311 409
335T379 373T332 386Q297 386 269 366T223 311T203 228Q201 193 211 169T242 131T288 118ZM282 569Q253 569 234 588T214 636Q214 665 233 685T282 705Q311 705 330 685T350 636Q350 608 331 589T282 569ZM472 569Q443 569 424 588T405 636Q405 665 424 685T472
705Q501 705 520 685T540 636Q540 608 521 589T472 569Z" />
<glyph unicode="&#xf7;" horiz-adv-x="588" d="M67 227L89 352H534L512 227H67ZM266 12Q227 12 202 36T176 96Q176 132 201 156T266 181Q305 181 330 157T356 96Q356 61 331 37T266 12ZM334 399Q295 399 270 423T244 483Q244 519 269 543T334 568Q374 568 399
544T424 483Q424 448 399 424T334 399Z" />
<glyph unicode="&#xf8;" horiz-adv-x="593" d="M-20 0L501 504H613L92 0H-20ZM257 -12Q188 -12 138 18T61 102T38 224Q41 286 64 339T129 432T223 493T339 516Q408 516 458 486T536 403T559 280Q557 218 533 165T468 72T374 10T257 -12ZM277 118Q313 118 341 138T386
193T406 275Q408 311 398 335T368 373T321 386Q286 386 258 366T212 311T192 228Q190 193 200 169T231 131T277 118Z" />
<glyph unicode="&#xf9;" horiz-adv-x="630" d="M211 -12Q146 -12 107 15T56 94T54 214L105 504H254L206 229Q197 173 213 144T282 114Q313 114 340 128T385 168T411 233L459 504H609L521 0H389V77V77Q360 37 315 13T211 -12ZM473 543L265 654L301 766V766L504
641L473 543Z" />
<glyph unicode="&#xfa;" horiz-adv-x="630" d="M211 -12Q146 -12 107 15T56 94T54 214L105 504H254L206 229Q197 173 213 144T282 114Q313 114 340 128T385 168T411 233L459 504H609L521 0H389V77V77Q360 37 315 13T211 -12ZM268 543L266 641L500 766V766L505
654L268 543Z" />
<glyph unicode="&#xfb;" horiz-adv-x="630" d="M211 -12Q146 -12 107 15T56 94T54 214L105 504H254L206 229Q197 173 213 144T282 114Q313 114 340 128T385 168T411 233L459 504H609L521 0H389V77V77Q360 37 315 13T211 -12ZM216 546L235 651L400 734L536 651L517
546L382 631L216 546Z" />
<glyph unicode="&#xfc;" horiz-adv-x="630" d="M211 -12Q146 -12 107 15T56 94T54 214L105 504H254L206 229Q197 173 213 144T282 114Q313 114 340 128T385 168T411 233L459 504H609L521 0H389V77V77Q360 37 315 13T211 -12ZM287 569Q258 569 239 588T219 636Q219
665 238 685T287 705Q316 705 335 685T355 636Q355 608 336 589T287 569ZM477 569Q448 569 429 588T410 636Q410 665 429 685T477 705Q506 705 525 685T545 636Q545 608 526 589T477 569Z" />
<glyph unicode="&#xfd;" horiz-adv-x="619" d="M49 -220L205 34H175L64 504H226L298 175V175L483 504H644L208 -220H49ZM263 543L261 641L495 766V766L500 654L263 543Z" />
<glyph unicode="&#xfe;" horiz-adv-x="660" d="M-17 -220L147 720H295L247 439Q266 462 291 479T347 506T415 516Q478 516 523 486T592 403T612 285Q610 224 587 170T524 75T435 11T327 -12Q292 -12 264 -3T215 22T181 60L133 -220H-17ZM313 119Q352 119 384 138T435
190T457 266Q459 300 447 327T410 369T352 385Q312 385 281 366T230 313T208 235Q206 201 218 175T255 134T313 119Z" />
<glyph unicode="&#xff;" horiz-adv-x="619" d="M49 -220L205 34H175L64 504H226L298 175V175L483 504H644L208 -220H49ZM283 569Q254 569 235 588T215 636Q215 665 234 685T283 705Q312 705 331 685T351 636Q351 608 332 589T283 569ZM473 569Q444 569 425 588T406
636Q406 665 425 685T473 705Q502 705 521 685T541 636Q541 608 522 589T473 569Z" />
<glyph unicode="&#x2013;" horiz-adv-x="654" d="M75 232L97 357H644L622 232H75Z" />
<glyph unicode="&#x2014;" horiz-adv-x="882" d="M75 232L97 357H872L850 232H75Z" />
<glyph unicode="&#x2018;" horiz-adv-x="294" d="M75 436L229 700H330L231 436H75Z" />
<glyph unicode="&#x2019;" horiz-adv-x="294" d="M330 700L176 436H75L174 700H330Z" />
<glyph unicode="&#x201a;" horiz-adv-x="274" d="M-36 -108L63 153H219L65 -108H-36Z" />
<glyph unicode="&#x201c;" horiz-adv-x="509" d="M290 436L443 700H545L445 436H290ZM75 436L229 700H330L231 436H75Z" />
<glyph unicode="&#x201d;" horiz-adv-x="509" d="M330 699L176 435H75L174 699H330ZM544 699L390 435H289L389 699H544Z" />
<glyph unicode="&#x201e;" horiz-adv-x="490" d="M-36 -108L63 153H219L65 -108H-36ZM180 -108L279 153H434L281 -108H180Z" />
<glyph unicode="&#x2022;" horiz-adv-x="399" d="M214 190Q174 190 142 209T90 260T71 333Q71 374 90 406T141 458T214 477Q255 477 287 458T338 407T357 333Q357 293 338 261T287 209T214 190Z" />
<glyph unicode="&#x2039;" horiz-adv-x="318" d="M105 120L48 295L167 470H306L185 295L245 120H105Z" />
<glyph unicode="&#x203a;" horiz-adv-x="318" d="M229 470L285 295L167 120H27L148 295L89 470H229Z" />
</font>
</defs>
</svg>
