<?xml version="1.0" standalone="no"?>
<!DOCTYPE svg PUBLIC "-//W3C//DTD SVG 1.1//EN" "http://www.w3.org/Graphics/SVG/1.1/DTD/svg11.dtd">
<svg xmlns="http://www.w3.org/2000/svg">
<defs >
<font id="DMSans" horiz-adv-x="564" ><font-face
    font-family="DM Sans 9pt SemiBold"
    units-per-em="1000"
    panose-1="0 0 0 0 0 0 0 0 0 0"
    ascent="992"
    descent="-310"
    alphabetic="0" />
<glyph unicode=" " horiz-adv-x="244" />
<glyph unicode="!" horiz-adv-x="291" d="M95 220L81 700H210L197 220H95ZM146 -5Q113 -5 92 16T70 66Q70 97 91 118T146 139Q180 139 200 118T221 66Q221 37 201 16T146 -5Z" />
<glyph unicode="&quot;" horiz-adv-x="344" d="M212 541L200 755H305L294 541H212ZM51 541L39 755H145L133 541H51Z" />
<glyph unicode="#" horiz-adv-x="841" d="M443 0L594 720H707L556 0H443ZM140 0L290 720H403L253 0H140ZM36 179V286H748V179H36ZM86 436V543H799V436H86Z" />
<glyph unicode="$" horiz-adv-x="597" d="M264 -87V791H331V-87H264ZM306 -12Q230 -12 171 15T79 92T45 211H172Q172 176 188 149T234 105T306 89Q342 89 368 100T409 133T424 184Q424 217 409 238T366 275T304 301T230 326Q147 354 105 397T63 514Q63 575 92
619T173 687T295 712Q365 712 417 687T500 618T532 511H404Q403 537 390 559T353 596T293 611Q263 612 240 602T203 572T189 523Q189 495 201 477T238 446T294 422T364 398Q416 381 458 357T526 293T551 192Q551 138 523 92T441 17T306 -12Z" />
<glyph unicode="%" horiz-adv-x="868" d="M174 0L571 700H689L292 0H174ZM657 -12Q610 -12 572 9T510 70T487 164Q487 219 510 258T571 318T657 340Q706 340 743 319T803 258T826 164Q826 110 804 71T743 10T657 -12ZM656 72Q677 72 694 82T721 113T731 164Q731
195 721 215T695 245T657 256Q637 256 620 246T593 215T583 164Q583 134 593 114T619 83T656 72ZM212 360Q164 360 126 381T65 442T42 536Q42 590 64 629T126 690T212 711Q260 711 298 690T358 630T381 536Q381 482 359 442T298 381T212 360ZM211 444Q232 444 249
454T275 485T285 536Q285 566 276 587T249 618T212 629Q192 629 175 619T147 587T137 536Q137 506 147 486T174 455T211 444Z" />
<glyph unicode="&amp;" horiz-adv-x="767" d="M598 0L218 381Q172 427 153 465T133 545Q133 593 156 630T224 690T332 712Q395 712 438 689T504 628T526 542H410Q410 580 387 599T331 619Q293 619 271 599T249 546Q249 520 265 493T312 431L743 0H598ZM288 -12Q213
-12 158 14T72 89T41 203Q41 253 61 296T123 372T227 425L272 440L327 365L283 350Q220 329 189 293T158 209Q158 175 174 148T222 104T294 88Q349 88 393 112T478 191Q497 215 516 246T556 317L580 363H703L666 291Q640 240 614 198T560 122Q503 52 437 20T288
-12Z" />
<glyph unicode="&apos;" horiz-adv-x="186" d="M52 541L39 755H146L134 541H52Z" />
<glyph unicode="(" horiz-adv-x="395" d="M241 -145Q186 -90 142 -17T72 145T46 333Q46 433 72 521T142 683T241 811H362V800Q302 737 258 663T189 505T165 333Q165 244 189 161T257 4T362 -134V-145H241Z" />
<glyph unicode=")" horiz-adv-x="395" d="M154 -145H33V-134Q94 -71 138 3T206 161T231 333Q231 422 207 505T138 662T33 800V811H154Q210 757 254 683T323 521T349 333Q349 233 324 145T254 -16T154 -145Z" />
<glyph unicode="*" horiz-adv-x="503" d="M210 360L227 503L114 416L68 496L200 550L68 601L111 679L228 592L209 736H299L279 592L395 679L437 602L305 548L438 495L394 417L279 503L297 360H210Z" />
<glyph unicode="+" horiz-adv-x="571" d="M233 65V515H336V65H233ZM45 240V340H525V240H45Z" />
<glyph unicode="," horiz-adv-x="227" d="M17 -123L74 121H191L96 -123H17Z" />
<glyph unicode="-" horiz-adv-x="565" d="M331 245V345H745V245H331Z" />
<glyph unicode="." horiz-adv-x="236" d="M119 -5Q85 -5 64 16T43 66Q43 97 64 118T119 139Q152 139 173 118T194 66Q194 37 173 16T119 -5Z" />
<glyph unicode="/" horiz-adv-x="417" d="M24 -108L275 775H392L141 -108H24Z" />
<glyph unicode="0" horiz-adv-x="698" d="M350 -12Q255 -12 187 33T83 160T46 350Q46 458 82 539T187 666T350 712Q444 712 511 667T615 540T652 350Q652 242 616 161T512 34T350 -12ZM349 96Q402 96 443 126T506 214T529 350Q529 429 507 486T443 573T349 604Q296
604 255 574T192 486T169 350Q169 271 191 214T255 127T349 96Z" />
<glyph unicode="1" horiz-adv-x="348" d="M155 0V563L31 531V624L203 700H278V0H155Z" />
<glyph unicode="2" horiz-adv-x="577" d="M54 0V87Q121 140 182 193T292 298T369 400T397 496Q397 526 386 552T352 594T289 610Q251 610 225 593T185 548T172 483H56Q58 559 89 610T173 686T292 712Q363 712 413 686T490 613T517 502Q517 455 500 410T451 322T382
240T302 165T223 99H536V0H54Z" />
<glyph unicode="3" horiz-adv-x="599" d="M298 -12Q230 -12 174 12T85 87T49 215H167Q168 180 183 152T228 107T298 90Q337 90 364 105T406 146T420 204Q420 243 401 268T349 307T274 320H222V419H274Q329 419 364 444T399 519Q399 560 373 585T297 610Q246 610
217 580T184 506H66Q69 569 98 615T179 687T298 712Q369 712 418 687T492 620T518 528Q518 489 503 457T463 404T403 372Q442 364 472 341T520 283T538 200Q538 143 511 95T430 17T298 -12Z" />
<glyph unicode="4" horiz-adv-x="638" d="M390 0V133H43V229L373 700H509V238H604V133H509V0H390ZM172 238H397V568V568L172 238Z" />
<glyph unicode="5" horiz-adv-x="618" d="M317 -12Q242 -12 188 14T102 87T65 193H182Q191 149 227 120T317 90Q358 90 387 109T432 162T449 238Q449 281 433 313T387 362T320 380Q273 380 240 359T191 305H75L133 700H519V595H223L191 422Q214 447 252 463T339
479Q394 479 436 460T507 407T550 331T565 239Q565 185 548 140T497 60T419 7T317 -12Z" />
<glyph unicode="6" horiz-adv-x="633" d="M330 -12Q252 -12 199 17T113 94T66 203T51 326Q51 443 84 529T178 664T327 712Q399 712 448 685T526 612T560 514H448Q439 561 408 586T326 612Q281 612 246 584T191 500T168 358Q168 356 168 355T168 351Q184 380 211
402T273 438T350 451Q409 451 459 424T541 345T573 225Q573 162 543 108T458 21T330 -12ZM323 91Q362 91 392 108T439 154T457 220Q457 259 440 288T392 333T322 349Q284 349 254 333T205 287T187 221Q187 183 205 154T253 108T323 91Z" />
<glyph unicode="7" horiz-adv-x="536" d="M119 0L380 597H28V700H503V614L244 0H119Z" />
<glyph unicode="8" horiz-adv-x="625" d="M313 -12Q242 -12 185 13T95 85T61 195Q61 237 76 273T119 335T184 375Q135 397 107 436T78 525Q78 576 105 618T184 686T313 712Q389 712 441 686T520 618T547 525Q547 477 519 437T441 375Q479 362 506 335T549 273T565
195Q565 132 531 86T441 14T313 -12ZM313 89Q379 89 412 121T446 204Q446 260 411 290T313 321Q251 321 215 291T178 204Q178 154 212 122T313 89ZM313 412Q367 412 397 440T428 512Q428 561 398 587T313 614Q259 614 229 588T198 512Q198 468 228 440T313 412Z"
/>
<glyph unicode="9" horiz-adv-x="633" d="M305 -12Q234 -12 185 15T107 88T74 186H185Q194 139 225 114T307 88Q353 88 387 115T441 198T464 338Q464 340 464 343T464 349Q449 321 422 298T360 262T283 249Q225 249 174 276T91 355T60 475Q60 538 90 592T175 679T302
712Q381 712 434 683T520 606T566 497T581 374Q581 258 549 171T455 36T305 -12ZM311 351Q349 351 379 367T428 413T446 479Q446 517 428 546T380 592T310 609Q271 609 241 592T194 547T176 480Q176 441 193 412T241 367T311 351Z" />
<glyph unicode=":" horiz-adv-x="239" d="M119 -5Q85 -5 64 16T43 66Q43 97 64 118T119 139Q152 139 173 118T194 66Q194 37 173 16T119 -5ZM119 373Q85 373 64 394T43 444Q43 475 64 496T119 517Q152 517 173 496T194 444Q194 415 173 394T119 373Z" />
<glyph unicode=";" horiz-adv-x="263" d="M143 373Q109 373 88 394T67 444Q67 475 88 496T143 517Q176 517 197 496T218 444Q218 415 197 394T143 373ZM29 -123L86 121H203L108 -123H29Z" />
<glyph unicode="&lt;" horiz-adv-x="571" d="M475 50H323L96 277V277L323 504H475L247 277L475 50Z" />
<glyph unicode="=" horiz-adv-x="571" d="M75 347V452H495V347H75ZM75 128V233H495V128H75Z" />
<glyph unicode="&gt;" horiz-adv-x="571" d="M96 50L324 277L96 504H248L475 277V277L248 50H96Z" />
<glyph unicode="?" horiz-adv-x="534" d="M147 219L143 379H186Q225 379 259 383T320 401T361 439T376 503Q376 538 362 562T323 599T262 612Q227 612 201 599T161 562T147 505H33Q33 565 61 612T141 685T263 712Q330 712 382 687T463 616T492 503Q492 433 462
388T379 321T256 299L253 219H147ZM200 -5Q167 -5 146 16T124 66Q124 97 145 118T200 139Q234 139 255 118T276 66Q276 37 255 16T200 -5Z" />
<glyph unicode="@" horiz-adv-x="1034" d="M440 -210Q331 -210 249 -167T122 -46T76 140Q76 249 113 342T218 504T379 613T585 652Q698 652 782 608T912 487T959 307Q959 247 944 192T900 92T829 21T732 -6Q665 -6 635 33T613 136L615 169L635 122Q610 63 558
29T442 -6Q368 -6 326 39T284 163Q284 218 301 268T349 357T423 420T518 443Q577 443 610 413T651 327L630 312L652 433H750L703 161Q696 122 705 98T749 74Q778 74 799 95T835 150T857 224T865 303Q865 386 830 445T729 537T572 569Q483 569 410 537T282 448T199
314T169 149Q169 62 203 0T302 -94T456 -127Q501 -127 545 -118T626 -92L645 -170Q599 -191 547 -200T440 -210ZM479 82Q516 82 546 102T595 158T618 239Q621 272 611 298T581 339T527 355Q495 355 470 340T427 301T400 246T390 182Q390 137 412 110T479 82Z" />
<glyph unicode="A" horiz-adv-x="696" d="M25 0L281 700H415L671 0H544L347 560V560L150 0H25ZM139 165L171 260H516L548 165H139Z" />
<glyph unicode="B" horiz-adv-x="628" d="M71 0V700H345Q419 700 468 677T543 614T568 520Q568 467 545 431T485 376T403 353L418 364Q465 363 502 339T562 277T584 191Q584 136 558 93T480 25T355 0H71ZM191 98H337Q396 98 429 126T462 204Q462 254 428 283T335
313H191V98ZM191 404H328Q386 404 416 430T446 504Q446 550 416 576T327 603H191V404Z" />
<glyph unicode="C" horiz-adv-x="732" d="M382 -12Q278 -12 203 33T87 160T46 349Q46 457 86 538T202 666T382 712Q507 712 586 651T686 477H554Q540 536 497 570T381 604Q315 604 268 574T195 486T169 349Q169 270 194 214T267 127T381 96Q454 96 497 127T554
215H686Q666 109 587 49T382 -12Z" />
<glyph unicode="D" horiz-adv-x="701" d="M71 0V700H297Q419 700 498 657T616 536T655 349Q655 243 617 165T499 43T297 0H71ZM191 102H291Q382 102 434 131T509 216T532 349Q532 427 510 482T435 568T291 599H191V102Z" />
<glyph unicode="E" horiz-adv-x="578" d="M71 0V700H523V603H191V402H493V307H191V97H523V0H71Z" />
<glyph unicode="F" horiz-adv-x="550" d="M71 0V700H518V603H191V398H458V303H191V0H71Z" />
<glyph unicode="G" horiz-adv-x="772" d="M376 -12Q277 -12 203 33T87 158T46 347Q46 454 88 536T208 665T395 712Q517 712 597 654T702 491H567Q552 543 508 572T394 601Q323 601 273 571T196 483T169 346Q169 267 195 210T271 124T386 94Q484 94 534 149T593
292H412V383H714V0H604L594 96V96Q571 62 541 38T471 1T376 -12Z" />
<glyph unicode="H" horiz-adv-x="704" d="M513 0V700H633V0H513ZM71 0V700H191V0H71ZM173 308V406H536V308H173Z" />
<glyph unicode="I" horiz-adv-x="261" d="M71 0V700H191V0H71Z" />
<glyph unicode="J" horiz-adv-x="529" d="M249 -12Q182 -12 133 13T56 87T29 205H149Q149 172 159 147T190 109T246 95Q280 95 300 108T329 144T339 199V700H459V199Q459 97 403 43T249 -12Z" />
<glyph unicode="K" horiz-adv-x="633" d="M71 0V700H191V411L455 700H604L345 422L610 0H464L260 330L191 255V0H71Z" />
<glyph unicode="L" horiz-adv-x="549" d="M71 0V700H191V94H503V0H71Z" />
<glyph unicode="M" horiz-adv-x="873" d="M71 0V700H213L437 248V248L659 700H802V0H682V494V494L484 98H390L191 493V493V0H71Z" />
<glyph unicode="N" horiz-adv-x="718" d="M71 0V700H191L528 194V194V700H648V0H528L191 505V505V0H71Z" />
<glyph unicode="O" horiz-adv-x="781" d="M390 -12Q289 -12 212 33T90 160T46 350Q46 457 90 538T211 666T390 712Q493 712 571 666T692 539T735 350Q735 242 692 161T571 34T390 -12ZM391 96Q458 96 508 126T585 214T612 350Q612 429 585 486T508 573T391 604Q324
604 274 574T197 486T169 350Q169 271 196 214T274 127T391 96Z" />
<glyph unicode="P" horiz-adv-x="604" d="M71 0V700H323Q407 700 462 672T544 595T571 485Q571 427 545 379T464 301T323 271H191V0H71ZM191 369H316Q387 369 418 400T449 485Q449 540 418 571T316 602H191V369Z" />
<glyph unicode="Q" horiz-adv-x="781" d="M562 -105L313 285H451L704 -105H562ZM390 -12Q289 -12 212 33T90 160T46 350Q46 457 90 538T211 666T390 712Q493 712 571 666T692 539T735 350Q735 242 692 161T571 34T390 -12ZM391 96Q458 96 508 126T585 214T612
350Q612 429 585 486T508 573T391 604Q324 604 274 574T197 486T169 350Q169 271 196 214T274 127T391 96Z" />
<glyph unicode="R" horiz-adv-x="620" d="M71 0V700H322Q405 700 459 672T540 596T567 488Q567 432 541 384T460 307T319 278H191V0H71ZM436 0L289 309H419L573 0H436ZM191 367H314Q381 367 412 399T444 485Q444 537 413 568T314 600H191V367Z" />
<glyph unicode="S" horiz-adv-x="597" d="M306 -12Q230 -12 171 15T79 92T45 211H172Q172 176 188 149T234 105T306 89Q342 89 368 100T409 133T424 184Q424 217 409 238T366 275T304 301T230 326Q147 354 105 397T63 514Q63 575 92 619T173 687T295 712Q365 712
417 687T500 618T532 511H404Q403 537 390 559T353 596T293 611Q263 612 240 602T203 572T189 523Q189 495 201 477T238 446T294 422T364 398Q416 381 458 357T526 293T551 192Q551 138 523 92T441 17T306 -12Z" />
<glyph unicode="T" horiz-adv-x="587" d="M234 0V603H28V700H559V603H353V0H234Z" />
<glyph unicode="U" horiz-adv-x="676" d="M336 -12Q260 -12 199 18T101 110T64 266V700H184V265Q184 208 203 171T256 116T338 97Q386 97 420 115T473 171T492 265V700H612V266Q612 172 575 110T475 18T336 -12Z" />
<glyph unicode="V" horiz-adv-x="695" d="M274 0L17 700H146L347 123V123L551 700H678L420 0H274Z" />
<glyph unicode="W" horiz-adv-x="1003" d="M212 0L26 700H154L285 137V137L437 700H570L717 136V136L849 700H978L787 0H645L501 530V530L353 0H212Z" />
<glyph unicode="X" horiz-adv-x="650" d="M35 0L253 354L33 700H171L330 449V449L477 700H613L395 349L617 0H479L318 254V254L171 0H35Z" />
<glyph unicode="Y" horiz-adv-x="618" d="M249 0V252L16 700H152L323 344H297L468 700H603L369 252V0H249Z" />
<glyph unicode="Z" horiz-adv-x="567" d="M48 0V92L378 599H50V700H517V608L185 101H519V0H48Z" />
<glyph unicode="[" horiz-adv-x="358" d="M71 -167V811H302V713H183V-68H302V-167H71Z" />
<glyph unicode="\" horiz-adv-x="417" d="M392 -108H275L24 775H141L392 -108Z" />
<glyph unicode="]" horiz-adv-x="358" d="M288 -167H56V-68H175V713H56V811H288V-167Z" />
<glyph unicode="^" horiz-adv-x="661" d="M36 202L274 700H388L625 202H504L331 563V563L157 202H36Z" />
<glyph unicode="_" horiz-adv-x="706" d="M76 -152V-38H631V-152H76Z" />
<glyph unicode="`" horiz-adv-x="228" d="M217 547L0 660L14 753V753L228 628L217 547Z" />
<glyph unicode="a" horiz-adv-x="574" d="M235 -12Q173 -12 132 9T71 65T51 141Q51 189 75 224T148 278T266 298H393Q393 338 382 364T348 404T289 417Q248 417 219 399T183 342H65Q71 396 101 434T180 494T289 516Q360 516 410 492T486 422T513 312V0H411L399
81V81Q389 61 374 44T338 15T293 -5T235 -12ZM262 83Q291 83 313 93T352 123T378 167T390 218V220H279Q244 220 221 211T188 187T178 150Q178 129 188 114T217 91T262 83Z" />
<glyph unicode="b" horiz-adv-x="646" d="M355 -12Q315 -12 283 -2T227 27T187 70V70L174 0H67V720H187V430Q211 467 252 491T354 516Q425 516 479 482T565 388T597 251Q597 176 566 116T481 22T355 -12ZM330 92Q372 92 405 112T456 168T475 252Q475 299 457 335T405
391T330 411Q287 411 255 391T204 335T185 252Q185 204 203 169T254 113T330 92Z" />
<glyph unicode="c" horiz-adv-x="596" d="M306 -12Q232 -12 174 21T83 114T50 250Q50 329 82 388T173 482T307 516Q401 516 465 467T547 331H421Q411 369 380 391T305 413Q268 413 238 394T190 339T172 252Q172 213 182 183T210 133T253 101T305 90Q334 90 357
99T397 128T421 173H547Q529 89 465 39T306 -12Z" />
<glyph unicode="d" horiz-adv-x="646" d="M291 -12Q221 -12 166 22T81 116T50 252Q50 328 81 387T167 481T293 516Q350 516 392 495T460 434V720H580V0H472L460 73V73Q444 51 421 32T366 0T291 -12ZM316 92Q359 92 392 112T443 169T461 252Q461 299 443 335T392
391T316 411Q275 411 242 391T191 335T172 252Q172 205 190 169T242 113T316 92Z" />
<glyph unicode="e" horiz-adv-x="592" d="M303 -12Q228 -12 171 20T82 112T50 248Q50 328 81 388T170 482T304 516Q378 516 433 483T518 395T548 270Q548 260 548 248T546 223H136V300H427Q425 355 390 386T303 418Q266 418 235 401T186 351T168 266V237Q168 190
185 156T233 105T302 87Q344 87 371 105T412 153H534Q520 106 488 69T409 10T303 -12Z" />
<glyph unicode="f" horiz-adv-x="362" d="M92 0V559Q92 617 111 652T168 704T256 720H316V618H274Q241 618 227 605T212 558V0H92ZM20 403V504H326V403H20Z" />
<glyph unicode="g" horiz-adv-x="585" d="M279 -232Q208 -232 155 -215T72 -162T42 -73Q42 -42 57 -13T104 42T185 87L238 29Q190 12 171 -12T152 -61Q152 -87 168 -104T213 -131T278 -140Q313 -140 339 -131T379 -104T394 -63Q394 -33 373 -15T290 8Q237 12 197
19T129 37T80 59T47 85V108L152 218L241 189L123 74L154 132Q164 125 174 119T201 109T245 100T315 92Q382 87 424 68T486 17T506 -60Q506 -104 482 -143T407 -207T279 -232ZM279 151Q216 151 171 175T101 241T77 333Q77 384 101 425T170 491T279 516Q342 516 387
491T456 425T480 333Q480 283 456 242T387 176T279 151ZM279 244Q322 244 348 267T374 333Q374 376 348 398T279 421Q236 421 209 399T182 333Q182 290 209 267T279 244ZM362 416L339 504H546V428L362 416Z" />
<glyph unicode="h" horiz-adv-x="605" d="M67 0V720H187V426V426Q212 467 255 491T352 516Q414 516 457 491T522 416T545 292V0H426V281Q426 346 399 380T315 414Q279 414 250 397T204 347T187 267V0H67Z" />
<glyph unicode="i" horiz-adv-x="264" d="M72 0V504H192V0H72ZM132 584Q99 584 78 604T56 655Q56 686 77 705T132 725Q165 725 186 706T208 655Q208 625 187 605T132 584Z" />
<glyph unicode="j" horiz-adv-x="265" d="M-29 -220V-118H12Q46 -118 60 -105T74 -58V504H194V-59Q194 -117 174 -152T118 -204T30 -220H-29ZM135 584Q101 584 80 604T59 655Q59 686 80 705T135 725Q168 725 189 706T210 655Q210 625 189 605T135 584Z" />
<glyph unicode="k" horiz-adv-x="556" d="M392 0L169 276L369 504H512L263 227V320L542 0H392ZM67 0V720H187V0H67Z" />
<glyph unicode="l" horiz-adv-x="254" d="M67 0V720H187V0H67Z" />
<glyph unicode="m" horiz-adv-x="926" d="M67 0V504H173L183 435V435Q207 473 246 494T337 516Q375 516 405 506T459 476T498 426V426Q526 468 571 492T669 516Q732 516 776 491T843 416T866 294V0H747V282Q747 346 721 380T644 414Q609 414 583 397T541 348T526
268V0H407V282Q407 346 381 380T303 414Q270 414 244 397T202 348T187 268V0H67Z" />
<glyph unicode="n" horiz-adv-x="604" d="M67 0V504H173L182 420V420Q205 464 248 490T350 516Q411 516 454 491T520 416T544 294V0H424V283Q424 346 396 380T313 414Q277 414 249 397T204 348T187 269V0H67Z" />
<glyph unicode="o" horiz-adv-x="605" d="M302 -12Q230 -12 173 21T83 114T50 251Q50 330 83 389T173 482T303 516Q375 516 432 483T522 390T555 252Q555 173 522 114T432 22T302 -12ZM302 91Q338 91 367 109T415 163T433 252Q433 305 416 340T369 394T303 412Q268
412 238 394T190 341T172 252Q172 199 190 163T237 109T302 91Z" />
<glyph unicode="p" horiz-adv-x="646" d="M67 -220V504H174L187 431V431Q203 453 225 472T280 504T355 516Q426 516 480 481T566 387T597 251Q597 175 566 116T480 22T355 -12Q298 -12 256 9T187 71V-220H67ZM330 92Q372 92 405 112T456 168T475 251Q475 299 457
335T405 391T330 411Q287 411 255 391T204 335T185 252Q185 204 203 169T254 113T330 92Z" />
<glyph unicode="q" horiz-adv-x="646" d="M460 -220V73Q436 37 395 13T293 -12Q222 -12 167 22T81 116T50 252Q50 328 81 387T167 481T293 516Q332 516 363 506T419 477T460 433V433L472 504H580V-220H460ZM316 92Q359 92 392 112T443 169T461 252Q461 300 443
335T392 391T316 411Q275 411 242 391T191 335T172 252Q172 205 190 169T242 113T316 92Z" />
<glyph unicode="r" horiz-adv-x="397" d="M67 0V504H174L185 410V410Q203 443 230 466T293 503T374 516V389H332Q302 389 275 382T229 358T198 313T187 241V0H67Z" />
<glyph unicode="s" horiz-adv-x="523" d="M268 -12Q201 -12 152 9T74 69T40 158H160Q165 137 178 120T213 92T267 82Q297 82 316 90T344 113T353 143Q353 167 340 180T303 200T244 215Q208 222 175 232T115 259T73 300T57 361Q57 405 80 440T148 495T255 516Q343
516 395 476T457 362H343Q338 390 315 405T254 421Q215 421 195 407T174 368Q174 352 186 340T223 320T282 303Q338 292 381 277T449 233T474 151Q475 103 450 66T378 9T268 -12Z" />
<glyph unicode="t" horiz-adv-x="421" d="M286 0Q235 0 198 16T139 69T118 169V403H32V504H118L132 637H238V504H375V403H238V169Q238 131 254 117T310 102H372V0H286Z" />
<glyph unicode="u" horiz-adv-x="604" d="M254 -12Q193 -12 150 12T83 86T60 209V504H180V221Q180 156 207 123T291 89Q327 89 355 106T400 155T417 235V504H537V0H431L422 84V84Q399 40 356 14T254 -12Z" />
<glyph unicode="v" horiz-adv-x="554" d="M205 0L19 504H145L278 114V114L411 504H535L349 0H205Z" />
<glyph unicode="w" horiz-adv-x="803" d="M167 0L19 504H138L241 90L219 91L334 504H468L584 91H562L665 504H784L636 0H512L389 427H414L291 0H167Z" />
<glyph unicode="x" horiz-adv-x="549" d="M20 0L198 252L20 504H149L275 321V321L401 504H530L352 252L530 0H401L275 183V183L149 0H20Z" />
<glyph unicode="y" horiz-adv-x="590" d="M128 -220L251 56H221L20 504H151L301 162V162L443 504H570L255 -220H128Z" />
<glyph unicode="z" horiz-adv-x="481" d="M34 0V97L295 404H38V504H433V407L169 99H438V0H34Z" />
<glyph unicode="{" horiz-adv-x="458" d="M336 -169Q261 -169 215 -128T168 -7Q168 27 173 55T183 112T189 176Q189 200 180 220T148 254T86 273V369Q126 375 148 388T179 421T189 467Q189 503 184 531T173 587T168 649Q168 729 214 770T336 811H398V711H358Q321
711 302 694T283 637Q283 611 288 585T298 530T303 462Q303 410 277 372T193 322V320Q251 308 277 271T303 179Q303 142 299 113T289 57T283 5Q283 -34 302 -51T358 -69H398V-169H336Z" />
<glyph unicode="|" horiz-adv-x="261" d="M71 -100V720H191V-100H71Z" />
<glyph unicode="}" horiz-adv-x="458" d="M122 -169H60V-69H100Q137 -69 155 -52T174 5Q174 31 170 57T160 112T155 179Q155 233 181 270T264 320V322Q207 334 181 372T155 462Q155 500 160 529T169 585T174 637Q174 676 156 693T100 711H60V811H122Q197 811 243
770T290 649Q290 615 285 587T275 531T269 467Q269 442 278 422T310 388T371 369V273Q333 268 311 255T279 221T269 176Q269 141 274 112T285 55T290 -7Q290 -87 244 -128T122 -169Z" />
<glyph unicode="~" horiz-adv-x="571" d="M371 231Q340 231 317 241T273 265T233 289T191 299Q165 299 149 282T127 233H38Q47 293 69 331T124 387T197 406Q229 406 253 396T297 372T337 349T378 338Q405 338 421 355T442 405H533Q525 345 503 307T447 250T371 231Z" />
<glyph unicode="&#xa0;" horiz-adv-x="244" />
<glyph unicode="&#xa1;" horiz-adv-x="291" d="M95 291H197L210 -189H81L95 291ZM146 516Q180 516 200 495T221 444Q221 413 201 393T146 372Q113 372 92 392T70 444Q70 474 91 495T146 516Z" />
<glyph unicode="&#xa2;" horiz-adv-x="596" d="M251 -104V59H362V-104H251ZM251 444V608H362V444H251ZM306 -12Q232 -12 174 21T83 114T50 250Q50 329 82 388T173 482T307 516Q401 516 465 467T547 331H421Q411 369 380 391T305 413Q268 413 238 394T190 339T172
252Q172 213 182 183T210 133T253 101T305 90Q334 90 357 99T397 128T421 173H547Q529 89 465 39T306 -12Z" />
<glyph unicode="&#xa3;" horiz-adv-x="620" d="M79 0V72Q105 98 123 124T151 182T161 257Q161 287 153 315T133 372T114 433T105 501Q105 566 134 613T213 686T330 712Q406 712 455 683T530 606T559 498H448Q446 548 417 580T332 613Q302 613 276 601T235 562T219
496Q219 468 227 440T247 381T266 321T274 259Q274 215 258 174T204 96H561V0H79ZM42 300V383H434V300H42Z" />
<glyph unicode="&#xa4;" horiz-adv-x="552" d="M276 119Q221 119 179 141T113 203T89 297Q89 352 113 392T180 453T277 475Q331 475 373 454T440 392T465 297Q465 243 440 203T373 141T276 119ZM114 82L63 134L153 223L212 179L114 82ZM438 82L351 170L403 219L489
134L438 82ZM276 198Q298 198 317 208T350 241T363 297Q363 332 350 354T318 386T276 397Q254 397 235 387T203 354T190 297Q190 263 202 241T234 209T276 198ZM151 377L63 463L114 515L206 423L151 377ZM395 369L347 422L438 515L489 463L395 369Z" />
<glyph unicode="&#xa5;" horiz-adv-x="636" d="M58 157V240H578V157H58ZM280 320H58V403H274L280 320ZM381 320L387 403H578V320H381ZM258 0V252L25 700H160L332 344H306L477 700H612L378 252V0H258Z" />
<glyph unicode="&#xa6;" horiz-adv-x="261" d="M71 392V720H191V392H71ZM71 -100V228H191V-100H71Z" />
<glyph unicode="&#xa7;" horiz-adv-x="608" d="M300 -232Q231 -232 178 -207T96 -137T64 -31H192Q193 -57 205 -79T242 -116T302 -131Q348 -132 377 -109T407 -43Q407 -14 394 3T357 32T302 54T232 77Q180 95 138 120T70 184T45 283Q45 322 59 356T100 419Q87
439 80 462T73 514Q73 575 102 619T184 687T306 712Q376 712 428 687T511 618T543 511H415Q414 537 401 559T364 596T304 611Q259 612 230 589T200 523Q200 495 212 477T249 448T305 426T375 402Q427 385 469 360T537 296T562 197Q562 159 548 124T505 61Q519 42
525 19T532 -33Q533 -93 504 -138T422 -207T300 -232ZM412 128Q423 141 429 156T435 189Q435 219 422 239T384 274T328 300T256 325Q237 332 222 338T194 352Q183 340 177 325T171 291Q171 268 179 251T204 220T242 196T291 176T349 155Q367 149 382 142T412 128Z"
/>
<glyph unicode="&#xa8;" horiz-adv-x="329" d="M253 566Q228 566 211 583T194 625Q194 650 211 667T253 685Q278 685 295 668T313 625Q313 600 296 583T253 566ZM76 566Q51 566 34 583T17 625Q17 650 34 667T76 685Q102 685 119 668T136 625Q136 600 119 583T76 566Z" />
<glyph unicode="&#xa9;" horiz-adv-x="788" d="M394 -5Q291 -5 212 40T90 166T46 351Q46 456 89 536T212 661T394 707Q498 707 576 662T698 536T743 351Q743 247 699 167T576 41T394 -5ZM394 123Q333 123 284 150T205 229T175 352Q175 423 204 474T283 553T394
581Q471 581 527 540T601 423H495Q484 459 457 478T392 498Q359 498 333 482T292 433T276 351Q276 304 291 271T333 222T392 205Q431 205 457 225T495 279H601Q583 207 527 165T394 123ZM394 40Q487 40 554 79T658 189T695 351Q695 445 659 515T555 624T394 663Q302
663 235 624T130 516T93 351Q93 259 130 189T234 80T394 40Z" />
<glyph unicode="&#xaa;" horiz-adv-x="498" d="M220 348Q172 348 134 370T73 434T51 529Q51 584 73 624T132 687T217 710Q265 710 297 692T345 646L353 704H438V353H353L345 411V411Q330 383 298 366T220 348ZM245 421Q273 421 295 433T331 470T345 529Q345 581
316 609T245 637Q205 637 176 609T147 529Q147 477 176 449T245 421Z" />
<glyph unicode="&#xab;" horiz-adv-x="495" d="M331 120L240 295L331 470H445L351 295L445 120H331ZM134 120L42 295L134 470H248L153 295L248 120H134Z" />
<glyph unicode="&#xac;" horiz-adv-x="571" d="M460 205V343H-9V436H580V205H460Z" />
<glyph unicode="&#xae;" horiz-adv-x="508" d="M255 296Q194 296 147 322T74 396T47 504Q47 565 73 611T147 685T255 712Q315 712 361 685T434 612T461 504Q461 444 435 397T362 323T255 296ZM289 399L232 496H293L356 399H289ZM255 340Q303 340 338 361T394 419T414
504Q414 552 394 588T339 646T255 667Q206 667 170 646T114 589T94 504Q94 456 114 419T170 361T255 340ZM170 399V613H272Q306 613 326 595T346 545Q346 515 326 497T272 479H227V399H170ZM227 521H264Q275 521 282 526T289 543Q289 554 282 558T264 563H227V521Z"
/>
<glyph unicode="&#xaf;" horiz-adv-x="395" d="M13 581V667H382V581H13Z" />
<glyph unicode="&#xb0;" horiz-adv-x="357" d="M178 429Q140 429 108 446T57 495T38 570Q38 614 57 645T109 694T179 712Q217 712 248 695T299 646T319 570Q319 527 300 496T248 447T178 429ZM178 507Q199 507 218 523T237 571Q237 602 219 618T179 634Q157 634
139 618T120 571Q120 539 138 523T178 507Z" />
<glyph unicode="&#xb1;" horiz-adv-x="571" d="M40 0V92H530V0H40ZM234 156V516H336V156H234ZM40 286V386H530V286H40Z" />
<glyph unicode="&#xb2;" horiz-adv-x="352" d="M37 352V420L153 504Q181 526 198 548T216 598Q216 620 204 632T173 644Q153 644 141 631T126 594H33Q37 644 74 678T181 712Q225 712 254 697T299 657T314 603Q314 564 288 535T209 473L136 425H314V352H37Z" />
<glyph unicode="&#xb3;" horiz-adv-x="348" d="M173 347Q100 347 63 377T21 461H116Q118 444 125 434T143 419T169 415Q192 415 206 427T220 460Q220 483 204 495T164 507H123V554H161Q185 554 200 565T215 600Q215 620 202 632T166 644Q143 644 130 634T114 603H26Q28
633 45 657T94 697T175 712Q236 712 275 683T314 608Q314 577 296 558T247 531V528Q279 519 298 499T318 446Q318 404 279 376T173 347Z" />
<glyph unicode="&#xb4;" horiz-adv-x="228" d="M11 547L0 628L214 753V753L228 660L11 547Z" />
<glyph unicode="&#xb5;" horiz-adv-x="613" d="M67 -220V496H187V226Q187 160 214 125T298 89Q336 89 364 107T409 158T426 240V496H546V0H439L431 84V84Q407 41 363 15T261 -12Q240 -12 221 -8T187 7V-220H67Z" />
<glyph unicode="&#xb6;" horiz-adv-x="633" d="M286 -100V285H270Q188 285 136 313T58 388T33 492Q33 549 58 596T135 671T270 700H563V-100H461V608H387V-100H286Z" />
<glyph unicode="&#xb7;" horiz-adv-x="236" d="M119 259Q85 259 64 280T43 330Q43 362 64 382T119 403Q152 403 173 383T194 330Q194 301 173 280T119 259Z" />
<glyph unicode="&#xb8;" horiz-adv-x="255" d="M0 -262V-192H108Q137 -192 151 -183T165 -153Q165 -135 151 -126T108 -117H50V7H125V-52Q160 -52 189 -62T237 -96T255 -156Q255 -191 238 -214T191 -250T127 -262H0Z" />
<glyph unicode="&#xb9;" horiz-adv-x="228" d="M94 352V616L25 600V657L132 704H186V352H94Z" />
<glyph unicode="&#xba;" horiz-adv-x="478" d="M238 348Q182 348 140 371T74 435T50 531Q50 585 74 626T140 689T239 712Q295 712 338 690T404 626T428 531Q428 477 404 436T337 371T238 348ZM238 422Q264 422 285 434T320 471T333 530Q333 567 320 591T286 627T238
640Q212 640 191 628T158 591T145 530Q145 495 157 471T191 435T238 422Z" />
<glyph unicode="&#xbb;" horiz-adv-x="495" d="M164 120H50L145 295L50 470H164L256 295L164 120ZM361 120H247L342 295L247 470H361L453 295L361 120Z" />
<glyph unicode="&#xbc;" horiz-adv-x="799" d="M94 352V616L25 600V657L132 704H186V352H94ZM118 0L515 700H633L236 0H118ZM650 0V62H483V125L640 348H740V127H780V62H740V0H650ZM575 127H656V250V250L575 127Z" />
<glyph unicode="&#xbd;" horiz-adv-x="836" d="M94 352V616L25 600V657L132 704H186V352H94ZM118 0L515 700H633L236 0H118ZM521 0V68L637 152Q665 174 682 196T700 246Q700 268 688 280T657 292Q637 292 625 279T610 242H517Q521 292 558 326T665 360Q709 360
738 345T783 305T798 251Q798 212 772 183T693 121L620 73H798V0H521Z" />
<glyph unicode="&#xbe;" horiz-adv-x="891" d="M173 347Q100 347 63 377T21 461H116Q118 444 125 434T143 419T169 415Q192 415 206 427T220 460Q220 483 204 495T164 507H123V554H161Q185 554 200 565T215 600Q215 620 202 632T166 644Q143 644 130 634T114 603H26Q28
633 45 657T94 697T175 712Q236 712 275 683T314 608Q314 577 296 558T247 531V528Q279 519 298 499T318 446Q318 404 279 376T173 347ZM210 0L607 700H725L328 0H210ZM742 0V62H575V125L732 348H832V127H872V62H832V0H742ZM667 127H748V250V250L667 127Z" />
<glyph unicode="&#xbf;" horiz-adv-x="534" d="M387 291L391 132H348Q309 132 275 127T214 109T173 72T158 7Q158 -26 172 -51T212 -89T272 -102Q308 -102 333 -89T373 -51T387 5H501Q502 -55 474 -101T394 -174T271 -201Q204 -201 152 -177T71 -105T42 7Q42 78
72 123T156 190T278 212L281 291H387ZM334 516Q367 516 388 495T410 444Q410 413 389 393T334 372Q300 372 279 392T258 444Q258 474 279 495T334 516Z" />
<glyph unicode="&#xc0;" horiz-adv-x="696" d="M25 0L281 700H415L671 0H544L347 560V560L150 0H25ZM139 165L171 260H516L548 165H139ZM451 743L234 856L248 950V950L462 824L451 743Z" />
<glyph unicode="&#xc1;" horiz-adv-x="696" d="M25 0L281 700H415L671 0H544L347 560V560L150 0H25ZM139 165L171 260H516L548 165H139ZM245 743L234 824L448 950V950L462 856L245 743Z" />
<glyph unicode="&#xc2;" horiz-adv-x="696" d="M25 0L281 700H415L671 0H544L347 560V560L150 0H25ZM139 165L171 260H516L548 165H139ZM204 748V835L348 916L493 835V748L348 831L204 748Z" />
<glyph unicode="&#xc3;" horiz-adv-x="696" d="M25 0L281 700H415L671 0H544L347 560V560L150 0H25ZM139 165L171 260H516L548 165H139ZM412 752Q384 752 365 763T328 786T291 798Q274 798 263 787T248 753H183Q192 815 222 844T296 874Q324 874 343 863T380 840T417
828Q434 828 445 839T460 873H526Q517 811 487 782T412 752Z" />
<glyph unicode="&#xc4;" horiz-adv-x="696" d="M25 0L281 700H415L671 0H544L347 560V560L150 0H25ZM139 165L171 260H516L548 165H139ZM261 770Q235 770 218 787T201 829Q201 854 218 871T261 889Q285 889 302 872T320 829Q320 804 303 787T261 770ZM437 770Q412
770 395 787T378 829Q378 854 395 871T437 889Q462 889 479 872T496 829Q496 804 479 787T437 770Z" />
<glyph unicode="&#xc5;" horiz-adv-x="696" d="M25 0L281 700H415L671 0H544L347 560V560L150 0H25ZM139 165L171 260H516L548 165H139ZM348 753Q302 753 269 782T236 863Q236 915 269 944T348 974Q395 974 427 945T460 863Q460 812 428 783T348 753ZM348 808Q370
808 385 823T401 863Q401 889 386 903T348 918Q327 918 311 904T295 863Q295 838 311 823T348 808Z" />
<glyph unicode="&#xc6;" horiz-adv-x="935" d="M25 0L407 700H880V605H606V401H850V309H606V95H880V0H486V607V607L155 0H25ZM166 142L216 235H543V142H166Z" />
<glyph unicode="&#xc7;" horiz-adv-x="732" d="M382 -12Q278 -12 203 33T87 160T46 349Q46 457 86 538T202 666T382 712Q507 712 586 651T686 477H554Q540 536 497 570T381 604Q315 604 268 574T195 486T169 349Q169 270 194 214T267 127T381 96Q454 96 497 127T554
215H686Q666 109 587 49T382 -12ZM284 -264V-194H392Q421 -194 435 -185T449 -155Q449 -137 435 -128T392 -119H334V5H409V-54Q444 -54 473 -64T521 -98T539 -158Q539 -193 522 -216T475 -252T410 -264H284Z" />
<glyph unicode="&#xc8;" horiz-adv-x="578" d="M71 0V700H523V603H191V402H493V307H191V97H523V0H71ZM400 743L183 856L197 950V950L411 824L400 743Z" />
<glyph unicode="&#xc9;" horiz-adv-x="578" d="M71 0V700H523V603H191V402H493V307H191V97H523V0H71ZM194 743L183 824L397 950V950L411 856L194 743Z" />
<glyph unicode="&#xca;" horiz-adv-x="578" d="M71 0V700H523V603H191V402H493V307H191V97H523V0H71ZM153 748V835L297 916L442 835V748L297 831L153 748Z" />
<glyph unicode="&#xcb;" horiz-adv-x="578" d="M71 0V700H523V603H191V402H493V307H191V97H523V0H71ZM209 770Q183 770 166 787T149 829Q149 854 166 871T209 889Q233 889 250 872T268 829Q268 804 251 787T209 770ZM385 770Q360 770 343 787T326 829Q326 854
343 871T385 889Q410 889 427 872T444 829Q444 804 427 787T385 770Z" />
<glyph unicode="&#xcc;" horiz-adv-x="261" d="M71 0V700H191V0H71ZM233 743L16 856L30 950V950L244 824L233 743Z" />
<glyph unicode="&#xcd;" horiz-adv-x="261" d="M71 0V700H191V0H71ZM27 743L16 824L230 950V950L244 856L27 743Z" />
<glyph unicode="&#xce;" horiz-adv-x="261" d="M71 0V700H191V0H71ZM242 748V835L386 916L531 835V748L386 831L242 748Z" />
<glyph unicode="&#xcf;" horiz-adv-x="261" d="M71 0V700H191V0H71ZM299 770Q273 770 256 787T239 829Q239 854 256 871T299 889Q323 889 340 872T358 829Q358 804 341 787T299 770ZM475 770Q450 770 433 787T416 829Q416 854 433 871T475 889Q500 889 517 872T534
829Q534 804 517 787T475 770Z" />
<glyph unicode="&#xd0;" horiz-adv-x="716" d="M6 298V401H385V298H6ZM85 0V700H311Q433 700 513 657T631 536T670 349Q670 243 632 165T513 43T311 0H85ZM205 102H305Q396 102 449 131T524 216T547 349Q547 427 525 482T449 568T305 599H205V102Z" />
<glyph unicode="&#xd1;" horiz-adv-x="718" d="M71 0V700H191L528 194V194V700H648V0H528L191 505V505V0H71ZM423 752Q395 752 376 763T339 786T302 798Q285 798 274 787T259 753H194Q203 815 233 844T307 874Q335 874 354 863T391 840T428 828Q445 828 456 839T471
873H537Q528 811 498 782T423 752Z" />
<glyph unicode="&#xd2;" horiz-adv-x="781" d="M390 -12Q289 -12 212 33T90 160T46 350Q46 457 90 538T211 666T390 712Q493 712 571 666T692 539T735 350Q735 242 692 161T571 34T390 -12ZM391 96Q458 96 508 126T585 214T612 350Q612 429 585 486T508 573T391
604Q324 604 274 574T197 486T169 350Q169 271 196 214T274 127T391 96ZM494 743L277 856L291 950V950L505 824L494 743Z" />
<glyph unicode="&#xd3;" horiz-adv-x="781" d="M390 -12Q289 -12 212 33T90 160T46 350Q46 457 90 538T211 666T390 712Q493 712 571 666T692 539T735 350Q735 242 692 161T571 34T390 -12ZM391 96Q458 96 508 126T585 214T612 350Q612 429 585 486T508 573T391
604Q324 604 274 574T197 486T169 350Q169 271 196 214T274 127T391 96ZM288 743L277 824L491 950V950L505 856L288 743Z" />
<glyph unicode="&#xd4;" horiz-adv-x="781" d="M390 -12Q289 -12 212 33T90 160T46 350Q46 457 90 538T211 666T390 712Q493 712 571 666T692 539T735 350Q735 242 692 161T571 34T390 -12ZM391 96Q458 96 508 126T585 214T612 350Q612 429 585 486T508 573T391
604Q324 604 274 574T197 486T169 350Q169 271 196 214T274 127T391 96ZM247 748V835L391 916L536 835V748L391 831L247 748Z" />
<glyph unicode="&#xd5;" horiz-adv-x="781" d="M390 -12Q289 -12 212 33T90 160T46 350Q46 457 90 538T211 666T390 712Q493 712 571 666T692 539T735 350Q735 242 692 161T571 34T390 -12ZM391 96Q458 96 508 126T585 214T612 350Q612 429 585 486T508 573T391
604Q324 604 274 574T197 486T169 350Q169 271 196 214T274 127T391 96ZM455 752Q427 752 408 763T371 786T334 798Q317 798 306 787T291 753H226Q235 815 265 844T339 874Q367 874 386 863T423 840T460 828Q477 828 488 839T503 873H569Q560 811 530 782T455 752Z"
/>
<glyph unicode="&#xd6;" horiz-adv-x="781" d="M390 -12Q289 -12 212 33T90 160T46 350Q46 457 90 538T211 666T390 712Q493 712 571 666T692 539T735 350Q735 242 692 161T571 34T390 -12ZM391 96Q458 96 508 126T585 214T612 350Q612 429 585 486T508 573T391
604Q324 604 274 574T197 486T169 350Q169 271 196 214T274 127T391 96ZM303 770Q277 770 260 787T243 829Q243 854 260 871T303 889Q327 889 344 872T362 829Q362 804 345 787T303 770ZM479 770Q454 770 437 787T420 829Q420 854 437 871T479 889Q504 889 521
872T538 829Q538 804 521 787T479 770Z" />
<glyph unicode="&#xd7;" horiz-adv-x="571" d="M158 92L88 163L214 290L91 414L162 484L285 361L412 488L483 417L356 290L480 167L408 96L285 219L158 92Z" />
<glyph unicode="&#xd8;" horiz-adv-x="777" d="M28 0L633 700H749L145 0H28ZM390 -12Q288 -12 211 33T90 160T46 350Q46 457 89 538T210 666T390 712Q493 712 570 666T691 539T735 350Q735 242 692 161T571 34T390 -12ZM390 96Q458 96 507 126T584 214T612 350Q612
429 585 486T508 573T390 604Q323 604 274 574T196 486T168 350Q168 271 196 214T273 127T390 96Z" />
<glyph unicode="&#xd9;" horiz-adv-x="676" d="M336 -12Q260 -12 199 18T101 110T64 266V700H184V265Q184 208 203 171T256 116T338 97Q386 97 420 115T473 171T492 265V700H612V266Q612 172 575 110T475 18T336 -12ZM440 743L223 856L237 950V950L451 824L440 743Z" />
<glyph unicode="&#xda;" horiz-adv-x="676" d="M336 -12Q260 -12 199 18T101 110T64 266V700H184V265Q184 208 203 171T256 116T338 97Q386 97 420 115T473 171T492 265V700H612V266Q612 172 575 110T475 18T336 -12ZM234 743L223 824L437 950V950L451 856L234 743Z" />
<glyph unicode="&#xdb;" horiz-adv-x="676" d="M336 -12Q260 -12 199 18T101 110T64 266V700H184V265Q184 208 203 171T256 116T338 97Q386 97 420 115T473 171T492 265V700H612V266Q612 172 575 110T475 18T336 -12ZM193 748V835L337 916L482 835V748L337 831L193 748Z" />
<glyph unicode="&#xdc;" horiz-adv-x="676" d="M336 -12Q260 -12 199 18T101 110T64 266V700H184V265Q184 208 203 171T256 116T338 97Q386 97 420 115T473 171T492 265V700H612V266Q612 172 575 110T475 18T336 -12ZM250 770Q224 770 207 787T190 829Q190 854
207 871T250 889Q274 889 291 872T309 829Q309 804 292 787T250 770ZM426 770Q401 770 384 787T367 829Q367 854 384 871T426 889Q451 889 468 872T485 829Q485 804 468 787T426 770Z" />
<glyph unicode="&#xdd;" horiz-adv-x="618" d="M249 0V252L16 700H152L323 344H297L468 700H603L369 252V0H249ZM206 743L195 824L409 950V950L423 856L206 743Z" />
<glyph unicode="&#xde;" horiz-adv-x="604" d="M71 0V700H191V563H324Q408 563 462 535T544 459T571 350Q571 292 545 244T465 167T324 138H191V0H71ZM191 235H318Q387 235 418 266T449 350Q449 404 418 434T318 465H191V235Z" />
<glyph unicode="&#xdf;" horiz-adv-x="696" d="M464 -10Q374 -10 317 38T250 174H364Q368 131 393 106T462 80Q502 80 523 98T544 150Q544 181 525 201T451 239Q371 267 336 296T300 371Q300 400 313 418T345 451T384 478T416 507T429 547Q429 586 398 609T314
632Q249 632 218 597T187 499V0H68V510Q68 575 97 625T183 703T319 732Q392 732 443 709T522 647T549 560Q549 527 536 505T504 468T466 441T434 417T421 389Q421 377 429 366T459 344T524 319Q598 292 630 254T663 158Q663 108 639 70T570 11T464 -10Z" />
<glyph unicode="&#xe0;" horiz-adv-x="574" d="M235 -12Q173 -12 132 9T71 65T51 141Q51 189 75 224T148 278T266 298H393Q393 338 382 364T348 404T289 417Q248 417 219 399T183 342H65Q71 396 101 434T180 494T289 516Q360 516 410 492T486 422T513 312V0H411L399
81V81Q389 61 374 44T338 15T293 -5T235 -12ZM262 83Q291 83 313 93T352 123T378 167T390 218V220H279Q244 220 221 211T188 187T178 150Q178 129 188 114T217 91T262 83ZM386 547L169 660L183 753V753L397 628L386 547Z" />
<glyph unicode="&#xe1;" horiz-adv-x="574" d="M235 -12Q173 -12 132 9T71 65T51 141Q51 189 75 224T148 278T266 298H393Q393 338 382 364T348 404T289 417Q248 417 219 399T183 342H65Q71 396 101 434T180 494T289 516Q360 516 410 492T486 422T513 312V0H411L399
81V81Q389 61 374 44T338 15T293 -5T235 -12ZM262 83Q291 83 313 93T352 123T378 167T390 218V220H279Q244 220 221 211T188 187T178 150Q178 129 188 114T217 91T262 83ZM180 547L169 628L383 753V753L397 660L180 547Z" />
<glyph unicode="&#xe2;" horiz-adv-x="574" d="M235 -12Q173 -12 132 9T71 65T51 141Q51 189 75 224T148 278T266 298H393Q393 338 382 364T348 404T289 417Q248 417 219 399T183 342H65Q71 396 101 434T180 494T289 516Q360 516 410 492T486 422T513 312V0H411L399
81V81Q389 61 374 44T338 15T293 -5T235 -12ZM262 83Q291 83 313 93T352 123T378 167T390 218V220H279Q244 220 221 211T188 187T178 150Q178 129 188 114T217 91T262 83ZM139 550V637L283 717L428 637V550L283 633L139 550Z" />
<glyph unicode="&#xe3;" horiz-adv-x="574" d="M235 -12Q173 -12 132 9T71 65T51 141Q51 189 75 224T148 278T266 298H393Q393 338 382 364T348 404T289 417Q248 417 219 399T183 342H65Q71 396 101 434T180 494T289 516Q360 516 410 492T486 422T513 312V0H411L399
81V81Q389 61 374 44T338 15T293 -5T235 -12ZM262 83Q291 83 313 93T352 123T378 167T390 218V220H279Q244 220 221 211T188 187T178 150Q178 129 188 114T217 91T262 83ZM341 570Q313 570 294 581T257 604T220 616Q203 616 192 605T177 571H112Q121 633 151 662T225
691Q253 691 272 680T309 657T346 645Q363 645 374 656T389 690H455Q446 629 416 600T341 570Z" />
<glyph unicode="&#xe4;" horiz-adv-x="574" d="M235 -12Q173 -12 132 9T71 65T51 141Q51 189 75 224T148 278T266 298H393Q393 338 382 364T348 404T289 417Q248 417 219 399T183 342H65Q71 396 101 434T180 494T289 516Q360 516 410 492T486 422T513 312V0H411L399
81V81Q389 61 374 44T338 15T293 -5T235 -12ZM262 83Q291 83 313 93T352 123T378 167T390 218V220H279Q244 220 221 211T188 187T178 150Q178 129 188 114T217 91T262 83ZM195 570Q169 570 152 587T135 629Q135 654 152 671T195 689Q219 689 236 672T254 629Q254
604 237 587T195 570ZM371 570Q346 570 329 587T312 629Q312 654 329 671T371 689Q396 689 413 672T430 629Q430 604 413 587T371 570Z" />
<glyph unicode="&#xe5;" horiz-adv-x="574" d="M235 -12Q173 -12 132 9T71 65T51 141Q51 189 75 224T148 278T266 298H393Q393 338 382 364T348 404T289 417Q248 417 219 399T183 342H65Q71 396 101 434T180 494T289 516Q360 516 410 492T486 422T513 312V0H411L399
81V81Q389 61 374 44T338 15T293 -5T235 -12ZM262 83Q291 83 313 93T352 123T378 167T390 218V220H279Q244 220 221 211T188 187T178 150Q178 129 188 114T217 91T262 83ZM283 570Q237 570 204 599T171 680Q171 731 204 760T283 790Q330 790 362 761T395 680Q395
628 363 599T283 570ZM283 625Q305 625 320 640T336 680Q336 706 321 720T283 735Q262 735 246 721T230 680Q230 655 246 640T283 625Z" />
<glyph unicode="&#xe6;" horiz-adv-x="935" d="M243 -12Q180 -12 137 9T73 65T51 142Q51 190 75 225T146 280T263 299H395Q395 339 385 365T351 404T292 417Q254 417 226 399T191 344H72Q78 397 108 435T186 495T292 516Q354 516 399 496T471 440Q504 476 549
496T649 516Q723 516 777 483T861 395T891 270Q891 260 891 248T889 223H517Q520 179 538 149T585 103T647 87Q692 87 720 108T762 163H881Q868 114 836 74T757 11T649 -12Q584 -12 531 16T444 92Q424 62 395 38T328 1T243 -12ZM260 83Q296 83 323 100T368 148T391
213V222H278Q243 222 221 214T188 189T178 153Q178 131 188 116T216 92T260 83ZM519 300H771Q768 356 734 387T649 418Q618 418 591 405T544 365T519 300Z" />
<glyph unicode="&#xe7;" horiz-adv-x="596" d="M306 -12Q232 -12 174 21T83 114T50 250Q50 329 82 388T173 482T307 516Q401 516 465 467T547 331H421Q411 369 380 391T305 413Q268 413 238 394T190 339T172 252Q172 213 182 183T210 133T253 101T305 90Q334 90
357 99T397 128T421 173H547Q529 89 465 39T306 -12ZM216 -264V-194H324Q353 -194 367 -185T381 -155Q381 -137 367 -128T324 -119H266V5H341V-54Q376 -54 405 -64T453 -98T471 -158Q471 -193 454 -216T407 -252T342 -264H216Z" />
<glyph unicode="&#xe8;" horiz-adv-x="592" d="M303 -12Q228 -12 171 20T82 112T50 248Q50 328 81 388T170 482T304 516Q378 516 433 483T518 395T548 270Q548 260 548 248T546 223H136V300H427Q425 355 390 386T303 418Q266 418 235 401T186 351T168 266V237Q168
190 185 156T233 105T302 87Q344 87 371 105T412 153H534Q520 106 488 69T409 10T303 -12ZM403 547L186 660L200 753V753L414 628L403 547Z" />
<glyph unicode="&#xe9;" horiz-adv-x="592" d="M303 -12Q228 -12 171 20T82 112T50 248Q50 328 81 388T170 482T304 516Q378 516 433 483T518 395T548 270Q548 260 548 248T546 223H136V300H427Q425 355 390 386T303 418Q266 418 235 401T186 351T168 266V237Q168
190 185 156T233 105T302 87Q344 87 371 105T412 153H534Q520 106 488 69T409 10T303 -12ZM197 547L186 628L400 753V753L414 660L197 547Z" />
<glyph unicode="&#xea;" horiz-adv-x="592" d="M303 -12Q228 -12 171 20T82 112T50 248Q50 328 81 388T170 482T304 516Q378 516 433 483T518 395T548 270Q548 260 548 248T546 223H136V300H427Q425 355 390 386T303 418Q266 418 235 401T186 351T168 266V237Q168
190 185 156T233 105T302 87Q344 87 371 105T412 153H534Q520 106 488 69T409 10T303 -12ZM156 550V637L300 717L445 637V550L300 633L156 550Z" />
<glyph unicode="&#xeb;" horiz-adv-x="592" d="M303 -12Q228 -12 171 20T82 112T50 248Q50 328 81 388T170 482T304 516Q378 516 433 483T518 395T548 270Q548 260 548 248T546 223H136V300H427Q425 355 390 386T303 418Q266 418 235 401T186 351T168 266V237Q168
190 185 156T233 105T302 87Q344 87 371 105T412 153H534Q520 106 488 69T409 10T303 -12ZM213 570Q187 570 170 587T153 629Q153 654 170 671T213 689Q237 689 254 672T272 629Q272 604 255 587T213 570ZM389 570Q364 570 347 587T330 629Q330 654 347 671T389
689Q414 689 431 672T448 629Q448 604 431 587T389 570Z" />
<glyph unicode="&#xec;" horiz-adv-x="254" d="M67 0V504H187V0H67ZM230 547L13 660L27 753V753L241 628L230 547Z" />
<glyph unicode="&#xed;" horiz-adv-x="254" d="M67 0V504H187V0H67ZM24 547L13 628L227 753V753L241 660L24 547Z" />
<glyph unicode="&#xee;" horiz-adv-x="254" d="M67 0V504H187V0H67ZM239 550V637L383 717L528 637V550L383 633L239 550Z" />
<glyph unicode="&#xef;" horiz-adv-x="254" d="M67 0V504H187V0H67ZM296 570Q270 570 253 587T236 629Q236 654 253 671T296 689Q320 689 337 672T355 629Q355 604 338 587T296 570ZM472 570Q447 570 430 587T413 629Q413 654 430 671T472 689Q497 689 514 672T531
629Q531 604 514 587T472 570Z" />
<glyph unicode="&#xf0;" horiz-adv-x="634" d="M314 -12Q237 -12 177 22T84 115T50 248Q50 323 83 381T174 473T307 506Q348 506 384 495T450 457Q437 490 419 522T378 586T329 645T271 700H385Q438 655 476 603T537 497T572 388T584 282Q584 192 549 126T452
24T314 -12ZM317 90Q356 90 389 109T441 163T461 248Q461 297 442 332T389 386T317 405Q277 405 245 386T192 332T172 248Q172 199 192 164T245 109T317 90ZM252 539V613L543 709V635L252 539Z" />
<glyph unicode="&#xf1;" horiz-adv-x="604" d="M67 0V504H173L182 420V420Q205 464 248 490T350 516Q411 516 454 491T520 416T544 294V0H424V283Q424 346 396 380T313 414Q277 414 249 397T204 348T187 269V0H67ZM381 570Q353 570 334 581T297 604T260 616Q243
616 232 605T217 571H152Q161 633 191 662T265 691Q293 691 312 680T349 657T386 645Q403 645 414 656T429 690H495Q486 629 456 600T381 570Z" />
<glyph unicode="&#xf2;" horiz-adv-x="605" d="M302 -12Q230 -12 173 21T83 114T50 251Q50 330 83 389T173 482T303 516Q375 516 432 483T522 390T555 252Q555 173 522 114T432 22T302 -12ZM302 91Q338 91 367 109T415 163T433 252Q433 305 416 340T369 394T303
412Q268 412 238 394T190 341T172 252Q172 199 190 163T237 109T302 91ZM406 547L189 660L203 753V753L417 628L406 547Z" />
<glyph unicode="&#xf3;" horiz-adv-x="605" d="M302 -12Q230 -12 173 21T83 114T50 251Q50 330 83 389T173 482T303 516Q375 516 432 483T522 390T555 252Q555 173 522 114T432 22T302 -12ZM302 91Q338 91 367 109T415 163T433 252Q433 305 416 340T369 394T303
412Q268 412 238 394T190 341T172 252Q172 199 190 163T237 109T302 91ZM200 547L189 628L403 753V753L417 660L200 547Z" />
<glyph unicode="&#xf4;" horiz-adv-x="605" d="M302 -12Q230 -12 173 21T83 114T50 251Q50 330 83 389T173 482T303 516Q375 516 432 483T522 390T555 252Q555 173 522 114T432 22T302 -12ZM302 91Q338 91 367 109T415 163T433 252Q433 305 416 340T369 394T303
412Q268 412 238 394T190 341T172 252Q172 199 190 163T237 109T302 91ZM159 550V637L303 717L448 637V550L303 633L159 550Z" />
<glyph unicode="&#xf5;" horiz-adv-x="605" d="M302 -12Q230 -12 173 21T83 114T50 251Q50 330 83 389T173 482T303 516Q375 516 432 483T522 390T555 252Q555 173 522 114T432 22T302 -12ZM302 91Q338 91 367 109T415 163T433 252Q433 305 416 340T369 394T303
412Q268 412 238 394T190 341T172 252Q172 199 190 163T237 109T302 91ZM361 570Q333 570 314 581T277 604T240 616Q223 616 212 605T197 571H132Q141 633 171 662T245 691Q273 691 292 680T329 657T366 645Q383 645 394 656T409 690H475Q466 629 436 600T361 570Z"
/>
<glyph unicode="&#xf6;" horiz-adv-x="605" d="M302 -12Q230 -12 173 21T83 114T50 251Q50 330 83 389T173 482T303 516Q375 516 432 483T522 390T555 252Q555 173 522 114T432 22T302 -12ZM302 91Q338 91 367 109T415 163T433 252Q433 305 416 340T369 394T303
412Q268 412 238 394T190 341T172 252Q172 199 190 163T237 109T302 91ZM215 570Q189 570 172 587T155 629Q155 654 172 671T215 689Q239 689 256 672T274 629Q274 604 257 587T215 570ZM391 570Q366 570 349 587T332 629Q332 654 349 671T391 689Q416 689 433
672T450 629Q450 604 433 587T391 570Z" />
<glyph unicode="&#xf7;" horiz-adv-x="571" d="M74 240V340H497V240H74ZM286 48Q253 48 232 69T210 120Q210 150 231 171T286 192Q320 192 340 171T361 120Q361 90 341 69T286 48ZM286 391Q253 391 232 412T210 462Q210 493 231 514T286 535Q320 535 340 514T361
462Q361 433 341 412T286 391Z" />
<glyph unicode="&#xf8;" horiz-adv-x="595" d="M32 0L466 504H563L129 0H32ZM296 -12Q225 -12 168 21T77 114T44 251Q44 330 77 389T168 482T298 516Q370 516 427 483T517 390T550 252Q550 173 517 114T427 22T296 -12ZM297 91Q333 91 362 109T410 163T428 252Q428
305 411 340T364 394T298 412Q263 412 233 394T185 341T167 252Q167 199 185 163T232 109T297 91Z" />
<glyph unicode="&#xf9;" horiz-adv-x="604" d="M254 -12Q193 -12 150 12T83 86T60 209V504H180V221Q180 156 207 123T291 89Q327 89 355 106T400 155T417 235V504H537V0H431L422 84V84Q399 40 356 14T254 -12ZM400 547L183 660L197 753V753L411 628L400 547Z" />
<glyph unicode="&#xfa;" horiz-adv-x="604" d="M254 -12Q193 -12 150 12T83 86T60 209V504H180V221Q180 156 207 123T291 89Q327 89 355 106T400 155T417 235V504H537V0H431L422 84V84Q399 40 356 14T254 -12ZM194 547L183 628L397 753V753L411 660L194 547Z" />
<glyph unicode="&#xfb;" horiz-adv-x="604" d="M254 -12Q193 -12 150 12T83 86T60 209V504H180V221Q180 156 207 123T291 89Q327 89 355 106T400 155T417 235V504H537V0H431L422 84V84Q399 40 356 14T254 -12ZM153 550V637L297 717L442 637V550L297 633L153 550Z" />
<glyph unicode="&#xfc;" horiz-adv-x="604" d="M254 -12Q193 -12 150 12T83 86T60 209V504H180V221Q180 156 207 123T291 89Q327 89 355 106T400 155T417 235V504H537V0H431L422 84V84Q399 40 356 14T254 -12ZM209 570Q183 570 166 587T149 629Q149 654 166 671T209
689Q233 689 250 672T268 629Q268 604 251 587T209 570ZM385 570Q360 570 343 587T326 629Q326 654 343 671T385 689Q410 689 427 672T444 629Q444 604 427 587T385 570Z" />
<glyph unicode="&#xfd;" horiz-adv-x="590" d="M128 -220L251 56H221L20 504H151L301 162V162L443 504H570L255 -220H128ZM192 547L181 628L395 753V753L409 660L192 547Z" />
<glyph unicode="&#xfe;" horiz-adv-x="646" d="M67 -220V720H187V431Q203 453 225 472T280 504T355 516Q426 516 480 482T566 387T597 251Q597 175 566 116T480 22T355 -12Q298 -12 256 9T187 71V-220H67ZM330 92Q372 92 405 112T456 168T475 251Q475 299 457
335T405 391T330 411Q287 411 255 391T204 335T185 252Q185 204 203 169T254 113T330 92Z" />
<glyph unicode="&#xff;" horiz-adv-x="590" d="M128 -220L251 56H221L20 504H151L301 162V162L443 504H570L255 -220H128ZM208 570Q182 570 165 587T148 629Q148 654 165 671T208 689Q232 689 249 672T267 629Q267 604 250 587T208 570ZM384 570Q359 570 342 587T325
629Q325 654 342 671T384 689Q409 689 426 672T443 629Q443 604 426 587T384 570Z" />
<glyph unicode="&#x2013;" horiz-adv-x="688" d="M76 245V345H612V245H76Z" />
<glyph unicode="&#x2014;" horiz-adv-x="905" d="M76 245V345H829V245H76Z" />
<glyph unicode="&#x2018;" horiz-adv-x="242" d="M30 451L129 700H212L158 451H30Z" />
<glyph unicode="&#x2019;" horiz-adv-x="242" d="M212 700L113 451H30L84 700H212Z" />
<glyph unicode="&#x201a;" horiz-adv-x="235" d="M17 -114L72 131H199L100 -114H17Z" />
<glyph unicode="&#x201c;" horiz-adv-x="428" d="M216 451L315 700H398L343 451H216ZM30 451L129 700H212L158 451H30Z" />
<glyph unicode="&#x201d;" horiz-adv-x="428" d="M212 700L112 451H30L85 700H212ZM398 700L299 451H216L270 700H398Z" />
<glyph unicode="&#x201e;" horiz-adv-x="423" d="M17 -114L72 131H199L100 -114H17ZM206 -114L260 131H387L288 -114H206Z" />
<glyph unicode="&#x2022;" horiz-adv-x="379" d="M189 201Q153 201 123 218T75 266T57 333Q57 371 74 401T122 448T189 466Q226 466 256 449T304 401T322 333Q322 296 305 266T257 219T189 201Z" />
<glyph unicode="&#x2039;" horiz-adv-x="301" d="M135 120L44 295L135 470H249L155 295L249 120H135Z" />
<glyph unicode="&#x203a;" horiz-adv-x="301" d="M166 120H52L146 295L52 470H166L257 295L166 120Z" />
</font>
</defs>
</svg>
