<?xml version="1.0" standalone="no"?>
<!DOCTYPE svg PUBLIC "-//W3C//DTD SVG 1.1//EN" "http://www.w3.org/Graphics/SVG/1.1/DTD/svg11.dtd">
<svg xmlns="http://www.w3.org/2000/svg">
<defs >
<font id="DMSans" horiz-adv-x="577" ><font-face
    font-family="DM Sans 9pt ExtraBold"
    units-per-em="1000"
    panose-1="0 0 0 0 0 0 0 0 0 0"
    ascent="992"
    descent="-310"
    alphabetic="0" />
<glyph unicode=" " horiz-adv-x="232" />
<glyph unicode="!" horiz-adv-x="315" d="M98 231L82 700H232L217 231H98ZM158 -5Q119 -5 96 18T72 75Q72 109 95 132T158 155Q196 155 219 132T243 75Q243 42 220 19T158 -5Z" />
<glyph unicode="&quot;" horiz-adv-x="374" d="M227 536L214 755H334L322 536H227ZM53 536L40 755H160L148 536H53Z" />
<glyph unicode="#" horiz-adv-x="862" d="M448 0L600 728H731L579 0H448ZM137 0L289 728H421L269 0H137ZM30 169V295H767V169H30ZM85 437V562H823V437H85Z" />
<glyph unicode="$" horiz-adv-x="606" d="M269 -87V792H335V-87H269ZM311 -12Q235 -12 176 14T81 90T45 211H193Q194 181 208 157T249 119T310 105Q341 105 363 115T398 143T411 187Q411 215 397 235T357 269T300 294T230 318Q147 345 104 390T60 510Q60 574 90
619T175 688T299 712Q370 712 424 688T509 617T543 508H393Q392 531 380 550T347 582T297 594Q272 595 252 587T219 562T207 520Q207 495 219 479T252 450T303 428T366 406Q419 388 463 364T533 300T560 197Q560 141 531 94T447 17T311 -12Z" />
<glyph unicode="%" horiz-adv-x="913" d="M191 0L583 700H719L327 0H191ZM697 -12Q648 -12 608 10T545 72T521 168Q521 225 544 265T608 326T697 348Q746 348 785 327T848 265T871 168Q871 113 848 73T786 10T697 -12ZM696 83Q715 83 730 93T753 122T762 168Q762
197 754 215T730 244T696 254Q677 254 662 244T639 216T630 168Q630 141 638 122T662 93T696 83ZM218 351Q169 351 129 373T66 435T42 531Q42 588 65 628T129 690T218 712Q267 712 306 690T369 628T392 531Q392 476 369 436T307 373T218 351ZM217 446Q236 446 251
456T274 485T283 531Q283 560 275 579T251 608T218 618Q199 618 184 608T160 579T151 531Q151 504 159 485T183 456T217 446Z" />
<glyph unicode="&amp;" horiz-adv-x="786" d="M596 0L216 377Q169 423 151 460T132 540Q132 588 156 627T227 689T340 712Q406 712 451 688T519 624T542 536H408Q409 571 389 588T338 605Q305 605 285 587T265 541Q265 517 280 492T325 435L762 0H596ZM293 -11Q216
-11 159 15T71 90T40 203Q40 254 60 297T123 373T229 427L281 444L342 357L295 342Q234 323 205 290T176 212Q176 182 191 157T234 118T301 103Q355 103 397 127T479 203Q497 226 514 255T549 322L569 364H711L678 296Q653 244 628 201T573 124Q516 54 448 22T293
-11Z" />
<glyph unicode="&apos;" horiz-adv-x="201" d="M53 536L40 755H160L148 536H53Z" />
<glyph unicode="(" horiz-adv-x="408" d="M238 -145Q182 -88 139 -14T70 148T45 333Q45 431 70 518T138 680T238 811H377V798Q317 734 274 659T207 502T183 333Q183 246 206 164T274 8T377 -132V-145H238Z" />
<glyph unicode=")" horiz-adv-x="408" d="M170 -145H31V-132Q90 -67 134 7T201 164T225 333Q225 420 202 502T134 659T31 798V811H170Q226 755 269 681T337 519T362 333Q362 236 338 148T270 -14T170 -145Z" />
<glyph unicode="*" horiz-adv-x="517" d="M211 360L231 498L123 410L71 501L199 551L72 598L120 685L232 598L210 738H311L289 598L400 685L448 599L319 549L448 500L398 411L289 498L310 360H211Z" />
<glyph unicode="+" horiz-adv-x="582" d="M232 60V518H350V60H232ZM45 231V348H536V231H45Z" />
<glyph unicode="," horiz-adv-x="252" d="M24 -123L81 134H215L115 -123H24Z" />
<glyph unicode="-" horiz-adv-x="579" d="M333 236V353H757V236H333Z" />
<glyph unicode="." horiz-adv-x="258" d="M129 -5Q91 -5 67 18T43 75Q43 109 67 132T129 155Q167 155 191 132T215 75Q215 42 191 19T129 -5Z" />
<glyph unicode="/" horiz-adv-x="430" d="M22 -116L272 781H408L158 -116H22Z" />
<glyph unicode="0" horiz-adv-x="706" d="M353 -12Q257 -12 188 34T82 161T45 350Q45 457 82 538T188 666T353 712Q449 712 517 666T623 539T660 350Q660 243 623 162T518 34T353 -12ZM353 114Q402 114 439 143T497 224T518 350Q518 423 497 475T439 557T353 586Q304
586 267 557T209 476T188 350Q188 277 209 225T267 143T353 114Z" />
<glyph unicode="1" horiz-adv-x="369" d="M156 0V539L31 506V618L216 700H300V0H156Z" />
<glyph unicode="2" horiz-adv-x="578" d="M49 0V103Q112 154 172 204T280 304T356 401T384 494Q384 520 374 543T343 580T288 594Q255 594 232 579T197 537T185 478H50Q52 557 84 609T171 686T293 712Q368 712 419 685T497 610T524 502Q524 456 508 413T462 328T397
250T321 178T243 114H540V0H49Z" />
<glyph unicode="3" horiz-adv-x="604" d="M300 -12Q232 -12 175 13T84 89T47 219H185Q185 187 199 161T239 120T301 105Q335 105 359 118T395 154T407 206Q407 239 391 261T345 296T276 308H224V423H276Q324 423 357 445T390 513Q390 550 366 572T300 594Q252
594 226 567T197 499H61Q64 566 94 614T178 687T300 712Q373 712 424 687T501 618T527 524Q527 482 512 451T470 398T414 368Q453 360 482 338T527 280T544 200Q544 143 516 95T434 17T300 -12Z" />
<glyph unicode="4" horiz-adv-x="655" d="M389 0V124H46V236L371 700H529V246H618V124H529V0H389ZM195 246H398V546V546L195 246Z" />
<glyph unicode="5" horiz-adv-x="623" d="M320 -12Q243 -12 188 15T101 89T65 197H201Q209 159 241 133T321 107Q355 107 381 124T422 172T437 239Q437 279 422 307T381 350T322 365Q282 365 252 345T209 297H74L132 700H527V577H236L208 428Q229 450 265 464T347
479Q404 479 446 459T516 406T558 330T572 241Q572 185 554 139T501 59T421 7T320 -12Z" />
<glyph unicode="6" horiz-adv-x="635" d="M333 -12Q253 -12 199 17T112 95T65 204T50 328Q50 446 83 532T178 665T329 712Q403 712 454 684T533 609T566 509H436Q428 552 400 574T327 597Q286 597 255 572T207 496T187 369Q187 367 187 366T187 362Q202 389 228
409T287 441T357 453Q416 453 466 426T546 347T577 226Q577 161 546 107T460 21T333 -12ZM325 108Q359 108 386 122T428 162T443 221Q443 256 428 281T386 321T324 335Q290 335 263 321T220 281T204 223Q204 189 219 163T262 123T325 108Z" />
<glyph unicode="7" horiz-adv-x="537" d="M109 0L363 580H29V700H507V602L253 0H109Z" />
<glyph unicode="8" horiz-adv-x="635" d="M317 -12Q245 -12 187 14T94 87T59 197Q59 239 73 274T114 336T175 377Q131 399 104 437T76 525Q76 574 103 616T184 685T317 712Q397 712 450 686T531 617T558 525Q558 477 531 438T459 377Q495 362 521 336T561 274T576
197Q576 134 541 87T448 14T317 -12ZM317 104Q377 104 407 134T438 209Q438 258 406 286T317 315Q260 315 228 287T195 209Q195 164 226 134T317 104ZM317 417Q366 417 393 442T421 507Q421 550 394 574T317 599Q268 599 242 575T215 507Q215 468 241 443T317 417Z"
/>
<glyph unicode="9" horiz-adv-x="635" d="M306 -12Q233 -12 182 16T102 91T69 191H199Q208 148 236 126T308 103Q350 103 380 128T428 203T448 327Q448 330 448 332T448 338Q434 311 408 291T348 259T278 247Q220 247 170 274T89 353T58 474Q58 539 89 593T175
679T302 712Q382 712 436 683T523 605T571 496T586 372Q586 255 553 169T458 35T306 -12ZM311 365Q346 365 373 379T416 419T432 477Q432 511 416 537T373 577T310 592Q276 592 249 578T207 538T192 479Q192 445 207 419T249 379T311 365Z" />
<glyph unicode=":" horiz-adv-x="260" d="M129 -5Q91 -5 67 18T43 75Q43 109 67 132T129 155Q167 155 191 132T215 75Q215 42 191 19T129 -5ZM129 357Q91 357 67 380T43 437Q43 471 67 494T129 517Q167 517 191 494T215 437Q215 404 191 381T129 357Z" />
<glyph unicode=";" horiz-adv-x="283" d="M153 357Q115 357 91 380T67 437Q67 471 91 494T153 517Q191 517 215 494T239 437Q239 404 215 381T153 357ZM31 -123L88 134H222L122 -123H31Z" />
<glyph unicode="&lt;" horiz-adv-x="582" d="M488 55H312L94 279V279L312 504H488L270 279L488 55Z" />
<glyph unicode="=" horiz-adv-x="582" d="M75 341V464H507V341H75ZM75 116V238H507V116H75Z" />
<glyph unicode="&gt;" horiz-adv-x="582" d="M94 55L313 279L94 504H270L488 279V279L270 55H94Z" />
<glyph unicode="?" horiz-adv-x="540" d="M141 229L137 390H187Q224 390 256 395T313 411T350 445T364 501Q364 531 352 552T318 585T265 597Q234 597 212 585T177 552T165 502H33Q32 562 60 609T141 684T267 712Q336 712 388 688T470 616T500 501Q500 434 471
389T389 321T268 298L265 229H141ZM204 -5Q166 -5 142 18T118 75Q118 109 142 132T204 155Q242 155 265 132T289 75Q289 42 266 19T204 -5Z" />
<glyph unicode="@" horiz-adv-x="1050" d="M445 -216Q335 -216 252 -173T122 -49T76 139Q76 250 114 344T221 509T386 619T595 658Q711 658 796 614T928 492T975 309Q975 248 960 192T914 92T840 21T739 -5Q669 -5 636 35T612 142L615 174L635 118Q611 61 560
27T445 -7Q372 -7 330 38T288 162Q288 217 304 266T352 355T425 418T520 441Q577 441 609 413T649 332L628 317L648 433H762L716 169Q710 132 718 109T758 86Q786 86 806 106T840 158T860 229T867 305Q867 385 833 443T734 532T581 563Q493 563 420 531T294 443T212
311T183 150Q183 65 216 4T312 -88T461 -120Q507 -120 552 -111T634 -84L657 -175Q609 -196 556 -206T445 -216ZM490 95Q523 95 550 114T595 166T615 239Q616 268 607 290T580 326T532 340Q505 340 482 327T444 293T419 243T410 185Q410 145 430 120T490 95Z" />
<glyph unicode="A" horiz-adv-x="713" d="M22 0L277 700H436L691 0H543L356 541V541L168 0H22ZM134 157L171 266H531L567 157H134Z" />
<glyph unicode="B" horiz-adv-x="641" d="M68 0V700H359Q432 700 482 677T558 614T584 519Q584 467 561 431T501 376T418 353L434 364Q482 362 519 338T578 276T600 191Q600 135 573 92T495 24T369 0H68ZM208 114H347Q400 114 429 138T458 208Q458 253 428 279T345
305H208V114ZM208 409H336Q387 409 414 432T441 499Q441 541 414 564T335 588H208V409Z" />
<glyph unicode="C" horiz-adv-x="740" d="M384 -12Q279 -12 203 33T86 160T45 349Q45 456 86 538T203 666T384 712Q511 712 593 648T695 468H541Q529 524 489 554T382 585Q321 585 278 557T211 475T188 349Q188 276 211 224T277 143T382 114Q448 114 488 142T541
222H695Q675 113 593 51T384 -12Z" />
<glyph unicode="D" horiz-adv-x="709" d="M68 0V700H306Q427 700 507 657T625 535T664 350Q664 245 626 166T508 44T305 0H68ZM208 120H298Q382 120 430 147T500 226T521 350Q521 422 500 473T431 553T298 581H208V120Z" />
<glyph unicode="E" horiz-adv-x="585" d="M68 0V700H531V587H208V410H501V301H208V113H531V0H68Z" />
<glyph unicode="F" horiz-adv-x="558" d="M68 0V700H527V587H208V406H462V296H208V0H68Z" />
<glyph unicode="G" horiz-adv-x="780" d="M376 -12Q276 -12 202 32T87 157T45 345Q45 453 87 535T209 665T399 712Q523 712 604 653T710 488H554Q539 533 500 558T398 583Q330 583 283 554T212 472T188 344Q188 270 212 218T282 139T390 112Q480 112 526 160T582
284H413V388H723V0H594L583 86V86Q561 55 532 33T465 0T376 -12Z" />
<glyph unicode="H" horiz-adv-x="717" d="M509 0V700H649V0H509ZM68 0V700H208V0H68ZM190 301V414H532V301H190Z" />
<glyph unicode="I" horiz-adv-x="276" d="M68 0V700H208V0H68Z" />
<glyph unicode="J" horiz-adv-x="545" d="M259 -12Q190 -12 138 14T58 91T29 215H168Q168 183 178 160T207 125T255 113Q284 113 302 124T328 157T337 207V700H477V207Q477 101 418 45T259 -12Z" />
<glyph unicode="K" horiz-adv-x="660" d="M68 0V700H208V427L458 700H630L373 423L638 0H467L273 315L208 245V0H68Z" />
<glyph unicode="L" horiz-adv-x="562" d="M68 0V700H208V109H514V0H68Z" />
<glyph unicode="M" horiz-adv-x="890" d="M68 0V700H236L447 269V269L655 700H822V0H682V463V463L501 98H390L208 463V463V0H68Z" />
<glyph unicode="N" horiz-adv-x="733" d="M68 0V700H208L525 225V225V700H665V0H525L208 474V474V0H68Z" />
<glyph unicode="O" horiz-adv-x="785" d="M392 -12Q290 -12 212 34T90 161T45 350Q45 457 89 538T212 666T392 712Q495 712 573 666T695 539T739 350Q739 243 696 162T574 34T392 -12ZM392 114Q455 114 501 143T572 224T597 350Q597 423 572 475T501 557T392 586Q330
586 285 557T214 476T188 350Q188 277 213 225T284 143T392 114Z" />
<glyph unicode="P" horiz-adv-x="618" d="M68 0V700H334Q419 700 475 671T558 593T586 480Q586 422 560 373T477 292T334 261H208V0H68ZM208 374H325Q388 374 415 403T443 480Q443 530 416 558T325 586H208V374Z" />
<glyph unicode="Q" horiz-adv-x="785" d="M555 -111L299 292H460L723 -111H555ZM392 -12Q290 -12 212 34T90 161T45 350Q45 457 89 538T212 666T392 712Q495 712 573 666T695 539T739 350Q739 243 696 162T574 34T392 -12ZM392 114Q455 114 501 143T572 224T597
350Q597 423 572 475T501 557T392 586Q330 586 285 557T214 476T188 350Q188 277 213 225T284 143T392 114Z" />
<glyph unicode="R" horiz-adv-x="634" d="M68 0V700H333Q418 700 473 671T556 594T584 485Q584 429 558 380T475 302T332 272H208V0H68ZM430 0L287 307H439L590 0H430ZM208 374H325Q384 374 412 403T441 480Q441 527 413 555T324 583H208V374Z" />
<glyph unicode="S" horiz-adv-x="606" d="M311 -12Q235 -12 176 14T81 90T45 211H193Q194 181 208 157T249 119T310 105Q341 105 363 115T398 143T411 187Q411 215 397 235T357 269T300 294T230 318Q147 345 104 390T60 510Q60 574 90 619T175 688T299 712Q370
712 424 688T509 617T543 508H393Q392 531 380 550T347 582T297 594Q272 595 252 587T219 562T207 520Q207 495 219 479T252 450T303 428T366 406Q419 388 463 364T533 300T560 197Q560 141 531 94T447 17T311 -12Z" />
<glyph unicode="T" horiz-adv-x="601" d="M231 0V587H27V700H574V587H370V0H231Z" />
<glyph unicode="U" horiz-adv-x="687" d="M341 -12Q263 -12 200 19T100 112T62 271V700H202V270Q202 219 219 185T267 134T344 116Q389 116 420 133T469 185T486 270V700H626V271Q626 175 588 113T484 19T341 -12Z" />
<glyph unicode="V" horiz-adv-x="709" d="M268 0L14 700H164L355 142V142L547 700H695L441 0H268Z" />
<glyph unicode="W" horiz-adv-x="1023" d="M209 0L26 700H176L294 158V158L436 700H590L727 158V158L847 700H998L810 0H643L511 503V503L375 0H209Z" />
<glyph unicode="X" horiz-adv-x="676" d="M33 0L254 355L30 700H192L344 465V465L482 700H640L421 349L646 0H485L331 239V239L192 0H33Z" />
<glyph unicode="Y" horiz-adv-x="640" d="M250 0V244L13 700H172L335 357H308L470 700H627L390 244V0H250Z" />
<glyph unicode="Z" horiz-adv-x="581" d="M49 0V107L369 584H51V700H530V593L209 116H532V0H49Z" />
<glyph unicode="[" horiz-adv-x="383" d="M68 -175V811H329V698H199V-61H329V-175H68Z" />
<glyph unicode="\" horiz-adv-x="430" d="M408 -116H272L22 781H158L408 -116Z" />
<glyph unicode="]" horiz-adv-x="383" d="M315 -175H55V-61H184V698H55V811H315V-175Z" />
<glyph unicode="^" horiz-adv-x="682" d="M35 199L274 700H409L647 199H506L342 542V542L176 199H35Z" />
<glyph unicode="_" horiz-adv-x="732" d="M77 -173V-39H654V-173H77Z" />
<glyph unicode="`" horiz-adv-x="237" d="M224 547L0 658L16 764V764L237 639L224 547Z" />
<glyph unicode="a" horiz-adv-x="590" d="M236 -12Q174 -12 133 8T72 63T52 140Q52 185 75 220T146 275T266 295H390Q390 331 381 354T351 390T296 402Q259 402 234 386T202 338H66Q72 392 102 431T182 493T297 516Q368 516 420 492T501 423T530 312V0H412L396
76V76Q386 56 371 40T335 13T291 -5T236 -12ZM270 96Q295 96 315 104T349 129T372 165T384 210V211H283Q254 211 236 204T208 183T199 152Q199 134 208 121T233 102T270 96Z" />
<glyph unicode="b" horiz-adv-x="658" d="M367 -12Q328 -12 298 -3T245 24T206 63V63L190 0H66V720H206V435Q229 470 268 493T366 516Q435 516 489 482T575 388T607 251Q607 176 576 116T490 22T367 -12ZM333 110Q371 110 401 128T448 178T465 251Q465 293 448
325T401 375T333 394Q294 394 265 376T218 326T201 252Q201 210 218 178T264 128T333 110Z" />
<glyph unicode="c" horiz-adv-x="610" d="M311 -12Q235 -12 176 22T84 115T50 250Q50 328 83 387T176 481T312 516Q409 516 475 465T560 323H411Q403 357 376 376T310 396Q276 396 250 379T208 329T193 252Q193 218 201 192T225 146T263 117T310 107Q336 107 356
115T391 140T411 180H560Q542 92 475 40T311 -12Z" />
<glyph unicode="d" horiz-adv-x="657" d="M290 -12Q221 -12 167 22T82 116T50 251Q50 328 81 387T168 481T293 516Q347 516 387 497T452 441V720H592V0H468L452 68V68Q437 47 415 29T362 -1T290 -12ZM324 110Q363 110 393 128T439 178T456 252Q456 294 440 326T393
376T324 394Q286 394 256 376T210 326T193 253Q193 211 209 179T256 128T324 110Z" />
<glyph unicode="e" horiz-adv-x="605" d="M309 -12Q233 -12 175 20T83 111T50 247Q50 325 82 385T173 481T310 516Q385 516 441 483T529 394T561 265Q561 255 561 243T558 217H150V302H419Q416 348 386 375T310 403Q276 403 248 387T204 340T188 261V232Q188 193
203 164T245 118T308 102Q344 102 367 117T403 156H546Q532 109 499 71T417 11T309 -12Z" />
<glyph unicode="f" horiz-adv-x="374" d="M88 0V546Q88 610 110 648T171 703T265 720H328V601H287Q255 601 242 589T228 546V0H88ZM20 387V504H335V387H20Z" />
<glyph unicode="g" horiz-adv-x="600" d="M284 -232Q212 -232 158 -215T75 -162T45 -74Q45 -38 63 -6T118 51T206 94L257 24Q211 10 191 -12T170 -60Q170 -82 185 -97T225 -119T283 -127Q314 -127 337 -120T373 -97T386 -62Q386 -35 368 -19T294 1Q244 5 205 12T135
30T84 54T50 80V103L158 220L257 189L128 61L169 131Q180 125 190 120T217 110T258 102T323 94Q389 88 431 70T493 19T514 -59Q514 -104 490 -143T414 -207T284 -232ZM285 148Q222 148 176 172T106 238T81 332Q81 383 105 424T176 491T285 516Q349 516 394 491T464
425T488 332Q488 280 464 239T395 173T285 148ZM285 254Q322 254 345 273T369 331Q369 369 346 388T285 408Q248 408 224 389T200 331Q200 293 224 274T285 254ZM368 406L346 504H554V422L368 406Z" />
<glyph unicode="h" horiz-adv-x="622" d="M66 0V720H206V430V430Q230 469 271 492T368 516Q431 516 474 490T539 413T562 288V0H423V275Q423 334 398 366T321 398Q288 398 262 382T221 337T206 267V0H66Z" />
<glyph unicode="i" horiz-adv-x="277" d="M69 0V504H209V0H69ZM139 569Q101 569 77 591T53 647Q53 681 77 703T139 725Q177 725 201 703T225 647Q225 614 201 592T139 569Z" />
<glyph unicode="j" horiz-adv-x="277" d="M-29 -220V-101H12Q44 -101 57 -89T70 -47V504H210V-46Q210 -109 188 -147T127 -203T33 -220H-29ZM140 569Q102 569 79 591T55 647Q55 681 78 703T141 725Q179 725 202 703T226 647Q226 614 203 592T140 569Z" />
<glyph unicode="k" horiz-adv-x="586" d="M398 0L185 276L375 504H541L291 217V328L572 0H398ZM66 0V720H206V0H66Z" />
<glyph unicode="l" horiz-adv-x="271" d="M66 0V720H206V0H66Z" />
<glyph unicode="m" horiz-adv-x="946" d="M66 0V504H189L200 437V437Q224 473 263 494T355 516Q392 516 422 506T475 477T514 430V430Q543 470 588 493T686 516Q752 516 796 490T862 413T885 289V0H746V277Q746 335 723 366T652 398Q620 398 596 383T559 338T545
268V0H406V277Q406 335 383 366T310 398Q280 398 256 383T219 338T206 268V0H66Z" />
<glyph unicode="n" horiz-adv-x="621" d="M66 0V504H189L199 422V422Q222 464 264 490T367 516Q429 516 472 490T537 413T560 290V0H421V277Q421 335 397 366T319 398Q287 398 261 383T221 339T206 269V0H66Z" />
<glyph unicode="o" horiz-adv-x="612" d="M305 -12Q233 -12 175 21T84 115T50 251Q50 329 83 389T175 482T306 516Q379 516 437 483T528 390T562 252Q562 174 528 115T437 22T305 -12ZM305 109Q338 109 363 125T403 173T419 252Q419 299 404 331T364 379T306 395Q275
395 249 379T208 331T193 252Q193 205 208 173T248 125T305 109Z" />
<glyph unicode="p" horiz-adv-x="658" d="M66 -220V504H190L206 436V436Q221 457 243 475T295 505T366 516Q436 516 490 481T576 387T607 251Q607 175 575 116T489 22T367 -12Q312 -12 272 8T206 64V-220H66ZM333 110Q371 110 401 128T448 178T465 251Q465 293
448 325T401 375T333 394Q294 394 265 376T218 325T201 252Q201 210 218 178T264 128T333 110Z" />
<glyph unicode="q" horiz-adv-x="657" d="M452 -220V68Q428 33 389 11T293 -12Q223 -12 168 22T82 117T50 252Q50 328 82 387T169 481T293 516Q330 516 360 507T413 480T452 440V440L468 504H592V-220H452ZM324 110Q363 110 393 128T439 178T456 252Q456 294 440
326T393 376T324 394Q286 394 256 376T210 326T193 253Q193 211 209 179T256 128T324 110Z" />
<glyph unicode="r" horiz-adv-x="413" d="M66 0V504H190L203 411V411Q222 444 249 467T312 503T390 516V368H343Q313 368 288 361T244 339T216 297T206 230V0H66Z" />
<glyph unicode="s" horiz-adv-x="535" d="M273 -12Q203 -12 152 10T72 71T38 159H178Q182 141 193 127T224 103T271 94Q297 94 313 101T338 121T347 147Q347 167 335 178T300 196T245 209Q209 217 175 227T113 253T69 295T53 357Q53 402 77 438T148 495T260 516Q352
516 405 475T469 362H337Q332 384 312 396T259 408Q225 408 207 396T188 364Q188 351 200 341T234 323T290 308Q349 296 393 281T462 237T487 154Q488 106 462 68T387 9T273 -12Z" />
<glyph unicode="t" horiz-adv-x="437" d="M295 0Q242 0 202 17T139 73T117 179V387H30V504H117L132 643H256V504H388V387H257V178Q257 145 271 132T321 119H387V0H295Z" />
<glyph unicode="u" horiz-adv-x="621" d="M254 -12Q193 -12 150 13T83 89T60 212V504H200V226Q200 167 224 137T301 106Q334 106 360 121T400 164T415 235V504H555V0H432L421 81V81Q399 39 357 14T254 -12Z" />
<glyph unicode="v" horiz-adv-x="569" d="M199 0L16 504H163L285 132V132L408 504H553L370 0H199Z" />
<glyph unicode="w" horiz-adv-x="826" d="M164 0L16 504H154L251 97L225 98L335 504H490L601 98L575 97L671 504H810L662 0H516L398 418H427L309 0H164Z" />
<glyph unicode="x" horiz-adv-x="578" d="M19 0L201 252L19 504H170L290 335V335L409 504H559L377 252L559 0H409L290 170V170L170 0H19Z" />
<glyph unicode="y" horiz-adv-x="609" d="M131 -220L252 56H222L20 504H172L315 185V185L440 504H589L279 -220H131Z" />
<glyph unicode="z" horiz-adv-x="493" d="M33 0V112L284 388H36V504H445V391L191 116H450V0H33Z" />
<glyph unicode="{" horiz-adv-x="475" d="M344 -179Q265 -179 216 -136T167 -9Q167 24 172 52T182 109T188 171Q188 195 179 214T147 245T87 261V372Q125 376 147 387T178 418T188 462Q188 496 183 524T172 580T167 642Q167 725 216 768T344 811H410V695H370Q335
695 319 679T302 628Q302 604 306 578T315 523T320 456Q320 404 295 367T211 317V315Q269 304 294 267T320 176Q320 139 316 110T307 55T302 4Q302 -30 318 -46T370 -63H410V-179H344Z" />
<glyph unicode="|" horiz-adv-x="276" d="M68 -100V720H208V-100H68Z" />
<glyph unicode="}" horiz-adv-x="475" d="M131 -179H64V-63H104Q139 -63 156 -47T173 4Q173 29 169 54T160 109T155 176Q155 229 181 266T263 315V317Q207 329 181 366T155 456Q155 493 159 522T168 578T173 628Q173 663 156 679T104 695H64V811H131Q210 811 259
768T308 642Q308 608 303 580T292 524T286 462Q286 437 296 418T328 388T388 372V261Q350 257 328 245T296 214T286 171Q286 138 291 110T302 53T308 -9Q308 -92 259 -135T131 -179Z" />
<glyph unicode="~" horiz-adv-x="582" d="M378 222Q346 222 322 232T276 255T236 279T194 290Q168 290 152 273T130 223H26Q36 290 60 332T121 394T201 414Q233 414 258 404T304 380T345 357T387 346Q414 346 430 363T450 413H555Q546 347 522 305T461 242T378 222Z" />
<glyph unicode="&#xa0;" horiz-adv-x="232" />
<glyph unicode="&#xa1;" horiz-adv-x="315" d="M98 280H217L232 -189H82L98 280ZM158 516Q196 516 219 493T243 436Q243 402 220 379T158 355Q119 355 96 378T72 436Q72 469 95 492T158 516Z" />
<glyph unicode="&#xa2;" horiz-adv-x="610" d="M248 -104V70H376V-104H248ZM248 433V608H376V433H248ZM311 -12Q235 -12 176 22T84 115T50 250Q50 328 83 387T176 481T312 516Q409 516 475 465T560 323H411Q403 357 376 376T310 396Q276 396 250 379T208 329T193
252Q193 218 201 192T225 146T263 117T310 107Q336 107 356 115T391 140T411 180H560Q542 92 475 40T311 -12Z" />
<glyph unicode="&#xa3;" horiz-adv-x="630" d="M75 0V81Q101 107 119 133T146 192T155 266Q155 294 148 320T130 375T111 434T103 498Q103 565 132 612T214 686T335 712Q412 712 463 683T540 604T569 493H440Q439 538 413 567T337 597Q310 597 287 586T250 551T236
493Q236 469 243 442T261 387T280 328T288 268Q288 227 273 187T219 111H573V0H75ZM41 295V390H446V295H41Z" />
<glyph unicode="&#xa4;" horiz-adv-x="563" d="M282 118Q224 118 181 140T112 202T87 298Q87 353 112 393T182 454T283 476Q340 476 384 455T453 393T479 298Q479 243 453 203T383 140T282 118ZM120 77L62 135L156 228L224 181L120 77ZM443 77L351 169L412 224L501
135L443 77ZM282 205Q302 205 320 214T351 244T364 297Q364 330 352 350T322 380T282 390Q261 390 243 381T213 351T201 297Q201 265 212 245T242 215T282 205ZM153 372L62 462L120 520L217 423L153 372ZM402 363L346 422L443 520L501 462L402 363Z" />
<glyph unicode="&#xa5;" horiz-adv-x="654" d="M57 149V244H597V149H57ZM284 318H57V414H281L284 318ZM401 318L405 414H597V318H401ZM258 0V244L21 700H180L342 357H315L477 700H634L398 244V0H258Z" />
<glyph unicode="&#xa6;" horiz-adv-x="276" d="M68 395V720H208V395H68ZM68 -100V225H208V-100H68Z" />
<glyph unicode="&#xa7;" horiz-adv-x="620" d="M306 -232Q235 -232 181 -208T95 -137T61 -28H212Q213 -51 224 -70T257 -102T307 -114Q346 -115 371 -96T397 -40Q397 -15 386 0T352 26T301 46T238 67Q186 85 142 111T71 176T45 276Q45 316 59 351T100 414Q87 434
80 457T73 510Q73 574 104 619T189 688T312 712Q384 712 438 688T523 617T557 508H407Q406 531 394 550T361 582T311 594Q272 595 247 576T221 520Q221 495 233 480T266 453T317 433T380 412Q433 394 477 369T547 304T574 204Q574 165 560 130T518 66Q532 47 538
23T545 -30Q545 -92 515 -137T430 -207T306 -232ZM406 142Q415 152 420 165T425 194Q425 218 414 236T381 267T331 292T266 316Q249 322 236 327T212 338Q203 328 198 315T193 286Q193 267 200 253T221 226T254 204T297 184T351 164Q366 159 379 154T406 142Z"
/>
<glyph unicode="&#xa8;" horiz-adv-x="342" d="M264 563Q236 563 218 581T199 627Q199 655 217 674T264 693Q292 693 310 674T329 627Q329 600 311 582T264 563ZM78 563Q51 563 32 581T13 627Q13 655 32 674T78 693Q106 693 124 674T143 627Q143 600 125 582T78 563Z" />
<glyph unicode="&#xa9;" horiz-adv-x="784" d="M393 -6Q289 -6 210 40T87 167T43 352Q43 457 87 537T210 663T393 709Q497 709 575 664T698 538T742 352Q742 248 698 167T576 40T393 -6ZM393 125Q331 125 281 152T202 231T173 352Q173 423 202 474T281 552T393
580Q471 580 527 538T601 420H479Q469 450 446 467T390 484Q360 484 338 470T302 426T288 352Q288 309 301 280T337 235T390 220Q425 220 447 237T479 284H601Q584 212 528 169T393 125ZM392 43Q484 43 551 82T654 190T690 352Q690 446 654 515T551 622T392 660Q301
660 235 622T132 515T95 352Q95 260 131 191T234 82T392 43Z" />
<glyph unicode="&#xaa;" horiz-adv-x="509" d="M220 348Q173 348 135 370T74 434T52 530Q52 585 74 625T133 688T217 710Q264 710 294 694T342 652L351 705H449V353H351L342 405V405Q326 380 296 364T220 348ZM251 432Q276 432 296 443T329 476T342 529Q342 576
316 601T251 626Q215 626 189 601T162 529Q162 482 188 457T251 432Z" />
<glyph unicode="&#xab;" horiz-adv-x="520" d="M338 120L250 295L338 470H470L378 295L470 120H338ZM130 120L41 295L130 470H261L170 295L261 120H130Z" />
<glyph unicode="&#xac;" horiz-adv-x="582" d="M451 195V331H-8V438H591V195H451Z" />
<glyph unicode="&#xae;" horiz-adv-x="510" d="M256 290Q194 290 146 317T71 391T44 501Q44 563 71 610T146 685T256 712Q317 712 364 685T439 611T466 501Q466 439 439 392T365 317T256 290ZM287 397L232 492H299L360 397H287ZM256 338Q304 338 339 359T394 416T414
501Q414 549 395 585T340 642T256 663Q207 663 172 643T116 586T96 501Q96 453 116 417T171 359T256 338ZM168 397V610H274Q308 610 328 592T349 542Q349 511 329 493T274 474H232V397H168ZM231 519H265Q274 519 280 523T286 538Q286 548 280 552T265 556H231V519Z"
/>
<glyph unicode="&#xaf;" horiz-adv-x="403" d="M11 575V674H392V575H11Z" />
<glyph unicode="&#xb0;" horiz-adv-x="365" d="M182 421Q143 421 110 439T57 489T37 565Q37 611 57 643T111 694T183 712Q222 712 255 694T307 644T327 565Q327 522 307 489T254 439T182 421ZM182 508Q201 508 219 522T237 567Q237 596 220 610T183 625Q163 625
146 611T128 567Q128 537 145 523T182 508Z" />
<glyph unicode="&#xb1;" horiz-adv-x="582" d="M42 0V107H540V0H42ZM232 173V537H350V173H232ZM42 297V414H540V297H42Z" />
<glyph unicode="&#xb2;" horiz-adv-x="364" d="M38 352V431L156 511Q184 531 200 551T216 596Q216 615 206 625T181 635Q163 635 153 624T140 591H34Q37 643 77 678T190 713Q237 713 268 697T314 656T329 603Q329 565 303 537T219 476L151 436H327V352H38Z" />
<glyph unicode="&#xb3;" horiz-adv-x="358" d="M179 348Q101 348 62 379T19 464H128Q130 450 136 441T152 428T174 424Q193 424 205 434T217 464Q217 485 203 495T167 506H129V557H163Q186 557 199 567T212 598Q212 615 201 625T169 635Q150 635 139 626T125 599H24Q26
629 43 655T94 697T180 713Q245 713 285 683T325 609Q325 578 308 559T258 532V529Q292 519 311 500T330 447Q330 403 289 376T179 348Z" />
<glyph unicode="&#xb4;" horiz-adv-x="237" d="M13 547L0 639L221 764V764L237 658L13 547Z" />
<glyph unicode="&#xb5;" horiz-adv-x="628" d="M66 -220V496H206V232Q206 171 230 139T308 106Q342 106 367 122T408 168T423 240V496H563V0H440L429 82V82Q406 40 363 14T260 -12Q245 -12 231 -9T206 0V-220H66Z" />
<glyph unicode="&#xb6;" horiz-adv-x="659" d="M287 -100V280H269Q186 280 134 309T57 386T32 489Q32 546 56 593T133 670T269 700H591V-100H473V593H404V-100H287Z" />
<glyph unicode="&#xb7;" horiz-adv-x="258" d="M129 244Q91 244 67 267T43 324Q43 359 67 382T129 405Q167 405 191 382T215 324Q215 291 191 268T129 244Z" />
<glyph unicode="&#xb8;" horiz-adv-x="270" d="M0 -264V-185H117Q142 -185 154 -177T167 -151Q167 -134 155 -127T117 -119H54V7H140V-46Q173 -46 202 -57T251 -91T270 -154Q270 -191 251 -215T203 -252T138 -264H0Z" />
<glyph unicode="&#xb9;" horiz-adv-x="241" d="M93 352V604L23 588V654L140 704H200V352H93Z" />
<glyph unicode="&#xba;" horiz-adv-x="489" d="M243 349Q186 349 143 372T75 436T50 531Q50 585 74 626T143 689T244 712Q302 712 346 690T414 626T439 531Q439 477 414 436T345 372T243 349ZM243 433Q267 433 286 444T317 476T329 530Q329 564 318 585T287 618T243
629Q220 629 201 618T171 586T160 530Q160 498 171 477T201 444T243 433Z" />
<glyph unicode="&#xbb;" horiz-adv-x="520" d="M181 120H50L142 295L50 470H181L270 295L181 120ZM390 120H258L350 295L258 470H390L478 295L390 120Z" />
<glyph unicode="&#xbc;" horiz-adv-x="851" d="M93 352V604L23 588V654L140 704H200V352H93ZM139 0L530 700H667L275 0H139ZM689 0V60H525V130L678 348H792V132H829V60H792V0H689ZM630 132H697V235V235L630 132Z" />
<glyph unicode="&#xbd;" horiz-adv-x="886" d="M93 352V604L23 588V654L140 704H200V352H93ZM139 0L530 700H667L275 0H139ZM560 0V79L678 159Q706 179 722 199T738 244Q738 263 728 273T703 283Q685 283 675 272T662 239H556Q559 291 599 326T712 361Q759 361
790 345T836 304T851 251Q851 213 825 185T741 124L673 84H849V0H560Z" />
<glyph unicode="&#xbe;" horiz-adv-x="936" d="M179 348Q101 348 62 379T19 464H128Q130 450 136 441T152 428T174 424Q193 424 205 434T217 464Q217 485 203 495T167 506H129V557H163Q186 557 199 567T212 598Q212 615 201 625T169 635Q150 635 139 626T125 599H24Q26
629 43 655T94 697T180 713Q245 713 285 683T325 609Q325 578 308 559T258 532V529Q292 519 311 500T330 447Q330 403 289 376T179 348ZM223 0L614 700H751L359 0H223ZM774 0V60H610V130L763 348H877V132H914V60H877V0H774ZM715 132H782V235V235L715 132Z" />
<glyph unicode="&#xbf;" horiz-adv-x="540" d="M399 282L403 120H353Q316 120 284 116T227 100T190 66T176 9Q176 -20 188 -41T222 -74T274 -86Q306 -86 328 -75T363 -42T375 9H507Q508 -51 480 -98T399 -173T272 -201Q205 -201 153 -177T70 -105T40 9Q40 78 69
122T151 189T272 212L275 282H399ZM336 516Q374 516 398 493T422 436Q422 402 398 379T336 355Q298 355 275 378T251 436Q251 469 274 492T336 516Z" />
<glyph unicode="&#xc0;" horiz-adv-x="713" d="M22 0L277 700H436L691 0H543L356 541V541L168 0H22ZM134 157L171 266H531L567 157H134ZM462 743L238 854L254 960V960L475 835L462 743Z" />
<glyph unicode="&#xc1;" horiz-adv-x="713" d="M22 0L277 700H436L691 0H543L356 541V541L168 0H22ZM134 157L171 266H531L567 157H134ZM251 743L238 835L459 960V960L475 854L251 743Z" />
<glyph unicode="&#xc2;" horiz-adv-x="713" d="M22 0L277 700H436L691 0H543L356 541V541L168 0H22ZM134 157L171 266H531L567 157H134ZM208 744V844L357 923L505 844V744L357 827L208 744Z" />
<glyph unicode="&#xc3;" horiz-adv-x="713" d="M22 0L277 700H436L691 0H543L356 541V541L168 0H22ZM134 157L171 266H531L567 157H134ZM420 750Q391 750 371 761T333 784T295 796Q278 796 267 785T251 751H178Q189 820 221 851T301 882Q330 882 350 871T388 848T426
836Q443 836 454 847T469 881H543Q533 813 501 782T420 750Z" />
<glyph unicode="&#xc4;" horiz-adv-x="713" d="M22 0L277 700H436L691 0H543L356 541V541L168 0H22ZM134 157L171 266H531L567 157H134ZM264 767Q236 767 218 785T199 831Q199 859 217 878T264 897Q292 897 310 878T329 831Q329 804 311 786T264 767ZM450 767Q422
767 404 785T385 831Q385 859 403 878T450 897Q477 897 496 878T515 831Q515 804 496 786T450 767Z" />
<glyph unicode="&#xc5;" horiz-adv-x="713" d="M22 0L277 700H436L691 0H543L356 541V541L168 0H22ZM134 157L171 266H531L567 157H134ZM357 748Q309 748 275 778T241 863Q241 916 275 946T357 977Q405 977 439 947T474 863Q474 809 440 779T357 748ZM357 810Q378
810 393 824T408 863Q408 887 394 901T357 915Q337 915 322 902T306 863Q306 839 321 825T357 810Z" />
<glyph unicode="&#xc6;" horiz-adv-x="948" d="M22 0L395 700H895V589H629V410H865V303H629V111H895V0H489V594V594L174 0H22ZM165 133L224 240H555V133H165Z" />
<glyph unicode="&#xc7;" horiz-adv-x="740" d="M384 -12Q279 -12 203 33T86 160T45 349Q45 456 86 538T203 666T384 712Q511 712 593 648T695 468H541Q529 524 489 554T382 585Q321 585 278 557T211 475T188 349Q188 276 211 224T277 143T382 114Q448 114 488
142T541 222H695Q675 113 593 51T384 -12ZM279 -267V-188H396Q421 -188 433 -180T446 -154Q446 -137 434 -130T396 -122H333V4H419V-49Q452 -49 481 -60T530 -94T549 -157Q549 -194 530 -218T481 -255T416 -267H279Z" />
<glyph unicode="&#xc8;" horiz-adv-x="585" d="M68 0V700H531V587H208V410H501V301H208V113H531V0H68ZM405 743L181 854L197 960V960L418 835L405 743Z" />
<glyph unicode="&#xc9;" horiz-adv-x="585" d="M68 0V700H531V587H208V410H501V301H208V113H531V0H68ZM194 743L181 835L402 960V960L418 854L194 743Z" />
<glyph unicode="&#xca;" horiz-adv-x="585" d="M68 0V700H531V587H208V410H501V301H208V113H531V0H68ZM151 744V844L300 923L448 844V744L300 827L151 744Z" />
<glyph unicode="&#xcb;" horiz-adv-x="585" d="M68 0V700H531V587H208V410H501V301H208V113H531V0H68ZM207 767Q179 767 161 785T142 831Q142 859 160 878T207 897Q235 897 253 878T272 831Q272 804 254 786T207 767ZM393 767Q365 767 347 785T328 831Q328 859
346 878T393 897Q420 897 439 878T458 831Q458 804 439 786T393 767Z" />
<glyph unicode="&#xcc;" horiz-adv-x="276" d="M68 0V700H208V0H68ZM244 743L20 854L36 960V960L257 835L244 743Z" />
<glyph unicode="&#xcd;" horiz-adv-x="276" d="M68 0V700H208V0H68ZM33 743L20 835L241 960V960L257 854L33 743Z" />
<glyph unicode="&#xce;" horiz-adv-x="276" d="M68 0V700H208V0H68ZM246 744V844L395 923L543 844V744L395 827L246 744Z" />
<glyph unicode="&#xcf;" horiz-adv-x="276" d="M68 0V700H208V0H68ZM302 767Q274 767 256 785T237 831Q237 859 255 878T302 897Q330 897 348 878T367 831Q367 804 349 786T302 767ZM488 767Q460 767 442 785T423 831Q423 859 441 878T488 897Q515 897 534 878T553
831Q553 804 534 786T488 767Z" />
<glyph unicode="&#xd0;" horiz-adv-x="720" d="M5 291V410H387V291H5ZM79 0V700H316Q438 700 517 657T635 535T674 350Q674 245 636 166T518 44T316 0H79ZM219 120H308Q393 120 441 147T510 226T531 350Q531 422 511 473T442 553T308 581H219V120Z" />
<glyph unicode="&#xd1;" horiz-adv-x="733" d="M68 0V700H208L525 225V225V700H665V0H525L208 474V474V0H68ZM430 750Q401 750 381 761T343 784T305 796Q288 796 277 785T261 751H188Q199 820 231 851T311 882Q340 882 360 871T398 848T436 836Q453 836 464 847T479
881H553Q543 813 511 782T430 750Z" />
<glyph unicode="&#xd2;" horiz-adv-x="785" d="M392 -12Q290 -12 212 34T90 161T45 350Q45 457 89 538T212 666T392 712Q495 712 573 666T695 539T739 350Q739 243 696 162T574 34T392 -12ZM392 114Q455 114 501 143T572 224T597 350Q597 423 572 475T501 557T392
586Q330 586 285 557T214 476T188 350Q188 277 213 225T284 143T392 114ZM498 743L274 854L290 960V960L511 835L498 743Z" />
<glyph unicode="&#xd3;" horiz-adv-x="785" d="M392 -12Q290 -12 212 34T90 161T45 350Q45 457 89 538T212 666T392 712Q495 712 573 666T695 539T739 350Q739 243 696 162T574 34T392 -12ZM392 114Q455 114 501 143T572 224T597 350Q597 423 572 475T501 557T392
586Q330 586 285 557T214 476T188 350Q188 277 213 225T284 143T392 114ZM287 743L274 835L495 960V960L511 854L287 743Z" />
<glyph unicode="&#xd4;" horiz-adv-x="785" d="M392 -12Q290 -12 212 34T90 161T45 350Q45 457 89 538T212 666T392 712Q495 712 573 666T695 539T739 350Q739 243 696 162T574 34T392 -12ZM392 114Q455 114 501 143T572 224T597 350Q597 423 572 475T501 557T392
586Q330 586 285 557T214 476T188 350Q188 277 213 225T284 143T392 114ZM244 744V844L393 923L541 844V744L393 827L244 744Z" />
<glyph unicode="&#xd5;" horiz-adv-x="785" d="M392 -12Q290 -12 212 34T90 161T45 350Q45 457 89 538T212 666T392 712Q495 712 573 666T695 539T739 350Q739 243 696 162T574 34T392 -12ZM392 114Q455 114 501 143T572 224T597 350Q597 423 572 475T501 557T392
586Q330 586 285 557T214 476T188 350Q188 277 213 225T284 143T392 114ZM456 750Q427 750 407 761T369 784T331 796Q314 796 303 785T287 751H214Q225 820 257 851T337 882Q366 882 386 871T424 848T462 836Q479 836 490 847T505 881H579Q569 813 537 782T456
750Z" />
<glyph unicode="&#xd6;" horiz-adv-x="785" d="M392 -12Q290 -12 212 34T90 161T45 350Q45 457 89 538T212 666T392 712Q495 712 573 666T695 539T739 350Q739 243 696 162T574 34T392 -12ZM392 114Q455 114 501 143T572 224T597 350Q597 423 572 475T501 557T392
586Q330 586 285 557T214 476T188 350Q188 277 213 225T284 143T392 114ZM300 767Q272 767 254 785T235 831Q235 859 253 878T300 897Q328 897 346 878T365 831Q365 804 347 786T300 767ZM486 767Q458 767 440 785T421 831Q421 859 439 878T486 897Q513 897 532
878T551 831Q551 804 532 786T486 767Z" />
<glyph unicode="&#xd7;" horiz-adv-x="582" d="M168 85L86 167L209 290L88 410L171 492L291 372L414 495L496 413L373 290L494 169L411 87L291 208L168 85Z" />
<glyph unicode="&#xd8;" horiz-adv-x="778" d="M25 0L622 700H753L156 0H25ZM392 -12Q289 -12 211 34T89 161T45 350Q45 457 89 538T211 666T392 712Q495 712 573 666T695 539T739 350Q739 243 696 162T574 34T392 -12ZM392 114Q454 114 500 143T571 224T596 350Q596
423 571 475T500 557T392 586Q330 586 284 557T213 476T188 350Q188 277 213 225T284 143T392 114Z" />
<glyph unicode="&#xd9;" horiz-adv-x="687" d="M341 -12Q263 -12 200 19T100 112T62 271V700H202V270Q202 219 219 185T267 134T344 116Q389 116 420 133T469 185T486 270V700H626V271Q626 175 588 113T484 19T341 -12ZM449 743L225 854L241 960V960L462 835L449 743Z" />
<glyph unicode="&#xda;" horiz-adv-x="687" d="M341 -12Q263 -12 200 19T100 112T62 271V700H202V270Q202 219 219 185T267 134T344 116Q389 116 420 133T469 185T486 270V700H626V271Q626 175 588 113T484 19T341 -12ZM238 743L225 835L446 960V960L462 854L238 743Z" />
<glyph unicode="&#xdb;" horiz-adv-x="687" d="M341 -12Q263 -12 200 19T100 112T62 271V700H202V270Q202 219 219 185T267 134T344 116Q389 116 420 133T469 185T486 270V700H626V271Q626 175 588 113T484 19T341 -12ZM195 744V844L344 923L492 844V744L344 827L195
744Z" />
<glyph unicode="&#xdc;" horiz-adv-x="687" d="M341 -12Q263 -12 200 19T100 112T62 271V700H202V270Q202 219 219 185T267 134T344 116Q389 116 420 133T469 185T486 270V700H626V271Q626 175 588 113T484 19T341 -12ZM251 767Q223 767 205 785T186 831Q186 859
204 878T251 897Q279 897 297 878T316 831Q316 804 298 786T251 767ZM437 767Q409 767 391 785T372 831Q372 859 390 878T437 897Q464 897 483 878T502 831Q502 804 483 786T437 767Z" />
<glyph unicode="&#xdd;" horiz-adv-x="640" d="M250 0V244L13 700H172L335 357H308L470 700H627L390 244V0H250ZM215 743L202 835L423 960V960L439 854L215 743Z" />
<glyph unicode="&#xde;" horiz-adv-x="618" d="M68 0V700H208V568H335Q419 568 475 540T558 462T586 349Q586 292 560 243T478 163T335 133H208V0H68ZM208 245H326Q388 245 415 273T443 349Q443 399 416 426T326 454H208V245Z" />
<glyph unicode="&#xdf;" horiz-adv-x="716" d="M479 -10Q386 -10 328 39T259 177H389Q393 139 416 116T477 93Q512 93 530 109T549 153Q549 181 531 199T460 235Q379 264 343 294T307 369Q307 397 319 415T349 447T386 473T416 501T429 538Q429 575 401 595T322
615Q263 615 234 583T205 493V0H66V504Q66 572 97 623T187 703T329 732Q404 732 457 708T539 644T568 555Q568 524 556 503T526 467T490 440T459 417T447 391Q447 380 454 371T483 351T546 325Q620 298 652 260T685 162Q685 112 660 73T589 12T479 -10Z" />
<glyph unicode="&#xe0;" horiz-adv-x="590" d="M236 -12Q174 -12 133 8T72 63T52 140Q52 185 75 220T146 275T266 295H390Q390 331 381 354T351 390T296 402Q259 402 234 386T202 338H66Q72 392 102 431T182 493T297 516Q368 516 420 492T501 423T530 312V0H412L396
76V76Q386 56 371 40T335 13T291 -5T236 -12ZM270 96Q295 96 315 104T349 129T372 165T384 210V211H283Q254 211 236 204T208 183T199 152Q199 134 208 121T233 102T270 96ZM397 547L173 658L189 764V764L410 639L397 547Z" />
<glyph unicode="&#xe1;" horiz-adv-x="590" d="M236 -12Q174 -12 133 8T72 63T52 140Q52 185 75 220T146 275T266 295H390Q390 331 381 354T351 390T296 402Q259 402 234 386T202 338H66Q72 392 102 431T182 493T297 516Q368 516 420 492T501 423T530 312V0H412L396
76V76Q386 56 371 40T335 13T291 -5T236 -12ZM270 96Q295 96 315 104T349 129T372 165T384 210V211H283Q254 211 236 204T208 183T199 152Q199 134 208 121T233 102T270 96ZM186 547L173 639L394 764V764L410 658L186 547Z" />
<glyph unicode="&#xe2;" horiz-adv-x="590" d="M236 -12Q174 -12 133 8T72 63T52 140Q52 185 75 220T146 275T266 295H390Q390 331 381 354T351 390T296 402Q259 402 234 386T202 338H66Q72 392 102 431T182 493T297 516Q368 516 420 492T501 423T530 312V0H412L396
76V76Q386 56 371 40T335 13T291 -5T236 -12ZM270 96Q295 96 315 104T349 129T372 165T384 210V211H283Q254 211 236 204T208 183T199 152Q199 134 208 121T233 102T270 96ZM143 550V649L292 729L440 649V550L292 632L143 550Z" />
<glyph unicode="&#xe3;" horiz-adv-x="590" d="M236 -12Q174 -12 133 8T72 63T52 140Q52 185 75 220T146 275T266 295H390Q390 331 381 354T351 390T296 402Q259 402 234 386T202 338H66Q72 392 102 431T182 493T297 516Q368 516 420 492T501 423T530 312V0H412L396
76V76Q386 56 371 40T335 13T291 -5T236 -12ZM270 96Q295 96 315 104T349 129T372 165T384 210V211H283Q254 211 236 204T208 183T199 152Q199 134 208 121T233 102T270 96ZM351 570Q322 570 302 581T264 603T226 615Q209 615 198 604T182 570H109Q120 639 152
670T232 701Q261 701 281 690T319 667T357 656Q374 656 385 667T400 701H474Q464 632 432 601T351 570Z" />
<glyph unicode="&#xe4;" horiz-adv-x="590" d="M236 -12Q174 -12 133 8T72 63T52 140Q52 185 75 220T146 275T266 295H390Q390 331 381 354T351 390T296 402Q259 402 234 386T202 338H66Q72 392 102 431T182 493T297 516Q368 516 420 492T501 423T530 312V0H412L396
76V76Q386 56 371 40T335 13T291 -5T236 -12ZM270 96Q295 96 315 104T349 129T372 165T384 210V211H283Q254 211 236 204T208 183T199 152Q199 134 208 121T233 102T270 96ZM198 570Q170 570 152 588T133 634Q133 662 151 681T198 700Q226 700 244 681T263 634Q263
607 245 589T198 570ZM384 570Q356 570 338 588T319 634Q319 662 337 681T384 700Q411 700 430 681T449 634Q449 607 430 589T384 570Z" />
<glyph unicode="&#xe5;" horiz-adv-x="590" d="M236 -12Q174 -12 133 8T72 63T52 140Q52 185 75 220T146 275T266 295H390Q390 331 381 354T351 390T296 402Q259 402 234 386T202 338H66Q72 392 102 431T182 493T297 516Q368 516 420 492T501 423T530 312V0H412L396
76V76Q386 56 371 40T335 13T291 -5T236 -12ZM270 96Q295 96 315 104T349 129T372 165T384 210V211H283Q254 211 236 204T208 183T199 152Q199 134 208 121T233 102T270 96ZM291 570Q243 570 209 600T175 684Q175 737 209 768T291 799Q339 799 373 768T408 684Q408
631 374 601T291 570ZM291 631Q312 631 327 645T342 684Q342 709 328 723T291 737Q271 737 256 723T240 684Q240 660 255 646T291 631Z" />
<glyph unicode="&#xe6;" horiz-adv-x="947" d="M247 -12Q183 -12 139 8T74 64T52 141Q52 187 74 222T144 278T263 298H393Q393 333 384 356T355 390T301 402Q267 402 242 387T210 340H74Q79 393 109 432T189 494T301 516Q360 516 405 499T480 449Q512 480 556
498T653 516Q727 516 783 483T871 394T903 264Q903 254 903 242T900 216H536Q539 181 554 156T594 116T651 102Q691 102 715 120T751 166H892Q879 116 846 76T763 12T653 -12Q589 -12 536 14T449 85Q427 56 398 34T332 0T247 -12ZM269 96Q301 96 325 110T365 151T387
209V215H282Q253 215 235 207T208 186T199 155Q199 137 208 124T233 103T269 96ZM538 300H761Q758 348 728 375T654 403Q626 403 602 392T561 358T538 300Z" />
<glyph unicode="&#xe7;" horiz-adv-x="610" d="M311 -12Q235 -12 176 22T84 115T50 250Q50 328 83 387T176 481T312 516Q409 516 475 465T560 323H411Q403 357 376 376T310 396Q276 396 250 379T208 329T193 252Q193 218 201 192T225 146T263 117T310 107Q336
107 356 115T391 140T411 180H560Q542 92 475 40T311 -12ZM214 -267V-188H331Q356 -188 368 -180T381 -154Q381 -137 369 -130T331 -122H268V4H354V-49Q387 -49 416 -60T465 -94T484 -157Q484 -194 465 -218T416 -255T351 -267H214Z" />
<glyph unicode="&#xe8;" horiz-adv-x="605" d="M309 -12Q233 -12 175 20T83 111T50 247Q50 325 82 385T173 481T310 516Q385 516 441 483T529 394T561 265Q561 255 561 243T558 217H150V302H419Q416 348 386 375T310 403Q276 403 248 387T204 340T188 261V232Q188
193 203 164T245 118T308 102Q344 102 367 117T403 156H546Q532 109 499 71T417 11T309 -12ZM412 547L188 658L204 764V764L425 639L412 547Z" />
<glyph unicode="&#xe9;" horiz-adv-x="605" d="M309 -12Q233 -12 175 20T83 111T50 247Q50 325 82 385T173 481T310 516Q385 516 441 483T529 394T561 265Q561 255 561 243T558 217H150V302H419Q416 348 386 375T310 403Q276 403 248 387T204 340T188 261V232Q188
193 203 164T245 118T308 102Q344 102 367 117T403 156H546Q532 109 499 71T417 11T309 -12ZM201 547L188 639L409 764V764L425 658L201 547Z" />
<glyph unicode="&#xea;" horiz-adv-x="605" d="M309 -12Q233 -12 175 20T83 111T50 247Q50 325 82 385T173 481T310 516Q385 516 441 483T529 394T561 265Q561 255 561 243T558 217H150V302H419Q416 348 386 375T310 403Q276 403 248 387T204 340T188 261V232Q188
193 203 164T245 118T308 102Q344 102 367 117T403 156H546Q532 109 499 71T417 11T309 -12ZM158 550V649L307 729L455 649V550L307 632L158 550Z" />
<glyph unicode="&#xeb;" horiz-adv-x="605" d="M309 -12Q233 -12 175 20T83 111T50 247Q50 325 82 385T173 481T310 516Q385 516 441 483T529 394T561 265Q561 255 561 243T558 217H150V302H419Q416 348 386 375T310 403Q276 403 248 387T204 340T188 261V232Q188
193 203 164T245 118T308 102Q344 102 367 117T403 156H546Q532 109 499 71T417 11T309 -12ZM214 570Q186 570 168 588T149 634Q149 662 167 681T214 700Q242 700 260 681T279 634Q279 607 261 589T214 570ZM400 570Q372 570 354 588T335 634Q335 662 353 681T400
700Q427 700 446 681T465 634Q465 607 446 589T400 570Z" />
<glyph unicode="&#xec;" horiz-adv-x="271" d="M66 0V504H206V0H66ZM241 547L17 658L33 764V764L254 639L241 547Z" />
<glyph unicode="&#xed;" horiz-adv-x="271" d="M66 0V504H206V0H66ZM30 547L17 639L238 764V764L254 658L30 547Z" />
<glyph unicode="&#xee;" horiz-adv-x="271" d="M66 0V504H206V0H66ZM243 550V649L392 729L540 649V550L392 632L243 550Z" />
<glyph unicode="&#xef;" horiz-adv-x="271" d="M66 0V504H206V0H66ZM299 570Q271 570 253 588T234 634Q234 662 252 681T299 700Q327 700 345 681T364 634Q364 607 346 589T299 570ZM485 570Q457 570 439 588T420 634Q420 662 438 681T485 700Q512 700 531 681T550
634Q550 607 531 589T485 570Z" />
<glyph unicode="&#xf0;" horiz-adv-x="642" d="M318 -12Q239 -12 179 22T85 114T50 247Q50 321 83 379T175 470T309 503Q347 503 379 494T440 464Q427 496 409 528T369 590T322 648T268 700H399Q450 656 486 605T546 499T581 391T592 289Q592 196 556 128T458
24T318 -12ZM321 107Q356 107 385 124T431 172T449 246Q449 290 432 320T386 368T321 385Q286 385 257 368T211 320T193 246Q193 203 210 172T257 124T321 107ZM256 533V616L550 709V627L256 533Z" />
<glyph unicode="&#xf1;" horiz-adv-x="621" d="M66 0V504H189L199 422V422Q222 464 264 490T367 516Q429 516 472 490T537 413T560 290V0H421V277Q421 335 397 366T319 398Q287 398 261 383T221 339T206 269V0H66ZM394 570Q365 570 345 581T307 603T269 615Q252
615 241 604T225 570H152Q163 639 195 670T275 701Q304 701 324 690T362 667T400 656Q417 656 428 667T443 701H517Q507 632 475 601T394 570Z" />
<glyph unicode="&#xf2;" horiz-adv-x="612" d="M305 -12Q233 -12 175 21T84 115T50 251Q50 329 83 389T175 482T306 516Q379 516 437 483T528 390T562 252Q562 174 528 115T437 22T305 -12ZM305 109Q338 109 363 125T403 173T419 252Q419 299 404 331T364 379T306
395Q275 395 249 379T208 331T193 252Q193 205 208 173T248 125T305 109ZM412 547L188 658L204 764V764L425 639L412 547Z" />
<glyph unicode="&#xf3;" horiz-adv-x="612" d="M305 -12Q233 -12 175 21T84 115T50 251Q50 329 83 389T175 482T306 516Q379 516 437 483T528 390T562 252Q562 174 528 115T437 22T305 -12ZM305 109Q338 109 363 125T403 173T419 252Q419 299 404 331T364 379T306
395Q275 395 249 379T208 331T193 252Q193 205 208 173T248 125T305 109ZM201 547L188 639L409 764V764L425 658L201 547Z" />
<glyph unicode="&#xf4;" horiz-adv-x="612" d="M305 -12Q233 -12 175 21T84 115T50 251Q50 329 83 389T175 482T306 516Q379 516 437 483T528 390T562 252Q562 174 528 115T437 22T305 -12ZM305 109Q338 109 363 125T403 173T419 252Q419 299 404 331T364 379T306
395Q275 395 249 379T208 331T193 252Q193 205 208 173T248 125T305 109ZM158 550V649L307 729L455 649V550L307 632L158 550Z" />
<glyph unicode="&#xf5;" horiz-adv-x="612" d="M305 -12Q233 -12 175 21T84 115T50 251Q50 329 83 389T175 482T306 516Q379 516 437 483T528 390T562 252Q562 174 528 115T437 22T305 -12ZM305 109Q338 109 363 125T403 173T419 252Q419 299 404 331T364 379T306
395Q275 395 249 379T208 331T193 252Q193 205 208 173T248 125T305 109ZM366 570Q337 570 317 581T279 603T241 615Q224 615 213 604T197 570H124Q135 639 167 670T247 701Q276 701 296 690T334 667T372 656Q389 656 400 667T415 701H489Q479 632 447 601T366
570Z" />
<glyph unicode="&#xf6;" horiz-adv-x="612" d="M305 -12Q233 -12 175 21T84 115T50 251Q50 329 83 389T175 482T306 516Q379 516 437 483T528 390T562 252Q562 174 528 115T437 22T305 -12ZM305 109Q338 109 363 125T403 173T419 252Q419 299 404 331T364 379T306
395Q275 395 249 379T208 331T193 252Q193 205 208 173T248 125T305 109ZM213 570Q185 570 167 588T148 634Q148 662 166 681T213 700Q241 700 259 681T278 634Q278 607 260 589T213 570ZM399 570Q371 570 353 588T334 634Q334 662 352 681T399 700Q426 700 445
681T464 634Q464 607 445 589T399 570Z" />
<glyph unicode="&#xf7;" horiz-adv-x="582" d="M72 231V348H510V231H72ZM292 25Q254 25 230 48T206 105Q206 139 230 162T292 186Q330 186 353 163T377 105Q377 72 354 49T292 25ZM292 398Q254 398 230 421T206 477Q206 511 230 534T292 558Q330 558 353 535T377
477Q377 444 354 421T292 398Z" />
<glyph unicode="&#xf8;" horiz-adv-x="594" d="M27 0L460 504H567L134 0H27ZM296 -12Q224 -12 166 21T75 115T41 251Q41 329 74 389T166 482T297 516Q370 516 428 483T519 390T553 252Q553 174 519 115T427 22T296 -12ZM296 109Q329 109 354 125T394 173T410 252Q410
299 395 331T355 379T297 395Q266 395 240 379T199 331T184 252Q184 205 199 173T239 125T296 109Z" />
<glyph unicode="&#xf9;" horiz-adv-x="621" d="M254 -12Q193 -12 150 13T83 89T60 212V504H200V226Q200 167 224 137T301 106Q334 106 360 121T400 164T415 235V504H555V0H432L421 81V81Q399 39 357 14T254 -12ZM412 547L188 658L204 764V764L425 639L412 547Z" />
<glyph unicode="&#xfa;" horiz-adv-x="621" d="M254 -12Q193 -12 150 13T83 89T60 212V504H200V226Q200 167 224 137T301 106Q334 106 360 121T400 164T415 235V504H555V0H432L421 81V81Q399 39 357 14T254 -12ZM201 547L188 639L409 764V764L425 658L201 547Z" />
<glyph unicode="&#xfb;" horiz-adv-x="621" d="M254 -12Q193 -12 150 13T83 89T60 212V504H200V226Q200 167 224 137T301 106Q334 106 360 121T400 164T415 235V504H555V0H432L421 81V81Q399 39 357 14T254 -12ZM158 550V649L307 729L455 649V550L307 632L158 550Z" />
<glyph unicode="&#xfc;" horiz-adv-x="621" d="M254 -12Q193 -12 150 13T83 89T60 212V504H200V226Q200 167 224 137T301 106Q334 106 360 121T400 164T415 235V504H555V0H432L421 81V81Q399 39 357 14T254 -12ZM213 570Q185 570 167 588T148 634Q148 662 166
681T213 700Q241 700 259 681T278 634Q278 607 260 589T213 570ZM399 570Q371 570 353 588T334 634Q334 662 352 681T399 700Q426 700 445 681T464 634Q464 607 445 589T399 570Z" />
<glyph unicode="&#xfd;" horiz-adv-x="609" d="M131 -220L252 56H222L20 504H172L315 185V185L440 504H589L279 -220H131ZM199 547L186 639L407 764V764L423 658L199 547Z" />
<glyph unicode="&#xfe;" horiz-adv-x="658" d="M66 -220V720H206V436Q221 457 243 475T295 505T366 516Q436 516 490 482T576 387T607 251Q607 175 576 116T490 22T367 -12Q312 -12 272 8T206 64V-220H66ZM333 110Q372 110 401 128T448 178T465 251Q465 293 448
325T402 375T333 394Q294 394 265 376T218 325T201 252Q201 210 218 178T264 128T333 110Z" />
<glyph unicode="&#xff;" horiz-adv-x="609" d="M131 -220L252 56H222L20 504H172L315 185V185L440 504H589L279 -220H131ZM212 570Q184 570 166 588T147 634Q147 662 165 681T212 700Q240 700 258 681T277 634Q277 607 259 589T212 570ZM398 570Q370 570 352 588T333
634Q333 662 351 681T398 700Q425 700 444 681T463 634Q463 607 444 589T398 570Z" />
<glyph unicode="&#x2013;" horiz-adv-x="699" d="M77 236V353H621V236H77Z" />
<glyph unicode="&#x2014;" horiz-adv-x="922" d="M77 236V353H845V236H77Z" />
<glyph unicode="&#x2018;" horiz-adv-x="260" d="M30 441L134 700H230L176 441H30Z" />
<glyph unicode="&#x2019;" horiz-adv-x="260" d="M230 700L125 441H30L83 700H230Z" />
<glyph unicode="&#x201a;" horiz-adv-x="261" d="M24 -110L78 145H224L119 -110H24Z" />
<glyph unicode="&#x201c;" horiz-adv-x="462" d="M232 441L337 700H432L378 441H232ZM30 441L134 700H230L176 441H30Z" />
<glyph unicode="&#x201d;" horiz-adv-x="462" d="M229 700L125 441H30L84 700H229ZM432 700L327 441H232L285 700H432Z" />
<glyph unicode="&#x201e;" horiz-adv-x="465" d="M24 -110L78 145H224L119 -110H24ZM229 -110L282 145H428L324 -110H229Z" />
<glyph unicode="&#x2022;" horiz-adv-x="390" d="M194 194Q156 194 125 212T74 262T55 333Q55 373 74 404T124 454T194 473Q234 473 265 455T316 405T335 333Q335 294 316 263T266 213T194 194Z" />
<glyph unicode="&#x2039;" horiz-adv-x="315" d="M132 120L43 295L132 470H263L171 295L263 120H132Z" />
<glyph unicode="&#x203a;" horiz-adv-x="315" d="M183 120H52L144 295L52 470H183L272 295L183 120Z" />
</font>
</defs>
</svg>
