<?xml version="1.0" standalone="no"?>
<!DOCTYPE svg PUBLIC "-//W3C//DTD SVG 1.1//EN" "http://www.w3.org/Graphics/SVG/1.1/DTD/svg11.dtd">
<svg xmlns="http://www.w3.org/2000/svg">
<defs >
<font id="DMSans" horiz-adv-x="584" ><font-face
    font-family="DM Sans 9pt Black"
    units-per-em="1000"
    panose-1="0 0 0 0 0 0 0 0 0 0"
    ascent="992"
    descent="-310"
    alphabetic="0" />
<glyph unicode=" " horiz-adv-x="226" />
<glyph unicode="!" horiz-adv-x="326" d="M100 236L83 700H244L227 236H100ZM164 -5Q123 -5 98 19T72 79Q72 115 97 139T164 164Q204 164 229 140T254 79Q254 44 229 20T164 -5Z" />
<glyph unicode="&quot;" horiz-adv-x="389" d="M235 533L222 755H349L336 533H235ZM54 533L41 755H167L155 533H54Z" />
<glyph unicode="#" horiz-adv-x="872" d="M450 0L604 732H744L591 0H450ZM136 0L289 732H429L277 0H136ZM28 164V299H777V164H28ZM85 437V572H834V437H85Z" />
<glyph unicode="$" horiz-adv-x="611" d="M272 -87V792H337V-87H272ZM313 -12Q238 -12 178 13T82 89T44 212H204Q205 183 219 161T257 127T313 114Q340 114 360 122T393 147T405 189Q405 215 391 233T353 265T298 290T230 313Q147 340 103 386T58 509Q58 573 89
618T176 688T301 712Q373 712 427 688T514 617T549 506H388Q387 528 376 546T345 575T299 586Q276 587 257 580T227 557T216 518Q216 496 227 480T259 452T307 430T368 410Q421 392 465 368T537 304T565 199Q565 142 536 94T451 17T313 -12Z" />
<glyph unicode="%" horiz-adv-x="936" d="M199 0L588 700H734L345 0H199ZM717 -12Q667 -12 627 10T562 73T538 170Q538 228 562 268T626 331T716 353Q767 353 807 331T870 269T894 170Q894 114 870 73T807 10T717 -12ZM716 89Q734 89 748 98T770 126T778 170Q778
198 770 216T748 243T716 253Q698 253 684 244T662 216T654 171Q654 144 662 126T684 99T716 89ZM221 347Q171 347 131 369T66 432T42 529Q42 587 66 627T130 690T221 712Q271 712 311 690T374 628T398 529Q398 473 375 432T311 369T221 347ZM220 448Q238 448 252
457T274 485T282 529Q282 557 274 575T252 602T220 612Q202 612 188 603T166 575T158 529Q158 503 166 485T188 458T220 448Z" />
<glyph unicode="&amp;" horiz-adv-x="795" d="M594 0L214 375Q168 421 150 458T131 537Q131 586 156 625T228 688T344 712Q412 712 458 687T527 622T550 533H407Q408 566 389 582T342 598Q311 598 292 582T273 538Q273 516 287 492T331 436L771 0H594ZM296 -11Q218
-11 160 15T71 90T40 203Q40 254 60 297T123 374T229 428L285 446L350 354L301 338Q242 320 214 288T185 213Q185 185 199 162T240 125T304 111Q357 111 399 134T479 209Q496 232 512 260T545 325L564 364H715L684 298Q660 246 634 203T580 125Q523 55 454 22T296
-11Z" />
<glyph unicode="&apos;" horiz-adv-x="208" d="M54 533L41 755H168L155 533H54Z" />
<glyph unicode="(" horiz-adv-x="414" d="M236 -145Q179 -87 136 -13T69 149T45 333Q45 430 69 517T136 679T236 811H385V797Q325 732 282 657T216 500T192 333Q192 248 215 166T282 9T385 -131V-145H236Z" />
<glyph unicode=")" horiz-adv-x="414" d="M178 -145H29V-131Q89 -66 132 9T198 166T222 333Q222 418 199 500T132 657T29 797V811H178Q235 754 278 679T345 517T369 333Q369 237 345 150T278 -12T178 -145Z" />
<glyph unicode="*" horiz-adv-x="523" d="M212 360L233 496L128 407L72 504L199 551L73 596L124 688L234 601L211 738H317L294 601L403 688L453 597L326 549L453 503L400 408L294 496L316 360H212Z" />
<glyph unicode="+" horiz-adv-x="588" d="M231 58V520H357V58H231ZM45 227V352H542V227H45Z" />
<glyph unicode="," horiz-adv-x="264" d="M27 -123L84 140H226L124 -123H27Z" />
<glyph unicode="-" horiz-adv-x="586" d="M334 232V357H764V232H334Z" />
<glyph unicode="." horiz-adv-x="268" d="M135 -5Q94 -5 69 19T43 79Q43 115 68 139T135 164Q175 164 200 140T225 79Q225 44 200 20T135 -5Z" />
<glyph unicode="/" horiz-adv-x="437" d="M21 -119L271 784H416L166 -119H21Z" />
<glyph unicode="0" horiz-adv-x="710" d="M355 -12Q258 -12 189 34T83 161T45 350Q45 457 82 538T189 666T355 712Q452 712 521 666T627 539T665 350Q665 243 628 162T521 34T355 -12ZM355 123Q402 123 437 151T492 229T512 350Q512 420 493 470T438 548T355 576Q308
576 273 549T218 471T198 350Q198 280 217 230T272 151T355 123Z" />
<glyph unicode="1" horiz-adv-x="379" d="M156 0V527L31 493V615L222 700H312V0H156Z" />
<glyph unicode="2" horiz-adv-x="578" d="M47 0V111Q108 161 167 210T274 307T350 402T378 492Q378 517 369 538T340 572T288 585Q257 585 235 571T202 533T191 476H46Q49 556 82 609T170 687T293 712Q371 712 423 684T501 608T528 502Q528 456 512 414T468 332T405
256T330 186T253 122H542V0H47Z" />
<glyph unicode="3" horiz-adv-x="607" d="M302 -12Q233 -12 176 13T84 89T47 221H193Q194 190 207 166T244 127T302 113Q333 113 355 125T389 158T401 206Q401 237 386 258T343 291T278 303H226V425H278Q321 425 353 445T385 509Q385 545 362 565T301 586Q255
586 231 560T204 496H59Q62 564 93 612T177 686T301 712Q375 712 427 686T505 617T532 522Q532 479 516 448T474 396T419 366Q458 358 486 336T531 279T547 200Q547 142 519 94T436 17T302 -12Z" />
<glyph unicode="4" horiz-adv-x="663" d="M388 0V120H48V240L369 700H538V250H625V120H538V0H388ZM207 250H398V535V535L207 250Z" />
<glyph unicode="5" horiz-adv-x="625" d="M322 -12Q243 -12 187 15T100 90T65 198H211Q217 164 247 140T322 115Q354 115 378 131T416 176T430 240Q430 277 416 303T378 343T323 357Q286 357 258 339T218 294H73L131 700H531V569H242L216 431Q237 452 272 465T351
479Q409 479 451 459T521 405T562 329T575 242Q575 185 556 139T503 59T423 7T322 -12Z" />
<glyph unicode="6" horiz-adv-x="636" d="M334 -12Q254 -12 199 17T111 96T64 205T49 329Q49 447 82 532T177 665T329 712Q405 712 457 683T537 607T570 507H430Q423 547 397 568T328 590Q288 590 259 566T214 493T196 374Q196 373 196 371T196 368Q211 394 237
413T295 443T361 454Q419 454 469 427T549 348T580 226Q580 161 549 107T462 20T334 -12ZM326 116Q358 116 383 129T422 167T437 221Q437 254 423 277T383 314T324 328Q292 328 267 315T227 278T212 223Q212 192 227 168T267 130T326 116Z" />
<glyph unicode="7" horiz-adv-x="537" d="M103 0L355 572H29V700H509V595L258 0H103Z" />
<glyph unicode="8" horiz-adv-x="640" d="M320 -12Q247 -12 188 14T94 87T58 198Q58 241 72 275T111 336T171 378Q128 400 102 437T75 524Q75 573 102 616T184 685T320 712Q401 712 455 686T536 616T563 524Q563 477 537 438T468 378Q503 362 528 336T567 275T581
198Q581 135 546 88T452 14T320 -12ZM320 112Q376 112 405 140T434 211Q434 257 404 284T320 312Q265 312 235 285T204 211Q204 169 234 141T320 112ZM320 420Q366 420 391 444T417 505Q417 545 392 568T320 591Q273 591 248 568T223 504Q223 467 248 444T320 420Z"
/>
<glyph unicode="9" horiz-adv-x="636" d="M307 -12Q232 -12 180 17T100 93T67 193H206Q215 153 241 132T309 110Q349 110 377 134T422 205T440 321Q440 324 440 326T440 332Q426 307 400 288T341 257T275 246Q218 246 168 273T88 352T57 474Q57 540 88 594T175
680T302 712Q383 712 438 683T525 604T573 495T588 371Q588 254 555 168T459 35T307 -12ZM312 372Q344 372 369 385T409 422T424 477Q424 509 410 533T369 570T310 584Q278 584 253 571T214 534T199 479Q199 447 213 423T253 386T312 372Z" />
<glyph unicode=":" horiz-adv-x="270" d="M135 -5Q94 -5 69 19T43 79Q43 115 68 139T135 164Q175 164 200 140T225 79Q225 44 200 20T135 -5ZM135 349Q94 349 69 373T43 433Q43 469 68 493T135 518Q175 518 200 494T225 433Q225 398 200 374T135 349Z" />
<glyph unicode=";" horiz-adv-x="293" d="M159 349Q118 349 93 373T67 433Q67 469 92 493T159 518Q199 518 224 494T249 433Q249 398 224 374T159 349ZM32 -123L89 140H231L129 -123H32Z" />
<glyph unicode="&lt;" horiz-adv-x="588" d="M495 57H306L93 280V280L306 504H495L281 280L495 57Z" />
<glyph unicode="=" horiz-adv-x="588" d="M75 338V470H513V338H75ZM75 109V241H513V109H75Z" />
<glyph unicode="&gt;" horiz-adv-x="588" d="M93 57L307 280L93 504H282L495 280V280L282 57H93Z" />
<glyph unicode="?" horiz-adv-x="543" d="M138 234L134 396H187Q224 396 255 400T309 416T345 447T358 500Q358 528 347 547T316 578T267 589Q238 589 217 578T185 547T174 500H32Q32 560 59 608T140 684T270 712Q338 712 391 688T474 616T504 500Q504 434 475
389T394 322T275 298L271 234H138ZM206 -5Q165 -5 140 19T115 79Q115 115 140 139T206 164Q246 164 271 140T296 79Q296 44 271 20T206 -5Z" />
<glyph unicode="@" horiz-adv-x="1058" d="M448 -219Q336 -219 253 -175T122 -51T75 139Q75 251 114 346T223 512T389 622T600 661Q717 661 803 617T936 493T983 310Q983 249 967 193T921 92T846 21T742 -5Q670 -5 637 36T612 145L615 177L636 116Q612 59 561
26T447 -7Q374 -7 332 38T290 161Q290 216 306 266T354 355T427 417T521 440Q577 440 609 413T648 335L627 319L647 432H769L723 173Q717 137 724 115T763 92Q790 92 809 111T842 162T861 231T868 306Q868 385 834 441T737 529T585 560Q498 560 426 528T301 440T219
310T190 151Q190 66 222 6T316 -85T464 -116Q511 -116 556 -107T638 -81L662 -177Q614 -198 560 -208T448 -219ZM495 102Q527 102 553 120T595 170T613 240Q614 267 605 287T579 320T535 332Q509 332 488 320T452 288T429 242T420 186Q420 148 438 125T495 102Z"
/>
<glyph unicode="A" horiz-adv-x="722" d="M20 0L275 700H447L702 0H543L360 531V531L177 0H20ZM131 153L171 269H538L577 153H131Z" />
<glyph unicode="B" horiz-adv-x="648" d="M67 0V700H366Q439 700 489 678T565 615T592 519Q592 466 569 430T509 375T426 352L442 364Q491 362 528 338T586 276T608 191Q608 134 581 91T502 24T376 0H67ZM217 122H351Q401 122 428 144T456 210Q456 253 428 277T349
301H217V122ZM217 412H340Q388 412 413 434T439 496Q439 536 414 558T339 581H217V412Z" />
<glyph unicode="C" horiz-adv-x="744" d="M384 -12Q279 -12 203 33T86 160T45 348Q45 456 86 537T203 665T384 712Q514 712 596 647T699 464H535Q523 517 484 546T383 576Q324 576 283 548T220 470T198 348Q198 279 219 229T282 151T383 123Q445 123 483 149T535
226H699Q679 115 597 52T384 -12Z" />
<glyph unicode="D" horiz-adv-x="713" d="M67 0V700H310Q432 700 511 657T629 535T668 350Q668 245 630 167T512 44T310 0H67ZM217 129H301Q382 129 429 155T495 231T515 350Q515 420 496 469T429 545T301 572H217V129Z" />
<glyph unicode="E" horiz-adv-x="588" d="M67 0V700H536V579H217V414H506V298H217V121H536V0H67Z" />
<glyph unicode="F" horiz-adv-x="563" d="M67 0V700H532V579H217V409H465V292H217V0H67Z" />
<glyph unicode="G" horiz-adv-x="783" d="M376 -12Q276 -12 202 32T86 157T45 344Q45 452 87 535T210 665T401 712Q526 712 608 652T715 486H548Q533 528 496 551T400 574Q334 574 289 546T221 466T198 344Q198 272 221 222T288 147T392 121Q478 121 522 166T577
279H414V391H727V0H589L577 81V81Q556 51 528 30T462 -1T376 -12Z" />
<glyph unicode="H" horiz-adv-x="723" d="M506 0V700H656V0H506ZM67 0V700H217V0H67ZM198 297V418H530V297H198Z" />
<glyph unicode="I" horiz-adv-x="284" d="M67 0V700H217V0H67Z" />
<glyph unicode="J" horiz-adv-x="553" d="M264 -12Q194 -12 141 14T59 93T29 220H178Q178 189 187 167T215 134T260 122Q286 122 303 132T328 163T336 211V700H486V211Q486 102 426 45T264 -12Z" />
<glyph unicode="K" horiz-adv-x="674" d="M67 0V700H217V435L459 700H643L386 423L652 0H468L279 307L217 240V0H67Z" />
<glyph unicode="L" horiz-adv-x="568" d="M67 0V700H217V116H519V0H67Z" />
<glyph unicode="M" horiz-adv-x="899" d="M67 0V700H247L451 279V279L653 700H832V0H682V447V447L510 98H390L217 447V447V0H67Z" />
<glyph unicode="N" horiz-adv-x="741" d="M67 0V700H217L524 240V240V700H674V0H524L217 458V458V0H67Z" />
<glyph unicode="O" horiz-adv-x="786" d="M393 -12Q290 -12 212 34T90 161T45 350Q45 457 89 538T212 666T393 712Q496 712 575 666T697 539T741 350Q741 243 698 162T575 34T393 -12ZM393 123Q454 123 497 151T565 229T589 350Q589 420 565 470T498 548T393 576Q334
576 290 549T222 471T198 350Q198 280 222 230T290 151T393 123Z" />
<glyph unicode="P" horiz-adv-x="624" d="M67 0V700H339Q425 700 481 671T566 592T594 478Q594 419 567 369T484 288T339 257H217V0H67ZM217 377H329Q388 377 414 404T441 478Q441 525 415 551T329 578H217V377Z" />
<glyph unicode="Q" horiz-adv-x="786" d="M552 -114L292 296H464L732 -114H552ZM393 -12Q290 -12 212 34T90 161T45 350Q45 457 89 538T212 666T393 712Q496 712 575 666T697 539T741 350Q741 243 698 162T575 34T393 -12ZM393 123Q454 123 497 151T565 229T589
350Q589 420 565 470T498 548T393 576Q334 576 290 549T222 471T198 350Q198 280 222 230T290 151T393 123Z" />
<glyph unicode="R" horiz-adv-x="641" d="M67 0V700H339Q424 700 480 671T564 592T592 483Q592 427 566 378T483 299T338 269H217V0H67ZM428 0L287 306H448L598 0H428ZM217 377H330Q386 377 412 404T439 477Q439 522 413 548T330 575H217V377Z" />
<glyph unicode="S" horiz-adv-x="611" d="M313 -12Q238 -12 178 13T82 89T44 212H204Q205 183 219 161T257 127T313 114Q340 114 360 122T393 147T405 189Q405 215 391 233T353 265T298 290T230 313Q147 340 103 386T58 509Q58 573 89 618T176 688T301 712Q373
712 427 688T514 617T549 506H388Q387 528 376 546T345 575T299 586Q276 587 257 580T227 557T216 518Q216 496 227 480T259 452T307 430T368 410Q421 392 465 368T537 304T565 199Q565 142 536 94T451 17T313 -12Z" />
<glyph unicode="T" horiz-adv-x="608" d="M229 0V579H26V700H582V579H379V0H229Z" />
<glyph unicode="U" horiz-adv-x="693" d="M344 -12Q265 -12 201 19T99 114T61 273V700H211V272Q211 225 226 192T272 143T346 126Q390 126 420 142T467 192T483 272V700H633V273Q633 177 594 114T489 20T344 -12Z" />
<glyph unicode="V" horiz-adv-x="717" d="M265 0L13 700H173L358 152V152L545 700H704L451 0H265Z" />
<glyph unicode="W" horiz-adv-x="1033" d="M207 0L26 700H186L299 168V168L435 700H601L732 169V169L846 700H1008L821 0H641L516 489V489L387 0H207Z" />
<glyph unicode="X" horiz-adv-x="689" d="M32 0L254 355L28 700H202L351 473V473L484 700H654L433 348L661 0H487L337 231V231L202 0H32Z" />
<glyph unicode="Y" horiz-adv-x="651" d="M251 0V240L12 700H182L341 364H313L471 700H639L401 240V0H251Z" />
<glyph unicode="Z" horiz-adv-x="588" d="M50 0V115L365 576H51V700H537V585L220 124H538V0H50Z" />
<glyph unicode="[" horiz-adv-x="395" d="M67 -180V811H342V690H207V-57H342V-180H67Z" />
<glyph unicode="\" horiz-adv-x="437" d="M416 -119H271L21 784H166L416 -119Z" />
<glyph unicode="]" horiz-adv-x="395" d="M328 -180H54V-57H188V690H54V811H328V-180Z" />
<glyph unicode="^" horiz-adv-x="693" d="M34 197L275 700H419L659 197H507L347 532V532L185 197H34Z" />
<glyph unicode="_" horiz-adv-x="744" d="M78 -183V-40H666V-183H78Z" />
<glyph unicode="`" horiz-adv-x="241" d="M228 547L0 657L16 769V769L241 644L228 547Z" />
<glyph unicode="a" horiz-adv-x="598" d="M237 -12Q174 -12 133 8T72 62T52 139Q52 184 74 218T145 273T266 294H388Q388 328 380 350T352 383T300 394Q265 394 241 380T211 336H67Q72 390 102 430T184 493T301 516Q373 516 426 493T508 424T538 312V0H413L395
73V73Q384 54 369 39T334 12T290 -6T237 -12ZM274 102Q298 102 316 110T347 132T368 164T381 205V206H284Q259 206 243 200T218 181T210 153Q210 136 218 125T241 108T274 102Z" />
<glyph unicode="b" horiz-adv-x="663" d="M372 -12Q335 -12 306 -3T254 22T215 60V60L198 0H65V720H215V438Q239 472 277 494T371 516Q440 516 494 482T581 388T613 251Q613 176 581 116T495 22T372 -12ZM335 119Q371 119 399 136T444 182T460 251Q460 290 444
320T400 368T335 385Q298 385 270 368T225 321T209 251Q209 213 225 183T269 136T335 119Z" />
<glyph unicode="c" horiz-adv-x="617" d="M314 -12Q236 -12 177 22T84 115T50 250Q50 328 83 387T176 481T314 516Q413 516 480 464T566 319H407Q398 351 373 369T313 387Q280 387 256 371T217 324T203 252Q203 221 211 196T233 153T268 126T313 116Q337 116 355
124T387 147T407 184H566Q548 94 480 41T314 -12Z" />
<glyph unicode="d" horiz-adv-x="663" d="M289 -12Q222 -12 168 22T82 115T50 251Q50 328 82 387T169 481T293 516Q345 516 384 498T448 444V720H598V0H465L448 65V65Q433 44 412 27T360 -1T289 -12ZM328 119Q365 119 393 136T437 183T453 252Q453 291 438 321T394
368T328 385Q292 385 264 368T219 321T203 253Q203 214 219 184T263 136T328 119Z" />
<glyph unicode="e" horiz-adv-x="612" d="M313 -12Q235 -12 176 20T84 111T50 246Q50 324 83 385T175 481T312 516Q388 516 445 483T534 394T567 263Q567 253 567 241T564 215H157V302H414Q412 344 384 369T313 395Q281 395 255 380T214 335T198 259V229Q198 194
211 167T250 125T311 110Q344 110 365 123T399 158H552Q538 110 504 72T421 11T313 -12Z" />
<glyph unicode="f" horiz-adv-x="380" d="M86 0V540Q86 606 109 645T173 702T269 720H333V593H293Q262 593 249 581T236 540V0H86ZM20 379V504H340V379H20Z" />
<glyph unicode="g" horiz-adv-x="607" d="M287 -232Q213 -232 159 -215T76 -162T46 -74Q46 -36 66 -3T125 55T216 98L266 22Q222 9 201 -12T179 -59Q179 -79 193 -93T231 -114T286 -121Q315 -121 336 -114T370 -94T383 -61Q383 -36 366 -21T296 -2Q247 2 208 9T138
28T85 52T51 78V101L161 222L264 190L131 55L177 131Q187 125 198 120T225 110T265 103T327 95Q392 89 434 71T497 20T518 -58Q518 -103 493 -143T417 -207T287 -232ZM288 146Q225 146 179 171T108 237T83 331Q83 382 108 423T179 490T288 516Q352 516 398 491T468
424T492 331Q492 279 468 238T398 171T288 146ZM288 259Q322 259 344 277T366 330Q366 365 344 383T288 401Q254 401 232 383T209 330Q209 295 231 277T288 259ZM372 401L350 504H559V419L372 401Z" />
<glyph unicode="h" horiz-adv-x="630" d="M65 0V720H215V432V432Q239 470 280 493T376 516Q440 516 483 489T548 411T570 286V0H421V272Q421 328 398 359T323 390Q293 390 268 375T229 333T215 267V0H65Z" />
<glyph unicode="i" horiz-adv-x="284" d="M67 0V504H217V0H67ZM142 562Q102 562 77 585T52 643Q52 679 77 702T142 725Q183 725 208 702T234 643Q234 608 209 585T142 562Z" />
<glyph unicode="j" horiz-adv-x="283" d="M-29 -220V-93H12Q42 -93 55 -81T68 -41V504H217V-40Q217 -106 195 -145T131 -202T34 -220H-29ZM143 562Q103 562 78 585T53 643Q53 679 78 702T144 725Q184 725 209 702T234 643Q234 608 209 585T143 562Z" />
<glyph unicode="k" horiz-adv-x="600" d="M401 0L193 276L378 504H555L306 212V332L587 0H401ZM65 0V720H215V0H65Z" />
<glyph unicode="l" horiz-adv-x="280" d="M65 0V720H215V0H65Z" />
<glyph unicode="m" horiz-adv-x="955" d="M65 0V504H196L209 439V439Q233 474 272 495T364 516Q401 516 431 507T484 479T522 432V432Q551 471 596 493T694 516Q762 516 806 489T873 411T895 287V0H746V274Q746 329 725 359T656 390Q626 390 603 375T568 333T555
268V0H406V274Q406 329 384 359T313 390Q285 390 263 375T228 333T215 268V0H65Z" />
<glyph unicode="n" horiz-adv-x="629" d="M65 0V504H196L208 423V423Q231 465 273 490T375 516Q438 516 481 489T546 412T569 288V0H420V274Q420 329 397 359T322 390Q292 390 268 376T229 334T215 269V0H65Z" />
<glyph unicode="o" horiz-adv-x="615" d="M307 -12Q234 -12 176 22T84 115T50 251Q50 329 84 388T176 482T307 516Q381 516 439 482T531 389T565 252Q565 175 531 116T439 22T307 -12ZM307 118Q337 118 360 133T398 178T412 252Q412 296 398 326T361 371T308 386Q278
386 255 371T217 326T203 252Q203 208 217 178T254 133T307 118Z" />
<glyph unicode="p" horiz-adv-x="663" d="M65 -220V504H198L215 438V438Q231 459 252 477T302 505T372 516Q442 516 495 481T581 387T613 251Q613 175 581 116T494 22T373 -12Q319 -12 280 7T215 60V-220H65ZM335 119Q371 119 399 135T444 182T460 251Q460 290
444 320T400 367T335 385Q298 385 270 368T225 320T209 252Q209 213 225 183T269 136T335 119Z" />
<glyph unicode="q" horiz-adv-x="663" d="M448 -220V66Q424 32 386 10T293 -12Q224 -12 169 22T82 117T50 252Q50 328 82 387T170 481T293 516Q329 516 358 507T409 482T448 444V444L465 504H598V-220H448ZM328 119Q365 119 393 136T437 183T453 252Q453 291 438
321T394 368T328 385Q292 385 264 368T219 321T203 253Q203 214 219 184T263 136T328 119Z" />
<glyph unicode="r" horiz-adv-x="420" d="M65 0V504H198L212 412V412Q232 444 259 467T321 503T398 516V357H348Q318 357 294 351T252 329T225 289T215 225V0H65Z" />
<glyph unicode="s" horiz-adv-x="540" d="M275 -12Q204 -12 153 10T72 72T38 160H187Q191 143 201 130T230 109T272 101Q297 101 312 107T336 125T344 148Q344 167 333 177T299 193T246 206Q210 214 175 224T112 251T68 292T51 355Q51 400 76 436T148 494T262
516Q357 516 411 474T475 361H335Q329 381 310 391T262 402Q229 402 212 391T195 362Q195 350 206 341T240 324T294 310Q355 297 399 282T469 239T493 156Q494 107 468 69T392 10T275 -12Z" />
<glyph unicode="t" horiz-adv-x="445" d="M300 0Q246 0 204 17T139 75T116 184V379H30V504H116L132 646H266V504H395V379H266V182Q266 152 279 140T326 127H395V0H300Z" />
<glyph unicode="u" horiz-adv-x="629" d="M255 -12Q192 -12 149 14T83 90T60 214V504H210V229Q210 173 233 144T307 114Q338 114 362 128T400 169T414 235V504H564V0H433L421 80V80Q399 39 357 14T255 -12Z" />
<glyph unicode="v" horiz-adv-x="577" d="M197 0L14 504H172L289 141V141L406 504H562L380 0H197Z" />
<glyph unicode="w" horiz-adv-x="837" d="M163 0L14 504H162L256 100L228 101L336 504H501L609 101L581 100L674 504H822L674 0H518L403 413H434L318 0H163Z" />
<glyph unicode="x" horiz-adv-x="593" d="M19 0L203 252L19 504H181L297 341V341L413 504H574L390 252L574 0H413L297 164V164L181 0H19Z" />
<glyph unicode="y" horiz-adv-x="619" d="M132 -220L253 56H223L20 504H183L322 197V197L438 504H599L291 -220H132Z" />
<glyph unicode="z" horiz-adv-x="500" d="M32 0V120L279 380H35V504H451V384L202 124H456V0H32Z" />
<glyph unicode="{" horiz-adv-x="483" d="M348 -184Q267 -184 217 -140T166 -10Q166 23 171 51T182 107T188 169Q188 192 178 210T147 240T88 254V374Q125 377 146 387T178 416T188 459Q188 492 183 520T172 576T166 638Q166 723 216 767T348 811H417V687H377Q343
687 327 672T311 624Q311 600 315 574T324 519T328 453Q328 401 303 364T220 315V313Q277 302 302 265T328 174Q328 138 324 109T316 54T311 4Q311 -28 327 -44T377 -60H417V-184H348Z" />
<glyph unicode="|" horiz-adv-x="284" d="M67 -100V720H217V-100H67Z" />
<glyph unicode="}" horiz-adv-x="483" d="M135 -184H66V-60H107Q141 -60 156 -44T172 4Q172 28 168 53T160 108T155 174Q155 228 181 265T263 313V315Q207 327 181 364T155 453Q155 489 159 518T168 574T172 624Q172 657 157 672T107 687H66V811H135Q217 811 267
767T317 638Q317 605 312 577T301 520T295 459Q295 435 305 417T337 388T396 374V254Q359 252 337 241T305 211T295 169Q295 136 300 108T311 51T317 -10Q317 -95 267 -139T135 -184Z" />
<glyph unicode="~" horiz-adv-x="588" d="M382 217Q349 217 324 227T278 251T237 274T195 285Q169 285 153 268T132 218H21Q31 288 56 332T119 396T202 417Q235 417 260 407T307 384T349 361T391 350Q418 350 434 367T453 417H566Q557 347 532 303T468 238T382 217Z" />
<glyph unicode="&#xa0;" horiz-adv-x="226" />
<glyph unicode="&#xa1;" horiz-adv-x="326" d="M100 274H227L244 -189H83L100 274ZM164 516Q204 516 229 492T254 432Q254 396 229 372T164 347Q123 347 98 371T72 432Q72 467 97 491T164 516Z" />
<glyph unicode="&#xa2;" horiz-adv-x="617" d="M246 -104V76H382V-104H246ZM246 428V608H382V428H246ZM314 -12Q236 -12 177 22T84 115T50 250Q50 328 83 387T176 481T314 516Q413 516 480 464T566 319H407Q398 351 373 369T313 387Q280 387 256 371T217 324T203
252Q203 221 211 196T233 153T268 126T313 116Q337 116 355 124T387 147T407 184H566Q548 94 480 41T314 -12Z" />
<glyph unicode="&#xa3;" horiz-adv-x="635" d="M73 0V85Q99 111 117 137T143 196T152 271Q152 297 145 323T128 377T110 434T102 497Q102 564 132 612T215 686T337 712Q415 712 467 682T545 602T575 490H436Q435 533 411 561T340 589Q314 589 292 578T257 545T244
491Q244 469 251 443T269 390T286 332T294 272Q294 234 280 194T227 119H578V0H73ZM40 293V394H452V293H40Z" />
<glyph unicode="&#xa4;" horiz-adv-x="568" d="M285 117Q226 117 182 139T112 202T86 298Q86 353 112 393T183 455T286 477Q344 477 389 456T459 394T485 298Q485 243 459 203T388 140T285 117ZM123 74L62 136L157 231L230 182L123 74ZM446 74L352 169L416 227L507
136L446 74ZM285 209Q305 209 323 218T352 246T364 297Q364 329 353 348T323 377T285 386Q264 386 247 377T218 349T206 297Q206 266 217 247T246 218T285 209ZM154 370L62 462L123 523L223 423L154 370ZM405 360L346 422L446 523L507 462L405 360Z" />
<glyph unicode="&#xa5;" horiz-adv-x="664" d="M57 145V246H607V145H57ZM287 317H57V419H284L287 317ZM412 317L414 419H607V317H412ZM258 0V240L19 700H189L348 364H320L478 700H646L408 240V0H258Z" />
<glyph unicode="&#xa6;" horiz-adv-x="284" d="M67 397V720H217V397H67ZM67 -100V223H217V-100H67Z" />
<glyph unicode="&#xa7;" horiz-adv-x="626" d="M309 -232Q237 -232 182 -208T95 -137T60 -26H221Q223 -48 234 -66T264 -94T310 -106Q346 -107 369 -90T393 -38Q393 -15 382 -1T350 24T302 43T241 62Q189 80 144 106T72 172T44 273Q44 313 58 348T100 412Q87 432
80 455T73 509Q73 573 104 618T191 688T315 712Q388 712 443 688T530 617T564 506H403Q402 528 391 546T360 575T314 586Q279 587 255 570T231 518Q231 496 242 481T274 456T323 437T383 417Q436 399 481 374T553 308T580 207Q580 168 566 132T524 68Q538 49 544
25T551 -28Q551 -91 520 -137T433 -207T309 -232ZM403 149Q411 158 415 170T420 197Q420 218 410 234T380 263T334 288T271 312Q255 317 243 322T221 331Q213 322 209 310T204 283Q204 267 210 254T229 230T260 208T301 189T352 168Q365 164 378 159T403 149Z"
/>
<glyph unicode="&#xa8;" horiz-adv-x="349" d="M269 561Q241 561 222 580T202 629Q202 658 221 677T269 697Q298 697 317 678T337 629Q337 600 318 581T269 561ZM79 561Q50 561 31 580T11 629Q11 658 30 677T79 697Q108 697 127 678T147 629Q147 600 128 581T79 561Z" />
<glyph unicode="&#xa9;" horiz-adv-x="783" d="M392 -6Q288 -6 209 39T86 166T41 352Q41 458 85 538T209 664T392 710Q496 710 574 665T697 539T742 352Q742 248 698 167T575 40T392 -6ZM392 126Q330 126 280 153T201 232T172 353Q172 422 200 473T279 551T392
579Q471 579 527 537T600 418H470Q462 445 441 461T388 477Q361 477 340 464T307 422T294 352Q294 311 306 284T340 242T388 228Q422 228 441 244T470 287H600Q584 214 528 170T392 126ZM391 45Q483 45 549 84T651 192T687 352Q687 446 651 514T549 621T391 659Q301
659 235 621T132 515T96 352Q96 261 132 192T234 84T391 45Z" />
<glyph unicode="&#xaa;" horiz-adv-x="515" d="M221 348Q173 348 135 370T74 433T52 530Q52 585 74 625T133 688T218 711Q263 711 293 696T340 655L350 705H455V353H350L340 402V402Q324 378 294 363T221 348ZM254 438Q278 438 297 448T328 479T340 530Q340 574
315 597T254 620Q220 620 195 597T169 529Q169 484 194 461T254 438Z" />
<glyph unicode="&#xab;" horiz-adv-x="532" d="M342 120L255 295L342 470H482L392 295L482 120H342ZM128 120L41 295L128 470H268L178 295L268 120H128Z" />
<glyph unicode="&#xac;" horiz-adv-x="588" d="M446 190V325H-8V440H596V190H446Z" />
<glyph unicode="&#xae;" horiz-adv-x="512" d="M256 287Q194 287 146 314T70 389T42 499Q42 562 69 609T145 684T256 712Q319 712 366 685T441 610T469 499Q469 437 442 390T367 315T256 287ZM286 395L233 491H302L362 395H286ZM256 338Q304 338 339 358T395 415T415
499Q415 547 395 583T340 640T256 661Q208 661 172 641T117 584T97 499Q97 452 116 415T172 358T256 338ZM168 395V608H275Q310 608 330 590T351 540Q351 509 331 491T275 472H234V395H168ZM233 518H265Q273 518 278 522T284 536Q284 545 279 548T265 552H233V518Z"
/>
<glyph unicode="&#xaf;" horiz-adv-x="407" d="M10 572V677H397V572H10Z" />
<glyph unicode="&#xb0;" horiz-adv-x="369" d="M184 417Q145 417 111 435T57 486T37 563Q37 609 57 642T112 694T185 712Q225 712 258 694T311 643T332 563Q332 519 312 486T258 435T184 417ZM184 508Q203 508 219 522T236 565Q236 593 220 606T185 620Q166 620
149 607T132 565Q132 537 148 523T184 508Z" />
<glyph unicode="&#xb1;" horiz-adv-x="588" d="M43 0V115H545V0H43ZM231 182V548H357V182H231ZM43 302V427H545V302H43Z" />
<glyph unicode="&#xb2;" horiz-adv-x="370" d="M38 352V436L158 515Q186 534 201 553T217 595Q217 612 208 621T184 631Q168 631 159 620T147 589H34Q38 643 79 678T195 713Q244 713 275 697T321 656T337 603Q337 565 310 537T224 478L158 441H334V352H38Z" />
<glyph unicode="&#xb3;" horiz-adv-x="363" d="M182 348Q101 348 62 380T18 466H135Q136 453 141 445T156 433T176 429Q194 429 204 438T215 466Q215 486 203 496T169 506H132V558H164Q186 558 198 567T210 596Q210 613 200 622T171 631Q154 631 144 623T131 597H23Q25
628 42 654T94 697T183 713Q249 713 290 684T331 609Q331 578 313 559T264 532V529Q298 520 317 500T336 448Q336 403 294 376T182 348Z" />
<glyph unicode="&#xb4;" horiz-adv-x="241" d="M13 547L0 644L225 769V769L241 657L13 547Z" />
<glyph unicode="&#xb5;" horiz-adv-x="636" d="M65 -220V496H215V235Q215 177 237 146T313 114Q345 114 369 129T407 172T421 241V496H571V0H440L428 81V81Q405 40 363 14T260 -12Q247 -12 236 -10T215 -4V-220H65Z" />
<glyph unicode="&#xb6;" horiz-adv-x="671" d="M288 -100V277H268Q185 277 133 306T56 384T31 488Q31 544 55 592T132 670T268 700H604V-100H480V585H413V-100H288Z" />
<glyph unicode="&#xb7;" horiz-adv-x="268" d="M135 237Q94 237 69 261T43 321Q43 357 68 381T135 406Q175 406 200 382T225 321Q225 286 200 262T135 237Z" />
<glyph unicode="&#xb8;" horiz-adv-x="277" d="M0 -265V-181H122Q144 -181 156 -174T168 -150Q168 -134 156 -127T122 -120H56V7H148V-43Q179 -43 209 -54T258 -89T277 -153Q277 -192 258 -216T209 -253T143 -265H0Z" />
<glyph unicode="&#xb9;" horiz-adv-x="247" d="M93 352V598L22 583V653L144 704H207V352H93Z" />
<glyph unicode="&#xba;" horiz-adv-x="494" d="M246 349Q188 349 144 372T75 436T50 531Q50 586 75 626T144 689T247 712Q306 712 350 690T419 627T444 531Q444 477 419 436T349 372T246 349ZM246 438Q268 438 286 448T315 479T327 531Q327 562 316 582T287 613T246
624Q224 624 207 614T178 583T167 531Q167 500 177 480T206 449T246 438Z" />
<glyph unicode="&#xbb;" horiz-adv-x="532" d="M190 120H50L140 295L50 470H190L277 295L190 120ZM404 120H264L354 295L264 470H404L491 295L404 120Z" />
<glyph unicode="&#xbc;" horiz-adv-x="877" d="M93 352V598L22 583V653L144 704H207V352H93ZM149 0L538 700H683L294 0H149ZM710 0V59H547V133L698 348H820V134H854V59H820V0H710ZM658 134H718V227V227L658 134Z" />
<glyph unicode="&#xbd;" horiz-adv-x="911" d="M93 352V598L22 583V653L144 704H207V352H93ZM149 0L538 700H683L294 0H149ZM579 0V84L699 163Q727 182 742 201T758 243Q758 260 749 269T725 279Q709 279 700 268T688 237H575Q579 291 620 326T736 361Q785 361
816 345T862 304T878 251Q878 213 851 185T765 126L699 89H875V0H579Z" />
<glyph unicode="&#xbe;" horiz-adv-x="958" d="M182 348Q101 348 62 380T18 466H135Q136 453 141 445T156 433T176 429Q194 429 204 438T215 466Q215 486 203 496T169 506H132V558H164Q186 558 198 567T210 596Q210 613 200 622T171 631Q154 631 144 623T131 597H23Q25
628 42 654T94 697T183 713Q249 713 290 684T331 609Q331 578 313 559T264 532V529Q298 520 317 500T336 448Q336 403 294 376T182 348ZM230 0L619 700H764L375 0H230ZM790 0V59H627V133L778 348H900V134H934V59H900V0H790ZM738 134H798V227V227L738 134Z" />
<glyph unicode="&#xbf;" horiz-adv-x="543" d="M405 277L409 114H356Q319 114 288 110T234 94T198 63T185 10Q185 -17 196 -37T227 -67T276 -78Q306 -78 326 -67T358 -36T369 11H510Q512 -49 484 -97T403 -173T273 -201Q205 -201 152 -177T69 -105T39 10Q39 78
68 122T150 189T268 212L272 277H405ZM337 516Q378 516 403 492T428 432Q428 396 403 372T337 347Q297 347 272 371T247 432Q247 467 272 491T337 516Z" />
<glyph unicode="&#xc0;" horiz-adv-x="722" d="M20 0L275 700H447L702 0H543L360 531V531L177 0H20ZM131 153L171 269H538L577 153H131ZM468 743L240 854L256 966V966L481 841L468 743Z" />
<glyph unicode="&#xc1;" horiz-adv-x="722" d="M20 0L275 700H447L702 0H543L360 531V531L177 0H20ZM131 153L171 269H538L577 153H131ZM253 743L240 841L465 966V966L481 854L253 743Z" />
<glyph unicode="&#xc2;" horiz-adv-x="722" d="M20 0L275 700H447L702 0H543L360 531V531L177 0H20ZM131 153L171 269H538L577 153H131ZM210 742V848L361 927L511 848V742L361 825L210 742Z" />
<glyph unicode="&#xc3;" horiz-adv-x="722" d="M20 0L275 700H447L702 0H543L360 531V531L177 0H20ZM131 153L171 269H538L577 153H131ZM423 749Q394 749 373 760T335 783T296 795Q280 795 269 784T253 750H175Q187 822 220 854T303 886Q332 886 353 875T392 852T430
841Q447 841 458 852T473 886H551Q540 814 507 782T423 749Z" />
<glyph unicode="&#xc4;" horiz-adv-x="722" d="M20 0L275 700H447L702 0H543L360 531V531L177 0H20ZM131 153L171 269H538L577 153H131ZM265 765Q237 765 218 784T198 833Q198 862 217 881T265 901Q295 901 314 882T334 833Q334 804 315 785T265 765ZM456 765Q427
765 408 784T388 833Q388 862 407 881T456 901Q485 901 504 882T524 833Q524 804 505 785T456 765Z" />
<glyph unicode="&#xc5;" horiz-adv-x="722" d="M20 0L275 700H447L702 0H543L360 531V531L177 0H20ZM131 153L171 269H538L577 153H131ZM361 746Q313 746 278 777T243 862Q243 917 278 948T361 979Q410 979 445 948T480 862Q480 808 445 777T361 746ZM361 811Q382
811 396 825T411 863Q411 887 397 900T361 914Q341 914 326 901T311 863Q311 839 326 825T361 811Z" />
<glyph unicode="&#xc6;" horiz-adv-x="955" d="M20 0L389 700H902V581H640V414H872V300H640V119H902V0H490V587V587L183 0H20ZM165 128L228 243H562V128H165Z" />
<glyph unicode="&#xc7;" horiz-adv-x="744" d="M384 -12Q279 -12 203 33T86 160T45 348Q45 456 86 537T203 665T384 712Q514 712 596 647T699 464H535Q523 517 484 546T383 576Q324 576 283 548T220 470T198 348Q198 279 219 229T282 151T383 123Q445 123 483
149T535 226H699Q679 115 597 52T384 -12ZM277 -268V-184H399Q421 -184 433 -177T445 -153Q445 -137 433 -130T399 -123H333V4H425V-46Q456 -46 486 -57T535 -92T554 -156Q554 -195 535 -219T486 -256T420 -268H277Z" />
<glyph unicode="&#xc8;" horiz-adv-x="588" d="M67 0V700H536V579H217V414H506V298H217V121H536V0H67ZM409 743L181 854L197 966V966L422 841L409 743Z" />
<glyph unicode="&#xc9;" horiz-adv-x="588" d="M67 0V700H536V579H217V414H506V298H217V121H536V0H67ZM194 743L181 841L406 966V966L422 854L194 743Z" />
<glyph unicode="&#xca;" horiz-adv-x="588" d="M67 0V700H536V579H217V414H506V298H217V121H536V0H67ZM151 742V848L302 927L452 848V742L302 825L151 742Z" />
<glyph unicode="&#xcb;" horiz-adv-x="588" d="M67 0V700H536V579H217V414H506V298H217V121H536V0H67ZM205 765Q177 765 158 784T138 833Q138 862 157 881T205 901Q235 901 254 882T274 833Q274 804 255 785T205 765ZM396 765Q367 765 348 784T328 833Q328 862
347 881T396 901Q425 901 444 882T464 833Q464 804 445 785T396 765Z" />
<glyph unicode="&#xcc;" horiz-adv-x="284" d="M67 0V700H217V0H67ZM250 743L22 854L38 966V966L263 841L250 743Z" />
<glyph unicode="&#xcd;" horiz-adv-x="284" d="M67 0V700H217V0H67ZM35 743L22 841L247 966V966L263 854L35 743Z" />
<glyph unicode="&#xce;" horiz-adv-x="284" d="M67 0V700H217V0H67ZM248 742V848L399 927L549 848V742L399 825L248 742Z" />
<glyph unicode="&#xcf;" horiz-adv-x="284" d="M67 0V700H217V0H67ZM302 765Q274 765 255 784T235 833Q235 862 254 881T302 901Q332 901 351 882T371 833Q371 804 352 785T302 765ZM493 765Q464 765 445 784T425 833Q425 862 444 881T493 901Q522 901 541 882T561
833Q561 804 542 785T493 765Z" />
<glyph unicode="&#xd0;" horiz-adv-x="722" d="M5 287V414H389V287H5ZM76 0V700H319Q441 700 520 657T637 535T676 350Q676 245 638 167T520 44T319 0H76ZM226 129H310Q391 129 437 155T503 231T523 350Q523 420 504 469T438 545T310 572H226V129Z" />
<glyph unicode="&#xd1;" horiz-adv-x="741" d="M67 0V700H217L524 240V240V700H674V0H524L217 458V458V0H67ZM433 749Q404 749 383 760T345 783T306 795Q290 795 279 784T263 750H185Q197 822 230 854T313 886Q342 886 363 875T402 852T440 841Q457 841 468 852T483
886H561Q550 814 517 782T433 749Z" />
<glyph unicode="&#xd2;" horiz-adv-x="786" d="M393 -12Q290 -12 212 34T90 161T45 350Q45 457 89 538T212 666T393 712Q496 712 575 666T697 539T741 350Q741 243 698 162T575 34T393 -12ZM393 123Q454 123 497 151T565 229T589 350Q589 420 565 470T498 548T393
576Q334 576 290 549T222 471T198 350Q198 280 222 230T290 151T393 123ZM501 743L273 854L289 966V966L514 841L501 743Z" />
<glyph unicode="&#xd3;" horiz-adv-x="786" d="M393 -12Q290 -12 212 34T90 161T45 350Q45 457 89 538T212 666T393 712Q496 712 575 666T697 539T741 350Q741 243 698 162T575 34T393 -12ZM393 123Q454 123 497 151T565 229T589 350Q589 420 565 470T498 548T393
576Q334 576 290 549T222 471T198 350Q198 280 222 230T290 151T393 123ZM286 743L273 841L498 966V966L514 854L286 743Z" />
<glyph unicode="&#xd4;" horiz-adv-x="786" d="M393 -12Q290 -12 212 34T90 161T45 350Q45 457 89 538T212 666T393 712Q496 712 575 666T697 539T741 350Q741 243 698 162T575 34T393 -12ZM393 123Q454 123 497 151T565 229T589 350Q589 420 565 470T498 548T393
576Q334 576 290 549T222 471T198 350Q198 280 222 230T290 151T393 123ZM243 742V848L394 927L544 848V742L394 825L243 742Z" />
<glyph unicode="&#xd5;" horiz-adv-x="786" d="M393 -12Q290 -12 212 34T90 161T45 350Q45 457 89 538T212 666T393 712Q496 712 575 666T697 539T741 350Q741 243 698 162T575 34T393 -12ZM393 123Q454 123 497 151T565 229T589 350Q589 420 565 470T498 548T393
576Q334 576 290 549T222 471T198 350Q198 280 222 230T290 151T393 123ZM456 749Q427 749 406 760T368 783T329 795Q313 795 302 784T286 750H208Q220 822 253 854T336 886Q365 886 386 875T425 852T463 841Q480 841 491 852T506 886H584Q573 814 540 782T456
749Z" />
<glyph unicode="&#xd6;" horiz-adv-x="786" d="M393 -12Q290 -12 212 34T90 161T45 350Q45 457 89 538T212 666T393 712Q496 712 575 666T697 539T741 350Q741 243 698 162T575 34T393 -12ZM393 123Q454 123 497 151T565 229T589 350Q589 420 565 470T498 548T393
576Q334 576 290 549T222 471T198 350Q198 280 222 230T290 151T393 123ZM298 765Q270 765 251 784T231 833Q231 862 250 881T298 901Q328 901 347 882T367 833Q367 804 348 785T298 765ZM489 765Q460 765 441 784T421 833Q421 862 440 881T489 901Q518 901 537
882T557 833Q557 804 538 785T489 765Z" />
<glyph unicode="&#xd7;" horiz-adv-x="588" d="M173 81L85 169L206 289L87 409L175 496L294 377L414 498L502 410L382 289L501 170L413 83L294 202L173 81Z" />
<glyph unicode="&#xd8;" horiz-adv-x="778" d="M24 0L616 700H754L162 0H24ZM393 -12Q290 -12 212 34T89 161T44 350Q44 457 88 538T211 666T393 712Q496 712 574 666T697 539T741 350Q741 243 697 162T575 34T393 -12ZM393 123Q453 123 496 151T564 229T588 350Q588
420 564 470T497 548T393 576Q333 576 289 549T221 471T197 350Q197 280 221 230T289 151T393 123Z" />
<glyph unicode="&#xd9;" horiz-adv-x="693" d="M344 -12Q265 -12 201 19T99 114T61 273V700H211V272Q211 225 226 192T272 143T346 126Q390 126 420 142T467 192T483 272V700H633V273Q633 177 594 114T489 20T344 -12ZM454 743L226 854L242 966V966L467 841L454 743Z" />
<glyph unicode="&#xda;" horiz-adv-x="693" d="M344 -12Q265 -12 201 19T99 114T61 273V700H211V272Q211 225 226 192T272 143T346 126Q390 126 420 142T467 192T483 272V700H633V273Q633 177 594 114T489 20T344 -12ZM239 743L226 841L451 966V966L467 854L239 743Z" />
<glyph unicode="&#xdb;" horiz-adv-x="693" d="M344 -12Q265 -12 201 19T99 114T61 273V700H211V272Q211 225 226 192T272 143T346 126Q390 126 420 142T467 192T483 272V700H633V273Q633 177 594 114T489 20T344 -12ZM196 742V848L347 927L497 848V742L347 825L196 742Z" />
<glyph unicode="&#xdc;" horiz-adv-x="693" d="M344 -12Q265 -12 201 19T99 114T61 273V700H211V272Q211 225 226 192T272 143T346 126Q390 126 420 142T467 192T483 272V700H633V273Q633 177 594 114T489 20T344 -12ZM251 765Q223 765 204 784T184 833Q184 862
203 881T251 901Q281 901 300 882T320 833Q320 804 301 785T251 765ZM442 765Q413 765 394 784T374 833Q374 862 393 881T442 901Q471 901 490 882T510 833Q510 804 491 785T442 765Z" />
<glyph unicode="&#xdd;" horiz-adv-x="651" d="M251 0V240L12 700H182L341 364H313L471 700H639L401 240V0H251ZM218 743L205 841L430 966V966L446 854L218 743Z" />
<glyph unicode="&#xde;" horiz-adv-x="624" d="M67 0V700H217V570H340Q425 570 481 541T566 463T594 349Q594 291 568 242T485 161T340 130H217V0H67ZM217 250H330Q389 250 415 277T441 349Q441 396 415 422T330 448H217V250Z" />
<glyph unicode="&#xdf;" horiz-adv-x="726" d="M487 -10Q392 -10 333 39T263 178H402Q406 142 427 121T485 100Q517 100 534 114T551 155Q551 181 534 198T465 233Q383 262 347 292T310 368Q310 395 322 413T352 444T387 471T416 499T428 534Q428 569 401 588T327
607Q269 607 242 576T214 490V0H65V502Q65 571 97 622T190 703T334 732Q410 732 464 708T548 643T578 552Q578 522 566 502T537 466T502 440T472 417T460 392Q460 382 467 373T494 353T556 328Q632 300 664 262T697 165Q697 113 671 74T598 12T487 -10Z" />
<glyph unicode="&#xe0;" horiz-adv-x="598" d="M237 -12Q174 -12 133 8T72 62T52 139Q52 184 74 218T145 273T266 294H388Q388 328 380 350T352 383T300 394Q265 394 241 380T211 336H67Q72 390 102 430T184 493T301 516Q373 516 426 493T508 424T538 312V0H413L395
73V73Q384 54 369 39T334 12T290 -6T237 -12ZM274 102Q298 102 316 110T347 132T368 164T381 205V206H284Q259 206 243 200T218 181T210 153Q210 136 218 125T241 108T274 102ZM402 547L174 657L190 769V769L415 644L402 547Z" />
<glyph unicode="&#xe1;" horiz-adv-x="598" d="M237 -12Q174 -12 133 8T72 62T52 139Q52 184 74 218T145 273T266 294H388Q388 328 380 350T352 383T300 394Q265 394 241 380T211 336H67Q72 390 102 430T184 493T301 516Q373 516 426 493T508 424T538 312V0H413L395
73V73Q384 54 369 39T334 12T290 -6T237 -12ZM274 102Q298 102 316 110T347 132T368 164T381 205V206H284Q259 206 243 200T218 181T210 153Q210 136 218 125T241 108T274 102ZM187 547L174 644L399 769V769L415 657L187 547Z" />
<glyph unicode="&#xe2;" horiz-adv-x="598" d="M237 -12Q174 -12 133 8T72 62T52 139Q52 184 74 218T145 273T266 294H388Q388 328 380 350T352 383T300 394Q265 394 241 380T211 336H67Q72 390 102 430T184 493T301 516Q373 516 426 493T508 424T538 312V0H413L395
73V73Q384 54 369 39T334 12T290 -6T237 -12ZM274 102Q298 102 316 110T347 132T368 164T381 205V206H284Q259 206 243 200T218 181T210 153Q210 136 218 125T241 108T274 102ZM145 550V655L296 734L446 655V550L296 632L145 550Z" />
<glyph unicode="&#xe3;" horiz-adv-x="598" d="M237 -12Q174 -12 133 8T72 62T52 139Q52 184 74 218T145 273T266 294H388Q388 328 380 350T352 383T300 394Q265 394 241 380T211 336H67Q72 390 102 430T184 493T301 516Q373 516 426 493T508 424T538 312V0H413L395
73V73Q384 54 369 39T334 12T290 -6T237 -12ZM274 102Q298 102 316 110T347 132T368 164T381 205V206H284Q259 206 243 200T218 181T210 153Q210 136 218 125T241 108T274 102ZM355 570Q326 570 305 581T267 603T228 615Q212 615 201 604T185 570H107Q119 642 152
674T235 707Q264 707 285 696T324 673T362 661Q379 661 390 672T405 706H483Q472 634 439 602T355 570Z" />
<glyph unicode="&#xe4;" horiz-adv-x="598" d="M237 -12Q174 -12 133 8T72 62T52 139Q52 184 74 218T145 273T266 294H388Q388 328 380 350T352 383T300 394Q265 394 241 380T211 336H67Q72 390 102 430T184 493T301 516Q373 516 426 493T508 424T538 312V0H413L395
73V73Q384 54 369 39T334 12T290 -6T237 -12ZM274 102Q298 102 316 110T347 132T368 164T381 205V206H284Q259 206 243 200T218 181T210 153Q210 136 218 125T241 108T274 102ZM199 570Q171 570 152 589T132 637Q132 666 151 685T199 705Q229 705 248 686T268 637Q268
608 249 589T199 570ZM390 570Q361 570 342 589T322 637Q322 666 341 685T390 705Q419 705 438 686T458 637Q458 608 439 589T390 570Z" />
<glyph unicode="&#xe5;" horiz-adv-x="598" d="M237 -12Q174 -12 133 8T72 62T52 139Q52 184 74 218T145 273T266 294H388Q388 328 380 350T352 383T300 394Q265 394 241 380T211 336H67Q72 390 102 430T184 493T301 516Q373 516 426 493T508 424T538 312V0H413L395
73V73Q384 54 369 39T334 12T290 -6T237 -12ZM274 102Q298 102 316 110T347 132T368 164T381 205V206H284Q259 206 243 200T218 181T210 153Q210 136 218 125T241 108T274 102ZM295 570Q247 570 212 601T177 686Q177 741 212 772T295 803Q344 803 379 772T414 686Q414
632 379 601T295 570ZM295 634Q316 634 330 648T345 686Q345 710 331 724T295 738Q275 738 260 725T245 686Q245 663 260 649T295 634Z" />
<glyph unicode="&#xe6;" horiz-adv-x="953" d="M249 -12Q184 -12 140 8T74 64T52 140Q52 185 74 221T142 277T264 298H392Q392 330 384 351T356 383T305 394Q273 394 249 380T220 338H75Q80 391 110 431T191 493T306 516Q363 516 408 500T484 453Q517 483 560
499T655 516Q730 516 787 483T876 393T908 261Q908 251 908 239T906 213H545Q548 182 562 159T599 123T653 110Q690 110 712 126T746 167H897Q884 117 850 77T766 12T655 -12Q591 -12 538 13T451 81Q429 53 400 32T334 0T249 -12ZM274 102Q303 102 325 115T363
153T385 207V211H284Q259 211 243 204T218 185T210 156Q210 140 218 128T241 109T274 102ZM548 301H756Q753 345 725 370T656 395Q630 395 608 385T570 354T548 301Z" />
<glyph unicode="&#xe7;" horiz-adv-x="617" d="M314 -12Q236 -12 177 22T84 115T50 250Q50 328 83 387T176 481T314 516Q413 516 480 464T566 319H407Q398 351 373 369T313 387Q280 387 256 371T217 324T203 252Q203 221 211 196T233 153T268 126T313 116Q337
116 355 124T387 147T407 184H566Q548 94 480 41T314 -12ZM214 -268V-184H336Q358 -184 370 -177T382 -153Q382 -137 370 -130T336 -123H270V4H362V-46Q393 -46 423 -57T472 -92T491 -156Q491 -195 472 -219T423 -256T357 -268H214Z" />
<glyph unicode="&#xe8;" horiz-adv-x="612" d="M313 -12Q235 -12 176 20T84 111T50 246Q50 324 83 385T175 481T312 516Q388 516 445 483T534 394T567 263Q567 253 567 241T564 215H157V302H414Q412 344 384 369T313 395Q281 395 255 380T214 335T198 259V229Q198
194 211 167T250 125T311 110Q344 110 365 123T399 158H552Q538 110 504 72T421 11T313 -12ZM417 547L189 657L205 769V769L430 644L417 547Z" />
<glyph unicode="&#xe9;" horiz-adv-x="612" d="M313 -12Q235 -12 176 20T84 111T50 246Q50 324 83 385T175 481T312 516Q388 516 445 483T534 394T567 263Q567 253 567 241T564 215H157V302H414Q412 344 384 369T313 395Q281 395 255 380T214 335T198 259V229Q198
194 211 167T250 125T311 110Q344 110 365 123T399 158H552Q538 110 504 72T421 11T313 -12ZM202 547L189 644L414 769V769L430 657L202 547Z" />
<glyph unicode="&#xea;" horiz-adv-x="612" d="M313 -12Q235 -12 176 20T84 111T50 246Q50 324 83 385T175 481T312 516Q388 516 445 483T534 394T567 263Q567 253 567 241T564 215H157V302H414Q412 344 384 369T313 395Q281 395 255 380T214 335T198 259V229Q198
194 211 167T250 125T311 110Q344 110 365 123T399 158H552Q538 110 504 72T421 11T313 -12ZM159 550V655L310 734L460 655V550L310 632L159 550Z" />
<glyph unicode="&#xeb;" horiz-adv-x="612" d="M313 -12Q235 -12 176 20T84 111T50 246Q50 324 83 385T175 481T312 516Q388 516 445 483T534 394T567 263Q567 253 567 241T564 215H157V302H414Q412 344 384 369T313 395Q281 395 255 380T214 335T198 259V229Q198
194 211 167T250 125T311 110Q344 110 365 123T399 158H552Q538 110 504 72T421 11T313 -12ZM214 570Q186 570 167 589T147 637Q147 666 166 685T214 705Q244 705 263 686T283 637Q283 608 264 589T214 570ZM405 570Q376 570 357 589T337 637Q337 666 356 685T405
705Q434 705 453 686T473 637Q473 608 454 589T405 570Z" />
<glyph unicode="&#xec;" horiz-adv-x="280" d="M65 0V504H215V0H65ZM248 547L20 657L36 769V769L261 644L248 547Z" />
<glyph unicode="&#xed;" horiz-adv-x="280" d="M65 0V504H215V0H65ZM33 547L20 644L245 769V769L261 657L33 547Z" />
<glyph unicode="&#xee;" horiz-adv-x="280" d="M65 0V504H215V0H65ZM246 550V655L397 734L547 655V550L397 632L246 550Z" />
<glyph unicode="&#xef;" horiz-adv-x="280" d="M65 0V504H215V0H65ZM300 570Q272 570 253 589T233 637Q233 666 252 685T300 705Q330 705 349 686T369 637Q369 608 350 589T300 570ZM491 570Q462 570 443 589T423 637Q423 666 442 685T491 705Q520 705 539 686T559
637Q559 608 540 589T491 570Z" />
<glyph unicode="&#xf0;" horiz-adv-x="646" d="M320 -12Q241 -12 180 22T85 114T50 246Q50 320 83 378T175 469T310 502Q347 502 377 494T434 467Q422 499 404 531T365 593T319 650T267 700H407Q456 657 492 606T551 501T585 393T596 292Q596 198 560 130T461
25T320 -12ZM323 116Q356 116 383 131T426 176T442 245Q442 286 427 314T384 359T323 375Q290 375 263 359T220 315T204 245Q204 205 220 176T263 132T323 116ZM259 530V617L554 710V622L259 530Z" />
<glyph unicode="&#xf1;" horiz-adv-x="629" d="M65 0V504H196L208 423V423Q231 465 273 490T375 516Q438 516 481 489T546 412T569 288V0H420V274Q420 329 397 359T322 390Q292 390 268 376T229 334T215 269V0H65ZM400 570Q371 570 350 581T312 603T273 615Q257
615 246 604T230 570H152Q164 642 197 674T280 707Q309 707 330 696T369 673T407 661Q424 661 435 672T450 706H528Q517 634 484 602T400 570Z" />
<glyph unicode="&#xf2;" horiz-adv-x="615" d="M307 -12Q234 -12 176 22T84 115T50 251Q50 329 84 388T176 482T307 516Q381 516 439 482T531 389T565 252Q565 175 531 116T439 22T307 -12ZM307 118Q337 118 360 133T398 178T412 252Q412 296 398 326T361 371T308
386Q278 386 255 371T217 326T203 252Q203 208 217 178T254 133T307 118ZM415 547L187 657L203 769V769L428 644L415 547Z" />
<glyph unicode="&#xf3;" horiz-adv-x="615" d="M307 -12Q234 -12 176 22T84 115T50 251Q50 329 84 388T176 482T307 516Q381 516 439 482T531 389T565 252Q565 175 531 116T439 22T307 -12ZM307 118Q337 118 360 133T398 178T412 252Q412 296 398 326T361 371T308
386Q278 386 255 371T217 326T203 252Q203 208 217 178T254 133T307 118ZM200 547L187 644L412 769V769L428 657L200 547Z" />
<glyph unicode="&#xf4;" horiz-adv-x="615" d="M307 -12Q234 -12 176 22T84 115T50 251Q50 329 84 388T176 482T307 516Q381 516 439 482T531 389T565 252Q565 175 531 116T439 22T307 -12ZM307 118Q337 118 360 133T398 178T412 252Q412 296 398 326T361 371T308
386Q278 386 255 371T217 326T203 252Q203 208 217 178T254 133T307 118ZM157 550V655L308 734L458 655V550L308 632L157 550Z" />
<glyph unicode="&#xf5;" horiz-adv-x="615" d="M307 -12Q234 -12 176 22T84 115T50 251Q50 329 84 388T176 482T307 516Q381 516 439 482T531 389T565 252Q565 175 531 116T439 22T307 -12ZM307 118Q337 118 360 133T398 178T412 252Q412 296 398 326T361 371T308
386Q278 386 255 371T217 326T203 252Q203 208 217 178T254 133T307 118ZM368 570Q339 570 318 581T280 603T241 615Q225 615 214 604T198 570H120Q132 642 165 674T248 707Q277 707 298 696T337 673T375 661Q392 661 403 672T418 706H496Q485 634 452 602T368
570Z" />
<glyph unicode="&#xf6;" horiz-adv-x="615" d="M307 -12Q234 -12 176 22T84 115T50 251Q50 329 84 388T176 482T307 516Q381 516 439 482T531 389T565 252Q565 175 531 116T439 22T307 -12ZM307 118Q337 118 360 133T398 178T412 252Q412 296 398 326T361 371T308
386Q278 386 255 371T217 326T203 252Q203 208 217 178T254 133T307 118ZM212 570Q184 570 165 589T145 637Q145 666 164 685T212 705Q242 705 261 686T281 637Q281 608 262 589T212 570ZM403 570Q374 570 355 589T335 637Q335 666 354 685T403 705Q432 705 451
686T471 637Q471 608 452 589T403 570Z" />
<glyph unicode="&#xf7;" horiz-adv-x="588" d="M71 227V352H516V227H71ZM295 14Q254 14 229 38T204 97Q204 134 229 158T295 183Q335 183 360 159T385 97Q385 63 360 39T295 14ZM295 401Q254 401 229 425T204 485Q204 521 229 545T295 570Q335 570 360 546T385
485Q385 450 360 426T295 401Z" />
<glyph unicode="&#xf8;" horiz-adv-x="593" d="M25 0L457 504H569L137 0H25ZM296 -12Q223 -12 165 22T73 115T39 251Q39 329 73 388T165 482T296 516Q370 516 428 482T520 389T554 252Q554 175 520 116T428 22T296 -12ZM296 118Q326 118 349 133T387 177T401 252Q401
296 388 326T351 371T297 386Q267 386 244 371T206 326T192 252Q192 207 206 178T243 133T296 118Z" />
<glyph unicode="&#xf9;" horiz-adv-x="629" d="M255 -12Q192 -12 149 14T83 90T60 214V504H210V229Q210 173 233 144T307 114Q338 114 362 128T400 169T414 235V504H564V0H433L421 80V80Q399 39 357 14T255 -12ZM418 547L190 657L206 769V769L431 644L418 547Z" />
<glyph unicode="&#xfa;" horiz-adv-x="629" d="M255 -12Q192 -12 149 14T83 90T60 214V504H210V229Q210 173 233 144T307 114Q338 114 362 128T400 169T414 235V504H564V0H433L421 80V80Q399 39 357 14T255 -12ZM203 547L190 644L415 769V769L431 657L203 547Z" />
<glyph unicode="&#xfb;" horiz-adv-x="629" d="M255 -12Q192 -12 149 14T83 90T60 214V504H210V229Q210 173 233 144T307 114Q338 114 362 128T400 169T414 235V504H564V0H433L421 80V80Q399 39 357 14T255 -12ZM160 550V655L311 734L461 655V550L311 632L160 550Z" />
<glyph unicode="&#xfc;" horiz-adv-x="629" d="M255 -12Q192 -12 149 14T83 90T60 214V504H210V229Q210 173 233 144T307 114Q338 114 362 128T400 169T414 235V504H564V0H433L421 80V80Q399 39 357 14T255 -12ZM215 570Q187 570 168 589T148 637Q148 666 167
685T215 705Q245 705 264 686T284 637Q284 608 265 589T215 570ZM406 570Q377 570 358 589T338 637Q338 666 357 685T406 705Q435 705 454 686T474 637Q474 608 455 589T406 570Z" />
<glyph unicode="&#xfd;" horiz-adv-x="619" d="M132 -220L253 56H223L20 504H183L322 197V197L438 504H599L291 -220H132ZM202 547L189 644L414 769V769L430 657L202 547Z" />
<glyph unicode="&#xfe;" horiz-adv-x="663" d="M65 -220V720H215V438Q231 459 252 477T302 505T372 516Q442 516 496 482T581 387T613 251Q613 175 581 116T494 22T373 -12Q319 -12 280 7T215 60V-220H65ZM335 119Q371 119 399 135T444 182T460 251Q460 290 444
320T400 367T335 385Q298 385 270 368T225 320T209 252Q209 213 225 183T269 136T335 119Z" />
<glyph unicode="&#xff;" horiz-adv-x="619" d="M132 -220L253 56H223L20 504H183L322 197V197L438 504H599L291 -220H132ZM214 570Q186 570 167 589T147 637Q147 666 166 685T214 705Q244 705 263 686T283 637Q283 608 264 589T214 570ZM405 570Q376 570 357 589T337
637Q337 666 356 685T405 705Q434 705 453 686T473 637Q473 608 454 589T405 570Z" />
<glyph unicode="&#x2013;" horiz-adv-x="704" d="M78 232V357H626V232H78Z" />
<glyph unicode="&#x2014;" horiz-adv-x="931" d="M78 232V357H853V232H78Z" />
<glyph unicode="&#x2018;" horiz-adv-x="268" d="M30 436L137 700H238L185 436H30Z" />
<glyph unicode="&#x2019;" horiz-adv-x="268" d="M238 700L132 436H30L83 700H238Z" />
<glyph unicode="&#x201a;" horiz-adv-x="274" d="M27 -108L81 153H236L129 -108H27Z" />
<glyph unicode="&#x201c;" horiz-adv-x="479" d="M241 436L348 700H449L395 436H241ZM30 436L137 700H238L185 436H30Z" />
<glyph unicode="&#x201d;" horiz-adv-x="479" d="M238 700L131 436H30L83 700H238ZM449 700L342 436H240L293 700H449Z" />
<glyph unicode="&#x201e;" horiz-adv-x="486" d="M27 -108L81 153H236L129 -108H27ZM240 -108L293 153H448L341 -108H240Z" />
<glyph unicode="&#x2022;" horiz-adv-x="395" d="M197 190Q157 190 125 209T74 260T55 333Q55 374 74 406T125 458T197 477Q237 477 270 458T322 407T341 333Q341 293 322 261T270 209T197 190Z" />
<glyph unicode="&#x2039;" horiz-adv-x="322" d="M130 120L43 295L130 470H270L180 295L270 120H130Z" />
<glyph unicode="&#x203a;" horiz-adv-x="322" d="M192 120H52L142 295L52 470H192L279 295L192 120Z" />
</font>
</defs>
</svg>
