<?xml version="1.0" standalone="no"?>
<!DOCTYPE svg PUBLIC "-//W3C//DTD SVG 1.1//EN" "http://www.w3.org/Graphics/SVG/1.1/DTD/svg11.dtd">
<svg xmlns="http://www.w3.org/2000/svg">
<defs >
<font id="PlusJakartaSans" horiz-adv-x="587" ><font-face
    font-family="Plus Jakarta Sans ExtraBold"
    units-per-em="1000"
    panose-1="0 0 0 0 0 0 0 0 0 0"
    ascent="1038"
    descent="-222"
    alphabetic="0" />
<glyph unicode=" " horiz-adv-x="180" />
<glyph unicode="!" horiz-adv-x="400" d="M129 230L191 745H341L259 230H129ZM87 0L108 150H258L237 0H87Z" />
<glyph unicode="&quot;" horiz-adv-x="532" d="M143 440L167 745H297L238 440H143ZM342 440L366 745H496L437 440H342Z" />
<glyph unicode="#" horiz-adv-x="956" d="M108 0L173 153H53L71 283H228L306 463H186L204 593H361L426 745H576L511 593H661L725 745H875L811 593H931L913 463H755L678 283H798L780 153H622L558 0H408L472 153H323L258 0H108ZM378 283H528L605 463H456L378 283Z" />
<glyph unicode="$" horiz-adv-x="650" d="M330 -12Q252 -12 189 14T82 88T23 200L154 251Q174 192 221 158T327 123Q361 123 386 134T426 166T441 211Q441 235 426 252T377 280L245 325Q163 353 124 402T84 524Q84 590 119 642T215 726T352 757Q423 757 480 734T577
667T631 565L501 514Q485 565 445 593T348 622Q315 622 291 612T253 582T239 537Q239 510 255 492T305 462L434 417Q516 389 556 341T597 222Q597 156 561 103T464 19T330 -12ZM229 -100L361 845H452L320 -100H229Z" />
<glyph unicode="%" horiz-adv-x="1098" d="M134 0L840 745H994L288 0H134ZM305 367Q251 367 210 391T145 456T121 548Q121 605 149 652T226 728T332 757Q385 757 426 733T491 668T515 576Q515 519 487 472T411 396T305 367ZM313 477Q339 477 358 490T389 524T400
569Q400 589 392 606T367 635T324 647Q298 647 278 634T247 601T236 555Q236 536 244 518T270 489T313 477ZM795 -12Q742 -12 700 12T635 77T611 169Q611 227 640 274T717 349T823 378Q876 378 917 354T981 289T1005 197Q1005 140 977 93T901 17T795 -12ZM803 98Q830
98 849 111T879 145T890 190Q890 210 882 228T857 257T815 268Q789 268 769 255T738 221T727 176Q727 156 735 138T761 109T803 98Z" />
<glyph unicode="&amp;" horiz-adv-x="820" d="M296 -12Q228 -12 178 12T100 80T73 185Q73 230 88 266T129 330T187 379T255 418L329 454Q387 482 414 503T451 543T460 581Q460 606 445 622T404 639Q380 639 361 628T330 597T319 550Q319 529 327 509T346 472T367
442L713 0H541L259 362Q241 386 223 412T192 471T180 542Q180 605 210 653T292 729T403 757Q459 757 501 734T568 671T593 580Q593 531 573 493T513 424T419 362L341 320Q313 305 287 288T244 246T227 187Q227 156 247 135T304 113Q331 113 352 122T390 144T419
172T441 197L574 363H731L574 148Q556 124 532 96T474 44T397 4T296 -12Z" />
<glyph unicode="&apos;" horiz-adv-x="333" d="M143 440L167 745H297L238 440H143Z" />
<glyph unicode="(" horiz-adv-x="425" d="M194 -180Q130 -95 99 1T67 203Q67 306 93 402T169 584T291 745H416Q365 677 321 593T249 409T222 196Q222 97 246 3T319 -180H194Z" />
<glyph unicode=")" horiz-adv-x="424" d="M11 -180Q66 -107 110 -21T179 164T205 371Q205 471 181 564T108 745H233Q297 660 328 566T360 364Q360 261 334 165T258 -17T136 -180H11Z" />
<glyph unicode="*" horiz-adv-x="560" d="M222 358L143 422L226 516L120 554L168 657L273 620L291 745H401L383 620L498 657L518 554L402 516L457 422L360 358L305 452L222 358Z" />
<glyph unicode="+" horiz-adv-x="678" d="M239 0L265 188H77L95 313H283L309 500H435L409 313H595L577 188H391L365 0H239Z" />
<glyph unicode="," horiz-adv-x="386" d="M49 -165L59 -90Q96 -82 121 -60T159 0H92L113 150H263L249 53Q237 -35 186 -91T49 -165Z" />
<glyph unicode="-" horiz-adv-x="634" d="M83 208L101 338H551L533 208H83Z" />
<glyph unicode="." horiz-adv-x="409" d="M91 0L113 150H263L241 0H91Z" />
<glyph unicode="/" horiz-adv-x="540" d="M-35 -120L411 705H581L135 -120H-35Z" />
<glyph unicode="0" horiz-adv-x="704" d="M331 -12Q249 -12 189 28T95 141T62 313Q62 401 85 481T152 623T258 721T400 757Q483 757 543 717T637 604T670 433Q670 345 647 265T580 122T473 24T331 -12ZM335 128Q386 128 421 158T476 237T506 338T515 438Q515 524
485 570T396 617Q350 617 316 590T260 519T228 420T217 309Q217 252 230 212T270 150T335 128Z" />
<glyph unicode="1" horiz-adv-x="413" d="M130 0L216 614H73L91 745H391L287 0H130Z" />
<glyph unicode="2" horiz-adv-x="615" d="M25 0L36 120L257 328Q307 375 340 407T391 463T417 504T425 543Q425 579 402 598T341 617Q299 617 265 592T211 519L79 569Q98 627 138 669T233 734T351 757Q416 757 468 733T550 664T581 558Q581 515 567 478T529 410T479
353T428 304L238 130H546L528 0H25Z" />
<glyph unicode="3" horiz-adv-x="613" d="M269 -12Q205 -12 150 11T58 78T14 179L156 225Q167 177 198 153T274 128Q313 128 342 144T389 189T406 253Q406 284 393 306T356 339T297 351Q275 351 253 346T211 332L183 407L396 615H103L120 745H595L579 625L361
402L363 465Q425 465 469 439T538 365T563 258Q563 198 539 148T474 63T380 8T269 -12Z" />
<glyph unicode="4" horiz-adv-x="663" d="M325 0L347 160H17L34 290L418 745H585L521 290H635L617 160H503L481 0H325ZM138 234L121 290H365L412 625L451 613L138 234Z" />
<glyph unicode="5" horiz-adv-x="613" d="M271 -12Q210 -12 156 10T65 74T22 174L164 220Q174 172 205 150T276 128Q315 128 344 144T389 189T405 253Q405 285 392 309T356 347T299 361Q265 361 234 346T186 298L58 328L176 745H585L571 615H218L293 685L208 375L172
402Q201 448 243 469T340 491Q408 491 457 462T534 382T561 265Q561 204 539 154T476 66T384 9T271 -12Z" />
<glyph unicode="6" horiz-adv-x="607" d="M278 -12Q208 -12 153 16T65 96T32 217Q32 273 51 320T100 407T157 478L392 745H586L301 424L271 459Q286 466 299 470T326 476T355 478Q414 478 462 451T538 375T566 260Q566 184 528 123T424 25T278 -12ZM288 128Q323
128 350 145T394 190T410 252Q410 298 382 324T311 351Q276 351 248 334T204 290T188 228Q188 182 216 155T288 128Z" />
<glyph unicode="7" horiz-adv-x="566" d="M20 0L413 616H75L93 746H600L584 616L205 0H20Z" />
<glyph unicode="8" horiz-adv-x="635" d="M295 -12Q217 -12 160 15T71 91T39 199Q39 251 61 293T123 365T213 411L199 373Q153 387 127 429T101 527Q101 592 135 644T230 726T366 757Q433 757 483 733T561 668T589 571Q589 527 572 486T524 415T453 372L448 412Q513
387 547 345T582 237Q582 170 547 114T448 23T295 -12ZM299 118Q337 118 366 133T411 173T427 230Q427 272 399 296T321 321Q285 321 257 307T212 268T195 208Q195 168 223 143T299 118ZM334 451Q363 451 385 464T419 501T432 551Q432 584 411 605T353 627Q325
627 303 614T267 579T254 529Q254 496 275 474T334 451Z" />
<glyph unicode="9" horiz-adv-x="607" d="M49 0L334 321L364 286Q350 280 337 276T310 269T280 267Q221 267 173 294T97 370T69 485Q69 561 107 622T210 720T357 757Q427 757 482 729T570 649T603 528Q603 472 584 425T535 338T478 267L243 0H49ZM324 394Q359
394 387 411T431 456T447 517Q447 563 419 590T347 617Q313 617 285 600T241 555T225 493Q225 447 253 421T324 394Z" />
<glyph unicode=":" horiz-adv-x="408" d="M91 0L112 150H262L241 0H91ZM146 396L167 546H317L296 396H146Z" />
<glyph unicode=";" horiz-adv-x="428" d="M67 -165L78 -90Q114 -82 139 -60T177 0H110L131 150H281L267 53Q255 -35 204 -91T67 -165ZM166 396L187 546H337L316 396H166Z" />
<glyph unicode="&lt;" horiz-adv-x="678" d="M526 4L79 200L99 348L602 543L580 384L213 243L214 294L546 148L526 4Z" />
<glyph unicode="=" horiz-adv-x="678" d="M117 291L135 416H585L567 291H117ZM83 46L101 171H551L533 46H83Z" />
<glyph unicode="&gt;" horiz-adv-x="678" d="M77 4L99 163L466 304L465 253L133 399L153 543L600 347L580 199L77 4Z" />
<glyph unicode="?" horiz-adv-x="613" d="M241 230L245 253Q256 318 282 360T344 437Q367 459 385 476T415 510T426 550Q426 579 405 598T343 617Q306 617 277 595T240 534L103 569Q116 625 151 667T240 733T357 757Q432 757 482 729T557 657T582 562Q582 522
567 491T527 432T473 379Q439 348 417 316T384 243L381 230H241ZM207 0L229 150H379L357 0H207Z" />
<glyph unicode="@" horiz-adv-x="928" d="M445 -222Q353 -222 278 -193T149 -109T65 18T36 178Q36 271 67 354T159 502T305 604T500 642Q596 642 670 613T795 531T872 407T899 253Q899 167 873 111T802 28T703 0Q667 0 632 14T576 58T558 140L580 77Q571 53 547
36T491 10T426 0Q371 0 327 25T256 95T230 198Q230 262 261 315T345 402T462 435Q514 435 554 417T603 370L584 328L598 425H698L666 179Q663 156 668 139T685 114T711 105Q743 105 760 136T778 232Q778 323 747 390T655 494T501 532Q423 532 360 505T251 430T181
320T156 186Q156 96 194 29T300 -75T455 -112Q503 -112 547 -100T630 -63L674 -160Q624 -191 566 -206T445 -222ZM448 105Q481 105 507 121T549 165T565 226Q565 270 537 299T465 329Q431 330 404 315T360 272T343 209Q343 164 373 135T448 105Z" />
<glyph unicode="A" horiz-adv-x="732" d="M-27 0L329 745H535L683 0H520L492 152H220L149 0H-27ZM282 287H467L403 637L444 632L282 287Z" />
<glyph unicode="B" horiz-adv-x="696" d="M28 0L132 745H434Q541 745 599 696T658 557Q658 517 647 483T612 422T552 374L541 431Q608 401 633 356T658 260Q658 179 622 121T517 31T356 0H28ZM202 135H388Q422 135 447 149T487 188T502 245Q502 283 477 306T409
330H229L202 135ZM248 465H416Q442 465 461 476T492 506T503 550Q503 579 484 597T432 615H269L248 465Z" />
<glyph unicode="C" horiz-adv-x="788" d="M413 -12Q336 -12 271 14T159 89T85 204T59 349Q59 433 88 507T172 637T299 725T459 757Q541 757 604 730T710 657T768 556L627 494Q611 548 567 582T454 617Q402 617 359 597T283 541T232 455T214 348Q214 281 238 232T307
155T412 128Q484 128 535 164T609 255L743 185Q720 130 673 86T559 15T413 -12Z" />
<glyph unicode="D" horiz-adv-x="742" d="M28 0L132 745H362Q470 745 551 702T677 583T723 408Q723 320 693 246T607 116T474 31T302 0H28ZM202 135H302Q361 135 409 154T493 210T547 296T567 406Q567 469 541 515T467 585T352 610H268L202 135Z" />
<glyph unicode="E" horiz-adv-x="589" d="M28 0L132 745H633L614 610H268L245 441H571L552 306H226L202 135H548L529 0H28Z" />
<glyph unicode="F" d="M28 0L132 745H642L623 610H268L242 421H547L528 286H223L183 0H28Z" />
<glyph unicode="G" horiz-adv-x="809" d="M411 -12Q339 -12 276 13T164 85T87 198T59 346Q59 431 89 505T174 636T302 725T463 757Q543 757 606 730T711 658T768 558L626 492Q610 546 566 581T451 617Q399 617 356 597T281 541T232 457T214 353Q214 285 240 234T313
156T422 128Q474 128 518 147T591 204T626 293L634 355L701 295H431L440 425H795L786 326Q778 241 744 178T658 72T543 9T411 -12Z" />
<glyph unicode="H" horiz-adv-x="732" d="M28 0L132 745H287L242 423H532L577 745H732L628 0H473L513 288H223L183 0H28Z" />
<glyph unicode="I" horiz-adv-x="287" d="M28 0L132 745H287L183 0H28Z" />
<glyph unicode="J" horiz-adv-x="396" d="M-5 0L14 140H59Q104 140 135 165T172 233L244 745H399L324 210Q316 153 283 106T194 29T60 0H-5Z" />
<glyph unicode="K" horiz-adv-x="687" d="M28 0L132 745H287L235 372L194 387L542 745H736L391 389L416 499L638 0H467L326 322L211 204L183 0H28Z" />
<glyph unicode="L" horiz-adv-x="547" d="M28 0L132 745H287L202 135H517L498 0H28Z" />
<glyph unicode="M" horiz-adv-x="912" d="M28 0L132 745H282L511 360L415 367L757 745H912L808 0H653L732 569L777 553L454 190H434L198 595L262 569L183 0H28Z" />
<glyph unicode="N" horiz-adv-x="742" d="M28 0L132 745H251L568 218L511 203L587 745H742L638 0H518L208 531L259 546L183 0H28Z" />
<glyph unicode="O" horiz-adv-x="882" d="M434 -12Q353 -12 285 15T166 91T87 205T59 349Q59 436 91 510T180 639T312 726T476 757Q558 757 626 730T745 655T823 541T851 398Q851 311 819 237T730 106T597 19T434 -12ZM434 128Q488 128 535 148T619 204T675 289T696
397Q696 463 668 512T590 589T476 617Q422 617 375 597T291 542T235 457T214 349Q214 284 242 234T320 156T434 128Z" />
<glyph unicode="P" horiz-adv-x="649" d="M28 0L132 745H407Q479 745 533 720T617 644T648 520Q648 446 613 390T514 302T363 270H221L183 0H28ZM240 405H373Q408 405 434 420T476 461T492 520Q492 561 466 585T394 610H268L240 405Z" />
<glyph unicode="Q" horiz-adv-x="882" d="M434 -12Q353 -12 285 15T166 91T87 205T59 349Q59 436 91 510T180 639T312 726T476 757Q558 757 626 730T745 655T823 541T851 398Q851 311 819 237T730 106T597 19T434 -12ZM434 128Q488 128 535 148T619 204T675 289T696
397Q696 463 668 512T590 589T476 617Q422 617 375 597T291 542T235 457T214 349Q214 284 242 234T320 156T434 128ZM554 -90L387 298H539L709 -90H554Z" />
<glyph unicode="R" horiz-adv-x="678" d="M28 0L132 745H407Q479 745 533 720T617 644T648 520Q648 467 630 422T577 344T493 292L618 0H453L314 332L407 270H221L183 0H28ZM240 405H373Q408 405 434 420T476 461T492 520Q492 561 466 585T394 610H268L240 405Z" />
<glyph unicode="S" horiz-adv-x="650" d="M330 -12Q252 -12 189 14T82 88T23 200L154 251Q174 192 221 158T327 123Q361 123 386 134T426 166T441 211Q441 235 426 252T377 280L245 325Q163 353 124 402T84 524Q84 590 119 642T215 726T352 757Q423 757 480 734T577
667T631 565L501 514Q485 565 445 593T348 622Q315 622 291 612T253 582T239 537Q239 510 255 492T305 462L434 417Q516 389 556 341T597 222Q597 156 561 103T464 19T330 -12Z" />
<glyph unicode="T" horiz-adv-x="552" d="M162 0L247 610H58L77 745H607L588 610H402L317 0H162Z" />
<glyph unicode="U" horiz-adv-x="724" d="M336 -12Q246 -12 180 26T80 129T58 277L123 745H278L213 279Q207 235 221 201T268 147T344 128Q387 128 423 147T483 202T514 287L578 745H733L666 269Q655 187 609 124T493 24T336 -12Z" />
<glyph unicode="V" horiz-adv-x="712" d="M228 0L77 745H241L349 147H313L589 745H767L408 0H228Z" />
<glyph unicode="W" horiz-adv-x="1032" d="M168 0L77 745H241L301 121H250L502 745H655L730 121H673L917 745H1087L788 0H608L536 600H588L348 0H168Z" />
<glyph unicode="X" horiz-adv-x="684" d="M-27 0L271 382L89 745H257L403 453L332 459L548 745H739L451 369L635 0H467L319 298L391 291L163 0H-27Z" />
<glyph unicode="Y" horiz-adv-x="672" d="M220 0L265 325L77 745H244L380 429H316L539 745H727L422 326L377 0H220Z" />
<glyph unicode="Z" horiz-adv-x="567" d="M-27 0L-10 125L384 610H78L97 745H612L595 620L196 135H537L518 0H-27Z" />
<glyph unicode="[" horiz-adv-x="449" d="M46 -180L176 745H456L438 615H308L214 -50H344L326 -180H46Z" />
<glyph unicode="\" horiz-adv-x="530" d="M295 -120L81 705H241L455 -120H295Z" />
<glyph unicode="]" horiz-adv-x="450" d="M-4 -180L14 -50H144L238 615H108L126 745H406L276 -180H-4Z" />
<glyph unicode="^" horiz-adv-x="678" d="M117 418L334 745H478L602 418H447L367 627H429L291 418H117Z" />
<glyph unicode="_" horiz-adv-x="685" d="M36 -130L54 0H554L536 -130H36Z" />
<glyph unicode="`" horiz-adv-x="391" d="M284 640L206 820H399L431 640H284Z" />
<glyph unicode="a" horiz-adv-x="583" d="M198 -12Q143 -12 102 5T39 55T16 137Q16 191 43 228T118 289T226 321L398 348L387 238L247 212Q216 206 194 191T171 146Q171 121 189 110T235 98Q272 98 300 115T347 160T370 221L389 360Q392 383 381 399T350 424T306
433Q263 433 229 410T178 350L62 413Q83 459 121 491T209 540T315 558Q384 558 437 532T519 460T539 353L490 0H349L361 88L401 91Q373 55 342 32T276 -1T198 -12Z" />
<glyph unicode="b" horiz-adv-x="672" d="M342 -12Q281 -12 232 9T154 71L172 100L159 0H17L123 757H274L231 442L192 474Q222 515 269 536T375 558Q451 558 510 523T603 427T638 290Q638 228 615 173T552 77T458 12T342 -12ZM326 123Q372 123 407 145T462 205T482
290Q482 329 466 359T422 406T354 423Q309 423 275 401T221 340T202 255Q202 216 217 186T261 140T326 123Z" />
<glyph unicode="c" horiz-adv-x="622" d="M309 -12Q230 -12 168 23T70 119T34 257Q34 320 58 375T124 471T221 535T341 558Q403 558 454 537T540 477T588 388L455 336Q444 377 413 400T339 423Q294 423 261 400T209 339T190 257Q190 217 205 187T247 140T311 123Q358
123 393 148T445 214L572 153Q553 105 515 68T423 9T309 -12Z" />
<glyph unicode="d" horiz-adv-x="669" d="M295 -12Q217 -12 158 21T66 112T33 247Q33 318 57 375T124 473T222 536T339 558Q401 558 448 535T521 470L487 442L530 757H682L576 0H435L448 100L480 77Q450 32 401 10T295 -12ZM317 123Q363 123 397 145T450 206T469
291Q469 329 454 359T411 406T345 423Q300 423 265 401T209 342T189 256Q189 217 205 187T250 140T317 123Z" />
<glyph unicode="e" horiz-adv-x="612" d="M304 -12Q221 -12 160 23T67 120T34 255Q34 318 56 372T118 469T211 534T326 558Q409 558 466 526T552 437T582 310Q582 291 579 272T571 231H161L169 341H493L418 291Q431 333 423 366T390 418T325 438Q274 438 244 412T201
343T187 248Q187 207 201 178T242 133T307 118Q348 118 379 135T427 180L545 119Q526 79 490 50T407 4T304 -12Z" />
<glyph unicode="f" horiz-adv-x="414" d="M82 0L140 416H49L67 546H159L161 558Q172 622 202 666T281 734T396 757Q412 757 427 755T452 751L442 625Q432 627 425 627T413 627Q368 627 342 611T310 553L309 546H426L408 416H291L233 0H82Z" />
<glyph unicode="g" horiz-adv-x="651" d="M264 -220Q201 -220 148 -198T61 -138T16 -48L159 -7Q164 -45 195 -65T275 -85Q312 -85 340 -71T387 -32T409 23L428 154L465 116Q434 70 390 49T287 27Q213 27 157 59T69 147T37 276Q37 338 58 389T118 478T207 537T317
558Q379 558 429 534T508 461L476 427L492 546H633L560 18Q551 -51 511 -104T407 -189T264 -220ZM309 163Q351 163 382 182T431 234T448 305Q448 340 434 366T395 408T333 423Q293 423 261 404T211 353T192 279Q192 245 206 219T246 178T309 163Z" />
<glyph unicode="h" horiz-adv-x="599" d="M17 0L123 757H272L228 438L213 466Q239 515 282 536T381 558Q444 558 488 529T552 449T564 337L517 0H367L411 319Q418 366 394 394T326 423Q297 423 273 410T232 374T211 319L167 0H17Z" />
<glyph unicode="i" horiz-adv-x="261" d="M17 0L93 546H244L168 0H17ZM100 595L121 745H272L251 595H100Z" />
<glyph unicode="j" horiz-adv-x="265" d="M-69 -222Q-87 -222 -101 -220T-126 -216L-116 -90Q-108 -91 -100 -91T-86 -92Q-40 -92 -14 -72T18 -16L97 546H248L168 -24Q159 -88 128 -132T47 -199T-69 -222ZM104 595L125 745H276L255 595H104Z" />
<glyph unicode="k" horiz-adv-x="586" d="M17 0L123 757H274L206 272L137 290L414 546H613L384 326L536 0H375L249 277L330 299L137 117L196 204L168 0H17Z" />
<glyph unicode="l" horiz-adv-x="261" d="M17 0L123 757H274L168 0H17Z" />
<glyph unicode="m" horiz-adv-x="929" d="M17 0L93 546H233L216 419L201 440Q227 504 271 531T376 558Q444 558 491 524T552 431L498 427Q536 498 592 528T716 558Q777 558 820 531T883 457T895 347L847 0H697L741 319Q746 351 738 374T710 410T661 423Q632 423
609 410T571 374T551 319L507 0H357L401 319Q406 351 398 374T370 410T321 423Q292 423 269 410T231 374T211 319L167 0H17Z" />
<glyph unicode="n" horiz-adv-x="599" d="M17 0L93 546H233L219 438L213 466Q239 515 282 536T381 558Q444 558 488 529T552 449T564 337L517 0H367L411 319Q418 366 394 394T326 423Q297 423 273 410T232 374T211 319L167 0H17Z" />
<glyph unicode="o" horiz-adv-x="655" d="M312 -12Q234 -12 171 22T71 118T34 257Q34 320 58 375T125 471T224 535T344 558Q422 558 485 524T584 429T621 289Q621 226 597 172T530 76T431 11T312 -12ZM314 123Q359 123 393 145T446 206T465 291Q465 330 450 359T408
406T342 423Q297 423 263 401T209 340T190 255Q190 216 205 187T248 140T314 123Z" />
<glyph unicode="p" horiz-adv-x="672" d="M-11 -200L93 546H234L221 442L192 474Q222 515 269 536T375 558Q451 558 510 523T603 427T638 290Q638 228 615 173T552 77T458 12T342 -12Q281 -12 232 9T154 71L187 100L146 -200H-11ZM326 123Q372 123 407 145T462
205T482 290Q482 329 466 359T422 406T354 423Q309 423 275 401T221 340T202 255Q202 216 217 186T261 140T326 123Z" />
<glyph unicode="q" horiz-adv-x="671" d="M399 -200L438 100L480 77Q450 32 401 10T295 -12Q217 -12 158 21T66 112T33 247Q33 318 57 375T124 473T222 536T339 558Q401 558 448 535T521 470L497 442L510 546H652L550 -200H399ZM317 123Q363 123 397 145T450 206T469
291Q469 329 454 359T411 406T345 423Q300 423 265 401T209 342T189 256Q189 217 205 187T250 140T317 123Z" />
<glyph unicode="r" horiz-adv-x="386" d="M17 0L93 546H234L216 415L208 434Q236 503 280 527T382 552H414L396 422H349Q294 422 256 387T207 284L168 0H17Z" />
<glyph unicode="s" horiz-adv-x="512" d="M239 -12Q180 -12 131 8T48 64T4 148L117 194Q134 151 166 127T243 103Q280 103 298 118T317 154Q317 176 301 185T271 199L180 225Q120 242 88 281T55 376Q55 429 83 470T162 534T275 558Q357 558 414 519T491 412L376
366Q369 399 338 418T270 438Q239 438 220 426T200 390Q200 368 217 358T252 343L336 317Q398 298 430 260T463 169Q463 118 435 77T356 12T239 -12Z" />
<glyph unicode="t" horiz-adv-x="425" d="M286 -6Q185 -6 136 49T100 201L130 416H38L56 546H58Q100 546 127 569T161 634L166 670H318L300 546H426L408 416H282L252 203Q248 175 254 158T277 132T325 124Q334 124 342 124T364 127L353 0Q338 -4 320 -5T286 -6Z" />
<glyph unicode="u" horiz-adv-x="600" d="M220 -12Q152 -12 108 18T46 102T38 229L83 546H233L189 227Q185 196 194 173T224 136T274 123Q304 123 328 136T368 172T389 227L433 546H583L507 0H367L381 108L387 80Q362 31 318 10T220 -12Z" />
<glyph unicode="v" horiz-adv-x="582" d="M187 0L49 546H205L296 133H231L438 546H609L317 0H187Z" />
<glyph unicode="w" horiz-adv-x="912" d="M161 0L49 546H199L276 152L221 153L427 546H557L646 153L594 152L781 546H939L674 0H544L454 422H507L291 0H161Z" />
<glyph unicode="x" horiz-adv-x="581" d="M-27 0L205 278L54 546H217L332 334H256L429 546H608L378 274L530 0H370L253 212H321L151 0H-27Z" />
<glyph unicode="y" horiz-adv-x="602" d="M76 -222Q49 -222 27 -217T-11 -203L-2 -83Q12 -87 30 -89T61 -92Q89 -92 108 -81T142 -53T167 -19L217 62L203 -63L49 546H203L301 113H240L460 546H629L310 -55Q280 -112 244 -149T166 -204T76 -222Z" />
<glyph unicode="z" horiz-adv-x="493" d="M-26 0L-11 120L337 463L367 416H45L63 546H519L504 426L159 83L134 130H462L444 0H-26Z" />
<glyph unicode="{" horiz-adv-x="426" d="M253 -180Q163 -180 120 -136T88 -13L112 157Q116 183 105 197T72 211H40L58 341H90Q113 341 127 355T146 395L172 578Q183 657 238 701T383 745H433L415 615H365Q347 615 336 605T321 574L298 409Q292 366 271 332T216
278Q244 261 256 229T262 155L239 -9Q236 -28 245 -39T271 -50H321L303 -180H253Z" />
<glyph unicode="|" horiz-adv-x="427" d="M73 -190L219 845H369L223 -190H73Z" />
<glyph unicode="}" horiz-adv-x="426" d="M-4 -180L14 -50H64Q82 -50 93 -39T108 -9L131 155Q136 196 157 228T211 278Q185 298 173 332T167 409L190 574Q193 594 184 604T158 615H108L126 745H176Q266 745 309 701T341 578L315 395Q311 370 322 356T355 341H387L369
211H337Q315 211 300 197T281 157L257 -13Q246 -92 192 -136T46 -180H-4Z" />
<glyph unicode="~" horiz-adv-x="678" d="M429 180Q393 180 370 189T331 212T300 234T266 244Q242 244 224 228T198 181H78Q89 276 136 321T252 367Q287 367 310 358T349 335T381 313T414 303Q437 303 454 318T481 366H600Q590 271 544 226T429 180Z" />
<glyph unicode="&#xa0;" horiz-adv-x="180" />
<glyph unicode="&#xa1;" horiz-adv-x="400" d="M59 -199L141 316H271L209 -199H59ZM142 396L163 546H313L292 396H142Z" />
<glyph unicode="&#xa2;" horiz-adv-x="622" d="M323 88Q244 88 182 123T84 219T48 357Q48 420 72 475T138 571T235 635T355 658Q417 658 468 637T554 577T602 488L469 436Q458 477 427 500T353 523Q308 523 275 500T223 439T204 357Q204 317 219 287T261 240T325
223Q372 223 407 248T459 314L586 253Q567 205 529 168T437 109T323 88ZM241 0L344 745H435L332 0H241Z" />
<glyph unicode="&#xa3;" horiz-adv-x="673" d="M-4 0L14 130H114L167 509Q178 585 215 640T313 726T453 757Q515 757 566 732T649 663T680 560L540 534Q539 577 513 597T449 617Q396 617 363 586T322 501L270 130H587L569 0H-4ZM42 334L54 424H498L486 334H42Z" />
<glyph unicode="&#xa4;" horiz-adv-x="609" d="M96 4L20 89L108 168Q101 185 97 204T92 246Q92 280 102 311T129 369L58 449L152 534L223 454Q247 467 273 473T326 480Q354 480 378 474T424 454L512 534L588 449L500 369Q509 349 512 329T516 291Q516 258 506
226T479 168L550 89L456 4L385 83Q362 71 336 65T282 58Q255 58 231 64T184 83L96 4ZM295 188Q320 188 340 200T372 233T385 278Q385 299 376 315T350 340T312 350Q288 350 268 338T235 305T222 260Q222 240 231 224T257 198T295 188Z" />
<glyph unicode="&#xa5;" horiz-adv-x="672" d="M220 0L265 325L77 745H244L380 429H316L539 745H727L422 326L377 0H220ZM114 282L127 372H571L558 282H114ZM95 142L107 232H551L539 142H95Z" />
<glyph unicode="&#xa6;" horiz-adv-x="427" d="M160 428L219 845H369L310 428H160ZM73 -190L132 228H282L223 -190H73Z" />
<glyph unicode="&#xa7;" horiz-adv-x="532" d="M234 -95Q142 -95 76 -51T-7 70L109 122Q127 75 163 49T246 22Q271 22 289 29T317 50T327 82Q327 93 321 102T303 119T272 132L177 159Q113 177 80 217T47 309Q47 366 78 410T162 480T283 506L274 425Q251 425 234
415T206 387T196 345Q196 327 204 314T230 290T270 273L343 251Q408 232 440 194T473 102Q473 45 442 1T358 -69T234 -95ZM260 156L268 233Q293 233 311 243T340 273T351 317Q351 332 345 345T323 370T281 388L204 410Q140 428 107 468T74 560Q74 617 104 661T188
731T309 757Q389 757 449 719T529 607L412 555Q402 592 370 614T296 636Q274 636 257 629T231 610T221 580Q221 567 229 557T250 541T279 529L369 502Q434 483 467 445T500 353Q500 296 469 252T384 182T260 156Z" />
<glyph unicode="&#xa8;" horiz-adv-x="567" d="M181 640L202 790H352L331 640H181ZM411 640L432 790H582L561 640H411Z" />
<glyph unicode="&#xa9;" horiz-adv-x="955" d="M470 -12Q392 -12 326 15T211 92T134 208T106 350Q106 434 138 507T228 637T359 725T516 757Q593 757 658 730T773 653T850 539T878 397Q878 313 846 239T757 109T627 20T470 -12ZM469 88Q531 88 587 112T686 179T753
278T778 398Q778 453 758 500T703 583T620 638T517 658Q454 658 398 634T298 567T231 468T206 349Q206 275 240 216T334 123T469 88ZM486 163Q428 163 383 189T312 259T286 361Q286 425 316 475T396 553T508 582Q554 582 590 567T651 526T683 467L583 434Q576 456
557 470T509 484Q476 484 451 468T411 423T397 357Q397 314 420 288T485 261Q515 261 539 277T573 315L671 274Q658 241 631 216T567 177T486 163Z" />
<glyph unicode="&#xaa;" horiz-adv-x="441" d="M190 353Q130 353 95 380T60 459Q60 499 80 525T135 567T210 589L324 607L316 523L225 505Q209 502 195 493T180 466Q180 451 191 444T219 437Q242 437 260 447T289 475T304 514L318 615Q321 635 304 647T265 659Q239
659 216 644T180 601L91 650Q114 700 162 727T273 755Q322 755 360 737T419 685T433 609L399 362H291L299 421L331 424Q301 387 268 370T190 353Z" />
<glyph unicode="&#xab;" horiz-adv-x="728" d="M175 69L49 269L231 469H405L212 254L327 69H175ZM475 69L349 269L531 469H705L512 254L627 69H475Z" />
<glyph unicode="&#xac;" horiz-adv-x="678" d="M432 40L453 188H78L95 313H595L557 40H432Z" />
<glyph unicode="&#xad;" horiz-adv-x="634" d="M83 208L101 338H551L533 208H83Z" />
<glyph unicode="&#xae;" horiz-adv-x="696" d="M370 271Q301 271 246 303T159 391T127 514Q127 569 148 618T208 704T295 762T400 784Q467 784 521 752T608 666T640 544Q640 488 619 439T560 352T473 293T370 271ZM369 346Q422 346 466 373T538 445T566 544Q566
592 544 629T485 689T401 711Q342 711 297 684T227 612T201 512Q201 465 223 428T283 368T369 346ZM253 392L290 664H402Q446 664 473 643T501 577Q501 552 490 532T458 498L510 392H427L384 483H344L332 392H253ZM353 549H396Q406 549 414 556T423 577Q423 585
418 591T402 597H360L353 549Z" />
<glyph unicode="&#xaf;" horiz-adv-x="460" d="M183 660L200 780H540L523 660H183Z" />
<glyph unicode="&#xb0;" horiz-adv-x="553" d="M309 417Q264 417 228 438T171 495T150 575Q150 624 175 665T241 732T332 757Q377 757 413 736T470 679T491 599Q491 550 466 509T400 442T309 417ZM316 517Q336 517 353 527T380 554T391 592Q391 620 372 638T325
657Q295 657 273 635T250 582Q250 555 269 536T316 517Z" />
<glyph unicode="&#xb1;" horiz-adv-x="678" d="M267 195L286 333H98L116 458H304L323 595H449L430 458H616L598 333H412L393 195H267ZM51 0L69 125H569L551 0H51Z" />
<glyph unicode="&#xb2;" horiz-adv-x="417" d="M25 224L34 317L184 456Q232 501 256 526T290 568T299 600Q299 623 284 634T246 646Q219 646 198 630T164 585L63 623Q82 683 136 718T255 754Q301 754 338 737T397 687T419 612Q419 573 402 541T361 484T314 438L187
324H395L381 224H25Z" />
<glyph unicode="&#xb3;" horiz-adv-x="422" d="M201 215Q156 215 117 232T51 279T20 350L129 385Q137 354 157 339T205 324Q243 324 266 346T289 403Q289 432 271 448T220 464Q205 464 187 461T155 449L133 507L280 646H83L96 745H433L420 653L269 502L271 551Q315
551 346 533T393 482T410 407Q410 349 380 306T303 239T201 215Z" />
<glyph unicode="&#xb4;" horiz-adv-x="391" d="M181 640L265 820H458L328 640H181Z" />
<glyph unicode="&#xb5;" horiz-adv-x="599" d="M-14 -140L82 546H233L188 223Q184 192 192 170T219 135T265 123Q297 123 323 137T366 175T387 231L431 546H582L506 0H366L383 133L396 107Q376 44 329 16T219 -12Q189 -12 165 -7T119 9L165 61L138 -140H-14Z" />
<glyph unicode="&#xb6;" horiz-adv-x="619" d="M274 -100L326 272Q252 272 201 301T127 384T114 508Q124 579 162 632T259 715T392 745H547L429 -100H274Z" />
<glyph unicode="&#xb7;" horiz-adv-x="408" d="M118 198L140 348H290L268 198H118Z" />
<glyph unicode="&#xb8;" horiz-adv-x="381" d="M174 -240Q148 -240 116 -232T61 -208L104 -125Q118 -134 134 -139T167 -144Q190 -144 203 -135T217 -109Q217 -93 196 -83T130 -68L161 10H246L232 -28Q277 -32 306 -54T335 -112Q335 -149 314 -178T257 -223T174 -240Z" />
<glyph unicode="&#xb9;" horiz-adv-x="320" d="M109 224L167 645H67L80 745H302L229 224H109Z" />
<glyph unicode="&#xba;" horiz-adv-x="484" d="M271 353Q215 353 170 377T99 445T73 543Q73 603 103 651T183 727T293 755Q348 755 392 731T463 663T490 565Q490 506 460 458T380 382T271 353ZM272 457Q301 457 323 471T357 511T369 566Q369 604 348 627T291 651Q262
651 240 637T206 598T193 542Q193 517 203 498T230 468T272 457Z" />
<glyph unicode="&#xbb;" horiz-adv-x="729" d="M322 69L515 284L400 469H552L678 269L496 69H322ZM22 69L215 284L100 469H252L378 269L196 69H22Z" />
<glyph unicode="&#xbc;" horiz-adv-x="870" d="M104 328L149 661H69L81 745H263L205 328H104ZM70 0L620 745H723L173 0H70ZM642 0L655 87H478L488 172L692 417H802L768 171H835L824 87H756L744 0H642ZM554 136L543 171H665L689 341L714 333L554 136Z" />
<glyph unicode="&#xbd;" horiz-adv-x="818" d="M104 328L149 661H69L81 745H263L205 328H104ZM70 0L620 745H723L173 0H70ZM464 0L471 78L590 188Q624 219 643 239T671 272T680 299Q680 316 669 324T641 333Q620 333 604 320T579 288L494 319Q509 367 553 395T649
424Q704 424 742 393T781 309Q781 278 767 252T734 206T699 172L600 84H762L751 0H464Z" />
<glyph unicode="&#xbe;" horiz-adv-x="937" d="M178 321Q143 321 111 334T57 372T32 430L124 459Q130 436 145 425T181 413Q210 413 227 430T244 472Q244 493 231 505T193 517Q180 517 165 514T139 505L120 553L237 662H82L94 745H365L354 667L234 548L236 591Q288
591 317 558T347 475Q347 429 323 394T260 340T178 321ZM137 0L687 745H790L240 0H137ZM709 0L722 87H545L555 172L759 417H869L835 171H902L891 87H823L811 0H709ZM621 136L610 171H732L756 341L781 333L621 136Z" />
<glyph unicode="&#xbf;" horiz-adv-x="613" d="M256 -211Q182 -211 132 -183T56 -111T31 -16Q31 24 46 55T86 114T140 167Q175 199 197 230T229 303L232 316H372L368 293Q357 229 331 186T269 109Q246 87 228 70T198 36T187 -4Q187 -33 208 -52T270 -71Q308 -71
336 -49T373 12L510 -23Q498 -78 462 -120T374 -187T256 -211ZM234 396L256 546H406L384 396H234Z" />
<glyph unicode="&#xc0;" horiz-adv-x="732" d="M-27 0L329 745H535L683 0H520L492 152H220L149 0H-27ZM282 287H467L403 637L444 632L282 287ZM372 839L294 1019H487L519 839H372Z" />
<glyph unicode="&#xc1;" horiz-adv-x="732" d="M-27 0L329 745H535L683 0H520L492 152H220L149 0H-27ZM282 287H467L403 637L444 632L282 287ZM371 839L455 1019H648L518 839H371Z" />
<glyph unicode="&#xc2;" horiz-adv-x="732" d="M-27 0L329 745H535L683 0H520L492 152H220L149 0H-27ZM282 287H467L403 637L444 632L282 287ZM214 839L354 1009H533L626 839H490L441 928L367 839H214Z" />
<glyph unicode="&#xc3;" horiz-adv-x="732" d="M-27 0L329 745H535L683 0H520L492 152H220L149 0H-27ZM282 287H467L403 637L444 632L282 287ZM522 839Q494 839 476 847T446 865T421 883T392 891Q373 891 364 878T351 843H236Q244 901 267 937T323 991T391 1009Q420
1009 438 1002T470 984T496 966T523 958Q544 958 552 971T564 1005H679Q666 921 621 880T522 839Z" />
<glyph unicode="&#xc4;" horiz-adv-x="732" d="M-27 0L329 745H535L683 0H520L492 152H220L149 0H-27ZM282 287H467L403 637L444 632L282 287ZM255 839L276 989H426L405 839H255ZM485 839L506 989H656L635 839H485Z" />
<glyph unicode="&#xc5;" horiz-adv-x="732" d="M-27 0L329 745H535L683 0H520L492 152H220L149 0H-27ZM282 287H467L403 637L444 632L282 287ZM439 789Q388 789 357 819T325 896Q325 936 345 968T399 1019T474 1039Q525 1039 556 1010T587 934Q587 894 567 861T514
809T439 789ZM451 876Q469 876 482 889T495 922Q495 936 486 945T462 954Q443 954 430 941T417 908Q417 894 426 885T451 876Z" />
<glyph unicode="&#xc6;" horiz-adv-x="993" d="M-27 0L329 745H1037L1018 610H672L649 441H975L956 306H630L606 135H952L932 0H432L453 152H221L150 0H-27ZM283 287H472L517 610H434L283 287Z" />
<glyph unicode="&#xc7;" horiz-adv-x="788" d="M413 -12Q336 -12 271 14T159 89T85 204T59 349Q59 433 88 507T172 637T299 725T459 757Q541 757 604 730T710 657T768 556L627 494Q611 548 567 582T454 617Q402 617 359 597T283 541T232 455T214 348Q214 281 238
232T307 155T412 128Q484 128 535 164T609 255L743 185Q720 130 673 86T559 15T413 -12ZM391 -240Q365 -240 333 -232T278 -208L321 -125Q335 -134 351 -139T384 -144Q407 -144 420 -135T434 -109Q434 -93 413 -83T347 -68L378 10H463L449 -28Q494 -32 523 -54T552
-112Q552 -149 531 -178T474 -223T391 -240Z" />
<glyph unicode="&#xc8;" horiz-adv-x="589" d="M28 0L132 745H633L614 610H268L245 441H571L552 306H226L202 135H548L529 0H28ZM323 839L245 1019H438L470 839H323Z" />
<glyph unicode="&#xc9;" horiz-adv-x="589" d="M28 0L132 745H633L614 610H268L245 441H571L552 306H226L202 135H548L529 0H28ZM322 839L406 1019H599L469 839H322Z" />
<glyph unicode="&#xca;" horiz-adv-x="589" d="M28 0L132 745H633L614 610H268L245 441H571L552 306H226L202 135H548L529 0H28ZM165 839L305 1009H484L577 839H441L392 928L318 839H165Z" />
<glyph unicode="&#xcb;" horiz-adv-x="589" d="M28 0L132 745H633L614 610H268L245 441H571L552 306H226L202 135H548L529 0H28ZM206 839L227 989H377L356 839H206ZM436 839L457 989H607L586 839H436Z" />
<glyph unicode="&#xcc;" horiz-adv-x="287" d="M28 0L132 745H287L183 0H28ZM150 839L72 1019H265L297 839H150Z" />
<glyph unicode="&#xcd;" horiz-adv-x="287" d="M28 0L132 745H287L183 0H28ZM149 839L233 1019H426L296 839H149Z" />
<glyph unicode="&#xce;" horiz-adv-x="287" d="M28 0L132 745H287L183 0H28ZM-8 839L132 1009H311L404 839H268L219 928L145 839H-8Z" />
<glyph unicode="&#xcf;" horiz-adv-x="287" d="M28 0L132 745H287L183 0H28ZM33 839L54 989H204L183 839H33ZM263 839L284 989H434L413 839H263Z" />
<glyph unicode="&#xd0;" horiz-adv-x="742" d="M16 308L34 438H399L381 308H16ZM28 0L132 745H362Q470 745 551 702T677 583T723 408Q723 320 693 246T607 116T474 31T302 0H28ZM202 135H302Q361 135 409 154T493 210T547 296T567 406Q567 469 541 515T467 585T352
610H268L202 135Z" />
<glyph unicode="&#xd1;" horiz-adv-x="742" d="M28 0L132 745H251L568 218L511 203L587 745H742L638 0H518L208 531L259 546L183 0H28ZM527 839Q499 839 481 847T451 865T426 883T397 891Q378 891 369 878T356 843H241Q249 901 272 937T328 991T396 1009Q425 1009
443 1002T475 984T501 966T528 958Q549 958 557 971T569 1005H684Q671 921 626 880T527 839Z" />
<glyph unicode="&#xd2;" horiz-adv-x="882" d="M434 -12Q353 -12 285 15T166 91T87 205T59 349Q59 436 91 510T180 639T312 726T476 757Q558 757 626 730T745 655T823 541T851 398Q851 311 819 237T730 106T597 19T434 -12ZM434 128Q488 128 535 148T619 204T675
289T696 397Q696 463 668 512T590 589T476 617Q422 617 375 597T291 542T235 457T214 349Q214 284 242 234T320 156T434 128ZM447 839L369 1019H562L594 839H447Z" />
<glyph unicode="&#xd3;" horiz-adv-x="882" d="M434 -12Q353 -12 285 15T166 91T87 205T59 349Q59 436 91 510T180 639T312 726T476 757Q558 757 626 730T745 655T823 541T851 398Q851 311 819 237T730 106T597 19T434 -12ZM434 128Q488 128 535 148T619 204T675
289T696 397Q696 463 668 512T590 589T476 617Q422 617 375 597T291 542T235 457T214 349Q214 284 242 234T320 156T434 128ZM446 839L530 1019H723L593 839H446Z" />
<glyph unicode="&#xd4;" horiz-adv-x="882" d="M434 -12Q353 -12 285 15T166 91T87 205T59 349Q59 436 91 510T180 639T312 726T476 757Q558 757 626 730T745 655T823 541T851 398Q851 311 819 237T730 106T597 19T434 -12ZM434 128Q488 128 535 148T619 204T675
289T696 397Q696 463 668 512T590 589T476 617Q422 617 375 597T291 542T235 457T214 349Q214 284 242 234T320 156T434 128ZM289 839L429 1009H608L701 839H565L516 928L442 839H289Z" />
<glyph unicode="&#xd5;" horiz-adv-x="882" d="M434 -12Q353 -12 285 15T166 91T87 205T59 349Q59 436 91 510T180 639T312 726T476 757Q558 757 626 730T745 655T823 541T851 398Q851 311 819 237T730 106T597 19T434 -12ZM434 128Q488 128 535 148T619 204T675
289T696 397Q696 463 668 512T590 589T476 617Q422 617 375 597T291 542T235 457T214 349Q214 284 242 234T320 156T434 128ZM597 839Q569 839 551 847T521 865T496 883T467 891Q448 891 439 878T426 843H311Q319 901 342 937T398 991T466 1009Q495 1009 513 1002T545
984T571 966T598 958Q619 958 627 971T639 1005H754Q741 921 696 880T597 839Z" />
<glyph unicode="&#xd6;" horiz-adv-x="882" d="M434 -12Q353 -12 285 15T166 91T87 205T59 349Q59 436 91 510T180 639T312 726T476 757Q558 757 626 730T745 655T823 541T851 398Q851 311 819 237T730 106T597 19T434 -12ZM434 128Q488 128 535 148T619 204T675
289T696 397Q696 463 668 512T590 589T476 617Q422 617 375 597T291 542T235 457T214 349Q214 284 242 234T320 156T434 128ZM330 839L351 989H501L480 839H330ZM560 839L581 989H731L710 839H560Z" />
<glyph unicode="&#xd7;" horiz-adv-x="678" d="M156 0L78 89L246 236L119 382L218 470L344 324L510 470L589 382L422 236L548 89L450 0L324 147L156 0Z" />
<glyph unicode="&#xd8;" horiz-adv-x="882" d="M14 0L728 745H896L182 0H14ZM434 -12Q353 -12 285 15T166 91T87 205T59 349Q59 436 91 510T180 639T312 726T476 757Q558 757 626 730T745 655T823 541T851 398Q851 311 819 237T730 106T597 19T434 -12ZM434 128Q488
128 535 148T619 204T675 289T696 397Q696 463 668 512T590 589T476 617Q422 617 375 597T291 542T235 457T214 349Q214 284 242 234T320 156T434 128Z" />
<glyph unicode="&#xd9;" horiz-adv-x="724" d="M336 -12Q246 -12 180 26T80 129T58 277L123 745H278L213 279Q207 235 221 201T268 147T344 128Q387 128 423 147T483 202T514 287L578 745H733L666 269Q655 187 609 124T493 24T336 -12ZM368 839L290 1019H483L515
839H368Z" />
<glyph unicode="&#xda;" horiz-adv-x="724" d="M336 -12Q246 -12 180 26T80 129T58 277L123 745H278L213 279Q207 235 221 201T268 147T344 128Q387 128 423 147T483 202T514 287L578 745H733L666 269Q655 187 609 124T493 24T336 -12ZM367 839L451 1019H644L514
839H367Z" />
<glyph unicode="&#xdb;" horiz-adv-x="724" d="M336 -12Q246 -12 180 26T80 129T58 277L123 745H278L213 279Q207 235 221 201T268 147T344 128Q387 128 423 147T483 202T514 287L578 745H733L666 269Q655 187 609 124T493 24T336 -12ZM210 839L350 1009H529L622
839H486L437 928L363 839H210Z" />
<glyph unicode="&#xdc;" horiz-adv-x="724" d="M336 -12Q246 -12 180 26T80 129T58 277L123 745H278L213 279Q207 235 221 201T268 147T344 128Q387 128 423 147T483 202T514 287L578 745H733L666 269Q655 187 609 124T493 24T336 -12ZM251 839L272 989H422L401
839H251ZM481 839L502 989H652L631 839H481Z" />
<glyph unicode="&#xdd;" horiz-adv-x="672" d="M220 0L265 325L77 745H244L380 429H316L539 745H727L422 326L377 0H220ZM341 839L425 1019H618L488 839H341Z" />
<glyph unicode="&#xde;" horiz-adv-x="674" d="M22 0L126 745H281L262 610H401Q473 610 527 585T611 509T642 385Q642 311 607 255T508 167T357 135H196L177 0H22ZM215 270H367Q402 270 428 285T470 326T486 385Q486 426 460 450T388 475H243L215 270Z" />
<glyph unicode="&#xdf;" horiz-adv-x="654" d="M5 -160L97 494Q109 577 151 636T257 726T399 757Q464 757 516 735T598 669T628 564Q628 529 615 492T570 424T478 373L489 416Q552 398 583 359T615 248Q615 196 598 151T545 72T457 19T331 0H258L276 130H332Q373
130 398 141T437 170T456 207T461 243Q461 283 437 306T368 330H304L322 460H359Q391 460 413 469T449 493T469 525T475 559Q475 591 453 609T393 627Q356 627 325 610T274 562T247 486L156 -160H5Z" />
<glyph unicode="&#xe0;" horiz-adv-x="583" d="M198 -12Q143 -12 102 5T39 55T16 137Q16 191 43 228T118 289T226 321L398 348L387 238L247 212Q216 206 194 191T171 146Q171 121 189 110T235 98Q272 98 300 115T347 160T370 221L389 360Q392 383 381 399T350
424T306 433Q263 433 229 410T178 350L62 413Q83 459 121 491T209 540T315 558Q384 558 437 532T519 460T539 353L490 0H349L361 88L401 91Q373 55 342 32T276 -1T198 -12ZM526 640L448 820H641L673 640H526Z" />
<glyph unicode="&#xe1;" horiz-adv-x="583" d="M198 -12Q143 -12 102 5T39 55T16 137Q16 191 43 228T118 289T226 321L398 348L387 238L247 212Q216 206 194 191T171 146Q171 121 189 110T235 98Q272 98 300 115T347 160T370 221L389 360Q392 383 381 399T350
424T306 433Q263 433 229 410T178 350L62 413Q83 459 121 491T209 540T315 558Q384 558 437 532T519 460T539 353L490 0H349L361 88L401 91Q373 55 342 32T276 -1T198 -12ZM269 640L353 820H546L416 640H269Z" />
<glyph unicode="&#xe2;" horiz-adv-x="583" d="M198 -12Q143 -12 102 5T39 55T16 137Q16 191 43 228T118 289T226 321L398 348L387 238L247 212Q216 206 194 191T171 146Q171 121 189 110T235 98Q272 98 300 115T347 160T370 221L389 360Q392 383 381 399T350
424T306 433Q263 433 229 410T178 350L62 413Q83 459 121 491T209 540T315 558Q384 558 437 532T519 460T539 353L490 0H349L361 88L401 91Q373 55 342 32T276 -1T198 -12ZM368 640L508 810H687L780 640H644L595 729L521 640H368Z" />
<glyph unicode="&#xe3;" horiz-adv-x="583" d="M198 -12Q143 -12 102 5T39 55T16 137Q16 191 43 228T118 289T226 321L398 348L387 238L247 212Q216 206 194 191T171 146Q171 121 189 110T235 98Q272 98 300 115T347 160T370 221L389 360Q392 383 381 399T350
424T306 433Q263 433 229 410T178 350L62 413Q83 459 121 491T209 540T315 558Q384 558 437 532T519 460T539 353L490 0H349L361 88L401 91Q373 55 342 32T276 -1T198 -12ZM676 640Q648 640 630 648T600 666T575 684T546 692Q527 692 518 679T505 644H390Q398 702
421 738T477 792T545 810Q574 810 592 803T624 785T650 767T677 759Q698 759 706 772T718 806H833Q820 722 775 681T676 640Z" />
<glyph unicode="&#xe4;" horiz-adv-x="583" d="M198 -12Q143 -12 102 5T39 55T16 137Q16 191 43 228T118 289T226 321L398 348L387 238L247 212Q216 206 194 191T171 146Q171 121 189 110T235 98Q272 98 300 115T347 160T370 221L389 360Q392 383 381 399T350
424T306 433Q263 433 229 410T178 350L62 413Q83 459 121 491T209 540T315 558Q384 558 437 532T519 460T539 353L490 0H349L361 88L401 91Q373 55 342 32T276 -1T198 -12ZM409 640L430 790H580L559 640H409ZM639 640L660 790H810L789 640H639Z" />
<glyph unicode="&#xe5;" horiz-adv-x="583" d="M198 -12Q143 -12 102 5T39 55T16 137Q16 191 43 228T118 289T226 321L398 348L387 238L247 212Q216 206 194 191T171 146Q171 121 189 110T235 98Q272 98 300 115T347 160T370 221L389 360Q392 383 381 399T350
424T306 433Q263 433 229 410T178 350L62 413Q83 459 121 491T209 540T315 558Q384 558 437 532T519 460T539 353L490 0H349L361 88L401 91Q373 55 342 32T276 -1T198 -12ZM337 590Q286 590 255 620T223 697Q223 737 243 769T297 820T372 840Q423 840 454 811T485
735Q485 695 465 662T412 610T337 590ZM349 677Q367 677 380 690T393 723Q393 737 384 746T360 755Q341 755 328 742T315 709Q315 695 324 686T349 677Z" />
<glyph unicode="&#xe6;" horiz-adv-x="962" d="M198 -12Q143 -12 102 5T39 55T16 137Q16 191 43 228T118 289T226 321L387 346L389 360Q392 383 381 399T350 424T306 433Q263 433 229 410T178 350L62 413Q83 459 121 491T209 540T315 558Q361 558 400 547T469
514T517 462L461 463Q502 507 557 532T676 558Q759 558 816 526T902 437T932 310Q932 291 929 272T921 231H538Q541 195 555 170T596 132T657 118Q698 118 729 135T777 180L895 119Q876 79 840 50T757 4T654 -12Q594 -12 546 7T464 60L505 101L490 0H349L365 109L390
77Q363 46 334 26T271 -3T198 -12ZM235 98Q272 98 300 115T347 160T370 221L372 235L247 212Q216 206 194 191T171 146Q171 121 189 110T235 98ZM549 341H776Q776 370 763 391T728 425T675 438Q641 438 616 426T575 392T549 341Z" />
<glyph unicode="&#xe7;" horiz-adv-x="622" d="M309 -12Q230 -12 168 23T70 119T34 257Q34 320 58 375T124 471T221 535T341 558Q403 558 454 537T540 477T588 388L455 336Q444 377 413 400T339 423Q294 423 261 400T209 339T190 257Q190 217 205 187T247 140T311
123Q358 123 393 148T445 214L572 153Q553 105 515 68T423 9T309 -12ZM288 -240Q262 -240 230 -232T175 -208L218 -125Q232 -134 248 -139T281 -144Q304 -144 317 -135T331 -109Q331 -93 310 -83T244 -68L275 10H360L346 -28Q391 -32 420 -54T449 -112Q449 -149
428 -178T371 -223T288 -240Z" />
<glyph unicode="&#xe8;" horiz-adv-x="612" d="M304 -12Q221 -12 160 23T67 120T34 255Q34 318 56 372T118 469T211 534T326 558Q409 558 466 526T552 437T582 310Q582 291 579 272T571 231H161L169 341H493L418 291Q431 333 423 366T390 418T325 438Q274 438
244 412T201 343T187 248Q187 207 201 178T242 133T307 118Q348 118 379 135T427 180L545 119Q526 79 490 50T407 4T304 -12ZM284 640L206 820H399L431 640H284Z" />
<glyph unicode="&#xe9;" horiz-adv-x="612" d="M304 -12Q221 -12 160 23T67 120T34 255Q34 318 56 372T118 469T211 534T326 558Q409 558 466 526T552 437T582 310Q582 291 579 272T571 231H161L169 341H493L418 291Q431 333 423 366T390 418T325 438Q274 438
244 412T201 343T187 248Q187 207 201 178T242 133T307 118Q348 118 379 135T427 180L545 119Q526 79 490 50T407 4T304 -12ZM283 640L367 820H560L430 640H283Z" />
<glyph unicode="&#xea;" horiz-adv-x="612" d="M304 -12Q221 -12 160 23T67 120T34 255Q34 318 56 372T118 469T211 534T326 558Q409 558 466 526T552 437T582 310Q582 291 579 272T571 231H161L169 341H493L418 291Q431 333 423 366T390 418T325 438Q274 438
244 412T201 343T187 248Q187 207 201 178T242 133T307 118Q348 118 379 135T427 180L545 119Q526 79 490 50T407 4T304 -12ZM382 640L522 810H701L794 640H658L609 729L535 640H382Z" />
<glyph unicode="&#xeb;" horiz-adv-x="612" d="M304 -12Q221 -12 160 23T67 120T34 255Q34 318 56 372T118 469T211 534T326 558Q409 558 466 526T552 437T582 310Q582 291 579 272T571 231H161L169 341H493L418 291Q431 333 423 366T390 418T325 438Q274 438
244 412T201 343T187 248Q187 207 201 178T242 133T307 118Q348 118 379 135T427 180L545 119Q526 79 490 50T407 4T304 -12ZM423 640L444 790H594L573 640H423ZM653 640L674 790H824L803 640H653Z" />
<glyph unicode="&#xec;" horiz-adv-x="239" d="M6 0L82 546H233L157 0H6ZM98 640L20 820H213L245 640H98Z" />
<glyph unicode="&#xed;" horiz-adv-x="239" d="M6 0L82 546H233L157 0H6ZM353 640L437 820H630L500 640H353Z" />
<glyph unicode="&#xee;" horiz-adv-x="239" d="M6 0L82 546H233L157 0H6ZM-60 640L80 810H259L352 640H216L167 729L93 640H-60Z" />
<glyph unicode="&#xef;" horiz-adv-x="239" d="M6 0L82 546H233L157 0H6ZM-19 640L2 790H152L131 640H-19ZM211 640L232 790H382L361 640H211Z" />
<glyph unicode="&#xf0;" horiz-adv-x="651" d="M303 -12Q229 -12 168 21T70 114T33 252Q33 314 56 368T121 462T216 525T333 548Q369 548 399 540T453 513T496 465L474 438Q476 492 457 534T403 605T323 650T229 666Q204 666 179 662T128 650L118 772Q156 785
192 790T261 796Q349 796 416 762T530 669T601 531T625 365Q625 258 589 173T481 38T303 -12ZM313 123Q357 123 391 145T445 204T465 287Q465 323 451 351T408 396T341 413Q295 413 261 391T207 333T188 254Q188 215 203 186T247 140T313 123ZM236 555L240 615L603
753L600 693L236 555Z" />
<glyph unicode="&#xf1;" horiz-adv-x="599" d="M17 0L93 546H233L219 438L213 466Q239 515 282 536T381 558Q444 558 488 529T552 449T564 337L517 0H367L411 319Q418 366 394 394T326 423Q297 423 273 410T232 374T211 319L167 0H17ZM684 640Q656 640 638 648T608
666T583 684T554 692Q535 692 526 679T513 644H398Q406 702 429 738T485 792T553 810Q582 810 600 803T632 785T658 767T685 759Q706 759 714 772T726 806H841Q828 722 783 681T684 640Z" />
<glyph unicode="&#xf2;" horiz-adv-x="655" d="M312 -12Q234 -12 171 22T71 118T34 257Q34 320 58 375T125 471T224 535T344 558Q422 558 485 524T584 429T621 289Q621 226 597 172T530 76T431 11T312 -12ZM314 123Q359 123 393 145T446 206T465 291Q465 330 450
359T408 406T342 423Q297 423 263 401T209 340T190 255Q190 216 205 187T248 140T314 123ZM306 640L228 820H421L453 640H306Z" />
<glyph unicode="&#xf3;" horiz-adv-x="655" d="M312 -12Q234 -12 171 22T71 118T34 257Q34 320 58 375T125 471T224 535T344 558Q422 558 485 524T584 429T621 289Q621 226 597 172T530 76T431 11T312 -12ZM314 123Q359 123 393 145T446 206T465 291Q465 330 450
359T408 406T342 423Q297 423 263 401T209 340T190 255Q190 216 205 187T248 140T314 123ZM305 640L389 820H582L452 640H305Z" />
<glyph unicode="&#xf4;" horiz-adv-x="655" d="M312 -12Q234 -12 171 22T71 118T34 257Q34 320 58 375T125 471T224 535T344 558Q422 558 485 524T584 429T621 289Q621 226 597 172T530 76T431 11T312 -12ZM314 123Q359 123 393 145T446 206T465 291Q465 330 450
359T408 406T342 423Q297 423 263 401T209 340T190 255Q190 216 205 187T248 140T314 123ZM404 640L544 810H723L816 640H680L631 729L557 640H404Z" />
<glyph unicode="&#xf5;" horiz-adv-x="655" d="M312 -12Q234 -12 171 22T71 118T34 257Q34 320 58 375T125 471T224 535T344 558Q422 558 485 524T584 429T621 289Q621 226 597 172T530 76T431 11T312 -12ZM314 123Q359 123 393 145T446 206T465 291Q465 330 450
359T408 406T342 423Q297 423 263 401T209 340T190 255Q190 216 205 187T248 140T314 123ZM712 640Q684 640 666 648T636 666T611 684T582 692Q563 692 554 679T541 644H426Q434 702 457 738T513 792T581 810Q610 810 628 803T660 785T686 767T713 759Q734 759
742 772T754 806H869Q856 722 811 681T712 640Z" />
<glyph unicode="&#xf6;" horiz-adv-x="655" d="M312 -12Q234 -12 171 22T71 118T34 257Q34 320 58 375T125 471T224 535T344 558Q422 558 485 524T584 429T621 289Q621 226 597 172T530 76T431 11T312 -12ZM314 123Q359 123 393 145T446 206T465 291Q465 330 450
359T408 406T342 423Q297 423 263 401T209 340T190 255Q190 216 205 187T248 140T314 123ZM189 640L210 790H360L339 640H189ZM419 640L440 790H590L569 640H419Z" />
<glyph unicode="&#xf7;" horiz-adv-x="678" d="M77 188L95 313H595L577 188H77ZM226 0L242 118H392L376 0H226ZM280 382L296 500H446L430 382H280Z" />
<glyph unicode="&#xf8;" horiz-adv-x="655" d="M-27 0L518 546H683L138 0H-27ZM312 -12Q234 -12 171 22T71 118T34 257Q34 320 58 375T125 471T224 535T344 558Q422 558 485 524T584 429T621 289Q621 226 597 172T530 76T431 11T312 -12ZM314 123Q359 123 393
145T446 206T465 291Q465 330 450 359T408 406T342 423Q297 423 263 401T209 340T190 255Q190 216 205 187T248 140T314 123Z" />
<glyph unicode="&#xf9;" horiz-adv-x="600" d="M220 -12Q152 -12 108 18T46 102T38 229L83 546H233L189 227Q185 196 194 173T224 136T274 123Q304 123 328 136T368 172T389 227L433 546H583L507 0H367L381 108L387 80Q362 31 318 10T220 -12ZM534 640L456 820H649L681
640H534Z" />
<glyph unicode="&#xfa;" horiz-adv-x="600" d="M220 -12Q152 -12 108 18T46 102T38 229L83 546H233L189 227Q185 196 194 173T224 136T274 123Q304 123 328 136T368 172T389 227L433 546H583L507 0H367L381 108L387 80Q362 31 318 10T220 -12ZM277 640L361 820H554L424
640H277Z" />
<glyph unicode="&#xfb;" horiz-adv-x="600" d="M220 -12Q152 -12 108 18T46 102T38 229L83 546H233L189 227Q185 196 194 173T224 136T274 123Q304 123 328 136T368 172T389 227L433 546H583L507 0H367L381 108L387 80Q362 31 318 10T220 -12ZM376 640L516 810H695L788
640H652L603 729L529 640H376Z" />
<glyph unicode="&#xfc;" horiz-adv-x="600" d="M220 -12Q152 -12 108 18T46 102T38 229L83 546H233L189 227Q185 196 194 173T224 136T274 123Q304 123 328 136T368 172T389 227L433 546H583L507 0H367L381 108L387 80Q362 31 318 10T220 -12ZM417 640L438 790H588L567
640H417ZM647 640L668 790H818L797 640H647Z" />
<glyph unicode="&#xfd;" horiz-adv-x="602" d="M76 -222Q49 -222 27 -217T-11 -203L-2 -83Q12 -87 30 -89T61 -92Q89 -92 108 -81T142 -53T167 -19L217 62L203 -63L49 546H203L301 113H240L460 546H629L310 -55Q280 -112 244 -149T166 -204T76 -222ZM278 640L362
820H555L425 640H278Z" />
<glyph unicode="&#xfe;" horiz-adv-x="672" d="M-11 -200L121 745H277L236 442L192 474Q222 515 269 536T375 558Q451 558 510 523T603 427T638 290Q638 228 615 173T552 77T458 12T342 -12Q281 -12 232 9T154 71L187 100L146 -200H-11ZM326 123Q372 123 407 145T462
205T482 290Q482 329 466 359T422 406T354 423Q309 423 275 401T221 340T202 255Q202 216 217 186T261 140T326 123Z" />
<glyph unicode="&#xff;" horiz-adv-x="602" d="M76 -222Q49 -222 27 -217T-11 -203L-2 -83Q12 -87 30 -89T61 -92Q89 -92 108 -81T142 -53T167 -19L217 62L203 -63L49 546H203L301 113H240L460 546H629L310 -55Q280 -112 244 -149T166 -204T76 -222ZM418 640L439
790H589L568 640H418ZM648 640L669 790H819L798 640H648Z" />
<glyph unicode="&#x2013;" horiz-adv-x="684" d="M83 208L101 338H601L583 208H83Z" />
<glyph unicode="&#x2014;" horiz-adv-x="1014" d="M83 208L101 338H931L913 208H83Z" />
<glyph unicode="&#x2018;" horiz-adv-x="386" d="M135 452L147 539Q159 627 210 683T347 757L337 682Q300 674 275 653T239 602H306L285 452H135Z" />
<glyph unicode="&#x2019;" horiz-adv-x="386" d="M134 440L144 515Q181 523 206 544T242 595H175L196 745H346L334 658Q322 570 271 514T134 440Z" />
<glyph unicode="&#x201a;" horiz-adv-x="386" d="M50 -155L60 -80Q97 -72 122 -51T158 0H91L112 150H262L250 63Q238 -25 187 -81T50 -155Z" />
<glyph unicode="&#x201c;" horiz-adv-x="606" d="M309 452L321 539Q333 627 384 683T521 757L511 682Q474 674 449 653T413 602H480L459 452H309ZM89 452L101 539Q113 627 164 683T301 757L291 682Q254 674 229 653T193 602H260L239 452H89Z" />
<glyph unicode="&#x201d;" horiz-adv-x="606" d="M309 440L319 515Q356 523 381 544T417 595H350L371 745H521L509 658Q497 570 446 514T309 440ZM89 440L99 515Q136 523 161 544T197 595H130L151 745H301L289 658Q277 570 226 514T89 440Z" />
<glyph unicode="&#x201e;" horiz-adv-x="606" d="M89 -155L99 -80Q136 -72 161 -51T197 0H130L151 150H301L289 63Q277 -25 226 -81T89 -155ZM309 -155L319 -80Q356 -72 381 -51T417 0H350L371 150H521L509 63Q497 -25 446 -81T309 -155Z" />
<glyph unicode="&#x2022;" horiz-adv-x="622" d="M300 92Q251 92 212 114T151 174T129 261Q129 315 155 359T226 429T325 455Q373 455 411 433T471 374T493 288Q493 248 478 212T437 150T375 108T300 92Z" />
<glyph unicode="&#x2039;" horiz-adv-x="428" d="M175 69L49 269L231 469H405L212 254L327 69H175Z" />
<glyph unicode="&#x203a;" horiz-adv-x="429" d="M22 69L215 284L100 469H252L378 269L196 69H22Z" />
</font>
</defs>
</svg>
