<?xml version="1.0" standalone="no"?>
<!DOCTYPE svg PUBLIC "-//W3C//DTD SVG 1.1//EN" "http://www.w3.org/Graphics/SVG/1.1/DTD/svg11.dtd">
<svg xmlns="http://www.w3.org/2000/svg">
<defs >
<font id="PlusJakartaSans" horiz-adv-x="585" ><font-face
    font-family="Plus Jakarta Sans ExtraBold"
    units-per-em="1000"
    panose-1="0 0 0 0 0 0 0 0 0 0"
    ascent="1038"
    descent="-222"
    alphabetic="0" />
<glyph unicode=" " horiz-adv-x="180" />
<glyph unicode="!" horiz-adv-x="400" d="M135 230L125 745H275L265 230H135ZM125 0V150H275V0H125Z" />
<glyph unicode="&quot;" horiz-adv-x="532" d="M119 440L101 745H231L214 440H119ZM318 440L300 745H430L413 440H318Z" />
<glyph unicode="#" horiz-adv-x="956" d="M146 0L190 153H70V283H227L279 463H159V593H316L360 745H510L466 593H616L659 745H809L766 593H886V463H728L677 283H797V153H639L596 0H446L489 153H340L296 0H146ZM377 283H527L578 463H429L377 283Z" />
<glyph unicode="$" horiz-adv-x="647" d="M337 -12Q267 -12 206 13T100 86T33 197L160 254Q188 193 237 158T347 123Q379 123 402 133T438 160T451 202Q451 228 435 246T385 276L239 324Q150 353 105 406T60 535Q60 601 92 651T183 729T318 757Q385 757 442 734T540
669T603 568L477 511Q456 563 414 592T318 622Q287 622 263 612T226 584T213 541Q213 515 230 496T281 465L424 419Q514 390 558 338T603 211Q603 146 569 96T476 17T337 -12ZM288 -100V845H378V-100H288Z" />
<glyph unicode="%" horiz-adv-x="1070" d="M158 0L760 745H914L312 0H158ZM277 367Q221 367 177 393T106 464T80 562Q80 616 106 660T176 731T277 757Q333 757 377 731T447 661T473 562Q473 508 447 464T377 394T277 367ZM277 477Q304 477 322 489T349 521T358
562Q358 584 349 603T322 634T277 647Q250 647 232 635T205 603T195 562Q195 541 204 522T232 490T277 477ZM794 -12Q738 -12 694 14T623 85T597 183Q597 237 623 281T693 352T794 378Q850 378 894 352T964 282T990 183Q990 129 964 85T894 15T794 -12ZM794 98Q821
98 839 110T866 142T875 183Q875 205 866 224T839 255T794 268Q768 268 750 256T722 224T712 183Q712 162 721 143T749 111T794 98Z" />
<glyph unicode="&amp;" horiz-adv-x="813" d="M322 -12Q250 -12 197 13T113 86T83 195Q83 247 101 285T147 349T200 391T244 417L314 453Q347 470 373 486T414 521T430 567Q430 597 411 618T361 639Q332 639 312 619T291 566Q291 542 302 519T327 477T354 444L744
0H570L249 360Q226 386 204 415T167 479T152 559Q152 620 181 664T257 733T359 757Q417 757 463 732T536 664T563 566Q563 511 538 473T476 408T408 364L335 322Q315 311 292 294T254 254T238 197Q238 158 262 136T328 113Q354 113 374 121T409 142T434 169T453
194L570 363H722L587 151Q572 127 551 99T498 45T424 4T322 -12Z" />
<glyph unicode="&apos;" horiz-adv-x="333" d="M119 440L101 745H231L214 440H119Z" />
<glyph unicode="(" horiz-adv-x="407" d="M240 -180Q155 -79 112 36T69 283Q69 414 111 529T240 745H365Q294 635 259 521T224 283Q224 160 259 45T365 -180H240Z" />
<glyph unicode=")" horiz-adv-x="407" d="M42 -180Q113 -71 148 44T183 283Q183 406 148 520T42 745H167Q253 645 295 530T338 283Q338 152 296 37T167 -180H42Z" />
<glyph unicode="*" horiz-adv-x="560" d="M211 358L123 422L192 516L81 554L115 657L225 620V745H335V620L445 657L479 554L368 516L437 422L349 358L280 452L211 358Z" />
<glyph unicode="+" horiz-adv-x="678" d="M277 0V188H89V313H277V500H402V313H589V188H402V0H277Z" />
<glyph unicode="," horiz-adv-x="386" d="M110 -165V-90Q145 -82 167 -60T197 0H130V150H280V63Q280 -32 237 -90T110 -165Z" />
<glyph unicode="-" horiz-adv-x="634" d="M92 208V338H542V208H92Z" />
<glyph unicode="." horiz-adv-x="408" d="M129 0V150H279V0H129Z" />
<glyph unicode="/" horiz-adv-x="532" d="M20 -120L350 705H512L182 -120H20Z" />
<glyph unicode="0" horiz-adv-x="700" d="M350 -12Q261 -12 194 36T88 171T50 373Q50 489 87 575T192 709T349 757Q440 757 507 709T612 575T650 373Q650 258 613 172T508 37T350 -12ZM351 128Q397 128 429 157T478 241T495 373Q495 450 478 504T429 588T349 617Q303
617 271 588T222 505T205 373Q205 297 222 242T271 158T351 128Z" />
<glyph unicode="1" horiz-adv-x="413" d="M170 0V614H25V745H325V0H170Z" />
<glyph unicode="2" horiz-adv-x="596" d="M42 0V120L242 326Q301 387 331 422T373 482T385 529Q385 570 359 593T292 617Q251 617 219 594T172 522L37 566Q49 624 87 667T179 733T292 757Q366 757 422 731T509 658T540 548Q540 508 526 470T484 392T410 306L239
130H547V0H42Z" />
<glyph unicode="3" horiz-adv-x="612" d="M292 -12Q230 -12 174 11T79 78T27 179L164 225Q181 177 214 153T292 128Q329 128 355 142T397 181T412 241Q412 275 398 299T357 337T292 351Q270 351 248 346T208 332L172 407L363 615H72V745H537V625L341 402L346 465Q413
465 462 438T539 361T567 247Q567 173 531 114T433 22T292 -12Z" />
<glyph unicode="4" horiz-adv-x="662" d="M362 0V160H32V290L352 745H517V290H632V160H517V0H362ZM145 234L116 290H362V625L401 613L145 234Z" />
<glyph unicode="5" horiz-adv-x="614" d="M295 -12Q236 -12 181 10T87 74T36 174L173 220Q188 172 221 150T295 128Q330 128 356 142T396 183T411 245Q411 280 397 306T356 346T295 361Q259 361 231 346T190 298L63 328L123 745H539V615H186L244 685L203 375L161
412Q186 453 224 472T324 491Q399 491 453 460T536 373T566 245Q566 172 531 114T434 22T295 -12Z" />
<glyph unicode="6" horiz-adv-x="604" d="M302 -12Q225 -12 165 20T71 109T37 235Q37 270 44 305T72 382T135 478L342 745H527L276 424L251 459Q265 466 278 470T303 476T330 478Q399 478 452 447T536 363T567 242Q567 169 533 112T440 21T302 -12ZM302 128Q333
128 357 142T397 181T412 240Q412 274 397 298T358 337T302 351Q272 351 247 337T207 299T192 240Q192 207 207 182T247 142T302 128Z" />
<glyph unicode="7" horiz-adv-x="564" d="M70 0L371 615H27V745H534V615L242 0H70Z" />
<glyph unicode="8" horiz-adv-x="633" d="M316 -12Q232 -12 172 19T79 102T47 215Q47 288 85 337T199 411L189 373Q136 389 105 439T73 550Q73 610 104 657T190 730T316 757Q387 757 441 731T527 657T559 550Q559 489 528 439T443 372L434 412Q509 384 548 336T587
214Q587 153 555 102T461 19T316 -12ZM316 118Q351 118 377 131T417 167T432 220Q432 251 418 273T377 308T316 321Q282 321 257 309T217 274T202 220Q202 190 216 167T256 131T316 118ZM316 451Q343 451 362 463T393 495T404 539Q404 564 393 584T363 615T316
627Q290 627 270 616T239 584T228 539Q228 515 239 495T270 463T316 451Z" />
<glyph unicode="9" horiz-adv-x="604" d="M77 0L328 321L353 286Q339 280 327 276T301 269T274 267Q205 267 152 298T68 382T37 503Q37 577 71 634T165 724T302 757Q380 757 439 725T533 637T567 510Q567 475 560 440T532 364T469 267L262 0H77ZM302 394Q333 394
357 408T397 447T412 505Q412 539 397 564T358 603T302 617Q272 617 247 603T207 564T192 505Q192 472 207 447T247 408T302 394Z" />
<glyph unicode=":" horiz-adv-x="408" d="M129 0V150H279V0H129ZM129 396V546H279V396H129Z" />
<glyph unicode=";" horiz-adv-x="428" d="M129 -165V-90Q164 -82 186 -60T216 0H149V150H299V63Q299 -32 256 -90T129 -165ZM149 396V546H299V396H149Z" />
<glyph unicode="&lt;" horiz-adv-x="678" d="M564 4L89 199V347L564 543V392L214 247V299L564 155V4Z" />
<glyph unicode="=" horiz-adv-x="678" d="M114 291V416H564V291H114ZM114 46V171H564V46H114Z" />
<glyph unicode="&gt;" horiz-adv-x="678" d="M114 4V155L464 299V247L114 392V543L589 347V199L114 4Z" />
<glyph unicode="?" horiz-adv-x="611" d="M225 230V253Q225 297 237 330T270 390T311 437Q340 466 363 489T386 544Q386 565 376 581T347 607T298 617Q261 617 234 595T200 534L61 569Q70 625 102 667T186 733T302 757Q380 757 433 727T514 649T541 548Q541 510
527 481T490 427T444 379Q413 350 389 318T365 243V230H225ZM221 0V150H371V0H221Z" />
<glyph unicode="@" horiz-adv-x="926" d="M485 -222Q389 -222 309 -191T169 -103T77 33T44 210Q44 307 76 386T168 523T308 611T483 642Q578 642 655 611T788 523T874 387T904 210Q904 145 881 98T817 25T723 0Q688 0 653 14T594 58T570 140L596 77Q589 53 566
36T512 10T448 0Q390 0 342 27T266 103T237 213Q237 273 265 323T342 404T453 435Q502 435 540 417T589 370L578 328V425H678V179Q678 144 691 125T727 105Q756 105 770 130T784 216Q784 284 765 341T709 442T615 508T485 532Q412 532 353 508T252 441T187 340T164
211Q164 139 188 80T255 -23T357 -89T484 -112Q532 -112 575 -100T656 -63L707 -160Q610 -222 485 -222ZM462 105Q494 105 518 120T557 160T571 217Q571 264 541 296T463 329Q432 330 406 316T365 277T350 218Q350 186 365 160T405 120T462 105Z" />
<glyph unicode="A" horiz-adv-x="732" d="M11 0L263 745H469L721 0H552L502 152H229L179 0H11ZM272 287H459L345 639H387L272 287Z" />
<glyph unicode="B" horiz-adv-x="690" d="M66 0V745H381Q458 745 513 719T597 645T626 527Q626 478 599 434T510 359V435Q569 412 601 380T645 311T657 232Q657 122 584 61T381 0H66ZM221 135H399Q446 135 474 162T502 232Q502 276 474 303T399 330H221V135ZM221
465H392Q428 465 449 485T471 540Q471 574 450 594T392 615H221V465Z" />
<glyph unicode="C" horiz-adv-x="772" d="M420 -12Q340 -12 272 17T152 98T73 220T44 373Q44 456 72 526T151 648T270 728T420 757Q501 757 565 730T675 658T739 558L602 492Q583 546 536 581T420 617Q354 617 304 586T227 501T199 373Q199 300 226 245T304 159T420
128Q488 128 535 163T602 253L739 187Q720 132 675 87T566 15T420 -12Z" />
<glyph unicode="D" horiz-adv-x="739" d="M66 0V745H309Q430 745 519 697T657 565T706 373Q706 265 657 181T519 48T309 0H66ZM221 135H313Q386 135 439 164T521 247T551 373Q551 446 522 499T439 581T313 610H221V135Z" />
<glyph unicode="E" horiz-adv-x="589" d="M66 0V745H567V610H221V441H547V306H221V135H567V0H66Z" />
<glyph unicode="F" horiz-adv-x="587" d="M66 0V745H576V610H221V421H526V286H221V0H66Z" />
<glyph unicode="G" horiz-adv-x="804" d="M424 -12Q344 -12 275 17T154 98T73 220T44 373Q44 456 72 526T151 648T270 728T420 757Q501 757 565 730T675 658T739 558L602 492Q583 546 536 581T420 617Q354 617 304 586T227 501T199 373Q199 300 228 245T307 159T424
128Q475 128 519 147T591 204T619 293V355L690 295H420V425H774V346Q774 255 744 188T664 76T551 10T424 -12Z" />
<glyph unicode="H" horiz-adv-x="732" d="M66 0V745H221V423H511V745H666V0H511V288H221V0H66Z" />
<glyph unicode="I" horiz-adv-x="287" d="M66 0V745H221V0H66Z" />
<glyph unicode="J" horiz-adv-x="396" d="M33 0V140H78Q123 140 150 165T178 233V745H333V240Q333 168 302 114T214 30T78 0H33Z" />
<glyph unicode="K" horiz-adv-x="687" d="M66 0V745H221V372L178 387L476 745H670L375 389L384 499L676 0H495L313 315L221 204V0H66Z" />
<glyph unicode="L" horiz-adv-x="547" d="M66 0V745H221V135H536V0H66Z" />
<glyph unicode="M" horiz-adv-x="912" d="M66 0V745H216L495 375H425L696 745H846V0H691V574L753 560L466 190H446L169 560L221 574V0H66Z" />
<glyph unicode="N" horiz-adv-x="742" d="M66 0V745H185L585 218L521 203V745H676V0H556L163 531L221 546V0H66Z" />
<glyph unicode="O" horiz-adv-x="878" d="M439 -12Q355 -12 283 17T158 98T74 221T44 373Q44 455 73 525T156 647T282 728T439 757Q524 757 596 728T721 647T804 525T834 373Q834 291 804 221T721 99T595 17T439 -12ZM439 128Q490 128 533 146T610 196T661 274T679
373Q679 427 661 471T610 549T534 599T439 617Q388 617 345 600T268 549T217 472T199 373Q199 319 217 274T268 197T344 146T439 128Z" />
<glyph unicode="P" horiz-adv-x="649" d="M66 0V745H352Q429 745 488 718T582 638T616 507Q616 431 582 378T488 298T352 270H221V0H66ZM221 405H353Q386 405 410 418T447 454T461 507Q461 538 448 561T410 597T353 610H221V405Z" />
<glyph unicode="Q" horiz-adv-x="878" d="M439 -12Q355 -12 283 17T158 98T74 221T44 373Q44 455 73 525T156 647T282 728T439 757Q524 757 596 728T721 647T804 525T834 373Q834 291 804 221T721 99T595 17T439 -12ZM439 128Q490 128 533 146T610 196T661 274T679
373Q679 427 661 471T610 549T534 599T439 617Q388 617 345 600T268 549T217 472T199 373Q199 319 217 274T268 197T344 146T439 128ZM597 -90L375 298H535L760 -90H597Z" />
<glyph unicode="R" horiz-adv-x="667" d="M66 0V745H351Q428 745 487 718T581 638T615 507Q615 431 580 378T486 297L656 0H482L298 329L398 270H221V0H66ZM221 405H352Q385 405 409 418T446 454T460 507Q460 538 447 561T409 597T352 610H221V405Z" />
<glyph unicode="S" horiz-adv-x="647" d="M337 -12Q267 -12 206 13T100 86T33 197L160 254Q188 193 237 158T347 123Q379 123 402 133T438 160T451 202Q451 228 435 246T385 276L239 324Q150 353 105 406T60 535Q60 601 92 651T183 729T318 757Q385 757 442 734T540
669T603 568L477 511Q456 563 414 592T318 622Q287 622 263 612T226 584T213 541Q213 515 230 496T281 465L424 419Q514 390 558 338T603 211Q603 146 569 96T476 17T337 -12Z" />
<glyph unicode="T" horiz-adv-x="552" d="M200 0V610H11V745H541V610H355V0H200Z" />
<glyph unicode="U" horiz-adv-x="724" d="M362 -12Q274 -12 205 25T97 126T57 273V745H212V283Q212 239 231 204T285 148T362 128Q406 128 439 148T492 203T512 283V745H667V273Q667 191 628 127T519 25T362 -12Z" />
<glyph unicode="V" horiz-adv-x="712" d="M266 0L11 745H181L373 147H339L531 745H701L446 0H266Z" />
<glyph unicode="W" horiz-adv-x="1032" d="M206 0L11 745H179L326 121H281L436 745H596L751 121H706L853 745H1021L826 0H646L490 600H542L386 0H206Z" />
<glyph unicode="X" horiz-adv-x="682" d="M11 0L255 373L11 745H189L385 447H298L493 745H671L428 373L671 0H493L298 299L385 298L189 0H11Z" />
<glyph unicode="Y" horiz-adv-x="672" d="M259 0V325L11 745H188L368 429H305L484 745H661L414 326V0H259Z" />
<glyph unicode="Z" horiz-adv-x="567" d="M11 0V125L350 610H31V745H546V620L208 135H556V0H11Z" />
<glyph unicode="[" horiz-adv-x="449" d="M110 -180V745H390V615H260V-50H390V-180H110Z" />
<glyph unicode="\" horiz-adv-x="532" d="M350 -120L20 705H182L512 -120H350Z" />
<glyph unicode="]" horiz-adv-x="449" d="M59 -180V-50H189V615H59V745H339V-180H59Z" />
<glyph unicode="^" horiz-adv-x="678" d="M97 418L268 745H412L582 418H418L309 627H371L262 418H97Z" />
<glyph unicode="_" horiz-adv-x="684" d="M92 -130V0H592V-130H92Z" />
<glyph unicode="`" horiz-adv-x="391" d="M233 640L129 820H322L380 640H233Z" />
<glyph unicode="a" horiz-adv-x="583" d="M224 -12Q165 -12 122 7T56 61T33 146Q33 192 54 227T118 287T227 321L394 348V238L254 213Q222 207 205 193T188 151Q188 126 207 112T254 98Q291 98 319 114T362 157T378 218V360Q378 391 354 412T287 433Q247 433 217
411T172 353L52 410Q68 456 103 489T187 540T294 558Q363 558 416 533T498 464T528 360V0H388V88L422 94Q398 58 369 35T304 0T224 -12Z" />
<glyph unicode="b" horiz-adv-x="673" d="M361 -12Q305 -12 258 8T181 69L195 100V0H55V757H205V442L182 472Q209 513 255 535T362 558Q440 558 503 520T603 418T640 273Q640 194 604 129T504 26T361 -12ZM343 123Q385 123 417 142T467 195T485 273Q485 317 467
350T417 403T343 423Q303 423 272 404T223 351T205 273Q205 229 222 195T271 142T343 123Z" />
<glyph unicode="c" horiz-adv-x="611" d="M323 -12Q241 -12 176 25T72 128T33 274Q33 355 71 419T175 521T323 558Q384 558 436 537T525 479T578 390L448 334Q434 375 401 399T323 423Q284 423 254 404T206 351T188 273Q188 229 205 195T253 142T323 123Q368 123
401 147T448 212L578 155Q563 107 526 69T437 10T323 -12Z" />
<glyph unicode="d" horiz-adv-x="673" d="M312 -12Q232 -12 169 26T70 129T33 273Q33 353 70 417T170 520T311 558Q371 558 417 536T491 472L468 442V757H618V0H478V100L492 69Q464 29 416 9T312 -12ZM330 123Q371 123 402 142T450 195T468 273Q468 317 451 351T402
404T330 423Q289 423 257 404T206 351T188 273Q188 229 206 195T256 142T330 123Z" />
<glyph unicode="e" horiz-adv-x="611" d="M318 -12Q231 -12 167 26T68 130T33 274Q33 356 69 420T168 521T308 558Q373 558 423 538T507 480T560 395T578 289Q578 273 577 258T571 231H162V341H486L415 289Q425 332 414 365T376 418T308 438Q269 438 241 419T199
363T188 273Q184 227 199 192T245 138T320 118Q360 118 388 134T433 178L553 121Q537 81 503 51T421 5T318 -12Z" />
<glyph unicode="f" horiz-adv-x="410" d="M121 0V416H29V546H121V554Q121 619 146 664T220 733T336 757Q349 757 364 756T389 752V624Q379 626 372 626T356 627Q314 627 293 609T271 554V546H388V416H271V0H121Z" />
<glyph unicode="g" horiz-adv-x="648" d="M323 -220Q260 -220 206 -199T114 -141T58 -52L197 -3Q208 -41 242 -63T323 -85Q360 -85 387 -72T428 -32T443 29V154L472 118Q444 72 400 50T297 27Q221 27 161 61T67 156T33 294Q33 371 67 430T160 524T294 558Q353
558 397 535T472 463L453 427V546H593V29Q593 -43 558 -99T463 -188T323 -220ZM318 163Q356 163 384 179T427 224T443 292Q443 331 427 360T383 406T318 423Q280 423 251 407T205 361T188 292Q188 254 204 225T250 180T318 163Z" />
<glyph unicode="h" horiz-adv-x="599" d="M55 0V757H205V438L187 462Q206 511 248 534T348 558Q410 558 456 532T529 460T555 351V0H405V319Q405 351 393 374T358 410T305 423Q276 423 253 410T218 374T205 319V0H55Z" />
<glyph unicode="i" horiz-adv-x="260" d="M55 0V546H205V0H55ZM55 595V745H205V595H55Z" />
<glyph unicode="j" horiz-adv-x="260" d="M-11 -222Q-26 -222 -40 -221T-65 -217V-89Q-48 -92 -31 -92Q12 -92 33 -74T55 -20V546H205V-20Q205 -84 180 -129T106 -198T-11 -222ZM55 595V745H205V595H55Z" />
<glyph unicode="k" horiz-adv-x="586" d="M55 0V757H205V272L149 290L390 546H575L377 326L574 0H404L239 277L326 299L159 117L205 204V0H55Z" />
<glyph unicode="l" horiz-adv-x="260" d="M55 0V757H205V0H55Z" />
<glyph unicode="m" horiz-adv-x="929" d="M55 0V546H195V413L180 435Q192 498 238 528T348 558Q416 558 467 524T532 431L489 427Q516 494 566 526T683 558Q742 558 787 532T859 460T885 351V0H735V319Q735 351 724 374T691 410T640 423Q611 423 590 410T557 374T545
319V0H395V319Q395 351 384 374T351 410T300 423Q271 423 250 410T217 374T205 319V0H55Z" />
<glyph unicode="n" horiz-adv-x="599" d="M55 0V546H195V438L187 462Q206 511 248 534T348 558Q410 558 456 532T529 460T555 351V0H405V319Q405 351 393 374T358 410T305 423Q276 423 253 410T218 374T205 319V0H55Z" />
<glyph unicode="o" horiz-adv-x="651" d="M326 -12Q245 -12 179 25T73 126T33 273Q33 356 72 420T178 521T326 558Q407 558 473 521T578 420T618 273Q618 191 579 127T473 25T326 -12ZM326 123Q367 123 397 142T445 195T463 273Q463 317 446 350T398 403T326 423Q285
423 254 404T206 351T188 273Q188 229 205 195T254 142T326 123Z" />
<glyph unicode="p" horiz-adv-x="673" d="M55 -200V546H195V442L182 472Q209 513 255 535T362 558Q440 558 503 520T603 418T640 273Q640 194 604 129T504 26T361 -12Q305 -12 258 8T181 69L205 100V-200H55ZM343 123Q385 123 417 142T467 195T485 273Q485 317
467 350T417 403T343 423Q303 423 272 404T223 351T205 273Q205 229 222 195T271 142T343 123Z" />
<glyph unicode="q" horiz-adv-x="673" d="M468 -200V100L492 69Q464 29 416 9T312 -12Q232 -12 169 26T70 129T33 273Q33 353 70 417T170 520T311 558Q371 558 417 536T491 472L478 442V546H618V-200H468ZM330 123Q371 123 402 142T450 195T468 273Q468 317 451
351T402 404T330 423Q289 423 257 404T206 351T188 273Q188 229 206 195T256 142T330 123Z" />
<glyph unicode="r" horiz-adv-x="386" d="M55 0V546H195V415L185 434Q203 503 244 527T343 552H375V422H328Q273 422 239 389T205 294V0H55Z" />
<glyph unicode="s" horiz-adv-x="515" d="M269 -12Q179 -12 113 30T22 145L132 197Q153 153 189 128T269 103Q301 103 318 116T335 152Q335 164 329 172T311 188T281 200L188 226Q121 245 85 287T49 388Q49 439 75 477T148 536T256 558Q336 558 396 521T482 415L371
363Q359 397 328 417T256 438Q227 438 211 426T194 393Q194 382 200 373T219 357T253 344L340 318Q408 298 444 258T480 158Q480 107 454 69T380 10T269 -12Z" />
<glyph unicode="t" horiz-adv-x="421" d="M318 -6Q219 -6 165 47T110 197V416H18V546H23Q65 546 87 567T110 630V670H260V546H388V416H260V207Q260 179 270 161T301 133T353 124Q360 124 369 125T388 127V0Q373 -2 354 -4T318 -6Z" />
<glyph unicode="u" horiz-adv-x="599" d="M251 -12Q185 -12 139 16T68 96T44 215V546H194V227Q194 196 206 173T242 136T294 123Q324 123 346 136T381 172T394 227V546H544V0H404V108L412 84Q393 35 351 12T251 -12Z" />
<glyph unicode="v" horiz-adv-x="582" d="M226 0L11 546H173L322 133H260L409 546H571L356 0H226Z" />
<glyph unicode="w" horiz-adv-x="912" d="M199 0L11 546H166L298 152L244 153L391 546H521L667 153L613 152L745 546H901L712 0H582L430 422H482L329 0H199Z" />
<glyph unicode="x" horiz-adv-x="582" d="M12 0L203 274L11 546H185L329 334H253L397 546H571L379 274L569 0H396L255 212H327L186 0H12Z" />
<glyph unicode="y" horiz-adv-x="602" d="M140 -222Q116 -222 94 -218T54 -205V-82Q68 -86 87 -89T122 -92Q166 -92 185 -71T216 -23L253 62L251 -63L11 546H172L331 113H271L430 546H591L357 -51Q335 -108 303 -146T231 -203T140 -222Z" />
<glyph unicode="z" horiz-adv-x="492" d="M11 0V120L325 466L347 416H24V546H480V426L174 79L152 130H481V0H11Z" />
<glyph unicode="{" horiz-adv-x="425" d="M316 -180Q225 -180 177 -136T128 -13V157Q128 183 116 197T80 211H48V341H80Q103 341 115 355T128 395V578Q128 657 176 701T316 745H366V615H316Q298 615 288 605T278 574V409Q278 366 262 332T215 278Q245 261 261
229T278 155V-9Q278 -28 288 -39T316 -50H366V-180H316Z" />
<glyph unicode="|" horiz-adv-x="426" d="M138 -190V845H288V-190H138Z" />
<glyph unicode="}" horiz-adv-x="425" d="M59 -180V-50H109Q127 -50 137 -39T147 -9V155Q147 196 163 228T210 278Q180 298 164 332T147 409V574Q147 594 137 604T109 615H59V745H109Q200 745 248 701T297 578V395Q297 370 310 356T345 341H377V211H345Q323 211
310 197T297 157V-13Q297 -92 249 -136T109 -180H59Z" />
<glyph unicode="~" horiz-adv-x="678" d="M435 180Q401 180 377 189T335 212T300 234T263 244Q241 244 228 230T210 185H90Q95 274 135 320T246 367Q280 367 304 358T346 335T381 313T417 303Q437 303 450 316T469 362H588Q583 273 545 227T435 180Z" />
<glyph unicode="&#xa0;" horiz-adv-x="180" />
<glyph unicode="&#xa1;" horiz-adv-x="400" d="M125 -199L135 316H265L275 -199H125ZM125 396V546H275V396H125Z" />
<glyph unicode="&#xa2;" horiz-adv-x="611" d="M323 88Q241 88 176 125T72 228T33 374Q33 455 71 519T175 621T323 658Q384 658 436 637T525 579T578 490L448 434Q434 475 401 499T323 523Q284 523 254 504T206 451T188 373Q188 329 205 295T253 242T323 223Q368
223 401 247T448 312L578 255Q563 207 526 169T437 110T323 88ZM277 0V745H367V0H277Z" />
<glyph unicode="&#xa3;" horiz-adv-x="670" d="M33 0V130H133V505Q133 581 164 637T253 725T392 757Q452 757 505 734T594 670T637 574L502 530Q495 573 464 595T392 617Q342 617 315 588T288 505V130H606V0H33ZM33 334V424H477V334H33Z" />
<glyph unicode="&#xa4;" horiz-adv-x="596" d="M118 4L33 89L113 168Q100 191 94 216T87 269Q87 296 93 321T113 369L33 449L118 534L198 454Q221 467 246 473T298 480Q326 480 351 474T399 454L478 534L563 449L484 369Q496 347 502 322T509 269Q509 241 503
216T484 168L563 89L478 4L399 83Q377 71 352 65T298 58Q271 58 246 64T198 83L118 4ZM298 188Q321 188 339 199T368 228T379 269Q379 292 368 310T339 339T298 350Q276 350 258 339T228 310T217 269Q217 247 228 229T257 199T298 188Z" />
<glyph unicode="&#xa5;" horiz-adv-x="672" d="M259 0V325L11 745H188L368 429H305L484 745H661L414 326V0H259ZM114 282V372H558V282H114ZM114 142V232H558V142H114Z" />
<glyph unicode="&#xa6;" horiz-adv-x="426" d="M138 428V845H288V428H138ZM138 -190V228H288V-190H138Z" />
<glyph unicode="&#xa7;" horiz-adv-x="535" d="M280 -95Q187 -95 118 -51T22 70L133 122Q156 75 194 49T280 22Q315 22 335 36T355 77Q355 90 348 100T328 119T294 132L197 159Q126 179 88 223T50 328Q50 381 77 421T154 483T266 506V425Q233 425 215 406T196
354Q196 335 204 320T231 293T278 273L353 251Q425 230 462 187T500 83Q500 30 473 -10T396 -72T280 -95ZM280 156V233Q315 233 335 252T355 308Q355 326 348 341T323 368T276 388L197 410Q126 430 88 474T50 579Q50 632 77 672T154 734T266 757Q347 757 410 719T502
607L390 555Q377 592 343 614T266 636Q233 636 215 622T196 585Q196 571 204 560T226 542T260 529L353 502Q425 481 462 438T500 334Q500 281 473 241T396 179T280 156Z" />
<glyph unicode="&#xa8;" horiz-adv-x="567" d="M129 640V790H279V640H129ZM359 640V790H509V640H359Z" />
<glyph unicode="&#xa9;" horiz-adv-x="952" d="M477 -12Q397 -12 327 18T204 101T121 224T91 374Q91 454 120 523T203 645T326 727T477 757Q556 757 625 728T748 646T831 524T861 374Q861 294 832 224T749 101T627 18T477 -12ZM477 88Q536 88 587 110T678 171T739
262T761 374Q761 433 739 484T678 575T587 636T477 658Q417 658 365 636T274 575T213 485T191 374Q191 314 213 262T274 171T365 110T477 88ZM481 163Q422 163 374 190T299 265T271 373Q271 434 298 481T373 555T481 582Q526 582 563 568T625 528T661 469L562 432Q553
454 532 469T481 484Q435 484 408 453T381 373Q381 324 408 293T481 261Q510 261 531 276T562 313L661 276Q651 243 626 218T563 178T481 163Z" />
<glyph unicode="&#xaa;" horiz-adv-x="442" d="M169 353Q106 353 70 383T33 465Q33 515 67 546T171 589L283 607V523L192 506Q174 502 164 495T153 469Q153 454 164 446T193 437Q216 437 233 447T261 475T271 513V613Q271 632 256 645T214 659Q186 659 166 643T137
604L45 647Q62 697 109 726T219 755Q293 755 340 716T387 613V362H279V421L307 426Q280 388 248 371T169 353Z" />
<glyph unicode="&#xab;" horiz-adv-x="718" d="M204 69L50 269L204 469H367L215 269L367 69H204ZM504 69L350 269L504 469H667L515 269L667 69H504Z" />
<glyph unicode="&#xac;" horiz-adv-x="678" d="M464 40V188H89V313H589V40H464Z" />
<glyph unicode="&#xad;" horiz-adv-x="634" d="M92 208V338H542V208H92Z" />
<glyph unicode="&#xae;" horiz-adv-x="694" d="M348 271Q277 271 219 306T126 399T91 529Q91 600 125 658T218 750T348 784Q401 784 447 765T528 710T583 629T603 528Q603 458 569 400T477 306T348 271ZM348 346Q398 346 439 370T504 436T529 528Q529 579 504
620T438 686T348 711Q297 711 256 686T190 620T165 528Q165 477 189 436T256 370T348 346ZM235 392V664H358Q402 664 431 643T461 572Q461 539 446 520T409 490L464 392H380L330 483H315V392H235ZM315 549H360Q371 549 377 556T384 573Q384 584 378 590T360 597H315V549Z"
/>
<glyph unicode="&#xaf;" horiz-adv-x="460" d="M129 660V780H469V660H129Z" />
<glyph unicode="&#xb0;" horiz-adv-x="552" d="M276 417Q229 417 191 440T129 501T106 587Q106 634 129 672T190 734T276 757Q323 757 361 734T423 673T446 587Q446 540 423 502T362 440T276 417ZM276 517Q305 517 325 537T346 587Q346 616 326 636T276 657Q247
657 227 637T206 587Q206 558 226 538T276 517Z" />
<glyph unicode="&#xb1;" horiz-adv-x="678" d="M277 195V333H89V458H277V595H402V458H589V333H402V195H277ZM89 0V125H589V0H89Z" />
<glyph unicode="&#xb2;" horiz-adv-x="404" d="M17 224V317L157 460Q192 496 213 519T243 559T252 591Q252 616 235 631T194 646Q169 646 149 632T118 587L14 621Q23 662 50 692T115 738T194 754Q247 754 287 736T349 684T371 607Q371 562 348 524T284 443L168
324H375V224H17Z" />
<glyph unicode="&#xb3;" horiz-adv-x="421" d="M198 215Q154 215 114 232T47 279T10 350L115 385Q127 354 148 339T198 324Q233 324 253 343T274 395Q274 426 255 445T198 464Q162 464 135 449L107 507L239 646H44V745H372V653L235 502L240 551Q287 551 321 532T374
479T393 399Q393 347 368 305T298 239T198 215Z" />
<glyph unicode="&#xb4;" horiz-adv-x="391" d="M129 640L187 820H380L276 640H129Z" />
<glyph unicode="&#xb5;" horiz-adv-x="599" d="M44 -140V546H194V227Q194 196 206 173T242 136T294 123Q324 123 346 136T381 172T394 227V546H544V0H404V133L419 111Q407 48 362 18T251 -12Q224 -12 200 -8T154 7L194 61V-140H44Z" />
<glyph unicode="&#xb6;" horiz-adv-x="619" d="M326 -100V272Q252 272 197 301T112 384T81 508Q81 579 111 632T197 715T326 745H481V-100H326Z" />
<glyph unicode="&#xb7;" horiz-adv-x="408" d="M129 198V348H279V198H129Z" />
<glyph unicode="&#xb8;" horiz-adv-x="381" d="M246 -240Q220 -240 187 -232T129 -208L160 -125Q175 -134 192 -139T226 -144Q248 -144 259 -136T271 -112Q271 -94 247 -83T178 -68L198 10H283L275 -28Q328 -33 359 -59T390 -124Q390 -177 351 -208T246 -240Z" />
<glyph unicode="&#xb9;" horiz-adv-x="319" d="M116 224V645H14V745H235V224H116Z" />
<glyph unicode="&#xba;" horiz-adv-x="481" d="M241 353Q184 353 137 379T62 450T33 554Q33 612 61 657T137 729T241 755Q298 755 345 729T420 658T448 554Q448 496 420 451T345 379T241 353ZM242 457Q268 457 287 469T317 504T328 554Q328 583 317 604T287 638T241
651Q215 651 195 639T164 604T153 554Q153 526 164 504T195 470T242 457Z" />
<glyph unicode="&#xbb;" horiz-adv-x="718" d="M351 69L503 269L351 469H514L668 269L514 69H351ZM51 69L203 269L51 469H214L368 269L214 69H51Z" />
<glyph unicode="&#xbc;" horiz-adv-x="877" d="M96 328V661H14V745H196V328H96ZM107 0L553 745H650L204 0H107ZM687 0V87H510V172L679 417H788V171H857V87H788V0H687ZM582 136L563 171H687V341L712 333L582 136Z" />
<glyph unicode="&#xbd;" horiz-adv-x="816" d="M96 328V661H14V745H196V328H96ZM107 0L553 745H650L204 0H107ZM499 0V78L611 192Q640 221 655 239T677 270T684 293Q684 310 671 321T641 333Q623 333 607 323T583 289L496 318Q503 351 525 374T578 411T641 424Q705
424 744 392T784 306Q784 269 765 239T716 177L625 84H787V0H499Z" />
<glyph unicode="&#xbe;" horiz-adv-x="943" d="M161 321Q109 321 65 351T10 430L99 459Q108 436 123 425T161 413Q187 413 203 427T219 466Q219 489 205 503T161 517Q148 517 134 514T109 505L86 553L190 662H38V745H303V667L192 548L197 591Q253 591 285 557T318
469Q318 427 298 394T242 341T161 321ZM173 0L619 745H716L270 0H173ZM753 0V87H576V172L745 417H854V171H923V87H854V0H753ZM648 136L629 171H753V341L778 333L648 136Z" />
<glyph unicode="&#xbf;" horiz-adv-x="611" d="M309 -211Q231 -211 178 -181T98 -102T70 -2Q70 36 84 65T121 119T167 167Q198 196 222 228T246 303V316H386V293Q386 249 374 216T341 157T300 109Q272 80 249 57T225 2Q225 -19 235 -35T265 -61T313 -71Q351 -71
378 -49T411 12L550 -23Q542 -78 509 -120T425 -187T309 -211ZM240 396V546H390V396H240Z" />
<glyph unicode="&#xc0;" horiz-adv-x="732" d="M11 0L263 745H469L721 0H552L502 152H229L179 0H11ZM272 287H459L345 639H387L272 287ZM293 839L189 1019H382L440 839H293Z" />
<glyph unicode="&#xc1;" horiz-adv-x="732" d="M11 0L263 745H469L721 0H552L502 152H229L179 0H11ZM272 287H459L345 639H387L272 287ZM292 839L350 1019H543L439 839H292Z" />
<glyph unicode="&#xc2;" horiz-adv-x="732" d="M11 0L263 745H469L721 0H552L502 152H229L179 0H11ZM272 287H459L345 639H387L272 287ZM160 839L276 1009H455L572 839H428L366 929L304 839H160Z" />
<glyph unicode="&#xc3;" horiz-adv-x="732" d="M11 0L263 745H469L721 0H552L502 152H229L179 0H11ZM272 287H459L345 639H387L272 287ZM443 839Q415 839 396 847T363 865T336 883T305 891Q288 891 280 879T271 843H156Q156 930 195 969T288 1009Q317 1009 336
1002T371 984T399 966T427 958Q447 958 454 970T461 1005H576Q575 921 536 880T443 839Z" />
<glyph unicode="&#xc4;" horiz-adv-x="732" d="M11 0L263 745H469L721 0H552L502 152H229L179 0H11ZM272 287H459L345 639H387L272 287ZM176 839V989H326V839H176ZM406 839V989H556V839H406Z" />
<glyph unicode="&#xc5;" horiz-adv-x="732" d="M11 0L263 745H469L721 0H552L502 152H229L179 0H11ZM272 287H459L345 639H387L272 287ZM366 789Q310 789 273 824T236 915Q236 969 273 1004T366 1039Q422 1039 458 1004T495 915Q495 860 459 825T366 789ZM366
876Q383 876 393 887T404 915Q404 932 394 943T366 954Q349 954 338 943T327 915Q327 898 338 887T366 876Z" />
<glyph unicode="&#xc6;" horiz-adv-x="993" d="M11 0L263 745H971V610H625V441H951V306H625V135H971L970 0H470V152H229L179 0H11ZM272 287H470V610H378L272 287Z" />
<glyph unicode="&#xc7;" horiz-adv-x="772" d="M420 -12Q340 -12 272 17T152 98T73 220T44 373Q44 456 72 526T151 648T270 728T420 757Q501 757 565 730T675 658T739 558L602 492Q583 546 536 581T420 617Q354 617 304 586T227 501T199 373Q199 300 226 245T304
159T420 128Q488 128 535 163T602 253L739 187Q720 132 675 87T566 15T420 -12ZM430 -240Q404 -240 371 -232T313 -208L344 -125Q359 -134 376 -139T410 -144Q432 -144 443 -136T455 -112Q455 -94 431 -83T362 -68L382 10H467L459 -28Q512 -33 543 -59T574 -124Q574
-177 535 -208T430 -240Z" />
<glyph unicode="&#xc8;" horiz-adv-x="589" d="M66 0V745H567V610H221V441H547V306H221V135H567V0H66ZM244 839L140 1019H333L391 839H244Z" />
<glyph unicode="&#xc9;" horiz-adv-x="589" d="M66 0V745H567V610H221V441H547V306H221V135H567V0H66ZM243 839L301 1019H494L390 839H243Z" />
<glyph unicode="&#xca;" horiz-adv-x="589" d="M66 0V745H567V610H221V441H547V306H221V135H567V0H66ZM111 839L227 1009H406L523 839H379L317 929L255 839H111Z" />
<glyph unicode="&#xcb;" horiz-adv-x="589" d="M66 0V745H567V610H221V441H547V306H221V135H567V0H66ZM127 839V989H277V839H127ZM357 839V989H507V839H357Z" />
<glyph unicode="&#xcc;" horiz-adv-x="287" d="M66 0V745H221V0H66ZM71 839L-33 1019H160L218 839H71Z" />
<glyph unicode="&#xcd;" horiz-adv-x="287" d="M66 0V745H221V0H66ZM70 839L128 1019H321L217 839H70Z" />
<glyph unicode="&#xce;" horiz-adv-x="287" d="M66 0V745H221V0H66ZM-62 839L54 1009H233L350 839H206L144 929L82 839H-62Z" />
<glyph unicode="&#xcf;" horiz-adv-x="287" d="M66 0V745H221V0H66ZM-46 839V989H104V839H-46ZM184 839V989H334V839H184Z" />
<glyph unicode="&#xd0;" horiz-adv-x="739" d="M12 308V438H377V308H12ZM66 0V745H309Q430 745 519 697T657 565T706 373Q706 265 657 181T519 48T309 0H66ZM221 135H313Q386 135 439 164T521 247T551 373Q551 446 522 499T439 581T313 610H221V135Z" />
<glyph unicode="&#xd1;" horiz-adv-x="742" d="M66 0V745H185L585 218L521 203V745H676V0H556L163 531L221 546V0H66ZM448 839Q420 839 401 847T368 865T341 883T310 891Q293 891 285 879T276 843H161Q161 930 200 969T293 1009Q322 1009 341 1002T376 984T404
966T432 958Q452 958 459 970T466 1005H581Q580 921 541 880T448 839Z" />
<glyph unicode="&#xd2;" horiz-adv-x="878" d="M439 -12Q355 -12 283 17T158 98T74 221T44 373Q44 455 73 525T156 647T282 728T439 757Q524 757 596 728T721 647T804 525T834 373Q834 291 804 221T721 99T595 17T439 -12ZM439 128Q490 128 533 146T610 196T661
274T679 373Q679 427 661 471T610 549T534 599T439 617Q388 617 345 600T268 549T217 472T199 373Q199 319 217 274T268 197T344 146T439 128ZM366 839L262 1019H455L513 839H366Z" />
<glyph unicode="&#xd3;" horiz-adv-x="878" d="M439 -12Q355 -12 283 17T158 98T74 221T44 373Q44 455 73 525T156 647T282 728T439 757Q524 757 596 728T721 647T804 525T834 373Q834 291 804 221T721 99T595 17T439 -12ZM439 128Q490 128 533 146T610 196T661
274T679 373Q679 427 661 471T610 549T534 599T439 617Q388 617 345 600T268 549T217 472T199 373Q199 319 217 274T268 197T344 146T439 128ZM365 839L423 1019H616L512 839H365Z" />
<glyph unicode="&#xd4;" horiz-adv-x="878" d="M439 -12Q355 -12 283 17T158 98T74 221T44 373Q44 455 73 525T156 647T282 728T439 757Q524 757 596 728T721 647T804 525T834 373Q834 291 804 221T721 99T595 17T439 -12ZM439 128Q490 128 533 146T610 196T661
274T679 373Q679 427 661 471T610 549T534 599T439 617Q388 617 345 600T268 549T217 472T199 373Q199 319 217 274T268 197T344 146T439 128ZM233 839L349 1009H528L645 839H501L439 929L377 839H233Z" />
<glyph unicode="&#xd5;" horiz-adv-x="878" d="M439 -12Q355 -12 283 17T158 98T74 221T44 373Q44 455 73 525T156 647T282 728T439 757Q524 757 596 728T721 647T804 525T834 373Q834 291 804 221T721 99T595 17T439 -12ZM439 128Q490 128 533 146T610 196T661
274T679 373Q679 427 661 471T610 549T534 599T439 617Q388 617 345 600T268 549T217 472T199 373Q199 319 217 274T268 197T344 146T439 128ZM516 839Q488 839 469 847T436 865T409 883T378 891Q361 891 353 879T344 843H229Q229 930 268 969T361 1009Q390 1009
409 1002T444 984T472 966T500 958Q520 958 527 970T534 1005H649Q648 921 609 880T516 839Z" />
<glyph unicode="&#xd6;" horiz-adv-x="878" d="M439 -12Q355 -12 283 17T158 98T74 221T44 373Q44 455 73 525T156 647T282 728T439 757Q524 757 596 728T721 647T804 525T834 373Q834 291 804 221T721 99T595 17T439 -12ZM439 128Q490 128 533 146T610 196T661
274T679 373Q679 427 661 471T610 549T534 599T439 617Q388 617 345 600T268 549T217 472T199 373Q199 319 217 274T268 197T344 146T439 128ZM249 839V989H399V839H249ZM479 839V989H629V839H479Z" />
<glyph unicode="&#xd7;" horiz-adv-x="678" d="M192 0L104 89L251 236L104 382L193 470L339 324L485 470L574 382L427 236L574 89L486 0L339 147L192 0Z" />
<glyph unicode="&#xd8;" horiz-adv-x="878" d="M50 0L660 745H828L218 0H50ZM439 -12Q355 -12 283 17T158 98T74 221T44 373Q44 455 73 525T156 647T282 728T439 757Q524 757 596 728T721 647T804 525T834 373Q834 291 804 221T721 99T595 17T439 -12ZM439 128Q490
128 533 146T610 196T661 274T679 373Q679 427 661 471T610 549T534 599T439 617Q388 617 345 600T268 549T217 472T199 373Q199 319 217 274T268 197T344 146T439 128Z" />
<glyph unicode="&#xd9;" horiz-adv-x="724" d="M362 -12Q274 -12 205 25T97 126T57 273V745H212V283Q212 239 231 204T285 148T362 128Q406 128 439 148T492 203T512 283V745H667V273Q667 191 628 127T519 25T362 -12ZM289 839L185 1019H378L436 839H289Z" />
<glyph unicode="&#xda;" horiz-adv-x="724" d="M362 -12Q274 -12 205 25T97 126T57 273V745H212V283Q212 239 231 204T285 148T362 128Q406 128 439 148T492 203T512 283V745H667V273Q667 191 628 127T519 25T362 -12ZM288 839L346 1019H539L435 839H288Z" />
<glyph unicode="&#xdb;" horiz-adv-x="724" d="M362 -12Q274 -12 205 25T97 126T57 273V745H212V283Q212 239 231 204T285 148T362 128Q406 128 439 148T492 203T512 283V745H667V273Q667 191 628 127T519 25T362 -12ZM156 839L272 1009H451L568 839H424L362 929L300
839H156Z" />
<glyph unicode="&#xdc;" horiz-adv-x="724" d="M362 -12Q274 -12 205 25T97 126T57 273V745H212V283Q212 239 231 204T285 148T362 128Q406 128 439 148T492 203T512 283V745H667V273Q667 191 628 127T519 25T362 -12ZM172 839V989H322V839H172ZM402 839V989H552V839H402Z"
/>
<glyph unicode="&#xdd;" horiz-adv-x="672" d="M259 0V325L11 745H188L368 429H305L484 745H661L414 326V0H259ZM262 839L320 1019H513L409 839H262Z" />
<glyph unicode="&#xde;" horiz-adv-x="655" d="M60 0V745H215V610H346Q423 610 482 583T576 503T610 372Q610 296 576 243T482 163T346 135H215V0H60ZM215 270H347Q380 270 404 283T441 319T455 372Q455 403 442 426T404 462T347 475H215V270Z" />
<glyph unicode="&#xdf;" horiz-adv-x="654" d="M66 -160V490Q66 573 101 633T197 725T336 757Q413 757 470 730T558 653T590 539Q590 487 560 444T472 380L464 423Q549 396 585 351T621 232Q621 161 590 109T502 28T366 0H296V130H356Q405 130 435 158T466 232Q466
277 436 303T356 330H296V460H346Q372 460 392 470T423 500T435 542Q435 567 423 586T388 616T336 627Q300 627 273 611T231 565T216 490V-160H66Z" />
<glyph unicode="&#xe0;" horiz-adv-x="583" d="M224 -12Q165 -12 122 7T56 61T33 146Q33 192 54 227T118 287T227 321L394 348V238L254 213Q222 207 205 193T188 151Q188 126 207 112T254 98Q291 98 319 114T362 157T378 218V360Q378 391 354 412T287 433Q247
433 217 411T172 353L52 410Q68 456 103 489T187 540T294 558Q363 558 416 533T498 464T528 360V0H388V88L422 94Q398 58 369 35T304 0T224 -12ZM478 640L374 820H567L625 640H478Z" />
<glyph unicode="&#xe1;" horiz-adv-x="583" d="M224 -12Q165 -12 122 7T56 61T33 146Q33 192 54 227T118 287T227 321L394 348V238L254 213Q222 207 205 193T188 151Q188 126 207 112T254 98Q291 98 319 114T362 157T378 218V360Q378 391 354 412T287 433Q247
433 217 411T172 353L52 410Q68 456 103 489T187 540T294 558Q363 558 416 533T498 464T528 360V0H388V88L422 94Q398 58 369 35T304 0T224 -12ZM221 640L279 820H472L368 640H221Z" />
<glyph unicode="&#xe2;" horiz-adv-x="583" d="M224 -12Q165 -12 122 7T56 61T33 146Q33 192 54 227T118 287T227 321L394 348V238L254 213Q222 207 205 193T188 151Q188 126 207 112T254 98Q291 98 319 114T362 157T378 218V360Q378 391 354 412T287 433Q247
433 217 411T172 353L52 410Q68 456 103 489T187 540T294 558Q363 558 416 533T498 464T528 360V0H388V88L422 94Q398 58 369 35T304 0T224 -12ZM345 640L461 810H640L757 640H613L551 730L489 640H345Z" />
<glyph unicode="&#xe3;" horiz-adv-x="583" d="M224 -12Q165 -12 122 7T56 61T33 146Q33 192 54 227T118 287T227 321L394 348V238L254 213Q222 207 205 193T188 151Q188 126 207 112T254 98Q291 98 319 114T362 157T378 218V360Q378 391 354 412T287 433Q247
433 217 411T172 353L52 410Q68 456 103 489T187 540T294 558Q363 558 416 533T498 464T528 360V0H388V88L422 94Q398 58 369 35T304 0T224 -12ZM628 640Q600 640 581 648T548 666T521 684T490 692Q473 692 465 680T456 644H341Q341 731 380 770T473 810Q502 810
521 803T556 785T584 767T612 759Q632 759 639 771T646 806H761Q760 722 721 681T628 640Z" />
<glyph unicode="&#xe4;" horiz-adv-x="583" d="M224 -12Q165 -12 122 7T56 61T33 146Q33 192 54 227T118 287T227 321L394 348V238L254 213Q222 207 205 193T188 151Q188 126 207 112T254 98Q291 98 319 114T362 157T378 218V360Q378 391 354 412T287 433Q247
433 217 411T172 353L52 410Q68 456 103 489T187 540T294 558Q363 558 416 533T498 464T528 360V0H388V88L422 94Q398 58 369 35T304 0T224 -12ZM361 640V790H511V640H361ZM591 640V790H741V640H591Z" />
<glyph unicode="&#xe5;" horiz-adv-x="583" d="M224 -12Q165 -12 122 7T56 61T33 146Q33 192 54 227T118 287T227 321L394 348V238L254 213Q222 207 205 193T188 151Q188 126 207 112T254 98Q291 98 319 114T362 157T378 218V360Q378 391 354 412T287 433Q247
433 217 411T172 353L52 410Q68 456 103 489T187 540T294 558Q363 558 416 533T498 464T528 360V0H388V88L422 94Q398 58 369 35T304 0T224 -12ZM295 590Q239 590 202 625T165 716Q165 770 202 805T295 840Q351 840 387 805T424 716Q424 661 388 626T295 590ZM295
677Q312 677 322 688T333 716Q333 733 323 744T295 755Q278 755 267 744T256 716Q256 699 267 688T295 677Z" />
<glyph unicode="&#xe6;" horiz-adv-x="961" d="M224 -12Q165 -12 122 7T56 61T33 146Q33 192 54 227T118 287T227 321L378 345V360Q378 391 354 412T287 433Q247 433 217 411T172 353L52 410Q68 456 103 489T187 540T294 558Q365 558 418 532T500 460H446Q484
505 538 531T658 558Q723 558 773 538T857 480T910 395T928 289Q928 273 927 258T921 231H539Q544 197 560 172T605 132T670 118Q710 118 738 134T783 178L903 121Q887 81 854 51T777 5T688 -12Q622 -12 569 12T478 87L511 118V0H388V118L419 87Q395 53 366 31T302
-1T224 -12ZM254 98Q291 98 319 114T362 157T378 218V235L254 213Q222 207 205 193T188 151Q188 126 207 112T254 98ZM542 341H769Q766 370 752 392T713 426T658 438Q629 438 605 427T565 395T542 341Z" />
<glyph unicode="&#xe7;" horiz-adv-x="611" d="M323 -12Q241 -12 176 25T72 128T33 274Q33 355 71 419T175 521T323 558Q384 558 436 537T525 479T578 390L448 334Q434 375 401 399T323 423Q284 423 254 404T206 351T188 273Q188 229 205 195T253 142T323 123Q368
123 401 147T448 212L578 155Q563 107 526 69T437 10T323 -12ZM333 -240Q307 -240 274 -232T216 -208L247 -125Q262 -134 279 -139T313 -144Q335 -144 346 -136T358 -112Q358 -94 334 -83T265 -68L285 10H370L362 -28Q415 -33 446 -59T477 -124Q477 -177 438 -208T333
-240Z" />
<glyph unicode="&#xe8;" horiz-adv-x="611" d="M318 -12Q231 -12 167 26T68 130T33 274Q33 356 69 420T168 521T308 558Q373 558 423 538T507 480T560 395T578 289Q578 273 577 258T571 231H162V341H486L415 289Q425 332 414 365T376 418T308 438Q269 438 241
419T199 363T188 273Q184 227 199 192T245 138T320 118Q360 118 388 134T433 178L553 121Q537 81 503 51T421 5T318 -12ZM233 640L129 820H322L380 640H233Z" />
<glyph unicode="&#xe9;" horiz-adv-x="611" d="M318 -12Q231 -12 167 26T68 130T33 274Q33 356 69 420T168 521T308 558Q373 558 423 538T507 480T560 395T578 289Q578 273 577 258T571 231H162V341H486L415 289Q425 332 414 365T376 418T308 438Q269 438 241
419T199 363T188 273Q184 227 199 192T245 138T320 118Q360 118 388 134T433 178L553 121Q537 81 503 51T421 5T318 -12ZM232 640L290 820H483L379 640H232Z" />
<glyph unicode="&#xea;" horiz-adv-x="611" d="M318 -12Q231 -12 167 26T68 130T33 274Q33 356 69 420T168 521T308 558Q373 558 423 538T507 480T560 395T578 289Q578 273 577 258T571 231H162V341H486L415 289Q425 332 414 365T376 418T308 438Q269 438 241
419T199 363T188 273Q184 227 199 192T245 138T320 118Q360 118 388 134T433 178L553 121Q537 81 503 51T421 5T318 -12ZM356 640L472 810H651L768 640H624L562 730L500 640H356Z" />
<glyph unicode="&#xeb;" horiz-adv-x="611" d="M318 -12Q231 -12 167 26T68 130T33 274Q33 356 69 420T168 521T308 558Q373 558 423 538T507 480T560 395T578 289Q578 273 577 258T571 231H162V341H486L415 289Q425 332 414 365T376 418T308 438Q269 438 241
419T199 363T188 273Q184 227 199 192T245 138T320 118Q360 118 388 134T433 178L553 121Q537 81 503 51T421 5T318 -12ZM372 640V790H522V640H372ZM602 640V790H752V640H602Z" />
<glyph unicode="&#xec;" horiz-adv-x="238" d="M44 0V546H194V0H44ZM46 640L-58 820H135L193 640H46Z" />
<glyph unicode="&#xed;" horiz-adv-x="238" d="M44 0V546H194V0H44ZM301 640L359 820H552L448 640H301Z" />
<glyph unicode="&#xee;" horiz-adv-x="238" d="M44 0V546H194V0H44ZM-87 640L29 810H208L325 640H181L119 730L57 640H-87Z" />
<glyph unicode="&#xef;" horiz-adv-x="238" d="M44 0V546H194V0H44ZM-71 640V790H79V640H-71ZM159 640V790H309V640H159Z" />
<glyph unicode="&#xf0;" horiz-adv-x="651" d="M326 -12Q267 -12 214 8T121 66T57 156T33 270Q33 349 70 412T172 511T316 548Q352 548 380 540T432 516T482 476L459 436Q456 481 442 517T403 582T346 628T276 656T197 666Q173 666 149 663T99 651L84 771Q158
796 227 796Q298 796 358 772T467 705T548 603T600 477T618 335Q618 221 581 144T478 28T326 -12ZM326 123Q367 123 397 142T445 194T463 269Q463 310 447 342T400 394T326 413Q285 413 254 395T205 344T188 269Q188 226 206 193T255 142T326 123ZM215 555V615L569
753V693L215 555Z" />
<glyph unicode="&#xf1;" horiz-adv-x="599" d="M55 0V546H195V438L187 462Q206 511 248 534T348 558Q410 558 456 532T529 460T555 351V0H405V319Q405 351 393 374T358 410T305 423Q276 423 253 410T218 374T205 319V0H55ZM633 640Q605 640 586 648T553 666T526
684T495 692Q478 692 470 680T461 644H346Q346 731 385 770T478 810Q507 810 526 803T561 785T589 767T617 759Q637 759 644 771T651 806H766Q765 722 726 681T633 640Z" />
<glyph unicode="&#xf2;" horiz-adv-x="651" d="M326 -12Q245 -12 179 25T73 126T33 273Q33 356 72 420T178 521T326 558Q407 558 473 521T578 420T618 273Q618 191 579 127T473 25T326 -12ZM326 123Q367 123 397 142T445 195T463 273Q463 317 446 350T398 403T326
423Q285 423 254 404T206 351T188 273Q188 229 205 195T254 142T326 123ZM253 640L149 820H342L400 640H253Z" />
<glyph unicode="&#xf3;" horiz-adv-x="651" d="M326 -12Q245 -12 179 25T73 126T33 273Q33 356 72 420T178 521T326 558Q407 558 473 521T578 420T618 273Q618 191 579 127T473 25T326 -12ZM326 123Q367 123 397 142T445 195T463 273Q463 317 446 350T398 403T326
423Q285 423 254 404T206 351T188 273Q188 229 205 195T254 142T326 123ZM252 640L310 820H503L399 640H252Z" />
<glyph unicode="&#xf4;" horiz-adv-x="651" d="M326 -12Q245 -12 179 25T73 126T33 273Q33 356 72 420T178 521T326 558Q407 558 473 521T578 420T618 273Q618 191 579 127T473 25T326 -12ZM326 123Q367 123 397 142T445 195T463 273Q463 317 446 350T398 403T326
423Q285 423 254 404T206 351T188 273Q188 229 205 195T254 142T326 123ZM376 640L492 810H671L788 640H644L582 730L520 640H376Z" />
<glyph unicode="&#xf5;" horiz-adv-x="651" d="M326 -12Q245 -12 179 25T73 126T33 273Q33 356 72 420T178 521T326 558Q407 558 473 521T578 420T618 273Q618 191 579 127T473 25T326 -12ZM326 123Q367 123 397 142T445 195T463 273Q463 317 446 350T398 403T326
423Q285 423 254 404T206 351T188 273Q188 229 205 195T254 142T326 123ZM659 640Q631 640 612 648T579 666T552 684T521 692Q504 692 496 680T487 644H372Q372 731 411 770T504 810Q533 810 552 803T587 785T615 767T643 759Q663 759 670 771T677 806H792Q791
722 752 681T659 640Z" />
<glyph unicode="&#xf6;" horiz-adv-x="651" d="M326 -12Q245 -12 179 25T73 126T33 273Q33 356 72 420T178 521T326 558Q407 558 473 521T578 420T618 273Q618 191 579 127T473 25T326 -12ZM326 123Q367 123 397 142T445 195T463 273Q463 317 446 350T398 403T326
423Q285 423 254 404T206 351T188 273Q188 229 205 195T254 142T326 123ZM136 640V790H286V640H136ZM366 640V790H516V640H366Z" />
<glyph unicode="&#xf7;" horiz-adv-x="678" d="M89 188V313H589V188H89ZM264 0V118H414V0H264ZM264 382V500H414V382H264Z" />
<glyph unicode="&#xf8;" horiz-adv-x="651" d="M9 0L478 546H643L174 0H9ZM326 -12Q245 -12 179 25T73 126T33 273Q33 356 72 420T178 521T326 558Q407 558 473 521T578 420T618 273Q618 191 579 127T473 25T326 -12ZM326 123Q367 123 397 142T445 195T463 273Q463
317 446 350T398 403T326 423Q285 423 254 404T206 351T188 273Q188 229 205 195T254 142T326 123Z" />
<glyph unicode="&#xf9;" horiz-adv-x="599" d="M251 -12Q185 -12 139 16T68 96T44 215V546H194V227Q194 196 206 173T242 136T294 123Q324 123 346 136T381 172T394 227V546H544V0H404V108L412 84Q393 35 351 12T251 -12ZM483 640L379 820H572L630 640H483Z" />
<glyph unicode="&#xfa;" horiz-adv-x="599" d="M251 -12Q185 -12 139 16T68 96T44 215V546H194V227Q194 196 206 173T242 136T294 123Q324 123 346 136T381 172T394 227V546H544V0H404V108L412 84Q393 35 351 12T251 -12ZM226 640L284 820H477L373 640H226Z" />
<glyph unicode="&#xfb;" horiz-adv-x="599" d="M251 -12Q185 -12 139 16T68 96T44 215V546H194V227Q194 196 206 173T242 136T294 123Q324 123 346 136T381 172T394 227V546H544V0H404V108L412 84Q393 35 351 12T251 -12ZM350 640L466 810H645L762 640H618L556
730L494 640H350Z" />
<glyph unicode="&#xfc;" horiz-adv-x="599" d="M251 -12Q185 -12 139 16T68 96T44 215V546H194V227Q194 196 206 173T242 136T294 123Q324 123 346 136T381 172T394 227V546H544V0H404V108L412 84Q393 35 351 12T251 -12ZM366 640V790H516V640H366ZM596 640V790H746V640H596Z"
/>
<glyph unicode="&#xfd;" horiz-adv-x="602" d="M140 -222Q116 -222 94 -218T54 -205V-82Q68 -86 87 -89T122 -92Q166 -92 185 -71T216 -23L253 62L251 -63L11 546H172L331 113H271L430 546H591L357 -51Q335 -108 303 -146T231 -203T140 -222ZM227 640L285 820H478L374
640H227Z" />
<glyph unicode="&#xfe;" horiz-adv-x="673" d="M55 -200V745H195V442L182 472Q209 513 255 535T362 558Q440 558 503 520T603 418T640 273Q640 194 604 129T504 26T361 -12Q305 -12 258 8T181 69L205 100V-200H55ZM343 123Q385 123 417 142T467 195T485 273Q485
317 467 350T417 403T343 423Q303 423 272 404T223 351T205 273Q205 229 222 195T271 142T343 123Z" />
<glyph unicode="&#xff;" horiz-adv-x="602" d="M140 -222Q116 -222 94 -218T54 -205V-82Q68 -86 87 -89T122 -92Q166 -92 185 -71T216 -23L253 62L251 -63L11 546H172L331 113H271L430 546H591L357 -51Q335 -108 303 -146T231 -203T140 -222ZM367 640V790H517V640H367ZM597
640V790H747V640H597Z" />
<glyph unicode="&#x2013;" horiz-adv-x="684" d="M92 208V338H592V208H92Z" />
<glyph unicode="&#x2014;" horiz-adv-x="1014" d="M92 208V338H922V208H92Z" />
<glyph unicode="&#x2018;" horiz-adv-x="386" d="M110 452V539Q110 627 153 683T280 757V682Q245 674 223 653T193 602H260V452H110Z" />
<glyph unicode="&#x2019;" horiz-adv-x="386" d="M110 440V515Q145 523 167 544T197 595H130V745H280V658Q280 570 237 514T110 440Z" />
<glyph unicode="&#x201a;" horiz-adv-x="386" d="M110 -155V-80Q145 -72 167 -51T197 0H130V150H280V63Q280 -25 237 -81T110 -155Z" />
<glyph unicode="&#x201c;" horiz-adv-x="606" d="M330 452V539Q330 627 373 683T500 757V682Q465 674 443 653T413 602H480V452H330ZM110 452V539Q110 627 153 683T280 757V682Q245 674 223 653T193 602H260V452H110Z" />
<glyph unicode="&#x201d;" horiz-adv-x="606" d="M330 440V515Q365 523 387 544T417 595H350V745H500V658Q500 570 457 514T330 440ZM110 440V515Q145 523 167 544T197 595H130V745H280V658Q280 570 237 514T110 440Z" />
<glyph unicode="&#x201e;" horiz-adv-x="606" d="M110 -155V-80Q145 -72 167 -51T197 0H130V150H280V63Q280 -25 237 -81T110 -155ZM330 -155V-80Q365 -72 387 -51T417 0H350V150H500V63Q500 -25 457 -81T330 -155Z" />
<glyph unicode="&#x2022;" horiz-adv-x="698" d="M353 48Q289 48 239 77T159 157T129 272Q129 333 158 381T237 459T353 488Q414 488 462 459T539 381T569 272Q569 208 540 157T463 77T353 48Z" />
<glyph unicode="&#x2039;" horiz-adv-x="418" d="M204 69L50 269L204 469H367L215 269L367 69H204Z" />
<glyph unicode="&#x203a;" horiz-adv-x="418" d="M51 69L203 269L51 469H214L368 269L214 69H51Z" />
</font>
</defs>
</svg>
