<?xml version="1.0" standalone="no"?>
<!DOCTYPE svg PUBLIC "-//W3C//DTD SVG 1.1//EN" "http://www.w3.org/Graphics/SVG/1.1/DTD/svg11.dtd">
<svg xmlns="http://www.w3.org/2000/svg">
<defs >
<font id="PlusJakartaSans" horiz-adv-x="587" ><font-face
    font-family="Plus Jakarta Sans Medium"
    units-per-em="1000"
    panose-1="0 0 0 0 0 0 0 0 0 0"
    ascent="1038"
    descent="-222"
    alphabetic="0" />
<glyph unicode=" " horiz-adv-x="173" />
<glyph unicode="!" horiz-adv-x="312" d="M107 218L174 745H271L192 218H107ZM70 0L86 120H184L167 0H70Z" />
<glyph unicode="&quot;" horiz-adv-x="429" d="M135 505L154 745H246L200 505H135ZM297 505L316 745H408L362 505H297Z" />
<glyph unicode="#" horiz-adv-x="832" d="M77 0L155 185H35L47 270H191L280 476H160L172 561H316L395 745H492L414 561H609L687 745H784L706 561H826L814 476H670L581 270H701L689 185H545L467 0H369L447 185H253L174 0H77ZM289 270H484L572 476H377L289 270Z" />
<glyph unicode="$" horiz-adv-x="648" d="M316 -12Q246 -12 189 13T92 85T39 193L127 223Q145 151 195 114T320 76Q370 76 405 92T459 138T478 202Q478 241 455 266T385 306L255 348Q182 371 144 419T106 534Q106 595 138 646T226 727T356 757Q423 757 475 733T562
667T609 574L523 543Q508 603 464 636T355 669Q311 669 277 653T223 609T204 542Q204 506 226 478T298 434L416 396Q497 370 537 322T577 208Q577 149 545 99T454 19T316 -12ZM237 -100L369 845H445L313 -100H237Z" />
<glyph unicode="%" horiz-adv-x="1025" d="M119 0L831 745H942L230 0H119ZM283 367Q231 367 190 391T124 456T100 548Q100 605 128 652T204 728T310 757Q361 757 402 733T467 668T491 576Q491 520 463 472T387 396T283 367ZM288 449Q320 449 347 466T390 510T406
570Q406 597 394 621T358 661T304 676Q272 676 245 659T202 614T185 554Q185 527 198 503T234 464T288 449ZM745 -12Q693 -12 652 12T586 77T562 169Q562 226 591 273T668 349T773 378Q824 378 865 354T929 289T953 197Q953 141 925 93T849 17T745 -12ZM751 70Q783
70 809 86T852 131T868 191Q868 218 856 242T821 281T767 297Q735 297 708 280T665 235T648 175Q648 148 661 124T697 85T751 70Z" />
<glyph unicode="&amp;" horiz-adv-x="762" d="M253 -12Q195 -12 150 9T78 71T51 169Q51 214 66 249T107 312T164 360T226 399L303 442Q351 469 379 494T420 544T433 594Q433 629 412 650T355 672Q325 672 301 658T263 619T249 566Q249 541 259 518T285 473T316
432L677 0H555L240 375Q221 398 201 425T168 486T155 559Q155 613 181 658T254 730T357 757Q407 757 444 737T503 680T525 597Q525 546 503 506T443 435T361 378L282 332Q251 314 221 293T173 242T154 172Q154 125 183 100T258 75Q294 75 321 86T369 116T409 156T443
199L577 368H685L530 160Q511 135 486 106T428 49T351 5T253 -12Z" />
<glyph unicode="&apos;" horiz-adv-x="267" d="M135 505L154 745H246L200 505H135Z" />
<glyph unicode="(" horiz-adv-x="340" d="M175 -150Q115 -72 85 21T54 220Q54 319 78 412T151 591T269 745H349Q289 670 245 585T176 408T152 221Q152 123 178 30T255 -150H175Z" />
<glyph unicode=")" horiz-adv-x="340" d="M-2 -150Q60 -72 104 13T171 190T195 376Q195 473 169 566T92 745H172Q234 666 264 573T294 377Q294 279 269 186T197 7T78 -150H-2Z" />
<glyph unicode="*" horiz-adv-x="499" d="M182 377L123 424L220 533L103 575L139 652L257 611L275 745H357L338 611L467 652L481 575L353 533L419 424L347 377L280 486L182 377Z" />
<glyph unicode="+" horiz-adv-x="625" d="M232 0L261 207H54L66 294H273L302 500H390L361 294H566L554 207H349L320 0H232Z" />
<glyph unicode="," horiz-adv-x="299" d="M30 -139L36 -97Q69 -89 89 -65T119 0H70L87 120H184L171 25Q162 -40 126 -82T30 -139Z" />
<glyph unicode="-" horiz-adv-x="532" d="M73 227L85 312H460L448 227H73Z" />
<glyph unicode="." horiz-adv-x="317" d="M72 0L89 120H187L169 0H72Z" />
<glyph unicode="/" horiz-adv-x="460" d="M-48 -120L404 705H515L63 -120H-48Z" />
<glyph unicode="0" horiz-adv-x="727" d="M342 -12Q261 -12 202 28T111 141T79 312Q79 400 101 480T167 622T273 720T414 757Q495 757 554 717T645 605T677 435Q677 347 655 267T590 125T485 25T342 -12ZM344 79Q403 79 447 110T520 194T563 309T578 436Q578 542
534 604T411 666Q354 666 310 636T237 554T192 440T177 311Q177 240 197 188T254 108T344 79Z" />
<glyph unicode="1" horiz-adv-x="382" d="M140 0L233 660H92L104 745H344L240 0H140Z" />
<glyph unicode="2" horiz-adv-x="619" d="M37 0L44 68L273 291Q325 343 362 380T423 446T458 502T469 562Q469 612 438 641T350 670Q291 670 246 635T177 536L90 563Q109 623 147 666T238 733T353 757Q415 757 464 734T540 669T568 569Q568 530 556 496T521 428T466
359T391 285L182 85H536L525 0H37Z" />
<glyph unicode="3" horiz-adv-x="610" d="M268 -12Q208 -12 158 9T73 68T26 160L112 194Q127 138 170 107T273 76Q324 76 362 96T423 154T446 239Q446 283 428 314T377 363T301 380Q286 380 269 378T237 370L222 417L446 660H115L126 745H573L563 663L349 429L339
455Q403 455 449 426T520 349T545 240Q545 185 524 139T464 60T376 7T268 -12Z" />
<glyph unicode="4" horiz-adv-x="639" d="M372 0L396 172H29L40 253L474 745H569L500 253H596L584 172H488L465 0H372ZM113 218L102 253H408L465 663L496 655L113 218Z" />
<glyph unicode="5" horiz-adv-x="615" d="M273 -12Q213 -12 163 8T79 67T33 158L116 192Q131 137 175 107T276 76Q326 76 365 100T428 164T451 253Q451 295 433 327T383 377T310 395Q255 395 217 374T157 321L79 338L193 746H573L563 661H218L263 699L176 382L147
399Q184 446 229 463T329 481Q396 481 445 451T522 369T550 256Q550 198 528 150T468 65T380 8T273 -12Z" />
<glyph unicode="6" horiz-adv-x="600" d="M273 -12Q207 -12 156 16T77 93T49 207Q49 258 64 304T107 393T167 474L402 745H525L233 411L210 413Q228 434 247 445T287 460T333 465Q393 465 440 439T516 364T544 253Q544 179 508 119T410 23T273 -12ZM278 76Q324
76 361 99T422 161T445 248Q445 307 409 343T314 380Q268 380 230 357T170 296T147 208Q147 149 183 113T278 76Z" />
<glyph unicode="7" horiz-adv-x="550" d="M34 0L456 661H95L106 746H574L563 661L146 0H34Z" />
<glyph unicode="8" horiz-adv-x="631" d="M290 -12Q219 -12 166 14T82 88T52 194Q52 246 74 291T135 369T225 418L220 393Q174 412 149 452T124 544Q124 602 155 650T241 728T363 757Q422 757 467 735T538 674T564 582Q564 540 547 503T501 437T434 392V418Q496
397 530 350T564 236Q564 169 529 113T433 22T290 -12ZM293 73Q344 73 382 93T443 150T465 232Q465 291 427 325T323 359Q272 359 233 338T173 282T151 201Q151 143 189 108T293 73ZM332 444Q371 444 400 461T447 507T464 571Q464 617 434 644T356 672Q318 672
288 656T241 611T223 546Q223 501 253 473T332 444Z" />
<glyph unicode="9" horiz-adv-x="601" d="M105 0L397 335L420 332Q403 312 384 301T343 285T297 280Q237 280 190 306T114 381T86 492Q86 567 122 627T220 722T357 757Q424 757 474 730T553 653T581 538Q581 487 566 441T523 352T463 272L228 0H105ZM316 366Q363
366 400 388T460 450T483 537Q483 596 447 633T352 670Q307 670 269 647T208 585T185 497Q185 438 221 402T316 366Z" />
<glyph unicode=":" horiz-adv-x="317" d="M72 0L89 120H186L169 0H72ZM130 419L148 539H245L228 419H130Z" />
<glyph unicode=";" horiz-adv-x="337" d="M52 -139L58 -97Q91 -89 111 -65T140 0H91L109 120H206L193 25Q184 -40 148 -82T52 -139ZM150 419L168 539H265L248 419H150Z" />
<glyph unicode="&lt;" horiz-adv-x="625" d="M509 30L110 226L122 314L576 509L562 407L191 249L192 284L521 122L509 30Z" />
<glyph unicode="=" horiz-adv-x="625" d="M95 321L107 409H557L545 321H95ZM61 84L74 171H524L511 84H61Z" />
<glyph unicode="&gt;" horiz-adv-x="625" d="M49 30L63 132L434 290L433 255L104 417L116 509L515 313L503 225L49 30Z" />
<glyph unicode="?" horiz-adv-x="528" d="M200 218L202 231Q216 297 245 343T318 428Q342 451 366 472T405 519T421 576Q421 614 394 642T314 670Q263 670 224 638T171 553L84 573Q97 628 131 669T213 734T321 757Q383 757 427 733T496 669T520 582Q520 536 500
500T449 434T388 376Q353 344 330 309T296 229L294 218H200ZM170 0L188 120H285L268 0H170Z" />
<glyph unicode="@" horiz-adv-x="930" d="M446 -211Q360 -211 288 -182T164 -100T82 23T53 177Q53 270 85 350T177 493T318 590T498 626Q587 626 659 596T784 512T864 390T892 241Q892 169 869 115T806 30T710 0Q677 0 647 12T599 48T577 107L594 82Q579 55 554
37T499 10T435 0Q379 0 336 25T268 95T243 197Q243 260 272 312T353 397T467 429Q516 429 556 410T616 356L605 336L618 419H691L656 166Q651 134 659 115T682 87T714 79Q757 79 781 120T806 233Q806 325 769 395T663 506T500 546Q422 546 356 518T241 440T166
325T139 185Q139 93 178 22T289 -90T454 -131Q499 -131 542 -121T622 -90L653 -159Q608 -184 556 -197T446 -211ZM446 79Q485 79 516 99T565 152T584 226Q584 280 551 314T465 349Q425 349 394 330T345 277T327 205Q327 150 361 115T446 79Z" />
<glyph unicode="A" horiz-adv-x="672" d="M-27 0L344 745H460L623 0H522L485 175H168L83 0H-27ZM212 265H467L382 673L410 670L212 265Z" />
<glyph unicode="B" horiz-adv-x="699" d="M45 0L149 745H450Q543 745 595 698T648 569Q648 529 634 494T593 431T527 386L523 417Q583 393 613 347T643 244Q643 172 609 117T515 31T373 0H45ZM156 90H387Q433 90 469 108T524 160T544 237Q544 288 509 319T414
351H193L156 90ZM205 439H416Q455 439 484 455T531 500T548 565Q548 608 519 632T439 656H236L205 439Z" />
<glyph unicode="C" horiz-adv-x="794" d="M416 -12Q344 -12 282 12T174 84T102 196T76 344Q76 430 105 505T186 636T310 725T464 757Q544 757 604 730T704 659T759 567L666 528Q644 590 593 628T462 666Q400 666 348 642T256 574T196 472T174 344Q174 264 204
205T290 112T417 79Q497 79 555 118T644 219L732 175Q710 127 665 84T557 15T416 -12Z" />
<glyph unicode="D" horiz-adv-x="744" d="M45 0L149 745H381Q484 745 559 703T676 586T718 413Q718 323 690 248T609 117T480 31T311 0H45ZM156 90H313Q381 90 436 113T531 178T594 279T616 407Q616 483 587 539T503 625T372 655H236L156 90Z" />
<glyph unicode="E" horiz-adv-x="607" d="M45 0L149 745H635L622 655H236L202 419H569L557 329H190L156 90H543L531 0H45Z" />
<glyph unicode="F" horiz-adv-x="583" d="M45 0L149 745H622L610 655H236L202 414H540L528 324H189L144 0H45Z" />
<glyph unicode="G" horiz-adv-x="823" d="M414 -12Q342 -12 281 13T173 85T102 197T76 344Q76 432 106 507T190 638T314 726T467 757Q545 757 605 730T704 660T759 568L668 525Q647 590 594 628T462 666Q398 666 346 642T255 574T195 472T174 348Q174 266 205
206T293 113T423 79Q491 79 546 108T637 188T680 306L686 352L726 310H436L445 395H788L781 324Q774 248 743 186T661 80T548 12T414 -12Z" />
<glyph unicode="H" horiz-adv-x="736" d="M45 0L149 745H248L202 413H574L621 745H719L615 0H517L562 323H189L144 0H45Z" />
<glyph unicode="I" horiz-adv-x="265" d="M45 0L149 745H248L144 0H45Z" />
<glyph unicode="J" horiz-adv-x="386" d="M12 0L25 95H59Q115 95 153 126T198 212L273 745H371L296 206Q288 145 257 99T175 26T59 0H12Z" />
<glyph unicode="K" horiz-adv-x="663" d="M45 0L149 745H248L189 326L164 336L577 745H703L355 400L370 470L614 0H504L315 359L174 220L144 0H45Z" />
<glyph unicode="L" horiz-adv-x="536" d="M45 0L149 745H248L156 90H483L470 0H45Z" />
<glyph unicode="M" horiz-adv-x="856" d="M45 0L149 745H239L461 344L406 346L748 745H839L735 0H637L723 620L757 609L425 220H417L198 619L231 620L144 0H45Z" />
<glyph unicode="N" horiz-adv-x="738" d="M45 0L149 745H232L569 143L538 139L623 745H722L618 0H535L200 606L229 610L144 0H45Z" />
<glyph unicode="O" horiz-adv-x="881" d="M431 -12Q355 -12 291 14T178 88T103 201T76 346Q76 432 106 506T191 637T319 725T478 757Q555 757 620 731T733 657T808 544T835 400Q835 314 804 240T718 109T590 20T431 -12ZM432 79Q497 79 552 104T649 174T713 275T736
398Q736 474 704 534T614 630T478 666Q413 666 358 641T261 571T197 470T174 348Q174 272 207 211T297 115T432 79Z" />
<glyph unicode="P" horiz-adv-x="644" d="M45 0L149 745H401Q470 745 521 719T600 643T628 526Q628 457 595 402T501 316T360 285H184L144 0H45ZM197 375H366Q414 375 450 395T508 449T529 528Q529 587 493 621T395 655H236L197 375Z" />
<glyph unicode="Q" horiz-adv-x="881" d="M431 -12Q355 -12 291 14T178 88T103 201T76 346Q76 432 106 506T191 637T319 725T478 757Q555 757 620 731T733 657T808 544T835 400Q835 314 804 240T718 109T590 20T431 -12ZM432 79Q497 79 552 104T649 174T713 275T736
398Q736 474 704 534T614 630T478 666Q413 666 358 641T261 571T197 470T174 348Q174 272 207 211T297 115T432 79ZM595 -90L396 298H498L698 -90H595Z" />
<glyph unicode="R" horiz-adv-x="651" d="M45 0L149 745H401Q470 745 521 719T600 643T628 526Q628 471 607 425T547 347T454 298L583 0H475L337 325L397 285H184L144 0H45ZM197 375H366Q414 375 450 395T508 449T529 528Q529 587 493 621T395 655H236L197 375Z" />
<glyph unicode="S" horiz-adv-x="648" d="M316 -12Q246 -12 189 13T92 85T39 193L127 223Q145 151 195 114T320 76Q370 76 405 92T459 138T478 202Q478 241 455 266T385 306L255 348Q182 371 144 419T106 534Q106 595 138 646T226 727T356 757Q423 757 475 733T562
667T609 574L523 543Q508 603 464 636T355 669Q311 669 277 653T223 609T204 542Q204 506 226 478T298 434L416 396Q497 370 537 322T577 208Q577 149 545 99T454 19T316 -12Z" />
<glyph unicode="T" horiz-adv-x="523" d="M176 0L267 655H66L78 745H578L566 655H366L274 0H176Z" />
<glyph unicode="U" horiz-adv-x="706" d="M323 -12Q240 -12 181 22T94 117T76 253L145 745H244L176 252Q169 201 185 162T239 101T328 79Q380 79 422 101T493 162T528 254L597 745H695L625 248Q615 172 574 114T468 22T323 -12Z" />
<glyph unicode="V" horiz-adv-x="667" d="M242 0L78 745H179L315 90H293L612 745H723L350 0H242Z" />
<glyph unicode="W" horiz-adv-x="996" d="M183 0L78 745H178L262 89H235L513 745H614L705 89H675L947 745H1052L739 0H630L539 653H567L292 0H183Z" />
<glyph unicode="X" horiz-adv-x="619" d="M-27 0L269 381L86 745H191L354 419L308 422L547 745H667L384 371L570 0H465L300 332L347 327L91 0H-27Z" />
<glyph unicode="Y" horiz-adv-x="635" d="M231 0L279 341L78 745H183L352 404L312 407L573 745H691L379 341L331 0H231Z" />
<glyph unicode="Z" horiz-adv-x="581" d="M-18 0L-8 72L470 655H98L110 745H618L609 673L129 90H536L523 0H-18Z" />
<glyph unicode="[" horiz-adv-x="349" d="M35 -150L160 745H380L369 660H247L144 -65H267L255 -150H35Z" />
<glyph unicode="\" horiz-adv-x="451" d="M287 -120L67 705H169L389 -120H287Z" />
<glyph unicode="]" horiz-adv-x="349" d="M-23 -150L-11 -65H111L213 660H91L102 745H322L197 -150H-23Z" />
<glyph unicode="^" horiz-adv-x="625" d="M121 423L335 745H423L548 423H447L354 670H395L232 423H121Z" />
<glyph unicode="_" horiz-adv-x="620" d="M29 -85L41 0H503L491 -85H29Z" />
<glyph unicode="`" horiz-adv-x="362" d="M272 640L184 798H309L366 640H272Z" />
<glyph unicode="a" horiz-adv-x="576" d="M206 -12Q160 -12 121 4T57 53T33 135Q33 182 56 218T123 278T226 311L430 344L422 266L242 235Q191 226 161 202T131 140Q131 106 156 87T223 67Q270 67 308 89T372 148T404 231L421 359Q427 395 412 418T371 453T314
465Q265 465 227 440T167 377L89 424Q109 461 143 489T223 534T320 551Q380 551 427 526T499 457T516 355L466 0H374L388 102L408 93Q387 61 356 38T287 1T206 -12Z" />
<glyph unicode="b" horiz-adv-x="668" d="M332 -12Q264 -12 209 18T126 100L142 115L127 0H34L140 757H235L188 423L160 447Q194 496 247 523T366 551Q441 551 498 516T586 422T618 289Q618 228 597 174T536 77T445 12T332 -12ZM326 78Q382 78 425 107T493 183T519
288Q519 338 498 377T441 438T354 461Q299 461 256 433T188 357T163 254Q163 203 184 163T242 101T326 78Z" />
<glyph unicode="c" horiz-adv-x="615" d="M303 -12Q229 -12 172 22T83 116T51 251Q51 314 73 368T134 464T226 528T339 551Q393 551 438 533T517 481T564 405L479 367Q464 409 427 435T339 461Q284 461 241 432T174 354T150 251Q150 201 170 162T226 101T308 78Q360
78 401 105T465 176L546 131Q525 89 489 57T405 7T303 -12Z" />
<glyph unicode="d" horiz-adv-x="669" d="M300 -12Q227 -12 170 21T82 113T50 247Q50 311 71 366T132 463T224 527T338 551Q409 551 460 522T540 442L524 423L570 757H665L560 0H468L483 115L508 100Q477 46 421 17T300 -12ZM310 78Q365 78 409 107T479 183T505
287Q505 337 484 376T426 438T341 461Q286 461 242 432T174 355T149 249Q149 200 169 162T226 101T310 78Z" />
<glyph unicode="e" horiz-adv-x="616" d="M305 -12Q230 -12 173 22T84 115T51 251Q51 312 71 366T130 462T219 527T331 551Q407 551 460 517T541 429T569 310Q569 293 566 274T560 242H118L123 322H512L465 287Q478 338 463 378T413 443T330 468Q269 468 229 439T168
357T147 236Q147 186 168 149T226 93T306 73Q361 73 400 98T465 163L542 121Q523 84 488 54T406 6T305 -12Z" />
<glyph unicode="f" horiz-adv-x="401" d="M91 0L154 450H51L64 539H167L172 572Q181 633 211 674T284 736T377 757Q391 757 405 756T429 752L423 669Q415 671 405 671T390 672Q342 672 308 649T265 567L261 539H389L376 450H248L186 0H91Z" />
<glyph unicode="g" horiz-adv-x="660" d="M269 -220Q209 -220 162 -202T85 -151T42 -76L130 -44Q140 -80 176 -105T277 -130Q320 -130 359 -114T425 -65T458 15L476 144L502 125Q471 70 417 42T298 13Q230 13 174 44T85 132T52 263Q52 323 73 375T132 467T222
528T333 551Q400 551 452 522T533 442L517 419L533 539H626L553 12Q544 -57 504 -109T403 -191T269 -220ZM308 103Q361 103 403 130T471 201T497 296Q497 343 477 380T422 439T338 461Q288 461 245 435T177 366T151 266Q151 220 171 183T227 125T308 103Z" />
<glyph unicode="h" horiz-adv-x="580" d="M34 0L140 757H234L189 434L173 445Q199 496 247 523T352 551Q411 551 454 523T517 447T529 336L482 0H387L433 328Q441 389 411 425T326 461Q288 461 256 444T201 394T173 318L129 0H34Z" />
<glyph unicode="i" horiz-adv-x="239" d="M34 0L110 539H204L129 0H34ZM122 625L138 745H233L217 625H122Z" />
<glyph unicode="j" horiz-adv-x="240" d="M-78 -220Q-88 -220 -103 -219T-127 -215L-120 -133Q-109 -134 -100 -134T-82 -135Q-39 -135 -8 -111T31 -40L112 539H207L125 -45Q116 -102 88 -141T17 -200T-78 -220ZM124 625L141 745H236L219 625H124Z" />
<glyph unicode="k" horiz-adv-x="557" d="M34 0L140 757H234L162 238L116 247L443 539H570L332 322L508 0H404L242 292L296 295L115 131L156 199L128 0H34Z" />
<glyph unicode="l" horiz-adv-x="239" d="M34 0L140 757H235L129 0H34Z" />
<glyph unicode="m" horiz-adv-x="914" d="M34 0L110 539H201L187 433L176 449Q204 500 248 525T347 551Q411 551 456 516T515 422H487Q517 488 571 519T688 551Q745 551 787 524T850 449T863 339L816 0H722L767 328Q773 369 762 398T726 444T665 461Q630 461 598
445T545 399T517 327L472 0H378L424 328Q429 369 418 398T382 444T321 461Q285 461 253 444T200 394T172 318L128 0H34Z" />
<glyph unicode="n" horiz-adv-x="580" d="M34 0L110 539H201L187 434L173 445Q199 496 247 523T352 551Q411 551 454 523T517 447T529 336L482 0H388L434 328Q442 389 412 425T326 461Q287 461 255 444T201 394T172 318L128 0H34Z" />
<glyph unicode="o" horiz-adv-x="657" d="M314 -12Q240 -12 181 22T86 116T51 254Q51 316 73 369T136 464T229 528T344 551Q419 551 478 517T573 424T608 287Q608 225 585 171T521 76T427 11T314 -12ZM313 78Q369 78 413 107T483 183T509 288Q509 338 488 377T430
438T344 461Q290 461 246 433T176 357T150 252Q150 202 171 163T229 101T313 78Z" />
<glyph unicode="p" horiz-adv-x="668" d="M6 -200L110 539H202L186 423L160 447Q194 496 247 523T366 551Q441 551 498 516T586 422T618 289Q618 228 597 174T536 77T445 12T332 -12Q264 -12 209 18T126 100L146 115L103 -200H6ZM326 78Q382 78 425 107T493 183T519
288Q519 338 498 377T441 438T354 461Q299 461 256 433T188 357T163 254Q163 203 184 163T242 101T326 78Z" />
<glyph unicode="q" horiz-adv-x="670" d="M439 -200L481 115L508 100Q477 46 421 17T300 -12Q227 -12 170 21T82 113T50 247Q50 311 71 366T132 463T224 527T338 551Q409 551 460 522T540 442L526 423L542 539H635L533 -200H439ZM310 78Q365 78 409 107T479 183T505
287Q505 337 484 376T426 438T341 461Q286 461 242 432T174 355T149 249Q149 200 169 162T226 101T310 78Z" />
<glyph unicode="r" horiz-adv-x="350" d="M34 0L110 539H202L188 440L179 454Q205 500 247 522T345 545H378L365 457H318Q261 457 222 421T172 311L129 0H34Z" />
<glyph unicode="s" horiz-adv-x="511" d="M236 -12Q183 -12 139 6T63 59T20 138L97 169Q115 122 153 95T242 68Q290 68 319 91T349 150Q349 176 330 192T277 218L198 240Q137 257 105 293T72 381Q72 428 99 466T171 528T272 551Q346 551 399 514T469 412L391 381Q377
424 345 447T268 470Q223 470 195 448T167 392Q167 366 183 350T233 324L318 298Q379 280 411 244T444 156Q444 109 417 71T343 11T236 -12Z" />
<glyph unicode="t" horiz-adv-x="399" d="M258 -6Q178 -6 140 40T113 169L152 450H55L67 539H85Q121 539 146 562T176 621L182 663H277L260 539H379L366 450H247L207 166Q203 139 208 120T230 90T279 79Q288 79 298 80T318 82L311 -1Q298 -5 283 -5T258 -6Z" />
<glyph unicode="u" horiz-adv-x="581" d="M229 -12Q169 -12 126 16T64 95T53 215L99 539H193L146 211Q141 171 153 141T191 95T255 78Q294 78 326 95T380 145T408 221L453 539H546L471 0H380L394 105L408 94Q382 42 335 15T229 -12Z" />
<glyph unicode="v" horiz-adv-x="533" d="M183 0L49 539H148L253 83H218L452 539H560L272 0H183Z" />
<glyph unicode="w" horiz-adv-x="826" d="M158 0L49 539H147L231 88L195 89L405 539H493L574 89L538 88L748 539H853L592 0H503L425 450H456L247 0H158Z" />
<glyph unicode="x" horiz-adv-x="513" d="M-27 0L202 274L56 539H161L286 309L235 312L421 539H540L314 267L462 0H357L231 230L276 227L90 0H-27Z" />
<glyph unicode="y" horiz-adv-x="553" d="M36 -220Q17 -220 -1 -217T-35 -207L-28 -125Q-17 -127 -2 -129T28 -132Q61 -132 83 -122T124 -91T162 -38L209 41L198 -40L49 539H147L261 79H227L474 539H580L252 -66Q229 -110 198 -145T127 -200T36 -220Z" />
<glyph unicode="z" horiz-adv-x="461" d="M-18 0L-8 79L365 482L381 450H61L74 539H477L467 460L96 57L81 89H416L404 0H-18Z" />
<glyph unicode="{" horiz-adv-x="345" d="M213 -150Q142 -150 106 -110T78 -2L105 185Q109 216 97 234T54 253H25L37 338H66Q96 338 114 356T136 406L162 598Q172 665 220 705T338 745H376L364 660H326Q300 660 282 643T260 597L235 413Q231 377 213 347T166 296Q189
277 198 247T202 183L175 -1Q172 -29 184 -47T225 -65H263L251 -150H213Z" />
<glyph unicode="|" horiz-adv-x="333" d="M53 -190L199 845H296L150 -190H53Z" />
<glyph unicode="}" horiz-adv-x="344" d="M-23 -150L-11 -65H27Q54 -65 72 -48T94 -1L118 183Q123 217 140 247T186 296Q164 316 155 346T151 413L177 597Q182 626 169 643T129 660H91L102 745H140Q211 745 248 705T275 598L248 406Q244 375 256 357T298 338H327L315
253H286Q257 253 239 235T217 185L190 -2Q181 -70 134 -110T15 -150H-23Z" />
<glyph unicode="~" horiz-adv-x="625" d="M407 210Q373 210 351 220T311 244T277 268T237 279Q208 279 187 261T156 211H76Q85 282 128 322T228 362Q262 362 285 352T324 328T358 304T398 293Q424 293 444 310T474 361H554Q546 290 505 250T407 210Z" />
<glyph unicode="&#xa0;" horiz-adv-x="173" />
<glyph unicode="&#xa1;" horiz-adv-x="312" d="M41 -206L121 321H206L139 -206H41ZM129 419L145 539H243L226 419H129Z" />
<glyph unicode="&#xa2;" horiz-adv-x="614" d="M317 92Q243 92 186 126T97 219T65 355Q65 418 87 472T148 568T240 631T353 654Q407 654 452 636T531 585T578 508L493 471Q478 513 441 538T353 564Q298 564 255 535T188 458T164 355Q164 304 184 265T240 204T322
182Q374 182 415 209T479 280L560 235Q539 193 503 161T419 111T317 92ZM243 0L348 745H424L319 0H243Z" />
<glyph unicode="&#xa3;" horiz-adv-x="651" d="M5 0L16 85H116L180 534Q189 602 224 651T316 729T443 757Q505 757 552 733T625 665T651 561L560 545Q562 607 529 638T440 670Q374 670 331 632T279 529L216 85H549L538 0H5ZM52 343L62 414H435L425 343H52Z" />
<glyph unicode="&#xa4;" horiz-adv-x="604" d="M89 24L37 82L122 158Q110 178 104 201T98 248Q98 283 110 317T145 380L76 457L140 515L209 438Q236 454 265 463T323 472Q352 472 380 463T430 438L515 515L567 457L482 380Q494 358 500 336T506 290Q506 255 494
221T459 158L528 82L464 24L395 100Q370 85 341 76T281 66Q253 66 225 74T174 100L89 24ZM290 156Q324 156 352 173T398 219T416 281Q416 310 403 333T366 369T314 383Q280 383 251 366T205 320T187 257Q187 229 200 206T237 169T290 156Z" />
<glyph unicode="&#xa5;" horiz-adv-x="635" d="M231 0L279 341L78 745H183L352 404L312 407L573 745H691L379 341L331 0H231ZM135 302L145 373H518L508 302H135ZM114 150L124 222H496L487 150H114Z" />
<glyph unicode="&#xa6;" horiz-adv-x="333" d="M140 428L199 845H296L237 428H140ZM53 -190L112 228H209L150 -190H53Z" />
<glyph unicode="&#xa7;" horiz-adv-x="530" d="M229 -102Q145 -102 86 -61T8 53L88 89Q108 38 147 9T237 -21Q271 -21 297 -9T340 23T356 69Q356 91 344 105T313 128T277 142L194 167Q127 187 95 223T63 308Q63 359 91 400T168 466T277 491L269 433Q238 433 214
420T176 385T162 332Q162 308 173 292T202 267T236 252L323 226Q385 207 418 169T452 80Q452 28 423 -13T344 -78T229 -102ZM257 164L263 220Q297 220 324 234T367 271T383 325Q383 349 371 365T340 393T301 409L222 433Q154 453 123 490T91 574Q91 625 119 666T196
732T305 757Q378 757 434 720T507 615L427 578Q412 623 376 648T294 674Q264 674 240 663T203 633T189 588Q189 566 200 553T228 532T260 519L350 492Q412 473 446 435T480 346Q480 294 451 253T372 188T257 164Z" />
<glyph unicode="&#xa8;" horiz-adv-x="469" d="M162 640L177 753H290L274 640H162ZM354 640L370 753H482L467 640H354Z" />
<glyph unicode="&#xa9;" horiz-adv-x="912" d="M447 -12Q370 -12 304 15T189 92T112 206T85 348Q85 432 117 506T207 636T338 724T496 757Q573 757 638 730T753 653T829 538T856 398Q856 313 824 239T734 109T603 20T447 -12ZM447 66Q515 66 574 91T680 163T752
269T779 398Q779 458 758 509T698 598T608 658T495 680Q427 680 367 654T261 583T189 477T163 348Q163 268 200 204T301 103T447 66ZM464 163Q408 163 365 188T297 258T272 359Q272 424 301 474T379 553T489 582Q533 582 567 567T625 528T656 474L584 445Q575 472
551 491T489 510Q450 510 419 491T371 437T353 357Q353 303 383 270T465 236Q502 236 530 255T572 303L643 269Q630 240 605 216T543 178T464 163Z" />
<glyph unicode="&#xaa;" horiz-adv-x="452" d="M203 359Q150 359 114 385T78 463Q78 498 96 524T146 566T219 588L351 610L345 544L231 524Q204 519 185 505T166 468Q166 447 181 436T221 424Q250 424 274 438T313 475T333 525L345 620Q350 651 328 666T278 682Q246
682 221 666T182 622L114 661Q135 704 181 729T284 755Q328 755 363 738T416 689T429 615L395 367H314L323 435L344 432Q319 396 283 378T203 359Z" />
<glyph unicode="&#xab;" horiz-adv-x="592" d="M159 77L34 269L215 462H329L142 259L260 77H159ZM414 77L289 269L470 462H584L397 259L515 77H414Z" />
<glyph unicode="&#xac;" horiz-adv-x="625" d="M443 40L467 207H54L66 294H566L531 40H443Z" />
<glyph unicode="&#xad;" horiz-adv-x="532" d="M73 227L85 312H460L448 227H73Z" />
<glyph unicode="&#xae;" horiz-adv-x="655" d="M348 272Q280 272 225 304T139 390T107 513Q107 568 128 617T188 703T275 762T380 784Q448 784 502 752T589 666T621 544Q621 489 599 440T539 353T452 294T348 272ZM348 334Q405 334 453 362T530 439T559 545Q559
596 536 635T472 698T380 722Q322 722 274 694T197 618T168 512Q168 461 191 421T256 358T348 334ZM243 394L281 664H383Q424 664 450 644T476 582Q476 553 463 532T428 500L481 394H412L367 488H321L308 394H243ZM328 543H376Q391 543 402 554T413 580Q413 593
405 600T382 608H338L328 543Z" />
<glyph unicode="&#xaf;" horiz-adv-x="445" d="M164 660L176 743H464L452 660H164Z" />
<glyph unicode="&#xb0;" horiz-adv-x="501" d="M284 434Q241 434 207 453T153 507T133 583Q133 632 156 671T219 733T307 757Q351 757 385 738T439 684T459 607Q459 560 436 521T373 458T284 434ZM289 506Q317 506 338 519T373 554T387 603Q387 640 362 663T301
686Q261 686 233 658T205 588Q205 551 229 529T289 506Z" />
<glyph unicode="&#xb1;" horiz-adv-x="625" d="M254 158L277 322H70L83 409H290L313 573H400L378 409H583L570 322H366L343 158H254ZM25 0L38 88H538L525 0H25Z" />
<glyph unicode="&#xb2;" horiz-adv-x="435" d="M42 223L48 288L206 438Q254 484 282 512T322 563T334 610Q334 640 315 657T263 674Q226 674 198 653T155 593L80 619Q99 681 150 717T266 753Q312 753 347 737T402 690T422 618Q422 580 407 549T365 488T306 428L166
298H400L389 223H42Z" />
<glyph unicode="&#xb3;" horiz-adv-x="432" d="M212 215Q169 215 132 230T70 274T38 340L116 368Q127 331 153 312T216 293Q263 293 293 321T323 395Q323 435 299 457T233 480Q222 480 208 478T181 470L166 511L320 671H100L110 745H432L423 675L272 515L269 545Q313
545 344 526T393 473T411 397Q411 344 384 303T311 238T212 215Z" />
<glyph unicode="&#xb4;" horiz-adv-x="362" d="M162 640L264 798H390L255 640H162Z" />
<glyph unicode="&#xb5;" horiz-adv-x="580" d="M3 -140L99 539H193L147 210Q141 170 152 140T190 94T252 78Q292 78 324 96T379 146T407 222L452 539H546L471 0H380L394 110L404 91Q379 40 333 14T229 -12Q189 -12 157 2T100 38L126 66L98 -140H3Z" />
<glyph unicode="&#xb6;" horiz-adv-x="453" d="M186 -100L253 385Q201 385 164 408T109 473T98 565Q105 617 134 657T207 721T304 745H402L284 -100H186Z" />
<glyph unicode="&#xb7;" horiz-adv-x="317" d="M101 209L118 329H216L198 209H101Z" />
<glyph unicode="&#xb8;" horiz-adv-x="382" d="M146 -232Q118 -232 90 -223T44 -197L76 -136Q90 -149 107 -156T143 -163Q166 -163 181 -151T197 -119Q197 -100 175 -89T108 -72L142 10H204L186 -35Q231 -44 255 -65T280 -119Q280 -151 262 -176T214 -217T146 -232Z" />
<glyph unicode="&#xb9;" horiz-adv-x="308" d="M113 223L175 670H76L86 745H274L201 223H113Z" />
<glyph unicode="&#xba;" horiz-adv-x="500" d="M279 359Q226 359 184 383T116 449T90 546Q90 605 118 652T195 727T301 755Q355 755 397 732T465 666T490 569Q490 511 462 463T385 387T279 359ZM280 437Q315 437 342 455T386 503T402 570Q402 617 374 647T301
677Q266 677 239 660T195 612T178 545Q178 514 191 490T227 451T280 437Z" />
<glyph unicode="&#xbb;" horiz-adv-x="592" d="M262 77L450 279L331 462H432L557 269L377 77H262ZM7 77L195 279L76 462H177L302 269L122 77H7Z" />
<glyph unicode="&#xbc;" horiz-adv-x="883" d="M109 328L157 678H77L86 745H247L189 328H109ZM81 0L631 745H722L172 0H81ZM671 0L685 92H494L503 158L725 417H809L772 158H833L824 92H763L751 0H671ZM557 129L548 158H693L721 355L742 349L557 129Z" />
<glyph unicode="&#xbd;" horiz-adv-x="849" d="M109 328L157 678H77L86 745H247L189 328H109ZM81 0L631 745H722L172 0H81ZM492 0L498 60L621 177Q659 212 680 234T711 272T720 307Q720 328 706 340T669 353Q642 353 622 337T590 293L522 318Q538 367 580 395T674
424Q728 424 764 394T800 314Q800 283 787 257T753 209T711 167L603 68H782L773 0H492Z" />
<glyph unicode="&#xbe;" horiz-adv-x="966" d="M192 321Q158 321 128 333T77 369T51 424L123 449Q130 421 149 407T195 393Q230 393 252 414T274 468Q274 496 256 512T208 528Q198 528 186 526T163 519L149 557L270 679H101L110 745H371L363 682L242 558L241 587Q294
587 324 554T354 470Q354 426 332 393T272 340T192 321ZM165 0L715 745H806L256 0H165ZM754 0L768 92H577L586 158L808 417H892L855 158H916L907 92H846L834 0H754ZM640 129L631 158H776L804 355L825 349L640 129Z" />
<glyph unicode="&#xbf;" horiz-adv-x="528" d="M207 -218Q146 -218 101 -194T33 -130T9 -44Q9 2 29 38T79 104T141 163Q176 195 199 230T232 310L234 321H329L326 307Q314 242 284 196T211 111Q186 89 163 67T124 20T108 -38Q108 -75 135 -103T215 -131Q266 -131
305 -99T357 -14L444 -34Q431 -89 398 -130T315 -195T207 -218ZM243 419L261 539H358L341 419H243Z" />
<glyph unicode="&#xc0;" horiz-adv-x="672" d="M-27 0L344 745H460L623 0H522L485 175H168L83 0H-27ZM212 265H467L382 673L410 670L212 265ZM370 847L282 1005H407L464 847H370Z" />
<glyph unicode="&#xc1;" horiz-adv-x="672" d="M-27 0L344 745H460L623 0H522L485 175H168L83 0H-27ZM212 265H467L382 673L410 670L212 265ZM370 847L472 1005H598L463 847H370Z" />
<glyph unicode="&#xc2;" horiz-adv-x="672" d="M-27 0L344 745H460L623 0H522L485 175H168L83 0H-27ZM212 265H467L382 673L410 670L212 265ZM219 847L360 1002H468L565 847H470L411 938L327 847H219Z" />
<glyph unicode="&#xc3;" horiz-adv-x="672" d="M-27 0L344 745H460L623 0H522L485 175H168L83 0H-27ZM212 265H467L382 673L410 670L212 265ZM481 847Q454 847 439 856T413 877T393 898T365 907Q349 907 338 894T322 851H246Q253 896 271 925T315 970T371 985Q398
985 413 976T439 955T460 934T488 925Q507 925 518 940T534 981H608Q599 918 564 883T481 847Z" />
<glyph unicode="&#xc4;" horiz-adv-x="672" d="M-27 0L344 745H460L623 0H522L485 175H168L83 0H-27ZM212 265H467L382 673L410 670L212 265ZM265 847L280 960H393L377 847H265ZM457 847L473 960H585L570 847H457Z" />
<glyph unicode="&#xc5;" horiz-adv-x="672" d="M-27 0L344 745H460L623 0H522L485 175H168L83 0H-27ZM212 265H467L382 673L410 670L212 265ZM414 820Q371 820 342 845T313 914Q313 950 331 979T378 1025T445 1043Q488 1043 516 1018T545 949Q545 913 528 884T480
837T414 820ZM423 882Q446 882 462 899T479 940Q479 958 467 969T436 981Q413 981 397 964T380 923Q380 904 392 893T423 882Z" />
<glyph unicode="&#xc6;" horiz-adv-x="987" d="M-27 0L344 745H1015L1002 655H616L582 419H949L937 329H570L536 90H923L910 0H425L449 175H169L83 0H-27ZM212 265H462L517 655H403L212 265Z" />
<glyph unicode="&#xc7;" horiz-adv-x="794" d="M416 -12Q344 -12 282 12T174 84T102 196T76 344Q76 430 105 505T186 636T310 725T464 757Q544 757 604 730T704 659T759 567L666 528Q644 590 593 628T462 666Q400 666 348 642T256 574T196 472T174 344Q174 264
204 205T290 112T417 79Q497 79 555 118T644 219L732 175Q710 127 665 84T557 15T416 -12ZM395 -232Q367 -232 339 -223T293 -197L325 -136Q339 -149 356 -156T392 -163Q415 -163 430 -151T446 -119Q446 -100 424 -89T357 -72L391 10H453L435 -35Q480 -44 504 -65T529
-119Q529 -151 511 -176T463 -217T395 -232Z" />
<glyph unicode="&#xc8;" horiz-adv-x="607" d="M45 0L149 745H635L622 655H236L202 419H569L557 329H190L156 90H543L531 0H45ZM359 847L271 1005H396L453 847H359Z" />
<glyph unicode="&#xc9;" horiz-adv-x="607" d="M45 0L149 745H635L622 655H236L202 419H569L557 329H190L156 90H543L531 0H45ZM359 847L461 1005H587L452 847H359Z" />
<glyph unicode="&#xca;" horiz-adv-x="607" d="M45 0L149 745H635L622 655H236L202 419H569L557 329H190L156 90H543L531 0H45ZM208 847L349 1002H457L554 847H459L400 938L316 847H208Z" />
<glyph unicode="&#xcb;" horiz-adv-x="607" d="M45 0L149 745H635L622 655H236L202 419H569L557 329H190L156 90H543L531 0H45ZM255 847L270 960H383L367 847H255ZM447 847L463 960H575L560 847H447Z" />
<glyph unicode="&#xcc;" horiz-adv-x="265" d="M45 0L149 745H248L144 0H45ZM167 847L79 1005H204L261 847H167Z" />
<glyph unicode="&#xcd;" horiz-adv-x="265" d="M45 0L149 745H248L144 0H45ZM167 847L269 1005H395L260 847H167Z" />
<glyph unicode="&#xce;" horiz-adv-x="265" d="M45 0L149 745H248L144 0H45ZM16 847L157 1002H265L362 847H267L208 938L124 847H16Z" />
<glyph unicode="&#xcf;" horiz-adv-x="265" d="M45 0L149 745H248L144 0H45ZM62 847L77 960H190L174 847H62ZM254 847L270 960H382L367 847H254Z" />
<glyph unicode="&#xd0;" horiz-adv-x="744" d="M33 331L45 416H361L349 331H33ZM45 0L149 745H381Q484 745 559 703T676 586T718 413Q718 323 690 248T609 117T480 31T311 0H45ZM156 90H313Q381 90 436 113T531 178T594 279T616 407Q616 483 587 539T503 625T372
655H236L156 90Z" />
<glyph unicode="&#xd1;" horiz-adv-x="738" d="M45 0L149 745H232L569 143L538 139L623 745H722L618 0H535L200 606L229 610L144 0H45ZM514 847Q487 847 472 856T446 877T426 898T398 907Q382 907 371 894T355 851H279Q286 896 304 925T348 970T404 985Q431 985
446 976T472 955T493 934T521 925Q540 925 551 940T567 981H641Q632 918 597 883T514 847Z" />
<glyph unicode="&#xd2;" horiz-adv-x="881" d="M431 -12Q355 -12 291 14T178 88T103 201T76 346Q76 432 106 506T191 637T319 725T478 757Q555 757 620 731T733 657T808 544T835 400Q835 314 804 240T718 109T590 20T431 -12ZM432 79Q497 79 552 104T649 174T713
275T736 398Q736 474 704 534T614 630T478 666Q413 666 358 641T261 571T197 470T174 348Q174 272 207 211T297 115T432 79ZM475 847L387 1005H512L569 847H475Z" />
<glyph unicode="&#xd3;" horiz-adv-x="881" d="M431 -12Q355 -12 291 14T178 88T103 201T76 346Q76 432 106 506T191 637T319 725T478 757Q555 757 620 731T733 657T808 544T835 400Q835 314 804 240T718 109T590 20T431 -12ZM432 79Q497 79 552 104T649 174T713
275T736 398Q736 474 704 534T614 630T478 666Q413 666 358 641T261 571T197 470T174 348Q174 272 207 211T297 115T432 79ZM475 847L577 1005H703L568 847H475Z" />
<glyph unicode="&#xd4;" horiz-adv-x="881" d="M431 -12Q355 -12 291 14T178 88T103 201T76 346Q76 432 106 506T191 637T319 725T478 757Q555 757 620 731T733 657T808 544T835 400Q835 314 804 240T718 109T590 20T431 -12ZM432 79Q497 79 552 104T649 174T713
275T736 398Q736 474 704 534T614 630T478 666Q413 666 358 641T261 571T197 470T174 348Q174 272 207 211T297 115T432 79ZM324 847L465 1002H573L670 847H575L516 938L432 847H324Z" />
<glyph unicode="&#xd5;" horiz-adv-x="881" d="M431 -12Q355 -12 291 14T178 88T103 201T76 346Q76 432 106 506T191 637T319 725T478 757Q555 757 620 731T733 657T808 544T835 400Q835 314 804 240T718 109T590 20T431 -12ZM432 79Q497 79 552 104T649 174T713
275T736 398Q736 474 704 534T614 630T478 666Q413 666 358 641T261 571T197 470T174 348Q174 272 207 211T297 115T432 79ZM586 847Q559 847 544 856T518 877T498 898T470 907Q454 907 443 894T427 851H351Q358 896 376 925T420 970T476 985Q503 985 518 976T544
955T565 934T593 925Q612 925 623 940T639 981H713Q704 918 669 883T586 847Z" />
<glyph unicode="&#xd6;" horiz-adv-x="881" d="M431 -12Q355 -12 291 14T178 88T103 201T76 346Q76 432 106 506T191 637T319 725T478 757Q555 757 620 731T733 657T808 544T835 400Q835 314 804 240T718 109T590 20T431 -12ZM432 79Q497 79 552 104T649 174T713
275T736 398Q736 474 704 534T614 630T478 666Q413 666 358 641T261 571T197 470T174 348Q174 272 207 211T297 115T432 79ZM370 847L385 960H498L482 847H370ZM562 847L578 960H690L675 847H562Z" />
<glyph unicode="&#xd7;" horiz-adv-x="625" d="M119 0L59 66L243 227L109 382L178 444L312 289L493 448L552 382L370 223L508 62L440 0L302 161L119 0Z" />
<glyph unicode="&#xd8;" horiz-adv-x="881" d="M39 0L753 745H873L159 0H39ZM431 -12Q355 -12 291 14T178 88T103 201T76 346Q76 432 106 506T191 637T319 725T478 757Q555 757 620 731T733 657T808 544T835 400Q835 314 804 240T718 109T590 20T431 -12ZM432
79Q497 79 552 104T649 174T713 275T736 398Q736 474 704 534T614 630T478 666Q413 666 358 641T261 571T197 470T174 348Q174 272 207 211T297 115T432 79Z" />
<glyph unicode="&#xd9;" horiz-adv-x="706" d="M323 -12Q240 -12 181 22T94 117T76 253L145 745H244L176 252Q169 201 185 162T239 101T328 79Q380 79 422 101T493 162T528 254L597 745H695L625 248Q615 172 574 114T468 22T323 -12ZM387 847L299 1005H424L481 847H387Z" />
<glyph unicode="&#xda;" horiz-adv-x="706" d="M323 -12Q240 -12 181 22T94 117T76 253L145 745H244L176 252Q169 201 185 162T239 101T328 79Q380 79 422 101T493 162T528 254L597 745H695L625 248Q615 172 574 114T468 22T323 -12ZM387 847L489 1005H615L480 847H387Z" />
<glyph unicode="&#xdb;" horiz-adv-x="706" d="M323 -12Q240 -12 181 22T94 117T76 253L145 745H244L176 252Q169 201 185 162T239 101T328 79Q380 79 422 101T493 162T528 254L597 745H695L625 248Q615 172 574 114T468 22T323 -12ZM236 847L377 1002H485L582
847H487L428 938L344 847H236Z" />
<glyph unicode="&#xdc;" horiz-adv-x="706" d="M323 -12Q240 -12 181 22T94 117T76 253L145 745H244L176 252Q169 201 185 162T239 101T328 79Q380 79 422 101T493 162T528 254L597 745H695L625 248Q615 172 574 114T468 22T323 -12ZM282 847L297 960H410L394
847H282ZM474 847L490 960H602L587 847H474Z" />
<glyph unicode="&#xdd;" horiz-adv-x="635" d="M231 0L279 341L78 745H183L352 404L312 407L573 745H691L379 341L331 0H231ZM352 847L454 1005H580L445 847H352Z" />
<glyph unicode="&#xde;" horiz-adv-x="659" d="M38 0L142 745H241L221 603H394Q463 603 514 576T592 501T620 384Q620 314 587 260T494 174T353 143H156L137 0H38ZM169 233H358Q407 233 443 252T500 306T521 385Q521 445 485 479T387 513H208L169 233Z" />
<glyph unicode="&#xdf;" horiz-adv-x="617" d="M24 -152L120 530Q130 601 166 652T258 730T379 757Q439 757 483 736T553 677T579 585Q579 549 565 508T519 434T434 383L437 409Q498 388 529 346T561 239Q561 204 548 162T503 84T418 24T283 0H227L238 85H288Q341
85 375 100T428 139T455 189T463 236Q463 291 429 322T330 353H276L288 438H328Q372 438 401 453T448 490T472 537T480 579Q480 622 452 647T375 672Q334 672 300 654T243 603T213 525L119 -152H24Z" />
<glyph unicode="&#xe0;" horiz-adv-x="576" d="M206 -12Q160 -12 121 4T57 53T33 135Q33 182 56 218T123 278T226 311L430 344L422 266L242 235Q191 226 161 202T131 140Q131 106 156 87T223 67Q270 67 308 89T372 148T404 231L421 359Q427 395 412 418T371 453T314
465Q265 465 227 440T167 377L89 424Q109 461 143 489T223 534T320 551Q380 551 427 526T499 457T516 355L466 0H374L388 102L408 93Q387 61 356 38T287 1T206 -12ZM293 640L205 798H330L387 640H293Z" />
<glyph unicode="&#xe1;" horiz-adv-x="576" d="M206 -12Q160 -12 121 4T57 53T33 135Q33 182 56 218T123 278T226 311L430 344L422 266L242 235Q191 226 161 202T131 140Q131 106 156 87T223 67Q270 67 308 89T372 148T404 231L421 359Q427 395 412 418T371 453T314
465Q265 465 227 440T167 377L89 424Q109 461 143 489T223 534T320 551Q380 551 427 526T499 457T516 355L466 0H374L388 102L408 93Q387 61 356 38T287 1T206 -12ZM294 640L396 798H522L387 640H294Z" />
<glyph unicode="&#xe2;" horiz-adv-x="576" d="M206 -12Q160 -12 121 4T57 53T33 135Q33 182 56 218T123 278T226 311L430 344L422 266L242 235Q191 226 161 202T131 140Q131 106 156 87T223 67Q270 67 308 89T372 148T404 231L421 359Q427 395 412 418T371 453T314
465Q265 465 227 440T167 377L89 424Q109 461 143 489T223 534T320 551Q380 551 427 526T499 457T516 355L466 0H374L388 102L408 93Q387 61 356 38T287 1T206 -12ZM399 640L540 795H648L745 640H650L591 731L507 640H399Z" />
<glyph unicode="&#xe3;" horiz-adv-x="576" d="M206 -12Q160 -12 121 4T57 53T33 135Q33 182 56 218T123 278T226 311L430 344L422 266L242 235Q191 226 161 202T131 140Q131 106 156 87T223 67Q270 67 308 89T372 148T404 231L421 359Q427 395 412 418T371 453T314
465Q265 465 227 440T167 377L89 424Q109 461 143 489T223 534T320 551Q380 551 427 526T499 457T516 355L466 0H374L388 102L408 93Q387 61 356 38T287 1T206 -12ZM404 640Q377 640 362 649T336 670T316 691T288 700Q272 700 261 687T245 644H169Q176 689 194
718T238 763T294 778Q321 778 336 769T362 748T383 727T411 718Q430 718 441 733T457 774H531Q522 711 487 676T404 640Z" />
<glyph unicode="&#xe4;" horiz-adv-x="576" d="M206 -12Q160 -12 121 4T57 53T33 135Q33 182 56 218T123 278T226 311L430 344L422 266L242 235Q191 226 161 202T131 140Q131 106 156 87T223 67Q270 67 308 89T372 148T404 231L421 359Q427 395 412 418T371 453T314
465Q265 465 227 440T167 377L89 424Q109 461 143 489T223 534T320 551Q380 551 427 526T499 457T516 355L466 0H374L388 102L408 93Q387 61 356 38T287 1T206 -12ZM189 640L204 753H317L301 640H189ZM381 640L397 753H509L494 640H381Z" />
<glyph unicode="&#xe5;" horiz-adv-x="576" d="M206 -12Q160 -12 121 4T57 53T33 135Q33 182 56 218T123 278T226 311L430 344L422 266L242 235Q191 226 161 202T131 140Q131 106 156 87T223 67Q270 67 308 89T372 148T404 231L421 359Q427 395 412 418T371 453T314
465Q265 465 227 440T167 377L89 424Q109 461 143 489T223 534T320 551Q380 551 427 526T499 457T516 355L466 0H374L388 102L408 93Q387 61 356 38T287 1T206 -12ZM338 613Q295 613 266 638T237 707Q237 743 255 772T302 818T369 836Q412 836 440 811T469 742Q469
706 452 677T404 630T338 613ZM347 675Q370 675 386 692T403 733Q403 751 391 762T360 774Q337 774 321 757T304 716Q304 697 316 686T347 675Z" />
<glyph unicode="&#xe6;" horiz-adv-x="979" d="M206 -12Q160 -12 121 4T57 53T33 135Q33 182 56 218T123 278T226 311L419 342L421 359Q426 395 411 418T370 453T314 465Q265 465 227 440T167 377L89 424Q109 461 143 489T223 534T320 551Q364 551 401 537T466
498T506 439L475 441Q513 491 569 521T693 551Q770 551 823 517T903 429T931 310Q931 293 928 274T923 242H510Q511 189 531 152T587 94T669 73Q724 73 763 98T828 163L905 121Q886 84 851 54T769 6T668 -12Q600 -12 546 17T460 97L483 119L466 0H374L389 105L402
84Q380 54 350 33T284 0T206 -12ZM223 67Q270 67 308 89T372 148T404 231L408 264L242 235Q191 226 161 202T131 140Q131 106 156 87T223 67ZM519 322H833Q836 363 818 396T768 449T692 468Q646 468 611 450T553 399T519 322Z" />
<glyph unicode="&#xe7;" horiz-adv-x="615" d="M303 -12Q229 -12 172 22T83 116T51 251Q51 314 73 368T134 464T226 528T339 551Q393 551 438 533T517 481T564 405L479 367Q464 409 427 435T339 461Q284 461 241 432T174 354T150 251Q150 201 170 162T226 101T308
78Q360 78 401 105T465 176L546 131Q525 89 489 57T405 7T303 -12ZM283 -232Q255 -232 227 -223T181 -197L213 -136Q227 -149 244 -156T280 -163Q303 -163 318 -151T334 -119Q334 -100 312 -89T245 -72L279 10H341L323 -35Q368 -44 392 -65T417 -119Q417 -151 399
-176T351 -217T283 -232Z" />
<glyph unicode="&#xe8;" horiz-adv-x="616" d="M305 -12Q230 -12 173 22T84 115T51 251Q51 312 71 366T130 462T219 527T331 551Q407 551 460 517T541 429T569 310Q569 293 566 274T560 242H118L123 322H512L465 287Q478 338 463 378T413 443T330 468Q269 468
229 439T168 357T147 236Q147 186 168 149T226 93T306 73Q361 73 400 98T465 163L542 121Q523 84 488 54T406 6T305 -12ZM313 640L225 798H350L407 640H313Z" />
<glyph unicode="&#xe9;" horiz-adv-x="616" d="M305 -12Q230 -12 173 22T84 115T51 251Q51 312 71 366T130 462T219 527T331 551Q407 551 460 517T541 429T569 310Q569 293 566 274T560 242H118L123 322H512L465 287Q478 338 463 378T413 443T330 468Q269 468
229 439T168 357T147 236Q147 186 168 149T226 93T306 73Q361 73 400 98T465 163L542 121Q523 84 488 54T406 6T305 -12ZM314 640L416 798H542L407 640H314Z" />
<glyph unicode="&#xea;" horiz-adv-x="616" d="M305 -12Q230 -12 173 22T84 115T51 251Q51 312 71 366T130 462T219 527T331 551Q407 551 460 517T541 429T569 310Q569 293 566 274T560 242H118L123 322H512L465 287Q478 338 463 378T413 443T330 468Q269 468
229 439T168 357T147 236Q147 186 168 149T226 93T306 73Q361 73 400 98T465 163L542 121Q523 84 488 54T406 6T305 -12ZM163 640L304 795H412L509 640H414L355 731L271 640H163Z" />
<glyph unicode="&#xeb;" horiz-adv-x="616" d="M305 -12Q230 -12 173 22T84 115T51 251Q51 312 71 366T130 462T219 527T331 551Q407 551 460 517T541 429T569 310Q569 293 566 274T560 242H118L123 322H512L465 287Q478 338 463 378T413 443T330 468Q269 468
229 439T168 357T147 236Q147 186 168 149T226 93T306 73Q361 73 400 98T465 163L542 121Q523 84 488 54T406 6T305 -12ZM209 640L224 753H337L321 640H209ZM401 640L417 753H529L514 640H401Z" />
<glyph unicode="&#xec;" horiz-adv-x="211" d="M20 0L96 539H190L115 0H20ZM110 640L22 798H147L204 640H110Z" />
<glyph unicode="&#xed;" horiz-adv-x="211" d="M20 0L96 539H190L115 0H20ZM366 640L468 798H594L459 640H366Z" />
<glyph unicode="&#xee;" horiz-adv-x="211" d="M20 0L96 539H190L115 0H20ZM-41 640L100 795H208L305 640H210L151 731L67 640H-41Z" />
<glyph unicode="&#xef;" horiz-adv-x="211" d="M20 0L96 539H190L115 0H20ZM6 640L21 753H134L118 640H6ZM198 640L214 753H326L311 640H198Z" />
<glyph unicode="&#xf0;" horiz-adv-x="677" d="M329 -12Q255 -12 197 21T106 113T73 247Q73 309 95 362T157 455T250 518T365 541Q401 541 436 532T502 502T552 444L530 406Q537 468 518 523T461 620T369 686T253 710Q224 710 195 706T136 691L124 771Q161 784
196 789T264 795Q357 795 426 760T541 663T611 523T634 359Q634 253 600 169T498 37T329 -12ZM336 78Q390 78 434 106T504 182T530 283Q530 331 510 368T454 428T367 451Q312 451 267 423T197 350T171 249Q171 199 193 161T252 100T336 78ZM281 580L285 639L605
755L602 695L281 580Z" />
<glyph unicode="&#xf1;" horiz-adv-x="580" d="M34 0L110 539H201L187 434L173 445Q199 496 247 523T352 551Q411 551 454 523T517 447T529 336L482 0H388L434 328Q442 389 412 425T326 461Q287 461 255 444T201 394T172 318L128 0H34ZM406 640Q379 640 364 649T338
670T318 691T290 700Q274 700 263 687T247 644H171Q178 689 196 718T240 763T296 778Q323 778 338 769T364 748T385 727T413 718Q432 718 443 733T459 774H533Q524 711 489 676T406 640Z" />
<glyph unicode="&#xf2;" horiz-adv-x="657" d="M314 -12Q240 -12 181 22T86 116T51 254Q51 316 73 369T136 464T229 528T344 551Q419 551 478 517T573 424T608 287Q608 225 585 171T521 76T427 11T314 -12ZM313 78Q369 78 413 107T483 183T509 288Q509 338 488
377T430 438T344 461Q290 461 246 433T176 357T150 252Q150 202 171 163T229 101T313 78ZM334 640L246 798H371L428 640H334Z" />
<glyph unicode="&#xf3;" horiz-adv-x="657" d="M314 -12Q240 -12 181 22T86 116T51 254Q51 316 73 369T136 464T229 528T344 551Q419 551 478 517T573 424T608 287Q608 225 585 171T521 76T427 11T314 -12ZM313 78Q369 78 413 107T483 183T509 288Q509 338 488
377T430 438T344 461Q290 461 246 433T176 357T150 252Q150 202 171 163T229 101T313 78ZM334 640L436 798H562L427 640H334Z" />
<glyph unicode="&#xf4;" horiz-adv-x="657" d="M314 -12Q240 -12 181 22T86 116T51 254Q51 316 73 369T136 464T229 528T344 551Q419 551 478 517T573 424T608 287Q608 225 585 171T521 76T427 11T314 -12ZM313 78Q369 78 413 107T483 183T509 288Q509 338 488
377T430 438T344 461Q290 461 246 433T176 357T150 252Q150 202 171 163T229 101T313 78ZM183 640L324 795H432L529 640H434L375 731L291 640H183Z" />
<glyph unicode="&#xf5;" horiz-adv-x="657" d="M314 -12Q240 -12 181 22T86 116T51 254Q51 316 73 369T136 464T229 528T344 551Q419 551 478 517T573 424T608 287Q608 225 585 171T521 76T427 11T314 -12ZM313 78Q369 78 413 107T483 183T509 288Q509 338 488
377T430 438T344 461Q290 461 246 433T176 357T150 252Q150 202 171 163T229 101T313 78ZM445 640Q418 640 403 649T377 670T357 691T329 700Q313 700 302 687T286 644H210Q217 689 235 718T279 763T335 778Q362 778 377 769T403 748T424 727T452 718Q471 718 482
733T498 774H572Q563 711 528 676T445 640Z" />
<glyph unicode="&#xf6;" horiz-adv-x="657" d="M314 -12Q240 -12 181 22T86 116T51 254Q51 316 73 369T136 464T229 528T344 551Q419 551 478 517T573 424T608 287Q608 225 585 171T521 76T427 11T314 -12ZM313 78Q369 78 413 107T483 183T509 288Q509 338 488
377T430 438T344 461Q290 461 246 433T176 357T150 252Q150 202 171 163T229 101T313 78ZM229 640L244 753H357L341 640H229ZM421 640L437 753H549L534 640H421Z" />
<glyph unicode="&#xf7;" horiz-adv-x="625" d="M54 207L66 294H566L554 207H54ZM226 0L241 107H338L324 0H226ZM282 393L296 500H394L379 393H282Z" />
<glyph unicode="&#xf8;" horiz-adv-x="657" d="M-4 0L541 539H661L116 0H-4ZM314 -12Q240 -12 181 22T86 116T51 254Q51 316 73 369T136 464T229 528T344 551Q419 551 478 517T573 424T608 287Q608 225 585 171T521 76T427 11T314 -12ZM313 78Q369 78 413 107T483
183T509 288Q509 338 488 377T430 438T344 461Q290 461 246 433T176 357T150 252Q150 202 171 163T229 101T313 78Z" />
<glyph unicode="&#xf9;" horiz-adv-x="581" d="M229 -12Q169 -12 126 16T64 95T53 215L99 539H193L146 211Q141 171 153 141T191 95T255 78Q294 78 326 95T380 145T408 221L453 539H546L471 0H380L394 105L408 94Q382 42 335 15T229 -12ZM295 640L207 798H332L389
640H295Z" />
<glyph unicode="&#xfa;" horiz-adv-x="581" d="M229 -12Q169 -12 126 16T64 95T53 215L99 539H193L146 211Q141 171 153 141T191 95T255 78Q294 78 326 95T380 145T408 221L453 539H546L471 0H380L394 105L408 94Q382 42 335 15T229 -12ZM296 640L398 798H524L389
640H296Z" />
<glyph unicode="&#xfb;" horiz-adv-x="581" d="M229 -12Q169 -12 126 16T64 95T53 215L99 539H193L146 211Q141 171 153 141T191 95T255 78Q294 78 326 95T380 145T408 221L453 539H546L471 0H380L394 105L408 94Q382 42 335 15T229 -12ZM401 640L542 795H650L747
640H652L593 731L509 640H401Z" />
<glyph unicode="&#xfc;" horiz-adv-x="581" d="M229 -12Q169 -12 126 16T64 95T53 215L99 539H193L146 211Q141 171 153 141T191 95T255 78Q294 78 326 95T380 145T408 221L453 539H546L471 0H380L394 105L408 94Q382 42 335 15T229 -12ZM191 640L206 753H319L303
640H191ZM383 640L399 753H511L496 640H383Z" />
<glyph unicode="&#xfd;" horiz-adv-x="553" d="M36 -220Q17 -220 -1 -217T-35 -207L-28 -125Q-17 -127 -2 -129T28 -132Q61 -132 83 -122T124 -91T162 -38L209 41L198 -40L49 539H147L261 79H227L474 539H580L252 -66Q229 -110 198 -145T127 -200T36 -220ZM282
640L384 798H510L375 640H282Z" />
<glyph unicode="&#xfe;" horiz-adv-x="668" d="M6 -200L138 745H234L190 423L160 447Q194 496 247 523T366 551Q441 551 498 516T586 422T618 289Q618 228 597 174T536 77T445 12T332 -12Q264 -12 209 18T126 100L146 115L103 -200H6ZM326 78Q382 78 425 107T493
183T519 288Q519 338 498 377T441 438T354 461Q299 461 256 433T188 357T163 254Q163 203 184 163T242 101T326 78Z" />
<glyph unicode="&#xff;" horiz-adv-x="553" d="M36 -220Q17 -220 -1 -217T-35 -207L-28 -125Q-17 -127 -2 -129T28 -132Q61 -132 83 -122T124 -91T162 -38L209 41L198 -40L49 539H147L261 79H227L474 539H580L252 -66Q229 -110 198 -145T127 -200T36 -220ZM177
640L192 753H305L289 640H177ZM369 640L385 753H497L482 640H369Z" />
<glyph unicode="&#x2013;" horiz-adv-x="597" d="M73 227L85 312H525L513 227H73Z" />
<glyph unicode="&#x2014;" horiz-adv-x="927" d="M73 227L85 312H855L843 227H73Z" />
<glyph unicode="&#x2018;" horiz-adv-x="298" d="M121 508L133 593Q142 659 177 701T273 757L267 712Q234 704 216 683T190 628H235L218 508H121Z" />
<glyph unicode="&#x2019;" horiz-adv-x="299" d="M120 496L126 541Q159 549 177 570T203 625H158L174 745H272L260 660Q252 595 216 553T120 496Z" />
<glyph unicode="&#x201a;" horiz-adv-x="298" d="M31 -129L38 -84Q70 -76 88 -55T115 0H69L86 120H183L171 35Q163 -30 127 -72T31 -129Z" />
<glyph unicode="&#x201c;" horiz-adv-x="467" d="M238 508L250 593Q259 659 294 701T390 757L384 712Q351 704 333 683T307 628H352L335 508H238ZM70 508L82 593Q91 659 127 701T222 757L216 712Q184 704 166 683T139 628H184L168 508H70Z" />
<glyph unicode="&#x201d;" horiz-adv-x="467" d="M238 496L244 541Q277 549 295 570T321 625H276L292 745H390L378 660Q370 595 334 553T238 496ZM70 496L77 541Q109 549 127 570T154 625H108L125 745H222L210 660Q202 595 166 553T70 496Z" />
<glyph unicode="&#x201e;" horiz-adv-x="467" d="M70 -129L77 -84Q109 -76 127 -55T154 0H108L125 120H222L210 35Q202 -30 166 -72T70 -129ZM238 -129L244 -84Q277 -76 295 -55T321 0H276L292 120H390L378 35Q370 -30 334 -72T238 -129Z" />
<glyph unicode="&#x2022;" horiz-adv-x="640" d="M297 59Q241 59 199 82T132 148T108 243Q108 308 140 362T228 448T350 480Q404 480 445 456T509 390T532 296Q532 249 514 206T463 130T388 78T297 59Z" />
<glyph unicode="&#x2039;" horiz-adv-x="337" d="M159 77L34 269L215 462H329L142 259L260 77H159Z" />
<glyph unicode="&#x203a;" horiz-adv-x="337" d="M7 77L195 279L76 462H177L302 269L122 77H7Z" />
</font>
</defs>
</svg>
